<?xml version="1.0" encoding="UTF-8" standalone="no"?>
<!-- Created with Inkscape (http://www.inkscape.org/) -->

<svg
   xmlns:dc="http://purl.org/dc/elements/1.1/"
   xmlns:cc="http://creativecommons.org/ns#"
   xmlns:rdf="http://www.w3.org/1999/02/22-rdf-syntax-ns#"
   xmlns:svg="http://www.w3.org/2000/svg"
   xmlns="http://www.w3.org/2000/svg"
   xmlns:sodipodi="http://sodipodi.sourceforge.net/DTD/sodipodi-0.dtd"
   xmlns:inkscape="http://www.inkscape.org/namespaces/inkscape"
   inkscape:version="0.48.4 r9939"
   version="1.1"
   id="svg2"
   height="486.87579"
   width="1102.1125"
   sodipodi:docname="fig6_C1.svg">
  <sodipodi:namedview
     id="base"
     pagecolor="#ffffff"
     bordercolor="#666666"
     borderopacity="1.0"
     inkscape:pageopacity="0.0"
     inkscape:pageshadow="2"
     inkscape:zoom="0.49497475"
     inkscape:cx="651.14663"
     inkscape:cy="221.90734"
     inkscape:document-units="px"
     inkscape:current-layer="layer1"
     showgrid="false"
     inkscape:window-width="1366"
     inkscape:window-height="706"
     inkscape:window-x="-8"
     inkscape:window-y="-8"
     inkscape:window-maximized="1"
     fit-margin-top="0"
     fit-margin-left="0"
     fit-margin-right="0"
     fit-margin-bottom="0" />
  <defs
     id="defs4">
    <marker
       inkscape:stockid="Arrow2Lstart"
       orient="auto"
       refY="0"
       refX="0"
       id="Arrow2Lstart"
       style="overflow:visible">
      <path
         id="path3777"
         style="fill-rule:evenodd;stroke-width:0.625;stroke-linejoin:round"
         d="M 8.7185878,4.0337352 -2.2072895,0.01601326 8.7185884,-4.0017078 c -1.7454984,2.3720609 -1.7354408,5.6174519 -6e-7,8.035443 z"
         transform="matrix(1.1,0,0,1.1,1.1,0)"
         inkscape:connector-curvature="0" />
    </marker>
  </defs>
  <metadata
     id="metadata7">
    <rdf:RDF>
      <cc:Work
         rdf:about="">
        <dc:format>image/svg+xml</dc:format>
        <dc:type
           rdf:resource="http://purl.org/dc/dcmitype/StillImage" />
        <dc:title />
      </cc:Work>
    </rdf:RDF>
  </metadata>
  <g
     inkscape:label="Layer 1"
     inkscape:groupmode="layer"
     id="layer1"
     transform="translate(-33.539013,-195.48773)">
    <g
       transform="translate(-60,0)"
       id="g4713">
      <path
         sodipodi:nodetypes="ccscc"
         inkscape:connector-curvature="0"
         id="path4203"
         d="m 307.57112,444.162 c 0,66.08702 -58.04181,119.66112 -58.04181,119.66112 0,0 -58.04181,-53.5741 -58.04181,-119.66112 0,-66.08701 58.04181,-119.66111 58.04181,-119.66111 0,0 58.04181,53.5741 58.04181,119.66111"
         style="fill:#ffffff;fill-opacity:1;stroke:#0d0000;stroke-width:3.49699998;stroke-miterlimit:4;stroke-opacity:1;stroke-dasharray:none" />
      <path
         inkscape:connector-curvature="0"
         id="path4208"
         d="m 249.30936,564.79416 -144.82548,0"
         style="fill:none;stroke:#000000;stroke-width:2.30996799;stroke-linecap:butt;stroke-linejoin:miter;stroke-miterlimit:4;stroke-opacity:1;stroke-dasharray:6.92990398, 6.92990398;stroke-dashoffset:0" />
      <path
         style="fill:none;stroke:#000000;stroke-width:2.32118201;stroke-linecap:butt;stroke-linejoin:miter;stroke-miterlimit:4;stroke-opacity:1;stroke-dasharray:6.96354598, 6.96354598;stroke-dashoffset:0"
         d="m 250.01804,323.32987 -145.52855,0"
         id="path4210"
         inkscape:connector-curvature="0" />
      <g
         id="g4244">
        <path
           style="fill:none;stroke:#000000;stroke-width:3.07800007;stroke-linecap:butt;stroke-linejoin:miter;stroke-miterlimit:4;stroke-opacity:1;stroke-dasharray:none"
           d="m 104.87745,680.82451 0,-483.79778"
           id="path4199"
           inkscape:connector-curvature="0" />
        <g
           id="g4216"
           transform="matrix(0.69612861,0,0,1,-18.835217,-12)">
          <path
             inkscape:connector-curvature="0"
             id="path4212"
             d="m 163.64471,276.56503 14.03335,-24.30647"
             style="fill:none;stroke:#000000;stroke-width:3.70000005;stroke-linecap:round;stroke-linejoin:miter;stroke-miterlimit:4;stroke-opacity:1;stroke-dasharray:none" />
          <path
             style="fill:none;stroke:#000000;stroke-width:3.70000005;stroke-linecap:round;stroke-linejoin:miter;stroke-miterlimit:4;stroke-opacity:1;stroke-dasharray:none"
             d="M 191.67806,276.56503 177.64471,252.25856"
             id="path4214"
             inkscape:connector-curvature="0" />
        </g>
        <g
           transform="matrix(0.69612861,0,0,1,-18.835217,180)"
           id="g4220">
          <path
             style="fill:none;stroke:#000000;stroke-width:3.70000005;stroke-linecap:round;stroke-linejoin:miter;stroke-miterlimit:4;stroke-opacity:1;stroke-dasharray:none"
             d="m 163.64471,276.56503 14.03335,-24.30647"
             id="path4222"
             inkscape:connector-curvature="0" />
          <path
             inkscape:connector-curvature="0"
             id="path4224"
             d="M 191.67806,276.56503 177.64471,252.25856"
             style="fill:none;stroke:#000000;stroke-width:3.70000005;stroke-linecap:round;stroke-linejoin:miter;stroke-miterlimit:4;stroke-opacity:1;stroke-dasharray:none" />
        </g>
        <g
           id="g4226"
           transform="matrix(0.69612861,0,0,1,-18.835217,354)">
          <path
             inkscape:connector-curvature="0"
             id="path4228"
             d="m 163.64471,276.56503 14.03335,-24.30647"
             style="fill:none;stroke:#000000;stroke-width:3.70000005;stroke-linecap:round;stroke-linejoin:miter;stroke-miterlimit:4;stroke-opacity:1;stroke-dasharray:none" />
          <path
             style="fill:none;stroke:#000000;stroke-width:3.70000005;stroke-linecap:round;stroke-linejoin:miter;stroke-miterlimit:4;stroke-opacity:1;stroke-dasharray:none"
             d="M 191.67806,276.56503 177.64471,252.25856"
             id="path4230"
             inkscape:connector-curvature="0" />
        </g>
      </g>
      <g
         id="g4232"
         transform="matrix(0.69465416,0.04528402,0.06505123,-0.99788193,166.79264,702.84953)">
        <path
           inkscape:connector-curvature="0"
           id="path4234"
           d="m 163.64471,276.56503 14.03335,-24.30647"
           style="fill:none;stroke:#000000;stroke-width:3.70000005;stroke-linecap:round;stroke-linejoin:miter;stroke-miterlimit:4;stroke-opacity:1;stroke-dasharray:none" />
        <path
           style="fill:none;stroke:#000000;stroke-width:3.70000005;stroke-linecap:round;stroke-linejoin:miter;stroke-miterlimit:4;stroke-opacity:1;stroke-dasharray:none"
           d="M 191.67806,276.56503 177.64471,252.25856"
           id="path4236"
           inkscape:connector-curvature="0" />
      </g>
      <g
         transform="matrix(0.69524843,0.03499506,-0.05027097,0.99873562,81.119807,175.70089)"
         id="g4238">
        <path
           style="fill:none;stroke:#000000;stroke-width:3.70000005;stroke-linecap:round;stroke-linejoin:miter;stroke-miterlimit:4;stroke-opacity:1;stroke-dasharray:none"
           d="m 163.64471,276.56503 14.03335,-24.30647"
           id="path4240"
           inkscape:connector-curvature="0" />
        <path
           inkscape:connector-curvature="0"
           id="path4242"
           d="M 191.67806,276.56503 177.64471,252.25856"
           style="fill:none;stroke:#000000;stroke-width:3.70000005;stroke-linecap:round;stroke-linejoin:miter;stroke-miterlimit:4;stroke-opacity:1;stroke-dasharray:none" />
      </g>
    </g>
    <path
       inkscape:connector-curvature="0"
       style="fill:#ffffff;fill-opacity:1;stroke:#0d0000;stroke-width:2.76300001;stroke-linecap:round;stroke-miterlimit:4;stroke-opacity:1;stroke-dasharray:none;stroke-dashoffset:0"
       d="m 594.91926,543.32041 c 4.03558,4.77464 8.70952,9.26931 13.5099,11.48632 4.80038,2.21703 9.64746,2.0668 13.69908,-0.56123 4.05161,-2.62803 7.24173,-7.67487 9.56595,-13.31564 2.32422,-5.64082 3.81406,-11.73105 5.53464,-16.28479 1.72057,-4.5537 3.7763,-7.48478 7.17776,-8.46938 3.40146,-0.9846 8.21138,-0.0742 14.07941,1.2628 5.86803,1.33687 12.73457,2.97149 18.93743,3.20108 6.20287,0.22958 11.60852,-1.0209 14.80952,-4.08613 3.201,-3.06521 4.12582,-7.90082 3.16932,-13.37301 -0.95651,-5.47217 -3.72131,-11.47722 -6.26138,-16.72887 -2.54007,-5.25168 -4.70178,-9.70028 -4.70521,-13.14909 -0.003,-3.44881 2.23276,-5.94682 6.42908,-8.30871 4.19631,-2.36191 10.27431,-4.66987 16.0271,-7.62277 5.75279,-2.95289 11.01288,-6.56982 13.68784,-10.62473 2.67496,-4.05491 2.67005,-8.4857 0,-12.54136 -2.67004,-4.05561 -7.93584,-7.67067 -13.68784,-10.62477 -5.752,-2.95406 -11.82725,-5.26104 -16.0271,-7.62273 -4.19985,-2.36171 -6.42845,-4.8617 -6.42908,-8.30871 -7.5e-4,-3.44705 2.16569,-7.89884 4.70521,-13.14909 2.53951,-5.2503 5.30144,-11.25554 6.26138,-16.7289 0.95992,-5.47333 0.0275,-10.3044 -3.16932,-13.37298 -3.19681,-3.06855 -8.60806,-4.31305 -14.80952,-4.08613 -6.20144,0.22692 -13.06756,1.86351 -18.93743,3.20108 -5.86989,1.33758 -10.67541,2.24381 -14.07941,1.2628 -3.40399,-0.98105 -5.45664,-3.91856 -7.17776,-8.46942 -1.72113,-4.55082 -3.21195,-10.64292 -5.53464,-16.28475 -2.32269,-5.64182 -5.51586,-10.68301 -9.56595,-13.31564 -4.0501,-2.6326 -8.89858,-2.77392 -13.69908,-0.56126 -4.8005,2.2127 -9.47432,6.71171 -13.5099,11.48635"
       title="cos(t)*(7+sin(9*t)) sin(t)*(7+sin(9*t))"
       id="path4660" />
    <path
       inkscape:connector-curvature="0"
       id="path4258"
       d="m 594.87745,680.82451 0,-483.79778"
       style="fill:none;stroke:#000000;stroke-width:3.07800007;stroke-linecap:butt;stroke-linejoin:miter;stroke-miterlimit:4;stroke-opacity:1;stroke-dasharray:none" />
    <g
       transform="matrix(0.69612861,0,0,1,471.16478,-12)"
       id="g4260">
      <path
         style="fill:none;stroke:#000000;stroke-width:3.70000005;stroke-linecap:round;stroke-linejoin:miter;stroke-miterlimit:4;stroke-opacity:1;stroke-dasharray:none"
         d="m 163.64471,276.56503 14.03335,-24.30647"
         id="path4262"
         inkscape:connector-curvature="0" />
      <path
         inkscape:connector-curvature="0"
         id="path4264"
         d="M 191.67806,276.56503 177.64471,252.25856"
         style="fill:none;stroke:#000000;stroke-width:3.70000005;stroke-linecap:round;stroke-linejoin:miter;stroke-miterlimit:4;stroke-opacity:1;stroke-dasharray:none" />
    </g>
    <g
       id="g4266"
       transform="matrix(0.69612861,0,0,1,471.16478,180)">
      <path
         inkscape:connector-curvature="0"
         id="path4268"
         d="m 163.64471,276.56503 14.03335,-24.30647"
         style="fill:none;stroke:#000000;stroke-width:3.70000005;stroke-linecap:round;stroke-linejoin:miter;stroke-miterlimit:4;stroke-opacity:1;stroke-dasharray:none" />
      <path
         style="fill:none;stroke:#000000;stroke-width:3.70000005;stroke-linecap:round;stroke-linejoin:miter;stroke-miterlimit:4;stroke-opacity:1;stroke-dasharray:none"
         d="M 191.67806,276.56503 177.64471,252.25856"
         id="path4270"
         inkscape:connector-curvature="0" />
    </g>
    <g
       transform="matrix(0.69612861,0,0,1,471.16478,354)"
       id="g4272">
      <path
         style="fill:none;stroke:#000000;stroke-width:3.70000005;stroke-linecap:round;stroke-linejoin:miter;stroke-miterlimit:4;stroke-opacity:1;stroke-dasharray:none"
         d="m 163.64471,276.56503 14.03335,-24.30647"
         id="path4274"
         inkscape:connector-curvature="0" />
      <path
         inkscape:connector-curvature="0"
         id="path4276"
         d="M 191.67806,276.56503 177.64471,252.25856"
         style="fill:none;stroke:#000000;stroke-width:3.70000005;stroke-linecap:round;stroke-linejoin:miter;stroke-miterlimit:4;stroke-opacity:1;stroke-dasharray:none" />
    </g>
    <g
       transform="translate(3.5714286,49.285714)"
       id="g4739">
      <path
         style="fill:none;stroke:#000000;stroke-width:2.08299994;stroke-linecap:round;stroke-linejoin:miter;stroke-miterlimit:4;stroke-opacity:1;stroke-dasharray:none"
         d="m 299.74138,396.64789 47.6601,0"
         id="path4735"
         inkscape:connector-curvature="0" />
      <path
         inkscape:connector-curvature="0"
         id="path4737"
         d="m 323.57143,420.47794 0,-47.6601"
         style="fill:none;stroke:#000000;stroke-width:2.08299994;stroke-linecap:round;stroke-linejoin:miter;stroke-miterlimit:4;stroke-opacity:1;stroke-dasharray:none" />
    </g>
    <g
       id="g4743"
       transform="translate(189.57142,49.285714)">
      <path
         inkscape:connector-curvature="0"
         id="path4745"
         d="m 299.74138,396.64789 47.6601,0"
         style="fill:none;stroke:#000000;stroke-width:2.08299994;stroke-linecap:round;stroke-linejoin:miter;stroke-miterlimit:4;stroke-opacity:1;stroke-dasharray:none" />
      <path
         style="fill:none;stroke:#000000;stroke-width:2.08299994;stroke-linecap:round;stroke-linejoin:miter;stroke-miterlimit:4;stroke-opacity:1;stroke-dasharray:none"
         d="m 323.57143,420.47794 0,-47.6601"
         id="path4747"
         inkscape:connector-curvature="0" />
    </g>
    <path
       transform="translate(-15.474495,-0.3370564)"
       d="m 383.85796,446.27066 c 0,2.23157 -1.80904,4.04061 -4.04061,4.04061 -2.23157,0 -4.04061,-1.80904 -4.04061,-4.04061 0,-2.23157 1.80904,-4.04061 4.04061,-4.04061 2.23157,0 4.04061,1.80904 4.04061,4.04061 z"
       sodipodi:ry="4.0406103"
       sodipodi:rx="4.0406103"
       sodipodi:cy="446.27066"
       sodipodi:cx="379.81735"
       id="path4749"
       style="fill:#030000;fill-opacity:1;stroke:#0d0000;stroke-width:2.08299994;stroke-linecap:round;stroke-miterlimit:4;stroke-opacity:1;stroke-dasharray:none;stroke-dashoffset:0"
       sodipodi:type="arc" />
    <path
       sodipodi:type="arc"
       style="fill:#030000;fill-opacity:1;stroke:#0d0000;stroke-width:2.08299994;stroke-linecap:round;stroke-miterlimit:4;stroke-opacity:1;stroke-dasharray:none;stroke-dashoffset:0"
       id="path4751"
       sodipodi:cx="379.81735"
       sodipodi:cy="446.27066"
       sodipodi:rx="4.0406103"
       sodipodi:ry="4.0406103"
       d="m 383.85796,446.27066 c 0,2.23157 -1.80904,4.04061 -4.04061,4.04061 -2.23157,0 -4.04061,-1.80904 -4.04061,-4.04061 0,-2.23157 1.80904,-4.04061 4.04061,-4.04061 2.23157,0 4.04061,1.80904 4.04061,4.04061 z"
       transform="translate(21.72551,-0.3370564)" />
    <path
       transform="translate(58.925514,-0.3370564)"
       d="m 383.85796,446.27066 c 0,2.23157 -1.80904,4.04061 -4.04061,4.04061 -2.23157,0 -4.04061,-1.80904 -4.04061,-4.04061 0,-2.23157 1.80904,-4.04061 4.04061,-4.04061 2.23157,0 4.04061,1.80904 4.04061,4.04061 z"
       sodipodi:ry="4.0406103"
       sodipodi:rx="4.0406103"
       sodipodi:cy="446.27066"
       sodipodi:cx="379.81735"
       id="path4753"
       style="fill:#030000;fill-opacity:1;stroke:#0d0000;stroke-width:2.08299994;stroke-linecap:round;stroke-miterlimit:4;stroke-opacity:1;stroke-dasharray:none;stroke-dashoffset:0"
       sodipodi:type="arc" />
    <path
       sodipodi:type="arc"
       style="fill:#030000;fill-opacity:1;stroke:#0d0000;stroke-width:2.08299994;stroke-linecap:round;stroke-miterlimit:4;stroke-opacity:1;stroke-dasharray:none;stroke-dashoffset:0"
       id="path4755"
       sodipodi:cx="379.81735"
       sodipodi:cy="446.27066"
       sodipodi:rx="4.0406103"
       sodipodi:ry="4.0406103"
       d="m 383.85796,446.27066 c 0,2.23157 -1.80904,4.04061 -4.04061,4.04061 -2.23157,0 -4.04061,-1.80904 -4.04061,-4.04061 0,-2.23157 1.80904,-4.04061 4.04061,-4.04061 2.23157,0 4.04061,1.80904 4.04061,4.04061 z"
       transform="translate(96.125519,-0.3370564)" />
    <text
       xml:space="preserve"
       style="font-size:40px;font-style:normal;font-weight:normal;line-height:125%;letter-spacing:0px;word-spacing:0px;fill:#000000;fill-opacity:1;stroke:none;font-family:Sans"
       x="848.57141"
       y="251.6479"
       id="text11336"
       sodipodi:linespacing="125%"><tspan
         sodipodi:role="line"
         id="tspan11338"
         x="0"
         y="0"><tspan
           style="font-size:22px"
           id="tspan11342" /></tspan></text>
    <path
       id="path11284"
       title="t cos(11*t)"
       d="m 870.08149,505.81991 c -10e-4,1.03325 -1.58978,2.06654 -3.83734,3.09981 -2.24756,1.03329 -5.01279,2.06657 -6.67804,3.09984 -1.66526,1.03329 -2.12105,2.06656 -1.10625,3.09982 1.01481,1.03328 3.44263,2.06655 5.85911,3.09984 2.41648,1.03327 4.66954,2.06655 5.44361,3.09984 0.77406,1.03324 0.0142,2.06653 -1.82934,3.0998 -1.84347,1.03329 -4.65907,2.06657 -6.79781,3.09984 -2.13874,1.03326 -3.46315,2.06653 -3.20293,3.09982 0.26021,1.03327 2.09539,2.06655 4.42677,3.09984 2.33135,1.03327 5.01429,2.06656 6.47995,3.09981 1.46565,1.03327 1.61658,2.06656 0.37019,3.09983 -1.24639,1.03329 -3.81758,2.06656 -6.2059,3.09984 -2.38832,1.03326 -4.44266,2.06655 -4.96429,3.09982 -0.52163,1.03328 0.52881,2.06655 2.53097,3.09984 2.00217,1.03326 4.83411,2.06656 6.8379,3.09981 2.00377,1.03327 3.04978,2.06656 2.53096,3.09984 -0.51881,1.03328 -2.57644,2.06656 -4.96427,3.09981 -2.38787,1.03328 -4.95706,2.06657 -6.20592,3.09984 -1.24886,1.03328 -1.09316,2.06655 0.3702,3.09984 1.46335,1.03324 4.14781,2.06653 6.47996,3.09981 2.33213,1.03327 4.16368,2.06656 4.42676,3.09984 0.26308,1.03328 -1.06555,2.06656 -3.20294,3.09981 -2.13738,1.03328 -4.95248,2.06655 -6.79781,3.09984 -1.84533,1.03328 -2.60066,2.06655 -1.82933,3.09984 0.77132,1.03326 3.02727,2.06654 5.4436,3.09981 2.41634,1.03327 4.84169,2.06656 5.85911,3.09984 1.01743,1.03325 0.55691,2.06653 -1.10625,3.09982 -1.66315,1.03327 -4.42941,2.06656 -6.67804,3.09984 -2.24862,1.03327 -3.8359,2.06654 -3.83734,3.0998"
       style="fill:none;stroke:#000000;stroke-width:1.58846903;stroke-linecap:round;stroke-miterlimit:4;stroke-opacity:1;stroke-dasharray:none;stroke-dashoffset:0"
       inkscape:connector-curvature="0" />
    <text
       xml:space="preserve"
       style="font-size:29.38086319px;font-style:normal;font-weight:normal;line-height:125%;letter-spacing:0px;word-spacing:0px;fill:#000000;fill-opacity:1;stroke:none;font-family:Sans"
       x="898.87927"
       y="309.51105"
       id="text11358"
       sodipodi:linespacing="125%"><tspan
         sodipodi:role="line"
         id="tspan11360"
         x="898.87927"
         y="309.51105">particle on top</tspan><tspan
         sodipodi:role="line"
         x="898.87927"
         y="346.23712"
         id="tspan4360">of Fermi surface</tspan></text>
    <text
       xml:space="preserve"
       style="font-size:29.38086319px;font-style:normal;font-weight:normal;line-height:125%;letter-spacing:0px;word-spacing:0px;fill:#000000;fill-opacity:1;stroke:none;font-family:Sans"
       x="888.43121"
       y="416.35056"
       id="text11364"
       sodipodi:linespacing="125%"><tspan
         sodipodi:role="line"
         id="tspan11366"
         x="888.43121"
         y="416.35056">antiparticle </tspan><tspan
         sodipodi:role="line"
         x="888.43121"
         y="453.07663"
         id="tspan11370">(hole in Fermi sea)</tspan></text>
    <text
       xml:space="preserve"
       style="font-size:29.38086319px;font-style:normal;font-weight:normal;line-height:125%;letter-spacing:0px;word-spacing:0px;fill:#000000;fill-opacity:1;stroke:none;font-family:Sans"
       x="909.45679"
       y="554.19257"
       id="text11372"
       sodipodi:linespacing="125%"><tspan
         sodipodi:role="line"
         id="tspan11374"
         x="909.45679"
         y="554.19257">phonon</tspan></text>
    <g
       id="g11406"
       transform="matrix(1.3354938,0,0,1.3354938,-242.64488,107.46318)">
      <path
         inkscape:connector-curvature="0"
         id="path11376"
         d="m 828.57143,179.50504 0,-65.71429"
         style="fill:none;stroke:#000000;stroke-width:1.60000002;stroke-linecap:butt;stroke-linejoin:miter;stroke-miterlimit:4;stroke-opacity:1;stroke-dasharray:none" />
      <g
         transform="matrix(0.38755256,0,0,0.55672552,759.77971,-1.474103)"
         id="g11400">
        <path
           style="fill:none;stroke:#000000;stroke-width:3.70000005;stroke-linecap:round;stroke-linejoin:miter;stroke-miterlimit:4;stroke-opacity:1;stroke-dasharray:none"
           d="m 163.64471,276.56503 14.03335,-24.30647"
           id="path11402"
           inkscape:connector-curvature="0" />
        <path
           inkscape:connector-curvature="0"
           id="path11404"
           d="M 191.67806,276.56503 177.64471,252.25856"
           style="fill:none;stroke:#000000;stroke-width:3.70000005;stroke-linecap:round;stroke-linejoin:miter;stroke-miterlimit:4;stroke-opacity:1;stroke-dasharray:none" />
      </g>
    </g>
    <g
       id="g11412"
       transform="matrix(1.3354938,0,0,-1.3354938,-242.64488,622.21409)">
      <path
         style="fill:none;stroke:#000000;stroke-width:1.60000002;stroke-linecap:butt;stroke-linejoin:miter;stroke-miterlimit:4;stroke-opacity:1;stroke-dasharray:none"
         d="m 828.57143,179.50504 0,-65.71429"
         id="path11414"
         inkscape:connector-curvature="0" />
      <g
         id="g11416"
         transform="matrix(0.38755256,0,0,0.55672552,759.77971,-1.474103)">
        <path
           inkscape:connector-curvature="0"
           id="path11418"
           d="m 163.64471,276.56503 14.03335,-24.30647"
           style="fill:none;stroke:#000000;stroke-width:3.70000005;stroke-linecap:round;stroke-linejoin:miter;stroke-miterlimit:4;stroke-opacity:1;stroke-dasharray:none" />
        <path
           style="fill:none;stroke:#000000;stroke-width:3.70000005;stroke-linecap:round;stroke-linejoin:miter;stroke-miterlimit:4;stroke-opacity:1;stroke-dasharray:none"
           d="M 191.67806,276.56503 177.64471,252.25856"
           id="path11420"
           inkscape:connector-curvature="0" />
      </g>
    </g>
    <rect
       style="fill:none;stroke:#000000;stroke-width:2.09238529;stroke-linecap:round;stroke-miterlimit:4;stroke-opacity:1;stroke-dasharray:none;stroke-dashoffset:0"
       id="rect11424"
       width="357.76599"
       height="375.89053"
       x="776.83936"
       y="233.65187" />
  </g>
</svg>
