<?xml version="1.0" encoding="UTF-8" standalone="no"?>
<!-- Created with Inkscape (http://www.inkscape.org/) -->

<svg
   xmlns:dc="http://purl.org/dc/elements/1.1/"
   xmlns:cc="http://creativecommons.org/ns#"
   xmlns:rdf="http://www.w3.org/1999/02/22-rdf-syntax-ns#"
   xmlns:svg="http://www.w3.org/2000/svg"
   xmlns="http://www.w3.org/2000/svg"
   xmlns:sodipodi="http://sodipodi.sourceforge.net/DTD/sodipodi-0.dtd"
   xmlns:inkscape="http://www.inkscape.org/namespaces/inkscape"
   width="933.51843"
   height="667.77075"
   id="svg12408"
   version="1.1"
   inkscape:version="0.48.4 r9939"
   sodipodi:docname="New document 12">
  <defs
     id="defs12410" />
  <sodipodi:namedview
     id="base"
     pagecolor="#ffffff"
     bordercolor="#666666"
     borderopacity="1.0"
     inkscape:pageopacity="0.0"
     inkscape:pageshadow="2"
     inkscape:zoom="0.35"
     inkscape:cx="110.56431"
     inkscape:cy="271.45287"
     inkscape:document-units="px"
     inkscape:current-layer="layer1"
     showgrid="false"
     fit-margin-top="0"
     fit-margin-left="0"
     fit-margin-right="0"
     fit-margin-bottom="0"
     inkscape:window-width="1366"
     inkscape:window-height="706"
     inkscape:window-x="-8"
     inkscape:window-y="-8"
     inkscape:window-maximized="1" />
  <metadata
     id="metadata12413">
    <rdf:RDF>
      <cc:Work
         rdf:about="">
        <dc:format>image/svg+xml</dc:format>
        <dc:type
           rdf:resource="http://purl.org/dc/dcmitype/StillImage" />
        <dc:title></dc:title>
      </cc:Work>
    </rdf:RDF>
  </metadata>
  <g
     inkscape:label="Layer 1"
     inkscape:groupmode="layer"
     id="layer1"
     transform="translate(-11.726071,-253.94411)">
    <g
       id="g13088"
       transform="translate(0,6.785715)">
      <path
         id="path4660-1"
         title="cos(t)*(7+sin(9*t)) sin(t)*(7+sin(9*t))"
         d="m 58.457793,572.58964 c 2.001495,2.93188 4.319534,5.69183 6.700354,7.0532 2.38082,1.36136 4.784804,1.26912 6.79421,-0.34462 2.009465,-1.61376 3.591611,-4.71278 4.744324,-8.1765 1.15277,-3.46375 1.891641,-7.20347 2.745009,-9.99969 0.853369,-2.79621 1.872894,-4.59605 3.559847,-5.20065 1.687016,-0.60459 4.072537,-0.0455 6.982905,0.77543 2.910304,0.8209 6.315809,1.82464 9.392215,1.96562 3.076403,0.14098 5.757373,-0.62688 7.344913,-2.50909 1.5876,-1.8822 2.04627,-4.85151 1.57189,-8.21171 -0.47439,-3.3602 -1.84566,-7.04761 -3.10542,-10.27239 -1.25976,-3.22481 -2.33186,-5.95648 -2.33364,-8.07423 0,-2.11774 1.10743,-3.65164 3.18861,-5.10197 2.0812,-1.45033 5.09562,-2.86755 7.94882,-4.68078 2.85314,-1.81322 5.46198,-4.0342 6.78865,-6.52414 1.32666,-2.48992 1.3242,-5.21064 0,-7.70102 -1.32426,-2.49037 -3.93591,-4.7102 -6.78865,-6.52417 -2.8528,-1.81394 -5.86585,-3.23055 -7.94882,-4.68075 -2.08296,-1.45021 -3.18826,-2.98533 -3.18861,-5.10197 -3.4e-4,-2.11667 1.07411,-4.8503 2.33364,-8.07422 1.25952,-3.22396 2.62931,-6.91149 3.10542,-10.27241 0.47611,-3.36091 0.0137,-6.32743 -1.57189,-8.2117 -1.58548,-1.88425 -4.26925,-2.64844 -7.344913,-2.50909 -3.075719,0.13934 -6.481054,1.14428 -9.392215,1.96562 -2.911282,0.82134 -5.294628,1.37782 -6.982905,0.77543 -1.688215,-0.60242 -2.706248,-2.4062 -3.559847,-5.20067 -0.853597,-2.79443 -1.593042,-6.53529 -2.745009,-9.99967 -1.15191,-3.46437 -2.735605,-6.55992 -4.744324,-8.17649 -2.008661,-1.61656 -4.413333,-1.70333 -6.79421,-0.34464 -2.38082,1.35871 -4.698859,4.12133 -6.700354,7.05321"
         style="fill:#ffffff;fill-opacity:1;stroke:#0d0000;stroke-width:2.7249999;stroke-linecap:round;stroke-miterlimit:4;stroke-opacity:1;stroke-dasharray:none;stroke-dashoffset:0"
         inkscape:connector-curvature="0" />
      <path
         sodipodi:nodetypes="ccscc"
         inkscape:connector-curvature="0"
         id="path4203"
         d="m 158.1092,509.50503 c 0,66.08702 -58.04181,119.66112 -58.04181,119.66112 0,0 -58.041814,-53.57409 -58.041814,-119.66111 0,-66.08702 58.041814,-119.66111 58.041814,-119.66111 0,0 58.04181,53.57409 58.04181,119.66111"
         style="fill:none;stroke:#0d0000;stroke-width:3.49699998;stroke-miterlimit:4;stroke-opacity:1;stroke-dasharray:none" />
      <g
         id="g4232"
         transform="matrix(0.69465416,0.04528402,0.06505123,-0.99788193,17.330716,768.19256)">
        <path
           inkscape:connector-curvature="0"
           id="path4234"
           d="m 163.64471,276.56503 14.03335,-24.30647"
           style="fill:none;stroke:#000000;stroke-width:3.70000005;stroke-linecap:round;stroke-linejoin:miter;stroke-miterlimit:4;stroke-opacity:1;stroke-dasharray:none" />
        <path
           style="fill:none;stroke:#000000;stroke-width:3.70000005;stroke-linecap:round;stroke-linejoin:miter;stroke-miterlimit:4;stroke-opacity:1;stroke-dasharray:none"
           d="M 191.67806,276.56503 177.64471,252.25856"
           id="path4236"
           inkscape:connector-curvature="0" />
      </g>
      <g
         transform="matrix(0.69524843,0.03499506,-0.05027097,0.99873562,-68.342117,241.04392)"
         id="g4238">
        <path
           style="fill:none;stroke:#000000;stroke-width:3.70000005;stroke-linecap:round;stroke-linejoin:miter;stroke-miterlimit:4;stroke-opacity:1;stroke-dasharray:none"
           d="m 163.64471,276.56503 14.03335,-24.30647"
           id="path4240"
           inkscape:connector-curvature="0" />
        <path
           inkscape:connector-curvature="0"
           id="path4242"
           d="M 191.67806,276.56503 177.64471,252.25856"
           style="fill:none;stroke:#000000;stroke-width:3.70000005;stroke-linecap:round;stroke-linejoin:miter;stroke-miterlimit:4;stroke-opacity:1;stroke-dasharray:none" />
      </g>
      <path
         inkscape:connector-curvature="0"
         style="fill:none;stroke:#000000;stroke-width:3.08200002;stroke-linecap:round;stroke-miterlimit:4;stroke-opacity:1;stroke-dasharray:none;stroke-dashoffset:0"
         d="m 109.16277,248.6994 c -0.008,1.64417 -1.28464,3.19331 -3.08916,4.70291 -1.80452,1.50967 -4.02321,2.98828 -5.36185,4.53277 -1.33866,1.54454 -1.70967,3.16153 -0.90413,4.86658 0.80557,1.70511 2.74158,3.49486 4.66855,5.28394 1.92698,1.78908 3.7232,3.56838 4.33613,5.25907 0.61294,1.6906 -10e-4,3.28939 -1.48261,4.82323 -1.48123,1.53385 -3.74023,3.00944 -5.45768,4.52558 -1.71748,1.51612 -2.78344,3.08105 -2.58159,4.74096 0.20183,1.65986 1.66372,3.41412 3.52261,5.19813 1.85885,1.78396 3.99898,3.58903 5.16526,5.32109 1.16623,1.73209 1.28063,3.38545 0.27709,4.95505 -1.00353,1.56965 -3.06697,3.05987 -4.98411,4.56107 -1.91714,1.50117 -3.56708,3.02239 -3.99076,4.63542 -0.42367,1.61304 0.41038,3.32026 2.00586,5.08453 1.59549,1.76423 3.85486,3.57824 5.45163,5.34256 1.59678,1.76433 2.4273,3.47131 2.00584,5.08453 -0.42143,1.6132 -2.07398,3.13423 -3.99073,4.63538 -1.91679,1.50125 -3.97862,2.99163 -4.98413,4.56108 -1.00553,1.56946 -0.8873,3.22308 0.2771,4.95507 1.16442,1.73191 3.30577,3.53706 5.16527,5.3211 1.85949,1.78401 3.31846,3.53807 3.5226,5.19812 0.20413,1.66006 -0.86521,3.22477 -2.5816,4.74095 -1.71635,1.51622 -3.97495,2.99183 -5.45767,4.52558 -1.48272,1.53374 -2.09338,3.13276 -1.48262,4.8233 0.61074,1.69047 2.40927,3.46993 4.33613,5.25901 1.92684,1.78904 3.86092,3.57867 4.66854,5.28393 0.80765,1.70521 0.43286,3.32192 -0.90413,4.86659 -1.33696,1.54463 -3.55647,3.02319 -5.36184,4.53275 -1.80536,1.50956 -3.08164,3.05875 -3.08915,4.70291"
         title="t cos(11*t)"
         id="path11284" />
      <path
         id="path13038"
         title="t cos(11*t)"
         d="m 100.44848,627.98511 c -0.008,1.64417 -1.284636,3.19331 -3.089156,4.70291 -1.80452,1.50967 -4.02321,2.98828 -5.36185,4.53277 -1.33866,1.54454 -1.70967,3.16153 -0.90413,4.86658 0.80557,1.70511 2.74158,3.49486 4.66855,5.28394 1.92698,1.78908 3.7232,3.56838 4.336126,5.25907 0.61294,1.6906 -0.001,3.28939 -1.482606,4.82323 -1.48123,1.53385 -3.74023,3.00944 -5.45768,4.52558 -1.71748,1.51612 -2.78344,3.08105 -2.58159,4.74096 0.20183,1.65986 1.66372,3.41412 3.52261,5.19813 1.85885,1.78396 3.99898,3.58903 5.16526,5.32109 1.166226,1.73209 1.280626,3.38545 0.27709,4.95505 -1.00353,1.56965 -3.06697,3.05987 -4.98411,4.56107 -1.91714,1.50117 -3.56708,3.02239 -3.99076,4.63542 -0.42367,1.61304 0.41038,3.32026 2.00586,5.08453 1.59549,1.76423 3.85486,3.57824 5.45163,5.34256 1.59678,1.76433 2.427296,3.47131 2.005836,5.08453 -0.421426,1.6132 -2.073976,3.13423 -3.990726,4.63538 -1.91679,1.50125 -3.97862,2.99163 -4.98413,4.56108 -1.00553,1.56946 -0.8873,3.22308 0.2771,4.95507 1.16442,1.73191 3.30577,3.53706 5.16527,5.3211 1.85949,1.78401 3.31846,3.53807 3.522596,5.19812 0.20413,1.66006 -0.865206,3.22477 -2.581596,4.74095 -1.71635,1.51622 -3.97495,2.99183 -5.45767,4.52558 -1.48272,1.53374 -2.09338,3.13276 -1.48262,4.8233 0.61074,1.69047 2.40927,3.46993 4.33613,5.25901 1.92684,1.78904 3.86092,3.57867 4.66854,5.28393 0.807646,1.70521 0.43286,3.32192 -0.90413,4.86659 -1.33696,1.54463 -3.55647,3.02319 -5.36184,4.53275 -1.80536,1.50956 -3.08164,3.05875 -3.08915,4.70291"
         style="fill:none;stroke:#000000;stroke-width:3.08200002;stroke-linecap:round;stroke-miterlimit:4;stroke-opacity:1;stroke-dasharray:none;stroke-dashoffset:0"
         inkscape:connector-curvature="0" />
    </g>
    <g
       id="g13100"
       transform="translate(-38,-7.142855)">
      <path
         inkscape:connector-curvature="0"
         style="fill:#ffffff;fill-opacity:1;stroke:#0d0000;stroke-width:2.7249999;stroke-linecap:round;stroke-miterlimit:4;stroke-opacity:1;stroke-dasharray:none;stroke-dashoffset:0"
         d="m 400.3736,586.73178 c -2.0015,2.93188 -4.31954,5.69183 -6.70036,7.0532 -2.38082,1.36136 -4.7848,1.26912 -6.79421,-0.34462 -2.00946,-1.61376 -3.59161,-4.71278 -4.74432,-8.1765 -1.15277,-3.46375 -1.89164,-7.20347 -2.74501,-9.99969 -0.85337,-2.79621 -1.8729,-4.59605 -3.55985,-5.20065 -1.68701,-0.60459 -4.07254,-0.0455 -6.9829,0.77543 -2.91031,0.8209 -6.31581,1.82464 -9.39222,1.96562 -3.0764,0.14098 -5.75737,-0.62688 -7.34491,-2.50909 -1.5876,-1.8822 -2.04627,-4.85151 -1.57189,-8.21171 0.47439,-3.3602 1.84566,-7.04761 3.10542,-10.27239 1.25976,-3.22481 2.33186,-5.95648 2.33364,-8.07423 0,-2.11774 -1.10743,-3.65164 -3.18861,-5.10197 -2.0812,-1.45033 -5.09562,-2.86755 -7.94882,-4.68078 -2.85314,-1.81322 -5.46198,-4.0342 -6.78865,-6.52414 -1.32666,-2.48992 -1.3242,-5.21064 0,-7.70102 1.32426,-2.49037 3.93591,-4.7102 6.78865,-6.52417 2.8528,-1.81394 5.86585,-3.23055 7.94882,-4.68075 2.08296,-1.45021 3.18826,-2.98533 3.18861,-5.10197 3.4e-4,-2.11667 -1.07411,-4.8503 -2.33364,-8.07422 -1.25952,-3.22396 -2.62931,-6.91149 -3.10542,-10.27241 -0.47611,-3.36091 -0.0137,-6.32743 1.57189,-8.2117 1.58548,-1.88425 4.26925,-2.64844 7.34491,-2.50909 3.07572,0.13934 6.48106,1.14428 9.39222,1.96562 2.91128,0.82134 5.29462,1.37782 6.9829,0.77543 1.68822,-0.60242 2.70625,-2.4062 3.55985,-5.20067 0.8536,-2.79443 1.59304,-6.53529 2.74501,-9.99967 1.15191,-3.46437 2.7356,-6.55992 4.74432,-8.17649 2.00866,-1.61656 4.41333,-1.70333 6.79421,-0.34464 2.38082,1.35871 4.69886,4.12133 6.70036,7.05321"
         title="cos(t)*(7+sin(9*t)) sin(t)*(7+sin(9*t))"
         id="path13016" />
      <path
         style="fill:none;stroke:#0d0000;stroke-width:3.49699998;stroke-miterlimit:4;stroke-opacity:1;stroke-dasharray:none"
         d="m 416.70825,523.64717 c 0,66.08702 -58.04181,119.66112 -58.04181,119.66112 0,0 -58.04181,-53.57409 -58.04181,-119.66111 0,-66.08702 58.04181,-119.66111 58.04181,-119.66111 0,0 58.04181,53.57409 58.04181,119.66111"
         id="path13018"
         inkscape:connector-curvature="0"
         sodipodi:nodetypes="ccscc" />
      <g
         transform="matrix(0.69465416,0.04528402,0.06505123,-0.99788193,275.92977,782.3347)"
         id="g13020">
        <path
           style="fill:none;stroke:#000000;stroke-width:3.70000005;stroke-linecap:round;stroke-linejoin:miter;stroke-miterlimit:4;stroke-opacity:1;stroke-dasharray:none"
           d="m 163.64471,276.56503 14.03335,-24.30647"
           id="path13022"
           inkscape:connector-curvature="0" />
        <path
           inkscape:connector-curvature="0"
           id="path13024"
           d="M 191.67806,276.56503 177.64471,252.25856"
           style="fill:none;stroke:#000000;stroke-width:3.70000005;stroke-linecap:round;stroke-linejoin:miter;stroke-miterlimit:4;stroke-opacity:1;stroke-dasharray:none" />
      </g>
      <g
         id="g13026"
         transform="matrix(0.69524843,0.03499506,-0.05027097,0.99873562,190.25693,255.18606)">
        <path
           inkscape:connector-curvature="0"
           id="path13028"
           d="m 163.64471,276.56503 14.03335,-24.30647"
           style="fill:none;stroke:#000000;stroke-width:3.70000005;stroke-linecap:round;stroke-linejoin:miter;stroke-miterlimit:4;stroke-opacity:1;stroke-dasharray:none" />
        <path
           style="fill:none;stroke:#000000;stroke-width:3.70000005;stroke-linecap:round;stroke-linejoin:miter;stroke-miterlimit:4;stroke-opacity:1;stroke-dasharray:none"
           d="M 191.67806,276.56503 177.64471,252.25856"
           id="path13030"
           inkscape:connector-curvature="0" />
      </g>
      <path
         inkscape:connector-curvature="0"
         style="fill:none;stroke:#000000;stroke-width:3.08200002;stroke-linecap:round;stroke-miterlimit:4;stroke-opacity:1;stroke-dasharray:none;stroke-dashoffset:0"
         d="m 359.30562,641.55654 c -0.008,1.64417 -1.28464,3.19331 -3.08916,4.70291 -1.80452,1.50967 -4.02321,2.98828 -5.36185,4.53277 -1.33866,1.54454 -1.70967,3.16153 -0.90413,4.86658 0.80557,1.70511 2.74158,3.49486 4.66855,5.28394 1.92698,1.78908 3.7232,3.56838 4.33613,5.25907 0.61294,1.6906 -10e-4,3.28939 -1.48261,4.82323 -1.48123,1.53385 -3.74023,3.00944 -5.45768,4.52558 -1.71748,1.51612 -2.78344,3.08105 -2.58159,4.74096 0.20183,1.65986 1.66372,3.41412 3.52261,5.19813 1.85885,1.78396 3.99898,3.58903 5.16526,5.32109 1.16623,1.73209 1.28063,3.38545 0.27709,4.95505 -1.00353,1.56965 -3.06697,3.05987 -4.98411,4.56107 -1.91714,1.50117 -3.56708,3.02239 -3.99076,4.63542 -0.42367,1.61304 0.41038,3.32026 2.00586,5.08453 1.59549,1.76423 3.85486,3.57824 5.45163,5.34256 1.59678,1.76433 2.4273,3.47131 2.00584,5.08453 -0.42143,1.6132 -2.07398,3.13423 -3.99073,4.63538 -1.91679,1.50125 -3.97862,2.99163 -4.98413,4.56108 -1.00553,1.56946 -0.8873,3.22308 0.2771,4.95507 1.16442,1.73191 3.30577,3.53706 5.16527,5.3211 1.85949,1.78401 3.31846,3.53807 3.5226,5.19812 0.20413,1.66006 -0.86521,3.22477 -2.5816,4.74095 -1.71635,1.51622 -3.97495,2.99183 -5.45767,4.52558 -1.48272,1.53374 -2.09338,3.13276 -1.48262,4.8233 0.61074,1.69047 2.40927,3.46993 4.33613,5.25901 1.92684,1.78904 3.86092,3.57867 4.66854,5.28393 0.80765,1.70521 0.43286,3.32192 -0.90413,4.86659 -1.33696,1.54463 -3.55647,3.02319 -5.36184,4.53275 -1.80536,1.50956 -3.08164,3.05875 -3.08915,4.70291"
         title="t cos(11*t)"
         id="path13040" />
      <path
         id="path13042"
         title="t cos(11*t)"
         d="m 368.59133,262.98511 c -0.008,1.64417 -1.28464,3.19331 -3.08916,4.70291 -1.80452,1.50967 -4.02321,2.98828 -5.36185,4.53277 -1.33866,1.54454 -1.70967,3.16153 -0.90413,4.86658 0.80557,1.70511 2.74158,3.49486 4.66855,5.28394 1.92698,1.78908 3.7232,3.56838 4.33613,5.25907 0.61294,1.6906 -10e-4,3.28939 -1.48261,4.82323 -1.48123,1.53385 -3.74023,3.00944 -5.45768,4.52558 -1.71748,1.51612 -2.78344,3.08105 -2.58159,4.74096 0.20183,1.65986 1.66372,3.41412 3.52261,5.19813 1.85885,1.78396 3.99898,3.58903 5.16526,5.32109 1.16623,1.73209 1.28063,3.38545 0.27709,4.95505 -1.00353,1.56965 -3.06697,3.05987 -4.98411,4.56107 -1.91714,1.50117 -3.56708,3.02239 -3.99076,4.63542 -0.42367,1.61304 0.41038,3.32026 2.00586,5.08453 1.59549,1.76423 3.85486,3.57824 5.45163,5.34256 1.59678,1.76433 2.4273,3.47131 2.00584,5.08453 -0.42143,1.6132 -2.07398,3.13423 -3.99073,4.63538 -1.91679,1.50125 -3.97862,2.99163 -4.98413,4.56108 -1.00553,1.56946 -0.8873,3.22308 0.2771,4.95507 1.16442,1.73191 3.30577,3.53706 5.16527,5.3211 1.85949,1.78401 3.31846,3.53807 3.5226,5.19812 0.20413,1.66006 -0.86521,3.22477 -2.5816,4.74095 -1.71635,1.51622 -3.97495,2.99183 -5.45767,4.52558 -1.48272,1.53374 -2.09338,3.13276 -1.48262,4.8233 0.61074,1.69047 2.40927,3.46993 4.33613,5.25901 1.92684,1.78904 3.86092,3.57867 4.66854,5.28393 0.80765,1.70521 0.43286,3.32192 -0.90413,4.86659 -1.33696,1.54463 -3.55647,3.02319 -5.36184,4.53275 -1.80536,1.50956 -3.08164,3.05875 -3.08915,4.70291"
         style="fill:none;stroke:#000000;stroke-width:3.08200002;stroke-linecap:round;stroke-miterlimit:4;stroke-opacity:1;stroke-dasharray:none;stroke-dashoffset:0"
         inkscape:connector-curvature="0" />
    </g>
    <g
       id="g13112"
       transform="translate(26,-1.428565)">
      <path
         sodipodi:nodetypes="ccscc"
         inkscape:connector-curvature="0"
         id="path13046"
         d="m 706.70825,517.93288 c 0,66.08702 -58.04181,119.66112 -58.04181,119.66112 0,0 -58.04181,-53.57409 -58.04181,-119.66111 0,-66.08702 58.04181,-119.66111 58.04181,-119.66111 0,0 58.04181,53.57409 58.04181,119.66111"
         style="fill:none;stroke:#0d0000;stroke-width:3.49699998;stroke-miterlimit:4;stroke-opacity:1;stroke-dasharray:none" />
      <g
         id="g13048"
         transform="matrix(0.69465416,0.04528402,0.06505123,-0.99788193,565.92977,776.62041)">
        <path
           inkscape:connector-curvature="0"
           id="path13050"
           d="m 163.64471,276.56503 14.03335,-24.30647"
           style="fill:none;stroke:#000000;stroke-width:3.70000005;stroke-linecap:round;stroke-linejoin:miter;stroke-miterlimit:4;stroke-opacity:1;stroke-dasharray:none" />
        <path
           style="fill:none;stroke:#000000;stroke-width:3.70000005;stroke-linecap:round;stroke-linejoin:miter;stroke-miterlimit:4;stroke-opacity:1;stroke-dasharray:none"
           d="M 191.67806,276.56503 177.64471,252.25856"
           id="path13052"
           inkscape:connector-curvature="0" />
      </g>
      <g
         transform="matrix(0.69524843,0.03499506,-0.05027097,0.99873562,480.25693,249.47177)"
         id="g13054">
        <path
           style="fill:none;stroke:#000000;stroke-width:3.70000005;stroke-linecap:round;stroke-linejoin:miter;stroke-miterlimit:4;stroke-opacity:1;stroke-dasharray:none"
           d="m 163.64471,276.56503 14.03335,-24.30647"
           id="path13056"
           inkscape:connector-curvature="0" />
        <path
           inkscape:connector-curvature="0"
           id="path13058"
           d="M 191.67806,276.56503 177.64471,252.25856"
           style="fill:none;stroke:#000000;stroke-width:3.70000005;stroke-linecap:round;stroke-linejoin:miter;stroke-miterlimit:4;stroke-opacity:1;stroke-dasharray:none" />
      </g>
      <path
         id="path13060"
         title="t cos(11*t)"
         d="m 649.30562,635.84225 c -0.008,1.64417 -1.28464,3.19331 -3.08916,4.70291 -1.80452,1.50967 -4.02321,2.98828 -5.36185,4.53277 -1.33866,1.54454 -1.70967,3.16153 -0.90413,4.86658 0.80557,1.70511 2.74158,3.49486 4.66855,5.28394 1.92698,1.78908 3.7232,3.56838 4.33613,5.25907 0.61294,1.6906 -10e-4,3.28939 -1.48261,4.82323 -1.48123,1.53385 -3.74023,3.00944 -5.45768,4.52558 -1.71748,1.51612 -2.78344,3.08105 -2.58159,4.74096 0.20183,1.65986 1.66372,3.41412 3.52261,5.19813 1.85885,1.78396 3.99898,3.58903 5.16526,5.32109 1.16623,1.73209 1.28063,3.38545 0.27709,4.95505 -1.00353,1.56965 -3.06697,3.05987 -4.98411,4.56107 -1.91714,1.50117 -3.56708,3.02239 -3.99076,4.63542 -0.42367,1.61304 0.41038,3.32026 2.00586,5.08453 1.59549,1.76423 3.85486,3.57824 5.45163,5.34256 1.59678,1.76433 2.4273,3.47131 2.00584,5.08453 -0.42143,1.6132 -2.07398,3.13423 -3.99073,4.63538 -1.91679,1.50125 -3.97862,2.99163 -4.98413,4.56108 -1.00553,1.56946 -0.8873,3.22308 0.2771,4.95507 1.16442,1.73191 3.30577,3.53706 5.16527,5.3211 1.85949,1.78401 3.31846,3.53807 3.5226,5.19812 0.20413,1.66006 -0.86521,3.22477 -2.5816,4.74095 -1.71635,1.51622 -3.97495,2.99183 -5.45767,4.52558 -1.48272,1.53374 -2.09338,3.13276 -1.48262,4.8233 0.61074,1.69047 2.40927,3.46993 4.33613,5.25901 1.92684,1.78904 3.86092,3.57867 4.66854,5.28393 0.80765,1.70521 0.43286,3.32192 -0.90413,4.86659 -1.33696,1.54463 -3.55647,3.02319 -5.36184,4.53275 -1.80536,1.50956 -3.08164,3.05875 -3.08915,4.70291"
         style="fill:none;stroke:#000000;stroke-width:3.08200002;stroke-linecap:round;stroke-miterlimit:4;stroke-opacity:1;stroke-dasharray:none;stroke-dashoffset:0"
         inkscape:connector-curvature="0" />
      <path
         inkscape:connector-curvature="0"
         style="fill:none;stroke:#000000;stroke-width:3.08200002;stroke-linecap:round;stroke-miterlimit:4;stroke-opacity:1;stroke-dasharray:none;stroke-dashoffset:0"
         d="m 658.59133,257.27082 c -0.008,1.64417 -1.28464,3.19331 -3.08916,4.70291 -1.80452,1.50967 -4.02321,2.98828 -5.36185,4.53277 -1.33866,1.54454 -1.70967,3.16153 -0.90413,4.86658 0.80557,1.70511 2.74158,3.49486 4.66855,5.28394 1.92698,1.78908 3.7232,3.56838 4.33613,5.25907 0.61294,1.6906 -10e-4,3.28939 -1.48261,4.82323 -1.48123,1.53385 -3.74023,3.00944 -5.45768,4.52558 -1.71748,1.51612 -2.78344,3.08105 -2.58159,4.74096 0.20183,1.65986 1.66372,3.41412 3.52261,5.19813 1.85885,1.78396 3.99898,3.58903 5.16526,5.32109 1.16623,1.73209 1.28063,3.38545 0.27709,4.95505 -1.00353,1.56965 -3.06697,3.05987 -4.98411,4.56107 -1.91714,1.50117 -3.56708,3.02239 -3.99076,4.63542 -0.42367,1.61304 0.41038,3.32026 2.00586,5.08453 1.59549,1.76423 3.85486,3.57824 5.45163,5.34256 1.59678,1.76433 2.4273,3.47131 2.00584,5.08453 -0.42143,1.6132 -2.07398,3.13423 -3.99073,4.63538 -1.91679,1.50125 -3.97862,2.99163 -4.98413,4.56108 -1.00553,1.56946 -0.8873,3.22308 0.2771,4.95507 1.16442,1.73191 3.30577,3.53706 5.16527,5.3211 1.85949,1.78401 3.31846,3.53807 3.5226,5.19812 0.20413,1.66006 -0.86521,3.22477 -2.5816,4.74095 -1.71635,1.51622 -3.97495,2.99183 -5.45767,4.52558 -1.48272,1.53374 -2.09338,3.13276 -1.48262,4.8233 0.61074,1.69047 2.40927,3.46993 4.33613,5.25901 1.92684,1.78904 3.86092,3.57867 4.66854,5.28393 0.80765,1.70521 0.43286,3.32192 -0.90413,4.86659 -1.33696,1.54463 -3.55647,3.02319 -5.36184,4.53275 -1.80536,1.50956 -3.08164,3.05875 -3.08915,4.70291"
         title="t cos(11*t)"
         id="path13062" />
      <path
         id="path13084"
         title="t cos(11*t)"
         d="m 604.11017,463.1212 c 1.13381,1.1469 1.32671,3.11255 1.12809,5.41889 -0.19856,2.30638 -0.70433,4.88004 -0.55743,6.8857 0.14694,2.00571 1.01153,3.3869 2.74869,4.00873 1.73723,0.62185 4.31285,0.5141 6.88176,0.4122 2.56893,-0.1019 5.04088,-0.1194 6.63524,0.62677 1.5943,0.74612 2.27872,2.28408 2.31962,4.38206 0.0412,2.09771 -0.49448,4.69737 -0.62851,6.94753 -0.13405,2.25016 0.21511,4.07985 1.50459,5.09134 1.28942,1.01147 3.51341,1.20973 6.03185,1.1518 2.51839,-0.058 5.24543,-0.29741 7.25013,0.0916 2.0047,0.38906 3.22931,1.45699 3.62476,3.24639 0.39549,1.78943 0.005,4.26288 -0.27726,6.64192 -0.28215,2.37902 -0.36608,4.58562 0.45944,6.0008 0.82552,1.41516 2.58386,2.01862 4.90693,2.13066 2.32306,0.11202 5.13853,-0.20438 7.46253,-0.0932 2.32402,0.11119 4.07975,0.71693 4.90692,2.13069 0.82719,1.41371 0.74132,3.62201 0.45943,6.00074 -0.28184,2.37883 -0.67125,4.85127 -0.27726,6.64194 0.39398,1.7907 1.62142,2.85613 3.62478,3.2464 2.00332,0.39019 4.73124,0.14995 7.25013,0.0916 2.51887,-0.0584 4.74071,0.1418 6.03186,1.15178 1.29115,1.01001 1.63782,2.8419 1.50456,5.09134 -0.13322,2.24945 -0.6686,4.84885 -0.62851,6.94754 0.0401,2.09868 0.72692,3.63451 2.31967,4.3821 1.5927,0.74755 4.06635,0.72855 6.63519,0.62673 2.56881,-0.10184 5.14302,-0.20831 6.88176,0.41221 1.73873,0.62047 2.60051,2.00409 2.74869,4.00873 0.14817,2.00459 -0.3582,4.57878 -0.55744,6.88568 -0.19922,2.30689 -0.006,4.27233 1.12811,5.41889"
         style="fill:none;stroke:#000000;stroke-width:3.02297354;stroke-linecap:round;stroke-miterlimit:4;stroke-opacity:1;stroke-dasharray:none;stroke-dashoffset:0"
         inkscape:connector-curvature="0" />
    </g>
    <g
       id="g13124"
       transform="translate(0,4.285725)">
      <path
         style="fill:none;stroke:#0d0000;stroke-width:3.49699998;stroke-miterlimit:4;stroke-opacity:1;stroke-dasharray:none"
         d="m 929.56539,512.21859 c 0,66.08702 -58.04181,119.66112 -58.04181,119.66112 0,0 -58.04181,-53.57409 -58.04181,-119.66111 0,-66.08702 58.04181,-119.66111 58.04181,-119.66111 0,0 58.04181,53.57409 58.04181,119.66111"
         id="path13066"
         inkscape:connector-curvature="0"
         sodipodi:nodetypes="ccscc" />
      <g
         transform="matrix(0.69465416,0.04528402,0.06505123,-0.99788193,788.78691,770.90612)"
         id="g13068">
        <path
           style="fill:none;stroke:#000000;stroke-width:3.70000005;stroke-linecap:round;stroke-linejoin:miter;stroke-miterlimit:4;stroke-opacity:1;stroke-dasharray:none"
           d="m 163.64471,276.56503 14.03335,-24.30647"
           id="path13070"
           inkscape:connector-curvature="0" />
        <path
           inkscape:connector-curvature="0"
           id="path13072"
           d="M 191.67806,276.56503 177.64471,252.25856"
           style="fill:none;stroke:#000000;stroke-width:3.70000005;stroke-linecap:round;stroke-linejoin:miter;stroke-miterlimit:4;stroke-opacity:1;stroke-dasharray:none" />
      </g>
      <g
         id="g13074"
         transform="matrix(0.69524843,0.03499506,-0.05027097,0.99873562,703.11407,243.75748)">
        <path
           inkscape:connector-curvature="0"
           id="path13076"
           d="m 163.64471,276.56503 14.03335,-24.30647"
           style="fill:none;stroke:#000000;stroke-width:3.70000005;stroke-linecap:round;stroke-linejoin:miter;stroke-miterlimit:4;stroke-opacity:1;stroke-dasharray:none" />
        <path
           style="fill:none;stroke:#000000;stroke-width:3.70000005;stroke-linecap:round;stroke-linejoin:miter;stroke-miterlimit:4;stroke-opacity:1;stroke-dasharray:none"
           d="M 191.67806,276.56503 177.64471,252.25856"
           id="path13078"
           inkscape:connector-curvature="0" />
      </g>
      <path
         inkscape:connector-curvature="0"
         style="fill:none;stroke:#000000;stroke-width:3.08200002;stroke-linecap:round;stroke-miterlimit:4;stroke-opacity:1;stroke-dasharray:none;stroke-dashoffset:0"
         d="m 872.16276,630.12796 c -0.008,1.64417 -1.28464,3.19331 -3.08916,4.70291 -1.80452,1.50967 -4.02321,2.98828 -5.36185,4.53277 -1.33866,1.54454 -1.70967,3.16153 -0.90413,4.86658 0.80557,1.70511 2.74158,3.49486 4.66855,5.28394 1.92698,1.78908 3.7232,3.56838 4.33613,5.25907 0.61294,1.6906 -0.001,3.28939 -1.48261,4.82323 -1.48123,1.53385 -3.74023,3.00944 -5.45768,4.52558 -1.71748,1.51612 -2.78344,3.08105 -2.58159,4.74096 0.20183,1.65986 1.66372,3.41412 3.52261,5.19813 1.85885,1.78396 3.99898,3.58903 5.16526,5.32109 1.16623,1.73209 1.28063,3.38545 0.27709,4.95505 -1.00353,1.56965 -3.06697,3.05987 -4.98411,4.56107 -1.91714,1.50117 -3.56708,3.02239 -3.99076,4.63542 -0.42367,1.61304 0.41038,3.32026 2.00586,5.08453 1.59549,1.76423 3.85486,3.57824 5.45163,5.34256 1.59678,1.76433 2.4273,3.47131 2.00584,5.08453 -0.42143,1.6132 -2.07398,3.13423 -3.99073,4.63538 -1.91679,1.50125 -3.97862,2.99163 -4.98413,4.56108 -1.00553,1.56946 -0.8873,3.22308 0.2771,4.95507 1.16442,1.73191 3.30577,3.53706 5.16527,5.3211 1.85949,1.78401 3.31846,3.53807 3.5226,5.19812 0.20413,1.66006 -0.86521,3.22477 -2.5816,4.74095 -1.71635,1.51622 -3.97495,2.99183 -5.45767,4.52558 -1.48272,1.53374 -2.09338,3.13276 -1.48262,4.8233 0.61074,1.69047 2.40927,3.46993 4.33613,5.25901 1.92684,1.78904 3.86092,3.57867 4.66854,5.28393 0.80765,1.70521 0.43286,3.32192 -0.90413,4.86659 -1.33696,1.54463 -3.55647,3.02319 -5.36184,4.53275 -1.80536,1.50956 -3.08164,3.05875 -3.08915,4.70291"
         title="t cos(11*t)"
         id="path13080" />
      <path
         id="path13082"
         title="t cos(11*t)"
         d="m 881.44847,251.55653 c -0.008,1.64417 -1.28464,3.19331 -3.08916,4.70291 -1.80452,1.50967 -4.02321,2.98828 -5.36185,4.53277 -1.33866,1.54454 -1.70967,3.16153 -0.90413,4.86658 0.80557,1.70511 2.74158,3.49486 4.66855,5.28394 1.92698,1.78908 3.7232,3.56838 4.33613,5.25907 0.61294,1.6906 -0.001,3.28939 -1.48261,4.82323 -1.48123,1.53385 -3.74023,3.00944 -5.45768,4.52558 -1.71748,1.51612 -2.78344,3.08105 -2.58159,4.74096 0.20183,1.65986 1.66372,3.41412 3.52261,5.19813 1.85885,1.78396 3.99898,3.58903 5.16526,5.32109 1.16623,1.73209 1.28063,3.38545 0.27709,4.95505 -1.00353,1.56965 -3.06697,3.05987 -4.98411,4.56107 -1.91714,1.50117 -3.56708,3.02239 -3.99076,4.63542 -0.42367,1.61304 0.41038,3.32026 2.00586,5.08453 1.59549,1.76423 3.85486,3.57824 5.45163,5.34256 1.59678,1.76433 2.4273,3.47131 2.00584,5.08453 -0.42143,1.6132 -2.07398,3.13423 -3.99073,4.63538 -1.91679,1.50125 -3.97862,2.99163 -4.98413,4.56108 -1.00553,1.56946 -0.8873,3.22308 0.2771,4.95507 1.16442,1.73191 3.30577,3.53706 5.16527,5.3211 1.85949,1.78401 3.31846,3.53807 3.5226,5.19812 0.20413,1.66006 -0.86521,3.22477 -2.5816,4.74095 -1.71635,1.51622 -3.97495,2.99183 -5.45767,4.52558 -1.48272,1.53374 -2.09338,3.13276 -1.48262,4.8233 0.61074,1.69047 2.40927,3.46993 4.33613,5.25901 1.92684,1.78904 3.86092,3.57867 4.66854,5.28393 0.80765,1.70521 0.43286,3.32192 -0.90413,4.86659 -1.33696,1.54463 -3.55647,3.02319 -5.36184,4.53275 -1.80536,1.50956 -3.08164,3.05875 -3.08915,4.70291"
         style="fill:none;stroke:#000000;stroke-width:3.08200002;stroke-linecap:round;stroke-miterlimit:4;stroke-opacity:1;stroke-dasharray:none;stroke-dashoffset:0"
         inkscape:connector-curvature="0" />
      <path
         inkscape:transform-center-y="7.0710678"
         inkscape:transform-center-x="-223.24371"
         inkscape:connector-curvature="0"
         style="fill:none;stroke:#000000;stroke-width:3.02297354;stroke-linecap:round;stroke-miterlimit:4;stroke-opacity:1;stroke-dasharray:none;stroke-dashoffset:0"
         d="m 917.86205,458.07044 c -1.13381,1.1469 -1.32671,3.11255 -1.12809,5.41889 0.19856,2.30638 0.70433,4.88004 0.55743,6.8857 -0.14694,2.00571 -1.01153,3.3869 -2.74869,4.00873 -1.73723,0.62185 -4.31285,0.5141 -6.88176,0.4122 -2.56893,-0.1019 -5.04088,-0.1194 -6.63524,0.62677 -1.5943,0.74612 -2.27872,2.28408 -2.31962,4.38206 -0.0412,2.09771 0.49448,4.69737 0.62851,6.94753 0.13405,2.25016 -0.21511,4.07985 -1.50459,5.09134 -1.28942,1.01147 -3.51341,1.20973 -6.03185,1.1518 -2.51839,-0.058 -5.24543,-0.29741 -7.25013,0.0916 -2.0047,0.38906 -3.22931,1.45699 -3.62476,3.24639 -0.39549,1.78943 -0.005,4.26288 0.27726,6.64192 0.28215,2.37902 0.36608,4.58562 -0.45944,6.0008 -0.82552,1.41516 -2.58386,2.01862 -4.90693,2.13066 -2.32306,0.11202 -5.13853,-0.20438 -7.46253,-0.0932 -2.32402,0.11119 -4.07975,0.71693 -4.90692,2.13069 -0.82719,1.41371 -0.74132,3.62201 -0.45943,6.00074 0.28184,2.37883 0.67125,4.85127 0.27726,6.64194 -0.39398,1.7907 -1.62142,2.85613 -3.62478,3.2464 -2.00332,0.39019 -4.73124,0.14995 -7.25013,0.0916 -2.51887,-0.0584 -4.74071,0.1418 -6.03186,1.15178 -1.29115,1.01001 -1.63782,2.8419 -1.50456,5.09134 0.13322,2.24945 0.6686,4.84885 0.62851,6.94754 -0.0401,2.09868 -0.72692,3.63451 -2.31967,4.3821 -1.5927,0.74755 -4.06635,0.72855 -6.63519,0.62673 -2.56881,-0.10184 -5.14302,-0.20831 -6.88176,0.41221 -1.73873,0.62047 -2.60051,2.00409 -2.74869,4.00873 -0.14817,2.00459 0.3582,4.57878 0.55744,6.88568 0.19922,2.30689 0.006,4.27233 -1.12811,5.41889"
         title="t cos(11*t)"
         id="path13086" />
    </g>
    <g
       id="g13140"
       transform="matrix(0.7948329,0,0,0.7948329,175.661,133.17971)">
      <path
         sodipodi:nodetypes="caac"
         inkscape:connector-curvature="0"
         id="path13136"
         d="m -204.05081,846.29106 c 0,0 34.09188,25.92542 54.26785,31.33156 41.72153,11.17925 87.858382,-11.17925 129.579909,0 17.3448922,4.64755 46.653015,26.93513 46.653015,26.93513"
         style="fill:none;stroke:#000000;stroke-width:4.4000001;stroke-linecap:round;stroke-linejoin:miter;stroke-miterlimit:4;stroke-opacity:1;stroke-dasharray:none" />
      <path
         style="fill:none;stroke:#000000;stroke-width:4.4000001;stroke-linecap:round;stroke-linejoin:miter;stroke-miterlimit:4;stroke-opacity:1;stroke-dasharray:none"
         d="m 256.44996,846.29106 c 0,0 -34.09188,25.92542 -54.26785,31.33156 -41.72153,11.17925 -87.85838,-11.17925 -129.5799,0 -17.3449,4.64755 -46.65302,26.93513 -46.65302,26.93513"
         id="path13138"
         inkscape:connector-curvature="0"
         sodipodi:nodetypes="caac" />
    </g>
    <g
       transform="matrix(0.7948329,0,0,0.7948329,739.661,133.17971)"
       id="g13144">
      <path
         style="fill:none;stroke:#000000;stroke-width:4.4000001;stroke-linecap:round;stroke-linejoin:miter;stroke-miterlimit:4;stroke-opacity:1;stroke-dasharray:none"
         d="m -204.05081,846.29106 c 0,0 34.09188,25.92542 54.26785,31.33156 41.72153,11.17925 87.858382,-11.17925 129.579909,0 17.3448922,4.64755 46.653015,26.93513 46.653015,26.93513"
         id="path13146"
         inkscape:connector-curvature="0"
         sodipodi:nodetypes="caac" />
      <path
         sodipodi:nodetypes="caac"
         inkscape:connector-curvature="0"
         id="path13148"
         d="m 256.44996,846.29106 c 0,0 -34.09188,25.92542 -54.26785,31.33156 -41.72153,11.17925 -87.85838,-11.17925 -129.5799,0 -17.3449,4.64755 -46.65302,26.93513 -46.65302,26.93513"
         style="fill:none;stroke:#000000;stroke-width:4.4000001;stroke-linecap:round;stroke-linejoin:miter;stroke-miterlimit:4;stroke-opacity:1;stroke-dasharray:none" />
    </g>
    <text
       xml:space="preserve"
       style="font-size:48px;font-style:normal;font-weight:normal;line-height:125%;letter-spacing:0px;word-spacing:0px;fill:#000000;fill-opacity:1;stroke:none;font-family:Sans"
       x="81.714287"
       y="911.61328"
       id="text13150"
       sodipodi:linespacing="125%"><tspan
         sodipodi:role="line"
         id="tspan13152"
         x="81.714287"
         y="911.61328">self energy</tspan></text>
    <text
       xml:space="preserve"
       style="font-size:48px;font-style:normal;font-weight:normal;line-height:125%;letter-spacing:0px;word-spacing:0px;fill:#000000;fill-opacity:1;stroke:none;font-family:Sans"
       x="692.28571"
       y="915.70313"
       id="text13154"
       sodipodi:linespacing="125%"><tspan
         sodipodi:role="line"
         id="tspan13156"
         x="692.28571"
         y="915.70313">vertex</tspan></text>
  </g>
</svg>
