<?xml version="1.0" encoding="UTF-8" standalone="no"?>
<!-- Created with Inkscape (http://www.inkscape.org/) -->

<svg
   xmlns:dc="http://purl.org/dc/elements/1.1/"
   xmlns:cc="http://creativecommons.org/ns#"
   xmlns:rdf="http://www.w3.org/1999/02/22-rdf-syntax-ns#"
   xmlns:svg="http://www.w3.org/2000/svg"
   xmlns="http://www.w3.org/2000/svg"
   xmlns:sodipodi="http://sodipodi.sourceforge.net/DTD/sodipodi-0.dtd"
   xmlns:inkscape="http://www.inkscape.org/namespaces/inkscape"
   width="626.68512"
   height="655.47205"
   id="svg3542"
   version="1.1"
   inkscape:version="0.91 r13725"
   sodipodi:docname="fig6_2_1x.svg">
  <defs
     id="defs3544">
    <clipPath
       clipPathUnits="userSpaceOnUse"
       id="clipPath4053">
      <path
         inkscape:connector-curvature="0"
         d="M 0,0 403,0 403,392 0,392 0,0 Z"
         id="path4055" />
    </clipPath>
    <clipPath
       clipPathUnits="userSpaceOnUse"
       id="clipPath3899">
      <path
         inkscape:connector-curvature="0"
         d="m 26.309,386.96 370.941,0 0,-370.941 -370.941,0 0,370.941 z"
         id="path3901" />
    </clipPath>
    <clipPath
       clipPathUnits="userSpaceOnUse"
       id="clipPath3907">
      <path
         inkscape:connector-curvature="0"
         d="M 0,0 403,0 403,392 0,392 0,0 Z"
         id="path3909" />
    </clipPath>
    <clipPath
       clipPathUnits="userSpaceOnUse"
       id="clipPath3925">
      <path
         inkscape:connector-curvature="0"
         d="M 0,0 403,0 403,392 0,392 0,0 Z"
         id="path3927" />
    </clipPath>
    <clipPath
       clipPathUnits="userSpaceOnUse"
       id="clipPath3943">
      <path
         inkscape:connector-curvature="0"
         d="M 0,0 403,0 403,392 0,392 0,0 Z"
         id="path3945" />
    </clipPath>
    <clipPath
       clipPathUnits="userSpaceOnUse"
       id="clipPath3961">
      <path
         inkscape:connector-curvature="0"
         d="M 0,0 403,0 403,392 0,392 0,0 Z"
         id="path3963" />
    </clipPath>
    <clipPath
       clipPathUnits="userSpaceOnUse"
       id="clipPath3979">
      <path
         inkscape:connector-curvature="0"
         d="M 0,0 403,0 403,392 0,392 0,0 Z"
         id="path3981" />
    </clipPath>
    <clipPath
       clipPathUnits="userSpaceOnUse"
       id="clipPath3997">
      <path
         inkscape:connector-curvature="0"
         d="M 0,0 403,0 403,392 0,392 0,0 Z"
         id="path3999" />
    </clipPath>
    <clipPath
       clipPathUnits="userSpaceOnUse"
       id="clipPath4015">
      <path
         inkscape:connector-curvature="0"
         d="M 0,0 403,0 403,392 0,392 0,0 Z"
         id="path4017" />
    </clipPath>
    <clipPath
       clipPathUnits="userSpaceOnUse"
       id="clipPath4033">
      <path
         inkscape:connector-curvature="0"
         d="M 0,0 403,0 403,392 0,392 0,0 Z"
         id="path4035" />
    </clipPath>
    <clipPath
       clipPathUnits="userSpaceOnUse"
       id="clipPath3847">
      <path
         inkscape:connector-curvature="0"
         d="M 0,0 403,0 403,392 0,392 0,0 Z"
         id="path3849" />
    </clipPath>
  </defs>
  <sodipodi:namedview
     id="base"
     pagecolor="#ffffff"
     bordercolor="#666666"
     borderopacity="1.0"
     inkscape:pageopacity="0.0"
     inkscape:pageshadow="2"
     inkscape:zoom="0.49497475"
     inkscape:cx="643.52576"
     inkscape:cy="247.48503"
     inkscape:document-units="px"
     inkscape:current-layer="layer1"
     showgrid="false"
     inkscape:window-width="1327"
     inkscape:window-height="744"
     inkscape:window-x="39"
     inkscape:window-y="24"
     inkscape:window-maximized="1"
     fit-margin-top="0"
     fit-margin-left="0"
     fit-margin-right="0"
     fit-margin-bottom="0" />
  <metadata
     id="metadata3547">
    <rdf:RDF>
      <cc:Work
         rdf:about="">
        <dc:format>image/svg+xml</dc:format>
        <dc:type
           rdf:resource="http://purl.org/dc/dcmitype/StillImage" />
        <dc:title></dc:title>
      </cc:Work>
    </rdf:RDF>
  </metadata>
  <g
     inkscape:label="Layer 1"
     inkscape:groupmode="layer"
     id="layer1"
     transform="translate(-137.67914,-156.57264)">
    <path
       inkscape:connector-curvature="0"
       id="path3043"
       style="fill:#000000;fill-opacity:1;fill-rule:nonzero;stroke:#000000;stroke-width:1.72124994;stroke-linecap:butt;stroke-linejoin:miter;stroke-miterlimit:4;stroke-dasharray:none;stroke-opacity:1"
       d="m 253.96456,328.25889 c 0,-4.2275 -3.4275,-7.65125 -7.65124,-7.65125 -4.22375,0 -7.65125,3.42375 -7.65125,7.65125 0,4.22375 3.4275,7.6475 7.65125,7.6475 4.22374,0 7.65124,-3.42375 7.65124,-7.6475 z" />
    <path
       inkscape:connector-curvature="0"
       id="path3045"
       style="fill:#000000;fill-opacity:1;fill-rule:nonzero;stroke:#000000;stroke-width:1.72124994;stroke-linecap:butt;stroke-linejoin:miter;stroke-miterlimit:4;stroke-dasharray:none;stroke-opacity:1"
       d="m 272.92956,341.16514 c 0,-4.22875 -3.42375,-7.65125 -7.65125,-7.65125 -4.22375,0 -7.6475,3.4225 -7.6475,7.65125 0,4.22375 3.42375,7.64625 7.6475,7.64625 4.2275,0 7.65125,-3.4225 7.65125,-7.64625 z" />
    <path
       inkscape:connector-curvature="0"
       id="path3047"
       style="fill:#000000;fill-opacity:1;fill-rule:nonzero;stroke:#000000;stroke-width:1.72124994;stroke-linecap:butt;stroke-linejoin:miter;stroke-miterlimit:4;stroke-dasharray:none;stroke-opacity:1"
       d="m 299.49206,326.35514 c 0,-4.22375 -3.4275,-7.65125 -7.65125,-7.65125 -4.22375,0 -7.65125,3.4275 -7.65125,7.65125 0,4.22375 3.4275,7.65125 7.65125,7.65125 4.22375,0 7.65125,-3.4275 7.65125,-7.65125 z" />
    <path
       inkscape:connector-curvature="0"
       id="path3049"
       style="fill:#000000;fill-opacity:1;fill-rule:nonzero;stroke:#000000;stroke-width:1.72124994;stroke-linecap:butt;stroke-linejoin:miter;stroke-miterlimit:4;stroke-dasharray:none;stroke-opacity:1"
       d="m 322.23581,338.77264 c 0,-4.22375 -3.4275,-7.6525 -7.65125,-7.6525 -4.22375,0 -7.65125,3.42875 -7.65125,7.6525 0,4.2225 3.4275,7.65125 7.65125,7.65125 4.22375,0 7.65125,-3.42875 7.65125,-7.65125 z" />
    <path
       inkscape:connector-curvature="0"
       id="path3051"
       style="fill:#000000;fill-opacity:1;fill-rule:nonzero;stroke:#000000;stroke-width:1.72124994;stroke-linecap:butt;stroke-linejoin:miter;stroke-miterlimit:4;stroke-dasharray:none;stroke-opacity:1"
       d="m 345.03331,340.20764 c 0,-4.22875 -3.4275,-7.65125 -7.65125,-7.65125 -4.22375,0 -7.65125,3.4225 -7.65125,7.65125 0,4.22375 3.4275,7.64625 7.65125,7.64625 4.22375,0 7.65125,-3.4225 7.65125,-7.64625 z" />
    <path
       inkscape:connector-curvature="0"
       id="path3053"
       style="fill:#000000;fill-opacity:1;fill-rule:nonzero;stroke:#000000;stroke-width:1.72124994;stroke-linecap:butt;stroke-linejoin:miter;stroke-miterlimit:4;stroke-dasharray:none;stroke-opacity:1"
       d="m 365.25831,340.20764 c 0,-4.22875 -3.4225,-7.65125 -7.65125,-7.65125 -4.22375,0 -7.64625,3.4225 -7.64625,7.65125 0,4.22375 3.4225,7.64625 7.64625,7.64625 4.22875,0 7.65125,-3.4225 7.65125,-7.64625 z" />
    <path
       inkscape:connector-curvature="0"
       id="path3055"
       style="fill:#000000;fill-opacity:1;fill-rule:nonzero;stroke:#000000;stroke-width:1.72124994;stroke-linecap:butt;stroke-linejoin:miter;stroke-miterlimit:4;stroke-dasharray:none;stroke-opacity:1"
       d="m 391.78206,344.98264 c 0,-4.22375 -3.42375,-7.65125 -7.64625,-7.65125 -4.22875,0 -7.6525,3.4275 -7.6525,7.65125 0,4.22375 3.42375,7.65125 7.6525,7.65125 4.2225,0 7.64625,-3.4275 7.64625,-7.65125 z" />
    <path
       inkscape:connector-curvature="0"
       id="path3057"
       style="fill:#000000;fill-opacity:1;fill-rule:nonzero;stroke:#000000;stroke-width:1.72124994;stroke-linecap:butt;stroke-linejoin:miter;stroke-miterlimit:4;stroke-dasharray:none;stroke-opacity:1"
       d="m 413.33956,308.67889 c 0,-4.2275 -3.4225,-7.65125 -7.65125,-7.65125 -4.22375,0 -7.64625,3.42375 -7.64625,7.65125 0,4.22375 3.4225,7.6475 7.64625,7.6475 4.22875,0 7.65125,-3.42375 7.65125,-7.6475 z" />
    <path
       inkscape:connector-curvature="0"
       id="path3059"
       style="fill:#000000;fill-opacity:1;fill-rule:nonzero;stroke:#000000;stroke-width:1.72124994;stroke-linecap:butt;stroke-linejoin:miter;stroke-miterlimit:4;stroke-dasharray:none;stroke-opacity:1"
       d="m 432.32331,282.86889 c 0,-4.22875 -3.4225,-7.65125 -7.65125,-7.65125 -4.22375,0 -7.64625,3.4225 -7.64625,7.65125 0,4.22375 3.4225,7.64625 7.64625,7.64625 4.22875,0 7.65125,-3.4225 7.65125,-7.64625 z" />
    <path
       inkscape:connector-curvature="0"
       id="path3061"
       style="fill:#000000;fill-opacity:1;fill-rule:nonzero;stroke:#000000;stroke-width:1.72124994;stroke-linecap:butt;stroke-linejoin:miter;stroke-miterlimit:4;stroke-dasharray:none;stroke-opacity:1"
       d="m 456.27456,250.84264 c 0,-4.22375 -3.42375,-7.65125 -7.6475,-7.65125 -4.2275,0 -7.65125,3.4275 -7.65125,7.65125 0,4.22375 3.42375,7.65125 7.65125,7.65125 4.22375,0 7.6475,-3.4275 7.6475,-7.65125 z" />
    <path
       inkscape:connector-curvature="0"
       id="path3063"
       style="fill:#000000;fill-opacity:1;fill-rule:nonzero;stroke:#000000;stroke-width:1.72124994;stroke-linecap:butt;stroke-linejoin:miter;stroke-miterlimit:4;stroke-dasharray:none;stroke-opacity:1"
       d="m 481.64456,243.67889 c 0,-4.22375 -3.4225,-7.64625 -7.64625,-7.64625 -4.22875,0 -7.65125,3.4225 -7.65125,7.64625 0,4.22875 3.4225,7.65125 7.65125,7.65125 4.22375,0 7.64625,-3.4225 7.64625,-7.65125 z" />
    <path
       inkscape:connector-curvature="0"
       id="path3065"
       style="fill:#000000;fill-opacity:1;fill-rule:nonzero;stroke:#000000;stroke-width:1.72124994;stroke-linecap:butt;stroke-linejoin:miter;stroke-miterlimit:4;stroke-dasharray:none;stroke-opacity:1"
       d="m 504.35456,235.08014 c 0,-4.2275 -3.4225,-7.65125 -7.64625,-7.65125 -4.22875,0 -7.65125,3.42375 -7.65125,7.65125 0,4.22375 3.4225,7.6475 7.65125,7.6475 4.22375,0 7.64625,-3.42375 7.64625,-7.6475 z" />
    <path
       inkscape:connector-curvature="0"
       id="path3067"
       style="fill:#000000;fill-opacity:1;fill-rule:nonzero;stroke:#000000;stroke-width:1.72124994;stroke-linecap:butt;stroke-linejoin:miter;stroke-miterlimit:4;stroke-dasharray:none;stroke-opacity:1"
       d="m 523.33956,246.06639 c 0,-4.2225 -3.4225,-7.65125 -7.65125,-7.65125 -4.22375,0 -7.64625,3.42875 -7.64625,7.65125 0,4.22375 3.4225,7.6525 7.64625,7.6525 4.22875,0 7.65125,-3.42875 7.65125,-7.6525 z" />
    <path
       inkscape:connector-curvature="0"
       id="path3069"
       style="fill:#000000;fill-opacity:1;fill-rule:nonzero;stroke:#000000;stroke-width:1.72124994;stroke-linecap:butt;stroke-linejoin:miter;stroke-miterlimit:4;stroke-dasharray:none;stroke-opacity:1"
       d="m 552.43581,277.60514 c 0,-4.22875 -3.4225,-7.65125 -7.65125,-7.65125 -4.22375,0 -7.64625,3.4225 -7.64625,7.65125 0,4.22375 3.4225,7.64625 7.64625,7.64625 4.22875,0 7.65125,-3.4225 7.65125,-7.64625 z" />
    <path
       inkscape:connector-curvature="0"
       id="path3071"
       style="fill:#000000;fill-opacity:1;fill-rule:nonzero;stroke:#000000;stroke-width:1.72124994;stroke-linecap:butt;stroke-linejoin:miter;stroke-miterlimit:4;stroke-dasharray:none;stroke-opacity:1"
       d="m 568.84706,303.41514 c 0,-4.22375 -3.4225,-7.65125 -7.64625,-7.65125 -4.22875,0 -7.65125,3.4275 -7.65125,7.65125 0,4.22375 3.4225,7.65125 7.65125,7.65125 4.22375,0 7.64625,-3.4275 7.64625,-7.65125 z" />
    <path
       inkscape:connector-curvature="0"
       id="path3073"
       style="fill:#000000;fill-opacity:1;fill-rule:nonzero;stroke:#000000;stroke-width:1.72124994;stroke-linecap:butt;stroke-linejoin:miter;stroke-miterlimit:4;stroke-dasharray:none;stroke-opacity:1"
       d="m 592.88956,337.80514 c 0,-4.22375 -3.4275,-7.64625 -7.65125,-7.64625 -4.22375,0 -7.65125,3.4225 -7.65125,7.64625 0,4.22875 3.4275,7.65125 7.65125,7.65125 4.22375,0 7.65125,-3.4225 7.65125,-7.65125 z" />
    <path
       inkscape:connector-curvature="0"
       id="path3075"
       style="fill:#000000;fill-opacity:1;fill-rule:nonzero;stroke:#000000;stroke-width:1.72124994;stroke-linecap:butt;stroke-linejoin:miter;stroke-miterlimit:4;stroke-dasharray:none;stroke-opacity:1"
       d="m 614.44331,370.33014 c 0,-4.22375 -3.42375,-7.65125 -7.6475,-7.65125 -4.2225,0 -7.65125,3.4275 -7.65125,7.65125 0,4.22375 3.42875,7.65125 7.65125,7.65125 4.22375,0 7.6475,-3.4275 7.6475,-7.65125 z" />
    <path
       inkscape:connector-curvature="0"
       id="path3077"
       style="fill:#000000;fill-opacity:1;fill-rule:nonzero;stroke:#000000;stroke-width:1.72124994;stroke-linecap:butt;stroke-linejoin:miter;stroke-miterlimit:4;stroke-dasharray:none;stroke-opacity:1"
       d="m 638.39831,396.12514 c 0,-4.22375 -3.4275,-7.64625 -7.65125,-7.64625 -4.22375,0 -7.65125,3.4225 -7.65125,7.64625 0,4.22875 3.4275,7.65125 7.65125,7.65125 4.22375,0 7.65125,-3.4225 7.65125,-7.65125 z" />
    <path
       inkscape:connector-curvature="0"
       id="path3079"
       style="fill:#000000;fill-opacity:1;fill-rule:nonzero;stroke:#000000;stroke-width:1.72124994;stroke-linecap:butt;stroke-linejoin:miter;stroke-miterlimit:4;stroke-dasharray:none;stroke-opacity:1"
       d="m 662.43581,388.96264 c 0,-4.22875 -3.4225,-7.65125 -7.64625,-7.65125 -4.22875,0 -7.65125,3.4225 -7.65125,7.65125 0,4.22375 3.4225,7.64625 7.65125,7.64625 4.22375,0 7.64625,-3.4225 7.64625,-7.64625 z" />
    <path
       inkscape:connector-curvature="0"
       id="path3081"
       style="fill:#000000;fill-opacity:1;fill-rule:nonzero;stroke:#000000;stroke-width:1.72124994;stroke-linecap:butt;stroke-linejoin:miter;stroke-miterlimit:4;stroke-dasharray:none;stroke-opacity:1"
       d="m 685.23331,366.97514 c 0,-4.22875 -3.4225,-7.65125 -7.64625,-7.65125 -4.22875,0 -7.65125,3.4225 -7.65125,7.65125 0,4.22375 3.4225,7.64625 7.65125,7.64625 4.22375,0 7.64625,-3.4225 7.64625,-7.64625 z" />
    <path
       inkscape:connector-curvature="0"
       id="path3083"
       style="fill:#000000;fill-opacity:1;fill-rule:nonzero;stroke:#000000;stroke-width:1.72124994;stroke-linecap:butt;stroke-linejoin:miter;stroke-miterlimit:4;stroke-dasharray:none;stroke-opacity:1"
       d="m 705.46331,340.20764 c 0,-4.22875 -3.4275,-7.65125 -7.65125,-7.65125 -4.22375,0 -7.65125,3.4225 -7.65125,7.65125 0,4.22375 3.4275,7.64625 7.65125,7.64625 4.22375,0 7.65125,-3.4225 7.65125,-7.64625 z" />
    <path
       inkscape:connector-curvature="0"
       id="path3085"
       style="fill:#000000;fill-opacity:1;fill-rule:nonzero;stroke:#000000;stroke-width:1.72124994;stroke-linecap:butt;stroke-linejoin:miter;stroke-miterlimit:4;stroke-dasharray:none;stroke-opacity:1"
       d="m 728.26081,338.77264 c 0,-4.22375 -3.4275,-7.6525 -7.65125,-7.6525 -4.22375,0 -7.65125,3.42875 -7.65125,7.6525 0,4.2225 3.4275,7.65125 7.65125,7.65125 4.22375,0 7.65125,-3.42875 7.65125,-7.65125 z" />
    <path
       inkscape:connector-curvature="0"
       id="path3087"
       style="fill:none;stroke:#000000;stroke-width:6.31124973;stroke-linecap:butt;stroke-linejoin:miter;stroke-miterlimit:4;stroke-dasharray:none;stroke-opacity:1"
       d="m 219.75582,429.63139 7.9825,0.5325 7.98375,1.5675 7.98375,2.55875 7.98374,3.46125 7.9825,4.22375 7.98375,4.785 7.98375,5.06875 7.9875,4.99 7.98375,4.44375 7.98375,3.34 7.9825,1.62 7.98375,-0.66375 7.98375,-3.39375 7.98375,-6.30375 7.9825,-9.10625 7.98375,-11.5275 7.98375,-13.38375 7.9875,-14.61 7.98375,-15.23875 7.98375,-15.36125 7.98375,-15.06375 7.9825,-14.4625 7.98375,-13.62875 7.98375,-12.63125 7.9825,-11.52875 7.98375,-10.33625 7.98375,-9.0975 7.98875,-7.8275 7.9825,-6.5275 7.98375,-5.22 7.98375,-3.89625 7.9825,-2.57375 7.98375,-1.24 7.98375,0.0975 7.98375,1.42625 7.9825,2.76375 7.98375,4.08625 7.98875,5.41 7.9825,6.71 7.98375,7.9825 7.98375,9.20875 7.9825,10.3625 7.98375,11.40125 7.98375,12.275 7.98375,12.925 7.9825,13.25125 7.98375,13.165 7.98875,12.5625 7.9825,11.3775 7.98375,9.605 7.98375,7.33375 7.98375,4.77 7.9825,2.1925 7.98375,-0.1225 7.98375,-1.9725 7.9825,-3.25625 7.98375,-3.98 7.98875,-4.20875 7.98375,-4.0375 7.9825,-3.565 7.98375,-2.89125 7.98375,-2.065 7.9825,-1.1475 7.98375,-0.185 7.98375,0.81 7.98375,1.81125 5.4,1.89" />
    <path
       inkscape:connector-curvature="0"
       id="path3091"
       style="fill:none;stroke:#000000;stroke-width:1.14750004;stroke-linecap:butt;stroke-linejoin:miter;stroke-miterlimit:4;stroke-dasharray:none;stroke-opacity:1"
       d="m 219.75582,745.52514 532.25499,0" />
    <path
       inkscape:connector-curvature="0"
       id="path3093"
       style="fill:none;stroke:#000000;stroke-width:1.14750004;stroke-linecap:butt;stroke-linejoin:miter;stroke-miterlimit:4;stroke-dasharray:none;stroke-opacity:1"
       d="m 219.75582,157.14639 532.25499,0" />
    <path
       inkscape:connector-curvature="0"
       id="path3095"
       style="fill:none;stroke:#000000;stroke-width:1.14750004;stroke-linecap:butt;stroke-linejoin:miter;stroke-miterlimit:4;stroke-dasharray:none;stroke-opacity:1"
       d="m 264.11081,745.52514 0,-7.64625" />
    <path
       inkscape:connector-curvature="0"
       id="path3097"
       style="fill:none;stroke:#000000;stroke-width:1.14750004;stroke-linecap:butt;stroke-linejoin:miter;stroke-miterlimit:4;stroke-dasharray:none;stroke-opacity:1"
       d="m 264.11081,157.14639 0,7.65125" />
    <path
       inkscape:connector-curvature="0"
       id="path3099"
       style="fill:none;stroke:#000000;stroke-width:1.14750004;stroke-linecap:butt;stroke-linejoin:miter;stroke-miterlimit:4;stroke-dasharray:none;stroke-opacity:1"
       d="m 352.81706,745.52514 0,-7.64625" />
    <path
       inkscape:connector-curvature="0"
       id="path3101"
       style="fill:none;stroke:#000000;stroke-width:1.14750004;stroke-linecap:butt;stroke-linejoin:miter;stroke-miterlimit:4;stroke-dasharray:none;stroke-opacity:1"
       d="m 352.81706,157.14639 0,7.65125" />
    <path
       inkscape:connector-curvature="0"
       id="path3103"
       style="fill:none;stroke:#000000;stroke-width:1.14750004;stroke-linecap:butt;stroke-linejoin:miter;stroke-miterlimit:4;stroke-dasharray:none;stroke-opacity:1"
       d="m 441.52831,745.52514 0,-7.64625" />
    <path
       inkscape:connector-curvature="0"
       id="path3105"
       style="fill:none;stroke:#000000;stroke-width:1.14750004;stroke-linecap:butt;stroke-linejoin:miter;stroke-miterlimit:4;stroke-dasharray:none;stroke-opacity:1"
       d="m 441.52831,157.14639 0,7.65125" />
    <path
       inkscape:connector-curvature="0"
       id="path3107"
       style="fill:none;stroke:#000000;stroke-width:1.14750004;stroke-linecap:butt;stroke-linejoin:miter;stroke-miterlimit:4;stroke-dasharray:none;stroke-opacity:1"
       d="m 530.23831,745.52514 0,-7.64625" />
    <path
       inkscape:connector-curvature="0"
       id="path3109"
       style="fill:none;stroke:#000000;stroke-width:1.14750004;stroke-linecap:butt;stroke-linejoin:miter;stroke-miterlimit:4;stroke-dasharray:none;stroke-opacity:1"
       d="m 530.23831,157.14639 0,7.65125" />
    <path
       inkscape:connector-curvature="0"
       id="path3111"
       style="fill:none;stroke:#000000;stroke-width:1.14750004;stroke-linecap:butt;stroke-linejoin:miter;stroke-miterlimit:4;stroke-dasharray:none;stroke-opacity:1"
       d="m 618.94956,745.52514 0,-7.64625" />
    <path
       inkscape:connector-curvature="0"
       id="path3113"
       style="fill:none;stroke:#000000;stroke-width:1.14750004;stroke-linecap:butt;stroke-linejoin:miter;stroke-miterlimit:4;stroke-dasharray:none;stroke-opacity:1"
       d="m 618.94956,157.14639 0,7.65125" />
    <path
       inkscape:connector-curvature="0"
       id="path3115"
       style="fill:none;stroke:#000000;stroke-width:1.14750004;stroke-linecap:butt;stroke-linejoin:miter;stroke-miterlimit:4;stroke-dasharray:none;stroke-opacity:1"
       d="m 707.66081,745.52514 0,-7.64625" />
    <path
       inkscape:connector-curvature="0"
       id="path3117"
       style="fill:none;stroke:#000000;stroke-width:1.14750004;stroke-linecap:butt;stroke-linejoin:miter;stroke-miterlimit:4;stroke-dasharray:none;stroke-opacity:1"
       d="m 707.66081,157.14639 0,7.65125" />
    <path
       inkscape:connector-curvature="0"
       id="path3119"
       style="fill:none;stroke:#000000;stroke-width:1.14750004;stroke-linecap:butt;stroke-linejoin:miter;stroke-miterlimit:4;stroke-dasharray:none;stroke-opacity:1"
       d="m 219.75582,745.52514 0,-15.2975" />
    <path
       inkscape:connector-curvature="0"
       id="path3121"
       style="fill:none;stroke:#000000;stroke-width:1.14750004;stroke-linecap:butt;stroke-linejoin:miter;stroke-miterlimit:4;stroke-dasharray:none;stroke-opacity:1"
       d="m 219.75582,157.14639 0,15.2975" />
    <path
       inkscape:connector-curvature="0"
       id="path3123"
       style="fill:none;stroke:#000000;stroke-width:1.14750004;stroke-linecap:butt;stroke-linejoin:miter;stroke-miterlimit:4;stroke-dasharray:none;stroke-opacity:1"
       d="m 308.46581,745.52514 0,-15.2975" />
    <path
       inkscape:connector-curvature="0"
       id="path3125"
       style="fill:none;stroke:#000000;stroke-width:1.14750004;stroke-linecap:butt;stroke-linejoin:miter;stroke-miterlimit:4;stroke-dasharray:none;stroke-opacity:1"
       d="m 308.46581,157.14639 0,15.2975" />
    <path
       inkscape:connector-curvature="0"
       id="path3127"
       style="fill:none;stroke:#000000;stroke-width:1.14750004;stroke-linecap:butt;stroke-linejoin:miter;stroke-miterlimit:4;stroke-dasharray:none;stroke-opacity:1"
       d="m 397.17206,745.52514 0,-15.2975" />
    <path
       inkscape:connector-curvature="0"
       id="path3129"
       style="fill:none;stroke:#000000;stroke-width:1.14750004;stroke-linecap:butt;stroke-linejoin:miter;stroke-miterlimit:4;stroke-dasharray:none;stroke-opacity:1"
       d="m 397.17206,157.14639 0,15.2975" />
    <path
       inkscape:connector-curvature="0"
       id="path3131"
       style="fill:none;stroke:#000000;stroke-width:1.14750004;stroke-linecap:butt;stroke-linejoin:miter;stroke-miterlimit:4;stroke-dasharray:none;stroke-opacity:1"
       d="m 485.88331,745.52514 0,-15.2975" />
    <path
       inkscape:connector-curvature="0"
       id="path3133"
       style="fill:none;stroke:#000000;stroke-width:1.14750004;stroke-linecap:butt;stroke-linejoin:miter;stroke-miterlimit:4;stroke-dasharray:none;stroke-opacity:1"
       d="m 485.88331,157.14639 0,15.2975" />
    <path
       inkscape:connector-curvature="0"
       id="path3135"
       style="fill:none;stroke:#000000;stroke-width:1.14750004;stroke-linecap:butt;stroke-linejoin:miter;stroke-miterlimit:4;stroke-dasharray:none;stroke-opacity:1"
       d="m 574.59456,745.52514 0,-15.2975" />
    <path
       inkscape:connector-curvature="0"
       id="path3137"
       style="fill:none;stroke:#000000;stroke-width:1.14750004;stroke-linecap:butt;stroke-linejoin:miter;stroke-miterlimit:4;stroke-dasharray:none;stroke-opacity:1"
       d="m 574.59456,157.14639 0,15.2975" />
    <path
       inkscape:connector-curvature="0"
       id="path3139"
       style="fill:none;stroke:#000000;stroke-width:1.14750004;stroke-linecap:butt;stroke-linejoin:miter;stroke-miterlimit:4;stroke-dasharray:none;stroke-opacity:1"
       d="m 663.30581,745.52514 0,-15.2975" />
    <path
       inkscape:connector-curvature="0"
       id="path3141"
       style="fill:none;stroke:#000000;stroke-width:1.14750004;stroke-linecap:butt;stroke-linejoin:miter;stroke-miterlimit:4;stroke-dasharray:none;stroke-opacity:1"
       d="m 663.30581,157.14639 0,15.2975" />
    <path
       inkscape:connector-curvature="0"
       id="path3143"
       style="fill:none;stroke:#000000;stroke-width:1.14750004;stroke-linecap:butt;stroke-linejoin:miter;stroke-miterlimit:4;stroke-dasharray:none;stroke-opacity:1"
       d="m 752.01081,745.52514 0,-15.2975" />
    <path
       inkscape:connector-curvature="0"
       id="path3145"
       style="fill:none;stroke:#000000;stroke-width:1.14750004;stroke-linecap:butt;stroke-linejoin:miter;stroke-miterlimit:4;stroke-dasharray:none;stroke-opacity:1"
       d="m 752.01081,157.14639 0,15.2975" />
    <text
       style="font-size:15px"
       id="text3147"
       x="214.75407"
       y="766.92737">
      <tspan
         id="tspan3149"
         sodipodi:role="line"
         y="766.92737"
         x="214.75407 297.84222 309.75177 386.54248 398.452 475.24268 487.15219 563.96857 575.87811"
         style="font-variant:normal;font-weight:normal;font-size:21.42000008px;font-family:Arial;-inkscape-font-specification:ArialMT;writing-mode:lr-tb;fill:#000000;fill-opacity:1;fill-rule:nonzero;stroke:none">010203040</tspan>
      <tspan
         id="tspan3151"
         sodipodi:role="line"
         y="768.17737"
         x="652.67847 664.58795 741.37866 753.28821"
         style="font-variant:normal;font-weight:normal;font-size:21.42000008px;font-family:Arial;-inkscape-font-specification:ArialMT;writing-mode:lr-tb;fill:#000000;fill-opacity:1;fill-rule:nonzero;stroke:none">5060</tspan>
      <tspan
         id="tspan3153"
         y="790.82739"
         x="469.0087"
         style="font-variant:normal;font-weight:normal;font-size:21.42000008px;font-family:Arial;-inkscape-font-specification:ArialMT;writing-mode:lr-tb;fill:#000000;fill-opacity:1;fill-rule:nonzero;stroke:none">q</tspan>
    </text>
    <path
       inkscape:connector-curvature="0"
       id="path3159"
       style="fill:none;stroke:#000000;stroke-width:1.14750004;stroke-linecap:butt;stroke-linejoin:miter;stroke-miterlimit:4;stroke-dasharray:none;stroke-opacity:1"
       d="m 219.75582,745.52514 0,-588.37875" />
    <path
       inkscape:connector-curvature="0"
       id="path3161"
       style="fill:none;stroke:#000000;stroke-width:1.14750004;stroke-linecap:butt;stroke-linejoin:miter;stroke-miterlimit:4;stroke-dasharray:none;stroke-opacity:1"
       d="m 752.01081,745.52514 0,-588.37875" />
    <path
       inkscape:connector-curvature="0"
       id="path3163"
       style="fill:none;stroke:#000000;stroke-width:1.14750004;stroke-linecap:butt;stroke-linejoin:miter;stroke-miterlimit:4;stroke-dasharray:none;stroke-opacity:1"
       d="m 219.75582,668.55264 7.64625,0" />
    <path
       inkscape:connector-curvature="0"
       id="path3165"
       style="fill:none;stroke:#000000;stroke-width:1.14750004;stroke-linecap:butt;stroke-linejoin:miter;stroke-miterlimit:4;stroke-dasharray:none;stroke-opacity:1"
       d="m 752.01081,668.55264 -7.64625,0" />
    <path
       inkscape:connector-curvature="0"
       id="path3167"
       style="fill:none;stroke:#000000;stroke-width:1.14750004;stroke-linecap:butt;stroke-linejoin:miter;stroke-miterlimit:4;stroke-dasharray:none;stroke-opacity:1"
       d="m 219.75582,623.52764 7.64625,0" />
    <path
       inkscape:connector-curvature="0"
       id="path3169"
       style="fill:none;stroke:#000000;stroke-width:1.14750004;stroke-linecap:butt;stroke-linejoin:miter;stroke-miterlimit:4;stroke-dasharray:none;stroke-opacity:1"
       d="m 752.01081,623.52764 -7.64625,0" />
    <path
       inkscape:connector-curvature="0"
       id="path3171"
       style="fill:none;stroke:#000000;stroke-width:1.14750004;stroke-linecap:butt;stroke-linejoin:miter;stroke-miterlimit:4;stroke-dasharray:none;stroke-opacity:1"
       d="m 219.75582,591.58014 7.64625,0" />
    <path
       inkscape:connector-curvature="0"
       id="path3173"
       style="fill:none;stroke:#000000;stroke-width:1.14750004;stroke-linecap:butt;stroke-linejoin:miter;stroke-miterlimit:4;stroke-dasharray:none;stroke-opacity:1"
       d="m 752.01081,591.58014 -7.64625,0" />
    <path
       inkscape:connector-curvature="0"
       id="path3175"
       style="fill:none;stroke:#000000;stroke-width:1.14750004;stroke-linecap:butt;stroke-linejoin:miter;stroke-miterlimit:4;stroke-dasharray:none;stroke-opacity:1"
       d="m 219.75582,566.79889 7.64625,0" />
    <path
       inkscape:connector-curvature="0"
       id="path3177"
       style="fill:none;stroke:#000000;stroke-width:1.14750004;stroke-linecap:butt;stroke-linejoin:miter;stroke-miterlimit:4;stroke-dasharray:none;stroke-opacity:1"
       d="m 752.01081,566.79889 -7.64625,0" />
    <path
       inkscape:connector-curvature="0"
       id="path3179"
       style="fill:none;stroke:#000000;stroke-width:1.14750004;stroke-linecap:butt;stroke-linejoin:miter;stroke-miterlimit:4;stroke-dasharray:none;stroke-opacity:1"
       d="m 219.75582,546.55014 7.64625,0" />
    <path
       inkscape:connector-curvature="0"
       id="path3181"
       style="fill:none;stroke:#000000;stroke-width:1.14750004;stroke-linecap:butt;stroke-linejoin:miter;stroke-miterlimit:4;stroke-dasharray:none;stroke-opacity:1"
       d="m 752.01081,546.55014 -7.64625,0" />
    <path
       inkscape:connector-curvature="0"
       id="path3183"
       style="fill:none;stroke:#000000;stroke-width:1.14750004;stroke-linecap:butt;stroke-linejoin:miter;stroke-miterlimit:4;stroke-dasharray:none;stroke-opacity:1"
       d="m 219.75582,529.43139 7.64625,0" />
    <path
       inkscape:connector-curvature="0"
       id="path3185"
       style="fill:none;stroke:#000000;stroke-width:1.14750004;stroke-linecap:butt;stroke-linejoin:miter;stroke-miterlimit:4;stroke-dasharray:none;stroke-opacity:1"
       d="m 752.01081,529.43139 -7.64625,0" />
    <path
       inkscape:connector-curvature="0"
       id="path3187"
       style="fill:none;stroke:#000000;stroke-width:1.14750004;stroke-linecap:butt;stroke-linejoin:miter;stroke-miterlimit:4;stroke-dasharray:none;stroke-opacity:1"
       d="m 219.75582,514.60264 7.64625,0" />
    <path
       inkscape:connector-curvature="0"
       id="path3189"
       style="fill:none;stroke:#000000;stroke-width:1.14750004;stroke-linecap:butt;stroke-linejoin:miter;stroke-miterlimit:4;stroke-dasharray:none;stroke-opacity:1"
       d="m 752.01081,514.60264 -7.64625,0" />
    <path
       inkscape:connector-curvature="0"
       id="path3191"
       style="fill:none;stroke:#000000;stroke-width:1.14750004;stroke-linecap:butt;stroke-linejoin:miter;stroke-miterlimit:4;stroke-dasharray:none;stroke-opacity:1"
       d="m 219.75582,501.52639 7.64625,0" />
    <path
       inkscape:connector-curvature="0"
       id="path3193"
       style="fill:none;stroke:#000000;stroke-width:1.14750004;stroke-linecap:butt;stroke-linejoin:miter;stroke-miterlimit:4;stroke-dasharray:none;stroke-opacity:1"
       d="m 752.01081,501.52639 -7.64625,0" />
    <path
       inkscape:connector-curvature="0"
       id="path3195"
       style="fill:none;stroke:#000000;stroke-width:1.14750004;stroke-linecap:butt;stroke-linejoin:miter;stroke-miterlimit:4;stroke-dasharray:none;stroke-opacity:1"
       d="m 219.75582,489.82139 7.64625,0" />
    <path
       inkscape:connector-curvature="0"
       id="path3197"
       style="fill:none;stroke:#000000;stroke-width:1.14750004;stroke-linecap:butt;stroke-linejoin:miter;stroke-miterlimit:4;stroke-dasharray:none;stroke-opacity:1"
       d="m 752.01081,489.82139 -7.64625,0" />
    <path
       inkscape:connector-curvature="0"
       id="path3199"
       style="fill:none;stroke:#000000;stroke-width:1.14750004;stroke-linecap:butt;stroke-linejoin:miter;stroke-miterlimit:4;stroke-dasharray:none;stroke-opacity:1"
       d="m 219.75582,412.84889 7.64625,0" />
    <path
       inkscape:connector-curvature="0"
       id="path3201"
       style="fill:none;stroke:#000000;stroke-width:1.14750004;stroke-linecap:butt;stroke-linejoin:miter;stroke-miterlimit:4;stroke-dasharray:none;stroke-opacity:1"
       d="m 752.01081,412.84889 -7.64625,0" />
    <path
       inkscape:connector-curvature="0"
       id="path3203"
       style="fill:none;stroke:#000000;stroke-width:1.14750004;stroke-linecap:butt;stroke-linejoin:miter;stroke-miterlimit:4;stroke-dasharray:none;stroke-opacity:1"
       d="m 219.75582,367.82014 7.64625,0" />
    <path
       inkscape:connector-curvature="0"
       id="path3205"
       style="fill:none;stroke:#000000;stroke-width:1.14750004;stroke-linecap:butt;stroke-linejoin:miter;stroke-miterlimit:4;stroke-dasharray:none;stroke-opacity:1"
       d="m 752.01081,367.82014 -7.64625,0" />
    <path
       inkscape:connector-curvature="0"
       id="path3207"
       style="fill:none;stroke:#000000;stroke-width:1.14750004;stroke-linecap:butt;stroke-linejoin:miter;stroke-miterlimit:4;stroke-dasharray:none;stroke-opacity:1"
       d="m 219.75582,335.87639 7.64625,0" />
    <path
       inkscape:connector-curvature="0"
       id="path3209"
       style="fill:none;stroke:#000000;stroke-width:1.14750004;stroke-linecap:butt;stroke-linejoin:miter;stroke-miterlimit:4;stroke-dasharray:none;stroke-opacity:1"
       d="m 752.01081,335.87639 -7.64625,0" />
    <path
       inkscape:connector-curvature="0"
       id="path3211"
       style="fill:none;stroke:#000000;stroke-width:1.14750004;stroke-linecap:butt;stroke-linejoin:miter;stroke-miterlimit:4;stroke-dasharray:none;stroke-opacity:1"
       d="m 219.75582,311.09639 7.64625,0" />
    <path
       inkscape:connector-curvature="0"
       id="path3213"
       style="fill:none;stroke:#000000;stroke-width:1.14750004;stroke-linecap:butt;stroke-linejoin:miter;stroke-miterlimit:4;stroke-dasharray:none;stroke-opacity:1"
       d="m 752.01081,311.09639 -7.64625,0" />
    <path
       inkscape:connector-curvature="0"
       id="path3215"
       style="fill:none;stroke:#000000;stroke-width:1.14750004;stroke-linecap:butt;stroke-linejoin:miter;stroke-miterlimit:4;stroke-dasharray:none;stroke-opacity:1"
       d="m 219.75582,290.84764 7.64625,0" />
    <path
       inkscape:connector-curvature="0"
       id="path3217"
       style="fill:none;stroke:#000000;stroke-width:1.14750004;stroke-linecap:butt;stroke-linejoin:miter;stroke-miterlimit:4;stroke-dasharray:none;stroke-opacity:1"
       d="m 752.01081,290.84764 -7.64625,0" />
    <path
       inkscape:connector-curvature="0"
       id="path3219"
       style="fill:none;stroke:#000000;stroke-width:1.14750004;stroke-linecap:butt;stroke-linejoin:miter;stroke-miterlimit:4;stroke-dasharray:none;stroke-opacity:1"
       d="m 219.75582,273.72764 7.64625,0" />
    <path
       inkscape:connector-curvature="0"
       id="path3221"
       style="fill:none;stroke:#000000;stroke-width:1.14750004;stroke-linecap:butt;stroke-linejoin:miter;stroke-miterlimit:4;stroke-dasharray:none;stroke-opacity:1"
       d="m 752.01081,273.72764 -7.64625,0" />
    <path
       inkscape:connector-curvature="0"
       id="path3223"
       style="fill:none;stroke:#000000;stroke-width:1.14750004;stroke-linecap:butt;stroke-linejoin:miter;stroke-miterlimit:4;stroke-dasharray:none;stroke-opacity:1"
       d="m 219.75582,258.89889 7.64625,0" />
    <path
       inkscape:connector-curvature="0"
       id="path3225"
       style="fill:none;stroke:#000000;stroke-width:1.14750004;stroke-linecap:butt;stroke-linejoin:miter;stroke-miterlimit:4;stroke-dasharray:none;stroke-opacity:1"
       d="m 752.01081,258.89889 -7.64625,0" />
    <path
       inkscape:connector-curvature="0"
       id="path3227"
       style="fill:none;stroke:#000000;stroke-width:1.14750004;stroke-linecap:butt;stroke-linejoin:miter;stroke-miterlimit:4;stroke-dasharray:none;stroke-opacity:1"
       d="m 219.75582,245.81764 7.64625,0" />
    <path
       inkscape:connector-curvature="0"
       id="path3229"
       style="fill:none;stroke:#000000;stroke-width:1.14750004;stroke-linecap:butt;stroke-linejoin:miter;stroke-miterlimit:4;stroke-dasharray:none;stroke-opacity:1"
       d="m 752.01081,245.81764 -7.64625,0" />
    <path
       inkscape:connector-curvature="0"
       id="path3231"
       style="fill:none;stroke:#000000;stroke-width:1.14750004;stroke-linecap:butt;stroke-linejoin:miter;stroke-miterlimit:4;stroke-dasharray:none;stroke-opacity:1"
       d="m 219.75582,234.11889 7.64625,0" />
    <path
       inkscape:connector-curvature="0"
       id="path3233"
       style="fill:none;stroke:#000000;stroke-width:1.14750004;stroke-linecap:butt;stroke-linejoin:miter;stroke-miterlimit:4;stroke-dasharray:none;stroke-opacity:1"
       d="m 752.01081,234.11889 -7.64625,0" />
    <path
       inkscape:connector-curvature="0"
       id="path3235"
       style="fill:none;stroke:#000000;stroke-width:1.14750004;stroke-linecap:butt;stroke-linejoin:miter;stroke-miterlimit:4;stroke-dasharray:none;stroke-opacity:1"
       d="m 219.75582,157.14639 7.64625,0" />
    <path
       inkscape:connector-curvature="0"
       id="path3237"
       style="fill:none;stroke:#000000;stroke-width:1.14750004;stroke-linecap:butt;stroke-linejoin:miter;stroke-miterlimit:4;stroke-dasharray:none;stroke-opacity:1"
       d="m 752.01081,157.14639 -7.64625,0" />
    <path
       inkscape:connector-curvature="0"
       id="path3239"
       style="fill:none;stroke:#000000;stroke-width:1.14750004;stroke-linecap:butt;stroke-linejoin:miter;stroke-miterlimit:4;stroke-dasharray:none;stroke-opacity:1"
       d="m 219.75582,745.52514 15.2975,0" />
    <path
       inkscape:connector-curvature="0"
       id="path3241"
       style="fill:none;stroke:#000000;stroke-width:1.14750004;stroke-linecap:butt;stroke-linejoin:miter;stroke-miterlimit:4;stroke-dasharray:none;stroke-opacity:1"
       d="m 752.01081,745.52514 -15.2975,0" />
    <path
       inkscape:connector-curvature="0"
       id="path3243"
       style="fill:none;stroke:#000000;stroke-width:1.14750004;stroke-linecap:butt;stroke-linejoin:miter;stroke-miterlimit:4;stroke-dasharray:none;stroke-opacity:1"
       d="m 219.75582,489.82139 15.2975,0" />
    <path
       inkscape:connector-curvature="0"
       id="path3245"
       style="fill:none;stroke:#000000;stroke-width:1.14750004;stroke-linecap:butt;stroke-linejoin:miter;stroke-miterlimit:4;stroke-dasharray:none;stroke-opacity:1"
       d="m 752.01081,489.82139 -15.2975,0" />
    <path
       inkscape:connector-curvature="0"
       id="path3247"
       style="fill:none;stroke:#000000;stroke-width:1.14750004;stroke-linecap:butt;stroke-linejoin:miter;stroke-miterlimit:4;stroke-dasharray:none;stroke-opacity:1"
       d="m 219.75582,234.11889 15.2975,0" />
    <path
       inkscape:connector-curvature="0"
       id="path3249"
       style="fill:none;stroke:#000000;stroke-width:1.14750004;stroke-linecap:butt;stroke-linejoin:miter;stroke-miterlimit:4;stroke-dasharray:none;stroke-opacity:1"
       d="m 752.01081,234.11889 -15.2975,0" />
    <text
       style="font-size:15px"
       id="text3251"
       x="177.10406"
       y="752.4024">
      <tspan
         id="tspan3253"
         sodipodi:role="line"
         y="752.4024"
         x="177.10406 189.0136 194.94693 206.85645"
         style="font-variant:normal;font-weight:normal;font-size:21.42000008px;font-family:Arial;-inkscape-font-specification:ArialMT;writing-mode:lr-tb;fill:#000000;fill-opacity:1;fill-rule:nonzero;stroke:none">0.01</tspan>
      <tspan
         id="tspan3255"
         sodipodi:role="line"
         y="496.69849"
         x="187.10406 199.01358 204.94691"
         style="font-variant:normal;font-weight:normal;font-size:21.42000008px;font-family:Arial;-inkscape-font-specification:ArialMT;writing-mode:lr-tb;fill:#000000;fill-opacity:1;fill-rule:nonzero;stroke:none">0.1</tspan>
      <tspan
         id="tspan3257"
         y="240.99461"
         x="203.35406"
         style="font-variant:normal;font-weight:normal;font-size:21.42000008px;font-family:Arial;-inkscape-font-specification:ArialMT;writing-mode:lr-tb;fill:#000000;fill-opacity:1;fill-rule:nonzero;stroke:none">1</tspan>
    </text>
    <path
       inkscape:connector-curvature="0"
       id="path3263"
       style="fill:none;stroke:#000000;stroke-width:1.14750004;stroke-linecap:butt;stroke-linejoin:miter;stroke-miterlimit:4;stroke-dasharray:none;stroke-opacity:1"
       d="m 219.75582,745.52514 0,-588.37875 532.25499,0 0,588.37875 -532.25499,0 z" />
    <text
       xml:space="preserve"
       style="font-style:normal;font-weight:normal;font-size:40px;line-height:125%;font-family:Sans;letter-spacing:0px;word-spacing:0px;fill:#000000;fill-opacity:1;stroke:none"
       x="-610.8717"
       y="168.06976"
       id="text4819"
       sodipodi:linespacing="125%"
       transform="matrix(0,-1,1,0,0,0)"><tspan
         sodipodi:role="line"
         x="-610.8717"
         y="168.06976"
         id="tspan4823">dσ/dΩ (mb/sr)</tspan></text>
    <rect
       style="fill:#ffffff;fill-opacity:1;stroke:none"
       id="rect4833"
       width="19.697975"
       height="23.738585"
       x="466.18539"
       y="775.07532" />
    <text
       xml:space="preserve"
       style="font-style:normal;font-weight:normal;font-size:40px;line-height:125%;font-family:Sans;letter-spacing:0px;word-spacing:0px;fill:#000000;fill-opacity:1;stroke:none"
       x="458.57144"
       y="803.79077"
       id="text4827"
       sodipodi:linespacing="125%"><tspan
         sodipodi:role="line"
         id="tspan4829"
         x="458.57144"
         y="803.79077"
         style="font-style:normal;font-variant:normal;font-weight:normal;font-stretch:normal;font-family:'Times New Roman';-inkscape-font-specification:'Times New Roman, '">θ<tspan
   style="font-style:normal;font-variant:normal;font-weight:normal;font-stretch:normal;font-size:65.00091553%;font-family:'Times New Roman';-inkscape-font-specification:'Times New Roman, ';baseline-shift:sub"
   id="tspan4831">CM</tspan></tspan><tspan
         sodipodi:role="line"
         x="458.57144"
         y="853.79077"
         id="tspan4642" /></text>
    <flowRoot
       xml:space="preserve"
       id="flowRoot4644"
       style="font-style:normal;font-variant:normal;font-weight:normal;font-stretch:normal;font-size:40px;line-height:125%;font-family:'Times New Roman';-inkscape-font-specification:'Times New Roman, ';letter-spacing:0px;word-spacing:0px;fill:#000000;fill-opacity:1;stroke:none;stroke-width:1px;stroke-linecap:butt;stroke-linejoin:miter;stroke-opacity:1"
       transform="translate(138.94867,150.81309)"><flowRegion
         id="flowRegion4646"><rect
           id="rect4648"
           width="44.446712"
           height="282.84271"
           x="-12.121831"
           y="176.42183"
           style="font-style:normal;font-variant:normal;font-weight:normal;font-stretch:normal;font-family:'Times New Roman';-inkscape-font-specification:'Times New Roman, '" /></flowRegion><flowPara
         id="flowPara4650"></flowPara></flowRoot>  </g>
</svg>
