<?xml version="1.0" encoding="UTF-8" standalone="no"?>
<!-- Created with Inkscape (http://www.inkscape.org/) -->

<svg
   xmlns:dc="http://purl.org/dc/elements/1.1/"
   xmlns:cc="http://creativecommons.org/ns#"
   xmlns:rdf="http://www.w3.org/1999/02/22-rdf-syntax-ns#"
   xmlns:svg="http://www.w3.org/2000/svg"
   xmlns="http://www.w3.org/2000/svg"
   xmlns:sodipodi="http://sodipodi.sourceforge.net/DTD/sodipodi-0.dtd"
   xmlns:inkscape="http://www.inkscape.org/namespaces/inkscape"
   width="1572.1531"
   height="533.41504"
   id="svg11449"
   version="1.1"
   inkscape:version="0.48.4 r9939"
   sodipodi:docname="New document 4">
  <defs
     id="defs11451" />
  <sodipodi:namedview
     id="base"
     pagecolor="#ffffff"
     bordercolor="#666666"
     borderopacity="1.0"
     inkscape:pageopacity="0.0"
     inkscape:pageshadow="2"
     inkscape:zoom="0.24748737"
     inkscape:cx="492.83573"
     inkscape:cy="495.07967"
     inkscape:document-units="px"
     inkscape:current-layer="layer1"
     showgrid="false"
     fit-margin-top="0"
     fit-margin-left="0"
     fit-margin-right="0"
     fit-margin-bottom="0"
     inkscape:window-width="1366"
     inkscape:window-height="706"
     inkscape:window-x="-8"
     inkscape:window-y="-8"
     inkscape:window-maximized="1" />
  <metadata
     id="metadata11454">
    <rdf:RDF>
      <cc:Work
         rdf:about="">
        <dc:format>image/svg+xml</dc:format>
        <dc:type
           rdf:resource="http://purl.org/dc/dcmitype/StillImage" />
        <dc:title></dc:title>
      </cc:Work>
    </rdf:RDF>
  </metadata>
  <g
     inkscape:label="Layer 1"
     inkscape:groupmode="layer"
     id="layer1"
     transform="translate(39.443686,-350.65272)">
    <g
       id="g12115"
       transform="translate(-118,97.442707)">
      <g
         id="g11480"
         transform="translate(-40.890493,19.628753)">
        <path
           style="fill:#ffffff;fill-opacity:1;stroke:#0d0000;stroke-width:3.49699998;stroke-miterlimit:4;stroke-opacity:1;stroke-dasharray:none"
           d="m 247.57112,444.162 c 0,66.08702 -58.04181,119.66112 -58.04181,119.66112 0,0 -58.04181,-53.5741 -58.04181,-119.66112 0,-66.08701 58.04181,-119.66111 58.04181,-119.66111 0,0 58.04181,53.5741 58.04181,119.66111"
           id="path4203"
           inkscape:connector-curvature="0"
           sodipodi:nodetypes="ccscc" />
        <g
           transform="matrix(0.69465416,0.04528402,0.06505123,-0.99788193,106.79264,702.84953)"
           id="g4232">
          <path
             style="fill:none;stroke:#000000;stroke-width:3.70000005;stroke-linecap:round;stroke-linejoin:miter;stroke-miterlimit:4;stroke-opacity:1;stroke-dasharray:none"
             d="m 163.64471,276.56503 14.03335,-24.30647"
             id="path4234"
             inkscape:connector-curvature="0" />
          <path
             inkscape:connector-curvature="0"
             id="path4236"
             d="M 191.67806,276.56503 177.64471,252.25856"
             style="fill:none;stroke:#000000;stroke-width:3.70000005;stroke-linecap:round;stroke-linejoin:miter;stroke-miterlimit:4;stroke-opacity:1;stroke-dasharray:none" />
        </g>
        <g
           id="g4238"
           transform="matrix(0.69524843,0.03499506,-0.05027097,0.99873562,21.119807,175.70089)">
          <path
             inkscape:connector-curvature="0"
             id="path4240"
             d="m 163.64471,276.56503 14.03335,-24.30647"
             style="fill:none;stroke:#000000;stroke-width:3.70000005;stroke-linecap:round;stroke-linejoin:miter;stroke-miterlimit:4;stroke-opacity:1;stroke-dasharray:none" />
          <path
             style="fill:none;stroke:#000000;stroke-width:3.70000005;stroke-linecap:round;stroke-linejoin:miter;stroke-miterlimit:4;stroke-opacity:1;stroke-dasharray:none"
             d="M 191.67806,276.56503 177.64471,252.25856"
             id="path4242"
             inkscape:connector-curvature="0" />
        </g>
      </g>
      <path
         inkscape:connector-curvature="0"
         style="fill:none;stroke:#000000;stroke-width:2.87400007;stroke-linecap:round;stroke-miterlimit:4;stroke-opacity:1;stroke-dasharray:none;stroke-dashoffset:0"
         d="m 149.00402,346.64607 c 0.1315,2.69941 -1.21051,5.3968 -3.16469,8.09326 -1.95417,2.69654 -4.38907,5.39235 -5.80252,8.08959 -1.41347,2.6973 -1.70382,5.39616 -0.62861,8.09692 1.07525,2.70085 3.46258,5.40352 5.8394,8.10622 2.37683,2.70267 4.60191,5.40515 5.45358,8.10569 0.85167,2.70039 0.27898,5.39889 -1.30004,8.09592 -1.57895,2.69705 -4.06063,5.39279 -5.91375,8.08941 -1.85316,2.69658 -2.95012,5.39429 -2.57558,8.09415 0.37453,2.69979 2.21154,5.40172 4.50935,8.10432 2.29776,2.70255 4.922,5.40562 6.41591,8.10696 1.49386,2.7014 1.76692,5.40111 0.7424,8.09891 -1.02449,2.69787 -3.27921,5.3939 -5.3641,8.09023 -2.08489,2.69625 -3.85965,5.39303 -4.21114,8.0918 -0.35149,2.69878 0.75683,5.39963 2.7489,8.10179 1.99209,2.70209 4.75472,5.40539 6.7483,8.10746 1.99358,2.70211 3.0978,5.40301 2.74889,8.1018 -0.34887,2.69878 -2.12667,5.39554 -4.21112,8.09176 -2.08448,2.69633 -4.33732,5.39243 -5.36411,8.09023 -1.02682,2.69781 -0.74934,5.39749 0.74241,8.09894 1.49175,2.70131 4.1174,5.40438 6.41591,8.10696 2.29851,2.70256 4.13216,5.4045 4.50934,8.10432 0.37719,2.69983 -0.72369,5.39756 -2.57559,8.09413 -1.85185,2.69663 -4.33306,5.39235 -5.91374,8.08941 -1.58067,2.69704 -2.14919,5.39549 -1.30003,8.09603 0.84912,2.70045 3.07687,5.40292 5.45356,8.1056 2.37668,2.70265 4.76175,5.40537 5.8394,8.10621 1.07766,2.70075 0.78291,5.39964 -0.62861,8.09693 -1.4115,2.69725 -3.84735,5.39308 -5.80252,8.08957 -1.95516,2.69648 -3.29623,5.39383 -3.16469,8.09325"
         title="t cos(11*t)"
         id="path11284" />
    </g>
    <g
       id="g12265"
       transform="translate(-65.441788,98.871279)">
      <path
         inkscape:connector-curvature="0"
         id="path11376"
         d="m 383.65675,575.20828 0,-215.36835"
         style="fill:none;stroke:#000000;stroke-width:3.54399991;stroke-linecap:butt;stroke-linejoin:miter;stroke-miterlimit:4;stroke-opacity:1;stroke-dasharray:none" />
      <g
         transform="matrix(0.66800054,0,0,0.66800054,127.12418,145.63346)"
         id="g12111">
        <path
           style="fill:none;stroke:#000000;stroke-width:4.33300018;stroke-linecap:round;stroke-linejoin:miter;stroke-miterlimit:4;stroke-opacity:1;stroke-dasharray:none"
           d="m 366.05482,486.69268 17.82436,-44.34913"
           id="path11402"
           inkscape:connector-curvature="0" />
        <path
           inkscape:connector-curvature="0"
           id="path11404"
           d="M 401.66118,486.69268 383.83682,442.34355"
           style="fill:none;stroke:#000000;stroke-width:4.33300018;stroke-linecap:round;stroke-linejoin:miter;stroke-miterlimit:4;stroke-opacity:1;stroke-dasharray:none" />
      </g>
      <g
         transform="translate(354.28571,-1.4285714)"
         id="g12126">
        <g
           id="g12128"
           transform="translate(-40.890493,19.628753)">
          <path
             style="fill:#ffffff;fill-opacity:1;stroke:#0d0000;stroke-width:3.49699998;stroke-miterlimit:4;stroke-opacity:1;stroke-dasharray:none"
             d="m 247.57112,444.162 c 0,66.08702 -58.04181,119.66112 -58.04181,119.66112 0,0 -58.04181,-53.5741 -58.04181,-119.66112 0,-66.08701 58.04181,-119.66111 58.04181,-119.66111 0,0 58.04181,53.5741 58.04181,119.66111"
             id="path12130"
             inkscape:connector-curvature="0"
             sodipodi:nodetypes="ccscc" />
          <g
             transform="matrix(0.69465416,0.04528402,0.06505123,-0.99788193,106.79264,702.84953)"
             id="g12132">
            <path
               style="fill:none;stroke:#000000;stroke-width:3.70000005;stroke-linecap:round;stroke-linejoin:miter;stroke-miterlimit:4;stroke-opacity:1;stroke-dasharray:none"
               d="m 163.64471,276.56503 14.03335,-24.30647"
               id="path12134"
               inkscape:connector-curvature="0" />
            <path
               inkscape:connector-curvature="0"
               id="path12136"
               d="M 191.67806,276.56503 177.64471,252.25856"
               style="fill:none;stroke:#000000;stroke-width:3.70000005;stroke-linecap:round;stroke-linejoin:miter;stroke-miterlimit:4;stroke-opacity:1;stroke-dasharray:none" />
          </g>
          <g
             id="g12138"
             transform="matrix(0.69524843,0.03499506,-0.05027097,0.99873562,21.119807,175.70089)">
            <path
               inkscape:connector-curvature="0"
               id="path12140"
               d="m 163.64471,276.56503 14.03335,-24.30647"
               style="fill:none;stroke:#000000;stroke-width:3.70000005;stroke-linecap:round;stroke-linejoin:miter;stroke-miterlimit:4;stroke-opacity:1;stroke-dasharray:none" />
            <path
               style="fill:none;stroke:#000000;stroke-width:3.70000005;stroke-linecap:round;stroke-linejoin:miter;stroke-miterlimit:4;stroke-opacity:1;stroke-dasharray:none"
               d="M 191.67806,276.56503 177.64471,252.25856"
               id="path12142"
               inkscape:connector-curvature="0" />
          </g>
        </g>
        <path
           inkscape:connector-curvature="0"
           style="fill:none;stroke:#000000;stroke-width:2.87400007;stroke-linecap:round;stroke-miterlimit:4;stroke-opacity:1;stroke-dasharray:none;stroke-dashoffset:0"
           d="m 149.00402,346.64607 c 0.1315,2.69941 -1.21051,5.3968 -3.16469,8.09326 -1.95417,2.69654 -4.38907,5.39235 -5.80252,8.08959 -1.41347,2.6973 -1.70382,5.39616 -0.62861,8.09692 1.07525,2.70085 3.46258,5.40352 5.8394,8.10622 2.37683,2.70267 4.60191,5.40515 5.45358,8.10569 0.85167,2.70039 0.27898,5.39889 -1.30004,8.09592 -1.57895,2.69705 -4.06063,5.39279 -5.91375,8.08941 -1.85316,2.69658 -2.95012,5.39429 -2.57558,8.09415 0.37453,2.69979 2.21154,5.40172 4.50935,8.10432 2.29776,2.70255 4.922,5.40562 6.41591,8.10696 1.49386,2.7014 1.76692,5.40111 0.7424,8.09891 -1.02449,2.69787 -3.27921,5.3939 -5.3641,8.09023 -2.08489,2.69625 -3.85965,5.39303 -4.21114,8.0918 -0.35149,2.69878 0.75683,5.39963 2.7489,8.10179 1.99209,2.70209 4.75472,5.40539 6.7483,8.10746 1.99358,2.70211 3.0978,5.40301 2.74889,8.1018 -0.34887,2.69878 -2.12667,5.39554 -4.21112,8.09176 -2.08448,2.69633 -4.33732,5.39243 -5.36411,8.09023 -1.02682,2.69781 -0.74934,5.39749 0.74241,8.09894 1.49175,2.70131 4.1174,5.40438 6.41591,8.10696 2.29851,2.70256 4.13216,5.4045 4.50934,8.10432 0.37719,2.69983 -0.72369,5.39756 -2.57559,8.09413 -1.85185,2.69663 -4.33306,5.39235 -5.91374,8.08941 -1.58067,2.69704 -2.14919,5.39549 -1.30003,8.09603 0.84912,2.70045 3.07687,5.40292 5.45356,8.1056 2.37668,2.70265 4.76175,5.40537 5.8394,8.10621 1.07766,2.70075 0.78291,5.39964 -0.62861,8.09693 -1.4115,2.69725 -3.84735,5.39308 -5.80252,8.08957 -1.95516,2.69648 -3.29623,5.39383 -3.16469,8.09325"
           title="t cos(11*t)"
           id="path12144" />
      </g>
    </g>
    <g
       id="g12216"
       transform="translate(1.5258789e-5,-9.7001446)">
      <path
         id="path4660-1"
         title="cos(t)*(7+sin(9*t)) sin(t)*(7+sin(9*t))"
         d="m 1106.2506,661.23809 c 3.4909,4.1302 7.5339,8.01822 11.6864,9.936 4.1525,1.91779 8.3454,1.78784 11.8501,-0.48548 3.5048,-2.27333 6.2643,-6.63899 8.2748,-11.51841 2.0106,-4.87947 3.2993,-10.1477 4.7877,-14.08681 1.4884,-3.93908 3.2666,-6.47455 6.2089,-7.32626 2.9424,-0.85171 7.1031,-0.0642 12.1792,1.09236 5.076,1.15643 11.0157,2.57042 16.3814,2.76902 5.3657,0.1986 10.0417,-0.8831 12.8106,-3.53462 2.769,-2.65149 3.569,-6.83443 2.7416,-11.56803 -0.8274,-4.73359 -3.2191,-9.92813 -5.4163,-14.47095 -2.1972,-4.54286 -4.0671,-8.39102 -4.0702,-11.37434 0,-2.98332 1.9315,-5.14417 5.5614,-7.18728 3.6299,-2.04311 8.8875,-4.03957 13.8639,-6.59391 4.9763,-2.55433 9.5265,-5.68308 11.8404,-9.1907 2.3139,-3.50761 2.3096,-7.34037 0,-10.84863 -2.3097,-3.50822 -6.8648,-6.63535 -11.8404,-9.19073 -4.9757,-2.55535 -10.2309,-4.55095 -13.8639,-6.59388 -3.633,-2.04295 -5.5608,-4.20551 -5.5614,-7.18727 -6e-4,-2.9818 1.8734,-6.83273 4.0702,-11.37434 2.1968,-4.54166 4.5859,-9.73637 5.4163,-14.47098 0.8304,-4.73459 0.024,-8.9136 -2.7416,-11.56801 -2.7653,-2.65438 -7.4462,-3.73091 -12.8106,-3.53462 -5.3645,0.19629 -11.3039,1.61199 -16.3814,2.76903 -5.0777,1.15704 -9.2346,1.94096 -12.1792,1.09235 -2.9445,-0.84863 -4.7201,-3.38966 -6.2089,-7.32629 -1.4888,-3.93659 -2.7785,-9.20643 -4.7877,-14.08677 -2.0091,-4.88034 -4.7713,-9.24111 -8.2748,-11.51841 -3.5034,-2.27728 -7.6975,-2.39952 -11.8501,-0.48551 -4.1525,1.91405 -8.1955,5.80582 -11.6864,9.93602"
         style="fill:#ffffff;fill-opacity:1;stroke:#0d0000;stroke-width:2.39007425;stroke-linecap:round;stroke-miterlimit:4;stroke-opacity:1;stroke-dasharray:none;stroke-dashoffset:0"
         inkscape:connector-curvature="0" />
      <path
         style="fill:none;stroke:#000000;stroke-width:2.66255832;stroke-linecap:butt;stroke-linejoin:miter;stroke-miterlimit:4;stroke-opacity:1;stroke-dasharray:none"
         d="m 1106.2144,780.18308 0,-418.49894"
         id="path4258"
         inkscape:connector-curvature="0" />
      <g
         id="g4260"
         transform="matrix(0.60217119,0,0,0.86502864,999.19942,180.87003)">
        <path
           inkscape:connector-curvature="0"
           id="path4262"
           d="m 163.64471,276.56503 14.03335,-24.30647"
           style="fill:none;stroke:#000000;stroke-width:3.70000005;stroke-linecap:round;stroke-linejoin:miter;stroke-miterlimit:4;stroke-opacity:1;stroke-dasharray:none" />
        <path
           style="fill:none;stroke:#000000;stroke-width:3.70000005;stroke-linecap:round;stroke-linejoin:miter;stroke-miterlimit:4;stroke-opacity:1;stroke-dasharray:none"
           d="M 191.67806,276.56503 177.64471,252.25856"
           id="path4264"
           inkscape:connector-curvature="0" />
      </g>
      <g
         transform="matrix(0.60217119,0,0,0.86502864,999.19942,346.95553)"
         id="g4266">
        <path
           style="fill:none;stroke:#000000;stroke-width:3.70000005;stroke-linecap:round;stroke-linejoin:miter;stroke-miterlimit:4;stroke-opacity:1;stroke-dasharray:none"
           d="m 163.64471,276.56503 14.03335,-24.30647"
           id="path4268"
           inkscape:connector-curvature="0" />
        <path
           inkscape:connector-curvature="0"
           id="path4270"
           d="M 191.67806,276.56503 177.64471,252.25856"
           style="fill:none;stroke:#000000;stroke-width:3.70000005;stroke-linecap:round;stroke-linejoin:miter;stroke-miterlimit:4;stroke-opacity:1;stroke-dasharray:none" />
      </g>
      <g
         id="g4272"
         transform="matrix(0.60217119,0,0,0.86502864,999.19942,497.47051)">
        <path
           inkscape:connector-curvature="0"
           id="path4274"
           d="m 163.64471,276.56503 14.03335,-24.30647"
           style="fill:none;stroke:#000000;stroke-width:3.70000005;stroke-linecap:round;stroke-linejoin:miter;stroke-miterlimit:4;stroke-opacity:1;stroke-dasharray:none" />
        <path
           style="fill:none;stroke:#000000;stroke-width:3.70000005;stroke-linecap:round;stroke-linejoin:miter;stroke-miterlimit:4;stroke-opacity:1;stroke-dasharray:none"
           d="M 191.67806,276.56503 177.64471,252.25856"
           id="path4276"
           inkscape:connector-curvature="0" />
      </g>
    </g>
    <g
       id="g12251"
       transform="translate(1.8515167,84.373886)">
      <g
         id="g12229">
        <path
           inkscape:connector-curvature="0"
           style="fill:#ffffff;fill-opacity:1;stroke:#0d0000;stroke-width:2.28689075;stroke-linecap:round;stroke-miterlimit:4;stroke-opacity:1;stroke-dasharray:none;stroke-dashoffset:0"
           d="m 795.00807,591.14533 c 3.11697,5.30581 6.72701,10.30048 10.43471,12.76413 3.70769,2.46366 7.45144,2.2967 10.58081,-0.62368 3.12937,-2.92038 5.59333,-8.52866 7.3885,-14.79694 1.79516,-6.26833 2.94588,-13.03606 4.27481,-18.09639 1.32893,-5.06026 2.91673,-8.31743 5.54392,-9.41155 2.62721,-1.09414 6.34226,-0.0825 10.87458,1.40327 4.53231,1.48559 9.83586,3.30205 14.62679,3.55719 4.79094,0.25512 8.96611,-1.13447 11.4385,-4.54071 2.47237,-3.40618 3.18668,-8.77973 2.44789,-14.86068 -0.73879,-6.08093 -2.87424,-12.754 -4.83613,-18.58988 -1.96189,-5.8359 -3.63153,-10.77939 -3.63418,-14.61187 -0.002,-3.83248 1.72452,-6.60837 4.96565,-9.23301 3.24113,-2.62465 7.93562,-5.18937 12.37893,-8.47075 4.44332,-3.28141 8.50606,-7.30071 10.57213,-11.80669 2.06608,-4.506 2.0623,-9.42971 0,-13.93652 -2.06227,-4.50678 -6.12944,-8.52402 -10.57213,-11.80674 -4.44269,-3.28268 -9.13507,-5.84631 -12.37893,-8.47073 -3.24385,-2.62443 -4.96516,-5.40253 -4.96565,-9.23302 -5.7e-4,-3.83052 1.67273,-8.77754 3.63418,-14.61186 1.96146,-5.83436 4.09469,-12.50766 4.83613,-18.58991 0.74142,-6.08221 0.0213,-11.45073 -2.44789,-14.86065 -2.46914,-3.40993 -6.64865,-4.79287 -11.4385,-4.54069 -4.78984,0.25217 -10.09306,2.07082 -14.62679,3.55718 -4.53376,1.48638 -8.24542,2.49342 -10.87458,1.40328 -2.62915,-1.0902 -4.21456,-4.35448 -5.54392,-9.41161 -1.32936,-5.05709 -2.48083,-11.82689 -4.27481,-18.09635 -1.79399,-6.26944 -4.26031,-11.87145 -7.3885,-14.79694 -3.12819,-2.92548 -6.87303,-3.08251 -10.58081,-0.62369 -3.70779,2.45884 -7.31774,7.45835 -10.43471,12.76413"
           title="cos(t)*(7+sin(9*t)) sin(t)*(7+sin(9*t))"
           id="path4660" />
        <path
           style="fill:none;stroke:#000000;stroke-width:2.63316202;stroke-linecap:round;stroke-linejoin:miter;stroke-miterlimit:4;stroke-opacity:1;stroke-dasharray:none"
           d="m 668.82345,582.04928 125.94411,-218.1416 0,225.7412 L 666.09501,366.7815"
           id="path12148"
           inkscape:connector-curvature="0" />
      </g>
      <g
         id="g12233"
         transform="matrix(0.58093264,0.3297605,-0.3297605,0.58093264,627.72139,135.34648)">
        <path
           inkscape:connector-curvature="0"
           id="path12235"
           d="m 366.05482,486.69268 17.82436,-44.34913"
           style="fill:none;stroke:#000000;stroke-width:4.33300018;stroke-linecap:round;stroke-linejoin:miter;stroke-miterlimit:4;stroke-opacity:1;stroke-dasharray:none" />
        <path
           style="fill:none;stroke:#000000;stroke-width:4.33300018;stroke-linecap:round;stroke-linejoin:miter;stroke-miterlimit:4;stroke-opacity:1;stroke-dasharray:none"
           d="M 401.66118,486.69268 383.83682,442.34355"
           id="path12237"
           inkscape:connector-curvature="0" />
      </g>
      <g
         transform="matrix(0.59205445,-0.3093481,0.3093481,0.59205445,327.16047,266.14304)"
         id="g12239">
        <path
           style="fill:none;stroke:#000000;stroke-width:4.33300018;stroke-linecap:round;stroke-linejoin:miter;stroke-miterlimit:4;stroke-opacity:1;stroke-dasharray:none"
           d="m 366.05482,486.69268 17.82436,-44.34913"
           id="path12241"
           inkscape:connector-curvature="0" />
        <path
           inkscape:connector-curvature="0"
           id="path12243"
           d="M 401.66118,486.69268 383.83682,442.34355"
           style="fill:none;stroke:#000000;stroke-width:4.33300018;stroke-linecap:round;stroke-linejoin:miter;stroke-miterlimit:4;stroke-opacity:1;stroke-dasharray:none" />
      </g>
      <g
         id="g12245"
         transform="matrix(0.66800054,0,0,-0.66800054,538.75219,786.04453)">
        <path
           inkscape:connector-curvature="0"
           id="path12247"
           d="m 366.05482,486.69268 17.82436,-44.34913"
           style="fill:none;stroke:#000000;stroke-width:4.33300018;stroke-linecap:round;stroke-linejoin:miter;stroke-miterlimit:4;stroke-opacity:1;stroke-dasharray:none" />
        <path
           style="fill:none;stroke:#000000;stroke-width:4.33300018;stroke-linecap:round;stroke-linejoin:miter;stroke-miterlimit:4;stroke-opacity:1;stroke-dasharray:none"
           d="M 401.66118,486.69268 383.83682,442.34355"
           id="path12249"
           inkscape:connector-curvature="0" />
      </g>
    </g>
    <flowRoot
       xml:space="preserve"
       id="flowRoot12281"
       style="font-size:48px;font-style:normal;font-weight:normal;line-height:125%;letter-spacing:0px;word-spacing:0px;fill:#000000;fill-opacity:1;stroke:none;font-family:Sans"
       transform="translate(32.324881,0)"><flowRegion
         id="flowRegion12283"><rect
           id="rect12285"
           width="125.25892"
           height="56.568542"
           x="-42.426407"
           y="692.74786" /></flowRegion><flowPara
         id="flowPara12287">ZPF</flowPara></flowRoot>    <text
       xml:space="preserve"
       style="font-size:48px;font-style:normal;font-weight:normal;line-height:125%;letter-spacing:0px;word-spacing:0px;fill:#000000;fill-opacity:1;stroke:none;font-family:Sans"
       x="296.98486"
       y="731.13367"
       id="text12289"
       sodipodi:linespacing="125%"><tspan
         sodipodi:role="line"
         id="tspan12291"
         x="296.98486"
         y="731.13367">H</tspan></text>
    <text
       xml:space="preserve"
       style="font-size:48px;font-style:normal;font-weight:normal;line-height:125%;letter-spacing:0px;word-spacing:0px;fill:#000000;fill-opacity:1;stroke:none;font-family:Sans"
       x="400.02039"
       y="731.13367"
       id="text12293"
       sodipodi:linespacing="125%"><tspan
         sodipodi:role="line"
         id="tspan12295"
         x="400.02039"
         y="731.13367">ZPF</tspan></text>
    <text
       xml:space="preserve"
       style="font-size:48px;font-style:normal;font-weight:normal;line-height:125%;letter-spacing:0px;word-spacing:0px;fill:#000000;fill-opacity:1;stroke:none;font-family:Sans"
       x="757.61444"
       y="747.29608"
       id="text12297"
       sodipodi:linespacing="125%"><tspan
         sodipodi:role="line"
         id="tspan12299"
         x="757.61444"
         y="747.29608">Pauli</tspan></text>
    <text
       xml:space="preserve"
       style="font-size:48px;font-style:normal;font-weight:normal;line-height:125%;letter-spacing:0px;word-spacing:0px;fill:#000000;fill-opacity:1;stroke:none;font-family:Sans"
       x="1020.254"
       y="813.96619"
       id="text12301"
       sodipodi:linespacing="125%"><tspan
         sodipodi:role="line"
         id="tspan12303"
         x="1020.254"
         y="813.96619">   time </tspan><tspan
         sodipodi:role="line"
         x="1020.254"
         y="873.96619"
         id="tspan12305">ordering</tspan></text>
    <g
       id="g12385"
       transform="translate(20.203051,-149.50258)">
      <path
         inkscape:connector-curvature="0"
         style="fill:none;stroke:#000000;stroke-width:1.58846903;stroke-linecap:round;stroke-miterlimit:4;stroke-opacity:1;stroke-dasharray:none;stroke-dashoffset:0"
         d="m 1360.0734,828.01352 c -10e-4,1.03325 -1.5898,2.06654 -3.8373,3.09981 -2.2476,1.03329 -5.0128,2.06657 -6.6781,3.09984 -1.6652,1.03329 -2.121,2.06656 -1.1062,3.09982 1.0148,1.03328 3.4426,2.06655 5.8591,3.09984 2.4165,1.03327 4.6695,2.06655 5.4436,3.09984 0.7741,1.03324 0.014,2.06653 -1.8293,3.0998 -1.8435,1.03329 -4.6591,2.06657 -6.7978,3.09984 -2.1388,1.03326 -3.4632,2.06653 -3.203,3.09982 0.2602,1.03327 2.0954,2.06655 4.4268,3.09984 2.3314,1.03327 5.0143,2.06656 6.48,3.09981 1.4656,1.03327 1.6165,2.06656 0.3701,3.09983 -1.2463,1.03329 -3.8175,2.06656 -6.2059,3.09984 -2.3883,1.03326 -4.4426,2.06655 -4.9642,3.09982 -0.5217,1.03328 0.5288,2.06655 2.5309,3.09984 2.0022,1.03326 4.8341,2.06656 6.8379,3.09981 2.0038,1.03327 3.0498,2.06656 2.531,3.09984 -0.5188,1.03328 -2.5765,2.06656 -4.9643,3.09981 -2.3879,1.03328 -4.957,2.06657 -6.2059,3.09984 -1.2489,1.03328 -1.0932,2.06655 0.3702,3.09984 1.4633,1.03324 4.1478,2.06653 6.48,3.09981 2.3321,1.03327 4.1636,2.06656 4.4267,3.09984 0.2631,1.03328 -1.0655,2.06656 -3.2029,3.09981 -2.1374,1.03328 -4.9525,2.06655 -6.7978,3.09984 -1.8454,1.03328 -2.6007,2.06655 -1.8294,3.09984 0.7714,1.03326 3.0273,2.06654 5.4436,3.09981 2.4164,1.03327 4.8417,2.06656 5.8591,3.09984 1.0175,1.03325 0.557,2.06653 -1.1062,3.09982 -1.6632,1.03327 -4.4294,2.06656 -6.678,3.09984 -2.2487,1.03327 -3.8359,2.06654 -3.8374,3.0998"
         title="t cos(11*t)"
         id="path11284-7" />
      <text
         sodipodi:linespacing="125%"
         id="text11358"
         y="631.70465"
         x="1388.8712"
         style="font-size:29.38086319px;font-style:normal;font-weight:normal;line-height:125%;letter-spacing:0px;word-spacing:0px;fill:#000000;fill-opacity:1;stroke:none;font-family:Sans"
         xml:space="preserve"><tspan
           y="631.70465"
           x="1388.8712"
           id="tspan11360"
           sodipodi:role="line"> e<tspan
   id="tspan11362"
   style="font-size:19.09782982px;baseline-shift:super">-</tspan></tspan></text>
      <text
         sodipodi:linespacing="125%"
         id="text11364"
         y="752.68634"
         x="1397.616"
         style="font-size:29.38086319px;font-style:normal;font-weight:normal;line-height:125%;letter-spacing:0px;word-spacing:0px;fill:#000000;fill-opacity:1;stroke:none;font-family:Sans"
         xml:space="preserve"><tspan
           y="752.68634"
           x="1397.616"
           id="tspan11366"
           sodipodi:role="line">e<tspan
   id="tspan11422"
   style="font-size:19.09782982px;baseline-shift:super">+</tspan></tspan><tspan
           id="tspan11370"
           y="789.41241"
           x="1397.616"
           sodipodi:role="line" /></text>
      <text
         sodipodi:linespacing="125%"
         id="text11372"
         y="879.41663"
         x="1395.4081"
         style="font-size:29.38086319px;font-style:normal;font-weight:normal;line-height:125%;letter-spacing:0px;word-spacing:0px;fill:#000000;fill-opacity:1;stroke:none;font-family:Sans"
         xml:space="preserve"><tspan
           y="879.41663"
           x="1395.4081"
           id="tspan11374"
           sodipodi:role="line">photon</tspan></text>
      <g
         transform="matrix(1.3354938,0,0,1.3354938,247.3471,429.65679)"
         id="g11406">
        <path
           style="fill:none;stroke:#000000;stroke-width:1.60000002;stroke-linecap:butt;stroke-linejoin:miter;stroke-miterlimit:4;stroke-opacity:1;stroke-dasharray:none"
           d="m 828.57143,179.50504 0,-65.71429"
           id="path11376-4"
           inkscape:connector-curvature="0" />
        <g
           id="g11400"
           transform="matrix(0.38755256,0,0,0.55672552,759.77971,-1.474103)">
          <path
             inkscape:connector-curvature="0"
             id="path11402-0"
             d="m 163.64471,276.56503 14.03335,-24.30647"
             style="fill:none;stroke:#000000;stroke-width:3.70000005;stroke-linecap:round;stroke-linejoin:miter;stroke-miterlimit:4;stroke-opacity:1;stroke-dasharray:none" />
          <path
             style="fill:none;stroke:#000000;stroke-width:3.70000005;stroke-linecap:round;stroke-linejoin:miter;stroke-miterlimit:4;stroke-opacity:1;stroke-dasharray:none"
             d="M 191.67806,276.56503 177.64471,252.25856"
             id="path11404-9"
             inkscape:connector-curvature="0" />
        </g>
      </g>
      <g
         transform="matrix(1.3354938,0,0,-1.3354938,247.3471,944.4077)"
         id="g11412">
        <path
           inkscape:connector-curvature="0"
           id="path11414"
           d="m 828.57143,179.50504 0,-65.71429"
           style="fill:none;stroke:#000000;stroke-width:1.60000002;stroke-linecap:butt;stroke-linejoin:miter;stroke-miterlimit:4;stroke-opacity:1;stroke-dasharray:none" />
        <g
           transform="matrix(0.38755256,0,0,0.55672552,759.77971,-1.474103)"
           id="g11416">
          <path
             style="fill:none;stroke:#000000;stroke-width:3.70000005;stroke-linecap:round;stroke-linejoin:miter;stroke-miterlimit:4;stroke-opacity:1;stroke-dasharray:none"
             d="m 163.64471,276.56503 14.03335,-24.30647"
             id="path11418"
             inkscape:connector-curvature="0" />
          <path
             inkscape:connector-curvature="0"
             id="path11420"
             d="M 191.67806,276.56503 177.64471,252.25856"
             style="fill:none;stroke:#000000;stroke-width:3.70000005;stroke-linecap:round;stroke-linejoin:miter;stroke-miterlimit:4;stroke-opacity:1;stroke-dasharray:none" />
        </g>
      </g>
      <rect
         y="555.6142"
         x="1294.8843"
         height="376.35306"
         width="216.80717"
         id="rect11424"
         style="fill:none;stroke:#000000;stroke-width:1.62984383;stroke-linecap:round;stroke-miterlimit:4;stroke-opacity:1;stroke-dasharray:none;stroke-dashoffset:0" />
    </g>
  </g>
</svg>
