<?xml version="1.0" encoding="UTF-8" standalone="no"?>
<svg
   xmlns:dc="http://purl.org/dc/elements/1.1/"
   xmlns:cc="http://creativecommons.org/ns#"
   xmlns:rdf="http://www.w3.org/1999/02/22-rdf-syntax-ns#"
   xmlns:svg="http://www.w3.org/2000/svg"
   xmlns="http://www.w3.org/2000/svg"
   xmlns:sodipodi="http://sodipodi.sourceforge.net/DTD/sodipodi-0.dtd"
   xmlns:inkscape="http://www.inkscape.org/namespaces/inkscape"
   version="1.1"
   id="svg5171"
   xml:space="preserve"
   width="691.83063"
   height="285.38995"
   viewBox="0 0 691.83063 285.38996"
   sodipodi:docname="fig6_C1xx.svg"
   inkscape:version="1.0.1 (1.0.1+r73)"><metadata
     id="metadata5177"><rdf:RDF><cc:Work
         rdf:about=""><dc:format>image/svg+xml</dc:format><dc:type
           rdf:resource="http://purl.org/dc/dcmitype/StillImage" /><dc:title></dc:title></cc:Work></rdf:RDF></metadata><defs
     id="defs5175"><clipPath
       clipPathUnits="userSpaceOnUse"
       id="clipPath5217"><path
         d="m 171.047,28.551 c -1.313,-0.387 -2.344,-0.582 -3.09,-0.594 -0.328,-0.008 -0.582,0.023 -0.769,0.086 -0.118,0.039 -0.188,0.082 -0.223,0.136 -0.031,0.051 -0.043,0.129 -0.027,0.254 0.019,0.196 0.101,0.442 0.242,0.735 0.324,0.676 0.933,1.527 1.836,2.558 0.968,1.106 1.703,1.914 2.172,2.52 0.261,0.336 0.453,0.625 0.57,0.879 0.164,0.367 0.195,0.719 0.078,1.023 -0.117,0.301 -0.375,0.543 -0.746,0.703 -0.254,0.11 -0.59,0.2 -1.012,0.274 -0.754,0.133 -1.84,0.238 -3.301,0.41 -1.359,0.156 -2.382,0.383 -3.078,0.664 -0.301,0.121 -0.527,0.25 -0.672,0.383 -0.093,0.082 -0.14,0.144 -0.148,0.207 -0.012,0.062 0.012,0.14 0.07,0.246 0.098,0.176 0.27,0.367 0.512,0.582 0.562,0.492 1.461,1.039 2.695,1.633 1.321,0.636 2.317,1.094 2.985,1.465 0.375,0.211 0.664,0.398 0.867,0.589 0.297,0.27 0.461,0.582 0.472,0.907 0.012,0.324 -0.128,0.648 -0.406,0.941 -0.191,0.203 -0.469,0.414 -0.824,0.645 -0.641,0.422 -1.602,0.945 -2.875,1.672 -1.191,0.679 -2.047,1.289 -2.57,1.82 -0.231,0.23 -0.387,0.437 -0.473,0.617 -0.051,0.109 -0.07,0.188 -0.055,0.25 0.016,0.063 0.067,0.121 0.164,0.199 0.157,0.121 0.391,0.231 0.7,0.332 0.711,0.235 1.75,0.383 3.117,0.446 1.465,0.066 2.558,0.097 3.32,0.179 0.426,0.043 0.766,0.106 1.027,0.199 0.383,0.133 0.657,0.356 0.793,0.649 0.137,0.293 0.137,0.648 -0.007,1.027 -0.094,0.258 -0.266,0.563 -0.504,0.918 -0.426,0.633 -1.102,1.496 -1.989,2.664 -0.828,1.094 -1.375,1.985 -1.652,2.68 -0.121,0.305 -0.183,0.555 -0.191,0.75 -0.004,0.125 0.011,0.203 0.05,0.254 0.036,0.051 0.106,0.086 0.227,0.117 0.191,0.051 0.449,0.063 0.773,0.035 0.747,-0.066 1.758,-0.332 3.043,-0.812 1.375,-0.516 2.391,-0.914 3.125,-1.141 0.407,-0.125 0.747,-0.199 1.024,-0.219 0.402,-0.027 0.742,0.071 0.984,0.289 0.242,0.215 0.375,0.539 0.395,0.946 0.012,0.277 -0.024,0.621 -0.102,1.043 -0.144,0.75 -0.429,1.804 -0.785,3.23 -0.336,1.328 -0.488,2.367 -0.469,3.113 0.008,0.329 0.047,0.582 0.118,0.766 0.046,0.113 0.089,0.18 0.144,0.215 0.055,0.031 0.133,0.035 0.258,0.019 0.195,-0.031 0.433,-0.121 0.723,-0.273 0.66,-0.352 1.488,-0.996 2.48,-1.941 1.062,-1.012 1.844,-1.782 2.426,-2.274 0.328,-0.277 0.609,-0.476 0.859,-0.605 0.36,-0.18 0.707,-0.223 1.016,-0.117 0.308,0.101 0.558,0.347 0.734,0.71 0.121,0.254 0.223,0.582 0.313,1 0.164,0.75 0.316,1.832 0.547,3.282 0.214,1.355 0.48,2.367 0.789,3.047 0.136,0.296 0.273,0.519 0.41,0.66 0.086,0.09 0.152,0.133 0.215,0.14 0.066,0.008 0.14,-0.019 0.246,-0.082 0.168,-0.105 0.355,-0.281 0.558,-0.535 0.469,-0.582 0.977,-1.5 1.52,-2.758 0.582,-1.347 0.996,-2.359 1.34,-3.043 0.195,-0.382 0.375,-0.679 0.554,-0.894 0.258,-0.309 0.563,-0.485 0.887,-0.508 0.324,-0.027 0.652,0.102 0.957,0.367 0.207,0.184 0.43,0.449 0.68,0.797 0.445,0.625 1.008,1.563 1.789,2.805 0.726,1.16 1.371,1.992 1.922,2.496 0.242,0.219 0.453,0.367 0.633,0.441 0.117,0.047 0.191,0.063 0.253,0.047 0.063,-0.019 0.122,-0.074 0.192,-0.172 0.117,-0.16 0.219,-0.398 0.305,-0.715 0.203,-0.718 0.312,-1.761 0.32,-3.132 0.004,-1.465 -0.012,-2.559 0.039,-3.325 0.027,-0.425 0.074,-0.769 0.156,-1.035 0.117,-0.386 0.328,-0.668 0.617,-0.816 0.289,-0.152 0.641,-0.164 1.024,-0.039 0.265,0.086 0.574,0.246 0.941,0.469 0.653,0.398 1.535,1.039 2.742,1.878 1.125,0.782 2.043,1.293 2.746,1.54 0.309,0.109 0.563,0.16 0.758,0.16 0.125,0 0.203,-0.02 0.25,-0.059 0.051,-0.043 0.086,-0.113 0.11,-0.234 0.043,-0.192 0.043,-0.45 0.004,-0.774 -0.098,-0.742 -0.407,-1.742 -0.938,-3.008 -0.57,-1.351 -1.012,-2.351 -1.266,-3.074 -0.144,-0.402 -0.234,-0.738 -0.265,-1.015 -0.039,-0.403 0.043,-0.743 0.25,-0.993 0.207,-0.25 0.523,-0.398 0.926,-0.433 0.277,-0.028 0.625,-0.004 1.046,0.058 0.758,0.114 1.825,0.356 3.262,0.653 1.344,0.277 2.387,0.39 3.129,0.34 0.328,-0.02 0.582,-0.071 0.762,-0.153 0.113,-0.047 0.176,-0.093 0.207,-0.148 0.031,-0.059 0.031,-0.137 0.008,-0.258 -0.036,-0.195 -0.137,-0.434 -0.301,-0.715 -0.379,-0.644 -1.059,-1.445 -2.039,-2.398 l -0.481,-0.461 0.926,-0.957 0.481,0.465 c 1.066,1.035 1.82,1.929 2.261,2.679 0.242,0.414 0.395,0.793 0.461,1.141 0.078,0.418 0.031,0.801 -0.14,1.125 -0.172,0.324 -0.461,0.578 -0.852,0.75 -0.324,0.141 -0.727,0.226 -1.203,0.258 -0.863,0.054 -2.031,-0.063 -3.488,-0.367 -1.411,-0.293 -2.453,-0.528 -3.184,-0.637 -0.32,-0.047 -0.562,-0.067 -0.738,-0.051 -0.047,0.004 -0.039,-0.019 -0.016,-0.047 0.02,-0.023 0.043,-0.039 0.047,0.008 0.02,0.176 0.086,0.41 0.195,0.715 0.246,0.695 0.68,1.672 1.239,3 0.578,1.371 0.918,2.492 1.031,3.351 0.058,0.477 0.051,0.887 -0.024,1.231 -0.089,0.418 -0.285,0.75 -0.57,0.98 -0.285,0.235 -0.652,0.356 -1.078,0.356 -0.352,0.004 -0.754,-0.074 -1.207,-0.235 -0.82,-0.285 -1.844,-0.851 -3.066,-1.703 -1.184,-0.82 -2.051,-1.449 -2.68,-1.832 -0.277,-0.172 -0.492,-0.285 -0.656,-0.34 -0.047,-0.011 -0.028,-0.031 0,-0.046 0.031,-0.016 0.054,-0.02 0.043,0.023 -0.051,0.168 -0.082,0.41 -0.102,0.734 -0.047,0.739 -0.031,1.805 -0.039,3.246 -0.008,1.489 -0.133,2.653 -0.367,3.489 -0.129,0.461 -0.297,0.836 -0.5,1.121 -0.25,0.347 -0.559,0.578 -0.91,0.68 -0.356,0.101 -0.739,0.07 -1.133,-0.098 -0.324,-0.133 -0.664,-0.363 -1.02,-0.688 -0.64,-0.586 -1.359,-1.507 -2.152,-2.769 -0.766,-1.219 -1.316,-2.137 -1.742,-2.738 -0.188,-0.262 -0.344,-0.454 -0.473,-0.567 -0.035,-0.031 -0.012,-0.043 0.02,-0.047 0.031,0 0.058,0.008 0.027,0.043 -0.113,0.133 -0.234,0.344 -0.379,0.633 -0.332,0.66 -0.738,1.648 -1.309,2.973 -0.589,1.363 -1.164,2.386 -1.707,3.062 -0.3,0.375 -0.601,0.653 -0.902,0.836 -0.363,0.223 -0.738,0.313 -1.101,0.27 -0.364,-0.047 -0.708,-0.227 -1.004,-0.535 -0.246,-0.25 -0.469,-0.594 -0.668,-1.032 -0.36,-0.789 -0.661,-1.922 -0.891,-3.39 -0.227,-1.426 -0.375,-2.485 -0.531,-3.207 -0.071,-0.313 -0.137,-0.551 -0.215,-0.707 -0.02,-0.039 0.008,-0.043 0.039,-0.032 0.027,0.012 0.051,0.028 0.008,0.047 -0.156,0.078 -0.352,0.227 -0.598,0.434 -0.566,0.476 -1.324,1.23 -2.367,2.222 -1.082,1.028 -2.008,1.743 -2.77,2.149 -0.425,0.226 -0.812,0.367 -1.16,0.418 -0.422,0.062 -0.804,-0.004 -1.121,-0.188 -0.316,-0.183 -0.558,-0.484 -0.711,-0.882 -0.129,-0.329 -0.199,-0.735 -0.211,-1.215 -0.019,-0.864 0.149,-2.024 0.508,-3.469 0.352,-1.398 0.633,-2.43 0.77,-3.152 0.058,-0.321 0.089,-0.563 0.082,-0.735 -0.004,-0.047 0.023,-0.039 0.047,-0.015 0.023,0.019 0.035,0.043 -0.012,0.046 -0.172,0.012 -0.41,0.067 -0.719,0.165 -0.707,0.214 -1.699,0.609 -3.051,1.113 -1.394,0.519 -2.527,0.816 -3.39,0.89 -0.481,0.043 -0.887,0.02 -1.231,-0.07 -0.41,-0.109 -0.738,-0.316 -0.957,-0.613 -0.219,-0.293 -0.324,-0.664 -0.308,-1.09 0.011,-0.352 0.105,-0.754 0.285,-1.199 0.32,-0.805 0.926,-1.805 1.828,-2.992 0.871,-1.149 1.531,-1.989 1.941,-2.602 0.18,-0.269 0.305,-0.48 0.364,-0.641 0.015,-0.046 0.035,-0.027 0.05,0.004 0.012,0.028 0.016,0.055 -0.027,0.039 -0.164,-0.058 -0.406,-0.097 -0.73,-0.132 -0.735,-0.079 -1.801,-0.106 -3.243,-0.172 -1.488,-0.067 -2.644,-0.239 -3.468,-0.508 -0.454,-0.149 -0.825,-0.332 -1.102,-0.547 -0.336,-0.262 -0.555,-0.582 -0.641,-0.937 -0.086,-0.36 -0.035,-0.743 0.145,-1.129 0.148,-0.317 0.391,-0.649 0.73,-0.989 0.61,-0.613 1.563,-1.297 2.856,-2.035 1.25,-0.715 2.187,-1.226 2.808,-1.633 0.27,-0.175 0.465,-0.32 0.586,-0.449 0.032,-0.031 0.043,-0.008 0.043,0.024 0,0.031 -0.007,0.058 -0.043,0.027 -0.129,-0.117 -0.332,-0.25 -0.617,-0.406 -0.644,-0.36 -1.617,-0.805 -2.914,-1.43 -1.344,-0.645 -2.34,-1.262 -2.992,-1.832 -0.359,-0.313 -0.629,-0.625 -0.797,-0.934 -0.211,-0.375 -0.285,-0.75 -0.223,-1.113 0.059,-0.363 0.254,-0.695 0.575,-0.98 0.261,-0.235 0.613,-0.446 1.058,-0.625 0.801,-0.325 1.946,-0.579 3.426,-0.754 1.43,-0.164 2.496,-0.27 3.223,-0.399 0.316,-0.054 0.554,-0.113 0.715,-0.179 0.042,-0.02 0.042,0.007 0.031,0.035 -0.012,0.031 -0.031,0.051 -0.051,0.008 -0.07,-0.157 -0.207,-0.36 -0.406,-0.614 -0.453,-0.586 -1.172,-1.375 -2.121,-2.461 -0.981,-1.121 -1.661,-2.074 -2.036,-2.855 -0.207,-0.434 -0.332,-0.824 -0.367,-1.172 -0.047,-0.426 0.035,-0.805 0.235,-1.113 0.195,-0.309 0.507,-0.539 0.91,-0.676 0.332,-0.113 0.738,-0.168 1.219,-0.16 0.867,0.015 2.019,0.23 3.445,0.652 l 0.641,0.188 -0.379,1.277 z"
         id="path5215" /></clipPath><clipPath
       clipPathUnits="userSpaceOnUse"
       id="clipPath5225"><path
         d="M 0,0 H 520 V 110 H 0 Z"
         id="path5223" /></clipPath><clipPath
       clipPathUnits="userSpaceOnUse"
       id="clipPath5229"><path
         d="M 0,0 H 520 V 110 H 0 Z"
         id="path5227" /></clipPath><clipPath
       clipPathUnits="userSpaceOnUse"
       id="clipPath5279"><path
         d="m 309.145,24.433 c -1.313,-0.386 -2.344,-0.582 -3.09,-0.597 -0.325,-0.004 -0.582,0.027 -0.77,0.09 -0.117,0.039 -0.187,0.078 -0.219,0.132 -0.035,0.055 -0.043,0.133 -0.031,0.258 0.02,0.195 0.102,0.442 0.242,0.735 0.325,0.671 0.934,1.527 1.836,2.558 0.969,1.102 1.703,1.914 2.172,2.516 0.262,0.34 0.453,0.629 0.57,0.883 0.168,0.367 0.196,0.718 0.079,1.019 -0.118,0.305 -0.375,0.547 -0.743,0.707 -0.257,0.11 -0.593,0.195 -1.015,0.27 -0.754,0.136 -1.84,0.242 -3.301,0.41 -1.359,0.16 -2.383,0.383 -3.074,0.664 -0.305,0.125 -0.528,0.254 -0.676,0.383 -0.094,0.086 -0.137,0.148 -0.148,0.211 -0.012,0.062 0.011,0.14 0.07,0.246 0.098,0.172 0.269,0.367 0.516,0.582 0.562,0.492 1.457,1.039 2.691,1.633 1.324,0.636 2.316,1.093 2.984,1.464 0.375,0.207 0.664,0.399 0.867,0.586 0.301,0.274 0.461,0.586 0.473,0.911 0.012,0.324 -0.129,0.648 -0.406,0.941 -0.192,0.199 -0.465,0.41 -0.824,0.644 -0.641,0.418 -1.602,0.946 -2.875,1.672 -1.192,0.68 -2.047,1.289 -2.571,1.817 -0.23,0.234 -0.386,0.437 -0.472,0.617 -0.051,0.113 -0.067,0.187 -0.055,0.25 0.016,0.062 0.066,0.125 0.164,0.199 0.156,0.121 0.391,0.235 0.699,0.336 0.711,0.231 1.75,0.383 3.117,0.445 1.469,0.067 2.559,0.098 3.321,0.176 0.426,0.047 0.769,0.11 1.031,0.199 0.379,0.137 0.652,0.36 0.789,0.653 0.141,0.293 0.137,0.644 -0.004,1.023 -0.097,0.262 -0.269,0.563 -0.508,0.918 -0.425,0.637 -1.101,1.496 -1.988,2.668 -0.828,1.09 -1.375,1.984 -1.652,2.68 -0.121,0.304 -0.184,0.551 -0.188,0.75 -0.008,0.125 0.008,0.203 0.047,0.254 0.039,0.05 0.11,0.086 0.227,0.117 0.191,0.051 0.449,0.062 0.773,0.035 0.746,-0.066 1.762,-0.336 3.043,-0.812 1.375,-0.516 2.395,-0.915 3.125,-1.141 0.41,-0.125 0.746,-0.203 1.024,-0.219 0.402,-0.027 0.742,0.07 0.984,0.285 0.242,0.219 0.375,0.543 0.394,0.946 0.016,0.277 -0.023,0.625 -0.101,1.043 -0.145,0.754 -0.43,1.808 -0.785,3.234 -0.336,1.328 -0.489,2.367 -0.469,3.113 0.008,0.324 0.047,0.578 0.117,0.766 0.047,0.113 0.09,0.18 0.145,0.211 0.054,0.035 0.136,0.039 0.258,0.023 0.195,-0.031 0.437,-0.121 0.722,-0.273 0.66,-0.352 1.488,-0.996 2.481,-1.942 1.066,-1.011 1.843,-1.781 2.429,-2.273 0.325,-0.277 0.606,-0.48 0.856,-0.605 0.359,-0.18 0.711,-0.223 1.015,-0.122 0.309,0.106 0.559,0.352 0.735,0.715 0.121,0.25 0.222,0.582 0.312,1 0.164,0.75 0.317,1.832 0.547,3.282 0.215,1.351 0.481,2.367 0.789,3.046 0.137,0.297 0.274,0.516 0.41,0.661 0.086,0.085 0.153,0.128 0.215,0.14 0.067,0.008 0.141,-0.019 0.246,-0.086 0.168,-0.101 0.356,-0.281 0.559,-0.535 0.469,-0.582 0.976,-1.496 1.519,-2.754 0.582,-1.351 1,-2.363 1.344,-3.047 0.192,-0.383 0.371,-0.679 0.551,-0.89 0.258,-0.309 0.562,-0.485 0.887,-0.508 0.324,-0.027 0.652,0.101 0.957,0.367 0.211,0.184 0.433,0.449 0.679,0.797 0.446,0.625 1.008,1.559 1.789,2.805 0.727,1.16 1.372,1.988 1.922,2.492 0.243,0.222 0.453,0.367 0.637,0.445 0.113,0.047 0.191,0.063 0.25,0.043 0.063,-0.016 0.121,-0.07 0.191,-0.168 0.118,-0.164 0.219,-0.402 0.309,-0.715 0.199,-0.718 0.309,-1.761 0.316,-3.133 0.004,-1.468 -0.007,-2.562 0.04,-3.324 0.027,-0.426 0.074,-0.769 0.156,-1.035 0.121,-0.387 0.332,-0.668 0.617,-0.82 0.289,-0.149 0.641,-0.16 1.023,-0.035 0.266,0.086 0.575,0.242 0.942,0.468 0.652,0.399 1.539,1.039 2.742,1.875 1.125,0.782 2.043,1.293 2.746,1.543 0.309,0.106 0.563,0.16 0.762,0.16 0.121,-0.003 0.199,-0.019 0.25,-0.058 0.047,-0.043 0.082,-0.113 0.109,-0.234 0.039,-0.192 0.043,-0.454 0,-0.774 -0.097,-0.742 -0.406,-1.746 -0.937,-3.008 -0.571,-1.351 -1.012,-2.351 -1.266,-3.074 -0.144,-0.402 -0.234,-0.738 -0.262,-1.016 -0.043,-0.402 0.039,-0.742 0.246,-0.992 0.207,-0.254 0.524,-0.398 0.93,-0.437 0.274,-0.024 0.621,0 1.047,0.062 0.754,0.114 1.82,0.352 3.258,0.653 1.344,0.277 2.387,0.386 3.133,0.339 0.324,-0.023 0.578,-0.074 0.757,-0.152 0.114,-0.047 0.18,-0.094 0.207,-0.152 0.032,-0.055 0.036,-0.133 0.012,-0.254 -0.039,-0.195 -0.14,-0.434 -0.304,-0.715 -0.379,-0.645 -1.055,-1.445 -2.04,-2.398 l -0.476,-0.461 0.922,-0.957 0.48,0.461 c 1.071,1.039 1.821,1.933 2.262,2.679 0.242,0.414 0.398,0.797 0.461,1.141 0.082,0.422 0.031,0.805 -0.141,1.129 -0.172,0.324 -0.461,0.578 -0.851,0.75 -0.325,0.136 -0.723,0.226 -1.203,0.258 -0.864,0.054 -2.032,-0.063 -3.489,-0.368 -1.41,-0.293 -2.453,-0.527 -3.183,-0.636 -0.321,-0.047 -0.563,-0.067 -0.735,-0.051 -0.047,0.004 -0.039,-0.024 -0.019,-0.047 0.019,-0.023 0.043,-0.039 0.047,0.008 0.019,0.172 0.086,0.406 0.195,0.715 0.246,0.695 0.68,1.672 1.238,3 0.578,1.371 0.918,2.492 1.032,3.351 0.058,0.477 0.05,0.887 -0.024,1.231 -0.09,0.414 -0.285,0.75 -0.57,0.98 -0.285,0.231 -0.653,0.352 -1.078,0.356 -0.352,0.004 -0.754,-0.075 -1.207,-0.235 -0.817,-0.285 -1.844,-0.851 -3.067,-1.703 -1.183,-0.824 -2.047,-1.449 -2.679,-1.836 -0.274,-0.168 -0.493,-0.281 -0.657,-0.336 -0.043,-0.015 -0.027,-0.035 0.004,-0.051 0.028,-0.011 0.051,-0.015 0.039,0.028 -0.051,0.168 -0.082,0.41 -0.101,0.734 -0.047,0.735 -0.032,1.805 -0.039,3.246 -0.004,1.489 -0.129,2.653 -0.368,3.489 -0.128,0.46 -0.296,0.835 -0.5,1.121 -0.246,0.347 -0.558,0.578 -0.91,0.679 -0.355,0.102 -0.738,0.067 -1.133,-0.097 -0.324,-0.137 -0.664,-0.368 -1.019,-0.688 -0.637,-0.586 -1.359,-1.508 -2.149,-2.769 -0.769,-1.223 -1.316,-2.137 -1.746,-2.739 -0.187,-0.265 -0.343,-0.453 -0.472,-0.57 -0.035,-0.031 -0.012,-0.039 0.019,-0.043 0.032,0 0.059,0.004 0.028,0.043 -0.11,0.133 -0.235,0.344 -0.379,0.633 -0.332,0.66 -0.739,1.648 -1.309,2.969 -0.59,1.367 -1.16,2.39 -1.703,3.066 -0.301,0.371 -0.605,0.652 -0.902,0.836 -0.368,0.223 -0.743,0.312 -1.106,0.266 -0.363,-0.043 -0.707,-0.227 -1.004,-0.532 -0.246,-0.25 -0.468,-0.597 -0.668,-1.035 -0.355,-0.785 -0.66,-1.918 -0.89,-3.39 -0.227,-1.422 -0.375,-2.481 -0.532,-3.204 -0.07,-0.316 -0.136,-0.55 -0.211,-0.707 -0.023,-0.043 0.004,-0.043 0.036,-0.031 0.031,0.012 0.05,0.027 0.007,0.047 -0.152,0.078 -0.351,0.227 -0.597,0.434 -0.563,0.476 -1.324,1.226 -2.367,2.222 -1.079,1.024 -2.008,1.742 -2.77,2.149 -0.426,0.226 -0.812,0.363 -1.16,0.414 -0.422,0.062 -0.801,0 -1.121,-0.184 -0.317,-0.187 -0.559,-0.484 -0.711,-0.883 -0.129,-0.328 -0.199,-0.734 -0.211,-1.214 -0.02,-0.868 0.148,-2.024 0.508,-3.469 0.351,-1.399 0.633,-2.43 0.769,-3.156 0.059,-0.317 0.09,-0.559 0.082,-0.735 0,-0.047 0.024,-0.035 0.047,-0.015 0.024,0.023 0.035,0.046 -0.012,0.05 -0.171,0.008 -0.41,0.067 -0.718,0.16 -0.707,0.219 -1.699,0.614 -3.051,1.118 -1.395,0.519 -2.527,0.816 -3.391,0.89 -0.476,0.043 -0.886,0.016 -1.226,-0.07 -0.414,-0.109 -0.739,-0.316 -0.961,-0.613 -0.219,-0.293 -0.324,-0.664 -0.309,-1.09 0.012,-0.352 0.106,-0.754 0.285,-1.199 0.321,-0.805 0.93,-1.805 1.829,-2.993 0.871,-1.148 1.531,-1.988 1.941,-2.601 0.18,-0.27 0.305,-0.481 0.363,-0.645 0.02,-0.043 0.035,-0.023 0.051,0.008 0.012,0.027 0.016,0.055 -0.027,0.039 -0.164,-0.058 -0.407,-0.097 -0.727,-0.133 -0.734,-0.078 -1.805,-0.105 -3.246,-0.171 -1.484,-0.067 -2.645,-0.243 -3.465,-0.508 -0.457,-0.149 -0.824,-0.332 -1.105,-0.551 -0.336,-0.262 -0.555,-0.578 -0.641,-0.934 -0.086,-0.359 -0.035,-0.742 0.145,-1.129 0.148,-0.32 0.39,-0.648 0.73,-0.988 0.609,-0.617 1.563,-1.297 2.856,-2.035 1.25,-0.719 2.187,-1.23 2.808,-1.633 0.27,-0.176 0.465,-0.324 0.586,-0.449 0.031,-0.035 0.043,-0.008 0.043,0.023 0,0.032 -0.008,0.059 -0.043,0.024 -0.125,-0.117 -0.332,-0.246 -0.617,-0.403 -0.645,-0.359 -1.617,-0.804 -2.914,-1.429 -1.344,-0.649 -2.34,-1.262 -2.992,-1.832 -0.36,-0.317 -0.629,-0.629 -0.797,-0.934 -0.207,-0.375 -0.285,-0.754 -0.223,-1.113 0.063,-0.363 0.254,-0.699 0.574,-0.981 0.262,-0.234 0.614,-0.445 1.059,-0.625 0.805,-0.328 1.945,-0.582 3.426,-0.753 1.433,-0.168 2.496,-0.27 3.222,-0.399 0.321,-0.055 0.555,-0.113 0.715,-0.184 0.043,-0.015 0.043,0.008 0.031,0.04 -0.011,0.031 -0.027,0.05 -0.046,0.007 -0.075,-0.16 -0.211,-0.359 -0.411,-0.617 -0.453,-0.582 -1.171,-1.371 -2.121,-2.457 -0.98,-1.121 -1.66,-2.074 -2.035,-2.855 -0.207,-0.434 -0.328,-0.825 -0.367,-1.176 -0.043,-0.422 0.035,-0.801 0.234,-1.109 0.196,-0.313 0.508,-0.54 0.91,-0.68 0.333,-0.113 0.743,-0.164 1.219,-0.156 0.867,0.015 2.02,0.23 3.449,0.648 l 0.637,0.191 -0.379,1.274 z"
         id="path5277" /></clipPath><clipPath
       clipPathUnits="userSpaceOnUse"
       id="clipPath5287"><path
         d="M 0,0 H 520 V 110 H 0 Z"
         id="path5285" /></clipPath><clipPath
       clipPathUnits="userSpaceOnUse"
       id="clipPath5291"><path
         d="M 0,0 H 520 V 110 H 0 Z"
         id="path5289" /></clipPath><clipPath
       clipPathUnits="userSpaceOnUse"
       id="clipPath5345"><path
         d="m 447.242,24.433 c -1.312,-0.386 -2.344,-0.582 -3.09,-0.597 -0.324,-0.004 -0.582,0.027 -0.769,0.09 -0.117,0.039 -0.184,0.078 -0.219,0.132 -0.035,0.055 -0.043,0.133 -0.031,0.258 0.019,0.195 0.101,0.442 0.242,0.735 0.324,0.671 0.934,1.527 1.836,2.558 0.969,1.102 1.703,1.914 2.172,2.516 0.265,0.34 0.457,0.629 0.57,0.883 0.168,0.367 0.195,0.718 0.078,1.019 -0.117,0.305 -0.371,0.547 -0.742,0.707 -0.258,0.11 -0.594,0.195 -1.016,0.27 -0.753,0.136 -1.839,0.242 -3.296,0.41 -1.364,0.16 -2.387,0.383 -3.079,0.664 -0.304,0.125 -0.527,0.254 -0.675,0.383 -0.09,0.086 -0.137,0.148 -0.149,0.211 -0.011,0.062 0.012,0.14 0.074,0.246 0.094,0.172 0.266,0.367 0.512,0.582 0.563,0.492 1.457,1.039 2.692,1.633 1.324,0.636 2.316,1.093 2.984,1.464 0.375,0.207 0.664,0.399 0.867,0.586 0.301,0.274 0.465,0.586 0.477,0.911 0.008,0.324 -0.133,0.648 -0.41,0.941 -0.192,0.199 -0.465,0.41 -0.825,0.644 -0.64,0.418 -1.601,0.946 -2.875,1.672 -1.187,0.68 -2.043,1.289 -2.57,1.817 -0.23,0.234 -0.387,0.437 -0.469,0.617 -0.054,0.113 -0.07,0.187 -0.054,0.25 0.011,0.062 0.062,0.125 0.16,0.199 0.156,0.121 0.39,0.235 0.699,0.336 0.711,0.231 1.75,0.383 3.117,0.445 1.469,0.067 2.563,0.098 3.324,0.176 0.426,0.047 0.766,0.11 1.028,0.199 0.383,0.137 0.652,0.36 0.793,0.653 0.136,0.293 0.132,0.644 -0.008,1.023 -0.098,0.262 -0.266,0.563 -0.504,0.918 -0.426,0.637 -1.106,1.496 -1.992,2.668 -0.828,1.09 -1.375,1.984 -1.649,2.68 -0.121,0.304 -0.187,0.551 -0.191,0.75 -0.004,0.125 0.008,0.203 0.047,0.254 0.039,0.05 0.109,0.086 0.226,0.117 0.192,0.051 0.45,0.062 0.778,0.035 0.742,-0.066 1.758,-0.336 3.039,-0.812 1.379,-0.516 2.394,-0.915 3.125,-1.141 0.41,-0.125 0.746,-0.203 1.023,-0.219 0.406,-0.027 0.742,0.07 0.985,0.285 0.242,0.219 0.378,0.543 0.398,0.946 0.012,0.277 -0.027,0.625 -0.105,1.043 -0.145,0.754 -0.43,1.808 -0.786,3.234 -0.332,1.328 -0.488,2.367 -0.468,3.113 0.007,0.324 0.047,0.578 0.121,0.766 0.043,0.113 0.086,0.18 0.14,0.211 0.055,0.035 0.137,0.039 0.258,0.023 0.195,-0.031 0.438,-0.121 0.727,-0.273 0.656,-0.352 1.484,-0.996 2.476,-1.942 1.067,-1.011 1.844,-1.781 2.43,-2.273 0.324,-0.277 0.609,-0.48 0.855,-0.605 0.36,-0.18 0.711,-0.223 1.02,-0.122 0.305,0.106 0.559,0.352 0.734,0.715 0.121,0.25 0.219,0.582 0.313,1 0.164,0.75 0.312,1.832 0.543,3.282 0.215,1.351 0.48,2.367 0.793,3.046 0.133,0.297 0.269,0.516 0.41,0.661 0.086,0.085 0.148,0.128 0.215,0.14 0.062,0.008 0.137,-0.019 0.242,-0.086 0.168,-0.101 0.355,-0.281 0.559,-0.535 0.468,-0.582 0.98,-1.496 1.523,-2.754 0.578,-1.351 0.996,-2.363 1.34,-3.047 0.191,-0.383 0.371,-0.679 0.551,-0.89 0.261,-0.309 0.566,-0.485 0.886,-0.508 0.325,-0.027 0.653,0.101 0.957,0.367 0.211,0.184 0.434,0.449 0.68,0.797 0.445,0.625 1.008,1.559 1.789,2.805 0.731,1.16 1.371,1.988 1.922,2.492 0.242,0.222 0.453,0.367 0.637,0.445 0.113,0.047 0.191,0.063 0.254,0.043 0.062,-0.016 0.117,-0.07 0.191,-0.168 0.113,-0.164 0.215,-0.402 0.305,-0.715 0.203,-0.718 0.308,-1.761 0.316,-3.133 0.008,-1.468 -0.008,-2.562 0.039,-3.324 0.028,-0.426 0.078,-0.769 0.156,-1.035 0.122,-0.387 0.332,-0.668 0.622,-0.82 0.285,-0.149 0.636,-0.16 1.023,-0.035 0.262,0.086 0.57,0.242 0.937,0.468 0.653,0.399 1.54,1.039 2.747,1.875 1.121,0.782 2.039,1.293 2.742,1.543 0.308,0.106 0.562,0.16 0.761,0.16 0.122,-0.003 0.2,-0.019 0.25,-0.058 0.051,-0.043 0.083,-0.113 0.11,-0.234 0.043,-0.192 0.043,-0.454 0,-0.774 -0.094,-0.742 -0.406,-1.746 -0.938,-3.008 -0.57,-1.351 -1.011,-2.351 -1.265,-3.074 -0.145,-0.402 -0.235,-0.738 -0.262,-1.016 -0.043,-0.402 0.039,-0.742 0.246,-0.992 0.207,-0.254 0.527,-0.398 0.93,-0.437 0.277,-0.024 0.621,0 1.047,0.062 0.757,0.114 1.824,0.352 3.261,0.653 1.34,0.277 2.383,0.386 3.129,0.339 0.325,-0.023 0.578,-0.074 0.762,-0.152 0.113,-0.047 0.176,-0.094 0.203,-0.152 0.031,-0.055 0.035,-0.133 0.012,-0.254 -0.039,-0.195 -0.137,-0.434 -0.305,-0.715 -0.375,-0.645 -1.055,-1.445 -2.039,-2.398 l -0.476,-0.461 0.921,-0.957 0.481,0.461 c 1.07,1.039 1.824,1.933 2.262,2.679 0.242,0.414 0.398,0.797 0.464,1.141 0.079,0.422 0.032,0.805 -0.14,1.129 -0.172,0.324 -0.465,0.578 -0.856,0.75 -0.32,0.136 -0.722,0.226 -1.203,0.258 -0.863,0.054 -2.027,-0.063 -3.488,-0.368 -1.41,-0.293 -2.453,-0.527 -3.184,-0.636 -0.32,-0.047 -0.562,-0.067 -0.734,-0.051 -0.047,0.004 -0.039,-0.024 -0.02,-0.047 0.02,-0.023 0.043,-0.039 0.051,0.008 0.016,0.172 0.082,0.406 0.192,0.715 0.246,0.695 0.679,1.672 1.238,3 0.578,1.371 0.918,2.492 1.031,3.351 0.063,0.477 0.055,0.887 -0.023,1.231 -0.09,0.414 -0.285,0.75 -0.571,0.98 -0.285,0.231 -0.652,0.352 -1.078,0.356 -0.351,0.004 -0.754,-0.075 -1.207,-0.235 -0.816,-0.285 -1.843,-0.851 -3.066,-1.703 -1.184,-0.824 -2.047,-1.449 -2.68,-1.836 -0.273,-0.168 -0.492,-0.281 -0.656,-0.336 -0.043,-0.015 -0.027,-0.035 0.004,-0.051 0.027,-0.011 0.055,-0.015 0.039,0.028 -0.051,0.168 -0.082,0.41 -0.102,0.734 -0.047,0.735 -0.031,1.805 -0.039,3.246 -0.004,1.489 -0.129,2.653 -0.363,3.489 -0.133,0.46 -0.301,0.835 -0.504,1.121 -0.246,0.347 -0.559,0.578 -0.91,0.679 -0.356,0.102 -0.738,0.067 -1.133,-0.097 -0.324,-0.137 -0.664,-0.368 -1.019,-0.688 -0.637,-0.586 -1.36,-1.508 -2.149,-2.769 -0.765,-1.223 -1.316,-2.137 -1.746,-2.739 -0.187,-0.265 -0.34,-0.453 -0.473,-0.57 -0.035,-0.031 -0.011,-0.039 0.02,-0.043 0.035,0 0.059,0.004 0.027,0.043 -0.109,0.133 -0.234,0.344 -0.379,0.633 -0.332,0.66 -0.734,1.648 -1.308,2.969 -0.59,1.367 -1.16,2.39 -1.703,3.066 -0.301,0.371 -0.602,0.652 -0.903,0.836 -0.363,0.223 -0.738,0.312 -1.105,0.266 -0.363,-0.043 -0.703,-0.227 -1.004,-0.532 -0.242,-0.25 -0.465,-0.597 -0.664,-1.035 -0.36,-0.785 -0.66,-1.918 -0.895,-3.39 -0.226,-1.422 -0.371,-2.481 -0.531,-3.204 -0.07,-0.316 -0.137,-0.55 -0.211,-0.707 -0.023,-0.043 0.004,-0.043 0.035,-0.031 0.032,0.012 0.051,0.027 0.008,0.047 -0.152,0.078 -0.348,0.227 -0.598,0.434 -0.562,0.476 -1.324,1.226 -2.367,2.222 -1.078,1.024 -2.004,1.742 -2.769,2.149 -0.422,0.226 -0.813,0.363 -1.16,0.414 -0.422,0.062 -0.801,0 -1.118,-0.184 -0.32,-0.187 -0.562,-0.484 -0.714,-0.883 -0.129,-0.328 -0.196,-0.734 -0.207,-1.214 -0.024,-0.868 0.144,-2.024 0.507,-3.469 0.348,-1.399 0.629,-2.43 0.766,-3.156 0.062,-0.317 0.09,-0.559 0.082,-0.735 0,-0.047 0.023,-0.035 0.047,-0.015 0.023,0.023 0.039,0.046 -0.008,0.05 -0.176,0.008 -0.41,0.067 -0.723,0.16 -0.707,0.219 -1.699,0.614 -3.05,1.118 -1.395,0.519 -2.528,0.816 -3.391,0.89 -0.477,0.043 -0.887,0.016 -1.227,-0.07 -0.414,-0.109 -0.738,-0.316 -0.957,-0.613 -0.218,-0.293 -0.324,-0.664 -0.312,-1.09 0.012,-0.352 0.109,-0.754 0.285,-1.199 0.32,-0.805 0.93,-1.805 1.828,-2.993 0.871,-1.148 1.531,-1.988 1.942,-2.601 0.183,-0.27 0.304,-0.481 0.367,-0.645 0.015,-0.043 0.035,-0.023 0.047,0.008 0.015,0.027 0.015,0.055 -0.028,0.039 -0.164,-0.058 -0.406,-0.097 -0.726,-0.133 -0.735,-0.078 -1.805,-0.105 -3.242,-0.171 -1.489,-0.067 -2.649,-0.243 -3.469,-0.508 -0.457,-0.149 -0.824,-0.332 -1.102,-0.551 -0.34,-0.262 -0.554,-0.578 -0.64,-0.934 -0.086,-0.359 -0.039,-0.742 0.14,-1.129 0.149,-0.32 0.395,-0.648 0.731,-0.988 0.609,-0.617 1.562,-1.297 2.855,-2.035 1.25,-0.719 2.192,-1.23 2.809,-1.633 0.269,-0.176 0.469,-0.324 0.586,-0.449 0.031,-0.035 0.043,-0.008 0.043,0.023 0,0.032 -0.008,0.059 -0.043,0.024 -0.125,-0.117 -0.332,-0.246 -0.614,-0.403 -0.648,-0.359 -1.617,-0.804 -2.918,-1.429 -1.339,-0.649 -2.339,-1.262 -2.992,-1.832 -0.359,-0.317 -0.625,-0.629 -0.797,-0.934 -0.207,-0.375 -0.281,-0.754 -0.222,-1.113 0.062,-0.363 0.258,-0.699 0.574,-0.981 0.262,-0.234 0.617,-0.445 1.059,-0.625 0.804,-0.328 1.949,-0.582 3.425,-0.753 1.434,-0.168 2.496,-0.27 3.223,-0.399 0.32,-0.055 0.555,-0.113 0.715,-0.184 0.043,-0.015 0.043,0.008 0.031,0.04 -0.012,0.031 -0.027,0.05 -0.047,0.007 -0.074,-0.16 -0.211,-0.359 -0.41,-0.617 -0.453,-0.582 -1.172,-1.371 -2.121,-2.457 -0.981,-1.121 -1.656,-2.074 -2.035,-2.855 -0.207,-0.434 -0.328,-0.825 -0.367,-1.176 -0.043,-0.422 0.035,-0.801 0.234,-1.109 0.199,-0.313 0.508,-0.54 0.91,-0.68 0.332,-0.113 0.742,-0.164 1.223,-0.156 0.863,0.015 2.015,0.23 3.445,0.648 l 0.637,0.191 -0.375,1.274 z"
         id="path5343" /></clipPath><clipPath
       clipPathUnits="userSpaceOnUse"
       id="clipPath5353"><path
         d="M 0,0 H 520 V 110 H 0 Z"
         id="path5351" /></clipPath><clipPath
       clipPathUnits="userSpaceOnUse"
       id="clipPath5357"><path
         d="M 0,0 H 520 V 110 H 0 Z"
         id="path5355" /></clipPath><g
       id="id-15a7bd75-f39c-4885-9ab1-35ac0b6e95ac"><symbol
         overflow="visible"
         id="id-060a5a46-a488-4502-9360-a04c0b7ceb79"><path
           style="stroke:none"
           d=""
           id="id-3f759b0b-a7e9-42e2-b772-de650239e7aa" /></symbol><symbol
         overflow="visible"
         id="id-c912aa4d-3287-482a-8f3c-fbb9abcde772"><path
           style="stroke:none"
           d="m 2.890625,-3.515625 c 0.8125,-0.265625 1.390625,-0.953125 1.390625,-1.75 0,-0.8125 -0.875,-1.375 -1.828125,-1.375 -1,0 -1.765625,0.59375 -1.765625,1.359375 0,0.328125 0.21875,0.515625 0.515625,0.515625 0.296875,0 0.5,-0.21875 0.5,-0.515625 0,-0.484375 -0.46875,-0.484375 -0.609375,-0.484375 0.296875,-0.5 0.953125,-0.625 1.3125,-0.625 0.421875,0 0.96875,0.21875 0.96875,1.109375 0,0.125 -0.03125,0.703125 -0.28125,1.140625 C 2.796875,-3.65625 2.453125,-3.625 2.203125,-3.625 2.125,-3.609375 1.890625,-3.59375 1.8125,-3.59375 c -0.078125,0.015625 -0.140625,0.03125 -0.140625,0.125 0,0.109375 0.0625,0.109375 0.234375,0.109375 h 0.4375 c 0.8125,0 1.1875,0.671875 1.1875,1.65625 0,1.359375 -0.6875,1.640625 -1.125,1.640625 -0.4375,0 -1.1875,-0.171875 -1.53125,-0.75 0.34375,0.046875 0.65625,-0.171875 0.65625,-0.546875 0,-0.359375 -0.265625,-0.5625 -0.546875,-0.5625 -0.25,0 -0.5625,0.140625 -0.5625,0.578125 0,0.90625 0.921875,1.5625 2.015625,1.5625 1.21875,0 2.125,-0.90625 2.125,-1.921875 0,-0.8125 -0.640625,-1.59375 -1.671875,-1.8125 z m 0,0"
           id="id-28bd5b43-fd20-43ae-91fc-86a1fb40106d" /></symbol><symbol
         overflow="visible"
         id="id-09578eae-1020-46ec-8543-94f7296793e6"><path
           style="stroke:none"
           d=""
           id="id-e4dc5aa5-98ab-4026-b8f0-6574484174f6" /></symbol><symbol
         overflow="visible"
         id="id-2a9127d9-0487-486b-8a35-09c0f047fbdb"><path
           style="stroke:none"
           d="m 5.1875,-1.578125 c 0.109375,0 0.28125,0 0.28125,-0.15625 0,-0.1875 -0.171875,-0.1875 -0.28125,-0.1875 H 1.03125 c -0.109375,0 -0.28125,0 -0.28125,0.171875 0,0.171875 0.15625,0.171875 0.28125,0.171875 z m 0,0"
           id="id-8c1c9ef9-6280-4afe-b6fc-6afd24cb707f" /></symbol></g></defs><sodipodi:namedview
     pagecolor="#ffffff"
     bordercolor="#666666"
     borderopacity="1"
     objecttolerance="10"
     gridtolerance="10"
     guidetolerance="10"
     inkscape:pageopacity="0"
     inkscape:pageshadow="2"
     inkscape:window-width="1600"
     inkscape:window-height="863"
     id="namedview5173"
     showgrid="false"
     inkscape:zoom="1.1832163"
     inkscape:cx="417.08261"
     inkscape:cy="125.75878"
     inkscape:window-x="1366"
     inkscape:window-y="0"
     inkscape:window-maximized="1"
     inkscape:current-layer="g5179"
     fit-margin-top="0"
     fit-margin-left="0"
     fit-margin-right="0"
     fit-margin-bottom="0" /><g
     id="g5179"
     inkscape:groupmode="layer"
     inkscape:label="fig6_C1"
     transform="matrix(1.3333333,0,0,-1.3333333,-0.40267604,151.04666)"><g
       id="g5181"><path
         d="m 0.602,6.492 103.98,60.031"
         style="fill:none;stroke:#000000;stroke-width:1.2;stroke-linecap:butt;stroke-linejoin:miter;stroke-miterlimit:4;stroke-dasharray:none;stroke-opacity:1"
         id="path5183" /><path
         d="M 53.172,37.203 60.313,24.836"
         style="fill:none;stroke:#000000;stroke-width:0.8;stroke-linecap:butt;stroke-linejoin:miter;stroke-miterlimit:4;stroke-dasharray:1.6, 1.6;stroke-dashoffset:0;stroke-opacity:1"
         id="path5185" /><g
         id="g5187"
         transform="matrix(0.659052,-1,-1,-0.659052,0,109.88257)"><path
           d="m 86.279,-4.857 3.796,3.795"
           style="fill:none;stroke:#000000;stroke-width:0.667978;stroke-linecap:round;stroke-linejoin:miter;stroke-miterlimit:4;stroke-dasharray:none;stroke-opacity:1"
           id="path5189" /></g><g
         id="g5191"
         transform="matrix(0.659052,-1,-1,-0.659052,0,109.88257)"><path
           d="m 90.076,-4.858 -3.797,3.795"
           style="fill:none;stroke:#000000;stroke-width:0.667978;stroke-linecap:round;stroke-linejoin:miter;stroke-miterlimit:4;stroke-dasharray:none;stroke-opacity:1"
           id="path5193" /></g><path
         d="m 18.031,19.957 5.653,-0.11 -2.891,-4.793"
         style="fill:none;stroke:#000000;stroke-width:0.8;stroke-linecap:round;stroke-linejoin:miter;stroke-miterlimit:4;stroke-dasharray:none;stroke-opacity:1"
         id="path5195" /><path
         d="m 78.574,54.793 5.653,-0.11 -2.891,-4.793"
         style="fill:none;stroke:#000000;stroke-width:0.8;stroke-linecap:round;stroke-linejoin:miter;stroke-miterlimit:4;stroke-dasharray:none;stroke-opacity:1"
         id="path5197" /><path
         d="M 138.699,8.836 242.68,68.871"
         style="fill:none;stroke:#000000;stroke-width:1.2;stroke-linecap:butt;stroke-linejoin:miter;stroke-miterlimit:4;stroke-dasharray:none;stroke-opacity:1"
         id="path5199" /><path
         d="M 153.203,17.097 160.348,4.726"
         style="fill:none;stroke:#000000;stroke-width:0.8;stroke-linecap:butt;stroke-linejoin:miter;stroke-miterlimit:4;stroke-dasharray:1.6, 1.6;stroke-dashoffset:0;stroke-opacity:1"
         id="path5201" /><g
         id="g5203"
         transform="matrix(0.659052,-1,-1,-0.659052,0,109.88257)"><path
           d="m 146.263,-65.359 3.796,3.794"
           style="fill:none;stroke:#000000;stroke-width:0.667978;stroke-linecap:round;stroke-linejoin:miter;stroke-miterlimit:4;stroke-dasharray:none;stroke-opacity:1"
           id="path5205" /></g><g
         id="g5207"
         transform="matrix(0.659052,-1,-1,-0.659052,0,109.88257)"><path
           d="m 150.056,-65.359 -3.795,3.796"
           style="fill:none;stroke:#000000;stroke-width:0.667978;stroke-linecap:round;stroke-linejoin:miter;stroke-miterlimit:4;stroke-dasharray:none;stroke-opacity:1"
           id="path5209" /></g></g><g
       id="g5211"><g
         id="g5213"
         clip-path="url(#clipPath5217)"><g
           id="g5219"
           transform="translate(0,-0.117432)"><g
             id="g5221" /><g
             id="g5249"><g
               clip-path="url(#clipPath5225)"
               id="g5247"><g
                 id="g5245"><g
                   id="g5243"><g
                     id="g5231" /><g
                     id="g5241"><g
                       clip-path="url(#clipPath5229)"
                       id="g5239"><g
                         id="g5233" /><g
                         id="g5237"><path
                           d="m 171.047,28.668 c -1.313,-0.387 -2.344,-0.582 -3.09,-0.594 -0.328,-0.008 -0.582,0.024 -0.769,0.086 -0.118,0.039 -0.188,0.082 -0.223,0.137 -0.031,0.051 -0.043,0.129 -0.027,0.254 0.019,0.195 0.101,0.441 0.242,0.734 0.324,0.676 0.933,1.528 1.836,2.559 0.968,1.105 1.703,1.914 2.172,2.519 0.261,0.336 0.453,0.625 0.57,0.879 0.164,0.367 0.195,0.719 0.078,1.024 -0.117,0.3 -0.375,0.543 -0.746,0.703 -0.254,0.109 -0.59,0.199 -1.012,0.273 -0.754,0.133 -1.84,0.238 -3.301,0.41 -1.359,0.157 -2.382,0.383 -3.078,0.664 -0.301,0.122 -0.527,0.25 -0.672,0.383 -0.093,0.082 -0.14,0.145 -0.148,0.207 -0.012,0.063 0.012,0.141 0.07,0.246 0.098,0.176 0.27,0.368 0.512,0.582 0.562,0.493 1.461,1.039 2.695,1.633 1.321,0.637 2.317,1.094 2.985,1.465 0.375,0.211 0.664,0.398 0.867,0.59 0.297,0.269 0.461,0.582 0.472,0.906 0.012,0.324 -0.128,0.649 -0.406,0.942 -0.191,0.203 -0.469,0.414 -0.824,0.644 -0.641,0.422 -1.602,0.945 -2.875,1.672 -1.191,0.68 -2.047,1.289 -2.57,1.82 -0.231,0.231 -0.387,0.438 -0.473,0.617 -0.051,0.11 -0.07,0.188 -0.055,0.25 0.016,0.063 0.067,0.122 0.164,0.2 0.157,0.121 0.391,0.23 0.7,0.332 0.711,0.234 1.75,0.383 3.117,0.445 1.465,0.066 2.558,0.098 3.32,0.18 0.426,0.043 0.766,0.105 1.027,0.199 0.383,0.133 0.657,0.355 0.793,0.648 0.137,0.293 0.137,0.649 -0.007,1.028 -0.094,0.258 -0.266,0.562 -0.504,0.918 -0.426,0.632 -1.102,1.496 -1.989,2.664 -0.828,1.093 -1.375,1.984 -1.652,2.679 -0.121,0.305 -0.183,0.555 -0.191,0.75 -0.004,0.125 0.011,0.204 0.05,0.254 0.036,0.051 0.106,0.086 0.227,0.118 0.191,0.05 0.449,0.062 0.773,0.035 0.747,-0.067 1.758,-0.332 3.043,-0.813 1.375,-0.515 2.391,-0.914 3.125,-1.14 0.407,-0.125 0.747,-0.2 1.024,-0.219 0.402,-0.028 0.742,0.07 0.984,0.289 0.242,0.215 0.375,0.539 0.395,0.945 0.012,0.278 -0.024,0.621 -0.102,1.043 -0.144,0.75 -0.429,1.805 -0.785,3.231 -0.336,1.328 -0.488,2.367 -0.469,3.113 0.008,0.328 0.047,0.582 0.118,0.766 0.046,0.113 0.089,0.179 0.144,0.214 0.055,0.032 0.133,0.036 0.258,0.02 0.195,-0.031 0.433,-0.121 0.723,-0.274 0.66,-0.351 1.488,-0.996 2.48,-1.941 1.062,-1.012 1.844,-1.781 2.426,-2.273 0.328,-0.278 0.609,-0.477 0.859,-0.606 0.36,-0.18 0.707,-0.223 1.016,-0.117 0.308,0.102 0.558,0.348 0.734,0.711 0.121,0.254 0.223,0.582 0.313,1 0.164,0.75 0.316,1.832 0.547,3.281 0.214,1.356 0.48,2.367 0.789,3.047 0.136,0.297 0.273,0.52 0.41,0.66 0.086,0.09 0.152,0.133 0.215,0.141 0.066,0.008 0.14,-0.02 0.246,-0.082 0.168,-0.106 0.355,-0.281 0.558,-0.535 0.469,-0.582 0.977,-1.5 1.52,-2.758 0.582,-1.348 0.996,-2.36 1.34,-3.043 0.195,-0.383 0.375,-0.68 0.554,-0.895 0.258,-0.308 0.563,-0.484 0.887,-0.508 0.324,-0.027 0.652,0.102 0.957,0.368 0.207,0.183 0.43,0.449 0.68,0.797 0.445,0.625 1.008,1.562 1.789,2.804 0.726,1.16 1.371,1.992 1.922,2.496 0.242,0.219 0.453,0.368 0.633,0.442 0.117,0.047 0.191,0.062 0.253,0.047 0.063,-0.02 0.122,-0.075 0.192,-0.172 0.117,-0.16 0.219,-0.399 0.305,-0.715 0.203,-0.719 0.312,-1.762 0.32,-3.133 0.004,-1.465 -0.012,-2.559 0.039,-3.324 0.027,-0.426 0.074,-0.77 0.156,-1.035 0.117,-0.387 0.328,-0.668 0.617,-0.817 0.289,-0.152 0.641,-0.164 1.024,-0.039 0.265,0.086 0.574,0.246 0.941,0.469 0.653,0.398 1.535,1.039 2.742,1.879 1.125,0.781 2.043,1.293 2.746,1.539 0.309,0.109 0.563,0.16 0.758,0.16 0.125,0 0.203,-0.019 0.25,-0.058 0.051,-0.043 0.086,-0.114 0.11,-0.235 0.043,-0.191 0.043,-0.449 0.004,-0.773 -0.098,-0.742 -0.407,-1.742 -0.938,-3.008 -0.57,-1.352 -1.012,-2.352 -1.266,-3.074 -0.144,-0.403 -0.234,-0.739 -0.265,-1.016 -0.039,-0.402 0.043,-0.742 0.25,-0.992 0.207,-0.25 0.523,-0.399 0.926,-0.434 0.277,-0.027 0.625,-0.004 1.046,0.059 0.758,0.113 1.825,0.355 3.262,0.652 1.344,0.278 2.387,0.391 3.129,0.34 0.328,-0.019 0.582,-0.07 0.762,-0.152 0.113,-0.047 0.176,-0.094 0.207,-0.149 0.031,-0.058 0.031,-0.136 0.008,-0.258 -0.036,-0.195 -0.137,-0.433 -0.301,-0.714 -0.379,-0.645 -1.059,-1.446 -2.039,-2.399 l -0.481,-0.461 0.926,-0.957 0.481,0.465 c 1.066,1.035 1.82,1.93 2.261,2.68 0.242,0.414 0.395,0.793 0.461,1.14 0.078,0.418 0.031,0.801 -0.14,1.125 -0.172,0.325 -0.461,0.578 -0.852,0.75 -0.324,0.141 -0.727,0.227 -1.203,0.258 -0.863,0.055 -2.031,-0.062 -3.488,-0.367 -1.411,-0.293 -2.453,-0.527 -3.184,-0.637 -0.32,-0.047 -0.562,-0.066 -0.738,-0.051 -0.047,0.004 -0.039,-0.019 -0.016,-0.046 0.02,-0.024 0.043,-0.039 0.047,0.007 0.02,0.176 0.086,0.411 0.195,0.715 0.246,0.696 0.68,1.672 1.239,3 0.578,1.371 0.918,2.492 1.031,3.352 0.058,0.476 0.051,0.887 -0.024,1.23 -0.089,0.418 -0.285,0.75 -0.57,0.981 -0.285,0.234 -0.652,0.355 -1.078,0.355 -0.352,0.004 -0.754,-0.074 -1.207,-0.234 -0.82,-0.285 -1.844,-0.852 -3.066,-1.703 -1.184,-0.821 -2.051,-1.449 -2.68,-1.832 -0.277,-0.172 -0.492,-0.285 -0.656,-0.34 -0.047,-0.012 -0.028,-0.031 0,-0.047 0.031,-0.016 0.054,-0.02 0.043,0.023 -0.051,0.168 -0.082,0.411 -0.102,0.735 -0.047,0.738 -0.031,1.804 -0.039,3.246 -0.008,1.488 -0.133,2.652 -0.367,3.488 -0.129,0.461 -0.297,0.836 -0.5,1.121 -0.25,0.348 -0.559,0.578 -0.91,0.68 -0.356,0.102 -0.739,0.07 -1.133,-0.098 -0.324,-0.133 -0.664,-0.363 -1.02,-0.687 -0.64,-0.586 -1.359,-1.508 -2.152,-2.77 -0.766,-1.218 -1.316,-2.136 -1.742,-2.738 -0.188,-0.262 -0.344,-0.453 -0.473,-0.566 -0.035,-0.032 -0.012,-0.043 0.02,-0.047 0.031,0 0.058,0.008 0.027,0.043 -0.113,0.132 -0.234,0.343 -0.379,0.632 -0.332,0.661 -0.738,1.649 -1.309,2.973 -0.589,1.363 -1.164,2.387 -1.707,3.063 -0.3,0.375 -0.601,0.652 -0.902,0.836 -0.363,0.222 -0.738,0.312 -1.101,0.269 -0.364,-0.047 -0.708,-0.226 -1.004,-0.535 -0.246,-0.25 -0.469,-0.594 -0.668,-1.031 -0.36,-0.789 -0.661,-1.922 -0.891,-3.391 -0.227,-1.426 -0.375,-2.484 -0.531,-3.207 -0.071,-0.312 -0.137,-0.551 -0.215,-0.707 -0.02,-0.039 0.008,-0.043 0.039,-0.031 0.027,0.011 0.051,0.027 0.008,0.047 -0.156,0.078 -0.352,0.226 -0.598,0.433 -0.566,0.477 -1.324,1.231 -2.367,2.223 -1.082,1.027 -2.008,1.742 -2.77,2.148 -0.425,0.227 -0.812,0.368 -1.16,0.418 -0.422,0.063 -0.804,-0.004 -1.121,-0.187 -0.316,-0.184 -0.558,-0.485 -0.711,-0.883 -0.129,-0.328 -0.199,-0.734 -0.211,-1.215 -0.019,-0.863 0.149,-2.023 0.508,-3.469 0.352,-1.398 0.633,-2.429 0.77,-3.152 0.058,-0.32 0.089,-0.562 0.082,-0.734 -0.004,-0.047 0.023,-0.039 0.047,-0.016 0.023,0.02 0.035,0.043 -0.012,0.047 -0.172,0.012 -0.41,0.066 -0.719,0.164 -0.707,0.215 -1.699,0.609 -3.051,1.113 -1.394,0.52 -2.527,0.817 -3.39,0.891 -0.481,0.043 -0.887,0.019 -1.231,-0.07 -0.41,-0.11 -0.738,-0.317 -0.957,-0.614 -0.219,-0.293 -0.324,-0.664 -0.308,-1.09 0.011,-0.351 0.105,-0.753 0.285,-1.199 0.32,-0.804 0.926,-1.804 1.828,-2.992 0.871,-1.148 1.531,-1.988 1.941,-2.602 0.18,-0.269 0.305,-0.48 0.364,-0.64 0.015,-0.047 0.035,-0.027 0.05,0.004 0.012,0.027 0.016,0.054 -0.027,0.039 -0.164,-0.059 -0.406,-0.098 -0.73,-0.133 -0.735,-0.078 -1.801,-0.105 -3.243,-0.172 -1.488,-0.066 -2.644,-0.238 -3.468,-0.508 -0.454,-0.148 -0.825,-0.332 -1.102,-0.547 -0.336,-0.261 -0.555,-0.582 -0.641,-0.937 -0.086,-0.359 -0.035,-0.742 0.145,-1.129 0.148,-0.316 0.391,-0.648 0.73,-0.988 0.61,-0.614 1.563,-1.297 2.856,-2.035 1.25,-0.715 2.187,-1.227 2.808,-1.633 0.27,-0.176 0.465,-0.321 0.586,-0.449 0.032,-0.032 0.043,-0.008 0.043,0.023 0,0.031 -0.007,0.059 -0.043,0.027 -0.129,-0.117 -0.332,-0.25 -0.617,-0.406 -0.644,-0.359 -1.617,-0.805 -2.914,-1.43 -1.344,-0.644 -2.34,-1.261 -2.992,-1.832 -0.359,-0.312 -0.629,-0.625 -0.797,-0.933 -0.211,-0.375 -0.285,-0.75 -0.223,-1.113 0.059,-0.364 0.254,-0.696 0.575,-0.981 0.261,-0.234 0.613,-0.445 1.058,-0.625 0.801,-0.324 1.946,-0.578 3.426,-0.754 1.43,-0.164 2.496,-0.269 3.223,-0.398 0.316,-0.055 0.554,-0.114 0.715,-0.18 0.042,-0.02 0.042,0.008 0.031,0.035 -0.012,0.031 -0.031,0.051 -0.051,0.008 -0.07,-0.156 -0.207,-0.359 -0.406,-0.613 -0.453,-0.586 -1.172,-1.375 -2.121,-2.461 -0.981,-1.121 -1.661,-2.074 -2.036,-2.856 -0.207,-0.433 -0.332,-0.824 -0.367,-1.172 -0.047,-0.425 0.035,-0.804 0.235,-1.113 0.195,-0.308 0.507,-0.539 0.91,-0.676 0.332,-0.113 0.738,-0.168 1.219,-0.16 0.867,0.016 2.019,0.231 3.445,0.653 l 0.641,0.187 -0.379,1.277 -0.637,-0.191"
                           style="fill:#000000;fill-opacity:1;fill-rule:nonzero;stroke:none"
                           id="path5235" /></g></g></g></g></g></g></g></g></g></g><g
       id="g5251"><path
         d="m 190.691,42.215 5.653,-0.11 -2.895,-4.793"
         style="fill:none;stroke:#000000;stroke-width:0.8;stroke-linecap:round;stroke-linejoin:miter;stroke-miterlimit:4;stroke-dasharray:none;stroke-opacity:1"
         id="path5253" /><path
         d="m 157.559,23.019 5.652,-0.109 -2.895,-4.793"
         style="fill:none;stroke:#000000;stroke-width:0.8;stroke-linecap:round;stroke-linejoin:miter;stroke-miterlimit:4;stroke-dasharray:none;stroke-opacity:1"
         id="path5255" /><path
         d="m 140.387,13.121 5.652,-0.11 -2.894,-4.792"
         style="fill:none;stroke:#000000;stroke-width:0.8;stroke-linecap:round;stroke-linejoin:miter;stroke-miterlimit:4;stroke-dasharray:none;stroke-opacity:1"
         id="path5257" /><path
         d="m 226.754,63.023 5.652,-0.109 -2.894,-4.793"
         style="fill:none;stroke:#000000;stroke-width:0.8;stroke-linecap:round;stroke-linejoin:miter;stroke-miterlimit:4;stroke-dasharray:none;stroke-opacity:1"
         id="path5259" /><path
         d="M 276.797,4.719 380.777,64.75"
         style="fill:none;stroke:#000000;stroke-width:1.2;stroke-linecap:butt;stroke-linejoin:miter;stroke-miterlimit:4;stroke-dasharray:none;stroke-opacity:1"
         id="path5261" /><path
         d="m 332.875,37.551 7.141,-12.368"
         style="fill:none;stroke:#000000;stroke-width:0.8;stroke-linecap:butt;stroke-linejoin:miter;stroke-miterlimit:4;stroke-dasharray:1.6, 1.6;stroke-dashoffset:0;stroke-opacity:1"
         id="path5263" /><g
         id="g5265"
         transform="matrix(0.659052,-1,-1,-0.659052,0,109.88257)"><path
           d="m 214.554,-200.02 3.796,3.795"
           style="fill:none;stroke:#000000;stroke-width:0.667978;stroke-linecap:round;stroke-linejoin:miter;stroke-miterlimit:4;stroke-dasharray:none;stroke-opacity:1"
           id="path5267" /></g><g
         id="g5269"
         transform="matrix(0.659052,-1,-1,-0.659052,0,109.88257)"><path
           d="m 218.351,-200.021 -3.794,3.796"
           style="fill:none;stroke:#000000;stroke-width:0.667978;stroke-linecap:round;stroke-linejoin:miter;stroke-miterlimit:4;stroke-dasharray:none;stroke-opacity:1"
           id="path5271" /></g></g><g
       id="g5273"><g
         id="g5275"
         clip-path="url(#clipPath5279)"><g
           id="g5281"
           transform="translate(0,-0.117432)"><g
             id="g5283" /><g
             id="g5309"><g
               clip-path="url(#clipPath5287)"
               id="g5307"><g
                 id="g5305"><g
                   id="g5303"><g
                     id="g5293" /><g
                     id="g5301"><g
                       clip-path="url(#clipPath5291)"
                       id="g5299"><g
                         id="g5297"><path
                           d="m 309.145,24.551 c -1.313,-0.387 -2.344,-0.582 -3.09,-0.598 -0.325,-0.004 -0.582,0.027 -0.77,0.09 -0.117,0.039 -0.187,0.078 -0.219,0.133 -0.035,0.054 -0.043,0.133 -0.031,0.258 0.02,0.195 0.102,0.441 0.242,0.734 0.325,0.672 0.934,1.527 1.836,2.559 0.969,1.101 1.703,1.914 2.172,2.515 0.262,0.34 0.453,0.629 0.57,0.883 0.168,0.367 0.196,0.719 0.079,1.02 -0.118,0.304 -0.375,0.546 -0.743,0.707 -0.257,0.109 -0.593,0.195 -1.015,0.269 -0.754,0.137 -1.84,0.242 -3.301,0.41 -1.359,0.16 -2.383,0.383 -3.074,0.664 -0.305,0.125 -0.528,0.254 -0.676,0.383 -0.094,0.086 -0.137,0.149 -0.148,0.211 -0.012,0.063 0.011,0.141 0.07,0.246 0.098,0.172 0.269,0.367 0.516,0.582 0.562,0.492 1.457,1.039 2.691,1.633 1.324,0.637 2.316,1.094 2.984,1.465 0.375,0.207 0.664,0.398 0.867,0.586 0.301,0.273 0.461,0.586 0.473,0.91 0.012,0.324 -0.129,0.648 -0.406,0.941 -0.192,0.2 -0.465,0.411 -0.824,0.645 -0.641,0.418 -1.602,0.945 -2.875,1.672 -1.192,0.679 -2.047,1.289 -2.571,1.816 -0.23,0.235 -0.386,0.438 -0.472,0.617 -0.051,0.114 -0.067,0.188 -0.055,0.25 0.016,0.063 0.066,0.125 0.164,0.2 0.156,0.121 0.391,0.234 0.699,0.336 0.711,0.23 1.75,0.382 3.117,0.445 1.469,0.066 2.559,0.097 3.321,0.176 0.426,0.046 0.769,0.109 1.031,0.199 0.379,0.137 0.652,0.359 0.789,0.652 0.141,0.293 0.137,0.645 -0.004,1.024 -0.097,0.261 -0.269,0.562 -0.508,0.918 -0.425,0.636 -1.101,1.496 -1.988,2.668 -0.828,1.089 -1.375,1.984 -1.652,2.679 -0.121,0.305 -0.184,0.551 -0.188,0.75 -0.008,0.125 0.008,0.203 0.047,0.254 0.039,0.051 0.11,0.086 0.227,0.117 0.191,0.051 0.449,0.063 0.773,0.035 0.746,-0.066 1.762,-0.335 3.043,-0.812 1.375,-0.516 2.395,-0.914 3.125,-1.141 0.41,-0.125 0.746,-0.203 1.024,-0.218 0.402,-0.028 0.742,0.07 0.984,0.285 0.242,0.219 0.375,0.543 0.394,0.945 0.016,0.277 -0.023,0.625 -0.101,1.043 -0.145,0.754 -0.43,1.809 -0.785,3.234 -0.336,1.329 -0.489,2.368 -0.469,3.114 0.008,0.324 0.047,0.578 0.117,0.765 0.047,0.114 0.09,0.18 0.145,0.211 0.054,0.035 0.136,0.039 0.258,0.024 0.195,-0.032 0.437,-0.121 0.722,-0.274 0.66,-0.351 1.488,-0.996 2.481,-1.941 1.066,-1.012 1.843,-1.781 2.429,-2.274 0.325,-0.277 0.606,-0.48 0.856,-0.605 0.359,-0.18 0.711,-0.223 1.015,-0.121 0.309,0.105 0.559,0.351 0.735,0.715 0.121,0.25 0.222,0.582 0.312,1 0.164,0.75 0.317,1.832 0.547,3.281 0.215,1.352 0.481,2.367 0.789,3.047 0.137,0.297 0.274,0.515 0.41,0.66 0.086,0.086 0.153,0.129 0.215,0.141 0.067,0.007 0.141,-0.02 0.246,-0.086 0.168,-0.102 0.356,-0.282 0.559,-0.535 0.469,-0.583 0.976,-1.497 1.519,-2.754 0.582,-1.352 1,-2.364 1.344,-3.047 0.192,-0.383 0.371,-0.68 0.551,-0.891 0.258,-0.308 0.562,-0.484 0.887,-0.508 0.324,-0.027 0.652,0.102 0.957,0.367 0.211,0.184 0.433,0.45 0.679,0.797 0.446,0.625 1.008,1.559 1.789,2.805 0.727,1.16 1.372,1.988 1.922,2.492 0.243,0.223 0.453,0.367 0.637,0.446 0.113,0.046 0.191,0.062 0.25,0.043 0.063,-0.016 0.121,-0.071 0.191,-0.168 0.118,-0.165 0.219,-0.403 0.309,-0.715 0.199,-0.719 0.309,-1.762 0.316,-3.133 0.004,-1.469 -0.007,-2.563 0.04,-3.324 0.027,-0.426 0.074,-0.77 0.156,-1.035 0.121,-0.387 0.332,-0.668 0.617,-0.821 0.289,-0.148 0.641,-0.16 1.023,-0.035 0.266,0.086 0.575,0.242 0.942,0.469 0.652,0.398 1.539,1.039 2.742,1.875 1.125,0.781 2.043,1.293 2.746,1.543 0.309,0.105 0.563,0.16 0.762,0.16 0.121,-0.004 0.199,-0.02 0.25,-0.059 0.047,-0.043 0.082,-0.113 0.109,-0.234 0.039,-0.191 0.043,-0.453 0,-0.773 -0.097,-0.743 -0.406,-1.747 -0.937,-3.008 -0.571,-1.352 -1.012,-2.352 -1.266,-3.075 -0.144,-0.402 -0.234,-0.738 -0.262,-1.015 -0.043,-0.402 0.039,-0.742 0.246,-0.992 0.207,-0.254 0.524,-0.399 0.93,-0.438 0.274,-0.023 0.621,0 1.047,0.063 0.754,0.113 1.82,0.351 3.258,0.652 1.344,0.277 2.387,0.387 3.133,0.34 0.324,-0.024 0.578,-0.074 0.757,-0.152 0.114,-0.047 0.18,-0.094 0.207,-0.153 0.032,-0.055 0.036,-0.133 0.012,-0.254 -0.039,-0.195 -0.14,-0.433 -0.304,-0.715 -0.379,-0.644 -1.055,-1.445 -2.04,-2.398 l -0.476,-0.461 0.922,-0.957 0.48,0.461 c 1.071,1.039 1.821,1.934 2.262,2.68 0.242,0.414 0.398,0.797 0.461,1.14 0.082,0.422 0.031,0.805 -0.141,1.129 -0.172,0.324 -0.461,0.578 -0.851,0.75 -0.325,0.137 -0.723,0.227 -1.203,0.258 -0.864,0.055 -2.032,-0.063 -3.489,-0.367 -1.41,-0.293 -2.453,-0.528 -3.183,-0.637 -0.321,-0.047 -0.563,-0.066 -0.735,-0.051 -0.047,0.004 -0.039,-0.023 -0.019,-0.047 0.019,-0.023 0.043,-0.039 0.047,0.008 0.019,0.172 0.086,0.406 0.195,0.715 0.246,0.695 0.68,1.672 1.238,3 0.578,1.371 0.918,2.492 1.032,3.352 0.058,0.476 0.05,0.886 -0.024,1.23 -0.09,0.414 -0.285,0.75 -0.57,0.981 -0.285,0.23 -0.653,0.351 -1.078,0.355 -0.352,0.004 -0.754,-0.074 -1.207,-0.234 -0.817,-0.285 -1.844,-0.852 -3.067,-1.703 -1.183,-0.825 -2.047,-1.45 -2.679,-1.836 -0.274,-0.168 -0.493,-0.282 -0.657,-0.336 -0.043,-0.016 -0.027,-0.035 0.004,-0.051 0.028,-0.012 0.051,-0.016 0.039,0.027 -0.051,0.168 -0.082,0.41 -0.101,0.735 -0.047,0.734 -0.032,1.804 -0.039,3.246 -0.004,1.488 -0.129,2.652 -0.368,3.488 -0.128,0.461 -0.296,0.836 -0.5,1.121 -0.246,0.348 -0.558,0.578 -0.91,0.68 -0.355,0.101 -0.738,0.066 -1.133,-0.098 -0.324,-0.137 -0.664,-0.367 -1.019,-0.687 -0.637,-0.586 -1.359,-1.508 -2.149,-2.77 -0.769,-1.223 -1.316,-2.137 -1.746,-2.738 -0.187,-0.266 -0.343,-0.453 -0.472,-0.571 -0.035,-0.031 -0.012,-0.039 0.019,-0.042 0.032,0 0.059,0.003 0.028,0.042 -0.11,0.133 -0.235,0.344 -0.379,0.633 -0.332,0.66 -0.739,1.649 -1.309,2.969 -0.59,1.367 -1.16,2.391 -1.703,3.066 -0.301,0.372 -0.605,0.653 -0.902,0.836 -0.368,0.223 -0.743,0.313 -1.106,0.266 -0.363,-0.043 -0.707,-0.227 -1.004,-0.531 -0.246,-0.25 -0.468,-0.598 -0.668,-1.035 -0.355,-0.786 -0.66,-1.918 -0.89,-3.391 -0.227,-1.422 -0.375,-2.48 -0.532,-3.203 -0.07,-0.317 -0.136,-0.551 -0.211,-0.707 -0.023,-0.043 0.004,-0.043 0.036,-0.031 0.031,0.011 0.05,0.027 0.007,0.046 -0.152,0.079 -0.351,0.227 -0.597,0.434 -0.563,0.477 -1.324,1.227 -2.367,2.223 -1.079,1.023 -2.008,1.742 -2.77,2.148 -0.426,0.227 -0.812,0.363 -1.16,0.414 -0.422,0.063 -0.801,0 -1.121,-0.183 -0.317,-0.188 -0.559,-0.485 -0.711,-0.883 -0.129,-0.328 -0.199,-0.735 -0.211,-1.215 -0.02,-0.867 0.148,-2.023 0.508,-3.469 0.351,-1.398 0.633,-2.429 0.769,-3.156 0.059,-0.316 0.09,-0.559 0.082,-0.734 0,-0.047 0.024,-0.036 0.047,-0.016 0.024,0.023 0.035,0.047 -0.012,0.051 -0.171,0.008 -0.41,0.066 -0.718,0.16 -0.707,0.219 -1.699,0.613 -3.051,1.117 -1.395,0.52 -2.527,0.816 -3.391,0.891 -0.476,0.043 -0.886,0.015 -1.226,-0.071 -0.414,-0.109 -0.739,-0.316 -0.961,-0.613 -0.219,-0.293 -0.324,-0.664 -0.309,-1.09 0.012,-0.351 0.106,-0.754 0.285,-1.199 0.321,-0.805 0.93,-1.805 1.829,-2.992 0.871,-1.149 1.531,-1.988 1.941,-2.602 0.18,-0.269 0.305,-0.48 0.363,-0.644 0.02,-0.043 0.035,-0.024 0.051,0.008 0.012,0.027 0.016,0.054 -0.027,0.039 -0.164,-0.059 -0.407,-0.098 -0.727,-0.133 -0.734,-0.078 -1.805,-0.106 -3.246,-0.172 -1.484,-0.066 -2.645,-0.242 -3.465,-0.508 -0.457,-0.148 -0.824,-0.332 -1.105,-0.551 -0.336,-0.261 -0.555,-0.578 -0.641,-0.933 -0.086,-0.36 -0.035,-0.742 0.145,-1.129 0.148,-0.32 0.39,-0.649 0.73,-0.988 0.609,-0.618 1.563,-1.297 2.856,-2.036 1.25,-0.718 2.187,-1.23 2.808,-1.632 0.27,-0.176 0.465,-0.325 0.586,-0.45 0.031,-0.035 0.043,-0.007 0.043,0.024 0,0.031 -0.008,0.058 -0.043,0.023 -0.125,-0.117 -0.332,-0.246 -0.617,-0.402 -0.645,-0.359 -1.617,-0.805 -2.914,-1.43 -1.344,-0.648 -2.34,-1.261 -2.992,-1.832 -0.36,-0.316 -0.629,-0.629 -0.797,-0.933 -0.207,-0.375 -0.285,-0.754 -0.223,-1.114 0.063,-0.363 0.254,-0.699 0.574,-0.98 0.262,-0.235 0.614,-0.445 1.059,-0.625 0.805,-0.328 1.945,-0.582 3.426,-0.754 1.433,-0.168 2.496,-0.27 3.222,-0.398 0.321,-0.055 0.555,-0.114 0.715,-0.184 0.043,-0.016 0.043,0.008 0.031,0.039 -0.011,0.031 -0.027,0.051 -0.046,0.008 -0.075,-0.16 -0.211,-0.36 -0.411,-0.617 -0.453,-0.582 -1.171,-1.371 -2.121,-2.457 -0.98,-1.122 -1.66,-2.075 -2.035,-2.856 -0.207,-0.433 -0.328,-0.824 -0.367,-1.176 -0.043,-0.422 0.035,-0.8 0.234,-1.109 0.196,-0.313 0.508,-0.539 0.91,-0.68 0.333,-0.113 0.743,-0.164 1.219,-0.156 0.867,0.016 2.02,0.23 3.449,0.648 l 0.637,0.192 -0.379,1.273 -0.636,-0.187"
                           style="fill:#000000;fill-opacity:1;fill-rule:nonzero;stroke:none"
                           id="path5295" /></g></g></g></g></g></g></g></g></g></g><g
       id="g5311"><path
         d="m 339.504,44.238 5.652,-0.109 -2.894,-4.793"
         style="fill:none;stroke:#000000;stroke-width:0.8;stroke-linecap:round;stroke-linejoin:miter;stroke-miterlimit:4;stroke-dasharray:none;stroke-opacity:1"
         id="path5313" /><path
         d="m 285.516,13.047 5.648,-0.11 -2.891,-4.793"
         style="fill:none;stroke:#000000;stroke-width:0.8;stroke-linecap:round;stroke-linejoin:miter;stroke-miterlimit:4;stroke-dasharray:none;stroke-opacity:1"
         id="path5315" /><path
         d="m 317.77,31.719 5.652,-0.11 -2.891,-4.793"
         style="fill:none;stroke:#000000;stroke-width:0.8;stroke-linecap:round;stroke-linejoin:miter;stroke-miterlimit:4;stroke-dasharray:none;stroke-opacity:1"
         id="path5317" /><path
         d="m 364.852,58.902 5.652,-0.109 -2.891,-4.789"
         style="fill:none;stroke:#000000;stroke-width:0.8;stroke-linecap:round;stroke-linejoin:miter;stroke-miterlimit:4;stroke-dasharray:none;stroke-opacity:1"
         id="path5319" /><path
         d="m 173.027,27.789 c 0,-0.84 -0.679,-1.52 -1.515,-1.52 -0.84,0 -1.52,0.68 -1.52,1.52 0,0.84 0.68,1.515 1.52,1.515 0.836,0 1.515,-0.675 1.515,-1.515 z"
         style="fill:#000000;fill-opacity:1;fill-rule:nonzero;stroke:none"
         id="path5321" /><path
         d="m 311.063,23.898 c 0,-0.84 -0.68,-1.519 -1.52,-1.519 -0.836,0 -1.516,0.679 -1.516,1.519 0,0.836 0.68,1.516 1.516,1.516 0.84,0 1.52,-0.68 1.52,-1.516 z"
         style="fill:#000000;fill-opacity:1;fill-rule:nonzero;stroke:none"
         id="path5323" /><path
         d="m 425.559,14.281 5.652,-0.109 -2.895,-4.789"
         style="fill:none;stroke:#000000;stroke-width:0.8;stroke-linecap:round;stroke-linejoin:miter;stroke-miterlimit:4;stroke-dasharray:none;stroke-opacity:1"
         id="path5325" /><path
         d="M 414.895,4.719 518.875,64.75"
         style="fill:none;stroke:#000000;stroke-width:1.2;stroke-linecap:butt;stroke-linejoin:miter;stroke-miterlimit:4;stroke-dasharray:none;stroke-opacity:1"
         id="path5327" /><path
         d="m 506.117,57.836 7.141,-12.367"
         style="fill:none;stroke:#000000;stroke-width:0.8;stroke-linecap:butt;stroke-linejoin:miter;stroke-miterlimit:4;stroke-dasharray:1.6, 1.6;stroke-dashoffset:0;stroke-opacity:1"
         id="path5329" /><g
         id="g5331"
         transform="matrix(0.659052,-1,-1,-0.659052,0,109.88257)"><path
           d="m 280.012,-330.121 3.796,3.794"
           style="fill:none;stroke:#000000;stroke-width:0.667978;stroke-linecap:round;stroke-linejoin:miter;stroke-miterlimit:4;stroke-dasharray:none;stroke-opacity:1"
           id="path5333" /></g><g
         id="g5335"
         transform="matrix(0.659052,-1,-1,-0.659052,0,109.88257)"><path
           d="m 283.81,-330.122 -3.795,3.796"
           style="fill:none;stroke:#000000;stroke-width:0.667978;stroke-linecap:round;stroke-linejoin:miter;stroke-miterlimit:4;stroke-dasharray:none;stroke-opacity:1"
           id="path5337" /></g></g><g
       id="g5339"><g
         id="g5341"
         clip-path="url(#clipPath5345)"><g
           id="g5347"
           transform="translate(0,-0.117432)"><g
             id="g5349" /><g
             id="g5375"><g
               clip-path="url(#clipPath5353)"
               id="g5373"><g
                 id="g5371"><g
                   id="g5369"><g
                     id="g5359" /><g
                     id="g5367"><g
                       clip-path="url(#clipPath5357)"
                       id="g5365"><g
                         id="g5363"><path
                           d="m 447.242,24.551 c -1.312,-0.387 -2.344,-0.582 -3.09,-0.598 -0.324,-0.004 -0.582,0.027 -0.769,0.09 -0.117,0.039 -0.184,0.078 -0.219,0.133 -0.035,0.054 -0.043,0.133 -0.031,0.258 0.019,0.195 0.101,0.441 0.242,0.734 0.324,0.672 0.934,1.527 1.836,2.559 0.969,1.101 1.703,1.914 2.172,2.515 0.265,0.34 0.457,0.629 0.57,0.883 0.168,0.367 0.195,0.719 0.078,1.02 -0.117,0.304 -0.371,0.546 -0.742,0.707 -0.258,0.109 -0.594,0.195 -1.016,0.269 -0.753,0.137 -1.839,0.242 -3.296,0.41 -1.364,0.16 -2.387,0.383 -3.079,0.664 -0.304,0.125 -0.527,0.254 -0.675,0.383 -0.09,0.086 -0.137,0.149 -0.149,0.211 -0.011,0.063 0.012,0.141 0.074,0.246 0.094,0.172 0.266,0.367 0.512,0.582 0.563,0.492 1.457,1.039 2.692,1.633 1.324,0.637 2.316,1.094 2.984,1.465 0.375,0.207 0.664,0.398 0.867,0.586 0.301,0.273 0.465,0.586 0.477,0.91 0.008,0.324 -0.133,0.648 -0.41,0.941 -0.192,0.2 -0.465,0.411 -0.825,0.645 -0.64,0.418 -1.601,0.945 -2.875,1.672 -1.187,0.679 -2.043,1.289 -2.57,1.816 -0.23,0.235 -0.387,0.438 -0.469,0.617 -0.054,0.114 -0.07,0.188 -0.054,0.25 0.011,0.063 0.062,0.125 0.16,0.2 0.156,0.121 0.39,0.234 0.699,0.336 0.711,0.23 1.75,0.382 3.117,0.445 1.469,0.066 2.563,0.097 3.324,0.176 0.426,0.046 0.766,0.109 1.028,0.199 0.383,0.137 0.652,0.359 0.793,0.652 0.136,0.293 0.132,0.645 -0.008,1.024 -0.098,0.261 -0.266,0.562 -0.504,0.918 -0.426,0.636 -1.106,1.496 -1.992,2.668 -0.828,1.089 -1.375,1.984 -1.649,2.679 -0.121,0.305 -0.187,0.551 -0.191,0.75 -0.004,0.125 0.008,0.203 0.047,0.254 0.039,0.051 0.109,0.086 0.226,0.117 0.192,0.051 0.45,0.063 0.778,0.035 0.742,-0.066 1.758,-0.335 3.039,-0.812 1.379,-0.516 2.394,-0.914 3.125,-1.141 0.41,-0.125 0.746,-0.203 1.023,-0.218 0.406,-0.028 0.742,0.07 0.985,0.285 0.242,0.219 0.378,0.543 0.398,0.945 0.012,0.277 -0.027,0.625 -0.105,1.043 -0.145,0.754 -0.43,1.809 -0.786,3.234 -0.332,1.329 -0.488,2.368 -0.468,3.114 0.007,0.324 0.047,0.578 0.121,0.765 0.043,0.114 0.086,0.18 0.14,0.211 0.055,0.035 0.137,0.039 0.258,0.024 0.195,-0.032 0.438,-0.121 0.727,-0.274 0.656,-0.351 1.484,-0.996 2.476,-1.941 1.067,-1.012 1.844,-1.781 2.43,-2.274 0.324,-0.277 0.609,-0.48 0.855,-0.605 0.36,-0.18 0.711,-0.223 1.02,-0.121 0.305,0.105 0.559,0.351 0.734,0.715 0.121,0.25 0.219,0.582 0.313,1 0.164,0.75 0.312,1.832 0.543,3.281 0.215,1.352 0.48,2.367 0.793,3.047 0.133,0.297 0.269,0.515 0.41,0.66 0.086,0.086 0.148,0.129 0.215,0.141 0.062,0.007 0.137,-0.02 0.242,-0.086 0.168,-0.102 0.355,-0.282 0.559,-0.535 0.468,-0.583 0.98,-1.497 1.523,-2.754 0.578,-1.352 0.996,-2.364 1.34,-3.047 0.191,-0.383 0.371,-0.68 0.551,-0.891 0.261,-0.308 0.566,-0.484 0.886,-0.508 0.325,-0.027 0.653,0.102 0.957,0.367 0.211,0.184 0.434,0.45 0.68,0.797 0.445,0.625 1.008,1.559 1.789,2.805 0.731,1.16 1.371,1.988 1.922,2.492 0.242,0.223 0.453,0.367 0.637,0.446 0.113,0.046 0.191,0.062 0.254,0.043 0.062,-0.016 0.117,-0.071 0.191,-0.168 0.113,-0.165 0.215,-0.403 0.305,-0.715 0.203,-0.719 0.308,-1.762 0.316,-3.133 0.008,-1.469 -0.008,-2.563 0.039,-3.324 0.028,-0.426 0.078,-0.77 0.156,-1.035 0.122,-0.387 0.332,-0.668 0.622,-0.821 0.285,-0.148 0.636,-0.16 1.023,-0.035 0.262,0.086 0.57,0.242 0.937,0.469 0.653,0.398 1.54,1.039 2.747,1.875 1.121,0.781 2.039,1.293 2.742,1.543 0.308,0.105 0.562,0.16 0.761,0.16 0.122,-0.004 0.2,-0.02 0.25,-0.059 0.051,-0.043 0.083,-0.113 0.11,-0.234 0.043,-0.191 0.043,-0.453 0,-0.773 -0.094,-0.743 -0.406,-1.747 -0.938,-3.008 -0.57,-1.352 -1.011,-2.352 -1.265,-3.075 -0.145,-0.402 -0.235,-0.738 -0.262,-1.015 -0.043,-0.402 0.039,-0.742 0.246,-0.992 0.207,-0.254 0.527,-0.399 0.93,-0.438 0.277,-0.023 0.621,0 1.047,0.063 0.757,0.113 1.824,0.351 3.261,0.652 1.34,0.277 2.383,0.387 3.129,0.34 0.325,-0.024 0.578,-0.074 0.762,-0.152 0.113,-0.047 0.176,-0.094 0.203,-0.153 0.031,-0.055 0.035,-0.133 0.012,-0.254 -0.039,-0.195 -0.137,-0.433 -0.305,-0.715 -0.375,-0.644 -1.055,-1.445 -2.039,-2.398 l -0.476,-0.461 0.921,-0.957 0.481,0.461 c 1.07,1.039 1.824,1.934 2.262,2.68 0.242,0.414 0.398,0.797 0.464,1.14 0.079,0.422 0.032,0.805 -0.14,1.129 -0.172,0.324 -0.465,0.578 -0.856,0.75 -0.32,0.137 -0.722,0.227 -1.203,0.258 -0.863,0.055 -2.027,-0.063 -3.488,-0.367 -1.41,-0.293 -2.453,-0.528 -3.184,-0.637 -0.32,-0.047 -0.562,-0.066 -0.734,-0.051 -0.047,0.004 -0.039,-0.023 -0.02,-0.047 0.02,-0.023 0.043,-0.039 0.051,0.008 0.016,0.172 0.082,0.406 0.192,0.715 0.246,0.695 0.679,1.672 1.238,3 0.578,1.371 0.918,2.492 1.031,3.352 0.063,0.476 0.055,0.886 -0.023,1.23 -0.09,0.414 -0.285,0.75 -0.571,0.981 -0.285,0.23 -0.652,0.351 -1.078,0.355 -0.351,0.004 -0.754,-0.074 -1.207,-0.234 -0.816,-0.285 -1.843,-0.852 -3.066,-1.703 -1.184,-0.825 -2.047,-1.45 -2.68,-1.836 -0.273,-0.168 -0.492,-0.282 -0.656,-0.336 -0.043,-0.016 -0.027,-0.035 0.004,-0.051 0.027,-0.012 0.055,-0.016 0.039,0.027 -0.051,0.168 -0.082,0.41 -0.102,0.735 -0.047,0.734 -0.031,1.804 -0.039,3.246 -0.004,1.488 -0.129,2.652 -0.363,3.488 -0.133,0.461 -0.301,0.836 -0.504,1.121 -0.246,0.348 -0.559,0.578 -0.91,0.68 -0.356,0.101 -0.738,0.066 -1.133,-0.098 -0.324,-0.137 -0.664,-0.367 -1.019,-0.687 -0.637,-0.586 -1.36,-1.508 -2.149,-2.77 -0.765,-1.223 -1.316,-2.137 -1.746,-2.738 -0.187,-0.266 -0.34,-0.453 -0.473,-0.571 -0.035,-0.031 -0.011,-0.039 0.02,-0.042 0.035,0 0.059,0.003 0.027,0.042 -0.109,0.133 -0.234,0.344 -0.379,0.633 -0.332,0.66 -0.734,1.649 -1.308,2.969 -0.59,1.367 -1.16,2.391 -1.703,3.066 -0.301,0.372 -0.602,0.653 -0.903,0.836 -0.363,0.223 -0.738,0.313 -1.105,0.266 -0.363,-0.043 -0.703,-0.227 -1.004,-0.531 -0.242,-0.25 -0.465,-0.598 -0.664,-1.035 -0.36,-0.786 -0.66,-1.918 -0.895,-3.391 -0.226,-1.422 -0.371,-2.48 -0.531,-3.203 -0.07,-0.317 -0.137,-0.551 -0.211,-0.707 -0.023,-0.043 0.004,-0.043 0.035,-0.031 0.032,0.011 0.051,0.027 0.008,0.046 -0.152,0.079 -0.348,0.227 -0.598,0.434 -0.562,0.477 -1.324,1.227 -2.367,2.223 -1.078,1.023 -2.004,1.742 -2.769,2.148 -0.422,0.227 -0.813,0.363 -1.16,0.414 -0.422,0.063 -0.801,0 -1.118,-0.183 -0.32,-0.188 -0.562,-0.485 -0.714,-0.883 -0.129,-0.328 -0.196,-0.735 -0.207,-1.215 -0.024,-0.867 0.144,-2.023 0.507,-3.469 0.348,-1.398 0.629,-2.429 0.766,-3.156 0.062,-0.316 0.09,-0.559 0.082,-0.734 0,-0.047 0.023,-0.036 0.047,-0.016 0.023,0.023 0.039,0.047 -0.008,0.051 -0.176,0.008 -0.41,0.066 -0.723,0.16 -0.707,0.219 -1.699,0.613 -3.05,1.117 -1.395,0.52 -2.528,0.816 -3.391,0.891 -0.477,0.043 -0.887,0.015 -1.227,-0.071 -0.414,-0.109 -0.738,-0.316 -0.957,-0.613 -0.218,-0.293 -0.324,-0.664 -0.312,-1.09 0.012,-0.351 0.109,-0.754 0.285,-1.199 0.32,-0.805 0.93,-1.805 1.828,-2.992 0.871,-1.149 1.531,-1.988 1.942,-2.602 0.183,-0.269 0.304,-0.48 0.367,-0.644 0.015,-0.043 0.035,-0.024 0.047,0.008 0.015,0.027 0.015,0.054 -0.028,0.039 -0.164,-0.059 -0.406,-0.098 -0.726,-0.133 -0.735,-0.078 -1.805,-0.106 -3.242,-0.172 -1.489,-0.066 -2.649,-0.242 -3.469,-0.508 -0.457,-0.148 -0.824,-0.332 -1.102,-0.551 -0.34,-0.261 -0.554,-0.578 -0.64,-0.933 -0.086,-0.36 -0.039,-0.742 0.14,-1.129 0.149,-0.32 0.395,-0.649 0.731,-0.988 0.609,-0.618 1.562,-1.297 2.855,-2.036 1.25,-0.718 2.192,-1.23 2.809,-1.632 0.269,-0.176 0.469,-0.325 0.586,-0.45 0.031,-0.035 0.043,-0.007 0.043,0.024 0,0.031 -0.008,0.058 -0.043,0.023 -0.125,-0.117 -0.332,-0.246 -0.614,-0.402 -0.648,-0.359 -1.617,-0.805 -2.918,-1.43 -1.339,-0.648 -2.339,-1.261 -2.992,-1.832 -0.359,-0.316 -0.625,-0.629 -0.797,-0.933 -0.207,-0.375 -0.281,-0.754 -0.222,-1.114 0.062,-0.363 0.258,-0.699 0.574,-0.98 0.262,-0.235 0.617,-0.445 1.059,-0.625 0.804,-0.328 1.949,-0.582 3.425,-0.754 1.434,-0.168 2.496,-0.27 3.223,-0.398 0.32,-0.055 0.555,-0.114 0.715,-0.184 0.043,-0.016 0.043,0.008 0.031,0.039 -0.012,0.031 -0.027,0.051 -0.047,0.008 -0.074,-0.16 -0.211,-0.36 -0.41,-0.617 -0.453,-0.582 -1.172,-1.371 -2.121,-2.457 -0.981,-1.122 -1.656,-2.075 -2.035,-2.856 -0.207,-0.433 -0.328,-0.824 -0.367,-1.176 -0.043,-0.422 0.035,-0.8 0.234,-1.109 0.199,-0.313 0.508,-0.539 0.91,-0.68 0.332,-0.113 0.742,-0.164 1.223,-0.156 0.863,0.016 2.015,0.23 3.445,0.648 l 0.637,0.192 -0.375,1.273 -0.641,-0.187"
                           style="fill:#000000;fill-opacity:1;fill-rule:nonzero;stroke:none"
                           id="path5361" /></g></g></g></g></g></g></g></g></g></g><g
       id="g5377"><path
         d="m 466.887,38.094 5.652,-0.11 -2.891,-4.789"
         style="fill:none;stroke:#000000;stroke-width:0.8;stroke-linecap:round;stroke-linejoin:miter;stroke-miterlimit:4;stroke-dasharray:none;stroke-opacity:1"
         id="path5379" /><path
         d="m 496.754,55.332 5.652,-0.11 -2.89,-4.793"
         style="fill:none;stroke:#000000;stroke-width:0.8;stroke-linecap:round;stroke-linejoin:miter;stroke-miterlimit:4;stroke-dasharray:none;stroke-opacity:1"
         id="path5381" /><path
         d="m 509.094,62.191 5.652,-0.109 -2.894,-4.793"
         style="fill:none;stroke:#000000;stroke-width:0.8;stroke-linecap:round;stroke-linejoin:miter;stroke-miterlimit:4;stroke-dasharray:none;stroke-opacity:1"
         id="path5383" /><path
         d="m 449.547,24.199 c 0,-0.84 -0.68,-1.52 -1.52,-1.52 -0.836,0 -1.515,0.68 -1.515,1.52 0,0.84 0.679,1.52 1.515,1.52 0.84,0 1.52,-0.68 1.52,-1.52 z"
         style="fill:#000000;fill-opacity:1;fill-rule:nonzero;stroke:none"
         id="path5385" /><path
         d="m 491.332,48.699 c 0,-0.84 -0.68,-1.52 -1.519,-1.52 -0.836,0 -1.516,0.68 -1.516,1.52 0,0.84 0.68,1.52 1.516,1.52 0.839,0 1.519,-0.68 1.519,-1.52 z"
         style="fill:#000000;fill-opacity:1;fill-rule:nonzero;stroke:none"
         id="path5387" /><text
         transform="matrix(1,0,0,-1,5.258054,92.035069)"
         style="font-variant:normal;font-weight:normal;font-size:25.7044px;font-family:'Times New Roman';-inkscape-font-specification:TimesNewRomanPSMT;writing-mode:lr-tb;fill:#000000;fill-opacity:1;fill-rule:nonzero;stroke:none"
         id="text5391"><tspan
           x="0 14.291656 25.653008 32.747425 41.306995 49.892273 65.571968 78.424171 89.759819 98.345093 111.1973 124.04951 130.47562 139.0609 150.44795 159.03322 167.6185 178.95415 190.31549 197.38422 204.47862 217.33084 228.66649 235.09259 255.06493 266.40057 276.3996 286.3472 294.93246 301.35858 314.21078 322.79605 335.64825 347.03531 358.37097 368.37 378.3176 389.70465"
           y="0"
           sodipodi:role="line"
           id="tspan5389">Self-Energy (effective mass) processes</tspan></text><text
         transform="matrix(1,0,0,-1,2.424366,58.992909)"
         style="font-variant:normal;font-weight:normal;font-size:17.6px;font-family:'Times New Roman';-inkscape-font-specification:TimesNewRomanPSMT;writing-mode:lr-tb;fill:#000000;fill-opacity:1;fill-rule:nonzero;stroke:none"
         id="text5395"><tspan
           x="0 5.8783998 13.64 133.5136 139.392 148.192 269.71326 275.59164 283.35327 408.68286 414.56125 423.36127"
           y="0"
           sodipodi:role="line"
           id="tspan5393">(a)(b)(c)(d)</tspan></text><path
         d="m 30.313,113.285 h 350.304 c 16.317,0 29.449,-0.066 29.449,-0.145 V 82.851 c 0,-0.082 -13.132,-0.148 -29.449,-0.148 H 30.313 c -16.317,0 -29.45,0.066 -29.45,0.148 v 30.289 c 0,0.079 13.133,0.145 29.45,0.145 z"
         style="fill:#ffffff;fill-opacity:1;fill-rule:nonzero;stroke:none"
         id="path5397" /></g><g
       id="g6298"
       transform="translate(-78,15)"><path
         style="fill:none;stroke:#000000;stroke-width:0.886801;stroke-linecap:round;stroke-linejoin:miter;stroke-miterlimit:4;stroke-opacity:1"
         d="m 225.73507,-86.516843 c 0.34539,0.759764 1.09379,1.310138 2.01081,1.773584 0.9169,0.464379 1.96582,0.859602 2.73451,1.400408 0.7688,0.53989 1.22977,1.239615 1.31563,2.132634 0.0868,0.893141 -0.18715,1.971111 -0.45715,3.048698 -0.27082,1.076497 -0.49983,2.132171 -0.35178,2.993894 0.1473,0.86064 0.68589,1.520738 1.49969,2.03737 0.8138,0.516659 1.87584,0.906082 2.76515,1.384699 0.88944,0.477701 1.57132,1.062577 1.84934,1.856737 0.27809,0.793195 0.15629,1.794335 -0.093,2.859579 -0.24853,1.066276 -0.58689,2.178126 -0.61558,3.130349 -0.0277,0.952382 0.278,1.731377 0.94039,2.326859 0.6624,0.595477 1.66119,1.017028 2.6139,1.46262 0.95284,0.444625 1.82066,0.934549 2.29808,1.625135 0.47741,0.69059 0.55506,1.588161 0.38945,2.610809 -0.1648,1.022752 -0.54085,2.154083 -0.70659,3.177655 -0.16471,1.022746 -0.0869,1.919413 0.3904,2.610933 0.47647,0.690462 1.34535,1.179556 2.29808,1.625144 0.95271,0.445589 1.95149,0.867113 2.614,1.461689 0.6624,0.595483 0.96799,1.375378 0.93947,2.326699 -0.0277,0.952384 -0.36611,2.06421 -0.61556,3.13038 -0.24853,1.066276 -0.37025,2.066485 -0.0922,2.860641 0.27797,0.794155 0.96093,1.378227 1.8493,1.856707 0.8893,0.478642 1.95045,0.867942 2.76517,1.384701 0.81379,0.516651 1.35144,1.176626 1.49967,2.037396 0.14823,0.860775 -0.0808,1.916464 -0.35177,2.993894 -0.27083,1.076523 -0.54297,2.155691 -0.45716,3.048704 0.0858,0.893009 0.54694,1.5918 1.31565,2.132601 0.76773,0.5407 1.81666,0.935926 2.73461,1.399498 0.9169,0.46438 1.66528,1.014729 2.01082,1.773561"
         id="path4203" /><path
         style="fill:none;fill-rule:evenodd;stroke:#000000;stroke-width:1.28981;stroke-linecap:butt;stroke-linejoin:miter;stroke-miterlimit:4;stroke-dasharray:none;stroke-opacity:1"
         d="m 184.71744,-115.23022 101.29918,71.350099"
         id="path4205" /><g
         transform="matrix(0.90809773,-1.2916193,-2.038568,-1.4332543,392.34863,265.24197)"
         id="g4217"
         style="stroke-width:0.650241;stroke-miterlimit:4;stroke-dasharray:none"><g
           id="g4211"
           transform="matrix(0.17384008,0,0,0.17384008,77.599745,122.5577)"
           style="stroke-width:3.74046;stroke-miterlimit:4;stroke-dasharray:none"><path
             d="m 241.039,134.918 11.832,-20.496"
             style="fill:none;stroke:#000000;stroke-width:3.74046;stroke-linecap:round;stroke-linejoin:miter;stroke-miterlimit:4;stroke-dasharray:none;stroke-opacity:1"
             id="path4209"
             inkscape:connector-curvature="0" /></g><g
           id="g4215"
           transform="matrix(0.17384008,0,0,0.17384008,77.599745,122.5577)"
           style="stroke-width:3.74046;stroke-miterlimit:4;stroke-dasharray:none"><path
             d="M 264.688,134.969 252.855,114.473"
             style="fill:none;stroke:#000000;stroke-width:3.74046;stroke-linecap:round;stroke-linejoin:miter;stroke-miterlimit:4;stroke-dasharray:none;stroke-opacity:1"
             id="path4213"
             inkscape:connector-curvature="0" /></g></g><g
         transform="matrix(0.90809773,-1.2916193,-2.038568,-1.4332543,445.32267,302.69486)"
         id="g4227"
         style="stroke-width:0.650241;stroke-miterlimit:4;stroke-dasharray:none"><g
           id="g4221"
           transform="matrix(0.17384008,0,0,0.17384008,77.599745,122.5577)"
           style="stroke-width:3.74046;stroke-miterlimit:4;stroke-dasharray:none"><path
             d="m 241.039,134.918 11.832,-20.496"
             style="fill:none;stroke:#000000;stroke-width:3.74046;stroke-linecap:round;stroke-linejoin:miter;stroke-miterlimit:4;stroke-dasharray:none;stroke-opacity:1"
             id="path4219"
             inkscape:connector-curvature="0" /></g><g
           id="g4225"
           transform="matrix(0.17384008,0,0,0.17384008,77.599745,122.5577)"
           style="stroke-width:3.74046;stroke-miterlimit:4;stroke-dasharray:none"><path
             d="M 264.688,134.969 252.855,114.473"
             style="fill:none;stroke:#000000;stroke-width:3.74046;stroke-linecap:round;stroke-linejoin:miter;stroke-miterlimit:4;stroke-dasharray:none;stroke-opacity:1"
             id="path4223"
             inkscape:connector-curvature="0" /></g></g></g><text
       xml:space="preserve"
       style="font-style:normal;font-weight:normal;font-size:18.5961px;line-height:125%;font-family:Sans;text-align:start;letter-spacing:0px;word-spacing:0px;text-anchor:start;fill:#000000;fill-opacity:1;stroke:none;stroke-width:0.413246px;stroke-linecap:butt;stroke-linejoin:miter;stroke-opacity:1"
       x="131.25359"
       y="35.586483"
       id="text4889"
       transform="scale(1,-1)"><tspan
         sodipodi:role="line"
         id="tspan4887"
         x="131.25359"
         y="35.586483"
         style="font-style:normal;font-variant:normal;font-weight:normal;font-stretch:normal;font-family:times;-inkscape-font-specification:times;stroke-width:0.413246px">(e)</tspan></text><g
       id="g6284"
       transform="translate(-78,15)"><path
         style="fill:none;stroke:#000000;stroke-width:0.886801;stroke-linecap:round;stroke-linejoin:miter;stroke-miterlimit:4;stroke-opacity:1"
         d="m 383.93117,-86.516843 c 0.34539,0.759764 1.09379,1.310138 2.01081,1.773584 0.9169,0.464379 1.96582,0.859602 2.73451,1.400408 0.7688,0.53989 1.22977,1.239615 1.31563,2.132634 0.0868,0.893141 -0.18715,1.971111 -0.45715,3.048698 -0.27082,1.076497 -0.49983,2.132171 -0.35178,2.993894 0.1473,0.86064 0.68589,1.520738 1.49969,2.03737 0.8138,0.516659 1.87584,0.906082 2.76515,1.384699 0.88944,0.477701 1.57132,1.062577 1.84934,1.856737 0.27809,0.793195 0.15629,1.794335 -0.093,2.859579 -0.24853,1.066276 -0.58689,2.178126 -0.61558,3.130349 -0.0277,0.952382 0.278,1.731377 0.94039,2.326859 0.6624,0.595477 1.66119,1.017028 2.6139,1.46262 0.95284,0.444625 1.82066,0.934549 2.29808,1.625135 0.47741,0.69059 0.55506,1.588161 0.38945,2.610809 -0.1648,1.022752 -0.54085,2.154083 -0.70659,3.177655 -0.16471,1.022746 -0.0869,1.919413 0.3904,2.610933 0.47647,0.690462 1.34535,1.179556 2.29808,1.625144 0.95271,0.445589 1.95149,0.867113 2.614,1.461689 0.6624,0.595483 0.96799,1.375378 0.93947,2.326699 -0.0277,0.952384 -0.36611,2.06421 -0.61556,3.13038 -0.24853,1.066276 -0.37025,2.066485 -0.0922,2.860641 0.27797,0.794155 0.96093,1.378227 1.8493,1.856707 0.8893,0.478642 1.95045,0.867942 2.76517,1.384701 0.81379,0.516651 1.35144,1.176626 1.49967,2.037396 0.14823,0.860775 -0.0808,1.916464 -0.35177,2.993894 -0.27083,1.076523 -0.54297,2.155691 -0.45716,3.048704 0.0858,0.893009 0.54694,1.5918 1.31565,2.132601 0.76773,0.5407 1.81666,0.935926 2.73461,1.399498 0.9169,0.46438 1.66528,1.014729 2.01082,1.773561"
         id="path6238" /><path
         style="fill:none;fill-rule:evenodd;stroke:#000000;stroke-width:1.28981;stroke-linecap:butt;stroke-linejoin:miter;stroke-miterlimit:4;stroke-dasharray:none;stroke-opacity:1"
         d="m 342.91354,-115.23022 101.29918,71.350099"
         id="path6240" /><g
         transform="matrix(-0.88993452,1.3042004,2.0584247,1.4045872,176.05262,-460.86627)"
         id="g6250"
         style="stroke-width:0.650241;stroke-miterlimit:4;stroke-dasharray:none"><g
           id="g6244"
           transform="matrix(0.17384008,0,0,0.17384008,77.599745,122.5577)"
           style="stroke-width:3.74046;stroke-miterlimit:4;stroke-dasharray:none"><path
             d="m 241.039,134.918 11.832,-20.496"
             style="fill:none;stroke:#000000;stroke-width:3.74046;stroke-linecap:round;stroke-linejoin:miter;stroke-miterlimit:4;stroke-dasharray:none;stroke-opacity:1"
             id="path6242"
             inkscape:connector-curvature="0" /></g><g
           id="g6248"
           transform="matrix(0.17384008,0,0,0.17384008,77.599745,122.5577)"
           style="stroke-width:3.74046;stroke-miterlimit:4;stroke-dasharray:none"><path
             d="M 264.688,134.969 252.855,114.473"
             style="fill:none;stroke:#000000;stroke-width:3.74046;stroke-linecap:round;stroke-linejoin:miter;stroke-miterlimit:4;stroke-dasharray:none;stroke-opacity:1"
             id="path6246"
             inkscape:connector-curvature="0" /></g></g><g
         transform="matrix(-0.88993452,1.3042004,2.0584247,1.4045872,236.64218,-418.28028)"
         id="g6270"
         style="stroke-width:0.650241;stroke-miterlimit:4;stroke-dasharray:none"><g
           id="g6264"
           transform="matrix(0.17384008,0,0,0.17384008,77.599745,122.5577)"
           style="stroke-width:3.74046;stroke-miterlimit:4;stroke-dasharray:none"><path
             d="m 241.039,134.918 11.832,-20.496"
             style="fill:none;stroke:#000000;stroke-width:3.74046;stroke-linecap:round;stroke-linejoin:miter;stroke-miterlimit:4;stroke-dasharray:none;stroke-opacity:1"
             id="path6262"
             inkscape:connector-curvature="0" /></g><g
           id="g6268"
           transform="matrix(0.17384008,0,0,0.17384008,77.599745,122.5577)"
           style="stroke-width:3.74046;stroke-miterlimit:4;stroke-dasharray:none"><path
             d="M 264.688,134.969 252.855,114.473"
             style="fill:none;stroke:#000000;stroke-width:3.74046;stroke-linecap:round;stroke-linejoin:miter;stroke-miterlimit:4;stroke-dasharray:none;stroke-opacity:1"
             id="path6266"
             inkscape:connector-curvature="0" /></g></g></g><text
       xml:space="preserve"
       style="font-style:normal;font-weight:normal;font-size:18.5961px;line-height:125%;font-family:Sans;text-align:start;letter-spacing:0px;word-spacing:0px;text-anchor:start;fill:#000000;fill-opacity:1;stroke:none;stroke-width:0.413246px;stroke-linecap:butt;stroke-linejoin:miter;stroke-opacity:1"
       x="296.3183"
       y="35.586483"
       id="text6302"
       transform="scale(1,-1)"><tspan
         sodipodi:role="line"
         id="tspan6300"
         x="296.3183"
         y="35.586483"
         style="font-style:normal;font-variant:normal;font-weight:normal;font-stretch:normal;font-family:times;-inkscape-font-specification:times;stroke-width:0.413246px">(f)</tspan></text></g></svg>
