<?xml version="1.0" encoding="UTF-8" standalone="no"?>
<svg
   xmlns:dc="http://purl.org/dc/elements/1.1/"
   xmlns:cc="http://creativecommons.org/ns#"
   xmlns:rdf="http://www.w3.org/1999/02/22-rdf-syntax-ns#"
   xmlns:svg="http://www.w3.org/2000/svg"
   xmlns="http://www.w3.org/2000/svg"
   id="svg6886"
   version="1.1"
   viewBox="0 0 66.123863 52.257534"
   height="52.257534mm"
   width="66.123863mm">
  <defs
     id="defs6880" />
  <metadata
     id="metadata6883">
    <rdf:RDF>
      <cc:Work
         rdf:about="">
        <dc:format>image/svg+xml</dc:format>
        <dc:type
           rdf:resource="http://purl.org/dc/dcmitype/StillImage" />
        <dc:title></dc:title>
      </cc:Work>
    </rdf:RDF>
  </metadata>
  <g
     transform="translate(269.28297,-9.1146771)"
     id="layer1">
    <g
       transform="matrix(0.33072917,0,0,-0.33072917,-141.29349,68.409679)"
       id="g8467" />
    <text
       id="text9366"
       y="60.22517"
       x="-257.33905"
       style="font-style:normal;font-weight:normal;font-size:6.35477829px;line-height:125%;font-family:Sans;letter-spacing:0px;word-spacing:0px;fill:#000000;fill-opacity:1;stroke:none;stroke-width:0.33072916px;stroke-linecap:butt;stroke-linejoin:miter;stroke-opacity:1"
       xml:space="preserve"><tspan
         style="font-style:normal;font-variant:normal;font-weight:normal;font-stretch:normal;font-family:times;-inkscape-font-specification:times;stroke-width:0.33072916px"
         y="60.22517"
         x="-257.33905"
         id="tspan9368">(a)</tspan></text>
    <text
       xml:space="preserve"
       style="font-style:normal;font-weight:normal;font-size:6.35477829px;line-height:125%;font-family:Sans;letter-spacing:0px;word-spacing:0px;fill:#000000;fill-opacity:1;stroke:none;stroke-width:0.33072916px;stroke-linecap:butt;stroke-linejoin:miter;stroke-opacity:1"
       x="-217.63268"
       y="60.247414"
       id="text9370"><tspan
         id="tspan9372"
         x="-217.63268"
         y="60.247414"
         style="font-style:normal;font-variant:normal;font-weight:normal;font-stretch:normal;font-family:times;-inkscape-font-specification:times;stroke-width:0.33072916px">(b)</tspan></text>
    <g
       transform="translate(0.60501066,-1.7607862)"
       id="g10151">
      <path
         id="path12130"
         d="m -247.91917,29.80345 c 0,-7.294498 -6.40649,-13.207855 -6.40649,-13.207855 0,0 -6.40649,5.913357 -6.40649,13.207855 0,7.294496 6.40649,13.207853 6.40649,13.207853 0,0 6.40649,-5.913357 6.40649,-13.207853"
         style="fill:#ffffff;fill-opacity:1;stroke:#0d0000;stroke-width:0.38598892;stroke-miterlimit:4;stroke-dasharray:none;stroke-opacity:1" />
      <path
         style="fill:none;stroke:#000000;stroke-width:0.31722397;stroke-linecap:round;stroke-miterlimit:4;stroke-dasharray:none;stroke-dashoffset:0;stroke-opacity:1"
         d="m -254.28535,42.733547 c 0.0145,-0.297953 -0.13361,-0.595683 -0.34931,-0.893311 -0.21569,-0.297636 -0.48445,-0.595192 -0.64046,-0.892906 -0.15602,-0.29772 -0.18807,-0.595613 -0.0694,-0.893715 0.11868,-0.298112 0.38219,-0.596425 0.64454,-0.894741 0.26235,-0.298313 0.50794,-0.596605 0.60195,-0.894683 0.094,-0.298062 0.0308,-0.595915 -0.1435,-0.893605 -0.17428,-0.297693 -0.4482,-0.595241 -0.65274,-0.892886 -0.20455,-0.297641 -0.32563,-0.595407 -0.28428,-0.893409 0.0413,-0.297996 0.2441,-0.596227 0.49772,-0.894532 0.25362,-0.2983 0.54328,-0.596657 0.70817,-0.894823 0.16489,-0.298173 0.19503,-0.59616 0.0819,-0.893935 -0.11308,-0.297783 -0.36195,-0.595364 -0.59208,-0.892977 -0.23012,-0.297604 -0.42601,-0.595267 -0.46481,-0.89315 -0.0388,-0.297883 0.0835,-0.595995 0.30342,-0.894252 0.21988,-0.298249 0.52481,-0.596632 0.74485,-0.894879 0.22005,-0.298251 0.34193,-0.596369 0.30342,-0.894253 -0.0385,-0.297884 -0.23474,-0.595545 -0.46481,-0.893146 -0.23008,-0.297613 -0.47874,-0.595201 -0.59208,-0.892976 -0.11333,-0.297777 -0.0827,-0.59576 0.082,-0.893938 0.16465,-0.298163 0.45446,-0.596521 0.70817,-0.894824 0.2537,-0.298301 0.45609,-0.596533 0.49773,-0.894531 0.0416,-0.298 -0.0799,-0.595768 -0.28429,-0.893408 -0.2044,-0.297646 -0.47827,-0.595192 -0.65274,-0.892886 -0.17447,-0.297691 -0.23722,-0.595539 -0.1435,-0.893616 0.0937,-0.298068 0.33962,-0.596359 0.60195,-0.894674 0.26233,-0.29831 0.52559,-0.596629 0.64454,-0.89474 0.11895,-0.298101 0.0864,-0.595997 -0.0694,-0.893716 -0.15579,-0.297715 -0.42465,-0.595273 -0.64046,-0.892904 -0.21581,-0.29763 -0.36383,-0.595356 -0.34931,-0.89331"
         title="t cos(11*t)"
         id="path12144" />
      <g
         transform="matrix(-0.53902964,0.19294225,-0.19294225,-0.53902964,-3.5524264,47.395985)"
         id="g9893">
        <polygon
           id="polygon9891"
           points="413.392,178.08 414.614,183.16 412.967,179.399 409.341,181.356 "
           stroke-miterlimit="10"
           style="fill:#020202;stroke:#020202;stroke-width:0.25;stroke-linecap:round;stroke-linejoin:round;stroke-miterlimit:10" />
      </g>
      <g
         id="g9897"
         transform="matrix(-0.53902964,-0.19294225,-0.19294225,0.53902964,9.3460111,12.389332)">
        <polygon
           style="fill:#020202;stroke:#020202;stroke-width:0.25;stroke-linecap:round;stroke-linejoin:round;stroke-miterlimit:10"
           stroke-miterlimit="10"
           points="412.967,179.399 409.341,181.356 413.392,178.08 414.614,183.16 "
           id="polygon9895" />
      </g>
      <path
         d="m -254.30629,42.335214 a 0.6840387,0.6840387 0 0 1 0.68396,0.673906 0.6840387,0.6840387 0 0 1 -0.6637,0.693871 0.6840387,0.6840387 0 0 1 -0.70362,-0.653349 0.6840387,0.6840387 0 0 1 0.64285,-0.713227"
         id="path9899"
         style="opacity:1;fill:#000000;fill-opacity:1;stroke:none;stroke-width:2.27498603;stroke-linecap:butt;stroke-miterlimit:4;stroke-dasharray:none;stroke-dashoffset:0;stroke-opacity:1" />
      <path
         style="opacity:1;fill:#000000;fill-opacity:1;stroke:none;stroke-width:2.27498603;stroke-linecap:butt;stroke-miterlimit:4;stroke-dasharray:none;stroke-dashoffset:0;stroke-opacity:1"
         id="path9901"
         d="m -254.30629,15.959564 a 0.6840387,0.6840387 0 0 1 0.68396,0.673906 0.6840387,0.6840387 0 0 1 -0.6637,0.693871 0.6840387,0.6840387 0 0 1 -0.70362,-0.65335 0.6840387,0.6840387 0 0 1 0.64285,-0.713227" />
      <g
         id="g9970"
         transform="matrix(0.83549569,0,0,0.83549569,-43.727829,4.6131616)">
        <text
           id="text9949"
           y="31.573507"
           x="-270.85562"
           style="font-style:normal;font-weight:normal;font-size:6.14177179px;line-height:125%;font-family:Sans;letter-spacing:0px;word-spacing:0px;fill:#000000;fill-opacity:1;stroke:none;stroke-width:0.1364838px;stroke-linecap:butt;stroke-linejoin:miter;stroke-opacity:1"
           xml:space="preserve"><tspan
             style="font-style:normal;font-variant:normal;font-weight:normal;font-stretch:normal;font-family:times;-inkscape-font-specification:times;stroke-width:0.1364838px"
             y="31.573507"
             x="-270.85562"
             id="tspan9947">d<tspan
   id="tspan9951"
   style="font-size:3.99215174px;baseline-shift:super;stroke-width:0.1364838px">-1</tspan><tspan
   id="tspan9953"
   style="font-size:3.99215174px;baseline-shift:sub;stroke-width:0.1364838px" /></tspan></text>
        <text
           xml:space="preserve"
           style="font-style:normal;font-weight:normal;font-size:6.14177179px;line-height:125%;font-family:Sans;letter-spacing:0px;word-spacing:0px;fill:#000000;fill-opacity:1;stroke:none;stroke-width:0.1364838px;stroke-linecap:butt;stroke-linejoin:miter;stroke-opacity:1"
           x="-267.71909"
           y="32.038818"
           id="text9961"><tspan
             id="tspan9959"
             x="-267.71909"
             y="32.038818"
             style="font-style:normal;font-variant:normal;font-weight:normal;font-stretch:normal;font-family:times;-inkscape-font-specification:times;stroke-width:0.1364838px"><tspan
               style="font-size:3.99215174px;baseline-shift:sub;stroke-width:0.1364838px"
               id="tspan9957">3/2</tspan></tspan></text>
      </g>
      <text
         xml:space="preserve"
         style="font-style:normal;font-weight:normal;font-size:5.13142395px;line-height:125%;font-family:Sans;letter-spacing:0px;word-spacing:0px;fill:#000000;fill-opacity:1;stroke:none;stroke-width:0.11403163px;stroke-linecap:butt;stroke-linejoin:miter;stroke-opacity:1"
         x="-247.97679"
         y="21.771893"
         id="text9994"><tspan
           id="tspan9992"
           x="-247.97679"
           y="21.771893"
           style="font-style:normal;font-variant:normal;font-weight:normal;font-stretch:normal;font-family:times;-inkscape-font-specification:times;stroke-width:0.11403163px">h<tspan
   style="font-size:3.33542562px;baseline-shift:super;stroke-width:0.11403163px"
   id="tspan9988" /></tspan></text>
      <text
         id="text10000"
         y="22.160658"
         x="-245.35623"
         style="font-style:normal;font-weight:normal;font-size:5.13142395px;line-height:125%;font-family:Sans;letter-spacing:0px;word-spacing:0px;fill:#000000;fill-opacity:1;stroke:none;stroke-width:0.11403163px;stroke-linecap:butt;stroke-linejoin:miter;stroke-opacity:1"
         xml:space="preserve"><tspan
           style="font-style:normal;font-variant:normal;font-weight:normal;font-stretch:normal;font-family:times;-inkscape-font-specification:times;stroke-width:0.11403163px"
           y="22.160658"
           x="-245.35623"
           id="tspan9998"><tspan
             id="tspan9996"
             style="font-size:3.33542562px;baseline-shift:sub;stroke-width:0.11403163px">9/2</tspan></tspan></text>
      <g
         id="g10065"
         transform="translate(-22.962054,12.85119)">
        <text
           id="text10058"
           y="13.834391"
           x="-235.31459"
           style="font-style:normal;font-weight:normal;font-size:5.13142395px;line-height:125%;font-family:Sans;letter-spacing:0px;word-spacing:0px;fill:#000000;fill-opacity:1;stroke:none;stroke-width:0.11403163px;stroke-linecap:butt;stroke-linejoin:miter;stroke-opacity:1"
           xml:space="preserve"><tspan
             style="font-style:normal;font-variant:normal;font-weight:normal;font-stretch:normal;font-family:times;-inkscape-font-specification:times;stroke-width:0.11403163px"
             y="13.834391"
             x="-235.31459"
             id="tspan10056">3</tspan></text>
        <path
           id="path10060"
           d="m -232.8529,10.774909 h 1.62192"
           style="fill:none;fill-rule:evenodd;stroke:#000000;stroke-width:0.36580688;stroke-linecap:butt;stroke-linejoin:miter;stroke-miterlimit:4;stroke-dasharray:none;stroke-opacity:1" />
      </g>
    </g>
    <g
       transform="translate(0.03340869,-0.20045215)"
       id="g10197">
      <g
         transform="matrix(-0.57221868,-0.01858696,0.01858696,-0.57221868,46.97337,129.12443)"
         id="g9777">
        <path
           id="path9775"
           d="m 466.072,193.746 0.25,-0.213 c -14.134,-15.182 -14.559,-39.92 -0.948,-55.566 l -0.194,-0.291 c -13.786,15.772 -13.398,40.754 0.892,56.07 z"
           stroke-miterlimit="10"
           style="fill:#020202;stroke:#020202;stroke-width:0.25;stroke-linecap:round;stroke-linejoin:round;stroke-miterlimit:10" />
      </g>
      <g
         transform="matrix(-0.57252046,0,0,-0.57252046,53.480109,120.54954)"
         id="g9781">
        <path
           id="path9779"
           d="m 470.995,193.746 -0.231,-0.213 c 14.134,-15.182 14.56,-39.92 0.948,-55.566 l 0.176,-0.291 c 13.803,15.772 13.397,40.754 -0.893,56.07 z"
           stroke-miterlimit="10"
           style="fill:#020202;stroke:#020202;stroke-width:0.25;stroke-linecap:round;stroke-linejoin:round;stroke-miterlimit:10" />
      </g>
      <rect
         y="-20.776886"
         x="-222.32881"
         height="11.461757"
         width="11.863287"
         id="rect9783"
         style="opacity:1;fill:#fdfdfd;fill-opacity:1;stroke:none;stroke-width:0.44379392;stroke-linecap:round;stroke-miterlimit:4;stroke-dasharray:none;stroke-dashoffset:0;stroke-opacity:1"
         transform="scale(1,-1)" />
      <g
         transform="matrix(-0.5609387,0.11457503,-0.11457503,-0.5609387,29.969701,77.370518)"
         id="g9791">
        <polygon
           id="polygon9789"
           points="412.967,179.399 409.341,181.356 413.392,178.08 414.614,183.16 "
           stroke-miterlimit="10"
           style="fill:#020202;stroke:#020202;stroke-width:0.25;stroke-linecap:round;stroke-linejoin:round;stroke-miterlimit:10" />
      </g>
      <g
         id="g9795"
         transform="matrix(-0.41904906,0.39009941,-0.39009941,-0.41904906,22.754593,-50.003437)">
        <polygon
           style="fill:#020202;stroke:#020202;stroke-width:0.25;stroke-linecap:round;stroke-linejoin:round;stroke-miterlimit:10"
           stroke-miterlimit="10"
           points="413.392,178.08 414.614,183.16 412.967,179.399 409.341,181.356 "
           id="polygon9793" />
      </g>
      <g
         id="g9799"
         transform="matrix(-0.53902964,0.19294225,-0.19294225,-0.53902964,46.76852,41.184435)">
        <polygon
           style="fill:#020202;stroke:#020202;stroke-width:0.25;stroke-linecap:round;stroke-linejoin:round;stroke-miterlimit:10"
           stroke-miterlimit="10"
           points="412.967,179.399 409.341,181.356 413.392,178.08 414.614,183.16 "
           id="polygon9797" />
      </g>
      <g
         transform="matrix(-0.55358781,-0.14601439,0.14601439,-0.55358781,-12.225228,198.83741)"
         id="g9803">
        <polygon
           id="polygon9801"
           points="412.967,179.399 409.341,181.356 413.392,178.08 414.614,183.16 "
           stroke-miterlimit="10"
           style="fill:#020202;stroke:#020202;stroke-width:0.25;stroke-linecap:round;stroke-linejoin:round;stroke-miterlimit:10" />
      </g>
      <g
         id="g9811"
         transform="matrix(0.26458333,0,0,-0.26458333,-429.7522,134.149)">
        <path
           style="fill:none;fill-rule:evenodd;stroke:#000000;stroke-width:2;stroke-linecap:butt;stroke-linejoin:miter;stroke-miterlimit:4;stroke-dasharray:6, 6;stroke-dashoffset:0;stroke-opacity:1"
           d="M 787.18384,384.98507 H 728.86858"
           id="path9805" />
        <text
           xml:space="preserve"
           style="font-style:normal;font-weight:normal;font-size:26.30241203px;line-height:0%;font-family:sans-serif;letter-spacing:0px;word-spacing:0px;fill:#000000;fill-opacity:1;stroke:none;stroke-width:1px;stroke-linecap:butt;stroke-linejoin:miter;stroke-opacity:1"
           x="724.64569"
           y="392.28052"
           id="text9809"><tspan
             id="tspan9807"
             x="724.64569"
             y="392.28052"
             style="font-family:sans-serif">x</tspan></text>
      </g>
      <rect
         transform="scale(1,-1)"
         style="opacity:1;fill:#fdfdfd;fill-opacity:1;stroke:none;stroke-width:0.44379392;stroke-linecap:round;stroke-miterlimit:4;stroke-dasharray:none;stroke-dashoffset:0;stroke-opacity:1"
         id="rect9851"
         width="11.863287"
         height="11.461757"
         x="-228.28194"
         y="-32.021679" />
      <g
         transform="matrix(0.42678506,0.41182764,-0.37911676,0.46360884,-397.70166,-280.35003)"
         id="g9855">
        <path
           id="path9853"
           d="m 559.5,152.847 1.612,0.146 c 0.464,0.039 0.813,0.446 0.794,0.911 l -0.099,3.103 c -0.019,0.717 0.526,1.337 1.243,1.387 l 3.082,0.212 c 0.483,0.029 0.853,0.438 0.834,0.912 l -0.098,3.092 c -0.038,0.719 0.522,1.338 1.239,1.387 l 3.082,0.213 c 0.469,0.03 0.835,0.437 0.815,0.91 l -0.095,3.084 c -0.021,0.728 0.542,1.338 1.259,1.388 l 3.082,0.212 c 0.468,0.028 0.834,0.437 0.815,0.911 l -0.099,2.908 c -0.019,0.737 0.563,1.356 1.301,1.377 0.037,0.01 0.118,0 0.174,0 l 1.999,-0.185 c 0.036,0 0.096,-0.01 0.113,0 0.486,0.011 0.874,0.417 0.855,0.912 l -0.059,1.782 c 0.114,0.127 0.329,0.127 0.465,0.011 l 0.059,-1.783 c 0.019,-0.737 -0.563,-1.357 -1.299,-1.377 -0.039,-0.01 -0.135,0 -0.175,0 l -2.015,0.185 c -0.021,0 -0.081,0.009 -0.099,0.009 -0.486,-0.019 -0.874,-0.426 -0.854,-0.921 l 0.096,-2.899 c 0.021,-0.717 -0.541,-1.336 -1.258,-1.385 l -3.083,-0.215 c -0.468,-0.028 -0.834,-0.435 -0.814,-0.91 l 0.096,-3.093 c 0.021,-0.718 -0.523,-1.338 -1.24,-1.376 l -3.083,-0.214 c -0.483,-0.038 -0.853,-0.446 -0.834,-0.92 l 0.099,-3.082 c 0.036,-0.72 -0.526,-1.339 -1.243,-1.388 l -3.082,-0.212 c -0.465,-0.03 -0.853,-0.437 -0.835,-0.913 l 0.118,-3.111 c 0.019,-0.708 -0.523,-1.319 -1.223,-1.376 l -1.607,-0.146 c -0.093,0.124 -0.114,0.327 -0.038,0.454 z"
           stroke-miterlimit="10"
           style="fill:#020202;stroke:#020202;stroke-width:0.25;stroke-linecap:round;stroke-linejoin:round;stroke-miterlimit:10" />
      </g>
      <path
         style="opacity:1;fill:#000000;fill-opacity:1;stroke:none;stroke-width:2.27498603;stroke-linecap:butt;stroke-miterlimit:4;stroke-dasharray:none;stroke-dashoffset:0;stroke-opacity:1"
         id="path9859"
         d="m -216.70482,40.781709 a 0.6840387,0.6840387 0 0 1 0.68396,0.673906 0.6840387,0.6840387 0 0 1 -0.6637,0.693871 0.6840387,0.6840387 0 0 1 -0.70362,-0.653349 0.6840387,0.6840387 0 0 1 0.64285,-0.713227" />
      <g
         transform="matrix(0.83549569,0,0,0.83549569,-1.0983393,14.635769)"
         id="g9986">
        <text
           xml:space="preserve"
           style="font-style:normal;font-weight:normal;font-size:6.14177179px;line-height:125%;font-family:Sans;letter-spacing:0px;word-spacing:0px;fill:#000000;fill-opacity:1;stroke:none;stroke-width:0.1364838px;stroke-linecap:butt;stroke-linejoin:miter;stroke-opacity:1"
           x="-270.85562"
           y="31.573507"
           id="text9978"><tspan
             id="tspan9976"
             x="-270.85562"
             y="31.573507"
             style="font-style:normal;font-variant:normal;font-weight:normal;font-stretch:normal;font-family:times;-inkscape-font-specification:times;stroke-width:0.1364838px">d<tspan
   style="font-size:3.99215174px;baseline-shift:super;stroke-width:0.1364838px"
   id="tspan9972">-1</tspan><tspan
   style="font-size:3.99215174px;baseline-shift:sub;stroke-width:0.1364838px"
   id="tspan9974" /></tspan></text>
        <text
           id="text9984"
           y="32.038818"
           x="-267.71909"
           style="font-style:normal;font-weight:normal;font-size:6.14177179px;line-height:125%;font-family:Sans;letter-spacing:0px;word-spacing:0px;fill:#000000;fill-opacity:1;stroke:none;stroke-width:0.1364838px;stroke-linecap:butt;stroke-linejoin:miter;stroke-opacity:1"
           xml:space="preserve"><tspan
             style="font-style:normal;font-variant:normal;font-weight:normal;font-stretch:normal;font-family:times;-inkscape-font-specification:times;stroke-width:0.1364838px"
             y="32.038818"
             x="-267.71909"
             id="tspan9982"><tspan
               id="tspan9980"
               style="font-size:3.99215174px;baseline-shift:sub;stroke-width:0.1364838px">3/2</tspan></tspan></text>
      </g>
      <text
         id="text10042"
         y="16.007753"
         x="-217.17174"
         style="font-style:normal;font-weight:normal;font-size:5.13142395px;line-height:125%;font-family:Sans;letter-spacing:0px;word-spacing:0px;fill:#000000;fill-opacity:1;stroke:none;stroke-width:0.11403163px;stroke-linecap:butt;stroke-linejoin:miter;stroke-opacity:1"
         xml:space="preserve"><tspan
           style="font-style:normal;font-variant:normal;font-weight:normal;font-stretch:normal;font-family:times;-inkscape-font-specification:times;stroke-width:0.11403163px"
           y="16.007753"
           x="-217.17174"
           id="tspan10040">3/2<tspan
   id="tspan10036"
   style="font-size:3.33542562px;baseline-shift:super;stroke-width:0.11403163px">+</tspan></tspan></text>
      <g
         transform="translate(12.662202,14.741071)"
         id="g10073">
        <text
           xml:space="preserve"
           style="font-style:normal;font-weight:normal;font-size:5.13142395px;line-height:125%;font-family:Sans;letter-spacing:0px;word-spacing:0px;fill:#000000;fill-opacity:1;stroke:none;stroke-width:0.11403163px;stroke-linecap:butt;stroke-linejoin:miter;stroke-opacity:1"
           x="-235.31459"
           y="13.834391"
           id="text10069"><tspan
             id="tspan10067"
             x="-235.31459"
             y="13.834391"
             style="font-style:normal;font-variant:normal;font-weight:normal;font-stretch:normal;font-family:times;-inkscape-font-specification:times;stroke-width:0.11403163px">3</tspan></text>
        <path
           style="fill:none;fill-rule:evenodd;stroke:#000000;stroke-width:0.36580688;stroke-linecap:butt;stroke-linejoin:miter;stroke-miterlimit:4;stroke-dasharray:none;stroke-opacity:1"
           d="m -232.8529,10.774909 h 1.62192"
           id="path10071" />
      </g>
      <g
         id="g10105"
         transform="translate(-10.96131,-11.90625)">
        <text
           xml:space="preserve"
           style="font-style:normal;font-weight:normal;font-size:5.13142395px;line-height:125%;font-family:Sans;letter-spacing:0px;word-spacing:0px;fill:#000000;fill-opacity:1;stroke:none;stroke-width:0.11403163px;stroke-linecap:butt;stroke-linejoin:miter;stroke-opacity:1"
           x="-199.02887"
           y="46.056862"
           id="text10091"><tspan
             id="tspan10089"
             x="-199.02887"
             y="46.056862"
             style="font-style:normal;font-variant:normal;font-weight:normal;font-stretch:normal;font-family:times;-inkscape-font-specification:times;stroke-width:0.11403163px">h<tspan
   style="font-size:3.33542562px;baseline-shift:super;stroke-width:0.11403163px"
   id="tspan10087" /></tspan></text>
        <text
           id="text10097"
           y="46.445629"
           x="-196.40831"
           style="font-style:normal;font-weight:normal;font-size:5.13142395px;line-height:125%;font-family:Sans;letter-spacing:0px;word-spacing:0px;fill:#000000;fill-opacity:1;stroke:none;stroke-width:0.11403163px;stroke-linecap:butt;stroke-linejoin:miter;stroke-opacity:1"
           xml:space="preserve"><tspan
             style="font-style:normal;font-variant:normal;font-weight:normal;font-stretch:normal;font-family:times;-inkscape-font-specification:times;stroke-width:0.11403163px"
             y="46.445629"
             x="-196.40831"
             id="tspan10095"><tspan
               id="tspan10093"
               style="font-size:3.33542562px;baseline-shift:sub;stroke-width:0.11403163px">9/2</tspan></tspan></text>
      </g>
      <path
         style="fill:none;fill-rule:evenodd;stroke:#000000;stroke-width:0.30000001;stroke-linecap:butt;stroke-linejoin:miter;stroke-miterlimit:4;stroke-dasharray:none;stroke-opacity:1"
         d="m -219.27156,19.399909 c 0,0 0.65509,-0.918162 1.16053,-1.120254 0.96497,-0.385832 2.12228,0.252697 3.13342,0 0.55276,-0.138143 1.49774,-0.802401 1.49774,-0.802401 0,0 0.96247,0.66395 1.49775,0.802401 1.00889,0.260947 2.16845,-0.385832 3.13343,0 0.50544,0.202092 1.16053,1.120254 1.16053,1.120254"
         id="path10107" />
    </g>
    <text
       xml:space="preserve"
       style="font-style:normal;font-weight:normal;font-size:5.13142395px;line-height:125%;font-family:Sans;letter-spacing:0px;word-spacing:0px;fill:#000000;fill-opacity:1;stroke:none;stroke-width:0.11403163px;stroke-linecap:butt;stroke-linejoin:miter;stroke-opacity:1"
       x="-260.40485"
       y="49.167019"
       id="text10115"><tspan
         id="tspan10113"
         x="-260.40485"
         y="49.167019"
         style="font-style:normal;font-variant:normal;font-weight:normal;font-stretch:normal;font-family:times;-inkscape-font-specification:times;stroke-width:0.11403163px"><tspan
   id="tspan10117"
   style="font-size:64.99999762%;baseline-shift:super">208</tspan>Pb</tspan></text>
    <text
       id="text10123"
       y="49.192677"
       x="-219.5126"
       style="font-style:normal;font-weight:normal;font-size:5.13142395px;line-height:125%;font-family:Sans;letter-spacing:0px;word-spacing:0px;fill:#000000;fill-opacity:1;stroke:none;stroke-width:0.11403163px;stroke-linecap:butt;stroke-linejoin:miter;stroke-opacity:1"
       xml:space="preserve"><tspan
         style="font-style:normal;font-variant:normal;font-weight:normal;font-stretch:normal;font-family:times;-inkscape-font-specification:times;stroke-width:0.11403163px"
         y="49.192677"
         x="-219.5126"
         id="tspan10121"><tspan
   style="font-size:64.99999762%;baseline-shift:super"
   id="tspan10119">209</tspan>Bi</tspan></text>
  </g>
</svg>
