<?xml version="1.0" encoding="UTF-8" standalone="no"?>
<svg
   xmlns:dc="http://purl.org/dc/elements/1.1/"
   xmlns:cc="http://creativecommons.org/ns#"
   xmlns:rdf="http://www.w3.org/1999/02/22-rdf-syntax-ns#"
   xmlns:svg="http://www.w3.org/2000/svg"
   xmlns="http://www.w3.org/2000/svg"
   xmlns:sodipodi="http://sodipodi.sourceforge.net/DTD/sodipodi-0.dtd"
   xmlns:inkscape="http://www.inkscape.org/namespaces/inkscape"
   id="svg2873"
   version="1.1"
   viewBox="0 0 293.08649 203.07059"
   height="203.07059mm"
   width="293.08649mm"
   sodipodi:docname="fig1_2_5.svg"
   inkscape:version="0.92.4 (5da689c313, 2019-01-14)">
  <sodipodi:namedview
     pagecolor="#ffffff"
     bordercolor="#666666"
     borderopacity="1"
     objecttolerance="10"
     gridtolerance="10"
     guidetolerance="10"
     inkscape:pageopacity="0"
     inkscape:pageshadow="2"
     inkscape:window-width="1324"
     inkscape:window-height="704"
     id="namedview901"
     showgrid="false"
     inkscape:zoom="0.26459171"
     inkscape:cx="220.49764"
     inkscape:cy="324.94074"
     inkscape:window-x="42"
     inkscape:window-y="129"
     inkscape:window-maximized="1"
     inkscape:current-layer="svg2873" />
  <defs
     id="defs2867">
    <marker
       orient="auto"
       refY="0.0"
       refX="0.0"
       id="marker4111"
       style="overflow:visible;">
      <path
         id="path4109"
         d="M 0.0,0.0 L 5.0,-5.0 L -12.5,0.0 L 5.0,5.0 L 0.0,0.0 z "
         style="fill-rule:evenodd;stroke:#000000;stroke-width:1pt;stroke-opacity:1;fill:#000000;fill-opacity:1"
         transform="scale(0.4) rotate(180) translate(10,0)" />
    </marker>
    <marker
       style="overflow:visible;"
       id="Arrow1Mend"
       refX="0.0"
       refY="0.0"
       orient="auto">
      <path
         transform="scale(0.4) rotate(180) translate(10,0)"
         style="fill-rule:evenodd;stroke:#000000;stroke-width:1pt;stroke-opacity:1;fill:#000000;fill-opacity:1"
         d="M 0.0,0.0 L 5.0,-5.0 L -12.5,0.0 L 5.0,5.0 L 0.0,0.0 z "
         id="path3762" />
    </marker>
  </defs>
  <metadata
     id="metadata2870">
    <rdf:RDF>
      <cc:Work
         rdf:about="">
        <dc:format>image/svg+xml</dc:format>
        <dc:type
           rdf:resource="http://purl.org/dc/dcmitype/StillImage" />
        <dc:title />
      </cc:Work>
    </rdf:RDF>
  </metadata>
  <rect
     style="opacity:1;fill:#ffffff;fill-opacity:1;stroke:#000000;stroke-width:0.4782505;stroke-linecap:round;stroke-miterlimit:4;stroke-dasharray:none;stroke-dashoffset:0;stroke-opacity:1"
     id="rect3458"
     width="241.57852"
     height="166.25677"
     x="45.309681"
     y="2.5410264" />
  <path
     inkscape:connector-curvature="0"
     style="fill:none;fill-rule:evenodd;stroke:#000000;stroke-width:0.31883365px;stroke-linecap:butt;stroke-linejoin:miter;stroke-opacity:1"
     d="m 93.59547,163.75053 v 5.10105"
     id="path3460" />
  <path
     inkscape:connector-curvature="0"
     id="path3462"
     d="m 141.9255,163.75053 v 5.10105"
     style="fill:none;fill-rule:evenodd;stroke:#000000;stroke-width:0.31883365px;stroke-linecap:butt;stroke-linejoin:miter;stroke-opacity:1" />
  <path
     inkscape:connector-curvature="0"
     style="fill:none;fill-rule:evenodd;stroke:#000000;stroke-width:0.31883365px;stroke-linecap:butt;stroke-linejoin:miter;stroke-opacity:1"
     d="m 190.25552,163.75053 v 5.10105"
     id="path3464" />
  <path
     inkscape:connector-curvature="0"
     id="path3466"
     d="m 238.58556,163.75053 v 5.10105"
     style="fill:none;fill-rule:evenodd;stroke:#000000;stroke-width:0.31883365px;stroke-linecap:butt;stroke-linejoin:miter;stroke-opacity:1" />
  <path
     inkscape:connector-curvature="0"
     id="path3470"
     d="M 45.207054,135.54714 H 52.61911"
     style="fill:none;fill-rule:evenodd;stroke:#000000;stroke-width:0.31883365px;stroke-linecap:butt;stroke-linejoin:miter;stroke-opacity:1" />
  <path
     inkscape:connector-curvature="0"
     style="fill:none;fill-rule:evenodd;stroke:#000000;stroke-width:0.31883365px;stroke-linecap:butt;stroke-linejoin:miter;stroke-opacity:1"
     d="M 45.207054,102.28285 H 52.61911"
     id="path3474" />
  <path
     inkscape:connector-curvature="0"
     id="path3476"
     d="M 45.207054,69.018537 H 52.61911"
     style="fill:none;fill-rule:evenodd;stroke:#000000;stroke-width:0.31883365px;stroke-linecap:butt;stroke-linejoin:miter;stroke-opacity:1" />
  <path
     inkscape:connector-curvature="0"
     style="fill:none;fill-rule:evenodd;stroke:#000000;stroke-width:0.31883365px;stroke-linecap:butt;stroke-linejoin:miter;stroke-opacity:1"
     d="M 45.207054,35.754267 H 52.61911"
     id="path3478" />
  <rect
     style="opacity:1;fill:#ffffff;fill-opacity:1;stroke:none;stroke-width:0.4782505;stroke-linecap:round;stroke-miterlimit:4;stroke-dasharray:none;stroke-dashoffset:0;stroke-opacity:1"
     id="rect3482"
     width="9.3337154"
     height="5.7623091"
     x="40.780083"
     y="82.646561" />
  <path
     inkscape:connector-curvature="0"
     style="fill:none;fill-rule:evenodd;stroke:#000000;stroke-width:0.31883365px;stroke-linecap:butt;stroke-linejoin:miter;stroke-opacity:1"
     d="m 41.278024,84.610957 8.783734,-4.20816"
     id="path3484" />
  <path
     inkscape:connector-curvature="0"
     id="path3486"
     d="m 41.278024,90.355417 8.783734,-4.20815"
     style="fill:none;fill-rule:evenodd;stroke:#000000;stroke-width:0.31883365px;stroke-linecap:butt;stroke-linejoin:miter;stroke-opacity:1" />
  <path
     inkscape:connector-curvature="0"
     id="path3507"
     d="M 93.59547,2.532063 V 7.633087"
     style="fill:none;fill-rule:evenodd;stroke:#000000;stroke-width:0.31883365px;stroke-linecap:butt;stroke-linejoin:miter;stroke-opacity:1" />
  <path
     inkscape:connector-curvature="0"
     style="fill:none;fill-rule:evenodd;stroke:#000000;stroke-width:0.31883365px;stroke-linecap:butt;stroke-linejoin:miter;stroke-opacity:1"
     d="M 141.9255,2.532063 V 7.633111"
     id="path3509" />
  <path
     inkscape:connector-curvature="0"
     id="path3511"
     d="M 190.25552,2.532063 V 7.633111"
     style="fill:none;fill-rule:evenodd;stroke:#000000;stroke-width:0.31883365px;stroke-linecap:butt;stroke-linejoin:miter;stroke-opacity:1" />
  <path
     inkscape:connector-curvature="0"
     style="fill:none;fill-rule:evenodd;stroke:#000000;stroke-width:0.31883365px;stroke-linecap:butt;stroke-linejoin:miter;stroke-opacity:1"
     d="M 238.58556,2.532063 V 7.633111"
     id="path3513" />
  <path
     inkscape:connector-curvature="0"
     style="fill:none;fill-rule:evenodd;stroke:#000000;stroke-width:1.20000005;stroke-linecap:round;stroke-linejoin:miter;stroke-miterlimit:4;stroke-dasharray:3.6, 3.6;stroke-dashoffset:0;stroke-opacity:1"
     d="m 62.268256,5.741271 c 0,0 14.447414,0.424387 21.640128,0.945104 4.996147,0.361696 9.962917,0.93671 14.924225,1.512163 7.734561,0.897122 15.481431,1.780881 23.132551,3.024332 6.52874,1.061044 13.09739,2.109934 19.40149,3.780412 8.83143,2.340174 17.59195,5.048189 25.61992,8.694949 7.10315,3.226636 12.11348,6.757616 17.66269,11.730836 4.6525,4.16958 12.4214,18.32643 12.4214,18.32643"
     id="path3519" />
  <path
     inkscape:connector-curvature="0"
     style="fill:none;fill-rule:evenodd;stroke:#000000;stroke-width:1.20000005;stroke-linecap:round;stroke-linejoin:miter;stroke-miterlimit:4;stroke-dasharray:3.6, 3.6;stroke-dashoffset:0;stroke-opacity:1"
     d="m 187.36233,129.12684 c 0,0 4.06808,10.26073 7.60205,14.36806 4.15045,4.82383 9.78121,8.32869 15.35319,11.34638 6.07817,3.29183 12.76377,5.28723 19.37427,7.18604 5.38808,1.54769 10.91224,2.59989 16.44986,3.40392 5.93241,0.86136 11.92647,1.2605 17.91205,1.51285 4.99174,0.21045 14.98764,0 14.98764,0"
     id="path3521" />
  <path
     inkscape:connector-curvature="0"
     style="opacity:1;fill:#000000;fill-opacity:1;stroke:none;stroke-width:0.76973677;stroke-linecap:round;stroke-miterlimit:4;stroke-dasharray:2.30921042, 2.30921042;stroke-dashoffset:0;stroke-opacity:1"
     id="path3525"
     d="M 57.748856,7.779908 A 2.6058776,2.6058776 0 0 1 55.743949,4.69224 2.6058776,2.6058776 0 0 1 58.8275,2.681006 2.6058776,2.6058776 0 0 1 60.845053,5.760425 2.6058776,2.6058776 0 0 1 57.769778,7.784289" />
  <path
     inkscape:connector-curvature="0"
     d="M 86.613968,9.784432 A 2.6058776,2.6058776 0 0 1 84.609062,6.696764 2.6058776,2.6058776 0 0 1 87.692612,4.68553 2.6058776,2.6058776 0 0 1 89.710165,7.764949 2.6058776,2.6058776 0 0 1 86.63489,9.788814"
     id="path3527"
     style="opacity:1;fill:#000000;fill-opacity:1;stroke:none;stroke-width:0.76973677;stroke-linecap:round;stroke-miterlimit:4;stroke-dasharray:2.30921042, 2.30921042;stroke-dashoffset:0;stroke-opacity:1" />
  <path
     inkscape:connector-curvature="0"
     style="opacity:1;fill:#000000;fill-opacity:1;stroke:none;stroke-width:0.76973677;stroke-linecap:round;stroke-miterlimit:4;stroke-dasharray:2.30921042, 2.30921042;stroke-dashoffset:0;stroke-opacity:1"
     id="path3529"
     d="m 107.06009,10.196084 a 2.6058776,2.6058776 0 0 1 -2.00491,-3.087668 2.6058776,2.6058776 0 0 1 3.08355,-2.011234 2.6058776,2.6058776 0 0 1 2.01756,3.079419 2.6058776,2.6058776 0 0 1 -3.07528,2.023864" />
  <path
     inkscape:connector-curvature="0"
     d="m 130.31255,15.798005 a 2.6058776,2.6058776 0 0 1 -2.00491,-3.087668 2.6058776,2.6058776 0 0 1 3.08355,-2.011234 2.6058776,2.6058776 0 0 1 2.01755,3.079419 2.6058776,2.6058776 0 0 1 -3.07527,2.023864"
     id="path3531"
     style="opacity:1;fill:#000000;fill-opacity:1;stroke:none;stroke-width:0.76973677;stroke-linecap:round;stroke-miterlimit:4;stroke-dasharray:2.30921042, 2.30921042;stroke-dashoffset:0;stroke-opacity:1" />
  <path
     inkscape:connector-curvature="0"
     style="opacity:1;fill:#000000;fill-opacity:1;stroke:none;stroke-width:0.76973677;stroke-linecap:round;stroke-miterlimit:4;stroke-dasharray:2.30921042, 2.30921042;stroke-dashoffset:0;stroke-opacity:1"
     id="path3533"
     d="m 154.63407,18.176576 a 2.6058776,2.6058776 0 0 1 -2.0049,-3.087669 2.6058776,2.6058776 0 0 1 3.08355,-2.011234 2.6058776,2.6058776 0 0 1 2.01755,3.079419 2.6058776,2.6058776 0 0 1 -3.07528,2.023865" />
  <path
     inkscape:connector-curvature="0"
     d="m 158.77676,19.512925 a 2.6058776,2.6058776 0 0 1 -2.00491,-3.087668 2.6058776,2.6058776 0 0 1 3.08355,-2.011234 2.6058776,2.6058776 0 0 1 2.01755,3.079419 2.6058776,2.6058776 0 0 1 -3.07527,2.023864"
     id="path3535"
     style="opacity:1;fill:#000000;fill-opacity:1;stroke:none;stroke-width:0.76973677;stroke-linecap:round;stroke-miterlimit:4;stroke-dasharray:2.30921042, 2.30921042;stroke-dashoffset:0;stroke-opacity:1" />
  <path
     inkscape:connector-curvature="0"
     style="opacity:1;fill:#000000;fill-opacity:1;stroke:none;stroke-width:0.76973677;stroke-linecap:round;stroke-miterlimit:4;stroke-dasharray:2.30921042, 2.30921042;stroke-dashoffset:0;stroke-opacity:1"
     id="path3537"
     d="m 169.86845,23.789231 a 2.6058776,2.6058776 0 0 1 -2.00491,-3.087668 2.6058776,2.6058776 0 0 1 3.08355,-2.011234 2.6058776,2.6058776 0 0 1 2.01755,3.079419 2.6058776,2.6058776 0 0 1 -3.07527,2.023864" />
  <path
     inkscape:connector-curvature="0"
     d="m 179.62377,35.041417 a 2.6058776,2.6058776 0 0 1 -2.0049,-3.08766 2.6058776,2.6058776 0 0 1 3.08355,-2.01124 2.6058776,2.6058776 0 0 1 2.01755,3.07942 2.6058776,2.6058776 0 0 1 -3.07527,2.02387"
     id="path3539"
     style="opacity:1;fill:#000000;fill-opacity:1;stroke:none;stroke-width:0.76973677;stroke-linecap:round;stroke-miterlimit:4;stroke-dasharray:2.30921042, 2.30921042;stroke-dashoffset:0;stroke-opacity:1" />
  <path
     inkscape:connector-curvature="0"
     style="opacity:1;fill:#000000;fill-opacity:1;stroke:none;stroke-width:0.76973677;stroke-linecap:round;stroke-miterlimit:4;stroke-dasharray:2.30921042, 2.30921042;stroke-dashoffset:0;stroke-opacity:1"
     id="path3541"
     d="m 184.03372,39.451367 a 2.6058776,2.6058776 0 0 1 -2.00491,-3.08766 2.6058776,2.6058776 0 0 1 3.08355,-2.01124 2.6058776,2.6058776 0 0 1 2.01755,3.07942 2.6058776,2.6058776 0 0 1 -3.07527,2.02387" />
  <path
     inkscape:connector-curvature="0"
     d="m 190.58183,42.658607 a 2.6058776,2.6058776 0 0 1 -2.00491,-3.08767 2.6058776,2.6058776 0 0 1 3.08355,-2.01123 2.6058776,2.6058776 0 0 1 2.01755,3.07942 2.6058776,2.6058776 0 0 1 -3.07527,2.02386"
     id="path3543"
     style="opacity:1;fill:#000000;fill-opacity:1;stroke:none;stroke-width:0.76973677;stroke-linecap:round;stroke-miterlimit:4;stroke-dasharray:2.30921042, 2.30921042;stroke-dashoffset:0;stroke-opacity:1" />
  <path
     inkscape:connector-curvature="0"
     style="opacity:1;fill:#000000;fill-opacity:1;stroke:none;stroke-width:0.76973677;stroke-linecap:round;stroke-miterlimit:4;stroke-dasharray:2.30921042, 2.30921042;stroke-dashoffset:0;stroke-opacity:1"
     id="path3545"
     d="m 199.13445,150.90278 a 2.6058776,2.6058776 0 0 1 -2.0049,-3.08767 2.6058776,2.6058776 0 0 1 3.08355,-2.01123 2.6058776,2.6058776 0 0 1 2.01755,3.07942 2.6058776,2.6058776 0 0 1 -3.07527,2.02386" />
  <path
     inkscape:connector-curvature="0"
     d="m 202.80941,153.84275 a 2.6058776,2.6058776 0 0 1 -2.00491,-3.08766 2.6058776,2.6058776 0 0 1 3.08356,-2.01124 2.6058776,2.6058776 0 0 1 2.01755,3.07942 2.6058776,2.6058776 0 0 1 -3.07528,2.02387"
     id="path3547"
     style="opacity:1;fill:#000000;fill-opacity:1;stroke:none;stroke-width:0.76973677;stroke-linecap:round;stroke-miterlimit:4;stroke-dasharray:2.30921042, 2.30921042;stroke-dashoffset:0;stroke-opacity:1" />
  <path
     inkscape:connector-curvature="0"
     style="opacity:1;fill:#000000;fill-opacity:1;stroke:none;stroke-width:0.76973677;stroke-linecap:round;stroke-miterlimit:4;stroke-dasharray:2.30921042, 2.30921042;stroke-dashoffset:0;stroke-opacity:1"
     id="path3549"
     d="m 207.7539,157.31726 a 2.6058776,2.6058776 0 0 1 -2.00491,-3.08767 2.6058776,2.6058776 0 0 1 3.08355,-2.01124 2.6058776,2.6058776 0 0 1 2.01756,3.07942 2.6058776,2.6058776 0 0 1 -3.07528,2.02387" />
  <path
     inkscape:connector-curvature="0"
     d="m 218.31104,163.5981 a 2.6058776,2.6058776 0 0 1 -2.0049,-3.08767 2.6058776,2.6058776 0 0 1 3.08355,-2.01124 2.6058776,2.6058776 0 0 1 2.01755,3.07942 2.6058776,2.6058776 0 0 1 -3.07527,2.02387"
     id="path3551"
     style="opacity:1;fill:#000000;fill-opacity:1;stroke:none;stroke-width:0.76973677;stroke-linecap:round;stroke-miterlimit:4;stroke-dasharray:2.30921042, 2.30921042;stroke-dashoffset:0;stroke-opacity:1" />
  <path
     inkscape:connector-curvature="0"
     style="opacity:1;fill:#000000;fill-opacity:1;stroke:none;stroke-width:0.76973677;stroke-linecap:round;stroke-miterlimit:4;stroke-dasharray:2.30921042, 2.30921042;stroke-dashoffset:0;stroke-opacity:1"
     id="path3553"
     d="m 221.45146,161.19267 a 2.6058776,2.6058776 0 0 1 -2.00491,-3.08767 2.6058776,2.6058776 0 0 1 3.08355,-2.01123 2.6058776,2.6058776 0 0 1 2.01755,3.07942 2.6058776,2.6058776 0 0 1 -3.07527,2.02386" />
  <path
     inkscape:connector-curvature="0"
     d="m 230.67225,162.32856 a 2.6058776,2.6058776 0 0 1 -2.00491,-3.08766 2.6058776,2.6058776 0 0 1 3.08355,-2.01124 2.6058776,2.6058776 0 0 1 2.01756,3.07942 2.6058776,2.6058776 0 0 1 -3.07528,2.02386"
     id="path3555"
     style="opacity:1;fill:#000000;fill-opacity:1;stroke:none;stroke-width:0.76973677;stroke-linecap:round;stroke-miterlimit:4;stroke-dasharray:2.30921042, 2.30921042;stroke-dashoffset:0;stroke-opacity:1" />
  <path
     inkscape:connector-curvature="0"
     style="opacity:1;fill:#000000;fill-opacity:1;stroke:none;stroke-width:0.76973677;stroke-linecap:round;stroke-miterlimit:4;stroke-dasharray:2.30921042, 2.30921042;stroke-dashoffset:0;stroke-opacity:1"
     id="path3557"
     d="m 230.27134,166.33761 a 2.6058776,2.6058776 0 0 1 -2.00491,-3.08767 2.6058776,2.6058776 0 0 1 3.08355,-2.01123 2.6058776,2.6058776 0 0 1 2.01756,3.07942 2.6058776,2.6058776 0 0 1 -3.07528,2.02386" />
  <path
     inkscape:connector-curvature="0"
     d="m 244.23617,167.20623 a 2.6058776,2.6058776 0 0 1 -2.00491,-3.08766 2.6058776,2.6058776 0 0 1 3.08355,-2.01124 2.6058776,2.6058776 0 0 1 2.01756,3.07942 2.6058776,2.6058776 0 0 1 -3.07528,2.02387"
     id="path3559"
     style="opacity:1;fill:#000000;fill-opacity:1;stroke:none;stroke-width:0.76973677;stroke-linecap:round;stroke-miterlimit:4;stroke-dasharray:2.30921042, 2.30921042;stroke-dashoffset:0;stroke-opacity:1" />
  <path
     inkscape:connector-curvature="0"
     style="opacity:1;fill:#000000;fill-opacity:1;stroke:none;stroke-width:0.76973677;stroke-linecap:round;stroke-miterlimit:4;stroke-dasharray:2.30921042, 2.30921042;stroke-dashoffset:0;stroke-opacity:1"
     id="path3561"
     d="m 262.07641,168.34213 a 2.6058776,2.6058776 0 0 1 -2.00491,-3.08767 2.6058776,2.6058776 0 0 1 3.08355,-2.01123 2.6058776,2.6058776 0 0 1 2.01756,3.07942 2.6058776,2.6058776 0 0 1 -3.07528,2.02386" />
  <text
     xml:space="preserve"
     style="font-style:normal;font-weight:normal;font-size:11.90625px;line-height:125%;font-family:Sans;text-align:end;letter-spacing:0px;word-spacing:0px;text-anchor:end;fill:#000000;fill-opacity:1;stroke:none;stroke-width:0.26458332px;stroke-linecap:butt;stroke-linejoin:miter;stroke-opacity:1"
     x="100.16221"
     y="180.0278"
     id="text3565"><tspan
       id="tspan3563"
       x="100.16221"
       y="180.0278"
       style="font-style:normal;font-variant:normal;font-weight:normal;font-stretch:normal;font-family:times;-inkscape-font-specification:times;stroke-width:0.26458332px">-25</tspan></text>
  <text
     id="text3569"
     y="180.0278"
     x="150.0038"
     style="font-style:normal;font-weight:normal;font-size:11.90625px;line-height:125%;font-family:Sans;text-align:end;letter-spacing:0px;word-spacing:0px;text-anchor:end;fill:#000000;fill-opacity:1;stroke:none;stroke-width:0.26458332px;stroke-linecap:butt;stroke-linejoin:miter;stroke-opacity:1"
     xml:space="preserve"><tspan
       style="font-style:normal;font-variant:normal;font-weight:normal;font-stretch:normal;font-family:times;-inkscape-font-specification:times;stroke-width:0.26458332px"
       y="180.0278"
       x="150.0038"
       id="tspan3567">-15</tspan></text>
  <text
     xml:space="preserve"
     style="font-style:normal;font-weight:normal;font-size:11.90625px;line-height:125%;font-family:Sans;text-align:end;letter-spacing:0px;word-spacing:0px;text-anchor:end;fill:#000000;fill-opacity:1;stroke:none;stroke-width:0.26458332px;stroke-linecap:butt;stroke-linejoin:miter;stroke-opacity:1"
     x="195.35725"
     y="180.0278"
     id="text3573"><tspan
       id="tspan3571"
       x="195.35725"
       y="180.0278"
       style="font-style:normal;font-variant:normal;font-weight:normal;font-stretch:normal;font-family:times;-inkscape-font-specification:times;stroke-width:0.26458332px">-5</tspan></text>
  <text
     id="text3577"
     y="180.0278"
     x="241.74071"
     style="font-style:normal;font-weight:normal;font-size:11.90625px;line-height:125%;font-family:Sans;text-align:end;letter-spacing:0px;word-spacing:0px;text-anchor:end;fill:#000000;fill-opacity:1;stroke:none;stroke-width:0.26458332px;stroke-linecap:butt;stroke-linejoin:miter;stroke-opacity:1"
     xml:space="preserve"><tspan
       style="font-style:normal;font-variant:normal;font-weight:normal;font-stretch:normal;font-family:times;-inkscape-font-specification:times;stroke-width:0.26458332px"
       y="180.0278"
       x="241.74071"
       id="tspan3575">5</tspan></text>
  <text
     xml:space="preserve"
     style="font-style:normal;font-weight:normal;font-size:11.90625px;line-height:125%;font-family:Sans;text-align:end;letter-spacing:0px;word-spacing:0px;text-anchor:end;fill:#000000;fill-opacity:1;stroke:none;stroke-width:0.26458332px;stroke-linecap:butt;stroke-linejoin:miter;stroke-opacity:1"
     x="293.82468"
     y="180.0278"
     id="text3581"><tspan
       id="tspan3579"
       x="293.82468"
       y="180.0278"
       style="font-style:normal;font-variant:normal;font-weight:normal;font-stretch:normal;font-family:times;-inkscape-font-specification:times;stroke-width:0.26458332px">15</tspan></text>
  <text
     id="text3585"
     y="171.90688"
     x="42.986935"
     style="font-style:normal;font-weight:normal;font-size:11.90625px;line-height:125%;font-family:Sans;text-align:end;letter-spacing:0px;word-spacing:0px;text-anchor:end;fill:#000000;fill-opacity:1;stroke:none;stroke-width:0.26458332px;stroke-linecap:butt;stroke-linejoin:miter;stroke-opacity:1"
     xml:space="preserve"><tspan
       style="font-style:normal;font-variant:normal;font-weight:normal;font-stretch:normal;font-family:times;-inkscape-font-specification:times;stroke-width:0.26458332px"
       y="171.90688"
       x="42.986935"
       id="tspan3583">0.00</tspan></text>
  <text
     xml:space="preserve"
     style="font-style:normal;font-weight:normal;font-size:11.90625px;line-height:125%;font-family:Sans;text-align:end;letter-spacing:0px;word-spacing:0px;text-anchor:end;fill:#000000;fill-opacity:1;stroke:none;stroke-width:0.26458332px;stroke-linecap:butt;stroke-linejoin:miter;stroke-opacity:1"
     x="42.986935"
     y="139.4881"
     id="text3597"><tspan
       id="tspan3595"
       x="42.986935"
       y="139.4881"
       style="font-style:normal;font-variant:normal;font-weight:normal;font-stretch:normal;font-family:times;-inkscape-font-specification:times;stroke-width:0.26458332px">0.10</tspan></text>
  <text
     id="text3601"
     y="106.22382"
     x="42.986935"
     style="font-style:normal;font-weight:normal;font-size:11.90625px;line-height:125%;font-family:Sans;text-align:end;letter-spacing:0px;word-spacing:0px;text-anchor:end;fill:#000000;fill-opacity:1;stroke:none;stroke-width:0.26458332px;stroke-linecap:butt;stroke-linejoin:miter;stroke-opacity:1"
     xml:space="preserve"><tspan
       style="font-style:normal;font-variant:normal;font-weight:normal;font-stretch:normal;font-family:times;-inkscape-font-specification:times;stroke-width:0.26458332px"
       y="106.22382"
       x="42.986935"
       id="tspan3599">0.20</tspan></text>
  <text
     xml:space="preserve"
     style="font-style:normal;font-weight:normal;font-size:11.90625px;line-height:125%;font-family:Sans;text-align:end;letter-spacing:0px;word-spacing:0px;text-anchor:end;fill:#000000;fill-opacity:1;stroke:none;stroke-width:0.26458332px;stroke-linecap:butt;stroke-linejoin:miter;stroke-opacity:1"
     x="42.986935"
     y="72.959503"
     id="text3605"><tspan
       id="tspan3603"
       x="42.986935"
       y="72.959503"
       style="font-style:normal;font-variant:normal;font-weight:normal;font-stretch:normal;font-family:times;-inkscape-font-specification:times;stroke-width:0.26458332px">0.80</tspan></text>
  <text
     id="text3609"
     y="39.64761"
     x="42.986935"
     style="font-style:normal;font-weight:normal;font-size:11.90625px;line-height:125%;font-family:Sans;text-align:end;letter-spacing:0px;word-spacing:0px;text-anchor:end;fill:#000000;fill-opacity:1;stroke:none;stroke-width:0.26458332px;stroke-linecap:butt;stroke-linejoin:miter;stroke-opacity:1"
     xml:space="preserve"><tspan
       style="font-style:normal;font-variant:normal;font-weight:normal;font-stretch:normal;font-family:times;-inkscape-font-specification:times;stroke-width:0.26458332px"
       y="39.64761"
       x="42.986935"
       id="tspan3607">0.90</tspan></text>
  <text
     xml:space="preserve"
     style="font-style:normal;font-weight:normal;font-size:11.90625px;line-height:125%;font-family:Sans;text-align:end;letter-spacing:0px;word-spacing:0px;text-anchor:end;fill:#000000;fill-opacity:1;stroke:none;stroke-width:0.26458332px;stroke-linecap:butt;stroke-linejoin:miter;stroke-opacity:1"
     x="42.469013"
     y="8.048625"
     id="text3613"><tspan
       id="tspan3611"
       x="42.469013"
       y="8.048625"
       style="font-style:normal;font-variant:normal;font-weight:normal;font-stretch:normal;font-family:times;-inkscape-font-specification:times;stroke-width:0.26458332px">1.00</tspan></text>
  <g
     id="g3710"
     transform="translate(26.956057,-84.300458)">
    <g
       transform="matrix(0.67784043,0,0,0.67784043,34.930434,87.455181)"
       id="g3642">
      <text
         xml:space="preserve"
         style="font-style:normal;font-weight:normal;font-size:23.63007736px;line-height:125%;font-family:Sans;text-align:end;letter-spacing:0px;word-spacing:0px;text-anchor:end;fill:#000000;fill-opacity:1;stroke:none;stroke-width:0.52511281px;stroke-linecap:butt;stroke-linejoin:miter;stroke-opacity:1"
         x="135.07986"
         y="286.85617"
         id="text3617"><tspan
           id="tspan3615"
           x="135.07986"
           y="286.85617"
           style="font-style:normal;font-variant:normal;font-weight:normal;font-stretch:normal;font-family:times;-inkscape-font-specification:times;stroke-width:0.52511281px">ε<tspan
   style="font-size:64.99999762%;baseline-shift:sub"
   id="tspan3619">nlj</tspan></tspan></text>
      <text
         id="text3625"
         y="277.78058"
         x="129.2486"
         style="font-style:normal;font-weight:normal;font-size:9.341959px;line-height:125%;font-family:Sans;text-align:end;letter-spacing:0px;word-spacing:0px;text-anchor:end;fill:#000000;fill-opacity:1;stroke:none;stroke-width:0.20759907px;stroke-linecap:butt;stroke-linejoin:miter;stroke-opacity:1"
         xml:space="preserve"><tspan
           style="font-style:normal;font-variant:normal;font-weight:normal;font-stretch:normal;font-family:times;-inkscape-font-specification:times;stroke-width:0.20759907px"
           y="277.78058"
           x="129.2486"
           id="tspan3623">(0)</tspan></text>
    </g>
    <text
       xml:space="preserve"
       style="font-style:normal;font-weight:normal;font-size:13.61453724px;line-height:125%;font-family:Sans;text-align:end;letter-spacing:0px;word-spacing:0px;text-anchor:end;fill:#000000;fill-opacity:1;stroke:none;stroke-width:0.30254528px;stroke-linecap:butt;stroke-linejoin:miter;stroke-opacity:1"
       x="164.67668"
       y="281.35416"
       id="text3648"><tspan
         id="tspan3646"
         x="164.67668"
         y="281.35416"
         style="font-style:normal;font-variant:normal;font-weight:normal;font-stretch:normal;font-family:times;-inkscape-font-specification:times;stroke-width:0.30254528px">(MeV)</tspan></text>
  </g>
  <text
     id="text3714"
     y="10.180497"
     x="-74.559296"
     style="font-style:normal;font-weight:normal;font-size:22.1315155px;line-height:125%;font-family:Sans;text-align:end;letter-spacing:0px;word-spacing:0px;text-anchor:end;fill:#000000;fill-opacity:1;stroke:none;stroke-width:0.49181145px;stroke-linecap:butt;stroke-linejoin:miter;stroke-opacity:1"
     xml:space="preserve"
     transform="rotate(-90)"><tspan
       style="font-style:normal;font-variant:normal;font-weight:normal;font-stretch:normal;font-family:times;-inkscape-font-specification:times;stroke-width:0.49181145px"
       y="10.180497"
       x="-74.559296"
       id="tspan3712">n<tspan
   style="font-size:14.3854847px;baseline-shift:sub;stroke-width:0.49181145px"
   id="tspan3716">nlj</tspan></tspan></text>
  <text
     xml:space="preserve"
     style="font-style:normal;font-weight:normal;font-size:17.72632027px;line-height:125%;font-family:Sans;text-align:end;letter-spacing:0px;word-spacing:0px;text-anchor:end;fill:#000000;fill-opacity:1;stroke:none;stroke-width:0.39391822px;stroke-linecap:butt;stroke-linejoin:miter;stroke-opacity:1"
     x="132.21156"
     y="91.534424"
     id="text3722"><tspan
       id="tspan3720"
       x="132.21156"
       y="91.534424"
       style="font-style:normal;font-variant:normal;font-weight:normal;font-stretch:normal;font-family:times;-inkscape-font-specification:times;stroke-width:0.39391822px">n-<tspan
   style="font-size:11.52210712px;baseline-shift:super;stroke-width:0.39391822px"
   id="tspan3724">208</tspan>Pb</tspan></text>
  <path
     inkscape:connector-curvature="0"
     style="fill:none;fill-rule:evenodd;stroke:#000000;stroke-width:0.5;stroke-linecap:butt;stroke-linejoin:miter;stroke-miterlimit:4;stroke-dasharray:none;stroke-opacity:1;marker-end:url(#Arrow1Mend)"
     d="m 177.99578,155.61446 v 8.6612"
     id="path3751" />
  <path
     inkscape:connector-curvature="0"
     id="path4107"
     d="m 202.0593,155.61446 v 8.6612"
     style="fill:none;fill-rule:evenodd;stroke:#000000;stroke-width:0.5;stroke-linecap:butt;stroke-linejoin:miter;stroke-miterlimit:4;stroke-dasharray:none;stroke-opacity:1;marker-end:url(#marker4111)" />
</svg>
