<?xml version="1.0" encoding="UTF-8" standalone="no"?>
<!-- Created with Inkscape (http://www.inkscape.org/) -->

<svg
   xmlns:dc="http://purl.org/dc/elements/1.1/"
   xmlns:cc="http://creativecommons.org/ns#"
   xmlns:rdf="http://www.w3.org/1999/02/22-rdf-syntax-ns#"
   xmlns:svg="http://www.w3.org/2000/svg"
   xmlns="http://www.w3.org/2000/svg"
   xmlns:sodipodi="http://sodipodi.sourceforge.net/DTD/sodipodi-0.dtd"
   xmlns:inkscape="http://www.inkscape.org/namespaces/inkscape"
   sodipodi:docname="fig1_4_2.svg"
   inkscape:version="0.91 r13725"
   version="1.1"
   id="svg23892"
   viewBox="0 0 703.31175 210.94907"
   height="59.534515mm"
   width="198.4902mm">
  <sodipodi:namedview
     inkscape:window-maximized="1"
     inkscape:window-y="24"
     inkscape:window-x="39"
     inkscape:window-height="744"
     inkscape:window-width="1327"
     showgrid="false"
     inkscape:current-layer="layer1"
     inkscape:document-units="px"
     inkscape:cy="44.939237"
     inkscape:cx="347.92912"
     inkscape:zoom="0.7"
     inkscape:pageshadow="2"
     inkscape:pageopacity="0.0"
     borderopacity="1.0"
     bordercolor="#666666"
     pagecolor="#ffffff"
     id="base"
     fit-margin-top="0"
     fit-margin-left="0"
     fit-margin-right="0"
     fit-margin-bottom="0" />
  <defs
     id="defs23894" />
  <metadata
     id="metadata23897">
    <rdf:RDF>
      <cc:Work
         rdf:about="">
        <dc:format>image/svg+xml</dc:format>
        <dc:type
           rdf:resource="http://purl.org/dc/dcmitype/StillImage" />
        <dc:title></dc:title>
      </cc:Work>
    </rdf:RDF>
  </metadata>
  <g
     id="layer1"
     inkscape:groupmode="layer"
     inkscape:label="Layer 1"
     transform="translate(-23.003583,-231.56399)">
    <g
       id="g4312"
       transform="matrix(0.13474785,0,0,0.13474785,335.9853,311.23364)">
      <path
         style="opacity:1;fill:none;fill-opacity:1;stroke:#000000;stroke-width:3.07260346;stroke-linecap:round;stroke-miterlimit:4;stroke-dasharray:none;stroke-dashoffset:0;stroke-opacity:1"
         d="m -2321.1848,344.64297 c 0.2632,-170.5377 157.9603,-307.856315 157.9603,-307.856315 0,0 157.2736,139.174295 157.0139,309.711995 -0.2598,170.53777 -157.9545,307.86777 -157.9545,307.86777 0,0 -157.2761,-139.163 -157.0197,-309.70076"
         id="path24472"
         inkscape:connector-curvature="0"
         sodipodi:nodetypes="ccscc" />
      <path
         style="opacity:1;fill:#000000;fill-opacity:1;stroke:#000000;stroke-width:2;stroke-linecap:round;stroke-miterlimit:4;stroke-dasharray:none;stroke-dashoffset:0;stroke-opacity:1"
         id="path24484"
         sodipodi:type="arc"
         sodipodi:cx="-2163.6978"
         sodipodi:cy="49.714279"
         sodipodi:rx="17.857143"
         sodipodi:ry="17.857143"
         sodipodi:start="3.1446121"
         sodipodi:end="3.1445423"
         sodipodi:open="true"
         d="m -2181.5548,49.660361 a 17.857143,17.857143 0 0 1 17.9107,-17.803145 17.857143,17.857143 0 0 1 17.8034,17.910359 17.857143,17.857143 0 0 1 -17.91,17.803769 17.857143,17.857143 0 0 1 -17.8041,-17.909737" />
      <path
         d="m -2181.5548,647.11741 a 17.857143,17.857143 0 0 1 17.9107,-17.80315 17.857143,17.857143 0 0 1 17.8034,17.91036 17.857143,17.857143 0 0 1 -17.91,17.80377 17.857143,17.857143 0 0 1 -17.8041,-17.90974"
         sodipodi:open="true"
         sodipodi:end="3.1445423"
         sodipodi:start="3.1446121"
         sodipodi:ry="17.857143"
         sodipodi:rx="17.857143"
         sodipodi:cy="647.17133"
         sodipodi:cx="-2163.6978"
         sodipodi:type="arc"
         id="path24486"
         style="opacity:1;fill:#000000;fill-opacity:1;stroke:#000000;stroke-width:2;stroke-linecap:round;stroke-miterlimit:4;stroke-dasharray:none;stroke-dashoffset:0;stroke-opacity:1" />
      <g
         id="g29590"
         transform="matrix(0.14336348,0,0,0.22306509,-2360.9131,764.20789)">
        <path
           inkscape:connector-curvature="0"
           style="opacity:1;fill:none;fill-opacity:1;stroke:#000000;stroke-width:15;stroke-linecap:round;stroke-miterlimit:4;stroke-dasharray:none;stroke-dashoffset:0;stroke-opacity:1"
           d="m 1255.8552,-531.77777 c -0.01,-30.58212 -8.5381,-61.16427 -23.9,-91.74639 -15.3618,-30.58213 -37.4861,-61.16425 -61.9533,-91.7464 -24.4672,-30.58212 -51.1468,-61.16424 -74.7413,-91.74639 -23.5944,-30.58212 -43.949,-61.16425 -57.0485,-91.74637 -13.0996,-30.58215 -18.8283,-61.16427 -16.0908,-91.7464 2.7375,-30.58208 13.971,-61.16428 31.4291,-91.74638 17.4582,-30.5821 41.0727,-61.1643 66.1318,-91.7464 25.0592,-30.5821 51.4242,-61.1643 73.8649,-91.7464 22.4407,-30.5821 40.8045,-61.1642 51.475,-91.7464 10.6706,-30.5821 13.544,-61.1642 8.0928,-91.7464 -5.4511,-30.5821 -19.24,-61.1642 -38.5897,-91.7464 -19.3498,-30.5821 -44.1775,-61.1642 -69.5348,-91.7464 -25.3573,-30.582 -51.0989,-61.1642 -72.1227,-91.7464 -21.0239,-30.582 -37.1814,-61.1642 -45.2979,-91.7464 -8.1165,-30.582 -8.1009,-61.1642 0,-91.7462 8.1009,-30.5822 24.2833,-61.1644 45.2979,-91.7464 21.0146,-30.5822 46.7645,-61.1645 72.1227,-91.7464 25.3582,-30.5823 50.1744,-61.1642 69.5348,-91.7465 19.3605,-30.5822 33.1225,-61.1642 38.5897,-91.7464 5.4673,-30.5822 2.5628,-61.1642 -8.0928,-91.7464 -10.6556,-30.582 -29.0421,-61.1642 -51.475,-91.7464 -22.4329,-30.582 -48.8032,-61.1642 -73.8649,-91.7464 -25.0618,-30.582 -48.6617,-61.1642 -66.1318,-91.7462 -17.4701,-30.5822 -28.6752,-61.1645 -31.4291,-91.7464 -2.7539,-30.5823 3.0054,-61.1645 16.0908,-91.7465 13.0853,-30.5822 33.4602,-61.1642 57.0485,-91.7464 23.5883,-30.5822 50.2697,-61.1642 74.7413,-91.7464 24.4715,-30.5822 46.5783,-61.1642 61.9533,-91.7464 15.375,-30.582 23.8918,-61.1642 23.9,-91.7464"
           title="cos(3*t) t"
           id="path29576" />
        <path
           id="path29588"
           title="cos(3*t) t"
           d="m 1484.4266,-531.77777 c -0.01,-30.58212 -8.5381,-61.16427 -23.9,-91.74639 -15.3618,-30.58213 -37.4861,-61.16425 -61.9533,-91.7464 -24.4672,-30.58212 -51.1468,-61.16424 -74.7413,-91.74639 -23.5944,-30.58212 -43.949,-61.16425 -57.0485,-91.74637 -13.0996,-30.58215 -18.8283,-61.16427 -16.0908,-91.7464 2.7375,-30.58208 13.971,-61.16428 31.4291,-91.74638 17.4582,-30.5821 41.0727,-61.1643 66.1318,-91.7464 25.0592,-30.5821 51.4242,-61.1643 73.8649,-91.7464 22.4407,-30.5821 40.8045,-61.1642 51.475,-91.7464 10.6706,-30.5821 13.544,-61.1642 8.0928,-91.7464 -5.4511,-30.5821 -19.24,-61.1642 -38.5897,-91.7464 -19.3498,-30.5821 -44.1775,-61.1642 -69.5348,-91.7464 -25.3573,-30.582 -51.0989,-61.1642 -72.1227,-91.7464 -21.0239,-30.582 -37.1814,-61.1642 -45.2979,-91.7464 -8.1165,-30.582 -8.1009,-61.1642 0,-91.7462 8.1009,-30.5822 24.2833,-61.1644 45.2979,-91.7464 21.0146,-30.5822 46.7645,-61.1645 72.1227,-91.7464 25.3582,-30.5823 50.1744,-61.1642 69.5348,-91.7465 19.3605,-30.5822 33.1225,-61.1642 38.5897,-91.7464 5.4673,-30.5822 2.5628,-61.1642 -8.0928,-91.7464 -10.6556,-30.582 -29.0421,-61.1642 -51.475,-91.7464 -22.4329,-30.582 -48.8032,-61.1642 -73.8649,-91.7464 -25.0618,-30.582 -48.6617,-61.1642 -66.1318,-91.7462 -17.4701,-30.5822 -28.6752,-61.1645 -31.4291,-91.7464 -2.7539,-30.5823 3.0054,-61.1645 16.0908,-91.7465 13.0853,-30.5822 33.4602,-61.1642 57.0485,-91.7464 23.5883,-30.5822 50.2697,-61.1642 74.7413,-91.7464 24.4715,-30.5822 46.5783,-61.1642 61.9533,-91.7464 15.375,-30.582 23.8918,-61.1642 23.9,-91.7464"
           style="opacity:1;fill:none;fill-opacity:1;stroke:#000000;stroke-width:15;stroke-linecap:round;stroke-miterlimit:4;stroke-dasharray:none;stroke-dashoffset:0;stroke-opacity:1"
           inkscape:connector-curvature="0" />
      </g>
    </g>
    <g
       id="g4580"
       transform="matrix(0.13474785,0,0,0.13474785,284.80575,271.4878)">
      <g
         transform="translate(266.68027,150.28594)"
         id="g4399">
        <g
           id="g4372"
           transform="matrix(0.42481634,-0.90527957,0.90527957,0.42481634,1607.3978,2067.4737)">
          <path
             id="path4374"
             title="cos(t)*(7+sin(9*t)) sin(t)*(7+sin(9*t))"
             d="m 2018.3338,465.28099 c 7.5478,7.99825 16.2886,15.5272 25.2666,19.24133 8.9782,3.71361 18.044,3.46211 25.6213,-0.94019 7.5774,-4.40236 13.5437,-12.85643 17.891,-22.30578 4.3471,-9.44883 7.133,-19.65101 10.351,-27.27911 3.2184,-7.62809 7.063,-12.53785 13.4242,-14.1873 6.3615,-1.64942 15.3577,-0.12521 26.3328,2.11528 10.9746,2.23949 23.8168,4.97787 35.4179,5.36206 11.601,0.38569 21.7109,-1.71006 27.6974,-6.8447 5.987,-5.13466 7.7167,-13.23458 5.9278,-22.40138 -1.7888,-9.16704 -6.9599,-19.22622 -11.7106,-28.02349 -4.7505,-8.79734 -8.7936,-16.2489 -8.8001,-22.02642 0,-5.77698 4.176,-9.9616 12.0242,-13.9181 7.8483,-3.9564 19.2156,-7.82259 29.9749,-12.7695 10.7595,-4.94647 20.5971,-11.00507 25.6002,-17.79774 5.0026,-6.79264 4.9936,-14.21452 0,-21.00848 -4.994,-6.79356 -14.8422,-12.8495 -25.6002,-17.79772 -10.7578,-4.94872 -22.1202,-8.81311 -29.9749,-12.7691 -7.8548,-3.95652 -12.0227,-8.14423 -12.0242,-13.91851 0,-5.77434 4.0501,-13.23134 8.8001,-22.02641 4.7497,-8.79513 9.9152,-18.85466 11.7106,-28.02306 1.7954,-9.16883 0.051,-17.26141 -5.9278,-22.40147 -5.9784,-5.14051 -16.099,-7.22518 -27.6974,-6.84516 -11.5986,0.38169 -24.4403,3.12187 -35.4179,5.36242 -10.9786,2.24054 -19.9663,3.75879 -26.3328,2.11522 -6.3662,-1.64314 -10.2053,-6.56402 -13.4242,-14.18719 -3.2185,-7.62313 -6.007,-17.82824 -10.351,-27.27918 -4.3442,-9.45088 -10.3162,-17.89564 -17.891,-22.30575 -7.5748,-4.409707 -16.6426,-4.646426 -25.6213,-0.94017 -8.978,3.7067 -17.7188,11.24318 -25.2666,19.24143"
             style="fill:#ffffff;fill-opacity:1;stroke:#000000;stroke-width:2.5704093;stroke-linecap:round;stroke-miterlimit:4;stroke-dasharray:none;stroke-dashoffset:0;stroke-opacity:1"
             inkscape:connector-curvature="0" />
          <path
             inkscape:connector-curvature="0"
             style="fill:#ffffff;fill-opacity:1;stroke:#000000;stroke-width:2.75837493;stroke-linecap:round;stroke-miterlimit:4;stroke-dasharray:none;stroke-dashoffset:0;stroke-opacity:1"
             d="m 1996.0241,445.99568 c 7.3008,7.04433 15.7556,13.67535 24.4399,16.94647 8.6844,3.27077 17.4534,3.04923 24.7828,-0.82803 7.3295,-3.87729 13.1007,-11.32311 17.3056,-19.64546 4.2049,-8.32192 6.8997,-17.30734 10.0126,-24.02567 3.1129,-6.71832 6.8316,-11.04251 12.9847,-12.49523 6.1535,-1.45274 14.8552,-0.11024 25.4712,1.86299 10.6156,1.9724 23.0376,4.38419 34.259,4.72255 11.2213,0.3397 21.0005,-1.50609 26.7912,-6.02836 5.7912,-4.52227 7.4643,-11.65616 5.7339,-19.72966 -1.7304,-8.07373 -6.7324,-16.9332 -11.3276,-24.68126 -4.5949,-7.74812 -8.5059,-14.31097 -8.5121,-19.39943 0,-5.08799 4.0395,-8.77351 11.6308,-12.25815 7.5914,-3.48454 18.5867,-6.88964 28.9941,-11.24654 10.4074,-4.35653 19.923,-9.69254 24.7626,-15.67506 4.8388,-5.98254 4.83,-12.51924 0,-18.50292 -4.8307,-5.98333 -14.3567,-11.317 -24.7626,-15.67507 -10.406,-4.3585 -21.3965,-7.76199 -28.9941,-11.24619 -7.5977,-3.48462 -11.6294,-7.1729 -11.6308,-12.25849 0,-5.08567 3.9176,-11.6533 8.5121,-19.39944 4.5943,-7.74616 9.5909,-16.60594 11.3276,-24.68086 1.7366,-8.07531 0.048,-15.20271 -5.7339,-19.72974 -5.783,-4.52744 -15.5723,-6.36347 -26.7912,-6.02877 -11.219,0.33615 -23.6404,2.74953 -34.259,4.72287 -10.6195,1.97331 -19.3129,3.31049 -25.4712,1.86293 -6.1579,-1.44716 -9.8713,-5.78113 -12.9847,-12.49513 -3.1134,-6.71396 -5.8106,-15.70193 -10.0126,-24.02571 -4.202,-8.32374 -9.9785,-15.76131 -17.3056,-19.64546 -7.3268,-3.88378 -16.098,-4.09226 -24.7828,-0.82804 -8.6843,3.26461 -17.1391,9.90228 -24.4399,16.94661"
             title="cos(t)*(7+sin(9*t)) sin(t)*(7+sin(9*t))"
             id="path4376" />
          <rect
             style="opacity:1;fill:#ffffff;fill-opacity:1;stroke:none;stroke-width:10;stroke-linecap:round;stroke-miterlimit:4;stroke-dasharray:none;stroke-dashoffset:0;stroke-opacity:1"
             id="rect4378"
             width="89.079659"
             height="556.74786"
             x="1968.5715"
             y="26.8941" />
          <path
             style="opacity:1;fill:#000000;fill-opacity:1;stroke:#000000;stroke-width:2.1985898;stroke-linecap:round;stroke-miterlimit:4;stroke-dasharray:none;stroke-dashoffset:0;stroke-opacity:1"
             id="path4380"
             sodipodi:type="arc"
             sodipodi:cx="2054.1831"
             sodipodi:cy="117.95227"
             sodipodi:rx="19.630268"
             sodipodi:ry="19.630268"
             sodipodi:start="3.1446121"
             sodipodi:end="3.1445423"
             sodipodi:open="true"
             d="m 2034.5529,117.893 a 19.630268,19.630268 0 0 1 19.6891,-19.570909 19.630268,19.630268 0 0 1 19.5713,19.688769 19.630268,19.630268 0 0 1 -19.6884,19.57159 19.630268,19.630268 0 0 1 -19.572,-19.68808" />
          <path
             d="m 2034.5529,466.46444 a 19.630268,19.630268 0 0 1 19.6891,-19.57091 19.630268,19.630268 0 0 1 19.5713,19.68877 19.630268,19.630268 0 0 1 -19.6884,19.57159 19.630268,19.630268 0 0 1 -19.572,-19.68808"
             sodipodi:open="true"
             sodipodi:end="3.1445423"
             sodipodi:start="3.1446121"
             sodipodi:ry="19.630268"
             sodipodi:rx="19.630268"
             sodipodi:cy="466.52371"
             sodipodi:cx="2054.1831"
             sodipodi:type="arc"
             id="path4382"
             style="opacity:1;fill:#000000;fill-opacity:1;stroke:#000000;stroke-width:2.1985898;stroke-linecap:round;stroke-miterlimit:4;stroke-dasharray:none;stroke-dashoffset:0;stroke-opacity:1" />
        </g>
        <path
           style="fill:none;fill-rule:evenodd;stroke:#000000;stroke-width:3;stroke-linecap:butt;stroke-linejoin:miter;stroke-miterlimit:4;stroke-dasharray:none;stroke-opacity:1"
           d="m 2917.1429,412.36221 0,-640"
           id="path4386"
           inkscape:connector-curvature="0" />
        <path
           style="fill:none;fill-rule:evenodd;stroke:#000000;stroke-width:3;stroke-linecap:butt;stroke-linejoin:miter;stroke-miterlimit:4;stroke-dasharray:none;stroke-opacity:1"
           d="m 2905.7143,412.36221 -322.8572,-154.28572 0,553.86941"
           id="path4388"
           inkscape:connector-curvature="0" />
      </g>
      <g
         id="g4458">
        <path
           style="fill:none;fill-rule:evenodd;stroke:#000000;stroke-width:5;stroke-linecap:butt;stroke-linejoin:miter;stroke-miterlimit:4;stroke-dasharray:15, 15;stroke-dashoffset:0;stroke-opacity:1"
           d="m 2849.911,959.48153 -265.4766,0"
           id="path4434"
           inkscape:connector-curvature="0" />
        <g
           id="g4436"
           transform="matrix(0.95131583,0,0,0.95131583,3224.4694,-616.69384)">
          <path
             inkscape:connector-curvature="0"
             id="path4438"
             d="m -700,1695.2193 75.71429,-75.7142"
             style="fill:none;fill-rule:evenodd;stroke:#000000;stroke-width:6;stroke-linecap:round;stroke-linejoin:miter;stroke-miterlimit:4;stroke-dasharray:none;stroke-opacity:1" />
          <path
             style="fill:none;fill-rule:evenodd;stroke:#000000;stroke-width:6;stroke-linecap:round;stroke-linejoin:miter;stroke-miterlimit:4;stroke-dasharray:none;stroke-opacity:1"
             d="m -624.28575,1695.2193 -75.7142,-75.7142"
             id="path4440"
             inkscape:connector-curvature="0" />
        </g>
      </g>
    </g>
    <g
       id="g4565"
       transform="matrix(0.13474785,0,0,0.13474785,295.15055,279.65476)">
      <g
         transform="translate(0,65.505501)"
         id="g4390">
        <g
           id="g4365">
          <path
             inkscape:connector-curvature="0"
             style="fill:#ffffff;fill-opacity:1;stroke:#000000;stroke-width:2.5704093;stroke-linecap:round;stroke-miterlimit:4;stroke-dasharray:none;stroke-dashoffset:0;stroke-opacity:1"
             d="m 2018.3338,465.28099 c 7.5478,7.99825 16.2886,15.5272 25.2666,19.24133 8.9782,3.71361 18.044,3.46211 25.6213,-0.94019 7.5774,-4.40236 13.5437,-12.85643 17.891,-22.30578 4.3471,-9.44883 7.133,-19.65101 10.351,-27.27911 3.2184,-7.62809 7.063,-12.53785 13.4242,-14.1873 6.3615,-1.64942 15.3577,-0.12521 26.3328,2.11528 10.9746,2.23949 23.8168,4.97787 35.4179,5.36206 11.601,0.38569 21.7109,-1.71006 27.6974,-6.8447 5.987,-5.13466 7.7167,-13.23458 5.9278,-22.40138 -1.7888,-9.16704 -6.9599,-19.22622 -11.7106,-28.02349 -4.7505,-8.79734 -8.7936,-16.2489 -8.8001,-22.02642 0,-5.77698 4.176,-9.9616 12.0242,-13.9181 7.8483,-3.9564 19.2156,-7.82259 29.9749,-12.7695 10.7595,-4.94647 20.5971,-11.00507 25.6002,-17.79774 5.0026,-6.79264 4.9936,-14.21452 0,-21.00848 -4.994,-6.79356 -14.8422,-12.8495 -25.6002,-17.79772 -10.7578,-4.94872 -22.1202,-8.81311 -29.9749,-12.7691 -7.8548,-3.95652 -12.0227,-8.14423 -12.0242,-13.91851 0,-5.77434 4.0501,-13.23134 8.8001,-22.02641 4.7497,-8.79513 9.9152,-18.85466 11.7106,-28.02306 1.7954,-9.16883 0.051,-17.26141 -5.9278,-22.40147 -5.9784,-5.14051 -16.099,-7.22518 -27.6974,-6.84516 -11.5986,0.38169 -24.4403,3.12187 -35.4179,5.36242 -10.9786,2.24054 -19.9663,3.75879 -26.3328,2.11522 -6.3662,-1.64314 -10.2053,-6.56402 -13.4242,-14.18719 -3.2185,-7.62313 -6.007,-17.82824 -10.351,-27.27918 -4.3442,-9.45088 -10.3162,-17.89564 -17.891,-22.30575 -7.5748,-4.409707 -16.6426,-4.646426 -25.6213,-0.94017 -8.978,3.7067 -17.7188,11.24318 -25.2666,19.24143"
             title="cos(t)*(7+sin(9*t)) sin(t)*(7+sin(9*t))"
             id="path48683" />
          <path
             id="path60857"
             title="cos(t)*(7+sin(9*t)) sin(t)*(7+sin(9*t))"
             d="m 1996.0241,445.99568 c 7.3008,7.04433 15.7556,13.67535 24.4399,16.94647 8.6844,3.27077 17.4534,3.04923 24.7828,-0.82803 7.3295,-3.87729 13.1007,-11.32311 17.3056,-19.64546 4.2049,-8.32192 6.8997,-17.30734 10.0126,-24.02567 3.1129,-6.71832 6.8316,-11.04251 12.9847,-12.49523 6.1535,-1.45274 14.8552,-0.11024 25.4712,1.86299 10.6156,1.9724 23.0376,4.38419 34.259,4.72255 11.2213,0.3397 21.0005,-1.50609 26.7912,-6.02836 5.7912,-4.52227 7.4643,-11.65616 5.7339,-19.72966 -1.7304,-8.07373 -6.7324,-16.9332 -11.3276,-24.68126 -4.5949,-7.74812 -8.5059,-14.31097 -8.5121,-19.39943 0,-5.08799 4.0395,-8.77351 11.6308,-12.25815 7.5914,-3.48454 18.5867,-6.88964 28.9941,-11.24654 10.4074,-4.35653 19.923,-9.69254 24.7626,-15.67506 4.8388,-5.98254 4.83,-12.51924 0,-18.50292 -4.8307,-5.98333 -14.3567,-11.317 -24.7626,-15.67507 -10.406,-4.3585 -21.3965,-7.76199 -28.9941,-11.24619 -7.5977,-3.48462 -11.6294,-7.1729 -11.6308,-12.25849 0,-5.08567 3.9176,-11.6533 8.5121,-19.39944 4.5943,-7.74616 9.5909,-16.60594 11.3276,-24.68086 1.7366,-8.07531 0.048,-15.20271 -5.7339,-19.72974 -5.783,-4.52744 -15.5723,-6.36347 -26.7912,-6.02877 -11.219,0.33615 -23.6404,2.74953 -34.259,4.72287 -10.6195,1.97331 -19.3129,3.31049 -25.4712,1.86293 -6.1579,-1.44716 -9.8713,-5.78113 -12.9847,-12.49513 -3.1134,-6.71396 -5.8106,-15.70193 -10.0126,-24.02571 -4.202,-8.32374 -9.9785,-15.76131 -17.3056,-19.64546 -7.3268,-3.88378 -16.098,-4.09226 -24.7828,-0.82804 -8.6843,3.26461 -17.1391,9.90228 -24.4399,16.94661"
             style="fill:#ffffff;fill-opacity:1;stroke:#000000;stroke-width:2.75837493;stroke-linecap:round;stroke-miterlimit:4;stroke-dasharray:none;stroke-dashoffset:0;stroke-opacity:1"
             inkscape:connector-curvature="0" />
          <rect
             y="26.8941"
             x="1968.5715"
             height="556.74786"
             width="89.079659"
             id="rect60867"
             style="opacity:1;fill:#ffffff;fill-opacity:1;stroke:none;stroke-width:10;stroke-linecap:round;stroke-miterlimit:4;stroke-dasharray:none;stroke-dashoffset:0;stroke-opacity:1" />
          <path
             d="m 2034.5529,117.893 a 19.630268,19.630268 0 0 1 19.6891,-19.570909 19.630268,19.630268 0 0 1 19.5713,19.688769 19.630268,19.630268 0 0 1 -19.6884,19.57159 19.630268,19.630268 0 0 1 -19.572,-19.68808"
             sodipodi:open="true"
             sodipodi:end="3.1445423"
             sodipodi:start="3.1446121"
             sodipodi:ry="19.630268"
             sodipodi:rx="19.630268"
             sodipodi:cy="117.95227"
             sodipodi:cx="2054.1831"
             sodipodi:type="arc"
             id="path60893"
             style="opacity:1;fill:#000000;fill-opacity:1;stroke:#000000;stroke-width:2.1985898;stroke-linecap:round;stroke-miterlimit:4;stroke-dasharray:none;stroke-dashoffset:0;stroke-opacity:1" />
          <path
             style="opacity:1;fill:#000000;fill-opacity:1;stroke:#000000;stroke-width:2.1985898;stroke-linecap:round;stroke-miterlimit:4;stroke-dasharray:none;stroke-dashoffset:0;stroke-opacity:1"
             id="path4363"
             sodipodi:type="arc"
             sodipodi:cx="2054.1831"
             sodipodi:cy="466.52371"
             sodipodi:rx="19.630268"
             sodipodi:ry="19.630268"
             sodipodi:start="3.1446121"
             sodipodi:end="3.1445423"
             sodipodi:open="true"
             d="m 2034.5529,466.46444 a 19.630268,19.630268 0 0 1 19.6891,-19.57091 19.630268,19.630268 0 0 1 19.5713,19.68877 19.630268,19.630268 0 0 1 -19.6884,19.57159 19.630268,19.630268 0 0 1 -19.572,-19.68808" />
        </g>
        <path
           style="fill:none;fill-rule:evenodd;stroke:#000000;stroke-width:3;stroke-linecap:butt;stroke-linejoin:miter;stroke-miterlimit:4;stroke-dasharray:none;stroke-opacity:1"
           d="m 2047.2202,-344.78068 0,1168.66885"
           id="path60869"
           inkscape:connector-curvature="0" />
      </g>
      <g
         transform="translate(-802.70357,-72.918943)"
         id="g4464">
        <path
           inkscape:connector-curvature="0"
           id="path4466"
           d="m 2849.911,959.48153 -265.4766,0"
           style="fill:none;fill-rule:evenodd;stroke:#000000;stroke-width:5;stroke-linecap:butt;stroke-linejoin:miter;stroke-miterlimit:4;stroke-dasharray:15, 15;stroke-dashoffset:0;stroke-opacity:1" />
        <g
           transform="matrix(0.95131583,0,0,0.95131583,3224.4694,-616.69384)"
           id="g4468">
          <path
             style="fill:none;fill-rule:evenodd;stroke:#000000;stroke-width:6;stroke-linecap:round;stroke-linejoin:miter;stroke-miterlimit:4;stroke-dasharray:none;stroke-opacity:1"
             d="m -700,1695.2193 75.71429,-75.7142"
             id="path4470"
             inkscape:connector-curvature="0" />
          <path
             inkscape:connector-curvature="0"
             id="path4472"
             d="m -624.28575,1695.2193 -75.7142,-75.7142"
             style="fill:none;fill-rule:evenodd;stroke:#000000;stroke-width:6;stroke-linecap:round;stroke-linejoin:miter;stroke-miterlimit:4;stroke-dasharray:none;stroke-opacity:1" />
        </g>
      </g>
    </g>
    <g
       id="g4550"
       transform="matrix(0.13474785,0,0,0.13474785,271.19415,288.91063)">
      <path
         transform="matrix(-0.99998254,-0.00590862,0.00590862,-0.99998254,0,0)"
         style="opacity:1;fill:#000000;fill-opacity:1;stroke:#000000;stroke-width:2;stroke-linecap:round;stroke-miterlimit:4;stroke-dasharray:none;stroke-dashoffset:0;stroke-opacity:1"
         id="path4267"
         sodipodi:type="arc"
         sodipodi:cx="-1509.0071"
         sodipodi:cy="-755.47815"
         sodipodi:rx="17.857143"
         sodipodi:ry="17.857143"
         sodipodi:start="3.1446121"
         sodipodi:end="3.1445423"
         sodipodi:open="true"
         d="m -1526.8641,-755.53207 a 17.857143,17.857143 0 0 1 17.9106,-17.80314 17.857143,17.857143 0 0 1 17.8035,17.91036 17.857143,17.857143 0 0 1 -17.9101,17.80377 17.857143,17.857143 0 0 1 -17.804,-17.90974" />
      <g
         transform="matrix(0.14336348,0,0,0.22306509,1308.7682,878.1025)"
         id="g4269">
        <path
           id="path4271"
           title="cos(3*t) t"
           d="m 1255.8552,-531.77777 c -0.01,-30.58212 -8.5381,-61.16427 -23.9,-91.74639 -15.3618,-30.58213 -37.4861,-61.16425 -61.9533,-91.7464 -24.4672,-30.58212 -51.1468,-61.16424 -74.7413,-91.74639 -23.5944,-30.58212 -43.949,-61.16425 -57.0485,-91.74637 -13.0996,-30.58215 -18.8283,-61.16427 -16.0908,-91.7464 2.7375,-30.58208 13.971,-61.16428 31.4291,-91.74638 17.4582,-30.5821 41.0727,-61.1643 66.1318,-91.7464 25.0592,-30.5821 51.4242,-61.1643 73.8649,-91.7464 22.4407,-30.5821 40.8045,-61.1642 51.475,-91.7464 10.6706,-30.5821 13.544,-61.1642 8.0928,-91.7464 -5.4511,-30.5821 -19.24,-61.1642 -38.5897,-91.7464 -19.3498,-30.5821 -44.1775,-61.1642 -69.5348,-91.7464 -25.3573,-30.582 -51.0989,-61.1642 -72.1227,-91.7464 -21.0239,-30.582 -37.1814,-61.1642 -45.2979,-91.7464 -8.1165,-30.582 -8.1009,-61.1642 0,-91.7462 8.1009,-30.5822 24.2833,-61.1644 45.2979,-91.7464 21.0146,-30.5822 46.7645,-61.1645 72.1227,-91.7464 25.3582,-30.5823 50.1744,-61.1642 69.5348,-91.7465 19.3605,-30.5822 33.1225,-61.1642 38.5897,-91.7464 5.4673,-30.5822 2.5628,-61.1642 -8.0928,-91.7464 -10.6556,-30.582 -29.0421,-61.1642 -51.475,-91.7464 -22.4329,-30.582 -48.8032,-61.1642 -73.8649,-91.7464 -25.0618,-30.582 -48.6617,-61.1642 -66.1318,-91.7462 -17.4701,-30.5822 -28.6752,-61.1645 -31.4291,-91.7464 -2.7539,-30.5823 3.0054,-61.1645 16.0908,-91.7465 13.0853,-30.5822 33.4602,-61.1642 57.0485,-91.7464 23.5883,-30.5822 50.2697,-61.1642 74.7413,-91.7464 24.4715,-30.5822 46.5783,-61.1642 61.9533,-91.7464 15.375,-30.582 23.8918,-61.1642 23.9,-91.7464"
           style="opacity:1;fill:none;fill-opacity:1;stroke:#000000;stroke-width:15;stroke-linecap:round;stroke-miterlimit:4;stroke-dasharray:none;stroke-dashoffset:0;stroke-opacity:1"
           inkscape:connector-curvature="0" />
        <path
           inkscape:connector-curvature="0"
           style="opacity:1;fill:none;fill-opacity:1;stroke:#000000;stroke-width:15;stroke-linecap:round;stroke-miterlimit:4;stroke-dasharray:none;stroke-dashoffset:0;stroke-opacity:1"
           d="m 1484.4266,-531.77777 c -0.01,-30.58212 -8.5381,-61.16427 -23.9,-91.74639 -15.3618,-30.58213 -37.4861,-61.16425 -61.9533,-91.7464 -24.4672,-30.58212 -51.1468,-61.16424 -74.7413,-91.74639 -23.5944,-30.58212 -43.949,-61.16425 -57.0485,-91.74637 -13.0996,-30.58215 -18.8283,-61.16427 -16.0908,-91.7464 2.7375,-30.58208 13.971,-61.16428 31.4291,-91.74638 17.4582,-30.5821 41.0727,-61.1643 66.1318,-91.7464 25.0592,-30.5821 51.4242,-61.1643 73.8649,-91.7464 22.4407,-30.5821 40.8045,-61.1642 51.475,-91.7464 10.6706,-30.5821 13.544,-61.1642 8.0928,-91.7464 -5.4511,-30.5821 -19.24,-61.1642 -38.5897,-91.7464 -19.3498,-30.5821 -44.1775,-61.1642 -69.5348,-91.7464 -25.3573,-30.582 -51.0989,-61.1642 -72.1227,-91.7464 -21.0239,-30.582 -37.1814,-61.1642 -45.2979,-91.7464 -8.1165,-30.582 -8.1009,-61.1642 0,-91.7462 8.1009,-30.5822 24.2833,-61.1644 45.2979,-91.7464 21.0146,-30.5822 46.7645,-61.1645 72.1227,-91.7464 25.3582,-30.5823 50.1744,-61.1642 69.5348,-91.7465 19.3605,-30.5822 33.1225,-61.1642 38.5897,-91.7464 5.4673,-30.5822 2.5628,-61.1642 -8.0928,-91.7464 -10.6556,-30.582 -29.0421,-61.1642 -51.475,-91.7464 -22.4329,-30.582 -48.8032,-61.1642 -73.8649,-91.7464 -25.0618,-30.582 -48.6617,-61.1642 -66.1318,-91.7462 -17.4701,-30.5822 -28.6752,-61.1645 -31.4291,-91.7464 -2.7539,-30.5823 3.0054,-61.1645 16.0908,-91.7465 13.0853,-30.5822 33.4602,-61.1642 57.0485,-91.7464 23.5883,-30.5822 50.2697,-61.1642 74.7413,-91.7464 24.4715,-30.5822 46.5783,-61.1642 61.9533,-91.7464 15.375,-30.582 23.8918,-61.1642 23.9,-91.7464"
           title="cos(3*t) t"
           id="path4273" />
      </g>
      <path
         sodipodi:nodetypes="csc"
         inkscape:connector-curvature="0"
         id="path4293"
         d="m 1511.2226,157.1138 c 0,0 142.4694,134.773 143.2633,302.1193 0.794,167.3463 -140.3675,308.2258 -140.3675,308.2258"
         style="opacity:1;fill:none;fill-opacity:1;stroke:#000000;stroke-width:4;stroke-linecap:round;stroke-miterlimit:4;stroke-dasharray:none;stroke-dashoffset:0;stroke-opacity:1" />
      <path
         d="m -1523.2936,-151.25695 a 17.857143,17.857143 0 0 1 17.9107,-17.80315 17.857143,17.857143 0 0 1 17.8034,17.91036 17.857143,17.857143 0 0 1 -17.91,17.80377 17.857143,17.857143 0 0 1 -17.8041,-17.90974"
         sodipodi:open="true"
         sodipodi:end="3.1445423"
         sodipodi:start="3.1446121"
         sodipodi:ry="17.857143"
         sodipodi:rx="17.857143"
         sodipodi:cy="-151.20303"
         sodipodi:cx="-1505.4365"
         sodipodi:type="arc"
         id="path4306"
         style="opacity:1;fill:#000000;fill-opacity:1;stroke:#000000;stroke-width:2;stroke-linecap:round;stroke-miterlimit:4;stroke-dasharray:none;stroke-dashoffset:0;stroke-opacity:1"
         transform="matrix(-0.99998254,-0.00590862,0.00590862,-0.99998254,0,0)" />
      <path
         d="M 1491.5348,771.76122 A 223.41072,327.7438 0 0 1 1295.0796,455.98862"
         sodipodi:open="true"
         sodipodi:end="3.1123158"
         sodipodi:start="1.6913137"
         sodipodi:ry="327.7438"
         sodipodi:rx="223.41072"
         sodipodi:cy="446.39468"
         sodipodi:cx="1518.3945"
         sodipodi:type="arc"
         id="path4308"
         style="opacity:1;fill:none;fill-opacity:1;stroke:#000000;stroke-width:4;stroke-linecap:round;stroke-miterlimit:4;stroke-dasharray:none;stroke-dashoffset:0;stroke-opacity:1" />
      <path
         inkscape:connector-curvature="0"
         id="path4310"
         d="m 1502.5309,156.1899 0,-329.3097"
         style="fill:none;fill-rule:evenodd;stroke:#000000;stroke-width:3;stroke-linecap:butt;stroke-linejoin:miter;stroke-miterlimit:4;stroke-dasharray:none;stroke-opacity:1" />
      <g
         id="g4474"
         transform="translate(-1554.7125,-502.96359)">
        <path
           style="fill:none;fill-rule:evenodd;stroke:#000000;stroke-width:5;stroke-linecap:butt;stroke-linejoin:miter;stroke-miterlimit:4;stroke-dasharray:15, 15;stroke-dashoffset:0;stroke-opacity:1"
           d="m 2849.911,959.48153 -265.4766,0"
           id="path4476"
           inkscape:connector-curvature="0" />
        <g
           id="g4478"
           transform="matrix(0.95131583,0,0,0.95131583,3224.4694,-616.69384)">
          <path
             inkscape:connector-curvature="0"
             id="path4480"
             d="m -700,1695.2193 75.71429,-75.7142"
             style="fill:none;fill-rule:evenodd;stroke:#000000;stroke-width:6;stroke-linecap:round;stroke-linejoin:miter;stroke-miterlimit:4;stroke-dasharray:none;stroke-opacity:1" />
          <path
             style="fill:none;fill-rule:evenodd;stroke:#000000;stroke-width:6;stroke-linecap:round;stroke-linejoin:miter;stroke-miterlimit:4;stroke-dasharray:none;stroke-opacity:1"
             d="m -624.28575,1695.2193 -75.7142,-75.7142"
             id="path4482"
             inkscape:connector-curvature="0" />
        </g>
      </g>
    </g>
    <g
       id="g4537"
       transform="matrix(0.13474785,0,0,0.13474785,290.7948,274.75458)">
      <g
         transform="matrix(-0.55145714,-0.83420323,0.83420323,-0.55145714,120.61652,1205.6839)"
         id="g4259">
        <path
           sodipodi:nodetypes="ccscc"
           inkscape:connector-curvature="0"
           id="path4229"
           d="m 379.98867,554.3094 c -141.5585,-95.1019 -167.92171,-302.538 -167.92171,-302.538 0,0 203.14746,-53.2501 344.7079,41.8489 141.56052,95.099 167.93451,302.5396 167.93451,302.5396 0,0 -203.13946,53.2584 -344.70183,-41.8379"
           style="opacity:1;fill:none;fill-opacity:1;stroke:#000000;stroke-width:3.07260346;stroke-linecap:round;stroke-miterlimit:4;stroke-dasharray:none;stroke-dashoffset:0;stroke-opacity:1" />
        <path
           transform="matrix(0.5563765,-0.83093032,0.83093032,0.5563765,0,0)"
           style="opacity:1;fill:#000000;fill-opacity:1;stroke:#000000;stroke-width:2;stroke-linecap:round;stroke-miterlimit:4;stroke-dasharray:none;stroke-dashoffset:0;stroke-opacity:1"
           id="path4231"
           sodipodi:type="arc"
           sodipodi:cx="-91.688652"
           sodipodi:cy="926.67719"
           sodipodi:rx="17.857143"
           sodipodi:ry="17.857143"
           sodipodi:start="3.1446121"
           sodipodi:end="3.1445423"
           sodipodi:open="true"
           d="m -109.54571,926.62327 a 17.857143,17.857143 0 0 1 17.910665,-17.80315 17.857143,17.857143 0 0 1 17.803457,17.91036 17.857143,17.857143 0 0 1 -17.910048,17.80377 17.857143,17.857143 0 0 1 -17.804084,-17.90974" />
      </g>
      <g
         id="g4233"
         transform="matrix(0.14336348,0,0,0.22306509,22.03021,393.28599)">
        <path
           inkscape:connector-curvature="0"
           style="opacity:1;fill:none;fill-opacity:1;stroke:#000000;stroke-width:15;stroke-linecap:round;stroke-miterlimit:4;stroke-dasharray:none;stroke-dashoffset:0;stroke-opacity:1"
           d="m 1255.8552,-531.77777 c -0.01,-30.58212 -8.5381,-61.16427 -23.9,-91.74639 -15.3618,-30.58213 -37.4861,-61.16425 -61.9533,-91.7464 -24.4672,-30.58212 -51.1468,-61.16424 -74.7413,-91.74639 -23.5944,-30.58212 -43.949,-61.16425 -57.0485,-91.74637 -13.0996,-30.58215 -18.8283,-61.16427 -16.0908,-91.7464 2.7375,-30.58208 13.971,-61.16428 31.4291,-91.74638 17.4582,-30.5821 41.0727,-61.1643 66.1318,-91.7464 25.0592,-30.5821 51.4242,-61.1643 73.8649,-91.7464 22.4407,-30.5821 40.8045,-61.1642 51.475,-91.7464 10.6706,-30.5821 13.544,-61.1642 8.0928,-91.7464 -5.4511,-30.5821 -19.24,-61.1642 -38.5897,-91.7464 -19.3498,-30.5821 -44.1775,-61.1642 -69.5348,-91.7464 -25.3573,-30.582 -51.0989,-61.1642 -72.1227,-91.7464 -21.0239,-30.582 -37.1814,-61.1642 -45.2979,-91.7464 -8.1165,-30.582 -8.1009,-61.1642 0,-91.7462 8.1009,-30.5822 24.2833,-61.1644 45.2979,-91.7464 21.0146,-30.5822 46.7645,-61.1645 72.1227,-91.7464 25.3582,-30.5823 50.1744,-61.1642 69.5348,-91.7465 19.3605,-30.5822 33.1225,-61.1642 38.5897,-91.7464 5.4673,-30.5822 2.5628,-61.1642 -8.0928,-91.7464 -10.6556,-30.582 -29.0421,-61.1642 -51.475,-91.7464 -22.4329,-30.582 -48.8032,-61.1642 -73.8649,-91.7464 -25.0618,-30.582 -48.6617,-61.1642 -66.1318,-91.7462 -17.4701,-30.5822 -28.6752,-61.1645 -31.4291,-91.7464 -2.7539,-30.5823 3.0054,-61.1645 16.0908,-91.7465 13.0853,-30.5822 33.4602,-61.1642 57.0485,-91.7464 23.5883,-30.5822 50.2697,-61.1642 74.7413,-91.7464 24.4715,-30.5822 46.5783,-61.1642 61.9533,-91.7464 15.375,-30.582 23.8918,-61.1642 23.9,-91.7464"
           title="cos(3*t) t"
           id="path4235" />
        <path
           id="path4237"
           title="cos(3*t) t"
           d="m 1484.4266,-531.77777 c -0.01,-30.58212 -8.5381,-61.16427 -23.9,-91.74639 -15.3618,-30.58213 -37.4861,-61.16425 -61.9533,-91.7464 -24.4672,-30.58212 -51.1468,-61.16424 -74.7413,-91.74639 -23.5944,-30.58212 -43.949,-61.16425 -57.0485,-91.74637 -13.0996,-30.58215 -18.8283,-61.16427 -16.0908,-91.7464 2.7375,-30.58208 13.971,-61.16428 31.4291,-91.74638 17.4582,-30.5821 41.0727,-61.1643 66.1318,-91.7464 25.0592,-30.5821 51.4242,-61.1643 73.8649,-91.7464 22.4407,-30.5821 40.8045,-61.1642 51.475,-91.7464 10.6706,-30.5821 13.544,-61.1642 8.0928,-91.7464 -5.4511,-30.5821 -19.24,-61.1642 -38.5897,-91.7464 -19.3498,-30.5821 -44.1775,-61.1642 -69.5348,-91.7464 -25.3573,-30.582 -51.0989,-61.1642 -72.1227,-91.7464 -21.0239,-30.582 -37.1814,-61.1642 -45.2979,-91.7464 -8.1165,-30.582 -8.1009,-61.1642 0,-91.7462 8.1009,-30.5822 24.2833,-61.1644 45.2979,-91.7464 21.0146,-30.5822 46.7645,-61.1645 72.1227,-91.7464 25.3582,-30.5823 50.1744,-61.1642 69.5348,-91.7465 19.3605,-30.5822 33.1225,-61.1642 38.5897,-91.7464 5.4673,-30.5822 2.5628,-61.1642 -8.0928,-91.7464 -10.6556,-30.582 -29.0421,-61.1642 -51.475,-91.7464 -22.4329,-30.582 -48.8032,-61.1642 -73.8649,-91.7464 -25.0618,-30.582 -48.6617,-61.1642 -66.1318,-91.7462 -17.4701,-30.5822 -28.6752,-61.1645 -31.4291,-91.7464 -2.7539,-30.5823 3.0054,-61.1645 16.0908,-91.7465 13.0853,-30.5822 33.4602,-61.1642 57.0485,-91.7464 23.5883,-30.5822 50.2697,-61.1642 74.7413,-91.7464 24.4715,-30.5822 46.5783,-61.1642 61.9533,-91.7464 15.375,-30.582 23.8918,-61.1642 23.9,-91.7464"
           style="opacity:1;fill:none;fill-opacity:1;stroke:#000000;stroke-width:15;stroke-linecap:round;stroke-miterlimit:4;stroke-dasharray:none;stroke-dashoffset:0;stroke-opacity:1"
           inkscape:connector-curvature="0" />
      </g>
      <g
         transform="translate(-2636.0518,-70.106444)"
         id="g4484">
        <path
           inkscape:connector-curvature="0"
           id="path4486"
           d="m 2849.911,959.48153 -265.4766,0"
           style="fill:none;fill-rule:evenodd;stroke:#000000;stroke-width:5;stroke-linecap:butt;stroke-linejoin:miter;stroke-miterlimit:4;stroke-dasharray:15, 15;stroke-dashoffset:0;stroke-opacity:1" />
        <g
           transform="matrix(0.95131583,0,0,0.95131583,3224.4694,-616.69384)"
           id="g4488">
          <path
             style="fill:none;fill-rule:evenodd;stroke:#000000;stroke-width:6;stroke-linecap:round;stroke-linejoin:miter;stroke-miterlimit:4;stroke-dasharray:none;stroke-opacity:1"
             d="m -700,1695.2193 75.71429,-75.7142"
             id="path4490"
             inkscape:connector-curvature="0" />
          <path
             inkscape:connector-curvature="0"
             id="path4492"
             d="m -624.28575,1695.2193 -75.7142,-75.7142"
             style="fill:none;fill-rule:evenodd;stroke:#000000;stroke-width:6;stroke-linecap:round;stroke-linejoin:miter;stroke-miterlimit:4;stroke-dasharray:none;stroke-opacity:1" />
        </g>
      </g>
    </g>
    <g
       id="g4525"
       transform="matrix(0.13474785,0,0,0.13474785,300.59514,311.77811)">
      <path
         sodipodi:nodetypes="ccscc"
         inkscape:connector-curvature="0"
         id="path60921"
         d="m -985.72561,554.3094 c -141.55849,-95.1019 -167.92169,-302.538 -167.92169,-302.538 0,0 203.14744,-53.2501 344.70788,41.8489 141.56052,95.099 167.93451,302.5396 167.93451,302.5396 0,0 -203.13946,53.2584 -344.70183,-41.8379"
         style="opacity:1;fill:none;fill-opacity:1;stroke:#000000;stroke-width:3.07260346;stroke-linecap:round;stroke-miterlimit:4;stroke-dasharray:none;stroke-dashoffset:0;stroke-opacity:1" />
      <path
         transform="matrix(0.5563765,-0.83093032,0.83093032,0.5563765,0,0)"
         style="opacity:1;fill:#000000;fill-opacity:1;stroke:#000000;stroke-width:2;stroke-linecap:round;stroke-miterlimit:4;stroke-dasharray:none;stroke-dashoffset:0;stroke-opacity:1"
         id="path60925"
         sodipodi:type="arc"
         sodipodi:cx="-851.53998"
         sodipodi:cy="-208.13618"
         sodipodi:rx="17.857143"
         sodipodi:ry="17.857143"
         sodipodi:start="3.1446121"
         sodipodi:end="3.1445423"
         sodipodi:open="true"
         d="m -869.39704,-208.1901 a 17.857143,17.857143 0 0 1 17.91067,-17.80315 17.857143,17.857143 0 0 1 17.80346,17.91036 17.857143,17.857143 0 0 1 -17.91005,17.80377 17.857143,17.857143 0 0 1 -17.80408,-17.90974" />
      <g
         transform="matrix(0.14336348,0,0,0.22306509,-843.59007,711.3278)"
         id="g60927">
        <path
           id="path60929"
           title="cos(3*t) t"
           d="m 1255.8552,-531.77777 c -0.01,-30.58212 -8.5381,-61.16427 -23.9,-91.74639 -15.3618,-30.58213 -37.4861,-61.16425 -61.9533,-91.7464 -24.4672,-30.58212 -51.1468,-61.16424 -74.7413,-91.74639 -23.5944,-30.58212 -43.949,-61.16425 -57.0485,-91.74637 -13.0996,-30.58215 -18.8283,-61.16427 -16.0908,-91.7464 2.7375,-30.58208 13.971,-61.16428 31.4291,-91.74638 17.4582,-30.5821 41.0727,-61.1643 66.1318,-91.7464 25.0592,-30.5821 51.4242,-61.1643 73.8649,-91.7464 22.4407,-30.5821 40.8045,-61.1642 51.475,-91.7464 10.6706,-30.5821 13.544,-61.1642 8.0928,-91.7464 -5.4511,-30.5821 -19.24,-61.1642 -38.5897,-91.7464 -19.3498,-30.5821 -44.1775,-61.1642 -69.5348,-91.7464 -25.3573,-30.582 -51.0989,-61.1642 -72.1227,-91.7464 -21.0239,-30.582 -37.1814,-61.1642 -45.2979,-91.7464 -8.1165,-30.582 -8.1009,-61.1642 0,-91.7462 8.1009,-30.5822 24.2833,-61.1644 45.2979,-91.7464 21.0146,-30.5822 46.7645,-61.1645 72.1227,-91.7464 25.3582,-30.5823 50.1744,-61.1642 69.5348,-91.7465 19.3605,-30.5822 33.1225,-61.1642 38.5897,-91.7464 5.4673,-30.5822 2.5628,-61.1642 -8.0928,-91.7464 -10.6556,-30.582 -29.0421,-61.1642 -51.475,-91.7464 -22.4329,-30.582 -48.8032,-61.1642 -73.8649,-91.7464 -25.0618,-30.582 -48.6617,-61.1642 -66.1318,-91.7462 -17.4701,-30.5822 -28.6752,-61.1645 -31.4291,-91.7464 -2.7539,-30.5823 3.0054,-61.1645 16.0908,-91.7465 13.0853,-30.5822 33.4602,-61.1642 57.0485,-91.7464 23.5883,-30.5822 50.2697,-61.1642 74.7413,-91.7464 24.4715,-30.5822 46.5783,-61.1642 61.9533,-91.7464 15.375,-30.582 23.8918,-61.1642 23.9,-91.7464"
           style="opacity:1;fill:none;fill-opacity:1;stroke:#000000;stroke-width:15;stroke-linecap:round;stroke-miterlimit:4;stroke-dasharray:none;stroke-dashoffset:0;stroke-opacity:1"
           inkscape:connector-curvature="0" />
        <path
           inkscape:connector-curvature="0"
           style="opacity:1;fill:none;fill-opacity:1;stroke:#000000;stroke-width:15;stroke-linecap:round;stroke-miterlimit:4;stroke-dasharray:none;stroke-dashoffset:0;stroke-opacity:1"
           d="m 1484.4266,-531.77777 c -0.01,-30.58212 -8.5381,-61.16427 -23.9,-91.74639 -15.3618,-30.58213 -37.4861,-61.16425 -61.9533,-91.7464 -24.4672,-30.58212 -51.1468,-61.16424 -74.7413,-91.74639 -23.5944,-30.58212 -43.949,-61.16425 -57.0485,-91.74637 -13.0996,-30.58215 -18.8283,-61.16427 -16.0908,-91.7464 2.7375,-30.58208 13.971,-61.16428 31.4291,-91.74638 17.4582,-30.5821 41.0727,-61.1643 66.1318,-91.7464 25.0592,-30.5821 51.4242,-61.1643 73.8649,-91.7464 22.4407,-30.5821 40.8045,-61.1642 51.475,-91.7464 10.6706,-30.5821 13.544,-61.1642 8.0928,-91.7464 -5.4511,-30.5821 -19.24,-61.1642 -38.5897,-91.7464 -19.3498,-30.5821 -44.1775,-61.1642 -69.5348,-91.7464 -25.3573,-30.582 -51.0989,-61.1642 -72.1227,-91.7464 -21.0239,-30.582 -37.1814,-61.1642 -45.2979,-91.7464 -8.1165,-30.582 -8.1009,-61.1642 0,-91.7462 8.1009,-30.5822 24.2833,-61.1644 45.2979,-91.7464 21.0146,-30.5822 46.7645,-61.1645 72.1227,-91.7464 25.3582,-30.5823 50.1744,-61.1642 69.5348,-91.7465 19.3605,-30.5822 33.1225,-61.1642 38.5897,-91.7464 5.4673,-30.5822 2.5628,-61.1642 -8.0928,-91.7464 -10.6556,-30.582 -29.0421,-61.1642 -51.475,-91.7464 -22.4329,-30.582 -48.8032,-61.1642 -73.8649,-91.7464 -25.0618,-30.582 -48.6617,-61.1642 -66.1318,-91.7462 -17.4701,-30.5822 -28.6752,-61.1645 -31.4291,-91.7464 -2.7539,-30.5823 3.0054,-61.1645 16.0908,-91.7465 13.0853,-30.5822 33.4602,-61.1642 57.0485,-91.7464 23.5883,-30.5822 50.2697,-61.1642 74.7413,-91.7464 24.4715,-30.5822 46.5783,-61.1642 61.9533,-91.7464 15.375,-30.582 23.8918,-61.1642 23.9,-91.7464"
           title="cos(3*t) t"
           id="path60931" />
      </g>
      <g
         id="g4505"
         transform="translate(-4002.3523,-706.6706)">
        <path
           style="fill:none;fill-rule:evenodd;stroke:#000000;stroke-width:5;stroke-linecap:butt;stroke-linejoin:miter;stroke-miterlimit:4;stroke-dasharray:15, 15;stroke-dashoffset:0;stroke-opacity:1"
           d="m 2849.911,959.48153 -265.4766,0"
           id="path4507"
           inkscape:connector-curvature="0" />
        <g
           id="g4509"
           transform="matrix(0.95131583,0,0,0.95131583,3224.4694,-616.69384)">
          <path
             inkscape:connector-curvature="0"
             id="path4511"
             d="m -700,1695.2193 75.71429,-75.7142"
             style="fill:none;fill-rule:evenodd;stroke:#000000;stroke-width:6;stroke-linecap:round;stroke-linejoin:miter;stroke-miterlimit:4;stroke-dasharray:none;stroke-opacity:1" />
          <path
             style="fill:none;fill-rule:evenodd;stroke:#000000;stroke-width:6;stroke-linecap:round;stroke-linejoin:miter;stroke-miterlimit:4;stroke-dasharray:none;stroke-opacity:1"
             d="m -624.28575,1695.2193 -75.7142,-75.7142"
             id="path4513"
             inkscape:connector-curvature="0" />
        </g>
      </g>
    </g>
    <text
       xml:space="preserve"
       style="font-style:normal;font-weight:normal;font-size:28.79742813px;line-height:125%;font-family:Sans;letter-spacing:0px;word-spacing:0px;fill:#000000;fill-opacity:1;stroke:none;stroke-width:1px;stroke-linecap:butt;stroke-linejoin:miter;stroke-opacity:1"
       x="242.26346"
       y="365.27219"
       id="text4596"
       sodipodi:linespacing="125%"><tspan
         sodipodi:role="line"
         id="tspan4598"
         x="242.26346"
         y="365.27219">+</tspan></text>
    <text
       sodipodi:linespacing="125%"
       id="text4600"
       y="365.27219"
       x="512.52917"
       style="font-style:normal;font-weight:normal;font-size:28.79742813px;line-height:125%;font-family:Sans;letter-spacing:0px;word-spacing:0px;fill:#000000;fill-opacity:1;stroke:none;stroke-width:1px;stroke-linecap:butt;stroke-linejoin:miter;stroke-opacity:1"
       xml:space="preserve"><tspan
         y="365.27219"
         x="512.52917"
         id="tspan4602"
         sodipodi:role="line">+</tspan></text>
    <text
       xml:space="preserve"
       style="font-style:normal;font-weight:normal;font-size:28.79742813px;line-height:125%;font-family:Sans;letter-spacing:0px;word-spacing:0px;fill:#000000;fill-opacity:1;stroke:none;stroke-width:1px;stroke-linecap:butt;stroke-linejoin:miter;stroke-opacity:1"
       x="618.01752"
       y="365.27219"
       id="text4604"
       sodipodi:linespacing="125%"><tspan
         sodipodi:role="line"
         id="tspan4606"
         x="618.01752"
         y="365.27219">+</tspan></text>
    <text
       xml:space="preserve"
       style="font-style:normal;font-weight:normal;font-size:25.56390953px;line-height:125%;font-family:Sans;letter-spacing:0px;word-spacing:0px;fill:#000000;fill-opacity:1;stroke:none;stroke-width:1px;stroke-linecap:butt;stroke-linejoin:miter;stroke-opacity:1"
       x="28.455246"
       y="439.14282"
       id="text4608"
       sodipodi:linespacing="125%"><tspan
         sodipodi:role="line"
         id="tspan4610"
         x="28.455246"
         y="439.14282">(a)</tspan></text>
    <text
       sodipodi:linespacing="125%"
       id="text4612"
       y="439.14282"
       x="183.00859"
       style="font-style:normal;font-weight:normal;font-size:25.56390953px;line-height:125%;font-family:Sans;letter-spacing:0px;word-spacing:0px;fill:#000000;fill-opacity:1;stroke:none;stroke-width:1px;stroke-linecap:butt;stroke-linejoin:miter;stroke-opacity:1"
       xml:space="preserve"><tspan
         y="439.14282"
         x="183.00859"
         id="tspan4614"
         sodipodi:role="line">(b)</tspan></text>
    <text
       xml:space="preserve"
       style="font-style:normal;font-weight:normal;font-size:25.56390953px;line-height:125%;font-family:Sans;letter-spacing:0px;word-spacing:0px;fill:#000000;fill-opacity:1;stroke:none;stroke-width:1px;stroke-linecap:butt;stroke-linejoin:miter;stroke-opacity:1"
       x="304.2269"
       y="439.14282"
       id="text4616"
       sodipodi:linespacing="125%"><tspan
         sodipodi:role="line"
         id="tspan4618"
         x="304.2269"
         y="439.14282">(c)</tspan></text>
    <text
       sodipodi:linespacing="125%"
       id="text4620"
       y="439.14282"
       x="456.75992"
       style="font-style:normal;font-weight:normal;font-size:25.56390953px;line-height:125%;font-family:Sans;letter-spacing:0px;word-spacing:0px;fill:#000000;fill-opacity:1;stroke:none;stroke-width:1px;stroke-linecap:butt;stroke-linejoin:miter;stroke-opacity:1"
       xml:space="preserve"><tspan
         y="439.14282"
         x="456.75992"
         id="tspan4622"
         sodipodi:role="line">(d)</tspan></text>
    <text
       xml:space="preserve"
       style="font-style:normal;font-weight:normal;font-size:25.56390953px;line-height:125%;font-family:Sans;letter-spacing:0px;word-spacing:0px;fill:#000000;fill-opacity:1;stroke:none;stroke-width:1px;stroke-linecap:butt;stroke-linejoin:miter;stroke-opacity:1"
       x="551.71423"
       y="439.14282"
       id="text4624"
       sodipodi:linespacing="125%"><tspan
         sodipodi:role="line"
         id="tspan4626"
         x="551.71423"
         y="439.14282">(e)</tspan></text>
    <text
       sodipodi:linespacing="125%"
       id="text4628"
       y="439.14282"
       x="667.88177"
       style="font-style:normal;font-weight:normal;font-size:25.56390953px;line-height:125%;font-family:Sans;letter-spacing:0px;word-spacing:0px;fill:#000000;fill-opacity:1;stroke:none;stroke-width:1px;stroke-linecap:butt;stroke-linejoin:miter;stroke-opacity:1"
       xml:space="preserve"><tspan
         y="439.14282"
         x="667.88177"
         id="tspan4630"
         sodipodi:role="line">(f)</tspan></text>
  </g>
</svg>
