<?xml version="1.0" encoding="UTF-8" standalone="no"?>
<svg
   xmlns:ns3="http://www.iki.fi/pav/software/textext/"
   xmlns:dc="http://purl.org/dc/elements/1.1/"
   xmlns:cc="http://creativecommons.org/ns#"
   xmlns:rdf="http://www.w3.org/1999/02/22-rdf-syntax-ns#"
   xmlns:svg="http://www.w3.org/2000/svg"
   xmlns="http://www.w3.org/2000/svg"
   xmlns:sodipodi="http://sodipodi.sourceforge.net/DTD/sodipodi-0.dtd"
   xmlns:inkscape="http://www.inkscape.org/namespaces/inkscape"
   version="1.1"
   id="svg10475"
   xml:space="preserve"
   width="657.67633"
   height="380.30215"
   viewBox="0 0 657.67634 380.30215"
   sodipodi:docname="figintroD3.svg"
   inkscape:version="1.0.1 (1.0.1+r74)"><metadata
     id="metadata10481"><rdf:RDF><cc:Work
         rdf:about=""><dc:format>image/svg+xml</dc:format><dc:type
           rdf:resource="http://purl.org/dc/dcmitype/StillImage" /><dc:title></dc:title></cc:Work></rdf:RDF></metadata><defs
     id="defs10479"><clipPath
       clipPathUnits="userSpaceOnUse"
       id="clipPath10515"><path
         d="M 0,292 V 0 h 419 v 292 z m 46.719,-14.801 h -4.5 v -9.898 l 2.281,8.097 2.219,-8.097 z"
         id="path10513" /></clipPath><clipPath
       clipPathUnits="userSpaceOnUse"
       id="clipPath10525"><path
         d="M 0,0 H 419 V 292 H 0 Z"
         id="path10523" /></clipPath><clipPath
       clipPathUnits="userSpaceOnUse"
       id="clipPath10537"><path
         d="m 44,15 h 1 v 262 h -1 z"
         id="path10535" /></clipPath><clipPath
       clipPathUnits="userSpaceOnUse"
       id="clipPath10553"><path
         d="M 0,292 V 0 H 419 V 292 Z M 378.398,31.082 v 4.5 H 368.5 l 8.102,-2.281 -8.102,-2.219 z"
         id="path10551" /></clipPath><clipPath
       clipPathUnits="userSpaceOnUse"
       id="clipPath10563"><path
         d="M 0,0 H 419 V 292 H 0 Z"
         id="path10561" /></clipPath><clipPath
       clipPathUnits="userSpaceOnUse"
       id="clipPath10575"><path
         d="m 26,33 h 352 v 1 H 26 Z"
         id="path10573" /></clipPath></defs><sodipodi:namedview
     pagecolor="#ffffff"
     bordercolor="#666666"
     borderopacity="1"
     objecttolerance="10"
     gridtolerance="10"
     guidetolerance="10"
     inkscape:pageopacity="0"
     inkscape:pageshadow="2"
     inkscape:window-width="1366"
     inkscape:window-height="731"
     id="namedview10477"
     showgrid="false"
     inkscape:zoom="0.52306528"
     inkscape:cx="532.81567"
     inkscape:cy="314.09962"
     inkscape:window-x="0"
     inkscape:window-y="132"
     inkscape:window-maximized="1"
     inkscape:current-layer="g10483"
     inkscape:document-rotation="0"
     inkscape:snap-global="false"
     fit-margin-top="0"
     fit-margin-left="0"
     fit-margin-right="0"
     fit-margin-bottom="0" /><g
     id="g10483"
     inkscape:groupmode="layer"
     inkscape:label="figintroD3"
     transform="matrix(1.3333333,0,0,-1.3333333,10.860364,389.6649)"><g
       id="g10509"><g
         id="g10511"
         clip-path="url(#clipPath10515)"><g
           id="g10517"><g
             id="g10519"><g
               id="g10521"
               clip-path="url(#clipPath10525)"><g
                 id="g10527"><g
                   id="g10529"><g
                     id="g10531"><g
                       id="g10533"
                       clip-path="url(#clipPath10537)"><g
                         id="g10539"><path
                           d="m 44.5,15.301 v 261"
                           style="fill:none;stroke:#000000;stroke-width:0.45;stroke-linecap:butt;stroke-linejoin:miter;stroke-miterlimit:10;stroke-dasharray:none;stroke-opacity:1"
                           id="path10541" /></g></g></g></g></g></g></g></g></g></g><g
       id="g10543"><path
         d="m 46.719,267.301 -2.219,8.097 -2.281,-8.097"
         style="fill:none;stroke:#000000;stroke-width:0.45;stroke-linecap:butt;stroke-linejoin:miter;stroke-miterlimit:10;stroke-dasharray:none;stroke-opacity:1"
         id="path10545" /></g><g
       id="g10547"><g
         id="g10549"
         clip-path="url(#clipPath10553)"><g
           id="g10555"><g
             id="g10557"><g
               id="g10559"
               clip-path="url(#clipPath10563)"><g
                 id="g10565"><g
                   id="g10567"><g
                     id="g10569"><g
                       id="g10571"
                       clip-path="url(#clipPath10575)"><g
                         id="g10577"><path
                           d="m 26.5,33.301 h 351"
                           style="fill:none;stroke:#000000;stroke-width:0.45;stroke-linecap:butt;stroke-linejoin:miter;stroke-miterlimit:10;stroke-dasharray:none;stroke-opacity:1"
                           id="path10579" /></g></g></g></g></g></g></g></g></g></g><path
       d="m 368.5,31.082 8.102,2.219 -8.102,2.281"
       style="fill:none;stroke:#000000;stroke-width:0.45;stroke-linecap:butt;stroke-linejoin:miter;stroke-miterlimit:10;stroke-dasharray:none;stroke-opacity:1"
       id="path10583" /><path
       d="m 206.5,213.301 v -180"
       style="fill:none;stroke:#000000;stroke-width:0.45;stroke-linecap:butt;stroke-linejoin:miter;stroke-miterlimit:10;stroke-dasharray:3.6, 3.6;stroke-dashoffset:0;stroke-opacity:1"
       id="path10585" /><path
       d="m 107.5,78.301 v -45"
       style="fill:none;stroke:#000000;stroke-width:0.45;stroke-linecap:butt;stroke-linejoin:miter;stroke-miterlimit:10;stroke-dasharray:3.6, 3.6;stroke-dashoffset:0;stroke-opacity:1"
       id="path10587" /><path
       d="m 305.5,78.301 v -45"
       style="fill:none;stroke:#000000;stroke-width:0.45;stroke-linecap:butt;stroke-linejoin:miter;stroke-miterlimit:10;stroke-dasharray:3.6, 3.6;stroke-dashoffset:0;stroke-opacity:1"
       id="path10589" /><path
       d="m 35.5,204.301 h 18"
       style="fill:none;stroke:#000000;stroke-width:0.45;stroke-linecap:butt;stroke-linejoin:miter;stroke-miterlimit:10;stroke-dasharray:none;stroke-opacity:1"
       id="path10591" /><path
       d="m 71.5,51.301 0.121,0.058 0.238,0.121 0.539,0.239 0.723,0.363 1.078,0.539 1.442,0.66 6,3 2.461,1.258 2.636,1.32 2.762,1.442 2.82,1.5 2.821,1.558 2.757,1.5 2.762,1.559 2.578,1.5 2.524,1.562 2.398,1.438 2.219,1.5 2.16,1.441 1.981,1.442 1.921,1.437 1.797,1.383 1.684,1.438 1.558,1.441 3,3 1.379,1.559 2.641,3.242 1.141,1.5 1.078,1.558 1.14,1.621 1.082,1.68 1.079,1.68 1.082,1.801 1.019,1.859 1.078,1.859 1.02,1.981 1.082,1.98 1.019,2.039 1.078,2.161 1.024,2.101 1.078,2.219 1.02,2.219 2.039,4.562 1.019,2.277 1.024,2.34 1.019,2.34 0.957,2.281 1.024,2.34 0.957,2.281 0.961,2.282 1.921,4.437 1.797,4.321 0.961,2.101 0.903,2.098 0.898,2.043 0.898,1.976 0.903,1.922 0.898,1.918 0.903,1.863 0.898,1.86 1.02,2.039 1.082,2.039 1.078,1.98 3.422,5.942 1.199,1.918 1.258,1.859 1.261,1.922 1.258,1.859 1.383,1.801 1.32,1.801 2.758,3.359 1.441,1.621 1.442,1.559 1.437,1.441 1.442,1.379 1.437,1.321 1.442,1.199 1.441,1.14 1.438,1.02 1.382,0.898 1.438,0.84 1.383,0.723 1.379,0.598 1.32,0.543 1.32,0.418 1.321,0.359 1.32,0.242 1.316,0.117 1.262,0.063 1.262,-0.063 1.316,-0.117 1.32,-0.242 1.321,-0.359 1.32,-0.418 1.32,-0.543 1.379,-0.598 1.383,-0.723 1.379,-0.84 1.379,-0.898 1.441,-1.02 1.379,-1.14 1.442,-1.199 1.437,-1.321 1.383,-1.379 1.437,-1.441 1.383,-1.559 1.379,-1.621 2.641,-3.359 1.32,-1.801 1.258,-1.801 1.199,-1.859 1.203,-1.922 1.141,-1.859 1.137,-1.918 1.082,-1.981 2.039,-3.961 0.961,-1.98 0.961,-2.039 0.898,-2.039 0.781,-1.86 0.778,-1.863 0.781,-1.918 0.781,-1.922 0.719,-1.976 0.781,-2.043 0.777,-2.098 0.723,-2.101 0.777,-2.161 0.782,-2.16 0.781,-2.219 0.777,-2.218 1.563,-4.563 0.84,-2.34 0.781,-2.281 1.68,-4.68 0.898,-2.277 0.84,-2.281 0.898,-2.281 0.903,-2.219 0.898,-2.219 0.902,-2.101 0.899,-2.161 0.961,-2.039 0.898,-1.98 0.961,-1.981 0.961,-1.859 1.02,-1.859 1.019,-1.801 2.039,-3.36 1.082,-1.621 1.078,-1.558 1.141,-1.5 1.262,-1.563 1.258,-1.5 1.32,-1.437 1.441,-1.442 1.438,-1.379 1.621,-1.378 1.621,-1.383 1.801,-1.321 1.859,-1.316 1.981,-1.383 2.16,-1.379 2.218,-1.32 2.399,-1.379 2.519,-1.441 2.641,-1.442 2.762,-1.437 2.879,-1.442 2.941,-1.441 2.938,-1.438 3,-1.378 2.941,-1.383 2.879,-1.321 2.699,-1.199 2.524,-1.14 2.218,-0.957 2.039,-0.903 1.68,-0.719 1.32,-0.601 1.082,-0.418 0.719,-0.301 0.481,-0.18 0.238,-0.121 0.121,-0.058"
       style="fill:none;stroke:#000000;stroke-width:0.45;stroke-linecap:butt;stroke-linejoin:bevel;stroke-miterlimit:10;stroke-dasharray:none;stroke-opacity:1"
       id="path10593" /><text
       transform="scale(1,-1)"
       style="font-variant:normal;font-weight:normal;font-size:21.6px;font-family:'Liberation Sans';-inkscape-font-specification:LiberationSans;writing-mode:lr-tb;fill:#000000;fill-opacity:1;fill-rule:nonzero;stroke:none"
       id="text10599"
       x="1.3"
       y="-198.89999"><tspan
         x="1.3 13.3096 19.292799"
         y="-198.89999"
         sodipodi:role="line"
         id="tspan10595">1.5</tspan><tspan
         x="201.99998 300.99277"
         y="-8.9999962"
         sodipodi:role="line"
         id="tspan10597">05</tspan></text><text
       transform="scale(1,-1)"
       style="font-variant:normal;font-weight:normal;font-size:21.6px;font-family:'Liberation Sans';-inkscape-font-specification:LiberationSans;writing-mode:lr-tb;fill:#000000;fill-opacity:1;fill-rule:nonzero;stroke:none"
       id="text10603"
       x="93.999985"
       y="-9.9000111"><tspan
         x="93.999985"
         y="-9.9000111"
         id="tspan10601">−</tspan></text><text
       transform="scale(1,-1)"
       style="font-variant:normal;font-weight:normal;font-size:21.6px;font-family:'Liberation Sans';-inkscape-font-specification:LiberationSans;writing-mode:lr-tb;fill:#000000;fill-opacity:1;fill-rule:nonzero;stroke:none"
       id="text10607"
       x="107.04639"
       y="-9.9000111"><tspan
         x="107.04639"
         y="-9.9000111"
         id="tspan10605">5</tspan></text><path
       d="m 20.039,215.332 h 10.449 c 0.801,0 1.446,-0.644 1.446,-1.445 v -14.278 c 0,-0.8 -0.645,-1.445 -1.446,-1.445 H 20.039 c -0.801,0 -1.449,0.645 -1.449,1.445 v 14.278 c 0,0.801 0.648,1.445 1.449,1.445 z"
       style="fill:#ffffff;fill-opacity:1;fill-rule:nonzero;stroke:none"
       id="path10609" /><text
       transform="scale(1,-1)"
       style="font-variant:normal;font-weight:normal;font-size:20.7545px;font-family:'DejaVu Sans';-inkscape-font-specification:DejaVuSans;writing-mode:lr-tb;fill:#000000;fill-opacity:1;fill-rule:nonzero;stroke:none"
       id="text10613"
       x="18.229954"
       y="-198.81573"><tspan
         x="18.229954"
         y="-198.81573"
         id="tspan10611">4</tspan></text><g
       transform="matrix(3.8024525,0,0,-3.8024525,-8.146224,292.24821)"
       ns3:version="1.0.1"
       ns3:texconverter="pdflatex"
       ns3:pdfconverter="inkscape"
       ns3:text="$\\frac{m_\\omega}{m}$"
       ns3:preamble="/home/gregory/.config/inkscape/extensions/textext/default_packages.tex"
       ns3:scale="1.0446655908229068"
       ns3:alignment="middle center"
       ns3:jacobian_sqrt="1.39288"
       id="g11268"><defs
   id="id-d94e7433-d038-45b0-9640-476a5e4a31b4">
    <g
   id="id-54f988a3-907e-4ec6-a1f5-021768b42cae">
      <symbol
   overflow="visible"
   id="id-22942b18-7fd6-4e1c-af67-81e54fdfa984">
        <path
   style="stroke:none"
   d=""
   id="id-f6341683-0fd0-435b-9d45-d1fd983d971a" />
      </symbol>
      <symbol
   overflow="visible"
   id="id-d43a69d7-c7a1-42d8-ad23-0200532b3ba7">
        <path
   style="stroke:none"
   d="m 3.03125,-0.5625 c -0.046875,0.140625 -0.109375,0.375 -0.109375,0.40625 0,0.15625 0.125,0.21875 0.234375,0.21875 0.140625,0 0.25,-0.078125 0.28125,-0.140625 0.03125,-0.0625 0.09375,-0.296875 0.125,-0.4375 0.03125,-0.125 0.109375,-0.453125 0.15625,-0.625 0.03125,-0.15625 0.078125,-0.3125 0.109375,-0.46875 0.078125,-0.296875 0.078125,-0.3125 0.21875,-0.53125 C 4.265625,-2.484375 4.625,-2.875 5.15625,-2.875 c 0.390625,0 0.421875,0.3125 0.421875,0.484375 0,0.421875 -0.296875,1.1875 -0.421875,1.484375 -0.0625,0.203125 -0.09375,0.265625 -0.09375,0.375 0,0.375 0.296875,0.59375 0.65625,0.59375 0.703125,0 1,-0.953125 1,-1.0625 0,-0.09375 -0.078125,-0.09375 -0.109375,-0.09375 -0.09375,0 -0.09375,0.046875 -0.125,0.125 C 6.328125,-0.40625 6.015625,-0.125 5.75,-0.125 c -0.15625,0 -0.1875,-0.09375 -0.1875,-0.25 0,-0.15625 0.046875,-0.25 0.171875,-0.5625 0.078125,-0.21875 0.359375,-0.953125 0.359375,-1.34375 0,-0.109375 0,-0.40625 -0.25,-0.609375 -0.125,-0.078125 -0.328125,-0.1875 -0.65625,-0.1875 -0.625,0 -1,0.421875 -1.234375,0.703125 C 3.90625,-2.96875 3.40625,-3.078125 3.046875,-3.078125 2.46875,-3.078125 2.078125,-2.71875 1.875,-2.4375 1.828125,-2.921875 1.421875,-3.078125 1.125,-3.078125 c -0.296875,0 -0.453125,0.21875 -0.546875,0.375 -0.15625,0.265625 -0.25,0.65625 -0.25,0.703125 0,0.078125 0.09375,0.078125 0.125,0.078125 0.09375,0 0.09375,-0.015625 0.140625,-0.203125 0.109375,-0.40625 0.25,-0.75 0.515625,-0.75 0.1875,0 0.234375,0.15625 0.234375,0.34375 0,0.125 -0.0625,0.390625 -0.125,0.578125 -0.046875,0.1875 -0.109375,0.46875 -0.140625,0.625 L 0.84375,-0.4375 c -0.015625,0.09375 -0.0625,0.265625 -0.0625,0.28125 0,0.15625 0.125,0.21875 0.234375,0.21875 0.125,0 0.234375,-0.078125 0.28125,-0.140625 0.03125,-0.0625 0.078125,-0.296875 0.125,-0.4375 0.03125,-0.125 0.109375,-0.453125 0.140625,-0.625 0.046875,-0.15625 0.09375,-0.3125 0.125,-0.46875 0.078125,-0.28125 0.09375,-0.34375 0.296875,-0.625 C 2.171875,-2.515625 2.5,-2.875 3.03125,-2.875 c 0.390625,0 0.40625,0.359375 0.40625,0.484375 0,0.171875 -0.015625,0.265625 -0.125,0.65625 z m 0,0"
   id="id-5b3af418-e482-42c6-b24f-cab13488a639" />
      </symbol>
      <symbol
   overflow="visible"
   id="id-ea45b341-5725-415b-8c9d-3a90fc2b2a4c">
        <path
   style="stroke:none"
   d=""
   id="id-162e4796-78e0-4317-a0ad-42c9c663f54b" />
      </symbol>
      <symbol
   overflow="visible"
   id="id-dce44169-91f5-4f04-a34a-fbb74edc98a6">
        <path
   style="stroke:none"
   d="m 4.015625,-1.78125 c 0,-0.1875 -0.078125,-0.421875 -0.296875,-0.421875 -0.140625,0 -0.296875,0.140625 -0.296875,0.28125 0,0.203125 0.296875,0.21875 0.296875,0.5625 0,0.390625 -0.4375,0.984375 -0.921875,0.984375 -0.25,0 -0.484375,-0.125 -0.59375,-0.359375 0.0625,-0.125 0.1875,-0.390625 0.1875,-0.546875 0,-0.109375 -0.03125,-0.1875 -0.15625,-0.1875 -0.296875,0 -0.3125,0.515625 -0.3125,0.71875 -0.140625,0.203125 -0.46875,0.359375 -0.71875,0.359375 -0.34375,0 -0.578125,-0.234375 -0.578125,-0.578125 0,-0.515625 0.53125,-0.984375 0.53125,-1.078125 0,-0.09375 -0.0625,-0.125 -0.140625,-0.125 -0.046875,0 -0.078125,0.03125 -0.109375,0.0625 -0.296875,0.359375 -0.5,0.828125 -0.5,1.296875 0,0.4375 0.21875,0.875 0.71875,0.875 0.40625,0 0.6875,-0.265625 0.890625,-0.484375 C 2.15625,-0.0625 2.46875,0.0625 2.734375,0.0625 3.25,0.0625 3.59375,-0.40625 3.796875,-0.875 3.9375,-1.203125 4.015625,-1.5625 4.015625,-1.78125 Z m 0,0"
   id="id-6e14e60d-b626-4d4b-a588-85990092c93c" />
      </symbol>
    </g>
  </defs>
  <g
   id="id-1df16259-aa60-4618-a024-f7c6d5cae4a3"
   transform="translate(-149.906,-127.602)">
    <g
   style="fill:#000000;fill-opacity:1"
   id="id-32fb12da-1629-492b-a6bc-eab2a67cb616">
      <g
   transform="translate(149.908,130.68)"
   id="g11255"><path
   style="stroke:none"
   d="m 3.03125,-0.5625 c -0.046875,0.140625 -0.109375,0.375 -0.109375,0.40625 0,0.15625 0.125,0.21875 0.234375,0.21875 0.140625,0 0.25,-0.078125 0.28125,-0.140625 0.03125,-0.0625 0.09375,-0.296875 0.125,-0.4375 0.03125,-0.125 0.109375,-0.453125 0.15625,-0.625 0.03125,-0.15625 0.078125,-0.3125 0.109375,-0.46875 0.078125,-0.296875 0.078125,-0.3125 0.21875,-0.53125 C 4.265625,-2.484375 4.625,-2.875 5.15625,-2.875 c 0.390625,0 0.421875,0.3125 0.421875,0.484375 0,0.421875 -0.296875,1.1875 -0.421875,1.484375 -0.0625,0.203125 -0.09375,0.265625 -0.09375,0.375 0,0.375 0.296875,0.59375 0.65625,0.59375 0.703125,0 1,-0.953125 1,-1.0625 0,-0.09375 -0.078125,-0.09375 -0.109375,-0.09375 -0.09375,0 -0.09375,0.046875 -0.125,0.125 C 6.328125,-0.40625 6.015625,-0.125 5.75,-0.125 c -0.15625,0 -0.1875,-0.09375 -0.1875,-0.25 0,-0.15625 0.046875,-0.25 0.171875,-0.5625 0.078125,-0.21875 0.359375,-0.953125 0.359375,-1.34375 0,-0.109375 0,-0.40625 -0.25,-0.609375 -0.125,-0.078125 -0.328125,-0.1875 -0.65625,-0.1875 -0.625,0 -1,0.421875 -1.234375,0.703125 C 3.90625,-2.96875 3.40625,-3.078125 3.046875,-3.078125 2.46875,-3.078125 2.078125,-2.71875 1.875,-2.4375 1.828125,-2.921875 1.421875,-3.078125 1.125,-3.078125 c -0.296875,0 -0.453125,0.21875 -0.546875,0.375 -0.15625,0.265625 -0.25,0.65625 -0.25,0.703125 0,0.078125 0.09375,0.078125 0.125,0.078125 0.09375,0 0.09375,-0.015625 0.140625,-0.203125 0.109375,-0.40625 0.25,-0.75 0.515625,-0.75 0.1875,0 0.234375,0.15625 0.234375,0.34375 0,0.125 -0.0625,0.390625 -0.125,0.578125 -0.046875,0.1875 -0.109375,0.46875 -0.140625,0.625 L 0.84375,-0.4375 c -0.015625,0.09375 -0.0625,0.265625 -0.0625,0.28125 0,0.15625 0.125,0.21875 0.234375,0.21875 0.125,0 0.234375,-0.078125 0.28125,-0.140625 0.03125,-0.0625 0.078125,-0.296875 0.125,-0.4375 0.03125,-0.125 0.109375,-0.453125 0.140625,-0.625 0.046875,-0.15625 0.09375,-0.3125 0.125,-0.46875 0.078125,-0.28125 0.09375,-0.34375 0.296875,-0.625 C 2.171875,-2.515625 2.5,-2.875 3.03125,-2.875 c 0.390625,0 0.40625,0.359375 0.40625,0.484375 0,0.171875 -0.015625,0.265625 -0.125,0.65625 z m 0,0"
   id="id-2a847b76-c7aa-4fda-9f4c-8e5172cb003f" />
      </g></g>
    <g
   style="fill:#000000;fill-opacity:1"
   id="id-8931ec07-f182-482a-b688-e7a8fe7db15b">
      <g
   transform="translate(156.977,131.676)"
   id="g11259"><path
   style="stroke:none"
   d="m 4.015625,-1.78125 c 0,-0.1875 -0.078125,-0.421875 -0.296875,-0.421875 -0.140625,0 -0.296875,0.140625 -0.296875,0.28125 0,0.203125 0.296875,0.21875 0.296875,0.5625 0,0.390625 -0.4375,0.984375 -0.921875,0.984375 -0.25,0 -0.484375,-0.125 -0.59375,-0.359375 0.0625,-0.125 0.1875,-0.390625 0.1875,-0.546875 0,-0.109375 -0.03125,-0.1875 -0.15625,-0.1875 -0.296875,0 -0.3125,0.515625 -0.3125,0.71875 -0.140625,0.203125 -0.46875,0.359375 -0.71875,0.359375 -0.34375,0 -0.578125,-0.234375 -0.578125,-0.578125 0,-0.515625 0.53125,-0.984375 0.53125,-1.078125 0,-0.09375 -0.0625,-0.125 -0.140625,-0.125 -0.046875,0 -0.078125,0.03125 -0.109375,0.0625 -0.296875,0.359375 -0.5,0.828125 -0.5,1.296875 0,0.4375 0.21875,0.875 0.71875,0.875 0.40625,0 0.6875,-0.265625 0.890625,-0.484375 C 2.15625,-0.0625 2.46875,0.0625 2.734375,0.0625 3.25,0.0625 3.59375,-0.40625 3.796875,-0.875 3.9375,-1.203125 4.015625,-1.5625 4.015625,-1.78125 Z m 0,0"
   id="id-de8c9d94-e665-42f0-9461-7a12e97dbfe7" />
      </g></g>
    <path
   style="fill:none;stroke:#000000;stroke-width:0.398;stroke-linecap:butt;stroke-linejoin:miter;stroke-miterlimit:10;stroke-opacity:1"
   d="M -0.00175,5.625e-4 H 12.162312"
   transform="matrix(1,0,0,-1,149.908,132.274)"
   id="id-41f8f667-57d9-46f9-91bb-2c0484387f5e" />
    <g
   style="fill:#000000;fill-opacity:1"
   id="id-b6ec856f-e040-41d8-836b-3fd9010f1064">
      <g
   transform="translate(152.454,138.2)"
   id="g11264"><path
   style="stroke:none"
   d="m 3.03125,-0.5625 c -0.046875,0.140625 -0.109375,0.375 -0.109375,0.40625 0,0.15625 0.125,0.21875 0.234375,0.21875 0.140625,0 0.25,-0.078125 0.28125,-0.140625 0.03125,-0.0625 0.09375,-0.296875 0.125,-0.4375 0.03125,-0.125 0.109375,-0.453125 0.15625,-0.625 0.03125,-0.15625 0.078125,-0.3125 0.109375,-0.46875 0.078125,-0.296875 0.078125,-0.3125 0.21875,-0.53125 C 4.265625,-2.484375 4.625,-2.875 5.15625,-2.875 c 0.390625,0 0.421875,0.3125 0.421875,0.484375 0,0.421875 -0.296875,1.1875 -0.421875,1.484375 -0.0625,0.203125 -0.09375,0.265625 -0.09375,0.375 0,0.375 0.296875,0.59375 0.65625,0.59375 0.703125,0 1,-0.953125 1,-1.0625 0,-0.09375 -0.078125,-0.09375 -0.109375,-0.09375 -0.09375,0 -0.09375,0.046875 -0.125,0.125 C 6.328125,-0.40625 6.015625,-0.125 5.75,-0.125 c -0.15625,0 -0.1875,-0.09375 -0.1875,-0.25 0,-0.15625 0.046875,-0.25 0.171875,-0.5625 0.078125,-0.21875 0.359375,-0.953125 0.359375,-1.34375 0,-0.109375 0,-0.40625 -0.25,-0.609375 -0.125,-0.078125 -0.328125,-0.1875 -0.65625,-0.1875 -0.625,0 -1,0.421875 -1.234375,0.703125 C 3.90625,-2.96875 3.40625,-3.078125 3.046875,-3.078125 2.46875,-3.078125 2.078125,-2.71875 1.875,-2.4375 1.828125,-2.921875 1.421875,-3.078125 1.125,-3.078125 c -0.296875,0 -0.453125,0.21875 -0.546875,0.375 -0.15625,0.265625 -0.25,0.65625 -0.25,0.703125 0,0.078125 0.09375,0.078125 0.125,0.078125 0.09375,0 0.09375,-0.015625 0.140625,-0.203125 0.109375,-0.40625 0.25,-0.75 0.515625,-0.75 0.1875,0 0.234375,0.15625 0.234375,0.34375 0,0.125 -0.0625,0.390625 -0.125,0.578125 -0.046875,0.1875 -0.109375,0.46875 -0.140625,0.625 L 0.84375,-0.4375 c -0.015625,0.09375 -0.0625,0.265625 -0.0625,0.28125 0,0.15625 0.125,0.21875 0.234375,0.21875 0.125,0 0.234375,-0.078125 0.28125,-0.140625 0.03125,-0.0625 0.078125,-0.296875 0.125,-0.4375 0.03125,-0.125 0.109375,-0.453125 0.140625,-0.625 0.046875,-0.15625 0.09375,-0.3125 0.125,-0.46875 0.078125,-0.28125 0.09375,-0.34375 0.296875,-0.625 C 2.171875,-2.515625 2.5,-2.875 3.03125,-2.875 c 0.390625,0 0.40625,0.359375 0.40625,0.484375 0,0.171875 -0.015625,0.265625 -0.125,0.65625 z m 0,0"
   id="id-84664f85-e88f-4163-b058-efbbb7a18e1d" />
      </g></g>
  </g>
</g><text
       xml:space="preserve"
       style="font-style:normal;font-weight:normal;font-size:24.8182px;line-height:125%;font-family:Sans;text-align:start;letter-spacing:0px;word-spacing:0px;text-anchor:start;fill:#000000;fill-opacity:1;stroke:none;stroke-width:0.551516px;stroke-linecap:butt;stroke-linejoin:miter;stroke-opacity:1"
       x="15.906424"
       y="-27.743046"
       id="text11327"
       transform="scale(1,-1)"><tspan
         sodipodi:role="line"
         id="tspan11325"
         x="15.906424"
         y="-27.743046"
         style="font-style:normal;font-variant:normal;font-weight:normal;font-stretch:normal;font-family:times;-inkscape-font-specification:times;stroke-width:0.551516px">1</tspan></text><text
       xml:space="preserve"
       style="font-style:normal;font-weight:normal;font-size:24.8182px;line-height:125%;font-family:Sans;text-align:start;letter-spacing:0px;word-spacing:0px;text-anchor:start;fill:#000000;fill-opacity:1;stroke:none;stroke-width:0.551516px;stroke-linecap:butt;stroke-linejoin:miter;stroke-opacity:1"
       x="317.57874"
       y="-216.81964"
       id="text11339"
       transform="scale(1,-1)"><tspan
         sodipodi:role="line"
         id="tspan11337"
         x="317.57874"
         y="-216.81964"
         style="font-style:normal;font-variant:normal;font-weight:normal;font-stretch:normal;font-family:times;-inkscape-font-specification:times;stroke-width:0.551516px" /></text><text
       xml:space="preserve"
       style="font-style:normal;font-weight:normal;font-size:24.8182px;line-height:125%;font-family:Sans;text-align:start;letter-spacing:0px;word-spacing:0px;text-anchor:start;fill:#000000;fill-opacity:1;stroke:none;stroke-width:0.551516px;stroke-linecap:butt;stroke-linejoin:miter;stroke-opacity:1"
       x="317.57874"
       y="-216.81964"
       id="text11347"
       transform="scale(1,-1)"><tspan
         sodipodi:role="line"
         id="tspan11345"
         x="317.57874"
         y="-216.81964"
         style="font-style:normal;font-variant:normal;font-weight:normal;font-stretch:normal;font-family:times;-inkscape-font-specification:times;stroke-width:0.551516px" /></text><rect
       style="opacity:1;fill:#ffffff;stroke-width:0.0075"
       id="rect11357"
       width="36.731071"
       height="24.434713"
       x="-5.384738"
       y="-216.19614"
       transform="scale(1,-1)" /><rect
       style="opacity:1;fill:#ffffff;stroke-width:0.0075"
       id="rect11359"
       width="250.88794"
       height="20.990917"
       x="79.558037"
       y="-28.01297"
       transform="scale(1,-1)" /><text
       xml:space="preserve"
       style="font-style:normal;font-weight:normal;font-size:24.8182px;line-height:125%;font-family:Sans;text-align:start;letter-spacing:0px;word-spacing:0px;text-anchor:start;fill:#000000;fill-opacity:1;stroke:none;stroke-width:0.551516px;stroke-linecap:butt;stroke-linejoin:miter;stroke-opacity:1"
       x="2.8570495"
       y="-196.04895"
       id="text11323"
       transform="scale(1,-1)"><tspan
         sodipodi:role="line"
         id="tspan11321"
         x="2.8570495"
         y="-196.04895"
         style="font-style:normal;font-variant:normal;font-weight:normal;font-stretch:normal;font-family:times;-inkscape-font-specification:times;stroke-width:0.551516px">1.4</tspan></text><text
       xml:space="preserve"
       style="font-style:normal;font-weight:normal;font-size:24.8182px;line-height:125%;font-family:Sans;text-align:start;letter-spacing:0px;word-spacing:0px;text-anchor:start;fill:#000000;fill-opacity:1;stroke:none;stroke-width:0.551516px;stroke-linecap:butt;stroke-linejoin:miter;stroke-opacity:1"
       x="97.849754"
       y="-12.928555"
       id="text11343"
       transform="scale(1,-1)"><tspan
         sodipodi:role="line"
         id="tspan11341"
         x="97.849754"
         y="-12.928555"
         style="font-style:normal;font-variant:normal;font-weight:normal;font-stretch:normal;font-family:times;-inkscape-font-specification:times;stroke-width:0.551516px">-5</tspan></text><text
       xml:space="preserve"
       style="font-style:normal;font-weight:normal;font-size:24.8182px;line-height:125%;font-family:Sans;text-align:start;letter-spacing:0px;word-spacing:0px;text-anchor:start;fill:#000000;fill-opacity:1;stroke:none;stroke-width:0.551516px;stroke-linecap:butt;stroke-linejoin:miter;stroke-opacity:1"
       x="199.66911"
       y="-13.077464"
       id="text11351"
       transform="scale(1,-1)"><tspan
         sodipodi:role="line"
         id="tspan11349"
         x="199.66911"
         y="-13.077464"
         style="font-style:normal;font-variant:normal;font-weight:normal;font-stretch:normal;font-family:times;-inkscape-font-specification:times;stroke-width:0.551516px">0</tspan></text><text
       xml:space="preserve"
       style="font-style:normal;font-weight:normal;font-size:24.8182px;line-height:125%;font-family:Sans;text-align:start;letter-spacing:0px;word-spacing:0px;text-anchor:start;fill:#000000;fill-opacity:1;stroke:none;stroke-width:0.551516px;stroke-linecap:butt;stroke-linejoin:miter;stroke-opacity:1"
       x="299.43713"
       y="-12.928555"
       id="text11355"
       transform="scale(1,-1)"><tspan
         sodipodi:role="line"
         id="tspan11353"
         x="299.43713"
         y="-12.928555"
         style="font-style:normal;font-variant:normal;font-weight:normal;font-stretch:normal;font-family:times;-inkscape-font-specification:times;stroke-width:0.551516px">5</tspan></text><g
       transform="matrix(2.8520727,0,0,-2.8520727,342.92755,25.002674)"
       ns3:version="1.0.1"
       ns3:texconverter="pdflatex"
       ns3:pdfconverter="inkscape"
       ns3:text="$\\epsilon-\\epsilon_F$"
       ns3:preamble="/home/gregory/.config/inkscape/extensions/textext/default_packages.tex"
       ns3:scale="1.0446655908229068"
       ns3:alignment="middle center"
       ns3:inkscapeversion="1.0.1"
       ns3:jacobian_sqrt="1.39288"
       id="g11507"><defs
   id="id-4676749f-83ca-440c-89c8-c952ca9ea4a9">
    <g
   id="id-242ad69f-b43e-4fe0-b03f-aa0dd4428380">
      <symbol
   overflow="visible"
   id="id-08125446-1cbf-4d2e-8717-5391553a97e5">
        <path
   style="stroke:none"
   d=""
   id="id-973ebce9-3559-4e83-9724-cd100050187a" />
      </symbol>
      <symbol
   overflow="visible"
   id="id-ef397583-73d5-42ef-8f4e-6a4c62bae300">
        <path
   style="stroke:none"
   d="m 2.96875,-2.25 c 0.15625,0 0.34375,0 0.34375,-0.171875 C 3.3125,-2.5625 3.1875,-2.5625 3.015625,-2.5625 H 1.40625 c 0.234375,-0.84375 0.796875,-1.421875 1.703125,-1.421875 h 0.3125 c 0.171875,0 0.328125,0 0.328125,-0.171875 0,-0.140625 -0.125,-0.140625 -0.296875,-0.140625 H 3.09375 c -1.296875,0 -2.625,1 -2.625,2.515625 0,1.109375 0.75,1.890625 1.796875,1.890625 0.65625,0 1.296875,-0.40625 1.296875,-0.515625 0,-0.015625 0,-0.125 -0.09375,-0.125 -0.015625,0 -0.046875,0 -0.125,0.046875 -0.3125,0.203125 -0.6875,0.375 -1.046875,0.375 -0.578125,0 -1.078125,-0.421875 -1.078125,-1.296875 0,-0.34375 0.078125,-0.734375 0.109375,-0.84375 z m 0,0"
   id="id-9cbd3245-af89-4c4f-9e90-5aa8c643f9e2" />
      </symbol>
      <symbol
   overflow="visible"
   id="id-baa59466-3c47-489f-af25-38ce28d07998">
        <path
   style="stroke:none"
   d=""
   id="id-f5a4b960-e57e-4ed7-be72-ee97148a0272" />
      </symbol>
      <symbol
   overflow="visible"
   id="id-2f41ad9d-38b6-423c-be97-594eef9d1715">
        <path
   style="stroke:none"
   d="m 6.5625,-2.296875 c 0.171875,0 0.359375,0 0.359375,-0.203125 0,-0.1875 -0.1875,-0.1875 -0.359375,-0.1875 H 1.171875 c -0.171875,0 -0.34375,0 -0.34375,0.1875 0,0.203125 0.171875,0.203125 0.34375,0.203125 z m 0,0"
   id="id-2fc96173-65b0-40b9-bb95-8be539666530" />
      </symbol>
      <symbol
   overflow="visible"
   id="id-9ee0014c-0d80-4a3a-bd3f-274cf91a2f9a">
        <path
   style="stroke:none"
   d=""
   id="id-7a765851-8a40-4a17-b365-a81401c6d606" />
      </symbol>
      <symbol
   overflow="visible"
   id="id-a8a9b2ca-fc22-495b-9f40-952dee9f0851">
        <path
   style="stroke:none"
   d="M 2.390625,-2.25 H 3.125 c 0.53125,0 0.625,0.09375 0.625,0.3125 0,0.109375 0,0.125 -0.046875,0.328125 -0.015625,0.03125 -0.03125,0.0625 -0.03125,0.078125 0,0.0625 0.0625,0.109375 0.125,0.109375 0.09375,0 0.09375,-0.046875 0.140625,-0.171875 l 0.375,-1.46875 c 0,-0.03125 0.015625,-0.125 0.015625,-0.140625 0,-0.078125 -0.046875,-0.109375 -0.109375,-0.109375 -0.09375,0 -0.109375,0.046875 -0.140625,0.171875 C 3.9375,-2.59375 3.734375,-2.5 3.140625,-2.5 h -0.6875 l 0.4375,-1.75 c 0.046875,-0.203125 0.0625,-0.234375 0.34375,-0.234375 H 4.3125 c 0.921875,0 1.09375,0.21875 1.09375,0.8125 0,0.21875 -0.03125,0.375 -0.03125,0.421875 0,0.0625 0.03125,0.125 0.125,0.125 0.109375,0 0.109375,-0.0625 0.125,-0.1875 L 5.75,-4.515625 c 0.015625,-0.21875 -0.03125,-0.21875 -0.203125,-0.21875 h -3.71875 c -0.140625,0 -0.21875,0 -0.21875,0.15625 0,0.09375 0.078125,0.09375 0.21875,0.09375 0,0 0.140625,0 0.265625,0.015625 C 2.234375,-4.453125 2.25,-4.4375 2.25,-4.375 c 0,0.046875 -0.015625,0.125 -0.03125,0.15625 L 1.3125,-0.578125 C 1.234375,-0.296875 1.234375,-0.25 0.6875,-0.25 c -0.109375,0 -0.203125,0 -0.203125,0.140625 C 0.484375,-0.03125 0.53125,0 0.59375,0 0.796875,0 1.3125,-0.03125 1.515625,-0.03125 l 0.53125,0.015625 C 2.234375,-0.015625 2.421875,0 2.59375,0 2.640625,0 2.75,0 2.75,-0.15625 2.75,-0.25 2.671875,-0.25 2.515625,-0.25 c -0.015625,0 -0.1875,0 -0.375,-0.015625 C 2,-0.28125 1.9375,-0.28125 1.9375,-0.390625 c 0,-0.015625 0,-0.046875 0.015625,-0.125 z m 0,0"
   id="id-36ac4bb9-fa74-43e2-a50f-86cbf98b1a75" />
      </symbol>
    </g>
  </defs>
  <g
   id="id-f33f5e02-e7ae-4a6c-9771-993d7f4099e6"
   transform="translate(-149.181,-130.468)">
    <g
   style="fill:#000000;fill-opacity:1"
   id="id-6fb41367-980b-459e-8e14-76f481aae5de">
      <g
   transform="translate(148.712,134.765)"
   id="g11491"><path
   style="stroke:none"
   d="m 2.96875,-2.25 c 0.15625,0 0.34375,0 0.34375,-0.171875 C 3.3125,-2.5625 3.1875,-2.5625 3.015625,-2.5625 H 1.40625 c 0.234375,-0.84375 0.796875,-1.421875 1.703125,-1.421875 h 0.3125 c 0.171875,0 0.328125,0 0.328125,-0.171875 0,-0.140625 -0.125,-0.140625 -0.296875,-0.140625 H 3.09375 c -1.296875,0 -2.625,1 -2.625,2.515625 0,1.109375 0.75,1.890625 1.796875,1.890625 0.65625,0 1.296875,-0.40625 1.296875,-0.515625 0,-0.015625 0,-0.125 -0.09375,-0.125 -0.015625,0 -0.046875,0 -0.125,0.046875 -0.3125,0.203125 -0.6875,0.375 -1.046875,0.375 -0.578125,0 -1.078125,-0.421875 -1.078125,-1.296875 0,-0.34375 0.078125,-0.734375 0.109375,-0.84375 z m 0,0"
   id="id-0f888ba1-12c1-46d2-acbe-b4afdf972155" />
      </g></g>
    <g
   style="fill:#000000;fill-opacity:1"
   id="id-f0449e98-586e-410a-ade1-c360359157db">
      <g
   transform="translate(154.97,134.765)"
   id="g11495"><path
   style="stroke:none"
   d="m 6.5625,-2.296875 c 0.171875,0 0.359375,0 0.359375,-0.203125 0,-0.1875 -0.1875,-0.1875 -0.359375,-0.1875 H 1.171875 c -0.171875,0 -0.34375,0 -0.34375,0.1875 0,0.203125 0.171875,0.203125 0.34375,0.203125 z m 0,0"
   id="id-8c04dad5-4aa2-491c-9112-ca692966f5d9" />
      </g></g>
    <g
   style="fill:#000000;fill-opacity:1"
   id="id-bcf84985-d6fa-469e-b2eb-fcae46e9be01">
      <g
   transform="translate(164.933,134.765)"
   id="g11499"><path
   style="stroke:none"
   d="m 2.96875,-2.25 c 0.15625,0 0.34375,0 0.34375,-0.171875 C 3.3125,-2.5625 3.1875,-2.5625 3.015625,-2.5625 H 1.40625 c 0.234375,-0.84375 0.796875,-1.421875 1.703125,-1.421875 h 0.3125 c 0.171875,0 0.328125,0 0.328125,-0.171875 0,-0.140625 -0.125,-0.140625 -0.296875,-0.140625 H 3.09375 c -1.296875,0 -2.625,1 -2.625,2.515625 0,1.109375 0.75,1.890625 1.796875,1.890625 0.65625,0 1.296875,-0.40625 1.296875,-0.515625 0,-0.015625 0,-0.125 -0.09375,-0.125 -0.015625,0 -0.046875,0 -0.125,0.046875 -0.3125,0.203125 -0.6875,0.375 -1.046875,0.375 -0.578125,0 -1.078125,-0.421875 -1.078125,-1.296875 0,-0.34375 0.078125,-0.734375 0.109375,-0.84375 z m 0,0"
   id="id-edb21904-8c2e-4a1f-8960-b569cc39d009" />
      </g></g>
    <g
   style="fill:#000000;fill-opacity:1"
   id="id-3c807a35-641c-4f2d-b50b-3725269f7d26">
      <g
   transform="translate(168.977,136.259)"
   id="g11503"><path
   style="stroke:none"
   d="M 2.390625,-2.25 H 3.125 c 0.53125,0 0.625,0.09375 0.625,0.3125 0,0.109375 0,0.125 -0.046875,0.328125 -0.015625,0.03125 -0.03125,0.0625 -0.03125,0.078125 0,0.0625 0.0625,0.109375 0.125,0.109375 0.09375,0 0.09375,-0.046875 0.140625,-0.171875 l 0.375,-1.46875 c 0,-0.03125 0.015625,-0.125 0.015625,-0.140625 0,-0.078125 -0.046875,-0.109375 -0.109375,-0.109375 -0.09375,0 -0.109375,0.046875 -0.140625,0.171875 C 3.9375,-2.59375 3.734375,-2.5 3.140625,-2.5 h -0.6875 l 0.4375,-1.75 c 0.046875,-0.203125 0.0625,-0.234375 0.34375,-0.234375 H 4.3125 c 0.921875,0 1.09375,0.21875 1.09375,0.8125 0,0.21875 -0.03125,0.375 -0.03125,0.421875 0,0.0625 0.03125,0.125 0.125,0.125 0.109375,0 0.109375,-0.0625 0.125,-0.1875 L 5.75,-4.515625 c 0.015625,-0.21875 -0.03125,-0.21875 -0.203125,-0.21875 h -3.71875 c -0.140625,0 -0.21875,0 -0.21875,0.15625 0,0.09375 0.078125,0.09375 0.21875,0.09375 0,0 0.140625,0 0.265625,0.015625 C 2.234375,-4.453125 2.25,-4.4375 2.25,-4.375 c 0,0.046875 -0.015625,0.125 -0.03125,0.15625 L 1.3125,-0.578125 C 1.234375,-0.296875 1.234375,-0.25 0.6875,-0.25 c -0.109375,0 -0.203125,0 -0.203125,0.140625 C 0.484375,-0.03125 0.53125,0 0.59375,0 0.796875,0 1.3125,-0.03125 1.515625,-0.03125 l 0.53125,0.015625 C 2.234375,-0.015625 2.421875,0 2.59375,0 2.640625,0 2.75,0 2.75,-0.15625 2.75,-0.25 2.671875,-0.25 2.515625,-0.25 c -0.015625,0 -0.1875,0 -0.375,-0.015625 C 2,-0.28125 1.9375,-0.28125 1.9375,-0.390625 c 0,-0.015625 0,-0.046875 0.015625,-0.125 z m 0,0"
   id="id-f6e20ad2-e617-415c-825e-4515948e8078" />
      </g></g>
  </g>
</g><text
       xml:space="preserve"
       style="font-style:normal;font-weight:normal;font-size:24.6143px;line-height:125%;font-family:Sans;text-align:start;letter-spacing:0px;word-spacing:0px;text-anchor:start;fill:#000000;fill-opacity:1;stroke:none;stroke-width:0.546985px;stroke-linecap:butt;stroke-linejoin:miter;stroke-opacity:1"
       x="419.34274"
       y="-12.426334"
       id="text2778"
       transform="scale(1,-1)"><tspan
         sodipodi:role="line"
         id="tspan2776"
         x="419.34274"
         y="-12.426334"
         style="font-style:normal;font-variant:normal;font-weight:normal;font-stretch:normal;font-family:times;-inkscape-font-specification:times;stroke-width:0.546985px">(MeV)</tspan></text></g></svg>
