<?xml version="1.0" encoding="UTF-8" standalone="no"?>
<!-- Created with Inkscape (http://www.inkscape.org/) -->

<svg
   xmlns:dc="http://purl.org/dc/elements/1.1/"
   xmlns:cc="http://creativecommons.org/ns#"
   xmlns:rdf="http://www.w3.org/1999/02/22-rdf-syntax-ns#"
   xmlns:svg="http://www.w3.org/2000/svg"
   xmlns="http://www.w3.org/2000/svg"
   xmlns:sodipodi="http://sodipodi.sourceforge.net/DTD/sodipodi-0.dtd"
   xmlns:inkscape="http://www.inkscape.org/namespaces/inkscape"
   width="529.81323"
   height="113.1769"
   id="svg16005"
   version="1.1"
   inkscape:version="0.48.4 r9939"
   sodipodi:docname="figintroA1.svg">
  <defs
     id="defs16007">
    <inkscape:path-effect
       effect="spiro"
       id="path-effect16939"
       is_visible="true" />
    <inkscape:path-effect
       is_visible="true"
       id="path-effect16937"
       effect="spiro" />
    <inkscape:path-effect
       is_visible="true"
       id="path-effect16921"
       effect="spiro" />
    <inkscape:path-effect
       effect="spiro"
       id="path-effect16915"
       is_visible="true" />
    <inkscape:path-effect
       effect="spiro"
       id="path-effect14282"
       is_visible="true" />
    <inkscape:path-effect
       effect="spiro"
       id="path-effect4759"
       is_visible="true" />
    <inkscape:path-effect
       is_visible="true"
       id="path-effect4763"
       effect="spiro" />
    <inkscape:path-effect
       effect="spiro"
       id="path-effect16026"
       is_visible="true" />
    <inkscape:path-effect
       is_visible="true"
       id="path-effect16028"
       effect="spiro" />
    <inkscape:path-effect
       effect="spiro"
       id="path-effect16030"
       is_visible="true" />
    <inkscape:path-effect
       is_visible="true"
       id="path-effect16032"
       effect="spiro" />
    <inkscape:path-effect
       effect="spiro"
       id="path-effect16034"
       is_visible="true" />
    <inkscape:path-effect
       is_visible="true"
       id="path-effect16036"
       effect="spiro" />
    <inkscape:path-effect
       effect="spiro"
       id="path-effect16038"
       is_visible="true" />
    <inkscape:path-effect
       is_visible="true"
       id="path-effect16040"
       effect="spiro" />
    <inkscape:path-effect
       effect="spiro"
       id="path-effect16042"
       is_visible="true" />
    <inkscape:path-effect
       effect="spiro"
       id="path-effect16044"
       is_visible="true" />
    <inkscape:path-effect
       is_visible="true"
       id="path-effect16046"
       effect="spiro" />
    <inkscape:path-effect
       effect="spiro"
       id="path-effect16048"
       is_visible="true" />
    <inkscape:path-effect
       is_visible="true"
       id="path-effect16050"
       effect="spiro" />
    <inkscape:path-effect
       effect="spiro"
       id="path-effect16052"
       is_visible="true" />
    <inkscape:path-effect
       is_visible="true"
       id="path-effect16054"
       effect="spiro" />
  </defs>
  <sodipodi:namedview
     id="base"
     pagecolor="#ffffff"
     bordercolor="#666666"
     borderopacity="1.0"
     inkscape:pageopacity="0.0"
     inkscape:pageshadow="2"
     inkscape:zoom="0.49497475"
     inkscape:cx="-27.876095"
     inkscape:cy="62.093032"
     inkscape:document-units="px"
     inkscape:current-layer="layer1"
     showgrid="false"
     inkscape:window-width="1366"
     inkscape:window-height="706"
     inkscape:window-x="-8"
     inkscape:window-y="-8"
     inkscape:window-maximized="1"
     fit-margin-top="0"
     fit-margin-left="0"
     fit-margin-right="0"
     fit-margin-bottom="0" />
  <metadata
     id="metadata16010">
    <rdf:RDF>
      <cc:Work
         rdf:about="">
        <dc:format>image/svg+xml</dc:format>
        <dc:type
           rdf:resource="http://purl.org/dc/dcmitype/StillImage" />
        <dc:title></dc:title>
      </cc:Work>
    </rdf:RDF>
  </metadata>
  <g
     inkscape:label="Layer 1"
     inkscape:groupmode="layer"
     id="layer1"
     transform="translate(10.204422,-438.68428)">
    <g
       id="g16981"
       transform="translate(-27.184883,1.4002791)">
      <g
         transform="translate(76.428572,2.1428571)"
         id="g16966">
        <path
           sodipodi:nodetypes="csscc"
           inkscape:connector-curvature="0"
           id="path16903"
           d="m 179.3947,442.01196 c 0,0 -13.84172,6.83958 -24.17907,22.6439 -9.39033,14.35645 -8.79495,35.71205 -1.91898,51.4285 6.23375,14.24852 26.70721,31.1195 26.70721,31.1195 l -0.60916,0.35169"
           style="fill:none;stroke:#000000;stroke-width:1.52499998;stroke-linecap:butt;stroke-linejoin:miter;stroke-miterlimit:4;stroke-opacity:1;stroke-dasharray:none" />
        <path
           style="fill:none;stroke:#000000;stroke-width:1.52462506;stroke-linecap:butt;stroke-linejoin:miter;stroke-miterlimit:4;stroke-opacity:1;stroke-dasharray:none"
           d="m 240.4811,441.49846 c 0,0 13.73308,7.05522 23.822,23.01927 9.16463,14.50156 8.23535,35.84524 1.11443,51.45223 -6.45583,14.14929 -27.19064,30.698 -27.19064,30.698 l 0.60358,0.36118"
           id="path16905"
           inkscape:connector-curvature="0"
           sodipodi:nodetypes="csscc" />
        <path
           inkscape:connector-curvature="0"
           style="fill:none;stroke:#000000;stroke-width:1.5;stroke-linecap:round;stroke-linejoin:round;stroke-miterlimit:4;stroke-opacity:1;stroke-dasharray:none;stroke-dashoffset:0"
           d="m 180.19204,547.03214 c 0.66301,0.003 1.34775,-0.41965 2.04689,-1.12698 0.69919,-0.70728 1.41204,-1.6859 2.12186,-2.60343 0.70982,-0.91752 1.41564,-1.75693 2.10312,-2.23446 0.68748,-0.47754 1.35602,-0.58264 2.00391,-0.28028 0.64787,0.30237 1.27526,1.00883 1.89417,1.88103 0.61894,0.87218 1.23024,1.89512 1.85134,2.72516 0.62105,0.83006 1.25276,1.4512 1.90553,1.65689 0.65278,0.20569 1.32695,-0.01 2.01864,-0.57046 0.6917,-0.56059 1.40046,-1.45769 2.11084,-2.38607 0.71037,-0.92838 1.42145,-1.87123 2.11708,-2.50954 0.69567,-0.63827 1.37515,-0.95885 2.03303,-0.85378 0.6579,0.1051 1.29417,0.63602 1.91793,1.41349 0.62375,0.77747 1.23562,1.78863 1.85291,2.69337 0.61731,0.90476 1.24084,1.68614 1.88392,2.08325 0.64307,0.39706 1.3061,0.40081 1.98901,0.0133 0.68289,-0.38746 1.38538,-1.1609 2.09432,-2.05636 0.7087,-0.89561 1.42279,-1.89762 2.12506,-2.66664 0.70228,-0.76903 1.39194,-1.28984 2.06009,-1.38677 0.66816,-0.097 1.31458,0.23389 1.94497,0.88052 0.63039,0.64662 1.24526,1.59893 1.86092,2.53626 0.61563,0.93733 1.23288,1.84265 1.86717,2.41279 0.63426,0.57014 1.28617,0.79318 1.95935,0.59718 0.67317,-0.19597 1.36754,-0.8094 2.07245,-1.63018 0.7049,-0.82073 1.41961,-1.83485 2.12667,-2.69843 0.70708,-0.86358 1.40567,-1.56004 2.08386,-1.85427 0.67814,-0.29425 1.33552,-0.17877 1.97408,0.30699 0.6386,0.48573 1.25865,1.33488 1.87487,2.26118 0.61618,0.92632 1.22928,1.91342 1.85612,2.63017 0.62685,0.71673 1.26814,1.14884 1.93112,1.15369"
           title="cos(4*t) t"
           id="path16907" />
        <path
           style="fill:none;stroke:#000000;stroke-width:1.52648675;stroke-linecap:round;stroke-linejoin:miter;stroke-miterlimit:4;stroke-opacity:1;stroke-dasharray:none"
           d="m 180.42242,547.53287 60.0776,-106.10266"
           id="path16913"
           inkscape:path-effect="#path-effect16915"
           inkscape:original-d="m 180.42242,547.53287 60.0776,-106.10266"
           inkscape:connector-curvature="0" />
        <path
           inkscape:connector-curvature="0"
           inkscape:original-d="M 237.9266,547.18897 179.33775,442.13311"
           inkscape:path-effect="#path-effect16921"
           id="path16919"
           d="M 237.9266,547.18897 179.33775,442.13311"
           style="fill:none;stroke:#000000;stroke-width:1.5;stroke-linecap:round;stroke-linejoin:miter;stroke-miterlimit:4;stroke-opacity:1;stroke-dasharray:none" />
        <path
           id="path16923"
           title="cos(4*t) t"
           d="m 179.95107,442.28457 c 0.68597,0.003 1.39442,-0.41822 2.11777,-1.12314 0.72339,-0.70487 1.46093,-1.68016 2.19532,-2.59457 0.7344,-0.9144 1.46466,-1.75095 2.17594,-2.22686 0.71129,-0.47591 1.40297,-0.58066 2.0733,-0.27932 0.6703,0.30134 1.31941,1.00539 1.95975,1.87462 0.64037,0.86922 1.27283,1.88868 1.91544,2.71589 0.64255,0.82724 1.29614,1.44626 1.97151,1.65125 0.67538,0.20499 1.37289,-0.01 2.08853,-0.56852 0.71565,-0.55868 1.44895,-1.45273 2.18393,-2.37795 0.73496,-0.92522 1.47066,-1.86486 2.19038,-2.501 0.71975,-0.63609 1.42276,-0.95558 2.10342,-0.85087 0.68068,0.10474 1.33898,0.63385 1.98434,1.40868 0.64534,0.77482 1.2784,1.78254 1.91706,2.6842 0.63869,0.90169 1.2838,1.68041 1.94915,2.07617 0.66534,0.3957 1.35132,0.39944 2.05788,0.0132 0.70653,-0.38614 1.43335,-1.15695 2.16683,-2.04936 0.73324,-0.89257 1.47205,-1.89117 2.19864,-2.65757 0.7266,-0.76641 1.44013,-1.28545 2.13142,-1.38205 0.69129,-0.0967 1.36009,0.23309 2.01231,0.87752 0.65222,0.64442 1.28838,1.59349 1.92535,2.52763 0.63695,0.93414 1.27557,1.83638 1.93182,2.40458 0.65622,0.5682 1.3307,0.79048 2.02719,0.59515 0.69648,-0.1953 1.41489,-0.80664 2.14421,-1.62463 0.72931,-0.81794 1.46876,-1.82861 2.2003,-2.68925 0.73157,-0.86064 1.45434,-1.55473 2.15602,-1.84796 0.70161,-0.29325 1.38176,-0.17816 2.04243,0.30595 0.66071,0.48407 1.30223,1.33033 1.93978,2.25348 0.63752,0.92317 1.27184,1.90691 1.92039,2.62122 0.64855,0.71429 1.31205,1.14493 1.99798,1.14977"
           style="fill:none;stroke:#000000;stroke-width:1.5;stroke-linecap:round;stroke-linejoin:round;stroke-miterlimit:4;stroke-opacity:1;stroke-dasharray:none;stroke-dashoffset:0"
           inkscape:connector-curvature="0" />
      </g>
    </g>
    <g
       id="g16990"
       transform="translate(-7.6293945e-6,0.78022502)">
      <path
         sodipodi:nodetypes="csscc"
         inkscape:connector-curvature="0"
         id="path16925"
         d="m 421.3947,442.01196 c 0,0 -13.84172,6.83958 -24.17907,22.6439 -9.39033,14.35645 -8.79495,35.71205 -1.91898,51.4285 6.23375,14.24852 26.70721,31.1195 26.70721,31.1195 l -0.60916,0.35169"
         style="fill:none;stroke:#000000;stroke-width:1.52499998;stroke-linecap:butt;stroke-linejoin:miter;stroke-miterlimit:4;stroke-opacity:1;stroke-dasharray:none" />
      <path
         style="fill:none;stroke:#000000;stroke-width:1.52462506;stroke-linecap:butt;stroke-linejoin:miter;stroke-miterlimit:4;stroke-opacity:1;stroke-dasharray:none"
         d="m 482.4811,441.49846 c 0,0 13.73308,7.05522 23.822,23.01927 9.16463,14.50156 8.23535,35.84524 1.11443,51.45223 -6.45583,14.14929 -27.19064,30.698 -27.19064,30.698 l 0.60358,0.36118"
         id="path16927"
         inkscape:connector-curvature="0"
         sodipodi:nodetypes="csscc" />
      <path
         inkscape:connector-curvature="0"
         style="fill:none;stroke:#000000;stroke-width:1.5;stroke-linecap:round;stroke-linejoin:round;stroke-miterlimit:4;stroke-opacity:1;stroke-dasharray:none;stroke-dashoffset:0"
         d="m 421.4896,546.57785 c -0.0177,-1.18887 -0.59505,-2.41462 -1.54668,-3.66487 -0.95159,-1.25031 -2.25992,-2.52382 -3.4879,-3.79221 -1.22801,-1.26837 -2.35331,-2.52996 -3.00281,-3.76037 -0.6495,-1.23043 -0.80934,-2.42868 -0.43345,-3.59185 0.3759,-1.16313 1.28311,-2.29147 2.40822,-3.40542 1.12509,-1.11399 2.44839,-2.21499 3.51808,-3.33264 1.0697,-1.11756 1.86472,-2.25325 2.11352,-3.42472 0.24879,-1.17147 -0.0564,-2.37929 -0.81499,-3.61685 -0.75869,-1.23761 -1.95984,-2.50418 -3.20211,-3.7735 -1.24229,-1.26932 -2.50358,-2.53983 -3.36448,-3.7841 -0.86085,-1.24435 -1.30399,-2.46117 -1.18747,-3.64132 0.11654,-1.18017 0.79293,-2.3236 1.79348,-3.44576 1.00058,-1.12217 2.30839,-2.22415 3.47628,-3.33532 1.16792,-1.11124 2.17365,-2.23301 2.6741,-3.388 0.50041,-1.15499 0.48369,-2.34387 -0.0475,-3.56654 -0.53106,-1.22263 -1.56961,-2.47855 -2.76863,-3.74546 -1.19919,-1.26645 -2.53827,-2.54208 -3.57101,-3.79766 -1.03278,-1.25557 -1.73917,-2.48969 -1.88827,-3.68726 -0.14918,-1.1976 0.26423,-2.35828 1.09278,-3.49171 0.82851,-1.13343 2.05896,-2.2405 3.26969,-3.34895 1.21075,-1.10834 2.3794,-2.21945 3.10739,-3.35953 0.72796,-1.14001 0.99957,-2.31002 0.72021,-3.51614 -0.2793,-1.20613 -1.10748,-2.44823 -2.20828,-3.70827 -1.10074,-1.26004 -2.45575,-2.53671 -3.61282,-3.80041 -1.15707,-1.2637 -2.09442,-2.51301 -2.50291,-3.72765 -0.40853,-1.21457 -0.27836,-2.39386 0.33867,-3.54116 0.61698,-1.1474 1.7118,-2.26327 2.90804,-3.37264 1.19626,-1.10929 2.47245,-2.21335 3.39318,-3.34076 0.92071,-1.12742 1.46719,-2.27938 1.45192,-3.46819"
         title="cos(4*t) t"
         id="path16929" />
      <path
         style="fill:none;stroke:#000000;stroke-width:1.52648675;stroke-linecap:round;stroke-linejoin:miter;stroke-miterlimit:4;stroke-opacity:1;stroke-dasharray:none"
         d="m 422.42242,547.53287 60.0776,-106.10266"
         id="path16931"
         inkscape:path-effect="#path-effect16937"
         inkscape:original-d="m 422.42242,547.53287 60.0776,-106.10266"
         inkscape:connector-curvature="0" />
      <path
         inkscape:connector-curvature="0"
         inkscape:original-d="M 479.9266,547.18897 421.33775,442.13311"
         inkscape:path-effect="#path-effect16939"
         id="path16933"
         d="M 479.9266,547.18897 421.33775,442.13311"
         style="fill:none;stroke:#000000;stroke-width:1.5;stroke-linecap:round;stroke-linejoin:miter;stroke-miterlimit:4;stroke-opacity:1;stroke-dasharray:none" />
      <path
         id="path16941"
         title="cos(4*t) t"
         d="m 479.66542,545.72674 c 0.0476,-1.1827 0.77649,-2.43413 1.96112,-3.73134 1.18456,-1.29726 2.80348,-2.63802 4.32457,-3.96909 1.5211,-1.33104 2.91719,-2.64947 3.73396,-3.90965 0.81678,-1.26021 1.03742,-2.4604 0.60579,-3.59502 -0.43168,-1.13458 -1.51019,-2.20417 -2.85401,-3.24695 -1.34376,-1.04283 -2.92892,-2.06141 -4.20523,-3.11106 -1.27636,-1.04955 -2.21829,-2.13287 -2.49521,-3.28301 -0.2769,-1.15016 0.12068,-2.36816 1.07031,-3.64173 0.94968,-1.27358 2.43812,-2.60132 3.97661,-3.93411 1.53851,-1.3328 3.10013,-2.66789 4.17429,-3.95396 1.07412,-1.28615 1.63964,-2.52101 1.5238,-3.68738 -0.11585,-1.16637 -0.9134,-2.26417 -2.10555,-3.32225 -1.19221,-1.05809 -2.75846,-2.07853 -4.15438,-3.11613 -1.39593,-1.03764 -2.59439,-2.09505 -3.17767,-3.21441 -0.58327,-1.11935 -0.5369,-2.30204 0.13584,-3.54774 0.67259,-1.24569 1.96306,-2.55349 3.44887,-3.88144 1.48604,-1.32748 3.14237,-2.67211 4.42577,-3.97925 1.28342,-1.30715 2.16947,-2.57428 2.377,-3.77318 0.20747,-1.19893 -0.26969,-2.32892 -1.25244,-3.40806 -0.9827,-1.07915 -2.45477,-2.10907 -3.90282,-3.14149 -1.44808,-1.03232 -2.84491,-2.06979 -3.70524,-3.16131 -0.86029,-1.09144 -1.16496,-2.23883 -0.79882,-3.45369 0.36604,-1.21485 1.40038,-2.49688 2.76661,-3.81237 1.36619,-1.31548 3.04191,-2.66205 4.47664,-3.98438 1.43476,-1.32235 2.60201,-2.61781 3.12536,-3.84853 0.52342,-1.23064 0.39093,-2.39536 -0.3343,-3.50039 -0.72517,-1.10514 -2.0321,-2.15157 -3.46253,-3.18574 -1.43043,-1.03411 -2.9582,-2.05842 -4.05319,-3.12629 -1.09496,-1.0679 -1.73428,-2.18161 -1.68969,-3.36413"
         style="fill:none;stroke:#000000;stroke-width:1.5;stroke-linecap:round;stroke-linejoin:round;stroke-miterlimit:4;stroke-opacity:1;stroke-dasharray:none;stroke-dashoffset:0"
         inkscape:connector-curvature="0" />
    </g>
    <g
       id="g17038">
      <g
         transform="translate(0,2.3105921)"
         id="g16974">
        <path
           style="fill:none;stroke:#000000;stroke-width:1.52499998;stroke-linecap:round;stroke-linejoin:miter;stroke-miterlimit:4;stroke-opacity:1;stroke-dasharray:none"
           d="m 26.947988,440.05293 c 0,0 -13.84172,6.83958 -24.17907,22.6439 -9.39033,14.35645 -8.79495,35.71205 -1.91898,51.4285 6.23375,14.24852 26.70721,31.1195 26.70721,31.1195 l -0.60916,0.35169"
           id="path16367"
           inkscape:connector-curvature="0"
           sodipodi:nodetypes="csscc" />
        <path
           sodipodi:nodetypes="csscc"
           inkscape:connector-curvature="0"
           id="path16369"
           d="m 27.14927,440.30921 c 0,0 13.939294,6.63848 24.504353,22.29149 9.597165,14.21901 9.311015,35.581 2.663285,51.39534 -6.026835,14.33727 -26.253906,31.50286 -26.253906,31.50286 l 0.614178,0.34284"
           style="fill:none;stroke:#000000;stroke-width:1.52462506;stroke-linecap:round;stroke-linejoin:miter;stroke-miterlimit:4;stroke-opacity:1;stroke-dasharray:none" />
        <path
           id="path16385"
           title="cos(4*t) t"
           d="m 26.565835,440.79038 c 0.01589,1.19741 0.692067,2.42185 1.806269,3.66431 1.114175,1.24252 2.647286,2.50201 4.086095,3.75776 1.43879,1.25572 2.756948,2.50647 3.516347,3.73439 0.759408,1.22787 0.943723,2.43216 0.498885,3.61068 -0.444848,1.17853 -1.513666,2.33149 -2.838362,3.47391 -1.324698,1.14241 -2.882177,2.27533 -4.141803,3.42046 -1.259645,1.14507 -2.196723,2.30343 -2.492293,3.48803 -0.295553,1.18462 0.05925,2.39592 0.946951,3.62909 0.887663,1.23312 2.294915,2.48757 3.750461,3.74401 1.455538,1.25642 2.933438,2.51373 3.941088,3.7518 1.007617,1.23809 1.524655,2.45601 1.38445,3.64698 -0.140175,1.19102 -0.938007,2.35505 -2.116452,3.50351 -1.178454,1.14842 -2.717751,2.28206 -4.092727,3.42242 -1.374966,1.14041 -2.559478,2.28859 -3.150602,3.46111 -0.591076,1.17254 -0.574825,2.36992 0.04554,3.59213 0.620289,1.22215 1.836602,2.46876 3.241338,3.72355 1.404935,1.25434 2.974189,2.51541 4.183669,3.76173 1.209499,1.24636 2.035705,2.47695 2.207439,3.68075 0.171759,1.20381 -0.317073,2.3805 -1.293499,3.53721 -0.976411,1.15673 -2.424823,2.29409 -3.850126,3.43244 -1.425282,1.13831 -2.80117,2.27863 -3.659471,3.44021 -0.858326,1.16152 -1.180665,2.34508 -0.855982,3.55514 0.32464,1.21007 1.293892,2.44652 2.583266,3.69615 1.289343,1.24962 2.877289,2.51144 4.232779,3.76374 1.355479,1.25235 2.45293,2.49409 2.929296,3.71039 0.476372,1.21625 0.320109,2.40661 -0.407903,3.57351 -0.727968,1.16697 -2.01711,2.31078 -3.425375,3.44982 -1.408288,1.13899 -2.910431,2.27415 -3.995131,3.42644 -1.084677,1.15231 -1.729832,2.32258 -1.7153,3.51994"
           style="fill:none;stroke:#000000;stroke-width:1.5;stroke-linecap:round;stroke-linejoin:round;stroke-miterlimit:4;stroke-opacity:1;stroke-dasharray:none;stroke-dashoffset:0"
           inkscape:connector-curvature="0" />
        <path
           transform="matrix(0.02043681,0,0,0.02043681,176.04405,569.45029)"
           sodipodi:type="arc"
           style="fill:#000000;fill-opacity:1;stroke:#000000;stroke-width:15;stroke-linecap:square;stroke-linejoin:miter;stroke-miterlimit:4;stroke-opacity:1;stroke-dasharray:none;stroke-dashoffset:0"
           id="path16899"
           sodipodi:cx="-7240"
           sodipodi:cy="-1170.495"
           sodipodi:rx="74.285713"
           sodipodi:ry="74.285713"
           d="m -7165.7143,-1170.495 c 0,41.0269 -33.2588,74.2857 -74.2857,74.2857 -41.0269,0 -74.2857,-33.2588 -74.2857,-74.2857 0,-41.0269 33.2588,-74.2857 74.2857,-74.2857 41.0269,0 74.2857,33.2588 74.2857,74.2857 z" />
        <path
           d="m -7165.7143,-1170.495 c 0,41.0269 -33.2588,74.2857 -74.2857,74.2857 -41.0269,0 -74.2857,-33.2588 -74.2857,-74.2857 0,-41.0269 33.2588,-74.2857 74.2857,-74.2857 41.0269,0 74.2857,33.2588 74.2857,74.2857 z"
           sodipodi:ry="74.285713"
           sodipodi:rx="74.285713"
           sodipodi:cy="-1170.495"
           sodipodi:cx="-7240"
           id="path16901"
           style="fill:#000000;fill-opacity:1;stroke:#000000;stroke-width:15;stroke-linecap:square;stroke-linejoin:miter;stroke-miterlimit:4;stroke-opacity:1;stroke-dasharray:none;stroke-dashoffset:0"
           sodipodi:type="arc"
           transform="matrix(0.02043681,0,0,0.02043681,175.01726,464.31636)" />
      </g>
      <g
         id="g17013"
         transform="matrix(0.46626244,-5.3251431e-4,8.9713587e-4,0.78552696,-37.520741,44.033507)">
        <path
           inkscape:connector-curvature="0"
           inkscape:original-d="M 59.093924,579.10571 70.205602,567.99404"
           inkscape:path-effect="#path-effect4759"
           id="path17015"
           d="M 59.093924,579.10571 70.205602,567.99404"
           style="fill:none;stroke:#000000;stroke-width:2.5;stroke-linecap:round;stroke-linejoin:miter;stroke-miterlimit:4.5;stroke-opacity:1;stroke-dasharray:none" />
        <path
           style="fill:none;stroke:#000000;stroke-width:2.5;stroke-linecap:round;stroke-linejoin:miter;stroke-miterlimit:4.5;stroke-opacity:1;stroke-dasharray:none"
           d="M 81.447988,578.97944 70.33631,567.86777"
           id="path17017"
           inkscape:path-effect="#path-effect4763"
           inkscape:original-d="M 81.447988,578.97944 70.33631,567.86777"
           inkscape:connector-curvature="0" />
      </g>
      <g
         transform="matrix(0.46496504,0.03476283,0.05856602,-0.7833412,-7.3859969,941.6627)"
         id="g17019">
        <path
           style="fill:none;stroke:#000000;stroke-width:2.5;stroke-linecap:round;stroke-linejoin:miter;stroke-miterlimit:4.5;stroke-opacity:1;stroke-dasharray:none"
           d="M 59.093924,579.10571 70.205602,567.99404"
           id="path17021"
           inkscape:path-effect="#path-effect4759"
           inkscape:original-d="M 59.093924,579.10571 70.205602,567.99404"
           inkscape:connector-curvature="0" />
        <path
           inkscape:connector-curvature="0"
           inkscape:original-d="M 81.447988,578.97944 70.33631,567.86777"
           inkscape:path-effect="#path-effect4763"
           id="path17023"
           d="M 81.447988,578.97944 70.33631,567.86777"
           style="fill:none;stroke:#000000;stroke-width:2.5;stroke-linecap:round;stroke-linejoin:miter;stroke-miterlimit:4.5;stroke-opacity:1;stroke-dasharray:none" />
      </g>
    </g>
    <g
       transform="translate(84,2.3105921)"
       id="g17054">
      <path
         style="fill:none;stroke:#000000;stroke-width:1.52499998;stroke-linecap:round;stroke-linejoin:miter;stroke-miterlimit:4;stroke-opacity:1;stroke-dasharray:none"
         d="m 26.947988,440.05293 c 0,0 -13.84172,6.83958 -24.17907,22.6439 -9.39033,14.35645 -8.79495,35.71205 -1.91898,51.4285 6.23375,14.24852 26.70721,31.1195 26.70721,31.1195 l -0.60916,0.35169"
         id="path17056"
         inkscape:connector-curvature="0"
         sodipodi:nodetypes="csscc" />
      <path
         sodipodi:nodetypes="csscc"
         inkscape:connector-curvature="0"
         id="path17058"
         d="m 27.14927,440.30921 c 0,0 13.939294,6.63848 24.504353,22.29149 9.597165,14.21901 9.311015,35.581 2.663285,51.39534 -6.026835,14.33727 -26.253906,31.50286 -26.253906,31.50286 l 0.614178,0.34284"
         style="fill:none;stroke:#000000;stroke-width:1.52462506;stroke-linecap:round;stroke-linejoin:miter;stroke-miterlimit:4;stroke-opacity:1;stroke-dasharray:none" />
      <path
         id="path17060"
         title="cos(4*t) t"
         d="m 26.565835,440.79038 c 0.01589,1.19741 0.692067,2.42185 1.806269,3.66431 1.114175,1.24252 2.647286,2.50201 4.086095,3.75776 1.43879,1.25572 2.756948,2.50647 3.516347,3.73439 0.759408,1.22787 0.943723,2.43216 0.498885,3.61068 -0.444848,1.17853 -1.513666,2.33149 -2.838362,3.47391 -1.324698,1.14241 -2.882177,2.27533 -4.141803,3.42046 -1.259645,1.14507 -2.196723,2.30343 -2.492293,3.48803 -0.295553,1.18462 0.05925,2.39592 0.946951,3.62909 0.887663,1.23312 2.294915,2.48757 3.750461,3.74401 1.455538,1.25642 2.933438,2.51373 3.941088,3.7518 1.007617,1.23809 1.524655,2.45601 1.38445,3.64698 -0.140175,1.19102 -0.938007,2.35505 -2.116452,3.50351 -1.178454,1.14842 -2.717751,2.28206 -4.092727,3.42242 -1.374966,1.14041 -2.559478,2.28859 -3.150602,3.46111 -0.591076,1.17254 -0.574825,2.36992 0.04554,3.59213 0.620289,1.22215 1.836602,2.46876 3.241338,3.72355 1.404935,1.25434 2.974189,2.51541 4.183669,3.76173 1.209499,1.24636 2.035705,2.47695 2.207439,3.68075 0.171759,1.20381 -0.317073,2.3805 -1.293499,3.53721 -0.976411,1.15673 -2.424823,2.29409 -3.850126,3.43244 -1.425282,1.13831 -2.80117,2.27863 -3.659471,3.44021 -0.858326,1.16152 -1.180665,2.34508 -0.855982,3.55514 0.32464,1.21007 1.293892,2.44652 2.583266,3.69615 1.289343,1.24962 2.877289,2.51144 4.232779,3.76374 1.355479,1.25235 2.45293,2.49409 2.929296,3.71039 0.476372,1.21625 0.320109,2.40661 -0.407903,3.57351 -0.727968,1.16697 -2.01711,2.31078 -3.425375,3.44982 -1.408288,1.13899 -2.910431,2.27415 -3.995131,3.42644 -1.084677,1.15231 -1.729832,2.32258 -1.7153,3.51994"
         style="fill:none;stroke:#000000;stroke-width:1.5;stroke-linecap:round;stroke-linejoin:round;stroke-miterlimit:4;stroke-opacity:1;stroke-dasharray:none;stroke-dashoffset:0"
         inkscape:connector-curvature="0" />
      <path
         transform="matrix(0.02043681,0,0,0.02043681,176.04405,569.45029)"
         sodipodi:type="arc"
         style="fill:#000000;fill-opacity:1;stroke:#000000;stroke-width:15;stroke-linecap:square;stroke-linejoin:miter;stroke-miterlimit:4;stroke-opacity:1;stroke-dasharray:none;stroke-dashoffset:0"
         id="path17062"
         sodipodi:cx="-7240"
         sodipodi:cy="-1170.495"
         sodipodi:rx="74.285713"
         sodipodi:ry="74.285713"
         d="m -7165.7143,-1170.495 c 0,41.0269 -33.2588,74.2857 -74.2857,74.2857 -41.0269,0 -74.2857,-33.2588 -74.2857,-74.2857 0,-41.0269 33.2588,-74.2857 74.2857,-74.2857 41.0269,0 74.2857,33.2588 74.2857,74.2857 z" />
      <path
         d="m -7165.7143,-1170.495 c 0,41.0269 -33.2588,74.2857 -74.2857,74.2857 -41.0269,0 -74.2857,-33.2588 -74.2857,-74.2857 0,-41.0269 33.2588,-74.2857 74.2857,-74.2857 41.0269,0 74.2857,33.2588 74.2857,74.2857 z"
         sodipodi:ry="74.285713"
         sodipodi:rx="74.285713"
         sodipodi:cy="-1170.495"
         sodipodi:cx="-7240"
         id="path17064"
         style="fill:#000000;fill-opacity:1;stroke:#000000;stroke-width:15;stroke-linecap:square;stroke-linejoin:miter;stroke-miterlimit:4;stroke-opacity:1;stroke-dasharray:none;stroke-dashoffset:0"
         sodipodi:type="arc"
         transform="matrix(0.02043681,0,0,0.02043681,175.01726,464.31636)" />
    </g>
    <g
       id="g17066"
       transform="matrix(0.46626244,5.3251431e-4,8.9713587e-4,-0.78552696,46.479259,944.94317)">
      <path
         inkscape:connector-curvature="0"
         inkscape:original-d="M 59.093924,579.10571 70.205602,567.99404"
         inkscape:path-effect="#path-effect4759"
         id="path17068"
         d="M 59.093924,579.10571 70.205602,567.99404"
         style="fill:none;stroke:#000000;stroke-width:2.5;stroke-linecap:round;stroke-linejoin:miter;stroke-miterlimit:4.5;stroke-opacity:1;stroke-dasharray:none" />
      <path
         style="fill:none;stroke:#000000;stroke-width:2.5;stroke-linecap:round;stroke-linejoin:miter;stroke-miterlimit:4.5;stroke-opacity:1;stroke-dasharray:none"
         d="M 81.447988,578.97944 70.33631,567.86777"
         id="path17070"
         inkscape:path-effect="#path-effect4763"
         inkscape:original-d="M 81.447988,578.97944 70.33631,567.86777"
         inkscape:connector-curvature="0" />
    </g>
    <g
       transform="matrix(0.46496504,-0.03476283,0.05856602,0.7833412,76.614003,47.690479)"
       id="g17072">
      <path
         style="fill:none;stroke:#000000;stroke-width:2.5;stroke-linecap:round;stroke-linejoin:miter;stroke-miterlimit:4.5;stroke-opacity:1;stroke-dasharray:none"
         d="M 59.093924,579.10571 70.205602,567.99404"
         id="path17074"
         inkscape:path-effect="#path-effect4759"
         inkscape:original-d="M 59.093924,579.10571 70.205602,567.99404"
         inkscape:connector-curvature="0" />
      <path
         inkscape:connector-curvature="0"
         inkscape:original-d="M 81.447988,578.97944 70.33631,567.86777"
         inkscape:path-effect="#path-effect4763"
         id="path17076"
         d="M 81.447988,578.97944 70.33631,567.86777"
         style="fill:none;stroke:#000000;stroke-width:2.5;stroke-linecap:round;stroke-linejoin:miter;stroke-miterlimit:4.5;stroke-opacity:1;stroke-dasharray:none" />
    </g>
    <g
       id="g17090"
       transform="matrix(0.46496504,-0.03476283,0.05856602,0.7833412,131.25686,49.833336)">
      <path
         inkscape:connector-curvature="0"
         inkscape:original-d="M 59.093924,579.10571 70.205602,567.99404"
         inkscape:path-effect="#path-effect4759"
         id="path17092"
         d="M 59.093924,579.10571 70.205602,567.99404"
         style="fill:none;stroke:#000000;stroke-width:2.5;stroke-linecap:round;stroke-linejoin:miter;stroke-miterlimit:4.5;stroke-opacity:1;stroke-dasharray:none" />
      <path
         style="fill:none;stroke:#000000;stroke-width:2.5;stroke-linecap:round;stroke-linejoin:miter;stroke-miterlimit:4.5;stroke-opacity:1;stroke-dasharray:none"
         d="M 81.447988,578.97944 70.33631,567.86777"
         id="path17094"
         inkscape:path-effect="#path-effect4763"
         inkscape:original-d="M 81.447988,578.97944 70.33631,567.86777"
         inkscape:connector-curvature="0" />
    </g>
    <g
       transform="matrix(-0.40887434,0.22410426,-0.37755546,-0.68884344,490.8692,855.54545)"
       id="g17096">
      <path
         style="fill:none;stroke:#000000;stroke-width:2.5;stroke-linecap:round;stroke-linejoin:miter;stroke-miterlimit:4.5;stroke-opacity:1;stroke-dasharray:none"
         d="M 59.093924,579.10571 70.205602,567.99404"
         id="path17098"
         inkscape:path-effect="#path-effect4759"
         inkscape:original-d="M 59.093924,579.10571 70.205602,567.99404"
         inkscape:connector-curvature="0" />
      <path
         inkscape:connector-curvature="0"
         inkscape:original-d="M 81.447988,578.97944 70.33631,567.86777"
         inkscape:path-effect="#path-effect4763"
         id="path17100"
         d="M 81.447988,578.97944 70.33631,567.86777"
         style="fill:none;stroke:#000000;stroke-width:2.5;stroke-linecap:round;stroke-linejoin:miter;stroke-miterlimit:4.5;stroke-opacity:1;stroke-dasharray:none" />
    </g>
    <g
       id="g17102"
       transform="matrix(0.46229193,-0.06072167,0.10229968,0.77883772,229.08626,48.544739)">
      <path
         inkscape:connector-curvature="0"
         inkscape:original-d="M 59.093924,579.10571 70.205602,567.99404"
         inkscape:path-effect="#path-effect4759"
         id="path17104"
         d="M 59.093924,579.10571 70.205602,567.99404"
         style="fill:none;stroke:#000000;stroke-width:2.5;stroke-linecap:round;stroke-linejoin:miter;stroke-miterlimit:4.5;stroke-opacity:1;stroke-dasharray:none" />
      <path
         style="fill:none;stroke:#000000;stroke-width:2.5;stroke-linecap:round;stroke-linejoin:miter;stroke-miterlimit:4.5;stroke-opacity:1;stroke-dasharray:none"
         d="M 81.447988,578.97944 70.33631,567.86777"
         id="path17106"
         inkscape:path-effect="#path-effect4763"
         inkscape:original-d="M 81.447988,578.97944 70.33631,567.86777"
         inkscape:connector-curvature="0" />
    </g>
    <g
       transform="matrix(-0.42757008,-0.18596983,0.31330925,-0.72034071,99.458603,942.62775)"
       id="g17108">
      <path
         style="fill:none;stroke:#000000;stroke-width:2.5;stroke-linecap:round;stroke-linejoin:miter;stroke-miterlimit:4.5;stroke-opacity:1;stroke-dasharray:none"
         d="M 59.093924,579.10571 70.205602,567.99404"
         id="path17110"
         inkscape:path-effect="#path-effect4759"
         inkscape:original-d="M 59.093924,579.10571 70.205602,567.99404"
         inkscape:connector-curvature="0" />
      <path
         inkscape:connector-curvature="0"
         inkscape:original-d="M 81.447988,578.97944 70.33631,567.86777"
         inkscape:path-effect="#path-effect4763"
         id="path17112"
         d="M 81.447988,578.97944 70.33631,567.86777"
         style="fill:none;stroke:#000000;stroke-width:2.5;stroke-linecap:round;stroke-linejoin:miter;stroke-miterlimit:4.5;stroke-opacity:1;stroke-dasharray:none" />
    </g>
    <g
       transform="matrix(0.46229193,-0.06072167,0.10229968,0.77883772,421.97014,48.671008)"
       id="g17114">
      <path
         style="fill:none;stroke:#000000;stroke-width:2.5;stroke-linecap:round;stroke-linejoin:miter;stroke-miterlimit:4.5;stroke-opacity:1;stroke-dasharray:none"
         d="M 59.093924,579.10571 70.205602,567.99404"
         id="path17116"
         inkscape:path-effect="#path-effect4759"
         inkscape:original-d="M 59.093924,579.10571 70.205602,567.99404"
         inkscape:connector-curvature="0" />
      <path
         inkscape:connector-curvature="0"
         inkscape:original-d="M 81.447988,578.97944 70.33631,567.86777"
         inkscape:path-effect="#path-effect4763"
         id="path17118"
         d="M 81.447988,578.97944 70.33631,567.86777"
         style="fill:none;stroke:#000000;stroke-width:2.5;stroke-linecap:round;stroke-linejoin:miter;stroke-miterlimit:4.5;stroke-opacity:1;stroke-dasharray:none" />
    </g>
    <g
       id="g17120"
       transform="matrix(-0.42757008,-0.18596983,0.31330925,-0.72034071,290.70099,942.50148)">
      <path
         inkscape:connector-curvature="0"
         inkscape:original-d="M 59.093924,579.10571 70.205602,567.99404"
         inkscape:path-effect="#path-effect4759"
         id="path17122"
         d="M 59.093924,579.10571 70.205602,567.99404"
         style="fill:none;stroke:#000000;stroke-width:2.5;stroke-linecap:round;stroke-linejoin:miter;stroke-miterlimit:4.5;stroke-opacity:1;stroke-dasharray:none" />
      <path
         style="fill:none;stroke:#000000;stroke-width:2.5;stroke-linecap:round;stroke-linejoin:miter;stroke-miterlimit:4.5;stroke-opacity:1;stroke-dasharray:none"
         d="M 81.447988,578.97944 70.33631,567.86777"
         id="path17124"
         inkscape:path-effect="#path-effect4763"
         inkscape:original-d="M 81.447988,578.97944 70.33631,567.86777"
         inkscape:connector-curvature="0" />
    </g>
    <g
       id="g17126"
       transform="matrix(-0.40887434,0.22410426,-0.37755546,-0.68884344,685.12174,855.54545)">
      <path
         inkscape:connector-curvature="0"
         inkscape:original-d="M 59.093924,579.10571 70.205602,567.99404"
         inkscape:path-effect="#path-effect4759"
         id="path17128"
         d="M 59.093924,579.10571 70.205602,567.99404"
         style="fill:none;stroke:#000000;stroke-width:2.5;stroke-linecap:round;stroke-linejoin:miter;stroke-miterlimit:4.5;stroke-opacity:1;stroke-dasharray:none" />
      <path
         style="fill:none;stroke:#000000;stroke-width:2.5;stroke-linecap:round;stroke-linejoin:miter;stroke-miterlimit:4.5;stroke-opacity:1;stroke-dasharray:none"
         d="M 81.447988,578.97944 70.33631,567.86777"
         id="path17130"
         inkscape:path-effect="#path-effect4763"
         inkscape:original-d="M 81.447988,578.97944 70.33631,567.86777"
         inkscape:connector-curvature="0" />
    </g>
    <g
       transform="matrix(0.46496504,-0.03476283,0.05856602,0.7833412,324.12044,49.707067)"
       id="g17132">
      <path
         style="fill:none;stroke:#000000;stroke-width:2.5;stroke-linecap:round;stroke-linejoin:miter;stroke-miterlimit:4.5;stroke-opacity:1;stroke-dasharray:none"
         d="M 59.093924,579.10571 70.205602,567.99404"
         id="path17134"
         inkscape:path-effect="#path-effect4759"
         inkscape:original-d="M 59.093924,579.10571 70.205602,567.99404"
         inkscape:connector-curvature="0" />
      <path
         inkscape:connector-curvature="0"
         inkscape:original-d="M 81.447988,578.97944 70.33631,567.86777"
         inkscape:path-effect="#path-effect4763"
         id="path17136"
         d="M 81.447988,578.97944 70.33631,567.86777"
         style="fill:none;stroke:#000000;stroke-width:2.5;stroke-linecap:round;stroke-linejoin:miter;stroke-miterlimit:4.5;stroke-opacity:1;stroke-dasharray:none" />
    </g>
  </g>
</svg>
