<?xml version="1.0" encoding="UTF-8" standalone="no"?>
<svg
   xmlns:dc="http://purl.org/dc/elements/1.1/"
   xmlns:cc="http://creativecommons.org/ns#"
   xmlns:rdf="http://www.w3.org/1999/02/22-rdf-syntax-ns#"
   xmlns:svg="http://www.w3.org/2000/svg"
   xmlns="http://www.w3.org/2000/svg"
   viewBox="0 0 957.59174 623.47058"
   height="623.47058"
   width="957.59174"
   xml:space="preserve"
   id="svg7577"
   version="1.1"><metadata
     id="metadata7583"><rdf:RDF><cc:Work
         rdf:about=""><dc:format>image/svg+xml</dc:format><dc:type
           rdf:resource="http://purl.org/dc/dcmitype/StillImage" /><dc:title></dc:title></cc:Work></rdf:RDF></metadata><defs
     id="defs7581"><clipPath
       id="clipPath7637"
       clipPathUnits="userSpaceOnUse"><path
         id="path7635"
         d="m 52,152 h 61 V 91 H 52 Z" /></clipPath><clipPath
       id="clipPath7643"
       clipPathUnits="userSpaceOnUse"><path
         id="path7641"
         d="m 112.762,121.102 c 0,-16.606 -13.461,-30.063 -30.063,-30.063 -16.601,0 -30.058,13.457 -30.058,30.063 0,16.601 13.457,30.058 30.058,30.058 16.602,0 30.063,-13.457 30.063,-30.058 z" /></clipPath><clipPath
       id="clipPath7653"
       clipPathUnits="userSpaceOnUse"><path
         id="path7651"
         d="M 0,0 H 507 V 470 H 0 Z" /></clipPath><clipPath
       id="clipPath7665"
       clipPathUnits="userSpaceOnUse"><path
         id="path7663"
         d="M 0,0 H 507 V 470 H 0 Z" /></clipPath><clipPath
       id="clipPath7677"
       clipPathUnits="userSpaceOnUse"><path
         id="path7675"
         d="m 38,86 h 80 v 71 H 38 Z" /></clipPath><clipPath
       id="clipPath7735"
       clipPathUnits="userSpaceOnUse"><path
         id="path7733"
         d="m 192,152 h 61 V 91 h -61 z" /></clipPath><clipPath
       id="clipPath7741"
       clipPathUnits="userSpaceOnUse"><path
         id="path7739"
         d="m 252.262,121.102 c 0,-16.606 -13.461,-30.063 -30.063,-30.063 -16.601,0 -30.058,13.457 -30.058,30.063 0,16.601 13.457,30.058 30.058,30.058 16.602,0 30.063,-13.457 30.063,-30.058 z" /></clipPath><clipPath
       id="clipPath7751"
       clipPathUnits="userSpaceOnUse"><path
         id="path7749"
         d="M 0,0 H 507 V 470 H 0 Z" /></clipPath><clipPath
       id="clipPath7763"
       clipPathUnits="userSpaceOnUse"><path
         id="path7761"
         d="M 0,0 H 507 V 470 H 0 Z" /></clipPath><clipPath
       id="clipPath7775"
       clipPathUnits="userSpaceOnUse"><path
         id="path7773"
         d="m 178,86 h 79 v 71 h -79 z" /></clipPath><clipPath
       id="clipPath7851"
       clipPathUnits="userSpaceOnUse"><path
         id="path7849"
         d="M 0,470 V 0 H 507 V 470 Z M 101.48,91.461 98.719,89.18 l 5.82,-7.02 -3.18,6.66 5.942,-4.32 z" /></clipPath><clipPath
       id="clipPath7861"
       clipPathUnits="userSpaceOnUse"><path
         id="path7859"
         d="M 0,0 H 507 V 470 H 0 Z" /></clipPath><clipPath
       id="clipPath7873"
       clipPathUnits="userSpaceOnUse"><path
         id="path7871"
         d="M 0,0 H 507 V 470 H 0 Z" /></clipPath><clipPath
       id="clipPath7885"
       clipPathUnits="userSpaceOnUse"><path
         id="path7883"
         d="m 100,62 h 24 v 28 h -24 z" /></clipPath><clipPath
       id="clipPath7901"
       clipPathUnits="userSpaceOnUse"><path
         id="path7899"
         d="M 0,470 V 0 h 507 v 470 z m 206,-381.18 -2.34,2.762 -6.898,-5.941 6.66,3.3 -4.32,-6 z" /></clipPath><clipPath
       id="clipPath7911"
       clipPathUnits="userSpaceOnUse"><path
         id="path7909"
         d="M 0,0 H 507 V 470 H 0 Z" /></clipPath><clipPath
       id="clipPath7923"
       clipPathUnits="userSpaceOnUse"><path
         id="path7921"
         d="M 0,0 H 507 V 470 H 0 Z" /></clipPath><clipPath
       id="clipPath7935"
       clipPathUnits="userSpaceOnUse"><path
         id="path7933"
         d="m 172,62 h 33 v 28 h -33 z" /></clipPath><clipPath
       id="clipPath7951"
       clipPathUnits="userSpaceOnUse"><path
         id="path7949"
         d="M 0,470 V 0 H 507 V 470 Z M 26.898,428 H 21.5 v -12.719 l 2.699,10.797 2.699,-10.797 z" /></clipPath><clipPath
       id="clipPath7961"
       clipPathUnits="userSpaceOnUse"><path
         id="path7959"
         d="M 0,0 H 507 V 470 H 0 Z" /></clipPath><clipPath
       id="clipPath7973"
       clipPathUnits="userSpaceOnUse"><path
         id="path7971"
         d="M 0,0 H 507 V 470 H 0 Z" /></clipPath><clipPath
       id="clipPath7985"
       clipPathUnits="userSpaceOnUse"><path
         id="path7983"
         d="m 23,229 h 2 v 199 h -2 z" /></clipPath></defs><g
     transform="matrix(1.3333333,0,0,-1.3333333,-1.1369799,624.8729)"
     id="g7585"><g
       id="g7587"><path
         id="path7589"
         style="fill:none;stroke:#000000;stroke-width:0.44999999;stroke-linecap:butt;stroke-linejoin:miter;stroke-miterlimit:10;stroke-dasharray:none;stroke-opacity:1"
         d="m 64.699,373.102 18,-18" /><path
         id="path7591"
         style="fill:none;stroke:#000000;stroke-width:0.44999999;stroke-linecap:butt;stroke-linejoin:miter;stroke-miterlimit:10;stroke-dasharray:none;stroke-opacity:1"
         d="m 64.699,355.102 18,18" /><path
         id="path7593"
         style="fill:none;stroke:#000000;stroke-width:0.44999999;stroke-linecap:butt;stroke-linejoin:miter;stroke-miterlimit:10;stroke-dasharray:none;stroke-opacity:1"
         d="m 186.199,427.102 18,-18" /><path
         id="path7595"
         style="fill:none;stroke:#000000;stroke-width:0.44999999;stroke-linecap:butt;stroke-linejoin:miter;stroke-miterlimit:10;stroke-dasharray:none;stroke-opacity:1"
         d="m 186.199,409.102 18,18" /><path
         id="path7597"
         style="fill:none;stroke:#000000;stroke-width:0.44999999;stroke-linecap:butt;stroke-linejoin:miter;stroke-miterlimit:10;stroke-dasharray:none;stroke-opacity:1"
         d="m 217.699,427.102 18,-18" /><path
         id="path7599"
         style="fill:none;stroke:#000000;stroke-width:0.44999999;stroke-linecap:butt;stroke-linejoin:miter;stroke-miterlimit:10;stroke-dasharray:none;stroke-opacity:1"
         d="m 217.699,409.102 18,18" /><text
         id="text7607"
         style="font-variant:normal;font-weight:normal;font-size:21.60000038px;font-family:'Liberation Sans';-inkscape-font-specification:LiberationSans;writing-mode:lr-tb;fill:#000000;fill-opacity:1;fill-rule:nonzero;stroke:none"
         transform="matrix(1,0,0,-1,400.76001,327.14001)"><tspan
           id="tspan7601"
           y="0"
           x="0">~</tspan><tspan
           id="tspan7603"
           y="5.4000216"
           x="0">~</tspan><tspan
           id="tspan7605"
           y="2.7"
           x="18.9 18.8568 30.8664 36.849602 48.8592 54.8424 75.1464 85.924797"> 1.5 MeV</tspan></text>
<path
         id="path7609"
         style="fill:none;stroke:#000000;stroke-width:0.44999999;stroke-linecap:butt;stroke-linejoin:miter;stroke-miterlimit:10;stroke-dasharray:none;stroke-opacity:1"
         d="m 78.98,176.84 9.059,-9.059" /><path
         id="path7611"
         style="fill:none;stroke:#000000;stroke-width:0.44999999;stroke-linecap:butt;stroke-linejoin:miter;stroke-miterlimit:10;stroke-dasharray:none;stroke-opacity:1"
         d="m 78.98,167.781 9.059,9.059" /><path
         id="path7613"
         style="fill:none;stroke:#000000;stroke-width:0.44999999;stroke-linecap:butt;stroke-linejoin:miter;stroke-miterlimit:10;stroke-dasharray:none;stroke-opacity:1"
         d="m 225.141,176.84 9.058,-9.059" /><path
         id="path7615"
         style="fill:none;stroke:#000000;stroke-width:0.44999999;stroke-linecap:butt;stroke-linejoin:miter;stroke-miterlimit:10;stroke-dasharray:none;stroke-opacity:1"
         d="m 225.141,167.781 9.058,9.059" /><path
         id="path7617"
         style="fill:none;stroke:#000000;stroke-width:0.44999999;stroke-linecap:butt;stroke-linejoin:miter;stroke-miterlimit:10;stroke-dasharray:none;stroke-opacity:1"
         d="m 208.52,176.422 9.058,-9.063" /><path
         id="path7619"
         style="fill:none;stroke:#000000;stroke-width:0.44999999;stroke-linecap:butt;stroke-linejoin:miter;stroke-miterlimit:10;stroke-dasharray:none;stroke-opacity:1"
         d="m 208.52,167.359 9.058,9.063" /><text
         id="text7625"
         style="font-variant:normal;font-weight:normal;font-size:14.39999962px;font-family:'Liberation Sans';-inkscape-font-specification:LiberationSans;writing-mode:lr-tb;fill:#000000;fill-opacity:1;fill-rule:nonzero;stroke:none"
         transform="matrix(1,0,0,-1,128.06,51.7402)"><tspan
           id="tspan7621"
           y="0"
           x="0 6.3936 10.9296 18.129601 24.796801 31.996799">closed</tspan><tspan
           id="tspan7623"
           y="17.1"
           x="0 3.9888 10.6272 19.4256 26.625601 31.1616"> shell</tspan></text>
<path
         id="path7627"
         style="fill:none;stroke:#000000;stroke-width:0.44999999;stroke-linecap:butt;stroke-linejoin:miter;stroke-miterlimit:10;stroke-dasharray:none;stroke-opacity:1"
         d="m 57.027,156.57 c 5.262,9.453 15.231,15.313 26.051,15.313 10.242,0 19.77,-5.258 25.227,-13.926" /><path
         id="path7629"
         style="fill:none;stroke:#000000;stroke-width:0.44999999;stroke-linecap:butt;stroke-linejoin:miter;stroke-miterlimit:10;stroke-dasharray:none;stroke-opacity:1"
         d="m 195.566,158.012 c 5.262,9.453 15.235,15.312 26.051,15.312 10.242,0 19.77,-5.258 25.231,-13.926" /></g><g
       id="g7631"><g
         clip-path="url(#clipPath7637)"
         id="g7633"><g
           clip-path="url(#clipPath7643)"
           id="g7639"><g
             id="g7645"><g
               id="g7647"><g
                 clip-path="url(#clipPath7653)"
                 id="g7649"><g
                   id="g7655"><g
                     id="g7657"><g
                       id="g7659"><g
                         clip-path="url(#clipPath7665)"
                         id="g7661"><g
                           id="g7667"><g
                             id="g7669"><g
                               id="g7671"><g
                                 clip-path="url(#clipPath7677)"
                                 id="g7673"><g
                                   id="g7679"><text
                                   id="text7701"
                                   style="font-variant:normal;font-weight:normal;font-size:14.39999962px;font-family:'Liberation Sans';-inkscape-font-specification:LiberationSans;writing-mode:lr-tb;fill:#ffffff;fill-opacity:1;fill-rule:nonzero;stroke:none"
                                   transform="matrix(1,0,0,-0.5,38.2398,86.3602)"><tspan
                                   id="tspan7681"
                                   y="0"
                                   x="0 14.4 28.799999 43.200001 57.556801 71.956802">000000</tspan><tspan
                                   id="tspan7683"
                                   y="-14.4"
                                   x="0 14.4 28.799999 43.200001 57.556801 71.956802">000000</tspan><tspan
                                   id="tspan7685"
                                   y="-28.799999"
                                   x="0 14.4 28.799999 43.200001 57.556801 71.956802">000000</tspan><tspan
                                   id="tspan7687"
                                   y="-43.200001"
                                   x="0 14.4 28.799999 43.200001 57.556801 71.956802">000000</tspan><tspan
                                   id="tspan7689"
                                   y="-57.599998"
                                   x="0 14.4 28.799999 43.200001 57.556801 71.956802">000000</tspan><tspan
                                   id="tspan7691"
                                   y="-72"
                                   x="0 14.4 28.799999 43.200001 57.556801 71.956802">000000</tspan><tspan
                                   id="tspan7693"
                                   y="-86.400002"
                                   x="0 14.4 28.799999 43.200001 57.556801 71.956802">000000</tspan><tspan
                                   id="tspan7695"
                                   y="-100.8"
                                   x="0 14.4 28.799999 43.200001 57.556801 71.956802">000000</tspan><tspan
                                   id="tspan7697"
                                   y="-115.2"
                                   x="0 14.4 28.799999 43.200001 57.556801 71.956802">000000</tspan><tspan
                                   id="tspan7699"
                                   y="-129.60001"
                                   x="0 14.4 28.799999 43.200001 57.556801 71.956802">000000</tspan></text>
<text
                                   id="text7723"
                                   style="font-variant:normal;font-weight:normal;font-size:14.39999962px;font-family:'Liberation Sans';-inkscape-font-specification:LiberationSans;writing-mode:lr-tb;fill:#000000;fill-opacity:1;fill-rule:nonzero;stroke:none"
                                   transform="matrix(1,0,0,-0.5,38.2398,86.3602)"><tspan
                                   id="tspan7703"
                                   y="0"
                                   x="0 14.4 28.799999 43.200001 57.556801 71.956802">111111</tspan><tspan
                                   id="tspan7705"
                                   y="-14.4"
                                   x="0 14.4 28.799999 43.200001 57.556801 71.956802">111111</tspan><tspan
                                   id="tspan7707"
                                   y="-28.799999"
                                   x="0 14.4 28.799999 43.200001 57.556801 71.956802">111111</tspan><tspan
                                   id="tspan7709"
                                   y="-43.200001"
                                   x="0 14.4 28.799999 43.200001 57.556801 71.956802">111111</tspan><tspan
                                   id="tspan7711"
                                   y="-57.599998"
                                   x="0 14.4 28.799999 43.200001 57.556801 71.956802">111111</tspan><tspan
                                   id="tspan7713"
                                   y="-72"
                                   x="0 14.4 28.799999 43.200001 57.556801 71.956802">111111</tspan><tspan
                                   id="tspan7715"
                                   y="-86.400002"
                                   x="0 14.4 28.799999 43.200001 57.556801 71.956802">111111</tspan><tspan
                                   id="tspan7717"
                                   y="-100.8"
                                   x="0 14.4 28.799999 43.200001 57.556801 71.956802">111111</tspan><tspan
                                   id="tspan7719"
                                   y="-115.2"
                                   x="0 14.4 28.799999 43.200001 57.556801 71.956802">111111</tspan><tspan
                                   id="tspan7721"
                                   y="-129.60001"
                                   x="0 14.4 28.799999 43.200001 57.556801 71.956802">111111</tspan></text>
</g></g></g></g></g></g></g></g></g></g></g></g></g></g></g><g
       id="g7725"><path
         id="path7727"
         style="fill:none;stroke:#000000;stroke-width:0.44999999;stroke-linecap:butt;stroke-linejoin:miter;stroke-miterlimit:10;stroke-dasharray:none;stroke-opacity:1"
         d="m 112.762,121.102 c 0,-16.606 -13.461,-30.063 -30.063,-30.063 -16.601,0 -30.058,13.457 -30.058,30.063 0,16.601 13.457,30.058 30.058,30.058 16.602,0 30.063,-13.457 30.063,-30.058 z" /></g><g
       id="g7729"><g
         clip-path="url(#clipPath7735)"
         id="g7731"><g
           clip-path="url(#clipPath7741)"
           id="g7737"><g
             id="g7743"><g
               id="g7745"><g
                 clip-path="url(#clipPath7751)"
                 id="g7747"><g
                   id="g7753"><g
                     id="g7755"><g
                       id="g7757"><g
                         clip-path="url(#clipPath7763)"
                         id="g7759"><g
                           id="g7765"><g
                             id="g7767"><g
                               id="g7769"><g
                                 clip-path="url(#clipPath7775)"
                                 id="g7771"><g
                                   id="g7777"><text
                                   id="text7799"
                                   style="font-variant:normal;font-weight:normal;font-size:14.39999962px;font-family:'Liberation Sans';-inkscape-font-specification:LiberationSans;writing-mode:lr-tb;fill:#ffffff;fill-opacity:1;fill-rule:nonzero;stroke:none"
                                   transform="matrix(1,0,0,-0.5,177.74,86.3602)"><tspan
                                   id="tspan7779"
                                   y="0"
                                   x="0 14.4 28.799999 43.200001 57.556801 71.956802">000000</tspan><tspan
                                   id="tspan7781"
                                   y="-14.4"
                                   x="0 14.4 28.799999 43.200001 57.556801 71.956802">000000</tspan><tspan
                                   id="tspan7783"
                                   y="-28.799999"
                                   x="0 14.4 28.799999 43.200001 57.556801 71.956802">000000</tspan><tspan
                                   id="tspan7785"
                                   y="-43.200001"
                                   x="0 14.4 28.799999 43.200001 57.556801 71.956802">000000</tspan><tspan
                                   id="tspan7787"
                                   y="-57.599998"
                                   x="0 14.4 28.799999 43.200001 57.556801 71.956802">000000</tspan><tspan
                                   id="tspan7789"
                                   y="-72"
                                   x="0 14.4 28.799999 43.200001 57.556801 71.956802">000000</tspan><tspan
                                   id="tspan7791"
                                   y="-86.400002"
                                   x="0 14.4 28.799999 43.200001 57.556801 71.956802">000000</tspan><tspan
                                   id="tspan7793"
                                   y="-100.8"
                                   x="0 14.4 28.799999 43.200001 57.556801 71.956802">000000</tspan><tspan
                                   id="tspan7795"
                                   y="-115.2"
                                   x="0 14.4 28.799999 43.200001 57.556801 71.956802">000000</tspan><tspan
                                   id="tspan7797"
                                   y="-129.60001"
                                   x="0 14.4 28.799999 43.200001 57.556801 71.956802">000000</tspan></text>
<text
                                   id="text7821"
                                   style="font-variant:normal;font-weight:normal;font-size:14.39999962px;font-family:'Liberation Sans';-inkscape-font-specification:LiberationSans;writing-mode:lr-tb;fill:#000000;fill-opacity:1;fill-rule:nonzero;stroke:none"
                                   transform="matrix(1,0,0,-0.5,177.74,86.3602)"><tspan
                                   id="tspan7801"
                                   y="0"
                                   x="0 14.4 28.799999 43.200001 57.556801 71.956802">111111</tspan><tspan
                                   id="tspan7803"
                                   y="-14.4"
                                   x="0 14.4 28.799999 43.200001 57.556801 71.956802">111111</tspan><tspan
                                   id="tspan7805"
                                   y="-28.799999"
                                   x="0 14.4 28.799999 43.200001 57.556801 71.956802">111111</tspan><tspan
                                   id="tspan7807"
                                   y="-43.200001"
                                   x="0 14.4 28.799999 43.200001 57.556801 71.956802">111111</tspan><tspan
                                   id="tspan7809"
                                   y="-57.599998"
                                   x="0 14.4 28.799999 43.200001 57.556801 71.956802">111111</tspan><tspan
                                   id="tspan7811"
                                   y="-72"
                                   x="0 14.4 28.799999 43.200001 57.556801 71.956802">111111</tspan><tspan
                                   id="tspan7813"
                                   y="-86.400002"
                                   x="0 14.4 28.799999 43.200001 57.556801 71.956802">111111</tspan><tspan
                                   id="tspan7815"
                                   y="-100.8"
                                   x="0 14.4 28.799999 43.200001 57.556801 71.956802">111111</tspan><tspan
                                   id="tspan7817"
                                   y="-115.2"
                                   x="0 14.4 28.799999 43.200001 57.556801 71.956802">111111</tspan><tspan
                                   id="tspan7819"
                                   y="-129.60001"
                                   x="0 14.4 28.799999 43.200001 57.556801 71.956802">111111</tspan></text>
</g></g></g></g></g></g></g></g></g></g></g></g></g></g></g><g
       id="g7823"><path
         id="path7825"
         style="fill:none;stroke:#000000;stroke-width:0.44999999;stroke-linecap:butt;stroke-linejoin:miter;stroke-miterlimit:10;stroke-dasharray:none;stroke-opacity:1"
         d="m 252.262,121.102 c 0,-16.606 -13.461,-30.063 -30.063,-30.063 -16.601,0 -30.058,13.457 -30.058,30.063 0,16.601 13.457,30.058 30.058,30.058 16.602,0 30.063,-13.457 30.063,-30.058 z" /><path
         id="path7827"
         style="fill:none;stroke:#000000;stroke-width:0.44999999;stroke-linecap:butt;stroke-linejoin:miter;stroke-miterlimit:10;stroke-dasharray:none;stroke-opacity:1"
         d="m 366.199,229.102 v 198" /><path
         id="path7829"
         style="fill:none;stroke:#000000;stroke-width:0.44999999;stroke-linecap:butt;stroke-linejoin:miter;stroke-miterlimit:10;stroke-dasharray:none;stroke-opacity:1"
         d="m 361.699,413.602 9,9" /><path
         id="path7831"
         style="fill:none;stroke:#000000;stroke-width:0.44999999;stroke-linecap:butt;stroke-linejoin:miter;stroke-miterlimit:10;stroke-dasharray:none;stroke-opacity:1"
         d="m 361.699,233.602 9,9" /><path
         id="path7833"
         style="fill:none;stroke:#000000;stroke-width:0.44999999;stroke-linecap:butt;stroke-linejoin:miter;stroke-miterlimit:10;stroke-dasharray:none;stroke-opacity:1"
         d="m 348.199,418.102 h 36" /><path
         id="path7835"
         style="fill:none;stroke:#000000;stroke-width:1.79999995;stroke-linecap:butt;stroke-linejoin:miter;stroke-miterlimit:10;stroke-dasharray:none;stroke-opacity:1"
         d="m 384.199,238.102 h -72" /><path
         id="path7837"
         style="fill:none;stroke:#000000;stroke-width:1.79999995;stroke-linecap:butt;stroke-linejoin:miter;stroke-miterlimit:10;stroke-dasharray:none;stroke-opacity:1"
         d="m 258.199,418.102 h -85.5" /><path
         id="path7839"
         style="fill:none;stroke:#000000;stroke-width:1.79999995;stroke-linecap:butt;stroke-linejoin:miter;stroke-miterlimit:10;stroke-dasharray:none;stroke-opacity:1"
         d="m 109.699,364.102 h -67.5" /><path
         id="path7841"
         style="fill:none;stroke:#000000;stroke-width:0.44999999;stroke-linecap:butt;stroke-linejoin:miter;stroke-miterlimit:10;stroke-dasharray:3.6, 3.6;stroke-dashoffset:0;stroke-opacity:1"
         d="m 312.199,238.102 -54,180" /><path
         id="path7843"
         style="fill:none;stroke:#000000;stroke-width:0.44999999;stroke-linecap:butt;stroke-linejoin:miter;stroke-miterlimit:10;stroke-dasharray:3.6, 3.6;stroke-dashoffset:0;stroke-opacity:1"
         d="m 172.699,418.102 -63,-54" /></g><g
       id="g7845"><g
         clip-path="url(#clipPath7851)"
         id="g7847"><g
           id="g7853"><g
             id="g7855"><g
               clip-path="url(#clipPath7861)"
               id="g7857"><g
                 id="g7863"><g
                   id="g7865"><g
                     id="g7867"><g
                       clip-path="url(#clipPath7873)"
                       id="g7869"><g
                         id="g7875"><g
                           id="g7877"><g
                             id="g7879"><g
                               clip-path="url(#clipPath7885)"
                               id="g7881"><g
                                 id="g7887"><path
                                   id="path7889"
                                   style="fill:none;stroke:#000000;stroke-width:0.44999999;stroke-linecap:butt;stroke-linejoin:miter;stroke-miterlimit:10;stroke-dasharray:none;stroke-opacity:1"
                                   d="m 123.199,62.602 -22.5,27" /></g></g></g></g></g></g></g></g></g></g></g></g></g></g><g
       id="g7891"><path
         id="path7893"
         style="fill:none;stroke:#000000;stroke-width:0.44999999;stroke-linecap:butt;stroke-linejoin:miter;stroke-miterlimit:10;stroke-dasharray:none;stroke-opacity:1"
         d="m 107.301,84.5 -5.942,4.32 3.18,-6.66" /></g><g
       id="g7895"><g
         clip-path="url(#clipPath7901)"
         id="g7897"><g
           id="g7903"><g
             id="g7905"><g
               clip-path="url(#clipPath7911)"
               id="g7907"><g
                 id="g7913"><g
                   id="g7915"><g
                     id="g7917"><g
                       clip-path="url(#clipPath7923)"
                       id="g7919"><g
                         id="g7925"><g
                           id="g7927"><g
                             id="g7929"><g
                               clip-path="url(#clipPath7935)"
                               id="g7931"><g
                                 id="g7937"><path
                                   id="path7939"
                                   style="fill:none;stroke:#000000;stroke-width:0.44999999;stroke-linecap:butt;stroke-linejoin:miter;stroke-miterlimit:10;stroke-dasharray:none;stroke-opacity:1"
                                   d="m 172.699,62.602 31.5,27" /></g></g></g></g></g></g></g></g></g></g></g></g></g></g><g
       id="g7941"><path
         id="path7943"
         style="fill:none;stroke:#000000;stroke-width:0.44999999;stroke-linecap:butt;stroke-linejoin:miter;stroke-miterlimit:10;stroke-dasharray:none;stroke-opacity:1"
         d="m 199.102,82.941 4.32,6 -6.66,-3.3" /></g><g
       id="g7945"><g
         clip-path="url(#clipPath7951)"
         id="g7947"><g
           id="g7953"><g
             id="g7955"><g
               clip-path="url(#clipPath7961)"
               id="g7957"><g
                 id="g7963"><g
                   id="g7965"><g
                     id="g7967"><g
                       clip-path="url(#clipPath7973)"
                       id="g7969"><g
                         id="g7975"><g
                           id="g7977"><g
                             id="g7979"><g
                               clip-path="url(#clipPath7985)"
                               id="g7981"><g
                                 id="g7987"><path
                                   id="path7989"
                                   style="fill:none;stroke:#000000;stroke-width:0.44999999;stroke-linecap:butt;stroke-linejoin:miter;stroke-miterlimit:10;stroke-dasharray:none;stroke-opacity:1"
                                   d="m 24.199,229.102 v 198" /></g></g></g></g></g></g></g></g></g></g></g></g></g></g><g
       id="g7991"><path
         id="path7993"
         style="fill:none;stroke:#000000;stroke-width:0.44999999;stroke-linecap:butt;stroke-linejoin:miter;stroke-miterlimit:10;stroke-dasharray:none;stroke-opacity:1"
         d="M 26.898,415.281 24.199,426.078 21.5,415.281" /><path
         id="path7995"
         style="fill:none;stroke:#000000;stroke-width:0.44999999;stroke-linecap:butt;stroke-linejoin:miter;stroke-miterlimit:10;stroke-dasharray:none;stroke-opacity:1"
         d="m 19.699,238.102 h 9" /><text
         id="text7999"
         style="font-variant:normal;font-weight:normal;font-size:14.39999962px;font-family:'Liberation Sans';-inkscape-font-specification:LiberationSans;writing-mode:lr-tb;fill:#000000;fill-opacity:1;fill-rule:nonzero;stroke:none"
         transform="matrix(1,0,0,-1,202.4,458.6)"><tspan
           id="tspan7997"
           y="0"
           x="0">2</tspan></text>
<text
         id="text8003"
         style="font-variant:normal;font-weight:normal;font-size:21.60000038px;font-family:'Liberation Sans';-inkscape-font-specification:LiberationSans;writing-mode:lr-tb;fill:#000000;fill-opacity:1;fill-rule:nonzero;stroke:none"
         transform="matrix(1,0,0,-1,335.96,204.74)"><tspan
           id="tspan8001"
           y="0"
           x="0 10.8 22.3992">exp</tspan></text>
<text
         id="text8009"
         style="font-variant:normal;font-weight:normal;font-size:14.39999962px;font-family:'Liberation Sans';-inkscape-font-specification:LiberationSans;writing-mode:lr-tb;fill:#000000;fill-opacity:1;fill-rule:nonzero;stroke:none"
         transform="matrix(1,0,0,-1,411.56,249.74)"><tspan
           id="tspan8005"
           y="0"
           x="0">+</tspan><tspan
           id="tspan8007"
           y="245.7"
           x="-361.79999 -357.26401 -348.46561 -340.20001 -333.04321 -324.77759 -317.57761 -308.77921 -300.51361 -293.3136 -284.55841 -278.95679 -274.96799 -266.7312 -258.72479 -252.3744 -246.7728 -242.28 -235.8864 -231.3504 -224.15041 -220.16161 -207.38879 -200.1888 -191.9232 -184.72321">independent particle model</tspan></text>
<text
         id="text8021"
         style="font-variant:normal;font-weight:normal;font-size:21.60000038px;font-family:'Liberation Sans';-inkscape-font-specification:LiberationSans;writing-mode:lr-tb;fill:#000000;fill-opacity:1;fill-rule:nonzero;stroke:none"
         transform="matrix(1,0,0,-1,69.1998,382.1)"><tspan
           id="tspan8011"
           y="0"
           x="0">j</tspan><tspan
           id="tspan8013"
           y="-67.5"
           x="125.99999 132.39359 138.37679 145.5696 157.57919">j (0)</tspan><tspan
           id="tspan8015"
           y="144.96001"
           x="330.66 342.66959 348.6528 355.84558 367.40158 377.4024">0 (gs)</tspan><tspan
           id="tspan8017"
           y="234.06"
           x="184.79999">j</tspan><tspan
           id="tspan8019"
           y="233.69984"
           x="47.579983">j</tspan></text>
<text
         id="text8025"
         style="font-variant:normal;font-weight:normal;font-size:19.79999924px;font-family:'Liberation Sans';-inkscape-font-specification:LiberationSans;writing-mode:lr-tb;fill:#000000;fill-opacity:1;fill-rule:nonzero;stroke:none"
         transform="matrix(0,1,1,0,15.2,283.1)"><tspan
           id="tspan8023"
           y="0"
           x="0 14.236199 19.720798 26.314199 44.965797 54.865799 69.101997">E (MeV)</tspan></text>
<g
         transform="matrix(1,0,0,-0.93865,0,470)"
         id="g8027"><path
           id="path8029"
           style="fill:#929292;fill-opacity:1;fill-rule:nonzero;stroke:#000000;stroke-width:0.82573003;stroke-linecap:butt;stroke-linejoin:miter;stroke-miterlimit:4;stroke-dasharray:none;stroke-opacity:1"
           d="m 254.621,371.698 c 0,17.812 -14.441,32.252 -32.254,32.252 -17.816,0 -32.258,-14.44 -32.258,-32.252 0,-17.815 14.442,-32.256 32.258,-32.256 17.813,0 32.254,14.441 32.254,32.256 z" /></g><g
         transform="matrix(1,0,0,-0.93865,0,470)"
         id="g8031"><path
           id="path8033"
           style="fill:#929292;fill-opacity:1;fill-rule:nonzero;stroke:#000000;stroke-width:0.82573003;stroke-linecap:butt;stroke-linejoin:miter;stroke-miterlimit:4;stroke-dasharray:none;stroke-opacity:1"
           d="m 117.02,371.698 c 0,17.812 -14.442,32.252 -32.254,32.252 -17.813,0 -32.254,-14.44 -32.254,-32.252 0,-17.815 14.441,-32.256 32.254,-32.256 17.812,0 32.254,14.441 32.254,32.256 z" /></g><path
         id="path8035"
         style="fill:none;stroke:#000000;stroke-width:1.70948899;stroke-linecap:butt;stroke-linejoin:miter;stroke-miterlimit:4;stroke-dasharray:none;stroke-opacity:1"
         d="m 413.738,331.59 h 8.59" /></g><g
       id="g7468"
       transform="matrix(4.1813334,0,0,-4.1813334,-77.159291,920.55056)"><g
         transform="matrix(0.17384008,0,0,0.17384008,79.069727,177.48159)"
         id="g5013"><path
           id="path5015"
           style="fill:none;stroke:#000000;stroke-width:2.4000001;stroke-linecap:butt;stroke-linejoin:miter;stroke-miterlimit:4;stroke-dasharray:none;stroke-opacity:1"
           d="m 303.434,124.434 c 0,32.355 -25.457,58.586 -25.457,58.586 0,0 -25.454,-26.231 -25.454,-58.586 0,-32.36 25.454,-58.59 25.454,-58.59 0,0 25.457,26.23 25.457,58.59 z" /></g><g
         transform="matrix(0.17384008,0,0,0.17384008,79.069727,177.48159)"
         id="g5017"><path
           id="path5019"
           style="fill:none;stroke:#000000;stroke-width:3.30631208;stroke-linecap:butt;stroke-linejoin:miter;stroke-miterlimit:4;stroke-dasharray:none;stroke-opacity:1"
           d="m 201.434,191.082 14.464,-14.465" /></g><g
         transform="matrix(0.17384008,0,0,0.17384008,79.069727,177.48159)"
         id="g5021"><path
           id="path5023"
           style="fill:none;stroke:#000000;stroke-width:3.30631208;stroke-linecap:butt;stroke-linejoin:miter;stroke-miterlimit:4;stroke-dasharray:none;stroke-opacity:1"
           d="M 215.898,191.082 201.434,176.617" /></g><g
         transform="matrix(0.17384008,0,0,0.17384008,79.069727,177.48159)"
         id="g5025"><path
           id="path5027"
           style="fill:none;stroke:#000000;stroke-width:2.17224312;stroke-linecap:butt;stroke-linejoin:miter;stroke-miterlimit:4;stroke-dasharray:6.516729, 6.516729;stroke-dashoffset:0;stroke-opacity:1"
           d="M 207.941,183.656 H 278.07" /></g><g
         transform="matrix(0.17384008,0,0,0.17384008,79.069727,177.48159)"
         id="g5033"><path
           id="path5035"
           style="fill:none;stroke:#000000;stroke-width:1.60000002;stroke-linecap:round;stroke-linejoin:miter;stroke-miterlimit:4;stroke-dasharray:none;stroke-opacity:1"
           d="m 241.039,134.918 11.832,-20.496" /></g><g
         transform="matrix(0.17384008,0,0,0.17384008,79.069727,177.48159)"
         id="g5037"><path
           id="path5039"
           style="fill:none;stroke:#000000;stroke-width:1.60000002;stroke-linecap:round;stroke-linejoin:miter;stroke-miterlimit:4;stroke-dasharray:none;stroke-opacity:1"
           d="M 264.688,134.969 252.855,114.473" /></g><g
         transform="matrix(0.17384008,0,0,-0.17384008,79.069727,177.48159)"
         id="g5041"><path
           id="path5043"
           style="fill:none;stroke:#000000;stroke-width:1.60000002;stroke-linecap:round;stroke-linejoin:miter;stroke-miterlimit:4;stroke-dasharray:none;stroke-opacity:1"
           d="m 291.039,-111.902 11.832,-20.496" /></g><g
         transform="matrix(0.17384008,0,0,-0.17384008,79.069727,177.48159)"
         id="g5045"><path
           id="path5047"
           style="fill:none;stroke:#000000;stroke-width:1.60000002;stroke-linecap:round;stroke-linejoin:miter;stroke-miterlimit:4;stroke-dasharray:none;stroke-opacity:1"
           d="m 314.688,-111.852 -11.833,-20.496" /></g><text
         id="text5051"
         style="font-variant:normal;font-weight:normal;font-size:14.25061417px;font-family:Arial;-inkscape-font-specification:ArialMT;writing-mode:lr-tb;fill:#000000;fill-opacity:1;fill-rule:nonzero;stroke:none;stroke-width:0.17384008"
         x="106.01305"
         y="204.84692"><tspan
           id="tspan5049"
           y="204.84692"
           x="106.01305"
           style="stroke-width:0.17384008">=</tspan></text>
<text
         id="text5059"
         style="font-variant:normal;font-weight:normal;font-size:13.65126228px;font-family:Arial;-inkscape-font-specification:ArialMT;writing-mode:lr-tb;fill:#000000;fill-opacity:1;fill-rule:nonzero;stroke:none;stroke-width:0.17384008"
         x="137.68169"
         y="204.62186"><tspan
           id="tspan5057"
           y="204.62186"
           x="137.68169"
           style="stroke-width:0.17384008">+</tspan></text>
<g
         transform="matrix(0.17384008,0,0,0.17384008,89.239372,177.48159)"
         id="g5065"><path
           id="path5067"
           style="fill:none;stroke:#000000;stroke-width:2.17224312;stroke-linecap:butt;stroke-linejoin:miter;stroke-miterlimit:4;stroke-dasharray:6.516729, 6.516729;stroke-dashoffset:0;stroke-opacity:1"
           d="M 9.539,146.434 H 79.668" /></g><g
         transform="matrix(0.17384008,0,0,0.17384008,89.239372,177.48159)"
         id="g5069"><path
           id="path5071"
           style="fill:none;stroke:#000000;stroke-width:3.30631208;stroke-linecap:butt;stroke-linejoin:miter;stroke-miterlimit:4;stroke-dasharray:none;stroke-opacity:1"
           d="M 1.652,153.613 16.117,139.148" /></g><g
         transform="matrix(0.17384008,0,0,0.17384008,89.239372,177.48159)"
         id="g5073"><path
           id="path5075"
           style="fill:none;stroke:#000000;stroke-width:3.30631208;stroke-linecap:butt;stroke-linejoin:miter;stroke-miterlimit:4;stroke-dasharray:none;stroke-opacity:1"
           d="M 16.117,153.613 1.652,139.148" /></g><g
         transform="matrix(0.17384008,0,0,0.17384008,79.069727,177.48159)"
         id="g5091"><path
           id="path5093"
           style="fill:none;stroke:#000000;stroke-width:2.4000001;stroke-linecap:butt;stroke-linejoin:miter;stroke-miterlimit:4;stroke-dasharray:none;stroke-opacity:1"
           d="m 511,159.953 c -28.543,-15.242 -39.691,-50.055 -39.691,-50.055 0,0 35.129,-10.097 63.671,5.145 28.543,15.242 39.692,50.055 39.692,50.055 0,0 -35.129,10.097 -63.672,-5.145 z" /></g><g
         transform="matrix(0.17384008,0,0,0.17384008,79.069727,177.48159)"
         id="g5099"><path
           id="path5101"
           style="fill:none;stroke:#000000;stroke-width:2.17224312;stroke-linecap:butt;stroke-linejoin:miter;stroke-miterlimit:4;stroke-dasharray:6.516729, 6.516729;stroke-dashoffset:0;stroke-opacity:1"
           d="m 401.57,109.949 h 70.129" /></g><g
         transform="matrix(0.17384008,0,0,0.17384008,79.069727,177.48159)"
         id="g5103"><path
           id="path5105"
           style="fill:none;stroke:#000000;stroke-width:3.30631208;stroke-linecap:butt;stroke-linejoin:miter;stroke-miterlimit:4;stroke-dasharray:none;stroke-opacity:1"
           d="m 392.902,117.352 14.465,-14.465" /></g><g
         transform="matrix(0.17384008,0,0,0.17384008,79.069727,177.48159)"
         id="g5107"><path
           id="path5109"
           style="fill:none;stroke:#000000;stroke-width:3.30631208;stroke-linecap:butt;stroke-linejoin:miter;stroke-miterlimit:4;stroke-dasharray:none;stroke-opacity:1"
           d="M 407.367,117.352 392.902,102.887" /></g><g
         transform="matrix(0.13597754,-0.17384008,0.17384008,0.13597754,79.069727,177.48159)"
         id="g5111"><path
           id="path5113"
           style="fill:none;stroke:#000000;stroke-width:1.26025903;stroke-linecap:round;stroke-linejoin:miter;stroke-miterlimit:4;stroke-dasharray:none;stroke-opacity:1"
           d="m 139.195,394.516 9.318,-16.144" /></g><g
         transform="matrix(0.13597754,-0.17384008,0.17384008,0.13597754,79.069727,177.48159)"
         id="g5115"><path
           id="path5117"
           style="fill:none;stroke:#000000;stroke-width:1.26025903;stroke-linecap:round;stroke-linejoin:miter;stroke-miterlimit:4;stroke-dasharray:none;stroke-opacity:1"
           d="m 157.823,394.555 -9.319,-16.144" /></g><g
         transform="matrix(-0.1572726,0.17384008,-0.17384008,-0.1572726,79.069727,177.48159)"
         id="g5119"><path
           id="path5121"
           style="fill:none;stroke:#000000;stroke-width:1.18649495;stroke-linecap:round;stroke-linejoin:miter;stroke-miterlimit:4;stroke-dasharray:none;stroke-opacity:1"
           d="m -212.812,-345.63 8.774,-15.199" /></g><g
         transform="matrix(-0.1572726,0.17384008,-0.17384008,-0.1572726,79.069727,177.48159)"
         id="g5123"><path
           id="path5125"
           style="fill:none;stroke:#000000;stroke-width:1.18649495;stroke-linecap:round;stroke-linejoin:miter;stroke-miterlimit:4;stroke-dasharray:none;stroke-opacity:1"
           d="m -195.275,-345.593 -8.774,-15.199" /></g><rect
         style="opacity:1;fill:none;fill-opacity:1;stroke:#000000;stroke-width:0.11264782;stroke-linecap:round;stroke-miterlimit:4;stroke-dasharray:none;stroke-dashoffset:0;stroke-opacity:1"
         id="rect6182"
         width="107.07084"
         height="39.41745"
         x="83.291962"
         y="174.48175" /><g
         id="g7285"
         transform="matrix(1,0,0,0.67559524,-19.76757,92.555283)"><path
           style="fill:none;fill-rule:evenodd;stroke:#000000;stroke-width:0.26458332px;stroke-linecap:butt;stroke-linejoin:miter;stroke-opacity:1"
           d="m 120.5744,131.63541 v 31.75"
           id="path7281" /><path
           id="path7283"
           d="m 122.69108,131.63541 v 31.75"
           style="fill:none;fill-rule:evenodd;stroke:#000000;stroke-width:0.26458332px;stroke-linecap:butt;stroke-linejoin:miter;stroke-opacity:1" /></g><g
         transform="translate(-19.692386,46.431449)"
         id="g7295"><g
           id="g7289"
           transform="matrix(0.17384008,0,0,0.17384008,77.599745,122.5577)"><path
             d="m 241.039,134.918 11.832,-20.496"
             style="fill:none;stroke:#000000;stroke-width:1.60000002;stroke-linecap:round;stroke-linejoin:miter;stroke-miterlimit:4;stroke-dasharray:none;stroke-opacity:1"
             id="path7287" /></g><g
           id="g7293"
           transform="matrix(0.17384008,0,0,0.17384008,77.599745,122.5577)"><path
             d="M 264.688,134.969 252.855,114.473"
             style="fill:none;stroke:#000000;stroke-width:1.60000002;stroke-linecap:round;stroke-linejoin:miter;stroke-miterlimit:4;stroke-dasharray:none;stroke-opacity:1"
             id="path7291" /></g></g><g
         id="g7387"
         transform="translate(0.23386084,0.07516955)"><g
           id="g7301"
           transform="matrix(1,0,0,0.41071429,5.5284528,121.96574)"><path
             style="fill:none;fill-rule:evenodd;stroke:#000000;stroke-width:0.26458332px;stroke-linecap:butt;stroke-linejoin:miter;stroke-opacity:1"
             d="m 120.5744,131.63541 v 31.75"
             id="path7297" /><path
             id="path7299"
             d="m 122.69108,131.63541 v 31.75"
             style="fill:none;fill-rule:evenodd;stroke:#000000;stroke-width:0.26458332px;stroke-linecap:butt;stroke-linejoin:miter;stroke-opacity:1" /></g><g
           transform="translate(5.6036367,37.782568)"
           id="g7311"><g
             id="g7305"
             transform="matrix(0.17384008,0,0,0.17384008,77.599745,122.5577)"><path
               d="m 241.039,134.918 11.832,-20.496"
               style="fill:none;stroke:#000000;stroke-width:1.60000002;stroke-linecap:round;stroke-linejoin:miter;stroke-miterlimit:4;stroke-dasharray:none;stroke-opacity:1"
               id="path7303" /></g><g
             id="g7309"
             transform="matrix(0.17384008,0,0,0.17384008,77.599745,122.5577)"><path
               d="M 264.688,134.969 252.855,114.473"
               style="fill:none;stroke:#000000;stroke-width:1.60000002;stroke-linecap:round;stroke-linejoin:miter;stroke-miterlimit:4;stroke-dasharray:none;stroke-opacity:1"
               id="path7307" /></g></g></g><g
         id="g7377"
         transform="translate(-1.737252,5.462321)"><g
           transform="matrix(1,0,0,0.41071429,59.201072,133.02154)"
           id="g7323"><path
             id="path7319"
             d="m 120.5744,131.63541 v 31.75"
             style="fill:none;fill-rule:evenodd;stroke:#000000;stroke-width:0.26458332px;stroke-linecap:butt;stroke-linejoin:miter;stroke-opacity:1" /><path
             style="fill:none;fill-rule:evenodd;stroke:#000000;stroke-width:0.26458332px;stroke-linecap:butt;stroke-linejoin:miter;stroke-opacity:1"
             d="m 122.69108,131.63541 v 31.75"
             id="path7321" /></g><g
           id="g7333"
           transform="translate(59.276256,48.838372)"><g
             transform="matrix(0.17384008,0,0,0.17384008,77.599745,122.5577)"
             id="g7327"><path
               id="path7325"
               style="fill:none;stroke:#000000;stroke-width:1.60000002;stroke-linecap:round;stroke-linejoin:miter;stroke-miterlimit:4;stroke-dasharray:none;stroke-opacity:1"
               d="m 241.039,134.918 11.832,-20.496" /></g><g
             transform="matrix(0.17384008,0,0,0.17384008,77.599745,122.5577)"
             id="g7331"><path
               id="path7329"
               style="fill:none;stroke:#000000;stroke-width:1.60000002;stroke-linecap:round;stroke-linejoin:miter;stroke-miterlimit:4;stroke-dasharray:none;stroke-opacity:1"
               d="M 264.688,134.969 252.855,114.473" /></g></g></g><g
         id="g7357"
         transform="translate(-5.5637342,0.01132003)"><g
           style="fill:#ffffff;fill-opacity:1"
           transform="matrix(-0.27289317,0.23027054,-0.23027054,-0.27289317,-24.108448,144.5835)"
           id="g7337"><path
             id="path7335"
             style="fill:#ffffff;fill-opacity:1;stroke:#040404;stroke-width:1.116202;stroke-linecap:round;stroke-linejoin:round;stroke-miterlimit:4;stroke-dasharray:none;stroke-opacity:0.99215698"
             d="m -251.81,-379.414 c 0,1.906 -1.549,3.455 -3.455,3.455 -1.909,-10e-4 -3.456,-1.548 -3.456,-3.455 10e-4,-1.909 1.546,-3.457 3.455,-3.455 1.907,-10e-4 3.457,1.546 3.456,3.455 z" /></g><g
           style="fill:#000000;fill-opacity:1"
           id="g7341"
           transform="matrix(-0.08116449,0.06848757,-0.06848757,-0.08116449,86.216136,176.03055)"><path
             d="m -251.81,-379.414 c 0,1.906 -1.549,3.455 -3.455,3.455 -1.909,-10e-4 -3.456,-1.548 -3.456,-3.455 10e-4,-1.909 1.546,-3.457 3.455,-3.455 1.907,-10e-4 3.457,1.546 3.456,3.455 z"
             style="fill:#000000;fill-opacity:1;stroke:#040404;stroke-width:1.116202;stroke-linecap:round;stroke-linejoin:round;stroke-miterlimit:4;stroke-dasharray:none;stroke-opacity:0.99215698"
             id="path7339" /></g></g><g
         transform="translate(46.095209,16.708907)"
         id="g7367"><g
           id="g7361"
           transform="matrix(-0.27289317,0.23027054,-0.23027054,-0.27289317,-24.108448,144.5835)"
           style="fill:#ffffff;fill-opacity:1"><path
             d="m -251.81,-379.414 c 0,1.906 -1.549,3.455 -3.455,3.455 -1.909,-10e-4 -3.456,-1.548 -3.456,-3.455 10e-4,-1.909 1.546,-3.457 3.455,-3.455 1.907,-10e-4 3.457,1.546 3.456,3.455 z"
             style="fill:#ffffff;fill-opacity:1;stroke:#040404;stroke-width:1.116202;stroke-linecap:round;stroke-linejoin:round;stroke-miterlimit:4;stroke-dasharray:none;stroke-opacity:0.99215698"
             id="path7359" /></g><g
           transform="matrix(-0.08116449,0.06848757,-0.06848757,-0.08116449,86.216136,176.03055)"
           id="g7365"
           style="fill:#000000;fill-opacity:1"><path
             id="path7363"
             style="fill:#000000;fill-opacity:1;stroke:#040404;stroke-width:1.116202;stroke-linecap:round;stroke-linejoin:round;stroke-miterlimit:4;stroke-dasharray:none;stroke-opacity:0.99215698"
             d="m -251.81,-379.414 c 0,1.906 -1.549,3.455 -3.455,3.455 -1.909,-10e-4 -3.456,-1.548 -3.456,-3.455 10e-4,-1.909 1.546,-3.457 3.455,-3.455 1.907,-10e-4 3.457,1.546 3.456,3.455 z" /></g></g></g></g></svg>