<?xml version="1.0" encoding="UTF-8" standalone="no"?>
<svg
   xmlns:ns1="http://www.iki.fi/pav/software/textext/"
   xmlns:dc="http://purl.org/dc/elements/1.1/"
   xmlns:cc="http://creativecommons.org/ns#"
   xmlns:rdf="http://www.w3.org/1999/02/22-rdf-syntax-ns#"
   xmlns:svg="http://www.w3.org/2000/svg"
   xmlns="http://www.w3.org/2000/svg"
   xmlns:sodipodi="http://sodipodi.sourceforge.net/DTD/sodipodi-0.dtd"
   xmlns:inkscape="http://www.inkscape.org/namespaces/inkscape"
   version="1.1"
   id="svg851"
   xml:space="preserve"
   width="718.66669"
   height="308"
   viewBox="0 0 718.66669 308"
   sodipodi:docname="figintroD6.svg"
   inkscape:version="1.0 (1.0+r73+1)"><metadata
     id="metadata857"><rdf:RDF><cc:Work
         rdf:about=""><dc:format>image/svg+xml</dc:format><dc:type
           rdf:resource="http://purl.org/dc/dcmitype/StillImage" /><dc:title /></cc:Work></rdf:RDF></metadata><defs
     id="defs855"><clipPath
       id="clipPath1035"
       clipPathUnits="userSpaceOnUse"><path
         id="path1033"
         d="M 0,231 V 0 H 539 V 231 Z M 131.398,84.398 V 88 h -9.117 l 7.199,-1.801 -7.199,-1.801 z" /></clipPath><clipPath
       id="clipPath1043"
       clipPathUnits="userSpaceOnUse"><path
         id="path1041"
         d="M 0,0 H 539 V 231 H 0 Z" /></clipPath><clipPath
       id="clipPath1067"
       clipPathUnits="userSpaceOnUse"><path
         id="path1065"
         d="M 0,231 V 0 h 539 v 231 z m 132,-51.621 -1.379,3.359 -8.402,-3.359 7.383,0.961 -6.063,-4.32 z" /></clipPath><clipPath
       id="clipPath1075"
       clipPathUnits="userSpaceOnUse"><path
         id="path1073"
         d="M 0,0 H 539 V 231 H 0 Z" /></clipPath><clipPath
       id="clipPath1099"
       clipPathUnits="userSpaceOnUse"><path
         id="path1097"
         d="M 0,231 V 0 h 539 v 231 z m 130.801,-97.281 1.019,3.48 -8.699,2.641 6.418,-3.84 -7.437,0.359 z" /></clipPath><clipPath
       id="clipPath1107"
       clipPathUnits="userSpaceOnUse"><path
         id="path1105"
         d="M 0,0 H 539 V 231 H 0 Z" /></clipPath></defs><sodipodi:namedview
     inkscape:document-rotation="0"
     inkscape:current-layer="g859"
     inkscape:window-maximized="1"
     inkscape:window-y="0"
     inkscape:window-x="1366"
     inkscape:cy="233.04344"
     inkscape:cx="421.04603"
     inkscape:zoom="1.0950835"
     inkscape:snap-global="false"
     showgrid="false"
     id="namedview853"
     inkscape:window-height="1043"
     inkscape:window-width="1920"
     inkscape:pageshadow="2"
     inkscape:pageopacity="0"
     guidetolerance="10"
     gridtolerance="10"
     objecttolerance="10"
     borderopacity="1"
     bordercolor="#666666"
     pagecolor="#ffffff" /><g
     transform="matrix(1.3333333,0,0,-1.3333333,0,308)"
     inkscape:label="figintroD6"
     inkscape:groupmode="layer"
     id="g859"><g
       id="g875"
       transform="translate(0,231)"><path
         d="m 490.441,-152.84 v 2.758 l 0.118,1.082 0.179,1.02 0.364,1.019 0.539,0.84 0.839,0.723 0.961,0.359 h 0.957 l 0.723,-0.301 0.598,-0.48 0.48,-0.598 0.481,-0.543 0.539,-0.48 0.722,-0.297 h 0.957 l 0.961,0.359 0.782,0.719 0.48,0.781 0.059,0.777 -0.121,0.782 -0.239,0.718 -0.242,0.661 -0.117,0.781 0.117,0.781 0.481,0.84 0.781,0.66 1.019,0.359 0.903,-0.062 0.777,-0.297 0.539,-0.48 0.481,-0.539 0.48,-0.543 0.602,-0.477 0.781,-0.363 h 0.898 l 1.02,0.363 0.84,0.719 0.422,0.781 0.117,0.836 -0.117,0.723 -0.18,0.718 -0.242,0.723 -0.121,0.719 0.121,0.84 0.422,0.777 0.839,0.723 1.02,0.359 0.898,-0.059 0.782,-0.3 0.539,-0.481 0.48,-0.601 0.481,-0.539 0.597,-0.481 0.723,-0.301 0.898,-0.058 1.02,0.359 0.781,0.723 0.481,0.777 0.121,0.84 -0.121,0.723 -0.243,0.718 -0.238,0.719 -0.121,0.723 0.063,0.84 0.476,0.777 0.781,0.723 0.961,0.359 0.961,-0.063 0.719,-0.296 0.539,-0.481 0.481,-0.601 0.48,-0.54 0.602,-0.48 0.718,-0.301 0.899,-0.058 1.019,0.359 0.84,0.719 0.543,0.902 0.359,0.957 0.239,1.082 0.121,1.078 v 2.821"
         style="fill:none;stroke:#000000;stroke-width:0.45;stroke-linecap:butt;stroke-linejoin:bevel;stroke-miterlimit:10;stroke-dasharray:none;stroke-opacity:1"
         id="path877" /></g><g
       id="g879"
       transform="translate(0,231)"><path
         d="m 490.441,-95.84 v 2.762 l 0.118,1.078 0.179,1.02 0.364,1.019 0.539,0.84 0.839,0.723 0.961,0.359 h 0.957 l 0.723,-0.301 0.598,-0.48 0.48,-0.602 0.481,-0.539 0.539,-0.48 0.722,-0.297 h 0.957 l 0.961,0.359 0.782,0.719 0.48,0.781 0.059,0.777 -0.121,0.782 -0.239,0.718 -0.242,0.661 -0.117,0.781 0.117,0.781 0.481,0.84 0.781,0.66 1.019,0.359 0.903,-0.058 0.777,-0.301 0.539,-0.48 0.481,-0.539 0.48,-0.543 0.602,-0.481 0.781,-0.359 h 0.898 l 1.02,0.359 0.84,0.723 0.422,0.777 0.117,0.844 -0.117,0.719 -0.18,0.718 -0.242,0.719 -0.121,0.723 0.121,0.84 0.422,0.781 0.839,0.719 1.02,0.359 0.898,-0.059 0.782,-0.3 0.539,-0.481 0.48,-0.601 0.481,-0.539 0.597,-0.481 0.723,-0.301 0.898,-0.058 1.02,0.359 0.781,0.723 0.481,0.777 0.121,0.84 -0.121,0.723 -0.243,0.718 -0.238,0.719 -0.121,0.723 0.063,0.84 0.476,0.777 0.781,0.723 0.961,0.359 0.961,-0.063 0.719,-0.296 0.539,-0.481 0.481,-0.601 0.48,-0.54 0.602,-0.48 0.718,-0.301 0.899,-0.058 1.019,0.359 0.84,0.719 0.543,0.902 0.359,0.957 0.239,1.082 0.121,1.078 v 2.821"
         style="fill:none;stroke:#000000;stroke-width:0.45;stroke-linecap:butt;stroke-linejoin:bevel;stroke-miterlimit:10;stroke-dasharray:none;stroke-opacity:1"
         id="path881" /></g><g
       id="g883"
       transform="translate(0,231)"><path
         d="m 490.441,-85.941 v 2.761 l 0.118,1.078 0.179,1.024 0.364,1.019 0.539,0.84 0.839,0.719 0.961,0.359 h 0.957 l 0.723,-0.3 0.598,-0.481 0.48,-0.598 0.481,-0.539 0.539,-0.48 0.722,-0.301 h 0.957 l 0.961,0.36 0.782,0.718 0.48,0.782 0.059,0.781 -0.121,0.777 -0.239,0.723 -0.242,0.66 -0.117,0.777 0.117,0.782 0.481,0.839 0.781,0.661 1.019,0.359 0.903,-0.059 0.777,-0.3 0.539,-0.481 0.961,-1.078 0.602,-0.481 0.781,-0.359 h 0.898 l 1.02,0.359 0.84,0.719 0.422,0.781 0.117,0.84 -0.117,0.719 -0.18,0.723 -0.242,0.718 -0.121,0.719 0.121,0.84 0.422,0.781 0.839,0.719 1.02,0.359 0.898,-0.058 0.782,-0.301 0.539,-0.48 0.48,-0.598 0.481,-0.539 0.597,-0.481 0.723,-0.3 0.898,-0.063 1.02,0.363 0.781,0.719 0.481,0.781 0.121,0.84 -0.121,0.719 -0.243,0.719 -0.238,0.722 -0.121,0.719 0.063,0.84 0.476,0.781 0.781,0.719 0.961,0.359 0.961,-0.058 0.719,-0.301 0.539,-0.48 0.481,-0.598 0.48,-0.543 0.602,-0.481 0.718,-0.296 0.899,-0.063 1.019,0.359 0.84,0.723 0.543,0.899 0.359,0.96 0.239,1.079 0.121,1.082 v 2.82"
         style="fill:none;stroke:#000000;stroke-width:0.45;stroke-linecap:butt;stroke-linejoin:bevel;stroke-miterlimit:10;stroke-dasharray:none;stroke-opacity:1"
         id="path885" /></g><g
       id="g887"
       transform="translate(0,231)"><path
         d="m 490.738,-48.141 v 2.762 l 0.121,1.078 0.18,1.02 0.359,1.019 0.543,0.84 0.84,0.723 0.957,0.359 h 0.961 l 0.723,-0.301 0.598,-0.48 0.48,-0.598 0.48,-0.543 0.54,-0.476 0.718,-0.301 h 0.961 l 0.961,0.359 0.781,0.719 0.481,0.781 0.058,0.782 -0.121,0.777 -0.238,0.723 -0.242,0.66 -0.117,0.777 0.117,0.781 0.48,0.84 0.782,0.66 1.019,0.36 0.899,-0.059 0.781,-0.301 0.539,-0.48 0.961,-1.078 0.601,-0.481 0.778,-0.359 h 0.902 l 1.02,0.359 0.839,0.719 0.418,0.781 0.122,0.84 -0.122,0.719 -0.179,0.719 -0.239,0.722 -0.121,0.719 0.121,0.84 0.418,0.781 0.84,0.719 1.024,0.359 0.898,-0.058 0.781,-0.301 0.539,-0.481 0.481,-0.597 0.48,-0.543 0.598,-0.481 0.723,-0.297 0.898,-0.062 1.02,0.359 0.781,0.723 0.48,0.777 0.118,0.84 -0.118,0.723 -0.242,0.719 -0.238,0.718 -0.121,0.723 0.058,0.84 0.481,0.777 0.781,0.723 0.961,0.359 0.957,-0.058 0.723,-0.301 0.539,-0.481 0.48,-0.601 0.481,-0.539 0.597,-0.481 0.723,-0.301 0.899,-0.058 1.019,0.359 0.84,0.723 0.543,0.898 0.359,0.961 0.239,1.078 0.121,1.082 v 2.821"
         style="fill:none;stroke:#000000;stroke-width:0.45;stroke-linecap:butt;stroke-linejoin:bevel;stroke-miterlimit:10;stroke-dasharray:none;stroke-opacity:1"
         id="path889" /></g><g
       id="g891"
       transform="translate(0,231)"><path
         d="m 490.441,-39.141 v 2.762 l 0.118,1.078 0.179,1.02 0.364,1.019 0.539,0.84 0.839,0.723 0.961,0.359 h 0.957 l 0.723,-0.301 0.598,-0.48 0.48,-0.598 0.481,-0.543 0.539,-0.476 0.722,-0.301 h 0.957 l 0.961,0.359 0.782,0.719 0.48,0.781 0.059,0.782 -0.121,0.777 -0.239,0.723 -0.242,0.66 -0.117,0.777 0.117,0.781 0.481,0.84 0.781,0.66 1.019,0.36 0.903,-0.059 0.777,-0.301 0.539,-0.48 0.961,-1.078 0.602,-0.481 0.781,-0.359 h 0.898 l 1.02,0.359 0.84,0.719 0.422,0.781 0.117,0.84 -0.117,0.719 -0.18,0.719 -0.242,0.722 -0.121,0.719 0.121,0.84 0.422,0.781 0.839,0.719 1.02,0.359 0.898,-0.058 0.782,-0.301 0.539,-0.481 0.48,-0.597 0.481,-0.543 0.597,-0.481 0.723,-0.297 0.898,-0.062 1.02,0.359 0.781,0.723 0.481,0.777 0.121,0.84 -0.121,0.723 -0.243,0.719 -0.238,0.718 -0.121,0.723 0.063,0.84 0.476,0.777 0.781,0.723 0.961,0.359 0.961,-0.058 0.719,-0.301 0.539,-0.481 0.481,-0.601 0.48,-0.539 0.602,-0.481 0.718,-0.301 0.899,-0.058 1.019,0.359 0.84,0.723 0.543,0.898 0.359,0.961 0.239,1.078 0.121,1.082 v 2.821"
         style="fill:none;stroke:#000000;stroke-width:0.45;stroke-linecap:butt;stroke-linejoin:bevel;stroke-miterlimit:10;stroke-dasharray:none;stroke-opacity:1"
         id="path893" /></g><g
       id="g895"
       transform="translate(0,231)"><path
         d="m 490.441,-30.141 v 2.762 l 0.118,1.078 0.179,1.02 0.364,1.019 0.539,0.84 0.839,0.723 0.961,0.359 h 0.957 l 0.723,-0.301 0.598,-0.48 0.48,-0.598 0.481,-0.543 0.539,-0.476 0.722,-0.301 h 0.957 l 0.961,0.359 0.782,0.719 0.48,0.781 0.059,0.782 -0.121,0.777 -0.239,0.723 -0.242,0.66 -0.117,0.777 0.117,0.781 0.481,0.84 0.781,0.66 1.019,0.36 0.903,-0.059 0.777,-0.301 0.539,-0.48 0.961,-1.078 0.602,-0.481 0.781,-0.359 h 0.898 l 1.02,0.359 0.84,0.719 0.422,0.781 0.117,0.84 -0.117,0.719 -0.18,0.719 -0.242,0.722 -0.121,0.719 0.121,0.84 0.422,0.781 0.839,0.719 1.02,0.359 0.898,-0.058 0.782,-0.301 0.539,-0.481 0.48,-0.597 0.481,-0.543 0.597,-0.481 0.723,-0.297 0.898,-0.062 1.02,0.359 0.781,0.723 0.481,0.777 0.121,0.84 -0.121,0.723 -0.243,0.719 -0.238,0.718 -0.121,0.723 0.063,0.84 0.476,0.777 0.781,0.723 0.961,0.359 0.961,-0.058 0.719,-0.301 0.539,-0.481 0.481,-0.601 0.48,-0.539 0.602,-0.481 0.718,-0.301 0.899,-0.058 1.019,0.359 0.84,0.723 0.543,0.898 0.359,0.961 0.239,1.078 0.121,1.082 v 2.821"
         style="fill:none;stroke:#000000;stroke-width:0.45;stroke-linecap:butt;stroke-linejoin:bevel;stroke-miterlimit:10;stroke-dasharray:none;stroke-opacity:1"
         id="path897" /></g><g
       id="g899"
       transform="translate(0,231)"><path
         d="m 490.441,-75.141 v 2.762 l 0.118,1.078 0.179,1.02 0.364,1.019 0.539,0.84 0.839,0.723 0.961,0.359 h 0.957 l 0.723,-0.301 0.598,-0.48 0.48,-0.598 0.481,-0.543 0.539,-0.476 0.722,-0.301 h 0.957 l 0.961,0.359 0.782,0.719 0.48,0.781 0.059,0.782 -0.121,0.777 -0.239,0.723 -0.242,0.66 -0.117,0.777 0.117,0.781 0.481,0.84 0.781,0.66 1.019,0.36 0.903,-0.059 0.777,-0.301 0.539,-0.48 0.961,-1.078 0.602,-0.481 0.781,-0.359 h 0.898 l 1.02,0.359 0.84,0.719 0.422,0.781 0.117,0.84 -0.117,0.719 -0.18,0.719 -0.242,0.722 -0.121,0.719 0.121,0.84 0.422,0.781 0.839,0.719 1.02,0.359 0.898,-0.058 0.782,-0.301 0.539,-0.481 0.48,-0.597 0.481,-0.543 0.597,-0.481 0.723,-0.297 0.898,-0.062 1.02,0.359 0.781,0.723 0.481,0.777 0.121,0.84 -0.121,0.723 -0.243,0.719 -0.238,0.718 -0.121,0.723 0.063,0.84 0.476,0.777 0.781,0.723 0.961,0.359 0.961,-0.058 0.719,-0.301 0.539,-0.481 0.481,-0.601 0.48,-0.539 0.602,-0.481 0.718,-0.301 0.899,-0.058 1.019,0.359 0.84,0.723 0.543,0.898 0.359,0.961 0.239,1.078 0.121,1.082 v 2.821"
         style="fill:none;stroke:#000000;stroke-width:0.45;stroke-linecap:butt;stroke-linejoin:bevel;stroke-miterlimit:10;stroke-dasharray:none;stroke-opacity:1"
         id="path901" /></g><path
       d="m 415.078,59.199 c 0,-5.566 -4.512,-10.078 -10.078,-10.078 -5.566,0 -10.078,4.512 -10.078,10.078 0,5.567 4.512,10.082 10.078,10.082 5.566,0 10.078,-4.515 10.078,-10.082"
       style="fill:#000000;fill-opacity:1;fill-rule:evenodd;stroke:none"
       id="path903" /><g
       id="g905"
       transform="translate(0,231)"><path
         d="m 415.078,-171.801 c 0,-5.566 -4.512,-10.078 -10.078,-10.078 -5.566,0 -10.078,4.512 -10.078,10.078 0,5.567 4.512,10.082 10.078,10.082 5.566,0 10.078,-4.515 10.078,-10.082 z"
         style="fill:none;stroke:#000000;stroke-width:0.45;stroke-linecap:butt;stroke-linejoin:bevel;stroke-miterlimit:10;stroke-dasharray:none;stroke-opacity:1"
         id="path907" /></g><g
       id="g909"
       transform="translate(0,231)"><path
         d="m 135,-144.801 h 90 -4.5"
         style="fill:none;stroke:#000000;stroke-width:2.7;stroke-linecap:butt;stroke-linejoin:miter;stroke-miterlimit:10;stroke-dasharray:none;stroke-opacity:1"
         id="path911" /></g><g
       id="g913"
       transform="translate(0,231)"><path
         d="m 261,-144.801 h 90"
         style="fill:none;stroke:#000000;stroke-width:2.7;stroke-linecap:butt;stroke-linejoin:miter;stroke-miterlimit:10;stroke-dasharray:none;stroke-opacity:1"
         id="path915" /></g><g
       id="g917"
       transform="translate(0,231)"><path
         d="m 135,-95.301 h 31.5"
         style="fill:none;stroke:#000000;stroke-width:1.8;stroke-linecap:butt;stroke-linejoin:miter;stroke-miterlimit:10;stroke-dasharray:none;stroke-opacity:1"
         id="path919" /></g><g
       id="g921"
       transform="translate(0,231)"><path
         d="m 184.5,-95.301 h 36"
         style="fill:none;stroke:#000000;stroke-width:1.8;stroke-linecap:butt;stroke-linejoin:miter;stroke-miterlimit:10;stroke-dasharray:none;stroke-opacity:1"
         id="path923" /></g><g
       id="g925"
       transform="translate(0,231)"><path
         d="M 184.5,-95.301 H 234"
         style="fill:none;stroke:#000000;stroke-width:1.8;stroke-linecap:butt;stroke-linejoin:miter;stroke-miterlimit:10;stroke-dasharray:none;stroke-opacity:1"
         id="path927" /></g><g
       id="g929"
       transform="translate(0,231)"><path
         d="m 252,-95.301 h 49.5"
         style="fill:none;stroke:#000000;stroke-width:1.8;stroke-linecap:butt;stroke-linejoin:miter;stroke-miterlimit:10;stroke-dasharray:none;stroke-opacity:1"
         id="path931" /></g><g
       id="g933"
       transform="translate(0,231)"><path
         d="M 319.5,-95.301 H 369"
         style="fill:none;stroke:#000000;stroke-width:1.8;stroke-linecap:butt;stroke-linejoin:miter;stroke-miterlimit:10;stroke-dasharray:none;stroke-opacity:1"
         id="path935" /></g><g
       id="g937"
       transform="translate(0,231)"><path
         d="m 135,-50.301 h 13.5"
         style="fill:none;stroke:#000000;stroke-width:0.9;stroke-linecap:butt;stroke-linejoin:miter;stroke-miterlimit:10;stroke-dasharray:none;stroke-opacity:1"
         id="path939" /></g><g
       id="g941"
       transform="translate(0,231)"><path
         d="m 162,-50.301 h 13.5"
         style="fill:none;stroke:#000000;stroke-width:0.9;stroke-linecap:butt;stroke-linejoin:miter;stroke-miterlimit:10;stroke-dasharray:none;stroke-opacity:1"
         id="path943" /></g><g
       id="g945"
       transform="translate(0,231)"><path
         d="m 189,-50.301 h 18"
         style="fill:none;stroke:#000000;stroke-width:0.9;stroke-linecap:butt;stroke-linejoin:miter;stroke-miterlimit:10;stroke-dasharray:none;stroke-opacity:1"
         id="path947" /></g><g
       id="g949"
       transform="translate(0,231)"><path
         d="m 220.5,-50.301 h 18"
         style="fill:none;stroke:#000000;stroke-width:0.9;stroke-linecap:butt;stroke-linejoin:miter;stroke-miterlimit:10;stroke-dasharray:none;stroke-opacity:1"
         id="path951" /></g><g
       id="g953"
       transform="translate(0,231)"><path
         d="m 252,-50.301 h 9"
         style="fill:none;stroke:#000000;stroke-width:0.9;stroke-linecap:butt;stroke-linejoin:miter;stroke-miterlimit:10;stroke-dasharray:none;stroke-opacity:1"
         id="path955" /></g><g
       id="g957"
       transform="translate(0,231)"><path
         d="m 274.5,-50.301 h 18"
         style="fill:none;stroke:#000000;stroke-width:0.9;stroke-linecap:butt;stroke-linejoin:miter;stroke-miterlimit:10;stroke-dasharray:none;stroke-opacity:1"
         id="path959" /></g><g
       id="g961"
       transform="translate(0,231)"><path
         d="m 301.5,-50.301 h 18"
         style="fill:none;stroke:#000000;stroke-width:0.9;stroke-linecap:butt;stroke-linejoin:miter;stroke-miterlimit:10;stroke-dasharray:none;stroke-opacity:1"
         id="path963" /></g><g
       id="g965"
       transform="translate(0,231)"><path
         d="m 333,-50.301 h 22.5"
         style="fill:none;stroke:#000000;stroke-width:0.9;stroke-linecap:butt;stroke-linejoin:miter;stroke-miterlimit:10;stroke-dasharray:none;stroke-opacity:1"
         id="path967" /></g><g
       id="g969"
       transform="translate(0,231)"><path
         d="M 364.5,-50.301 H 378"
         style="fill:none;stroke:#000000;stroke-width:0.9;stroke-linecap:butt;stroke-linejoin:miter;stroke-miterlimit:10;stroke-dasharray:none;stroke-opacity:1"
         id="path971" /></g><g
       id="g973"
       transform="translate(0,231)"><path
         d="m 391.5,-50.301 h 9"
         style="fill:none;stroke:#000000;stroke-width:0.9;stroke-linecap:butt;stroke-linejoin:miter;stroke-miterlimit:10;stroke-dasharray:none;stroke-opacity:1"
         id="path975" /></g><g
       id="g977"
       transform="translate(0,231)"><path
         d="M 409.5,-50.301 H 423"
         style="fill:none;stroke:#000000;stroke-width:0.9;stroke-linecap:butt;stroke-linejoin:miter;stroke-miterlimit:10;stroke-dasharray:none;stroke-opacity:1"
         id="path979" /></g><g
       id="g981"
       transform="translate(0,231)"><path
         d="m 135,-0.801 h 297 v -229.5 H 135 Z"
         style="fill:none;stroke:#000000;stroke-width:0.45;stroke-linecap:butt;stroke-linejoin:miter;stroke-miterlimit:10;stroke-dasharray:none;stroke-opacity:1"
         id="path983" /></g><g
       id="g985"
       transform="translate(0,231)"><path
         d="m 342,-126.801 90,-63 -54,-40.5 -112.5,85.5 -130.5,-85.5"
         style="fill:none;stroke:#000000;stroke-width:0.45;stroke-linecap:butt;stroke-linejoin:miter;stroke-miterlimit:10;stroke-dasharray:none;stroke-opacity:1"
         id="path987" /></g><g
       id="g989"
       transform="translate(0,231)"><path
         d="m 387,-95.301 h 45"
         style="fill:none;stroke:#000000;stroke-width:1.8;stroke-linecap:butt;stroke-linejoin:miter;stroke-miterlimit:10;stroke-dasharray:none;stroke-opacity:1"
         id="path991" /></g><g
       id="g993"
       transform="translate(0,231)"><path
         d="m 387,-144.801 h 45"
         style="fill:none;stroke:#000000;stroke-width:2.7;stroke-linecap:butt;stroke-linejoin:miter;stroke-miterlimit:10;stroke-dasharray:none;stroke-opacity:1"
         id="path995" /></g><g
       id="g997"
       transform="translate(0,231)"><path
         d="m 368.16,-145.281 2.699,-8.578"
         style="fill:none;stroke:#000000;stroke-width:0.45;stroke-linecap:butt;stroke-linejoin:miter;stroke-miterlimit:10;stroke-dasharray:none;stroke-opacity:1"
         id="path999" /></g><g
       id="g1001"
       transform="translate(0,231)"><path
         d="m 368.16,-145.281 7.199,-0.899"
         style="fill:none;stroke:#000000;stroke-width:0.45;stroke-linecap:butt;stroke-linejoin:miter;stroke-miterlimit:10;stroke-dasharray:none;stroke-opacity:1"
         id="path1003" /></g><g
       id="g1005"
       transform="translate(0,231)"><path
         d="m 409.98,-206.48 -8.101,-0.481"
         style="fill:none;stroke:#000000;stroke-width:0.45;stroke-linecap:butt;stroke-linejoin:miter;stroke-miterlimit:10;stroke-dasharray:none;stroke-opacity:1"
         id="path1007" /></g><g
       id="g1009"
       transform="translate(0,231)"><path
         d="m 409.078,-207.379 -0.898,-6.781"
         style="fill:none;stroke:#000000;stroke-width:0.45;stroke-linecap:butt;stroke-linejoin:miter;stroke-miterlimit:10;stroke-dasharray:none;stroke-opacity:1"
         id="path1011" /></g><g
       id="g1013"
       transform="translate(0,231)"><path
         d="m 337.559,-199.762 -11.278,2.703"
         style="fill:none;stroke:#000000;stroke-width:0.45;stroke-linecap:butt;stroke-linejoin:miter;stroke-miterlimit:10;stroke-dasharray:none;stroke-opacity:1"
         id="path1015" /></g><g
       id="g1017"
       transform="translate(0,231)"><path
         d="m 337.559,-199.762 -4.5,9.481"
         style="fill:none;stroke:#000000;stroke-width:0.45;stroke-linecap:butt;stroke-linejoin:miter;stroke-miterlimit:10;stroke-dasharray:none;stroke-opacity:1"
         id="path1019" /></g><g
       id="g1021"
       transform="translate(0,231)"><path
         d="m 212.879,-179.059 -11.699,-1.8"
         style="fill:none;stroke:#000000;stroke-width:0.45;stroke-linecap:butt;stroke-linejoin:miter;stroke-miterlimit:10;stroke-dasharray:none;stroke-opacity:1"
         id="path1023" /></g><g
       id="g1025"
       transform="translate(0,231)"><path
         d="m 212.461,-179.961 -5.883,-9"
         style="fill:none;stroke:#000000;stroke-width:0.45;stroke-linecap:butt;stroke-linejoin:miter;stroke-miterlimit:10;stroke-dasharray:none;stroke-opacity:1"
         id="path1027" /></g><g
       id="g1029"><g
         clip-path="url(#clipPath1035)"
         id="g1031"><g
           id="g1037"><g
             id="g1039" /><g
             id="g1053"><g
               id="g1051"
               clip-path="url(#clipPath1043)"><g
                 id="g1049"><g
                   id="g1047"
                   transform="translate(0,231)"><path
                     id="path1045"
                     style="fill:none;stroke:#000000;stroke-width:0.45;stroke-linecap:butt;stroke-linejoin:miter;stroke-miterlimit:10;stroke-dasharray:none;stroke-opacity:1"
                     d="m 130.5,-144.801 h -45" /></g></g></g></g></g></g></g><g
       id="g1055"><g
         transform="translate(0,231)"
         id="g1057"><path
           id="path1059"
           style="fill:none;stroke:#000000;stroke-width:0.45;stroke-linecap:butt;stroke-linejoin:miter;stroke-miterlimit:10;stroke-dasharray:none;stroke-opacity:1"
           d="m 122.281,-146.602 7.199,1.801 -7.199,1.801" /></g></g><g
       id="g1061"><g
         clip-path="url(#clipPath1067)"
         id="g1063"><g
           id="g1069"><g
             id="g1071" /><g
             id="g1085"><g
               id="g1083"
               clip-path="url(#clipPath1075)"><g
                 id="g1081"><g
                   id="g1079"
                   transform="translate(0,231)"><path
                     id="path1077"
                     style="fill:none;stroke:#000000;stroke-width:0.45;stroke-linecap:butt;stroke-linejoin:miter;stroke-miterlimit:10;stroke-dasharray:none;stroke-opacity:1"
                     d="m 130.5,-50.301 -45,-18" /></g></g></g></g></g></g></g><g
       id="g1087"><g
         transform="translate(0,231)"
         id="g1089"><path
           id="path1091"
           style="fill:none;stroke:#000000;stroke-width:0.45;stroke-linecap:butt;stroke-linejoin:miter;stroke-miterlimit:10;stroke-dasharray:none;stroke-opacity:1"
           d="m 123.539,-54.98 6.063,4.32 -7.383,-0.961" /></g></g><g
       id="g1093"><g
         clip-path="url(#clipPath1099)"
         id="g1095"><g
           id="g1101"><g
             id="g1103" /><g
             id="g1117"><g
               id="g1115"
               clip-path="url(#clipPath1107)"><g
                 id="g1113"><g
                   id="g1111"
                   transform="translate(0,231)"><path
                     id="path1109"
                     style="fill:none;stroke:#000000;stroke-width:0.45;stroke-linecap:butt;stroke-linejoin:miter;stroke-miterlimit:10;stroke-dasharray:none;stroke-opacity:1"
                     d="m 130.5,-95.301 -45,13.5" /></g></g></g></g></g></g></g><g
       id="g1121"
       transform="translate(0,231)"><path
         d="m 122.102,-94.641 7.437,-0.359 -6.418,3.84"
         style="fill:none;stroke:#000000;stroke-width:0.45;stroke-linecap:butt;stroke-linejoin:miter;stroke-miterlimit:10;stroke-dasharray:none;stroke-opacity:1"
         id="path1123" /></g><g
       id="g1125"
       transform="translate(0,231)"><path
         d="m 490.5,-189.801 -4.5,-18"
         style="fill:none;stroke:#000000;stroke-width:0.45;stroke-linecap:butt;stroke-linejoin:miter;stroke-miterlimit:10;stroke-dasharray:none;stroke-opacity:1"
         id="path1127" /></g><g
       id="g1129"
       transform="translate(0,231)"><path
         d="m 490.5,-194.301 4.5,-13.5"
         style="fill:none;stroke:#000000;stroke-width:0.45;stroke-linecap:butt;stroke-linejoin:miter;stroke-miterlimit:10;stroke-dasharray:none;stroke-opacity:1"
         id="path1131" /></g><g
       id="g1133"
       transform="translate(0,231)"><path
         d="m 490.5,-113.301 -4.5,-13.5"
         style="fill:none;stroke:#000000;stroke-width:0.45;stroke-linecap:butt;stroke-linejoin:miter;stroke-miterlimit:10;stroke-dasharray:none;stroke-opacity:1"
         id="path1135" /></g><g
       id="g1137"
       transform="translate(0,231)"><path
         d="m 490.5,-113.301 4.5,-13.5"
         style="fill:none;stroke:#000000;stroke-width:0.45;stroke-linecap:butt;stroke-linejoin:miter;stroke-miterlimit:10;stroke-dasharray:none;stroke-opacity:1"
         id="path1139" /></g><g
       id="g1141"
       transform="translate(0,231)"><path
         d="m 490.5,-230.301 v 229.5"
         style="fill:none;stroke:#000000;stroke-width:0.45;stroke-linecap:butt;stroke-linejoin:miter;stroke-miterlimit:10;stroke-dasharray:none;stroke-opacity:1"
         id="path1143" /></g><text
       transform="scale(1,-1)"
       id="text1155"
       y="-168.36182"
       x="1.2805279"
       style="font-style:normal;font-weight:normal;font-size:13.2015px;line-height:125%;font-family:Sans;text-align:start;letter-spacing:0px;word-spacing:0px;text-anchor:start;fill:#000000;fill-opacity:1;stroke:none;stroke-width:0.293365px;stroke-linecap:butt;stroke-linejoin:miter;stroke-opacity:1"
       xml:space="preserve"><tspan
         style="stroke-width:0.293365px"
         y="-168.36182"
         x="1.2805279"
         id="tspan1153"
         sodipodi:role="line">more</tspan><tspan
         id="tspan1159"
         style="stroke-width:0.293365px"
         y="-151.85994"
         x="1.2805279"
         sodipodi:role="line">complicated</tspan><tspan
         id="tspan1161"
         style="stroke-width:0.293365px"
         y="-135.35806"
         x="1.2805279"
         sodipodi:role="line">couplings</tspan><tspan
         id="tspan1157"
         style="stroke-width:0.293365px"
         y="-118.8562"
         x="1.2805279"
         sodipodi:role="line" /></text><text
       xml:space="preserve"
       style="font-style:normal;font-weight:normal;font-size:13.2015px;line-height:125%;font-family:Sans;text-align:start;letter-spacing:0px;word-spacing:0px;text-anchor:start;fill:#000000;fill-opacity:1;stroke:none;stroke-width:0.293365px;stroke-linecap:butt;stroke-linejoin:miter;stroke-opacity:1"
       x="23.673468"
       y="-84.662437"
       id="text1254"
       transform="scale(1,-1)"><tspan
         sodipodi:role="line"
         id="tspan1246"
         x="23.673468"
         y="-84.662437"
         style="stroke-width:0.293365px">doorway</tspan><tspan
         sodipodi:role="line"
         x="23.673468"
         y="-68.160561"
         style="stroke-width:0.293365px"
         id="tspan1252">states</tspan></text><g
       transform="matrix(2.3258002,0,0,-2.3258002,472.64487,57.425634)"
       ns1:version="1.0.1"
       ns1:texconverter="pdflatex"
       ns1:pdfconverter="inkscape"
       ns1:text="$\\nu$"
       ns1:preamble="/home/gregory/.config/inkscape/extensions/textext/default_packages.tex"
       ns1:scale="1.0446655908229068"
       ns1:alignment="middle center"
       ns1:inkscapeversion="1.0"
       ns1:jacobian_sqrt="1.39288"
       id="g1446"><defs
   id="id-87fd197f-507b-4afe-ae5c-7b83003ba19d">
    <g
   id="id-ad2e4c88-6ad8-4eb7-9455-3e8eaf20b164">
      <symbol
   id="id-a5e9265e-67a8-404b-a41d-4e1ad7faa941"
   overflow="visible">
        <path
   id="id-394d0d10-010b-49df-9ed9-3b17fb6e5c3c"
   d=""
   style="stroke:none" />
      </symbol>
      <symbol
   id="id-8eed9923-3d90-43be-b4d8-6140a3b005e4"
   overflow="visible">
        <path
   id="id-c7b7af1f-6c5f-42d4-bf24-82f32c3222fe"
   d="m 2.234375,-4.296875 c 0,-0.015625 0,-0.109375 -0.125,-0.109375 -0.234375,0 -0.96875,0.078125 -1.21875,0.09375 -0.078125,0.015625 -0.1875,0.03125 -0.1875,0.203125 0,0.125 0.078125,0.125 0.234375,0.125 0.484375,0 0.5,0.0625 0.5,0.171875 0,0.0625 -0.125,0.53125 -0.1875,0.796875 L 0.640625,-0.5625 C 0.59375,-0.421875 0.53125,-0.140625 0.53125,-0.125 0.53125,-0.015625 0.625,0 0.6875,0 h 0.140625 c 0.703125,-0.125 1.78125,-0.515625 2.8125,-1.46875 1.3125,-1.21875 1.578125,-2.578125 1.578125,-2.671875 0,-0.171875 -0.109375,-0.265625 -0.28125,-0.265625 -0.078125,0 -0.3125,0.046875 -0.390625,0.328125 -0.640625,2.265625 -2.15625,3.375 -3.296875,3.75 z m 0,0"
   style="stroke:none" />
      </symbol>
    </g>
  </defs>
  <g
   transform="translate(-149.243,-130.359)"
   id="id-1dc2265c-303e-4a9e-b913-244561788f52">
    <g
   id="id-ef620928-29d5-41b9-b848-1a78f6f50021"
   style="fill:#000000;fill-opacity:1">
      <g
   transform="translate(148.712,134.765)"
   id="g1442"><path
   id="id-94df8234-134f-4246-928b-034ab54b8e4c"
   d="m 2.234375,-4.296875 c 0,-0.015625 0,-0.109375 -0.125,-0.109375 -0.234375,0 -0.96875,0.078125 -1.21875,0.09375 -0.078125,0.015625 -0.1875,0.03125 -0.1875,0.203125 0,0.125 0.078125,0.125 0.234375,0.125 0.484375,0 0.5,0.0625 0.5,0.171875 0,0.0625 -0.125,0.53125 -0.1875,0.796875 L 0.640625,-0.5625 C 0.59375,-0.421875 0.53125,-0.140625 0.53125,-0.125 0.53125,-0.015625 0.625,0 0.6875,0 h 0.140625 c 0.703125,-0.125 1.78125,-0.515625 2.8125,-1.46875 1.3125,-1.21875 1.578125,-2.578125 1.578125,-2.671875 0,-0.171875 -0.109375,-0.265625 -0.28125,-0.265625 -0.078125,0 -0.3125,0.046875 -0.390625,0.328125 -0.640625,2.265625 -2.15625,3.375 -3.296875,3.75 z m 0,0"
   style="stroke:none" />
      </g></g>
  </g>
</g><g
       transform="matrix(2.3258002,0,0,-2.3258002,465.1174,119.178)"
       ns1:version="1.0.1"
       ns1:texconverter="pdflatex"
       ns1:pdfconverter="inkscape"
       ns1:text="$\\nu'$"
       ns1:preamble="/home/gregory/.config/inkscape/extensions/textext/default_packages.tex"
       ns1:scale="1.0446655908229068"
       ns1:alignment="middle center"
       ns1:inkscapeversion="1.0"
       ns1:jacobian_sqrt="1.39288"
       id="g1641"><defs
   id="id-2367f84f-6cf4-43d6-9e68-0a89649af1f0">
    <g
   id="id-6eb63c59-7410-49f6-a9e8-6bb7260827aa">
      <symbol
   id="id-24eb39b8-6bfc-4efb-9150-69ecd89ee9f1"
   overflow="visible">
        <path
   id="id-18ead8a0-ede8-4ec2-a14a-d8c8cbcd9b3a"
   d=""
   style="stroke:none" />
      </symbol>
      <symbol
   id="id-1084af60-5cb7-4e49-b23f-f04cc1c2d3e0"
   overflow="visible">
        <path
   id="id-b66e775f-4478-49ca-bb74-5d3aea9be1fe"
   d="m 2.234375,-4.296875 c 0,-0.015625 0,-0.109375 -0.125,-0.109375 -0.234375,0 -0.96875,0.078125 -1.21875,0.09375 -0.078125,0.015625 -0.1875,0.03125 -0.1875,0.203125 0,0.125 0.078125,0.125 0.234375,0.125 0.484375,0 0.5,0.0625 0.5,0.171875 0,0.0625 -0.125,0.53125 -0.1875,0.796875 L 0.640625,-0.5625 C 0.59375,-0.421875 0.53125,-0.140625 0.53125,-0.125 0.53125,-0.015625 0.625,0 0.6875,0 h 0.140625 c 0.703125,-0.125 1.78125,-0.515625 2.8125,-1.46875 1.3125,-1.21875 1.578125,-2.578125 1.578125,-2.671875 0,-0.171875 -0.109375,-0.265625 -0.28125,-0.265625 -0.078125,0 -0.3125,0.046875 -0.390625,0.328125 -0.640625,2.265625 -2.15625,3.375 -3.296875,3.75 z m 0,0"
   style="stroke:none" />
      </symbol>
      <symbol
   id="id-ac439909-be20-4d55-bf12-43041e7e40df"
   overflow="visible">
        <path
   id="id-fb52feec-7e84-4e31-92d4-84d6bd070230"
   d=""
   style="stroke:none" />
      </symbol>
      <symbol
   id="id-23f339d4-21c9-4200-971e-3cc7f1c005b7"
   overflow="visible">
        <path
   id="id-eba16249-be53-4c2a-93a0-90d30cbc7f4a"
   d="m 2.015625,-3.296875 c 0.0625,-0.109375 0.0625,-0.171875 0.0625,-0.21875 0,-0.21875 -0.1875,-0.375 -0.40625,-0.375 -0.265625,0 -0.34375,0.21875 -0.375,0.328125 L 0.375,-0.546875 c -0.015625,0.015625 -0.046875,0.09375 -0.046875,0.109375 0,0.078125 0.21875,0.15625 0.28125,0.15625 0.046875,0 0.046875,-0.015625 0.09375,-0.125 z m 0,0"
   style="stroke:none" />
      </symbol>
    </g>
  </defs>
  <g
   transform="translate(-149.243,-127.258)"
   id="id-3c04c8a6-b3be-4bbe-96ad-a03bdf85084b">
    <g
   id="id-f072cd37-8a2b-4a1c-80f5-c190b0c2810b"
   style="fill:#000000;fill-opacity:1">
      <g
   transform="translate(148.712,134.765)"
   id="g1633"><path
   id="id-fa9e4e3a-9e5b-41a9-a256-74c65d094b73"
   d="m 2.234375,-4.296875 c 0,-0.015625 0,-0.109375 -0.125,-0.109375 -0.234375,0 -0.96875,0.078125 -1.21875,0.09375 -0.078125,0.015625 -0.1875,0.03125 -0.1875,0.203125 0,0.125 0.078125,0.125 0.234375,0.125 0.484375,0 0.5,0.0625 0.5,0.171875 0,0.0625 -0.125,0.53125 -0.1875,0.796875 L 0.640625,-0.5625 C 0.59375,-0.421875 0.53125,-0.140625 0.53125,-0.125 0.53125,-0.015625 0.625,0 0.6875,0 h 0.140625 c 0.703125,-0.125 1.78125,-0.515625 2.8125,-1.46875 1.3125,-1.21875 1.578125,-2.578125 1.578125,-2.671875 0,-0.171875 -0.109375,-0.265625 -0.28125,-0.265625 -0.078125,0 -0.3125,0.046875 -0.390625,0.328125 -0.640625,2.265625 -2.15625,3.375 -3.296875,3.75 z m 0,0"
   style="stroke:none" />
      </g></g>
    <g
   id="id-9e31b98f-1bb2-44cd-8986-7191c3a3d7f2"
   style="fill:#000000;fill-opacity:1">
      <g
   transform="translate(154.268,131.149)"
   id="g1637"><path
   id="id-0a75c53d-418d-451c-91a1-622016dd066c"
   d="m 2.015625,-3.296875 c 0.0625,-0.109375 0.0625,-0.171875 0.0625,-0.21875 0,-0.21875 -0.1875,-0.375 -0.40625,-0.375 -0.265625,0 -0.34375,0.21875 -0.375,0.328125 L 0.375,-0.546875 c -0.015625,0.015625 -0.046875,0.09375 -0.046875,0.109375 0,0.078125 0.21875,0.15625 0.28125,0.15625 0.046875,0 0.046875,-0.015625 0.09375,-0.125 z m 0,0"
   style="stroke:none" />
      </g></g>
  </g>
</g><g
       transform="matrix(2.3258002,0,0,-2.3258002,519.20984,89.426932)"
       ns1:version="1.0.1"
       ns1:texconverter="pdflatex"
       ns1:pdfconverter="inkscape"
       ns1:text="$\\alpha$"
       ns1:preamble="/home/gregory/.config/inkscape/extensions/textext/default_packages.tex"
       ns1:scale="1.0446655908229068"
       ns1:alignment="middle center"
       ns1:inkscapeversion="1.0"
       ns1:jacobian_sqrt="1.39288"
       id="g1853"><defs
   id="id-ab435ea0-9074-43e4-bff6-5290fb830f81">
    <g
   id="id-335a3b80-f6e6-464d-b21b-63155d0e941c">
      <symbol
   id="id-a01eba45-d2c1-489b-a15e-fe04d5887780"
   overflow="visible">
        <path
   id="id-927c4913-d47c-4352-8635-8222ce720451"
   d=""
   style="stroke:none" />
      </symbol>
      <symbol
   id="id-e2f8a686-4c23-46c1-a46e-00de38921bfb"
   overflow="visible">
        <path
   id="id-81c1e9f8-861f-48f7-8520-f31a30982d4e"
   d="m 4.75,-2.359375 c 0,-1.5625 -0.921875,-2.046875 -1.65625,-2.046875 -1.375,0 -2.6875,1.421875 -2.6875,2.828125 0,0.9375 0.59375,1.6875 1.625,1.6875 0.625,0 1.34375,-0.234375 2.09375,-0.84375 0.125,0.53125 0.453125,0.84375 0.90625,0.84375 0.53125,0 0.84375,-0.546875 0.84375,-0.703125 0,-0.078125 -0.0625,-0.109375 -0.125,-0.109375 -0.0625,0 -0.09375,0.03125 -0.125,0.109375 -0.1875,0.484375 -0.546875,0.484375 -0.5625,0.484375 -0.3125,0 -0.3125,-0.78125 -0.3125,-1.015625 0,-0.203125 0,-0.234375 0.109375,-0.34375 C 5.796875,-2.65625 6,-3.8125 6,-3.8125 6,-3.84375 5.984375,-3.921875 5.875,-3.921875 c -0.09375,0 -0.09375,0.03125 -0.140625,0.21875 -0.1875,0.625 -0.515625,1.375 -0.984375,1.96875 z m -0.65625,1.375 c -0.890625,0.765625 -1.65625,0.875 -2.046875,0.875 -0.59375,0 -0.90625,-0.453125 -0.90625,-1.09375 0,-0.484375 0.265625,-1.5625 0.578125,-2.0625 C 2.1875,-4 2.734375,-4.1875 3.078125,-4.1875 c 0.984375,0 0.984375,1.3125 0.984375,2.078125 0,0.375 0,0.953125 0.03125,1.125 z m 0,0"
   style="stroke:none" />
      </symbol>
    </g>
  </defs>
  <g
   transform="translate(-149.118,-130.359)"
   id="id-1a04f325-037f-40ee-af1f-8c6ce8fa7517">
    <g
   id="id-2f2691e9-d5f5-41c9-a999-7abe3d97956a"
   style="fill:#000000;fill-opacity:1">
      <g
   transform="translate(148.712,134.765)"
   id="g1849"><path
   id="id-1366e18e-d51a-4c21-9dbc-0bdba6889aa6"
   d="m 4.75,-2.359375 c 0,-1.5625 -0.921875,-2.046875 -1.65625,-2.046875 -1.375,0 -2.6875,1.421875 -2.6875,2.828125 0,0.9375 0.59375,1.6875 1.625,1.6875 0.625,0 1.34375,-0.234375 2.09375,-0.84375 0.125,0.53125 0.453125,0.84375 0.90625,0.84375 0.53125,0 0.84375,-0.546875 0.84375,-0.703125 0,-0.078125 -0.0625,-0.109375 -0.125,-0.109375 -0.0625,0 -0.09375,0.03125 -0.125,0.109375 -0.1875,0.484375 -0.546875,0.484375 -0.5625,0.484375 -0.3125,0 -0.3125,-0.78125 -0.3125,-1.015625 0,-0.203125 0,-0.234375 0.109375,-0.34375 C 5.796875,-2.65625 6,-3.8125 6,-3.8125 6,-3.84375 5.984375,-3.921875 5.875,-3.921875 c -0.09375,0 -0.09375,0.03125 -0.140625,0.21875 -0.1875,0.625 -0.515625,1.375 -0.984375,1.96875 z m -0.65625,1.375 c -0.890625,0.765625 -1.65625,0.875 -2.046875,0.875 -0.59375,0 -0.90625,-0.453125 -0.90625,-1.09375 0,-0.484375 0.265625,-1.5625 0.578125,-2.0625 C 2.1875,-4 2.734375,-4.1875 3.078125,-4.1875 c 0.984375,0 0.984375,1.3125 0.984375,2.078125 0,0.375 0,0.953125 0.03125,1.125 z m 0,0"
   style="stroke:none" />
      </g></g>
  </g>
</g></g></svg>
