<?xml version="1.0" encoding="UTF-8" standalone="no"?>
<svg
   xmlns:ns1="http://www.iki.fi/pav/software/textext/"
   xmlns:dc="http://purl.org/dc/elements/1.1/"
   xmlns:cc="http://creativecommons.org/ns#"
   xmlns:rdf="http://www.w3.org/1999/02/22-rdf-syntax-ns#"
   xmlns:svg="http://www.w3.org/2000/svg"
   xmlns="http://www.w3.org/2000/svg"
   xmlns:sodipodi="http://sodipodi.sourceforge.net/DTD/sodipodi-0.dtd"
   xmlns:inkscape="http://www.inkscape.org/namespaces/inkscape"
   viewBox="0 0 957.59174 623.47058"
   height="623.47058"
   width="957.59174"
   xml:space="preserve"
   id="svg7577"
   version="1.1"
   sodipodi:docname="figintroD10.svg"
   inkscape:version="1.0.1 (1.0.1+r73)"><sodipodi:namedview
   pagecolor="#ffffff"
   bordercolor="#666666"
   borderopacity="1"
   objecttolerance="10"
   gridtolerance="10"
   guidetolerance="10"
   inkscape:pageopacity="0"
   inkscape:pageshadow="2"
   inkscape:window-width="1600"
   inkscape:window-height="863"
   id="namedview1473"
   showgrid="false"
   inkscape:zoom="1.1299179"
   inkscape:cx="713.96003"
   inkscape:cy="473.64541"
   inkscape:window-x="1366"
   inkscape:window-y="0"
   inkscape:window-maximized="1"
   inkscape:current-layer="svg7577"
   inkscape:document-rotation="0"
   inkscape:snap-global="false" /><metadata
   id="metadata7583"><rdf:RDF><cc:Work
       rdf:about=""><dc:format>image/svg+xml</dc:format><dc:type
         rdf:resource="http://purl.org/dc/dcmitype/StillImage" /><dc:title></dc:title></cc:Work></rdf:RDF></metadata><defs
   id="defs7581"><clipPath
   id="clipPath7637"
   clipPathUnits="userSpaceOnUse"><path
     id="path7635"
     d="m 52,152 h 61 V 91 H 52 Z" /></clipPath><clipPath
   id="clipPath7643"
   clipPathUnits="userSpaceOnUse"><path
     id="path7641"
     d="m 112.762,121.102 c 0,-16.606 -13.461,-30.063 -30.063,-30.063 -16.601,0 -30.058,13.457 -30.058,30.063 0,16.601 13.457,30.058 30.058,30.058 16.602,0 30.063,-13.457 30.063,-30.058 z" /></clipPath><clipPath
   id="clipPath7653"
   clipPathUnits="userSpaceOnUse"><path
     id="path7651"
     d="M 0,0 H 507 V 470 H 0 Z" /></clipPath><clipPath
   id="clipPath7665"
   clipPathUnits="userSpaceOnUse"><path
     id="path7663"
     d="M 0,0 H 507 V 470 H 0 Z" /></clipPath><clipPath
   id="clipPath7677"
   clipPathUnits="userSpaceOnUse"><path
     id="path7675"
     d="m 38,86 h 80 v 71 H 38 Z" /></clipPath><clipPath
   id="clipPath7735"
   clipPathUnits="userSpaceOnUse"><path
     id="path7733"
     d="m 192,152 h 61 V 91 h -61 z" /></clipPath><clipPath
   id="clipPath7741"
   clipPathUnits="userSpaceOnUse"><path
     id="path7739"
     d="m 252.262,121.102 c 0,-16.606 -13.461,-30.063 -30.063,-30.063 -16.601,0 -30.058,13.457 -30.058,30.063 0,16.601 13.457,30.058 30.058,30.058 16.602,0 30.063,-13.457 30.063,-30.058 z" /></clipPath><clipPath
   id="clipPath7751"
   clipPathUnits="userSpaceOnUse"><path
     id="path7749"
     d="M 0,0 H 507 V 470 H 0 Z" /></clipPath><clipPath
   id="clipPath7763"
   clipPathUnits="userSpaceOnUse"><path
     id="path7761"
     d="M 0,0 H 507 V 470 H 0 Z" /></clipPath><clipPath
   id="clipPath7775"
   clipPathUnits="userSpaceOnUse"><path
     id="path7773"
     d="m 178,86 h 79 v 71 h -79 z" /></clipPath><clipPath
   id="clipPath7851"
   clipPathUnits="userSpaceOnUse"><path
     id="path7849"
     d="M 0,470 V 0 H 507 V 470 Z M 101.48,91.461 98.719,89.18 l 5.82,-7.02 -3.18,6.66 5.942,-4.32 z" /></clipPath><clipPath
   id="clipPath7861"
   clipPathUnits="userSpaceOnUse"><path
     id="path7859"
     d="M 0,0 H 507 V 470 H 0 Z" /></clipPath><clipPath
   id="clipPath7873"
   clipPathUnits="userSpaceOnUse"><path
     id="path7871"
     d="M 0,0 H 507 V 470 H 0 Z" /></clipPath><clipPath
   id="clipPath7885"
   clipPathUnits="userSpaceOnUse"><path
     id="path7883"
     d="m 100,62 h 24 v 28 h -24 z" /></clipPath><clipPath
   id="clipPath7901"
   clipPathUnits="userSpaceOnUse"><path
     id="path7899"
     d="M 0,470 V 0 h 507 v 470 z m 206,-381.18 -2.34,2.762 -6.898,-5.941 6.66,3.3 -4.32,-6 z" /></clipPath><clipPath
   id="clipPath7911"
   clipPathUnits="userSpaceOnUse"><path
     id="path7909"
     d="M 0,0 H 507 V 470 H 0 Z" /></clipPath><clipPath
   id="clipPath7923"
   clipPathUnits="userSpaceOnUse"><path
     id="path7921"
     d="M 0,0 H 507 V 470 H 0 Z" /></clipPath><clipPath
   id="clipPath7935"
   clipPathUnits="userSpaceOnUse"><path
     id="path7933"
     d="m 172,62 h 33 v 28 h -33 z" /></clipPath><clipPath
   id="clipPath7951"
   clipPathUnits="userSpaceOnUse"><path
     id="path7949"
     d="M 0,470 V 0 H 507 V 470 Z M 26.898,428 H 21.5 v -12.719 l 2.699,10.797 2.699,-10.797 z" /></clipPath><clipPath
   id="clipPath7961"
   clipPathUnits="userSpaceOnUse"><path
     id="path7959"
     d="M 0,0 H 507 V 470 H 0 Z" /></clipPath><clipPath
   id="clipPath7973"
   clipPathUnits="userSpaceOnUse"><path
     id="path7971"
     d="M 0,0 H 507 V 470 H 0 Z" /></clipPath><clipPath
   id="clipPath7985"
   clipPathUnits="userSpaceOnUse"><path
     id="path7983"
     d="m 23,229 h 2 v 199 h -2 z" /></clipPath>








</defs><path
   id="path7589"
   style="fill:none;stroke:#000000;stroke-width:0.59999996;stroke-linecap:butt;stroke-linejoin:miter;stroke-miterlimit:10;stroke-dasharray:none;stroke-opacity:1"
   d="m 85.128351,127.40358 23.999999,24"
   inkscape:connector-curvature="0" /><path
   id="path7591"
   style="fill:none;stroke:#000000;stroke-width:0.59999996;stroke-linecap:butt;stroke-linejoin:miter;stroke-miterlimit:10;stroke-dasharray:none;stroke-opacity:1"
   d="m 85.128351,151.40358 23.999999,-24"
   inkscape:connector-curvature="0" /><path
   id="path7593"
   style="fill:none;stroke:#000000;stroke-width:0.59999996;stroke-linecap:butt;stroke-linejoin:miter;stroke-miterlimit:10;stroke-dasharray:none;stroke-opacity:1"
   d="m 247.12835,55.403581 24,23.999999"
   inkscape:connector-curvature="0" /><path
   id="path7595"
   style="fill:none;stroke:#000000;stroke-width:0.59999996;stroke-linecap:butt;stroke-linejoin:miter;stroke-miterlimit:10;stroke-dasharray:none;stroke-opacity:1"
   d="m 247.12835,79.40358 24,-23.999999"
   inkscape:connector-curvature="0" /><path
   id="path7597"
   style="fill:none;stroke:#000000;stroke-width:0.59999996;stroke-linecap:butt;stroke-linejoin:miter;stroke-miterlimit:10;stroke-dasharray:none;stroke-opacity:1"
   d="m 289.12835,55.403581 24,23.999999"
   inkscape:connector-curvature="0" /><path
   id="path7599"
   style="fill:none;stroke:#000000;stroke-width:0.59999996;stroke-linecap:butt;stroke-linejoin:miter;stroke-miterlimit:10;stroke-dasharray:none;stroke-opacity:1"
   d="m 289.12835,79.40358 24,-23.999999"
   inkscape:connector-curvature="0" /><text
   id="text7607"
   style="font-variant:normal;font-weight:normal;font-size:28.8px;font-family:'Liberation Sans';-inkscape-font-specification:LiberationSans;writing-mode:lr-tb;fill:#000000;fill-opacity:1;fill-rule:nonzero;stroke:none;stroke-width:1.33333"
   x="533.20972"
   y="188.68623"><tspan
     id="tspan7601"
     y="188.68623"
     x="533.20972"
     style="stroke-width:1.33333">~</tspan><tspan
     id="tspan7603"
     y="195.88626"
     x="533.20972"
     style="stroke-width:1.33333">~</tspan><tspan
     id="tspan7605"
     y="192.28622"
     x="558.40967 558.35211 574.36487 582.34247 598.35529 606.33289 633.40491 647.77606"
     style="stroke-width:1.33333"> 1.5 MeV</tspan></text>
<path
   id="path7609"
   style="fill:none;stroke:#000000;stroke-width:0.59999996;stroke-linecap:butt;stroke-linejoin:miter;stroke-miterlimit:10;stroke-dasharray:none;stroke-opacity:1"
   d="m 104.16968,389.08624 12.07867,12.07867"
   inkscape:connector-curvature="0" /><path
   id="path7611"
   style="fill:none;stroke:#000000;stroke-width:0.59999996;stroke-linecap:butt;stroke-linejoin:miter;stroke-miterlimit:10;stroke-dasharray:none;stroke-opacity:1"
   d="m 104.16968,401.16491 12.07867,-12.07867"
   inkscape:connector-curvature="0" /><path
   id="path7613"
   style="fill:none;stroke:#000000;stroke-width:0.59999996;stroke-linecap:butt;stroke-linejoin:miter;stroke-miterlimit:10;stroke-dasharray:none;stroke-opacity:1"
   d="m 299.05101,389.08624 12.07734,12.07867"
   inkscape:connector-curvature="0" /><path
   id="path7615"
   style="fill:none;stroke:#000000;stroke-width:0.59999996;stroke-linecap:butt;stroke-linejoin:miter;stroke-miterlimit:10;stroke-dasharray:none;stroke-opacity:1"
   d="m 299.05101,401.16491 12.07734,-12.07867"
   inkscape:connector-curvature="0" /><path
   id="path7617"
   style="fill:none;stroke:#000000;stroke-width:0.59999996;stroke-linecap:butt;stroke-linejoin:miter;stroke-miterlimit:10;stroke-dasharray:none;stroke-opacity:1"
   d="m 276.88968,389.64357 12.07733,12.084"
   inkscape:connector-curvature="0" /><path
   id="path7619"
   style="fill:none;stroke:#000000;stroke-width:0.59999996;stroke-linecap:butt;stroke-linejoin:miter;stroke-miterlimit:10;stroke-dasharray:none;stroke-opacity:1"
   d="m 276.88968,401.72757 12.07733,-12.084"
   inkscape:connector-curvature="0" /><text
   id="text7625"
   style="font-variant:normal;font-weight:normal;font-size:19.2px;font-family:'Liberation Sans';-inkscape-font-specification:LiberationSans;writing-mode:lr-tb;fill:#000000;fill-opacity:1;fill-rule:nonzero;stroke:none;stroke-width:1.33333"
   x="169.60968"
   y="555.88599"><tspan
     id="tspan7621"
     y="555.88599"
     x="169.60968 178.13448 184.18248 193.78249 202.67207 212.27208"
     style="stroke-width:1.33333">closed</tspan><tspan
     id="tspan7623"
     y="578.68597"
     x="169.60968 174.92809 183.77928 195.51048 205.11047 211.15848"
     style="stroke-width:1.33333"> shell</tspan></text>
<path
   id="path7627"
   style="fill:none;stroke:#000000;stroke-width:0.59999996;stroke-linecap:butt;stroke-linejoin:miter;stroke-miterlimit:10;stroke-dasharray:none;stroke-opacity:1"
   d="m 74.899018,416.11291 c 7.016,-12.604 20.308,-20.41734 34.734662,-20.41734 13.656,0 26.36,7.01067 33.636,18.568"
   inkscape:connector-curvature="0" /><path
   id="path7629"
   style="fill:none;stroke:#000000;stroke-width:0.59999996;stroke-linecap:butt;stroke-linejoin:miter;stroke-miterlimit:10;stroke-dasharray:none;stroke-opacity:1"
   d="m 259.61768,414.19024 c 7.016,-12.604 20.31333,-20.416 34.73467,-20.416 13.656,0 26.36,7.01067 33.64133,18.568"
   inkscape:connector-curvature="0" /><g
   clip-path="url(#clipPath7637)"
   id="g7633"
   transform="matrix(1.3333333,0,0,-1.3333333,-1.1369799,624.8729)"><g
     clip-path="url(#clipPath7643)"
     id="g7639"><g
       id="g7645"><g
         id="g7647"><g
           clip-path="url(#clipPath7653)"
           id="g7649"><g
             id="g7655"><g
               id="g7657"><g
                 id="g7659"><g
                   clip-path="url(#clipPath7665)"
                   id="g7661"><g
                     id="g7667"><g
                       id="g7669"><g
                         id="g7671"><g
                           clip-path="url(#clipPath7677)"
                           id="g7673"><g
                             id="g7679"><text
   id="text7701"
   style="font-variant:normal;font-weight:normal;font-size:14.4px;font-family:'Liberation Sans';-inkscape-font-specification:LiberationSans;writing-mode:lr-tb;fill:#ffffff;fill-opacity:1;fill-rule:nonzero;stroke:none"
   transform="matrix(1,0,0,-0.5,38.2398,86.3602)"><tspan
     id="tspan7681"
     y="0"
     x="0 14.4 28.799999 43.200001 57.556801 71.956802">000000</tspan><tspan
     id="tspan7683"
     y="-14.4"
     x="0 14.4 28.799999 43.200001 57.556801 71.956802">000000</tspan><tspan
     id="tspan7685"
     y="-28.799999"
     x="0 14.4 28.799999 43.200001 57.556801 71.956802">000000</tspan><tspan
     id="tspan7687"
     y="-43.200001"
     x="0 14.4 28.799999 43.200001 57.556801 71.956802">000000</tspan><tspan
     id="tspan7689"
     y="-57.599998"
     x="0 14.4 28.799999 43.200001 57.556801 71.956802">000000</tspan><tspan
     id="tspan7691"
     y="-72"
     x="0 14.4 28.799999 43.200001 57.556801 71.956802">000000</tspan><tspan
     id="tspan7693"
     y="-86.400002"
     x="0 14.4 28.799999 43.200001 57.556801 71.956802">000000</tspan><tspan
     id="tspan7695"
     y="-100.8"
     x="0 14.4 28.799999 43.200001 57.556801 71.956802">000000</tspan><tspan
     id="tspan7697"
     y="-115.2"
     x="0 14.4 28.799999 43.200001 57.556801 71.956802">000000</tspan><tspan
     id="tspan7699"
     y="-129.60001"
     x="0 14.4 28.799999 43.200001 57.556801 71.956802">000000</tspan></text>

<text
   id="text7723"
   style="font-variant:normal;font-weight:normal;font-size:14.4px;font-family:'Liberation Sans';-inkscape-font-specification:LiberationSans;writing-mode:lr-tb;fill:#000000;fill-opacity:1;fill-rule:nonzero;stroke:none"
   transform="matrix(1,0,0,-0.5,38.2398,86.3602)"><tspan
     id="tspan7703"
     y="0"
     x="0 14.4 28.799999 43.200001 57.556801 71.956802">111111</tspan><tspan
     id="tspan7705"
     y="-14.4"
     x="0 14.4 28.799999 43.200001 57.556801 71.956802">111111</tspan><tspan
     id="tspan7707"
     y="-28.799999"
     x="0 14.4 28.799999 43.200001 57.556801 71.956802">111111</tspan><tspan
     id="tspan7709"
     y="-43.200001"
     x="0 14.4 28.799999 43.200001 57.556801 71.956802">111111</tspan><tspan
     id="tspan7711"
     y="-57.599998"
     x="0 14.4 28.799999 43.200001 57.556801 71.956802">111111</tspan><tspan
     id="tspan7713"
     y="-72"
     x="0 14.4 28.799999 43.200001 57.556801 71.956802">111111</tspan><tspan
     id="tspan7715"
     y="-86.400002"
     x="0 14.4 28.799999 43.200001 57.556801 71.956802">111111</tspan><tspan
     id="tspan7717"
     y="-100.8"
     x="0 14.4 28.799999 43.200001 57.556801 71.956802">111111</tspan><tspan
     id="tspan7719"
     y="-115.2"
     x="0 14.4 28.799999 43.200001 57.556801 71.956802">111111</tspan><tspan
     id="tspan7721"
     y="-129.60001"
     x="0 14.4 28.799999 43.200001 57.556801 71.956802">111111</tspan></text>

</g></g></g></g></g></g></g></g></g></g></g></g></g></g><path
   id="path7727"
   style="fill:none;stroke:#000000;stroke-width:0.59999996;stroke-linecap:butt;stroke-linejoin:miter;stroke-miterlimit:10;stroke-dasharray:none;stroke-opacity:1"
   d="m 149.21235,463.40357 c 0,22.14133 -17.948,40.084 -40.084,40.084 -22.134665,0 -40.077332,-17.94267 -40.077332,-40.084 0,-22.13467 17.942667,-40.07733 40.077332,-40.07733 22.136,0 40.084,17.94266 40.084,40.07733 z"
   inkscape:connector-curvature="0" /><g
   clip-path="url(#clipPath7735)"
   id="g7731"
   transform="matrix(1.3333333,0,0,-1.3333333,-1.1369799,624.8729)"><g
     clip-path="url(#clipPath7741)"
     id="g7737"><g
       id="g7743"><g
         id="g7745"><g
           clip-path="url(#clipPath7751)"
           id="g7747"><g
             id="g7753"><g
               id="g7755"><g
                 id="g7757"><g
                   clip-path="url(#clipPath7763)"
                   id="g7759"><g
                     id="g7765"><g
                       id="g7767"><g
                         id="g7769"><g
                           clip-path="url(#clipPath7775)"
                           id="g7771"><g
                             id="g7777"><text
   id="text7799"
   style="font-variant:normal;font-weight:normal;font-size:14.4px;font-family:'Liberation Sans';-inkscape-font-specification:LiberationSans;writing-mode:lr-tb;fill:#ffffff;fill-opacity:1;fill-rule:nonzero;stroke:none"
   transform="matrix(1,0,0,-0.5,177.74,86.3602)"><tspan
     id="tspan7779"
     y="0"
     x="0 14.4 28.799999 43.200001 57.556801 71.956802">000000</tspan><tspan
     id="tspan7781"
     y="-14.4"
     x="0 14.4 28.799999 43.200001 57.556801 71.956802">000000</tspan><tspan
     id="tspan7783"
     y="-28.799999"
     x="0 14.4 28.799999 43.200001 57.556801 71.956802">000000</tspan><tspan
     id="tspan7785"
     y="-43.200001"
     x="0 14.4 28.799999 43.200001 57.556801 71.956802">000000</tspan><tspan
     id="tspan7787"
     y="-57.599998"
     x="0 14.4 28.799999 43.200001 57.556801 71.956802">000000</tspan><tspan
     id="tspan7789"
     y="-72"
     x="0 14.4 28.799999 43.200001 57.556801 71.956802">000000</tspan><tspan
     id="tspan7791"
     y="-86.400002"
     x="0 14.4 28.799999 43.200001 57.556801 71.956802">000000</tspan><tspan
     id="tspan7793"
     y="-100.8"
     x="0 14.4 28.799999 43.200001 57.556801 71.956802">000000</tspan><tspan
     id="tspan7795"
     y="-115.2"
     x="0 14.4 28.799999 43.200001 57.556801 71.956802">000000</tspan><tspan
     id="tspan7797"
     y="-129.60001"
     x="0 14.4 28.799999 43.200001 57.556801 71.956802">000000</tspan></text>

<text
   id="text7821"
   style="font-variant:normal;font-weight:normal;font-size:14.4px;font-family:'Liberation Sans';-inkscape-font-specification:LiberationSans;writing-mode:lr-tb;fill:#000000;fill-opacity:1;fill-rule:nonzero;stroke:none"
   transform="matrix(1,0,0,-0.5,177.74,86.3602)"><tspan
     id="tspan7801"
     y="0"
     x="0 14.4 28.799999 43.200001 57.556801 71.956802">111111</tspan><tspan
     id="tspan7803"
     y="-14.4"
     x="0 14.4 28.799999 43.200001 57.556801 71.956802">111111</tspan><tspan
     id="tspan7805"
     y="-28.799999"
     x="0 14.4 28.799999 43.200001 57.556801 71.956802">111111</tspan><tspan
     id="tspan7807"
     y="-43.200001"
     x="0 14.4 28.799999 43.200001 57.556801 71.956802">111111</tspan><tspan
     id="tspan7809"
     y="-57.599998"
     x="0 14.4 28.799999 43.200001 57.556801 71.956802">111111</tspan><tspan
     id="tspan7811"
     y="-72"
     x="0 14.4 28.799999 43.200001 57.556801 71.956802">111111</tspan><tspan
     id="tspan7813"
     y="-86.400002"
     x="0 14.4 28.799999 43.200001 57.556801 71.956802">111111</tspan><tspan
     id="tspan7815"
     y="-100.8"
     x="0 14.4 28.799999 43.200001 57.556801 71.956802">111111</tspan><tspan
     id="tspan7817"
     y="-115.2"
     x="0 14.4 28.799999 43.200001 57.556801 71.956802">111111</tspan><tspan
     id="tspan7819"
     y="-129.60001"
     x="0 14.4 28.799999 43.200001 57.556801 71.956802">111111</tspan></text>

</g></g></g></g></g></g></g></g></g></g></g></g></g></g><path
   id="path7825"
   style="fill:none;stroke:#000000;stroke-width:0.59999996;stroke-linecap:butt;stroke-linejoin:miter;stroke-miterlimit:10;stroke-dasharray:none;stroke-opacity:1"
   d="m 335.21235,463.40357 c 0,22.14133 -17.948,40.084 -40.084,40.084 -22.13467,0 -40.07734,-17.94267 -40.07734,-40.084 0,-22.13467 17.94267,-40.07733 40.07734,-40.07733 22.136,0 40.084,17.94266 40.084,40.07733 z"
   inkscape:connector-curvature="0" /><path
   id="path7827"
   style="fill:none;stroke:#000000;stroke-width:0.59999996;stroke-linecap:butt;stroke-linejoin:miter;stroke-miterlimit:10;stroke-dasharray:none;stroke-opacity:1"
   d="M 487.12834,319.40357 V 55.403581"
   inkscape:connector-curvature="0" /><path
   id="path7829"
   style="fill:none;stroke:#000000;stroke-width:0.59999996;stroke-linecap:butt;stroke-linejoin:miter;stroke-miterlimit:10;stroke-dasharray:none;stroke-opacity:1"
   d="m 481.12834,73.40358 12,-11.999999"
   inkscape:connector-curvature="0" /><path
   id="path7831"
   style="fill:none;stroke:#000000;stroke-width:0.59999996;stroke-linecap:butt;stroke-linejoin:miter;stroke-miterlimit:10;stroke-dasharray:none;stroke-opacity:1"
   d="m 481.12834,313.40357 12,-12"
   inkscape:connector-curvature="0" /><path
   id="path7833"
   style="fill:none;stroke:#000000;stroke-width:0.59999996;stroke-linecap:butt;stroke-linejoin:miter;stroke-miterlimit:10;stroke-dasharray:none;stroke-opacity:1"
   d="m 463.12834,67.403581 h 48"
   inkscape:connector-curvature="0" /><path
   id="path7835"
   style="fill:none;stroke:#000000;stroke-width:2.39999986;stroke-linecap:butt;stroke-linejoin:miter;stroke-miterlimit:10;stroke-dasharray:none;stroke-opacity:1"
   d="m 511.12834,307.40357 h -96"
   inkscape:connector-curvature="0" /><path
   id="path7837"
   style="fill:none;stroke:#000000;stroke-width:2.39999986;stroke-linecap:butt;stroke-linejoin:miter;stroke-miterlimit:10;stroke-dasharray:none;stroke-opacity:1"
   d="M 343.12834,67.403581 H 229.12835"
   inkscape:connector-curvature="0" /><path
   id="path7839"
   style="fill:none;stroke:#000000;stroke-width:2.39999986;stroke-linecap:butt;stroke-linejoin:miter;stroke-miterlimit:10;stroke-dasharray:none;stroke-opacity:1"
   d="M 145.12835,139.40358 H 55.128352"
   inkscape:connector-curvature="0" /><path
   id="path7841"
   style="fill:none;stroke:#000000;stroke-width:0.59999996;stroke-linecap:butt;stroke-linejoin:miter;stroke-miterlimit:10;stroke-dasharray:4.79999988, 4.79999988;stroke-dashoffset:0;stroke-opacity:1"
   d="m 415.12834,307.40357 -72,-239.999989"
   inkscape:connector-curvature="0" /><path
   id="path7843"
   style="fill:none;stroke:#000000;stroke-width:0.59999996;stroke-linecap:butt;stroke-linejoin:miter;stroke-miterlimit:10;stroke-dasharray:4.79999988, 4.79999988;stroke-dashoffset:0;stroke-opacity:1"
   d="m 229.12835,67.403581 -84,71.999999"
   inkscape:connector-curvature="0" /><g
   clip-path="url(#clipPath7851)"
   id="g7847"
   transform="matrix(1.3333333,0,0,-1.3333333,-1.1369799,624.8729)"><g
     id="g7853"><g
       id="g7855"><g
         clip-path="url(#clipPath7861)"
         id="g7857"><g
           id="g7863"><g
             id="g7865"><g
               id="g7867"><g
                 clip-path="url(#clipPath7873)"
                 id="g7869"><g
                   id="g7875"><g
                     id="g7877"><g
                       id="g7879"><g
                         clip-path="url(#clipPath7885)"
                         id="g7881"><g
                           id="g7887"><path
                             id="path7889"
                             style="fill:none;stroke:#000000;stroke-width:0.44999999;stroke-linecap:butt;stroke-linejoin:miter;stroke-miterlimit:10;stroke-dasharray:none;stroke-opacity:1"
                             d="m 123.199,62.602 -22.5,27"
                             inkscape:connector-curvature="0" /></g></g></g></g></g></g></g></g></g></g></g></g></g><path
   id="path7893"
   style="fill:none;stroke:#000000;stroke-width:0.59999996;stroke-linecap:butt;stroke-linejoin:miter;stroke-miterlimit:10;stroke-dasharray:none;stroke-opacity:1"
   d="m 141.93102,512.20624 -7.92267,-5.76 4.24,8.88"
   inkscape:connector-curvature="0" /><g
   clip-path="url(#clipPath7901)"
   id="g7897"
   transform="matrix(1.3333333,0,0,-1.3333333,-1.1369799,624.8729)"><g
     id="g7903"><g
       id="g7905"><g
         clip-path="url(#clipPath7911)"
         id="g7907"><g
           id="g7913"><g
             id="g7915"><g
               id="g7917"><g
                 clip-path="url(#clipPath7923)"
                 id="g7919"><g
                   id="g7925"><g
                     id="g7927"><g
                       id="g7929"><g
                         clip-path="url(#clipPath7935)"
                         id="g7931"><g
                           id="g7937"><path
                             id="path7939"
                             style="fill:none;stroke:#000000;stroke-width:0.44999999;stroke-linecap:butt;stroke-linejoin:miter;stroke-miterlimit:10;stroke-dasharray:none;stroke-opacity:1"
                             d="m 172.699,62.602 31.5,27"
                             inkscape:connector-curvature="0" /></g></g></g></g></g></g></g></g></g></g></g></g></g><path
   id="path7943"
   style="fill:none;stroke:#000000;stroke-width:0.59999996;stroke-linecap:butt;stroke-linejoin:miter;stroke-miterlimit:10;stroke-dasharray:none;stroke-opacity:1"
   d="m 264.33235,514.2849 5.76,-8 -8.88,4.4"
   inkscape:connector-curvature="0" /><g
   clip-path="url(#clipPath7951)"
   id="g7947"
   transform="matrix(1.3333333,0,0,-1.3333333,-1.1369799,624.8729)"><g
     id="g7953"><g
       id="g7955"><g
         clip-path="url(#clipPath7961)"
         id="g7957"><g
           id="g7963"><g
             id="g7965"><g
               id="g7967"><g
                 clip-path="url(#clipPath7973)"
                 id="g7969"><g
                   id="g7975"><g
                     id="g7977"><g
                       id="g7979"><g
                         clip-path="url(#clipPath7985)"
                         id="g7981"><g
                           id="g7987"><path
                             id="path7989"
                             style="fill:none;stroke:#000000;stroke-width:0.44999999;stroke-linecap:butt;stroke-linejoin:miter;stroke-miterlimit:10;stroke-dasharray:none;stroke-opacity:1"
                             d="m 24.199,229.102 v 198"
                             inkscape:connector-curvature="0" /></g></g></g></g></g></g></g></g></g></g></g></g></g><path
   id="path7993"
   style="fill:none;stroke:#000000;stroke-width:0.59999996;stroke-linecap:butt;stroke-linejoin:miter;stroke-miterlimit:10;stroke-dasharray:none;stroke-opacity:1"
   d="m 34.727019,71.164914 -3.598666,-14.396 -3.598667,14.396"
   inkscape:connector-curvature="0" /><path
   id="path7995"
   style="fill:none;stroke:#000000;stroke-width:0.59999996;stroke-linecap:butt;stroke-linejoin:miter;stroke-miterlimit:10;stroke-dasharray:none;stroke-opacity:1"
   d="M 25.128353,307.40357 H 37.128352"
   inkscape:connector-curvature="0" /><text
   id="text7999"
   style="font-variant:normal;font-weight:normal;font-size:19.2px;font-family:'Liberation Sans';-inkscape-font-specification:LiberationSans;writing-mode:lr-tb;fill:#000000;fill-opacity:1;fill-rule:nonzero;stroke:none;stroke-width:1.33333"
   x="268.72968"
   y="13.406249"><tspan
     id="tspan7997"
     y="13.406249"
     x="268.72968"
     style="stroke-width:1.33333">2</tspan></text>
<text
   id="text8003"
   style="font-variant:normal;font-weight:normal;font-size:28.8px;font-family:'Liberation Sans';-inkscape-font-specification:LiberationSans;writing-mode:lr-tb;fill:#000000;fill-opacity:1;fill-rule:nonzero;stroke:none;stroke-width:1.33333"
   x="446.80969"
   y="351.88623"><tspan
     id="tspan8001"
     y="351.88623"
     x="446.80969 461.20969 476.67529"
     style="stroke-width:1.33333">exp</tspan></text>
<text
   id="text8009"
   style="font-variant:normal;font-weight:normal;font-size:19.2px;font-family:'Liberation Sans';-inkscape-font-specification:LiberationSans;writing-mode:lr-tb;fill:#000000;fill-opacity:1;fill-rule:nonzero;stroke:none;stroke-width:1.33333"
   x="547.60968"
   y="291.88623"><tspan
     id="tspan8005"
     y="291.88623"
     x="547.60968"
     style="stroke-width:1.33333">+</tspan><tspan
     id="tspan8007"
     y="619.48621"
     x="65.209702 71.257675 82.988876 94.009666 103.55206 114.5729 124.17287 135.90407 146.92487 156.52489 168.19847 175.6673 180.9857 191.96808 202.6433 211.11047 218.57928 224.56969 233.09448 239.14247 248.74246 254.06087 271.09128 280.69128 291.71207 301.31207"
     style="stroke-width:1.33333">independent particle model</tspan></text>
<text
   id="text8021"
   style="font-variant:normal;font-weight:normal;font-size:28.8px;font-family:'Liberation Sans';-inkscape-font-specification:LiberationSans;writing-mode:lr-tb;fill:#000000;fill-opacity:1;fill-rule:nonzero;stroke:none;stroke-width:1.33333"
   x="91.129417"
   y="115.40625"><tspan
     id="tspan8011"
     y="115.40625"
     x="91.129417"
     style="stroke-width:1.33333">j</tspan><tspan
     id="tspan8013"
     y="25.406252"
     x="259.12939 267.65421 275.63181 285.2222 301.23502"
     style="stroke-width:1.33333">j (0)</tspan><tspan
     id="tspan8015"
     y="308.68625"
     x="532.0094 548.02222 555.99982 565.59021 580.99817 594.33264"
     style="stroke-width:1.33333">0 (gs)</tspan><tspan
     id="tspan8017"
     y="427.48624"
     x="337.52939"
     style="stroke-width:1.33333">j</tspan><tspan
     id="tspan8019"
     y="427.00604"
     x="154.5694"
     style="stroke-width:1.33333">j</tspan></text>
<text
   id="text8025"
   style="font-variant:normal;font-weight:normal;font-size:26.4px;font-family:'Liberation Sans';-inkscape-font-specification:LiberationSans;writing-mode:lr-tb;fill:#000000;fill-opacity:1;fill-rule:nonzero;stroke:none;stroke-width:1.33333"
   transform="rotate(-90)"
   x="-247.40623"
   y="19.129686"><tspan
     id="tspan8023"
     y="19.129686"
     x="-247.40623 -228.42464 -221.11185 -212.32065 -187.45184 -174.25185 -155.27025"
     style="stroke-width:1.33333">E (MeV)</tspan></text>
<g
   transform="matrix(1.3333333,0,0,1.2515333,-1.1369799,-1.793751)"
   id="g8027"><path
     id="path8029"
     style="fill:#929292;fill-opacity:1;fill-rule:nonzero;stroke:#000000;stroke-width:0.82573003;stroke-linecap:butt;stroke-linejoin:miter;stroke-miterlimit:4;stroke-dasharray:none;stroke-opacity:1"
     d="m 254.621,371.698 c 0,17.812 -14.441,32.252 -32.254,32.252 -17.816,0 -32.258,-14.44 -32.258,-32.252 0,-17.815 14.442,-32.256 32.258,-32.256 17.813,0 32.254,14.441 32.254,32.256 z"
     inkscape:connector-curvature="0" /></g><g
   transform="matrix(1.3333333,0,0,1.2515333,-1.1369799,-1.793751)"
   id="g8031"><path
     id="path8033"
     style="fill:#929292;fill-opacity:1;fill-rule:nonzero;stroke:#000000;stroke-width:0.82573003;stroke-linecap:butt;stroke-linejoin:miter;stroke-miterlimit:4;stroke-dasharray:none;stroke-opacity:1"
     d="m 117.02,371.698 c 0,17.812 -14.442,32.252 -32.254,32.252 -17.813,0 -32.254,-14.44 -32.254,-32.252 0,-17.815 14.441,-32.256 32.254,-32.256 17.812,0 32.254,14.441 32.254,32.256 z"
     inkscape:connector-curvature="0" /></g><path
   id="path8035"
   style="fill:none;stroke:#000000;stroke-width:2.27931857;stroke-linecap:butt;stroke-linejoin:miter;stroke-miterlimit:4;stroke-dasharray:none;stroke-opacity:1"
   d="m 550.51367,182.75291 h 11.45334"
   inkscape:connector-curvature="0" /><g
   transform="matrix(0.96917776,0,0,0.96917776,388.80648,386.95176)"
   id="g5013"><path
     id="path5015"
     style="fill:none;stroke:#000000;stroke-width:2.4;stroke-linecap:butt;stroke-linejoin:miter;stroke-miterlimit:4;stroke-dasharray:none;stroke-opacity:1"
     d="m 303.434,124.434 c 0,32.355 -25.457,58.586 -25.457,58.586 0,0 -25.454,-26.231 -25.454,-58.586 0,-32.36 25.454,-58.59 25.454,-58.59 0,0 25.457,26.23 25.457,58.59 z"
     inkscape:connector-curvature="0" /></g><g
   transform="matrix(0.96917776,0,0,0.96917776,388.80648,386.95176)"
   id="g5017"><path
     id="path5019"
     style="fill:none;stroke:#000000;stroke-width:3.30631;stroke-linecap:butt;stroke-linejoin:miter;stroke-miterlimit:4;stroke-dasharray:none;stroke-opacity:1"
     d="m 201.434,191.082 14.464,-14.465"
     inkscape:connector-curvature="0" /></g><g
   transform="matrix(0.96917776,0,0,0.96917776,388.80648,386.95176)"
   id="g5021"><path
     id="path5023"
     style="fill:none;stroke:#000000;stroke-width:3.30631;stroke-linecap:butt;stroke-linejoin:miter;stroke-miterlimit:4;stroke-dasharray:none;stroke-opacity:1"
     d="M 215.898,191.082 201.434,176.617"
     inkscape:connector-curvature="0" /></g><g
   transform="matrix(0.96917776,0,0,0.96917776,388.80648,386.95176)"
   id="g5025"><path
     id="path5027"
     style="fill:none;stroke:#000000;stroke-width:2.17224;stroke-linecap:butt;stroke-linejoin:miter;stroke-miterlimit:4;stroke-dasharray:6.51673, 6.51673;stroke-dashoffset:0;stroke-opacity:1"
     d="M 207.941,183.656 H 278.07"
     inkscape:connector-curvature="0" /></g><g
   transform="matrix(0.96917776,0,0,0.96917776,388.80648,386.95176)"
   id="g5033"><path
     id="path5035"
     style="fill:none;stroke:#000000;stroke-width:1.6;stroke-linecap:round;stroke-linejoin:miter;stroke-miterlimit:4;stroke-dasharray:none;stroke-opacity:1"
     d="m 241.039,134.918 11.832,-20.496"
     inkscape:connector-curvature="0" /></g><g
   transform="matrix(0.96917776,0,0,0.96917776,388.80648,386.95176)"
   id="g5037"><path
     id="path5039"
     style="fill:none;stroke:#000000;stroke-width:1.6;stroke-linecap:round;stroke-linejoin:miter;stroke-miterlimit:4;stroke-dasharray:none;stroke-opacity:1"
     d="M 264.688,134.969 252.855,114.473"
     inkscape:connector-curvature="0" /></g><g
   id="g1989"
   transform="matrix(1,0,0,-1,52,1010.6252)"><g
     id="g5041"
     transform="matrix(0.96917776,0,0,-0.96917776,336.80648,386.95176)"><path
       inkscape:connector-curvature="0"
       d="m 291.039,-111.902 11.832,-20.496"
       style="fill:none;stroke:#000000;stroke-width:1.6;stroke-linecap:round;stroke-linejoin:miter;stroke-miterlimit:4;stroke-dasharray:none;stroke-opacity:1"
       id="path5043" /></g><g
     id="g5045"
     transform="matrix(0.96917776,0,0,-0.96917776,336.80648,386.95176)"><path
       inkscape:connector-curvature="0"
       d="m 314.688,-111.852 -11.833,-20.496"
       style="fill:none;stroke:#000000;stroke-width:1.6;stroke-linecap:round;stroke-linejoin:miter;stroke-miterlimit:4;stroke-dasharray:none;stroke-opacity:1"
       id="path5047" /></g></g><text
   id="text5051"
   style="font-variant:normal;font-weight:normal;font-size:79.4488px;font-family:Arial;-inkscape-font-specification:ArialMT;writing-mode:lr-tb;fill:#000000;fill-opacity:1;fill-rule:nonzero;stroke:none;stroke-width:0.969178"
   x="469.01849"
   y="539.51654"><tspan
     id="tspan5049"
     y="539.51654"
     x="469.01849"
     style="stroke-width:0.969178">=</tspan></text>
<text
   id="text5059"
   style="font-variant:normal;font-weight:normal;font-size:76.1073px;font-family:Arial;-inkscape-font-specification:ArialMT;writing-mode:lr-tb;fill:#000000;fill-opacity:1;fill-rule:nonzero;stroke:none;stroke-width:0.969178"
   x="715.57465"
   y="538.26178"><tspan
     id="tspan5057"
     y="538.26178"
     x="715.57465"
     style="stroke-width:0.969178">+</tspan></text>
<g
   transform="matrix(0.96917776,0,0,0.96917776,379.50338,386.95176)"
   id="g5065"><path
     id="path5067"
     style="fill:none;stroke:#000000;stroke-width:2.17224;stroke-linecap:butt;stroke-linejoin:miter;stroke-miterlimit:4;stroke-dasharray:6.51673, 6.51673;stroke-dashoffset:0;stroke-opacity:1"
     d="M 9.539,146.434 H 79.668"
     inkscape:connector-curvature="0" /></g><g
   transform="matrix(0.96917776,0,0,0.96917776,379.50338,386.95176)"
   id="g5069"><path
     id="path5071"
     style="fill:none;stroke:#000000;stroke-width:3.30631;stroke-linecap:butt;stroke-linejoin:miter;stroke-miterlimit:4;stroke-dasharray:none;stroke-opacity:1"
     d="M 1.652,153.613 16.117,139.148"
     inkscape:connector-curvature="0" /></g><g
   transform="matrix(0.96917776,0,0,0.96917776,379.50338,386.95176)"
   id="g5073"><path
     id="path5075"
     style="fill:none;stroke:#000000;stroke-width:3.30631;stroke-linecap:butt;stroke-linejoin:miter;stroke-miterlimit:4;stroke-dasharray:none;stroke-opacity:1"
     d="M 16.117,153.613 1.652,139.148"
     inkscape:connector-curvature="0" /></g><g
   transform="matrix(0.96917776,0,0,0.96917776,378.80648,386.95176)"
   id="g5091"><path
     id="path5093"
     style="fill:none;stroke:#000000;stroke-width:2.4;stroke-linecap:butt;stroke-linejoin:miter;stroke-miterlimit:4;stroke-dasharray:none;stroke-opacity:1"
     d="m 511,159.953 c -28.543,-15.242 -39.691,-50.055 -39.691,-50.055 0,0 35.129,-10.097 63.671,5.145 28.543,15.242 39.692,50.055 39.692,50.055 0,0 -35.129,10.097 -63.672,-5.145 z"
     inkscape:connector-curvature="0" /></g><g
   transform="matrix(0.96917776,0,0,0.96917776,378.80648,386.95176)"
   id="g5099"><path
     id="path5101"
     style="fill:none;stroke:#000000;stroke-width:2.17224;stroke-linecap:butt;stroke-linejoin:miter;stroke-miterlimit:4;stroke-dasharray:6.51673, 6.51673;stroke-dashoffset:0;stroke-opacity:1"
     d="m 401.57,109.949 h 70.129"
     inkscape:connector-curvature="0" /></g><g
   transform="matrix(0.96917776,0,0,0.96917776,378.80648,386.95176)"
   id="g5103"><path
     id="path5105"
     style="fill:none;stroke:#000000;stroke-width:3.30631;stroke-linecap:butt;stroke-linejoin:miter;stroke-miterlimit:4;stroke-dasharray:none;stroke-opacity:1"
     d="m 392.902,117.352 14.465,-14.465"
     inkscape:connector-curvature="0" /></g><g
   transform="matrix(0.96917776,0,0,0.96917776,378.80648,386.95176)"
   id="g5107"><path
     id="path5109"
     style="fill:none;stroke:#000000;stroke-width:3.30631;stroke-linecap:butt;stroke-linejoin:miter;stroke-miterlimit:4;stroke-dasharray:none;stroke-opacity:1"
     d="M 407.367,117.352 392.902,102.887"
     inkscape:connector-curvature="0" /></g><g
   id="g1995"
   transform="rotate(173.35843,847.439,539.37287)"><g
     id="g5111"
     transform="matrix(0.75808989,-0.96917776,0.96917776,0.75808989,336.80648,386.95176)"><path
       inkscape:connector-curvature="0"
       d="m 139.195,394.516 9.318,-16.144"
       style="fill:none;stroke:#000000;stroke-width:1.26026;stroke-linecap:round;stroke-linejoin:miter;stroke-miterlimit:4;stroke-dasharray:none;stroke-opacity:1"
       id="path5113" /></g><g
     id="g5115"
     transform="matrix(0.75808989,-0.96917776,0.96917776,0.75808989,336.80648,386.95176)"><path
       inkscape:connector-curvature="0"
       d="m 157.823,394.555 -9.319,-16.144"
       style="fill:none;stroke:#000000;stroke-width:1.26026;stroke-linecap:round;stroke-linejoin:miter;stroke-miterlimit:4;stroke-dasharray:none;stroke-opacity:1"
       id="path5117" /></g></g><g
   transform="matrix(-0.87681222,0.96917776,-0.96917776,-0.87681222,378.80648,386.95176)"
   id="g5119"><path
     id="path5121"
     style="fill:none;stroke:#000000;stroke-width:1.18649;stroke-linecap:round;stroke-linejoin:miter;stroke-miterlimit:4;stroke-dasharray:none;stroke-opacity:1"
     d="m -212.812,-345.63 8.774,-15.199"
     inkscape:connector-curvature="0" /></g><g
   transform="matrix(-0.87681222,0.96917776,-0.96917776,-0.87681222,378.80648,386.95176)"
   id="g5123"><path
     id="path5125"
     style="fill:none;stroke:#000000;stroke-width:1.18649;stroke-linecap:round;stroke-linejoin:miter;stroke-miterlimit:4;stroke-dasharray:none;stroke-opacity:1"
     d="m -195.275,-345.593 -8.774,-15.199"
     inkscape:connector-curvature="0" /></g><rect
   style="opacity:1;fill:none;fill-opacity:1;stroke:#000000;stroke-width:0.6280241;stroke-linecap:round;stroke-miterlimit:4;stroke-dasharray:none;stroke-dashoffset:0;stroke-opacity:1"
   id="rect6182"
   width="596.93182"
   height="219.75667"
   x="360.34592"
   y="370.22733" /><g
   id="g7285"
   transform="matrix(5.5751111,0,0,3.7665185,-228.22243,-86.521834)"><path
     style="fill:none;fill-rule:evenodd;stroke:#000000;stroke-width:0.264583px;stroke-linecap:butt;stroke-linejoin:miter;stroke-opacity:1"
     d="m 120.5744,131.63541 v 31.75"
     id="path7281"
     inkscape:connector-curvature="0" /><path
     id="path7283"
     d="m 122.69108,131.63541 v 31.75"
     style="fill:none;fill-rule:evenodd;stroke:#000000;stroke-width:0.264583px;stroke-linecap:butt;stroke-linejoin:miter;stroke-opacity:1"
     inkscape:connector-curvature="0" /></g><g
   transform="matrix(5.5751111,0,0,5.5751111,-227.80327,-343.66733)"
   id="g7295"><g
     id="g7289"
     transform="matrix(0.17384008,0,0,0.17384008,77.599745,122.5577)"><path
       d="m 241.039,134.918 11.832,-20.496"
       style="fill:none;stroke:#000000;stroke-width:1.6;stroke-linecap:round;stroke-linejoin:miter;stroke-miterlimit:4;stroke-dasharray:none;stroke-opacity:1"
       id="path7287"
       inkscape:connector-curvature="0" /></g><g
     id="g7293"
     transform="matrix(0.17384008,0,0,0.17384008,77.599745,122.5577)"><path
       d="M 264.688,134.969 252.855,114.473"
       style="fill:none;stroke:#000000;stroke-width:1.6;stroke-linecap:round;stroke-linejoin:miter;stroke-miterlimit:4;stroke-dasharray:none;stroke-opacity:1"
       id="path7291"
       inkscape:connector-curvature="0" /></g></g><g
   id="g7387"
   transform="matrix(5.5751111,0,0,5.5751111,-50.71223,-602.10874)"><g
     id="g7301"
     transform="matrix(1,0,0,0.41071429,5.5284528,121.96574)"><path
       style="fill:none;fill-rule:evenodd;stroke:#000000;stroke-width:0.264583px;stroke-linecap:butt;stroke-linejoin:miter;stroke-opacity:1"
       d="m 120.5744,131.63541 v 31.75"
       id="path7297"
       inkscape:connector-curvature="0" /><path
       id="path7299"
       d="m 122.69108,131.63541 v 31.75"
       style="fill:none;fill-rule:evenodd;stroke:#000000;stroke-width:0.264583px;stroke-linecap:butt;stroke-linejoin:miter;stroke-opacity:1"
       inkscape:connector-curvature="0" /></g><g
     transform="translate(5.6036367,37.782568)"
     id="g7311"><g
       id="g7305"
       transform="matrix(0.17384008,0,0,0.17384008,77.599745,122.5577)"><path
         d="m 241.039,134.918 11.832,-20.496"
         style="fill:none;stroke:#000000;stroke-width:1.6;stroke-linecap:round;stroke-linejoin:miter;stroke-miterlimit:4;stroke-dasharray:none;stroke-opacity:1"
         id="path7303"
         inkscape:connector-curvature="0" /></g><g
       id="g7309"
       transform="matrix(0.17384008,0,0,0.17384008,77.599745,122.5577)"><path
         d="M 264.688,134.969 252.855,114.473"
         style="fill:none;stroke:#000000;stroke-width:1.6;stroke-linecap:round;stroke-linejoin:miter;stroke-miterlimit:4;stroke-dasharray:none;stroke-opacity:1"
         id="path7307"
         inkscape:connector-curvature="0" /></g></g></g><g
   id="g7377"
   transform="matrix(5.5751111,0,0,5.5751111,-71.7014,-572.07477)"><g
     transform="matrix(1,0,0,0.41071429,59.201072,133.02154)"
     id="g7323"><path
       id="path7319"
       d="m 120.5744,131.63541 v 31.75"
       style="fill:none;fill-rule:evenodd;stroke:#000000;stroke-width:0.264583px;stroke-linecap:butt;stroke-linejoin:miter;stroke-opacity:1"
       inkscape:connector-curvature="0" /><path
       style="fill:none;fill-rule:evenodd;stroke:#000000;stroke-width:0.264583px;stroke-linecap:butt;stroke-linejoin:miter;stroke-opacity:1"
       d="m 122.69108,131.63541 v 31.75"
       id="path7321"
       inkscape:connector-curvature="0" /></g><g
     id="g7333"
     transform="translate(59.276256,48.838372)"><g
       transform="matrix(0.17384008,0,0,0.17384008,77.599745,122.5577)"
       id="g7327"><path
         id="path7325"
         style="fill:none;stroke:#000000;stroke-width:1.6;stroke-linecap:round;stroke-linejoin:miter;stroke-miterlimit:4;stroke-dasharray:none;stroke-opacity:1"
         d="m 241.039,134.918 11.832,-20.496"
         inkscape:connector-curvature="0" /></g><g
       transform="matrix(0.17384008,0,0,0.17384008,77.599745,122.5577)"
       id="g7331"><path
         id="path7329"
         style="fill:none;stroke:#000000;stroke-width:1.6;stroke-linecap:round;stroke-linejoin:miter;stroke-miterlimit:4;stroke-dasharray:none;stroke-opacity:1"
         d="M 264.688,134.969 252.855,114.473"
         inkscape:connector-curvature="0" /></g></g></g><g
   id="g7357"
   transform="matrix(5.5751111,0,0,5.5751111,-83.03447,-602.46471)"><g
     style="fill:#ffffff;fill-opacity:1"
     transform="matrix(-0.27289317,0.23027054,-0.23027054,-0.27289317,-24.108448,144.5835)"
     id="g7337"><path
       id="path7335"
       style="fill:#ffffff;fill-opacity:1;stroke:#040404;stroke-width:1.1162;stroke-linecap:round;stroke-linejoin:round;stroke-miterlimit:4;stroke-dasharray:none;stroke-opacity:0.992157"
       d="m -251.81,-379.414 c 0,1.906 -1.549,3.455 -3.455,3.455 -1.909,-10e-4 -3.456,-1.548 -3.456,-3.455 10e-4,-1.909 1.546,-3.457 3.455,-3.455 1.907,-10e-4 3.457,1.546 3.456,3.455 z"
       inkscape:connector-curvature="0" /></g><g
     style="fill:#000000;fill-opacity:1"
     id="g7341"
     transform="matrix(-0.08116449,0.06848757,-0.06848757,-0.08116449,86.216136,176.03055)"><path
       d="m -251.81,-379.414 c 0,1.906 -1.549,3.455 -3.455,3.455 -1.909,-10e-4 -3.456,-1.548 -3.456,-3.455 10e-4,-1.909 1.546,-3.457 3.455,-3.455 1.907,-10e-4 3.457,1.546 3.456,3.455 z"
       style="fill:#000000;fill-opacity:1;stroke:#040404;stroke-width:1.1162;stroke-linecap:round;stroke-linejoin:round;stroke-miterlimit:4;stroke-dasharray:none;stroke-opacity:0.992157"
       id="path7339"
       inkscape:connector-curvature="0" /></g></g><g
   transform="matrix(5.5751111,0,0,5.5751111,194.96988,-509.37381)"
   id="g7367"><g
     id="g7361"
     transform="matrix(-0.27289317,0.23027054,-0.23027054,-0.27289317,-24.108448,144.5835)"
     style="fill:#ffffff;fill-opacity:1"><path
       d="m -251.81,-379.414 c 0,1.906 -1.549,3.455 -3.455,3.455 -1.909,-10e-4 -3.456,-1.548 -3.456,-3.455 10e-4,-1.909 1.546,-3.457 3.455,-3.455 1.907,-10e-4 3.457,1.546 3.456,3.455 z"
       style="fill:#ffffff;fill-opacity:1;stroke:#040404;stroke-width:1.1162;stroke-linecap:round;stroke-linejoin:round;stroke-miterlimit:4;stroke-dasharray:none;stroke-opacity:0.992157"
       id="path7359"
       inkscape:connector-curvature="0" /></g><g
     transform="matrix(-0.08116449,0.06848757,-0.06848757,-0.08116449,86.216136,176.03055)"
     id="g7365"
     style="fill:#000000;fill-opacity:1"><path
       id="path7363"
       style="fill:#000000;fill-opacity:1;stroke:#040404;stroke-width:1.1162;stroke-linecap:round;stroke-linejoin:round;stroke-miterlimit:4;stroke-dasharray:none;stroke-opacity:0.992157"
       d="m -251.81,-379.414 c 0,1.906 -1.549,3.455 -3.455,3.455 -1.909,-10e-4 -3.456,-1.548 -3.456,-3.455 10e-4,-1.909 1.546,-3.457 3.455,-3.455 1.907,-10e-4 3.457,1.546 3.456,3.455 z"
       inkscape:connector-curvature="0" /></g></g><g
   transform="matrix(6.922541,0,0,6.922541,516.0923,474.61134)"
   ns1:version="1.0.1"
   ns1:texconverter="pdflatex"
   ns1:pdfconverter="inkscape"
   ns1:text="$\\sum$"
   ns1:preamble="/home/gregory/.config/inkscape/extensions/textext/default_packages.tex"
   ns1:scale="1.084572854397897"
   ns1:alignment="middle center"
   ns1:inkscapeversion="0.92.4"
   ns1:jacobian_sqrt="1.44609"
   id="g3408"><defs
   id="id-27d88c58-984f-4454-a9ea-6728979fb7f2">
    <g
   id="id-984a4f5d-a709-427f-a3fb-a2358f760e41">
      <symbol
   overflow="visible"
   id="id-7c736c33-f78c-4230-8cf3-c09159ec80cc">
        <path
   style="stroke:none"
   d=""
   id="id-529d04d5-1bff-483e-b2c8-2646170f0441" />
      </symbol>
      <symbol
   overflow="visible"
   id="id-0fd1fdae-b06e-4484-a3ad-8d310dca948a">
        <path
   style="stroke:none"
   d="m 4.203125,5.328125 -3.546875,4.375 C 0.578125,9.796875 0.5625,9.8125 0.5625,9.859375 c 0,0.109375 0.09375,0.109375 0.28125,0.109375 h 8.25 L 9.953125,7.484375 h -0.25 C 9.453125,8.234375 8.796875,8.84375 7.9375,9.125 7.78125,9.1875 7.09375,9.421875 5.625,9.421875 H 1.390625 l 3.46875,-4.28125 C 4.921875,5.046875 4.9375,5.03125 4.9375,4.984375 4.9375,4.9375 4.9375,4.9375 4.875,4.84375 L 1.640625,0.40625 h 3.9375 c 1.140625,0 3.4375,0.0625 4.125,1.921875 h 0.25 L 9.09375,0 h -8.25 C 0.5625,0 0.5625,0.015625 0.5625,0.3125 Z m 0,0"
   id="id-123d397f-d839-4095-a51f-c4c657df8d3d" />
      </symbol>
    </g>
  </defs>
  <g
   id="id-c424b5bc-8509-46c2-a1ea-1234edf3ad13"
   transform="translate(-149.275,-127.293)">
    <g
   style="fill:#000000;fill-opacity:1"
   id="id-c125b672-2b7f-4f8e-9fdf-8118b44638df">
      <g
   transform="translate(148.712,127.293)"
   id="g3404"><path
   style="stroke:none"
   d="m 4.203125,5.328125 -3.546875,4.375 C 0.578125,9.796875 0.5625,9.8125 0.5625,9.859375 c 0,0.109375 0.09375,0.109375 0.28125,0.109375 h 8.25 L 9.953125,7.484375 h -0.25 C 9.453125,8.234375 8.796875,8.84375 7.9375,9.125 7.78125,9.1875 7.09375,9.421875 5.625,9.421875 H 1.390625 l 3.46875,-4.28125 C 4.921875,5.046875 4.9375,5.03125 4.9375,4.984375 4.9375,4.9375 4.9375,4.9375 4.875,4.84375 L 1.640625,0.40625 h 3.9375 c 1.140625,0 3.4375,0.0625 4.125,1.921875 h 0.25 L 9.09375,0 h -8.25 C 0.5625,0 0.5625,0.015625 0.5625,0.3125 Z m 0,0"
   id="id-1d116607-0364-4a84-8d39-5e0c80e46afd" />
      </g></g>
  </g>
</g></svg>
