<?xml version="1.0" encoding="UTF-8" standalone="no"?>
<!-- Created with Inkscape (http://www.inkscape.org/) -->

<svg
   xmlns:dc="http://purl.org/dc/elements/1.1/"
   xmlns:cc="http://creativecommons.org/ns#"
   xmlns:rdf="http://www.w3.org/1999/02/22-rdf-syntax-ns#"
   xmlns:svg="http://www.w3.org/2000/svg"
   xmlns="http://www.w3.org/2000/svg"
   xmlns:sodipodi="http://sodipodi.sourceforge.net/DTD/sodipodi-0.dtd"
   xmlns:inkscape="http://www.inkscape.org/namespaces/inkscape"
   width="1126.0468"
   height="807.21466"
   id="svg3003"
   version="1.1"
   inkscape:version="0.91 r13725"
   sodipodi:docname="figintro1.svg">
  <defs
     id="defs3005">
    <inkscape:path-effect
       is_visible="true"
       id="path-effect12882"
       effect="spiro" />
    <inkscape:path-effect
       effect="spiro"
       id="path-effect12878"
       is_visible="true" />
    <inkscape:path-effect
       effect="spiro"
       id="path-effect12874"
       is_visible="true" />
    <inkscape:path-effect
       is_visible="true"
       id="path-effect29490"
       effect="spiro" />
    <inkscape:path-effect
       effect="spiro"
       id="path-effect29487"
       is_visible="true" />
    <inkscape:path-effect
       is_visible="true"
       id="path-effect29484"
       effect="spiro" />
    <inkscape:path-effect
       effect="spiro"
       id="path-effect6285"
       is_visible="true" />
    <inkscape:path-effect
       effect="spiro"
       id="path-effect6281"
       is_visible="true" />
    <inkscape:path-effect
       effect="spiro"
       id="path-effect6239"
       is_visible="true" />
    <inkscape:path-effect
       effect="spiro"
       id="path-effect4790"
       is_visible="true" />
    <inkscape:path-effect
       is_visible="true"
       id="path-effect4786"
       effect="spiro" />
    <inkscape:path-effect
       effect="spiro"
       id="path-effect4782"
       is_visible="true" />
    <inkscape:path-effect
       effect="spiro"
       id="path-effect4774"
       is_visible="true" />
    <inkscape:path-effect
       effect="spiro"
       id="path-effect4750"
       is_visible="true" />
    <inkscape:path-effect
       is_visible="true"
       id="path-effect4726"
       effect="spiro" />
    <inkscape:path-effect
       effect="spiro"
       id="path-effect4722"
       is_visible="true" />
    <inkscape:path-effect
       is_visible="true"
       id="path-effect4716"
       effect="spiro" />
    <inkscape:path-effect
       effect="spiro"
       id="path-effect4712"
       is_visible="true" />
    <inkscape:path-effect
       is_visible="true"
       id="path-effect4696"
       effect="spiro" />
    <inkscape:path-effect
       effect="spiro"
       id="path-effect4692"
       is_visible="true" />
    <inkscape:path-effect
       effect="spiro"
       id="path-effect4688"
       is_visible="true" />
    <marker
       inkscape:stockid="Arrow1Mstart"
       orient="auto"
       refY="0"
       refX="0"
       id="Arrow1Mstart"
       style="overflow:visible">
      <path
         id="path3878"
         d="M 0,0 5,-5 -12.5,0 5,5 0,0 z"
         style="fill-rule:evenodd;stroke:#000000;stroke-width:1pt"
         transform="matrix(0.4,0,0,0.4,4,0)"
         inkscape:connector-curvature="0" />
    </marker>
    <marker
       inkscape:stockid="Arrow1Mend"
       orient="auto"
       refY="0"
       refX="0"
       id="Arrow1Mend"
       style="overflow:visible">
      <path
         id="path3881"
         d="M 0,0 5,-5 -12.5,0 5,5 0,0 z"
         style="fill-rule:evenodd;stroke:#000000;stroke-width:1pt"
         transform="matrix(-0.4,0,0,-0.4,-4,0)"
         inkscape:connector-curvature="0" />
    </marker>
    <marker
       inkscape:stockid="Arrow1Lend"
       orient="auto"
       refY="0"
       refX="0"
       id="Arrow1Lend"
       style="overflow:visible">
      <path
         id="path3875"
         d="M 0,0 5,-5 -12.5,0 5,5 0,0 z"
         style="fill-rule:evenodd;stroke:#000000;stroke-width:1pt"
         transform="matrix(-0.8,0,0,-0.8,-10,0)"
         inkscape:connector-curvature="0" />
    </marker>
    <inkscape:path-effect
       effect="spiro"
       id="path-effect3866"
       is_visible="true" />
    <inkscape:path-effect
       effect="spiro"
       id="path-effect3862"
       is_visible="true" />
    <inkscape:path-effect
       effect="spiro"
       id="path-effect3858"
       is_visible="true" />
    <inkscape:path-effect
       effect="spiro"
       id="path-effect3821"
       is_visible="true" />
    <inkscape:path-effect
       effect="spiro"
       id="path-effect3817"
       is_visible="true" />
    <inkscape:path-effect
       effect="spiro"
       id="path-effect3809"
       is_visible="true" />
    <inkscape:path-effect
       effect="spiro"
       id="path-effect3805"
       is_visible="true" />
    <inkscape:path-effect
       effect="spiro"
       id="path-effect3801"
       is_visible="true" />
    <inkscape:path-effect
       effect="spiro"
       id="path-effect3797"
       is_visible="true" />
    <inkscape:path-effect
       effect="spiro"
       id="path-effect3793"
       is_visible="true" />
    <inkscape:path-effect
       effect="spiro"
       id="path-effect3788"
       is_visible="true" />
    <inkscape:path-effect
       effect="spiro"
       id="path-effect3784"
       is_visible="true" />
    <inkscape:path-effect
       effect="spiro"
       id="path-effect5524"
       is_visible="true" />
    <inkscape:path-effect
       is_visible="true"
       id="path-effect5528"
       effect="spiro" />
    <inkscape:path-effect
       effect="spiro"
       id="path-effect12228"
       is_visible="true" />
    <inkscape:path-effect
       is_visible="true"
       id="path-effect12230"
       effect="spiro" />
    <inkscape:path-effect
       effect="spiro"
       id="path-effect12232"
       is_visible="true" />
    <inkscape:path-effect
       is_visible="true"
       id="path-effect12234"
       effect="spiro" />
    <inkscape:path-effect
       is_visible="true"
       id="path-effect7559"
       effect="spiro" />
    <inkscape:path-effect
       effect="spiro"
       id="path-effect7288"
       is_visible="true" />
    <inkscape:path-effect
       is_visible="true"
       id="path-effect7292"
       effect="spiro" />
  </defs>
  <sodipodi:namedview
     id="base"
     pagecolor="#ffffff"
     bordercolor="#666666"
     borderopacity="1.0"
     inkscape:pageopacity="0.0"
     inkscape:pageshadow="2"
     inkscape:zoom="2"
     inkscape:cx="417.41295"
     inkscape:cy="590.42426"
     inkscape:document-units="px"
     inkscape:current-layer="layer1"
     showgrid="false"
     inkscape:window-width="1321"
     inkscape:window-height="744"
     inkscape:window-x="39"
     inkscape:window-y="456"
     inkscape:window-maximized="1"
     fit-margin-top="0"
     fit-margin-left="0"
     fit-margin-right="0"
     fit-margin-bottom="0" />
  <metadata
     id="metadata3008">
    <rdf:RDF>
      <cc:Work
         rdf:about="">
        <dc:format>image/svg+xml</dc:format>
        <dc:type
           rdf:resource="http://purl.org/dc/dcmitype/StillImage" />
        <dc:title />
      </cc:Work>
    </rdf:RDF>
  </metadata>
  <g
     inkscape:label="Layer 1"
     inkscape:groupmode="layer"
     id="layer1"
     transform="translate(456.67871,-291.0401)">
    <path
       style="fill:#0700ab;fill-opacity:1;stroke:none"
       d="m 395.49069,308.13708 c 26.7136,13.92668 -21.31819,67.83662 -49.19179,67.62405 -27.57091,-0.21027 -72.34632,-55.62988 -47.63175,-67.62405 31.343,-15.21099 68.15531,-14.94568 96.82354,0 z"
       id="path3786"
       inkscape:connector-curvature="0"
       sodipodi:nodetypes="sass" />
    <path
       style="fill:none;stroke:#000000;stroke-width:8;stroke-linecap:butt;stroke-linejoin:miter;stroke-miterlimit:4;stroke-opacity:1;stroke-dasharray:none"
       d="m 665.36806,712.4258 c 0,0 -6.46522,-44.43697 -12.97758,-65.83534 -7.36418,-24.19728 -16.78633,-48.01126 -29.28572,-70 -15.81412,-27.81996 -35.81107,-53.28933 -57.14286,-77.14286 -11.486,-12.84382 -37.85564,-35.19913 -37.85564,-35.19913 l -70.71249,76.24294 c 0,0 29.33246,23.35312 41.42528,37.52762 16.97319,19.895 33.07188,41.46251 42.85714,65.71429 5.95155,14.75033 8.97032,46.86652 8.97032,46.86652 z"
       id="path3799"
       inkscape:connector-curvature="0"
       sodipodi:nodetypes="caaaccaacc" />
    <path
       style="fill:none;stroke:#ff0000;stroke-width:5;stroke-linecap:butt;stroke-linejoin:miter;stroke-miterlimit:4;stroke-opacity:1;stroke-dasharray:none"
       d="m 593.96969,697.39458 c -2.58051,-33.64674 -10.23588,-66.89975 -22.62741,-98.28784 -9.0617,-22.95354 -20.71824,-45.01968 -36.06245,-64.34672 -11.01948,-13.87975 -23.89821,-26.28149 -38.18376,-36.76955 21.56668,12.50258 41.38227,28.02082 58.68985,45.96194 25.00348,25.91873 44.56504,56.61506 61.5183,88.38835 13.31405,24.9528 25.12751,50.70615 35.35534,77.07464"
       id="path3815"
       inkscape:path-effect="#path-effect3817"
       inkscape:original-d="m 593.96969,697.39458 c 0,0 -10.51556,-66.92575 -22.62741,-98.28784 -8.858,-22.93668 -21.03507,-44.88564 -36.06245,-64.34672 -10.79933,-13.98558 -38.18376,-36.76955 -38.18376,-36.76955 0,0 41.62118,27.90357 58.68985,45.96194 24.6577,26.08742 43.71144,57.21991 61.5183,88.38835 14.02149,24.54266 35.35534,77.07464 35.35534,77.07464"
       inkscape:connector-curvature="0"
       sodipodi:nodetypes="caacaac" />
    <path
       style="fill:none;stroke:#ff0000;stroke-width:5;stroke-linecap:butt;stroke-linejoin:miter;stroke-miterlimit:4;stroke-opacity:1;stroke-dasharray:none"
       d="M 497,497.86218 C 447.64213,474.18582 396.87954,453.4383 345.0681,435.76507 308.02008,423.12774 270.3706,412.04544 231.93103,404.65237 166.38998,392.04689 99.268795,390.28994 32.526911,390.51024 c -42.91043,0.14164 -85.818214,1.08467 -128.693433,2.82843"
       id="path3819"
       inkscape:path-effect="#path-effect3821"
       inkscape:original-d="m 497,497.86218 c 0,0 -100.14111,-44.4626 -151.9319,-62.09711 -37.02493,-12.60681 -74.58577,-24.51158 -113.13707,-31.1127 -65.67911,-11.2462 -132.788984,-12.51543 -199.404119,-14.14213 -42.895383,-1.04748 -128.693433,2.82843 -128.693433,2.82843"
       inkscape:connector-curvature="0"
       sodipodi:nodetypes="caaac" />
    <path
       sodipodi:type="arc"
       style="opacity:0.98000004;fill:#3a00a6;fill-opacity:1;stroke:none"
       id="path3823"
       sodipodi:cx="240.41631"
       sodipodi:cy="172.72134"
       sodipodi:rx="45.254833"
       sodipodi:ry="45.254833"
       d="m 285.67114,172.72134 a 45.254833,45.254833 0 0 1 -45.25483,45.25484 45.254833,45.254833 0 0 1 -45.25484,-45.25484 45.254833,45.254833 0 0 1 45.25484,-45.25483 45.254833,45.254833 0 0 1 45.25483,45.25483 z"
       transform="translate(-50.097539,163.57359)" />
    <path
       sodipodi:type="arc"
       style="opacity:0.98000004;fill:#0700ab;fill-opacity:1;stroke:none"
       id="path3854"
       sodipodi:cx="222.38509"
       sodipodi:cy="361.16531"
       sodipodi:rx="13.788582"
       sodipodi:ry="13.788582"
       d="m 236.17367,361.16531 a 13.788582,13.788582 0 0 1 -13.78858,13.78859 13.788582,13.788582 0 0 1 -13.78859,-13.78859 13.788582,13.788582 0 0 1 13.78859,-13.78858 13.788582,13.788582 0 0 1 13.78858,13.78858 z"
       transform="matrix(1.2175713,0,0,1.2175713,-271.38462,-50.579215)" />
    <path
       style="fill:none;stroke:#ff0300;stroke-width:3.58788848;stroke-linecap:butt;stroke-linejoin:miter;stroke-miterlimit:4;stroke-opacity:1;stroke-dasharray:none"
       d="m 201.92604,1023.57 c 10.91062,1.5223 22.2414,-0.096 32.28935,-4.6127 3.2225,-1.4485 6.31428,-3.1876 9.22553,-5.1894 2.12258,3.5718 5.40356,6.4427 9.22553,8.0723 1.54443,0.6585 3.18181,1.1204 4.85531,1.2557 1.67351,0.1353 3.38511,-0.062 4.94681,-0.679 2.19352,-0.8659 3.98074,-2.4954 5.76596,-4.0363 2.59142,-2.2367 5.28601,-4.3539 8.07233,-6.3425 l 6.91915,5.766 c 1.37002,1.1417 2.75906,2.272 4.28935,3.1877 1.53029,0.9158 3.19405,1.6203 4.93618,2.0016 4.05355,0.8872 8.3387,0 12.1085,-1.7297 3.76763,-1.7331 7.14244,-4.3139 9.80213,-7.4958 l 8.07233,2.3064 c 1.60586,3.0742 4.30313,5.5639 7.49575,6.9191 1.66562,0.707 3.47294,1.1129 5.28149,1.0557 1.80855,-0.057 3.61722,-0.5912 5.09723,-1.6322 2.12185,-1.4925 3.41536,-3.8731 5.18936,-5.7659 2.52921,-2.6985 6.1107,-4.384 9.80213,-4.6129 2.2791,0.7015 4.32674,2.1349 5.76595,4.0362 1.08326,1.4311 1.82044,3.1027 2.93245,4.5116 0.556,0.7044 1.21004,1.3434 1.98665,1.7931 0.7766,0.4497 1.6835,0.7021 2.57663,0.6144 0.91866,-0.09 1.7713,-0.53 2.51482,-1.077 0.74353,-0.547 1.39818,-1.2039 2.09795,-1.8059 1.65078,-1.4201 3.58056,-2.5442 5.68424,-3.1066 2.10369,-0.5623 4.38597,-0.5426 6.42426,0.2236 1.178,0.4428 2.25065,1.1198 3.36234,1.7097 1.11169,0.5898 2.30029,1.1031 3.55681,1.1733 1.0122,0.057 2.02158,-0.1787 2.97467,-0.5241 0.95309,-0.3455 1.86196,-0.8007 2.79129,-1.2058 2.49854,-1.0891 5.13758,-1.8129 7.71498,-2.6994 2.57739,-0.8865 5.13403,-1.9583 7.27651,-3.6431 2.79328,-2.1966 4.73378,-5.3308 6.02224,-8.6424 1.28845,-3.3117 1.97066,-6.8228 2.62669,-10.31522 6.0955,-32.44965 10.47754,-65.22109 13.12179,-98.13222 0.66757,36.57402 3.53411,73.10778 8.57898,109.33834 0.45084,3.2378 0.95018,6.5652 2.59879,9.3881 0.82431,1.4114 1.93687,2.6732 3.31957,3.5449 1.3827,0.8716 3.04505,1.3356 4.67022,1.161 1.55224,-0.1668 2.98363,-0.8894 4.35776,-1.6304 1.37412,-0.741 2.76018,-1.5236 4.29117,-1.8291 1.32925,-0.2653 2.7242,-0.1534 4.0137,0.2643 1.28951,0.4177 2.4741,1.1358 3.48204,2.0421 0.89507,0.8048 1.65227,1.7539 2.55517,2.5499 0.45145,0.398 0.94061,0.7579 1.47947,1.0259 0.53887,0.268 1.12974,0.4425 1.73131,0.4604 0.65422,0.019 1.30458,-0.1464 1.90377,-0.4097 0.5992,-0.2634 1.15149,-0.6223 1.68388,-1.003 1.06479,-0.7614 2.0901,-1.6317 3.33151,-2.0469 1.13675,-0.3802 2.38082,-0.3463 3.55079,-0.086 1.16998,0.2606 2.27914,0.7385 3.36835,1.2389 2.60871,1.1984 5.21951,2.562 8.07233,2.8829 2.11435,0.2378 4.29298,-0.1253 6.21586,-1.0361 1.92288,-0.9108 3.58404,-2.3665 4.73946,-4.1531 0.88363,1.5999 2.26139,2.9223 3.89611,3.7397 1.63473,0.8173 3.51934,1.126 5.32941,0.873 2.16205,-0.3022 4.17312,-1.3902 5.76597,-2.8831 2.41379,-2.2623 3.87594,-5.3908 4.66212,-8.6043 0.78618,-3.2135 0.94632,-6.5422 1.10383,-9.8467 3.63795,-76.32348 7.67985,-152.62771 12.12548,-228.90841 1.7118,76.42214 5.5384,152.79689 11.47395,229.00741 0.25439,3.2663 0.51575,6.5514 1.32804,9.7253 0.8123,3.1739 2.2117,6.2617 4.47889,8.6267 3.21811,3.357 8.04987,4.9871 12.68511,4.6128 3.57911,-0.289 7.0572,-1.7211 9.80211,-4.0361 2.2852,1.6994 4.8191,3.0637 7.49576,4.0361 1.49491,0.5431 3.04915,0.9668 4.63799,1.0392 1.58884,0.072 3.22185,-0.224 4.58753,-1.0392 1.09544,-0.6539 1.97387,-1.6073 2.94653,-2.4329 0.48633,-0.4127 1.00136,-0.797 1.56858,-1.0888 0.56722,-0.2918 1.19004,-0.4896 1.82744,-0.5144 0.73999,-0.029 1.48743,0.1817 2.1036,0.5925 0.61618,0.4108 1.09797,1.0197 1.35597,1.7139"
       id="path3860"
       inkscape:path-effect="#path-effect3862"
       inkscape:original-d="m 201.92604,1023.57 c 0,0 21.99359,-1.1189 32.28935,-4.6127 3.34118,-1.1338 9.22553,-5.1894 9.22553,-5.1894 0,0 5.44431,6.5233 9.22553,8.0723 3.02875,1.2407 6.65296,1.4686 9.80212,0.5767 2.25731,-0.6393 3.88186,-2.6383 5.76596,-4.0363 2.74814,-2.039 8.07233,-6.3425 8.07233,-6.3425 l 6.91915,5.766 c 0,0 5.75762,4.5394 9.22553,5.1893 4.00739,0.751 8.34904,-0.1517 12.1085,-1.7297 3.79274,-1.5917 9.80213,-7.4958 9.80213,-7.4958 l 8.07233,2.3064 c 0,0 4.29575,5.7691 7.49575,6.9191 3.26079,1.1717 7.25385,0.9204 10.37872,-0.5765 2.332,-1.1172 3.11367,-4.224 5.18936,-5.7659 2.89878,-2.1534 9.80213,-4.6129 9.80213,-4.6129 0,0 3.93885,2.5645 5.76595,4.0362 2.6481,2.133 4.11023,6.6019 7.49573,6.9191 1.80528,0.1691 2.94003,-2.1833 4.61277,-2.8829 3.82766,-1.601 7.97296,-3.2167 12.1085,-2.883 2.49049,0.2009 4.4239,2.754 6.91915,2.883 2.00395,0.1027 3.87816,-1.0496 5.76596,-1.7299 5.1047,-1.8394 11.10181,-2.5594 14.99149,-6.3425 4.97914,-4.8427 6.72626,-12.2833 8.64893,-18.95762 9.13525,-31.71232 13.12179,-98.13222 13.12179,-98.13222 0,0 -4.34435,75.14063 8.57898,109.33834 2.07723,5.4968 4.93004,12.5098 10.58858,14.094 2.99008,0.8372 5.54648,-3.3323 8.64893,-3.4595 2.61198,-0.1076 5.14707,1.1584 7.49574,2.3064 2.1078,1.0302 3.4262,3.8638 5.76595,4.0362 2.57163,0.1895 4.36921,-3.0762 6.91916,-3.4596 2.3122,-0.3477 4.65602,0.5655 6.91914,1.1532 2.7655,0.7182 5.21863,3.0248 8.07233,2.8829 4.03574,-0.2006 10.95532,-5.1892 10.95532,-5.1892 0,0 5.78738,4.6127 9.22552,4.6127 2.14885,0 4.37341,-1.2465 5.76597,-2.8831 4.17578,-4.9075 4.62563,-12.1091 5.76595,-18.451 13.52195,-75.20379 12.12548,-228.90841 12.12548,-228.90841 0,0 -2.0784,153.78694 11.47395,229.00741 1.13769,6.3147 1.36694,13.7201 5.80693,18.352 3.11343,3.2481 8.18685,4.7069 12.68511,4.6128 3.53274,-0.073 9.80211,-4.0361 9.80211,-4.0361 0,0 4.74409,3.3423 7.49576,4.0361 2.98187,0.7518 6.27298,0.8597 9.22552,0 2.406,-0.7007 3.83675,-4.0628 6.34255,-4.0361 1.38589,0.016 3.45957,2.3064 3.45957,2.3064"
       inkscape:connector-curvature="0"
       sodipodi:nodetypes="cacaaaccaaccaaacaaaaaaaacaaaaaaaacaaacaaacaaac" />
    <path
       style="fill:none;stroke:#000000;stroke-width:3.0250001;stroke-linecap:butt;stroke-linejoin:miter;stroke-miterlimit:4;stroke-opacity:1;stroke-dasharray:none;marker-start:url(#Arrow1Mstart);marker-end:url(#Arrow1Mend)"
       d="m 193.23985,736.87452 0,291.34618 461.03469,0"
       id="path3864"
       inkscape:path-effect="#path-effect3866"
       inkscape:original-d="m 193.23985,736.87452 0,291.34618 461.03469,0"
       inkscape:connector-curvature="0" />
    <path
       style="fill:none;stroke:#000000;stroke-width:12.16480446;stroke-linecap:butt;stroke-linejoin:miter;stroke-miterlimit:4;stroke-opacity:1;stroke-dasharray:none"
       d="m 550.41108,686.56615 112.11557,21.40263"
       id="path4686"
       inkscape:path-effect="#path-effect4688"
       inkscape:original-d="m 550.41108,686.56615 112.11557,21.40263"
       inkscape:connector-curvature="0" />
    <path
       inkscape:connector-curvature="0"
       inkscape:original-d="m 57.656332,401.0898 6.25,-10.125 -6.25,-10.125 30.75,10.125 z"
       inkscape:path-effect="#path-effect4696"
       id="path4694"
       d="m 57.656332,401.0898 6.25,-10.125 -6.25,-10.125 30.75,10.125 -30.75,10.125 z"
       style="fill:#ff0000;fill-opacity:1;stroke:#ff0000;stroke-width:1px;stroke-linecap:butt;stroke-linejoin:miter;stroke-opacity:1"
       sodipodi:nodetypes="ccccc" />
    <text
       xml:space="preserve"
       style="font-size:28px;font-style:normal;font-weight:normal;line-height:125%;letter-spacing:0px;word-spacing:0px;fill:#fff8f8;fill-opacity:1;stroke:none;font-family:Sans"
       x="-9.2965546"
       y="396.42508"
       id="text4698"
       sodipodi:linespacing="125%"><tspan
         sodipodi:role="line"
         id="tspan4700"
         x="-9.2965546"
         y="396.42508"
         style="font-weight:bold;fill:#fff8f8;fill-opacity:1;-inkscape-font-specification:Sans Bold">α</tspan></text>
    <path
       transform="matrix(1.2175713,0,0,1.2175713,-84.634617,-41.579215)"
       d="m 236.17367,361.16531 a 13.788582,13.788582 0 0 1 -13.78858,13.78859 13.788582,13.788582 0 0 1 -13.78859,-13.78859 13.788582,13.788582 0 0 1 13.78859,-13.78858 13.788582,13.788582 0 0 1 13.78858,13.78858 z"
       sodipodi:ry="13.788582"
       sodipodi:rx="13.788582"
       sodipodi:cy="361.16531"
       sodipodi:cx="222.38509"
       id="path4702"
       style="opacity:0.98000004;fill:#0700ab;fill-opacity:1;stroke:none"
       sodipodi:type="arc" />
    <path
       sodipodi:nodetypes="sass"
       inkscape:connector-curvature="0"
       id="path4704"
       d="m 515.49069,364.45279 c 26.7136,-13.92668 -21.31819,-67.83662 -49.19179,-67.62405 -27.57091,0.21027 -72.34632,55.62988 -47.63175,67.62405 31.343,15.21099 68.15531,14.94568 96.82354,0 z"
       style="fill:#0700ab;fill-opacity:1;stroke:none" />
    <path
       style="fill:#000000;fill-opacity:1;stroke:#000000;stroke-width:0.35581234px;stroke-linecap:butt;stroke-linejoin:miter;stroke-opacity:1"
       d="m 267.08534,329.41838 0,4.77148 -17.1404,0 c 0.0188,1.30119 0.0122,2.60275 -0.0198,3.90368 -0.003,0.10215 -0.005,0.2043 -0.008,0.30645 l 17.16859,0 0,4.77149 18.66244,-6.87655 -18.66283,-6.87655 z"
       id="path4710"
       inkscape:path-effect="#path-effect4712"
       inkscape:original-d="m 267.08534,329.41838 0,4.77148 -17.1404,0 -0.0198,3.90368 -0.008,0.30645 17.16859,0 0,4.77149 18.66244,-6.87655 z"
       inkscape:connector-curvature="0"
       sodipodi:nodetypes="ccccccccc" />
    <path
       style="fill:none;stroke:#000000;stroke-width:2.5;stroke-linecap:butt;stroke-linejoin:miter;stroke-miterlimit:4;stroke-opacity:1;stroke-dasharray:none"
       d="m 540.5,1021.3622 0,15.5"
       id="path4720"
       inkscape:path-effect="#path-effect4722"
       inkscape:original-d="m 540.5,1021.3622 0,15.5"
       inkscape:connector-curvature="0" />
    <path
       inkscape:connector-curvature="0"
       inkscape:original-d="m 328.5,1021.3622 0,15.5"
       inkscape:path-effect="#path-effect4726"
       id="path4724"
       d="m 328.5,1021.3622 0,15.5"
       style="fill:none;stroke:#000000;stroke-width:2.5;stroke-linecap:butt;stroke-linejoin:miter;stroke-miterlimit:4;stroke-opacity:1;stroke-dasharray:none" />
    <text
       xml:space="preserve"
       style="font-size:28px;font-style:normal;font-weight:normal;line-height:125%;letter-spacing:0px;word-spacing:0px;fill:#000000;fill-opacity:1;stroke:none;font-family:Sans"
       x="533"
       y="1063.0399"
       id="text4728"
       sodipodi:linespacing="125%"><tspan
         sodipodi:role="line"
         id="tspan4730"
         x="533"
         y="1063.0399">0</tspan></text>
    <text
       xml:space="preserve"
       style="font-size:28px;font-style:normal;font-weight:normal;line-height:125%;letter-spacing:0px;word-spacing:0px;fill:#000000;fill-opacity:1;stroke:none;font-family:Sans"
       x="321"
       y="1062.8622"
       id="text4732"
       sodipodi:linespacing="125%"><tspan
         sodipodi:role="line"
         id="tspan4734"
         x="321"
         y="1062.8622">5</tspan></text>
    <text
       xml:space="preserve"
       style="font-size:28px;font-style:normal;font-weight:normal;line-height:125%;letter-spacing:0px;word-spacing:0px;fill:#000000;fill-opacity:1;stroke:none;font-family:Sans"
       x="513.43506"
       y="855.06927"
       id="text4736"
       sodipodi:linespacing="125%"><tspan
         sodipodi:role="line"
         id="tspan4738"
         x="513.43506"
         y="855.06927">a</tspan></text>
    <text
       xml:space="preserve"
       style="font-size:28px;font-style:normal;font-weight:normal;line-height:125%;letter-spacing:0px;word-spacing:0px;fill:#000000;fill-opacity:1;stroke:none;font-family:Sans"
       x="405.19238"
       y="952.70532"
       id="text4740"
       sodipodi:linespacing="125%"><tspan
         sodipodi:role="line"
         id="tspan4742"
         x="405.19238"
         y="952.70532">b</tspan></text>
    <text
       xml:space="preserve"
       style="font-size:28px;font-style:normal;font-weight:normal;line-height:125%;letter-spacing:0px;word-spacing:0px;fill:#000000;fill-opacity:1;stroke:none;font-family:Sans"
       x="332.20102"
       y="765.73474"
       id="text4744"
       sodipodi:linespacing="125%"><tspan
         sodipodi:role="line"
         id="tspan4746"
         x="332.20102"
         y="765.73474">ground state</tspan></text>
    <path
       style="fill:none;stroke:#000000;stroke-width:1.5;stroke-linecap:butt;stroke-linejoin:miter;stroke-miterlimit:4;stroke-opacity:1;stroke-dasharray:none"
       d="m 468.10469,770.22658 64.34671,30.40559"
       id="path4748"
       inkscape:path-effect="#path-effect4750"
       inkscape:original-d="m 468.10469,770.22658 64.34671,30.40559"
       inkscape:connector-curvature="0" />
    <text
       xml:space="preserve"
       style="font-size:28px;font-style:normal;font-weight:normal;line-height:125%;letter-spacing:0px;word-spacing:0px;fill:#000000;fill-opacity:1;stroke:none;font-family:Sans"
       x="586.19153"
       y="728.50732"
       id="text4752"
       sodipodi:linespacing="125%"><tspan
         sodipodi:role="line"
         id="tspan4754"
         x="586.19153"
         y="728.50732">b</tspan></text>
    <text
       xml:space="preserve"
       style="font-size:28px;font-style:normal;font-weight:normal;line-height:125%;letter-spacing:0px;word-spacing:0px;fill:#000000;fill-opacity:1;stroke:none;font-family:Sans"
       x="642.76007"
       y="737.69971"
       id="text4756"
       sodipodi:linespacing="125%"><tspan
         sodipodi:role="line"
         id="tspan4758"
         x="642.76007"
         y="737.69971">a</tspan></text>
    <text
       xml:space="preserve"
       style="font-size:28px;font-style:normal;font-weight:normal;line-height:125%;letter-spacing:0px;word-spacing:0px;fill:#000000;fill-opacity:1;stroke:none;font-family:Sans"
       x="315"
       y="1092.3622"
       id="text4760"
       sodipodi:linespacing="125%"><tspan
         sodipodi:role="line"
         id="tspan4762"
         x="315"
         y="1092.3622">energy loss (MeV)</tspan></text>
    <text
       xml:space="preserve"
       style="font-size:28px;font-style:normal;font-weight:normal;line-height:125%;letter-spacing:0px;word-spacing:0px;fill:#000000;fill-opacity:1;stroke:none;font-family:Sans"
       x="-998.85339"
       y="173.96973"
       id="text4764"
       sodipodi:linespacing="125%"
       transform="matrix(0,-1,1,0,0,0)"><tspan
         sodipodi:role="line"
         id="tspan4766"
         x="-998.85339"
         y="173.96973">number α-particles</tspan></text>
    <text
       xml:space="preserve"
       style="font-size:28px;font-style:normal;font-weight:normal;line-height:125%;letter-spacing:0px;word-spacing:0px;fill:#000000;fill-opacity:1;stroke:none;font-family:Sans"
       x="337.99704"
       y="644.36157"
       id="text4768"
       sodipodi:linespacing="125%"><tspan
         sodipodi:role="line"
         id="tspan4770"
         x="337.99704"
         y="644.36157">magnet</tspan></text>
    <path
       style="fill:none;stroke:#000000;stroke-width:1.5;stroke-linecap:butt;stroke-linejoin:miter;stroke-miterlimit:4;stroke-opacity:1;stroke-dasharray:none"
       d="m 436.99199,636.5834 76.36753,-22.62742"
       id="path4772"
       inkscape:path-effect="#path-effect4774"
       inkscape:original-d="m 436.99199,636.5834 76.36753,-22.62742"
       inkscape:connector-curvature="0" />
    <text
       xml:space="preserve"
       style="font-size:28px;font-style:normal;font-weight:normal;line-height:125%;letter-spacing:0px;word-spacing:0px;fill:#000000;fill-opacity:1;stroke:none;font-family:Sans"
       x="-47.5"
       y="434.36218"
       id="text4776"
       sodipodi:linespacing="125%"><tspan
         sodipodi:role="line"
         id="tspan4778"
         x="-47.5"
         y="434.36218">projectile</tspan></text>
    <path
       style="fill:none;stroke:#000000;stroke-width:2;stroke-linecap:butt;stroke-linejoin:miter;stroke-miterlimit:4;stroke-opacity:1;stroke-dasharray:none"
       d="m -64.19647,834.5733 0,-264.45794"
       id="path4780"
       inkscape:path-effect="#path-effect4782"
       inkscape:original-d="m -64.19647,834.5733 0,-264.45794"
       inkscape:connector-curvature="0" />
    <path
       inkscape:connector-curvature="0"
       inkscape:original-d="m 26.946176,834.5733 0,-264.45794"
       inkscape:path-effect="#path-effect4786"
       id="path4784"
       d="m 26.946176,834.5733 0,-264.45794"
       style="fill:none;stroke:#000000;stroke-width:4;stroke-linecap:butt;stroke-linejoin:miter;stroke-miterlimit:4;stroke-opacity:1;stroke-dasharray:none" />
    <path
       style="fill:none;stroke:#000000;stroke-width:2;stroke-linecap:butt;stroke-linejoin:miter;stroke-miterlimit:4;stroke-opacity:1;stroke-dasharray:8,8;stroke-dashoffset:0;marker-start:none"
       d="m -65.460363,709.4154 54.553194,0"
       id="path4788"
       inkscape:path-effect="#path-effect4790"
       inkscape:original-d="m -65.460363,709.4154 54.553194,0"
       inkscape:connector-curvature="0" />
    <path
       sodipodi:type="arc"
       style="opacity:0.98000004;fill:none;stroke:#000000;stroke-width:3;stroke-miterlimit:4;stroke-opacity:1;stroke-dasharray:none"
       id="path6204"
       sodipodi:cx="-60.5"
       sodipodi:cy="901.86218"
       sodipodi:rx="20.5"
       sodipodi:ry="20.5"
       d="m -40,901.86218 a 20.5,20.5 0 0 1 -19.52711,20.4769 20.5,20.5 0 0 1 -21.380547,-18.53331"
       sodipodi:start="0"
       sodipodi:end="3.0466409"
       sodipodi:open="true"
       transform="matrix(0.79502436,0,0,-0.79502436,-16.634203,1530.5271)" />
    <path
       transform="matrix(0.79502436,0,0,-0.79502436,-16.634203,1349.3232)"
       sodipodi:open="true"
       sodipodi:end="3.0466409"
       sodipodi:start="0"
       d="m -40,901.86218 a 20.5,20.5 0 0 1 -19.52711,20.4769 20.5,20.5 0 0 1 -21.380547,-18.53331"
       sodipodi:ry="20.5"
       sodipodi:rx="20.5"
       sodipodi:cy="901.86218"
       sodipodi:cx="-60.5"
       id="path6206"
       style="opacity:0.98000004;fill:none;stroke:#000000;stroke-width:3;stroke-miterlimit:4;stroke-opacity:1;stroke-dasharray:none"
       sodipodi:type="arc" />
    <text
       sodipodi:linespacing="125%"
       id="text6217"
       y="857.45874"
       x="-72.936157"
       style="font-size:28px;font-style:normal;font-weight:normal;line-height:125%;letter-spacing:0px;word-spacing:0px;fill:#030000;fill-opacity:1;stroke:none;font-family:Sans"
       xml:space="preserve"><tspan
         style="font-weight:bold;fill:#030000;fill-opacity:1;-inkscape-font-specification:Sans Bold"
         y="857.45874"
         x="-72.936157"
         id="tspan6219"
         sodipodi:role="line">α</tspan></text>
    <text
       xml:space="preserve"
       style="font-size:28px;font-style:normal;font-weight:normal;line-height:125%;letter-spacing:0px;word-spacing:0px;fill:#000000;fill-opacity:1;stroke:none;font-family:Sans"
       x="-23.334505"
       y="864.97888"
       id="text6221"
       sodipodi:linespacing="125%"><tspan
         sodipodi:role="line"
         id="tspan6223"
         x="-23.334505"
         y="864.97888"><tspan
   style="font-size:65.00091553%;baseline-shift:super"
   id="tspan6225">208</tspan>Pb (gs)</tspan></text>
    <g
       id="g4532">
      <g
         id="g4517">
        <g
           id="g4503">
          <g
             id="g4490">
            <g
               id="g4478">
              <g
                 transform="translate(398.80822,-229.78889)"
                 id="g6258">
                <text
                   sodipodi:linespacing="125%"
                   id="text6227"
                   y="771.54456"
                   x="-436.99197"
                   style="font-size:28px;font-style:normal;font-weight:normal;line-height:125%;letter-spacing:0px;word-spacing:0px;fill:#000000;fill-opacity:1;stroke:none;font-family:Sans"
                   xml:space="preserve"><tspan
                     y="771.54456"
                     x="-436.99197"
                     id="tspan6229"
                     sodipodi:role="line"><tspan
   id="tspan6231"
   style="font-size:65.00091553%;baseline-shift:super">208</tspan>Pb (</tspan></text>
                <g
                   id="g6241"
                   transform="translate(-26.870058,-222.03153)">
                  <text
                     sodipodi:linespacing="125%"
                     id="text6233"
                     y="994.37946"
                     x="-329.51175"
                     style="font-style:normal;font-weight:normal;font-size:28px;line-height:125%;font-family:Sans;letter-spacing:0px;word-spacing:0px;fill:#000000;fill-opacity:1;stroke:none"
                     xml:space="preserve"><tspan
                       y="994.37946"
                       x="-329.51175"
                       id="tspan6235"
                       sodipodi:role="line">3 </tspan></text>
                  <path
                     inkscape:connector-curvature="0"
                     inkscape:original-d="m -313,977.61218 9.75,0"
                     inkscape:path-effect="#path-effect6239"
                     id="path6237"
                     d="m -313,977.61218 9.75,0"
                     style="fill:none;stroke:#000000;stroke-width:3;stroke-linecap:butt;stroke-linejoin:miter;stroke-miterlimit:4;stroke-opacity:1;stroke-dasharray:none" />
                </g>
                <text
                   xml:space="preserve"
                   style="font-style:normal;font-weight:normal;font-size:28px;line-height:125%;font-family:Sans;letter-spacing:0px;word-spacing:0px;fill:#000000;fill-opacity:1;stroke:none"
                   x="-331.91736"
                   y="771.54077"
                   id="text6246"
                   sodipodi:linespacing="125%"><tspan
                     sodipodi:role="line"
                     id="tspan6248"
                     x="-331.91736"
                     y="771.54077"> )</tspan></text>
              </g>
            </g>
          </g>
        </g>
      </g>
    </g>
    <g
       transform="translate(749.53318,-106.77312)"
       id="g6250">
      <text
         xml:space="preserve"
         style="font-size:28px;font-style:normal;font-weight:normal;line-height:125%;letter-spacing:0px;word-spacing:0px;fill:#000000;fill-opacity:1;stroke:none;font-family:Sans"
         x="-329.51175"
         y="994.37946"
         id="text6252"
         sodipodi:linespacing="125%"><tspan
           sodipodi:role="line"
           id="tspan6254"
           x="-329.51175"
           y="994.37946">3</tspan></text>
      <path
         style="fill:none;stroke:#000000;stroke-width:3;stroke-linecap:butt;stroke-linejoin:miter;stroke-miterlimit:4;stroke-opacity:1;stroke-dasharray:none"
         d="m -313,977.61218 9.75,0"
         id="path6256"
         inkscape:path-effect="#path-effect6239"
         inkscape:original-d="m -313,977.61218 9.75,0"
         inkscape:connector-curvature="0" />
    </g>
    <rect
       style="opacity:0.98000004;fill:none;stroke:#000000;stroke-width:3;stroke-linecap:round;stroke-linejoin:round;stroke-miterlimit:4;stroke-opacity:1;stroke-dasharray:none;stroke-dashoffset:0"
       id="rect6269"
       width="261.62952"
       height="391.73715"
       x="-137.17871"
       y="503.64731"
       rx="44.684696"
       ry="0.20863423" />
    <text
       xml:space="preserve"
       style="font-size:28px;font-style:normal;font-weight:normal;line-height:125%;letter-spacing:0px;word-spacing:0px;fill:#000000;fill-opacity:1;stroke:none;font-family:Sans"
       x="278.60007"
       y="405.82394"
       id="text6271"
       sodipodi:linespacing="125%"><tspan
         sodipodi:role="line"
         id="tspan6273"
         x="278.60007"
         y="405.82394">collective (octupole) vibration</tspan></text>
    <text
       xml:space="preserve"
       style="font-size:28px;font-style:normal;font-weight:normal;line-height:125%;letter-spacing:0px;word-spacing:0px;fill:#030000;fill-opacity:1;stroke:none;font-family:Sans"
       x="-72.936157"
       y="563.45874"
       id="text6275"
       sodipodi:linespacing="125%"><tspan
         sodipodi:role="line"
         id="tspan6277"
         x="-72.936157"
         y="563.45874"
         style="font-weight:bold;fill:#030000;fill-opacity:1;-inkscape-font-specification:Sans Bold">α</tspan></text>
    <path
       style="fill:#ffffff;fill-opacity:1;stroke:none"
       d="m 627.22581,209.09071 7.95495,4.88346 1.95205,-2.90795 -2.83984,-2.09765 -4.93359,-2.39063 -2.13357,2.51277 z"
       id="path6279"
       inkscape:path-effect="#path-effect6281"
       inkscape:original-d="m 627.22581,209.09071 7.95495,4.88346 1.95205,-2.90795 -2.83984,-2.09765 -4.93359,-2.39063 z"
       inkscape:connector-curvature="0"
       transform="translate(-138.67871,291.0401)" />
    <path
       style="fill:#ffffff;fill-opacity:1;stroke:none"
       d="m 633.62844,203.06373 3.42505,1.65176 -0.0144,0.0812 4.04688,2.39063 3.88383,-4.10701 -8.08753,-4.86136 -3.25383,4.84478 z"
       id="path6283"
       inkscape:path-effect="#path-effect6285"
       inkscape:original-d="m 633.62844,203.06373 3.42505,1.65176 -0.0144,0.0812 4.04688,2.39063 3.88383,-4.10701 -8.08753,-4.86136 z"
       inkscape:connector-curvature="0"
       transform="translate(-138.67871,291.0401)" />
    <text
       sodipodi:linespacing="125%"
       id="text29460"
       y="550.75189"
       x="-252.10913"
       style="font-size:28px;font-style:normal;font-weight:normal;line-height:125%;letter-spacing:0px;word-spacing:0px;fill:#000000;fill-opacity:1;stroke:none;font-family:Sans"
       xml:space="preserve"><tspan
         y="550.75189"
         x="-252.10913"
         id="tspan29462"
         sodipodi:role="line" /></text>
    <g
       id="g29498">
      <path
         style="fill:none;stroke:#000000;stroke-width:2;stroke-linecap:butt;stroke-linejoin:miter;stroke-miterlimit:4;stroke-opacity:1;stroke-dasharray:none"
         d="m -382.19646,834.5733 0,-264.45794"
         id="path29420"
         inkscape:path-effect="#path-effect29490"
         inkscape:original-d="m -382.19646,834.5733 0,-264.45794"
         inkscape:connector-curvature="0" />
      <path
         inkscape:connector-curvature="0"
         inkscape:original-d="m -291.05381,834.5733 0,-264.45794"
         inkscape:path-effect="#path-effect29487"
         id="path29422"
         d="m -291.05381,834.5733 0,-264.45794"
         style="fill:none;stroke:#000000;stroke-width:4;stroke-linecap:butt;stroke-linejoin:miter;stroke-miterlimit:4;stroke-opacity:1;stroke-dasharray:none" />
      <path
         style="fill:none;stroke:#000000;stroke-width:2;stroke-linecap:butt;stroke-linejoin:miter;stroke-miterlimit:4;stroke-opacity:1;stroke-dasharray:8, 8;stroke-dashoffset:0;marker-start:none"
         d="m -383.05381,709.4154 91.92388,0"
         id="path29424"
         inkscape:path-effect="#path-effect29484"
         inkscape:original-d="m -383.05381,709.4154 91.92388,0"
         inkscape:connector-curvature="0" />
      <path
         sodipodi:type="arc"
         style="opacity:0.98000004;fill:none;stroke:#000000;stroke-width:3;stroke-miterlimit:4;stroke-opacity:1;stroke-dasharray:none"
         id="path29430"
         sodipodi:cx="-60.5"
         sodipodi:cy="901.86218"
         sodipodi:rx="20.5"
         sodipodi:ry="20.5"
         d="m -40,901.86218 a 20.5,20.5 0 0 1 -19.52711,20.4769 20.5,20.5 0 0 1 -21.380547,-18.53331"
         sodipodi:start="0"
         sodipodi:end="3.0466409"
         sodipodi:open="true"
         transform="matrix(0.79502436,0,0,-0.79502436,-334.63419,1530.5271)" />
      <path
         transform="matrix(0.79502436,0,0,-0.79502436,-334.63419,1349.3232)"
         sodipodi:open="true"
         sodipodi:end="3.0466409"
         sodipodi:start="0"
         d="m -40,901.86218 a 20.5,20.5 0 0 1 -19.52711,20.4769 20.5,20.5 0 0 1 -21.380547,-18.53331"
         sodipodi:ry="20.5"
         sodipodi:rx="20.5"
         sodipodi:cy="901.86218"
         sodipodi:cx="-60.5"
         id="path29432"
         style="opacity:0.98000004;fill:none;stroke:#000000;stroke-width:3;stroke-miterlimit:4;stroke-opacity:1;stroke-dasharray:none"
         sodipodi:type="arc" />
      <text
         sodipodi:linespacing="125%"
         id="text29434"
         y="857.45874"
         x="-390.93616"
         style="font-size:28px;font-style:normal;font-weight:normal;line-height:125%;letter-spacing:0px;word-spacing:0px;fill:#030000;fill-opacity:1;stroke:none;font-family:Sans"
         xml:space="preserve"><tspan
           style="font-weight:bold;fill:#030000;fill-opacity:1;-inkscape-font-specification:Sans Bold"
           y="857.45874"
           x="-390.93616"
           id="tspan29436"
           sodipodi:role="line">α</tspan></text>
      <text
         xml:space="preserve"
         style="font-size:28px;font-style:normal;font-weight:normal;line-height:125%;letter-spacing:0px;word-spacing:0px;fill:#000000;fill-opacity:1;stroke:none;font-family:Sans"
         x="-341.3345"
         y="864.97888"
         id="text29438"
         sodipodi:linespacing="125%"><tspan
           sodipodi:role="line"
           id="tspan29440"
           x="-341.3345"
           y="864.97888"><tspan
   style="font-size:65.00091553%;baseline-shift:super"
   id="tspan29442">208</tspan>Pb (gs)</tspan></text>
      <rect
         style="opacity:0.98000004;fill:none;stroke:#000000;stroke-width:3;stroke-linecap:round;stroke-linejoin:round;stroke-miterlimit:4;stroke-opacity:1;stroke-dasharray:none;stroke-dashoffset:0"
         id="rect29464"
         width="261.62952"
         height="391.73715"
         x="-455.17871"
         y="503.64731"
         rx="44.684696"
         ry="0.20863423" />
      <text
         xml:space="preserve"
         style="font-size:28px;font-style:normal;font-weight:normal;line-height:125%;letter-spacing:0px;word-spacing:0px;fill:#030000;fill-opacity:1;stroke:none;font-family:Sans"
         x="-390.93616"
         y="563.45874"
         id="text29466"
         sodipodi:linespacing="125%"><tspan
           sodipodi:role="line"
           id="tspan29468"
           x="-390.93616"
           y="563.45874"
           style="font-weight:bold;fill:#030000;fill-opacity:1;-inkscape-font-specification:Sans Bold">α</tspan></text>
      <text
         sodipodi:linespacing="125%"
         id="text29492"
         y="549.97888"
         x="-331.3345"
         style="font-size:28px;font-style:normal;font-weight:normal;line-height:125%;letter-spacing:0px;word-spacing:0px;fill:#000000;fill-opacity:1;stroke:none;font-family:Sans"
         xml:space="preserve"><tspan
           y="549.97888"
           x="-331.3345"
           id="tspan29494"
           sodipodi:role="line"><tspan
   id="tspan29496"
   style="font-size:65.00091553%;baseline-shift:super">208</tspan>Pb (gs)</tspan></text>
    </g>
    <text
       xml:space="preserve"
       style="font-size:28px;font-style:normal;font-weight:normal;line-height:125%;letter-spacing:0px;word-spacing:0px;fill:#000000;fill-opacity:1;stroke:none;font-family:Sans"
       x="-442.53659"
       y="877.63745"
       id="text29516"
       sodipodi:linespacing="125%"><tspan
         sodipodi:role="line"
         id="tspan29518"
         x="-442.53659"
         y="877.63745">(I)</tspan></text>
    <text
       xml:space="preserve"
       style="font-size:28px;font-style:normal;font-weight:normal;line-height:125%;letter-spacing:0px;word-spacing:0px;fill:#000000;fill-opacity:1;stroke:none;font-family:Sans"
       x="-127.16695"
       y="876.22321"
       id="text29520"
       sodipodi:linespacing="125%"><tspan
         sodipodi:role="line"
         id="tspan29522"
         x="-127.16695"
         y="876.22321">(II)</tspan></text>
    <path
       inkscape:connector-curvature="0"
       style="fill:none;stroke:#000000;stroke-width:1.71183777;stroke-linecap:round;stroke-linejoin:round;stroke-miterlimit:4;stroke-dasharray:none;stroke-dashoffset:0;stroke-opacity:1"
       d="m -11.86835,709.42766 c 0.0322,-0.80018 0.52536,-1.64687 1.32685,-2.52453 0.80145,-0.87769 1.89677,-1.78482 2.92589,-2.68539 1.02915,-0.90054 1.97371,-1.79256 2.52632,-2.64516 0.55261,-0.85264 0.70189,-1.66466 0.40985,-2.43232 -0.29206,-0.76761 -1.02175,-1.49128 -1.93095,-2.19679 -0.90915,-0.70555 -1.98162,-1.39471 -2.84514,-2.10487 -0.86356,-0.7101 -1.50085,-1.44305 -1.6882,-2.2212 -0.18735,-0.77818 0.0817,-1.60225 0.72413,-2.4639 0.64254,-0.86167 1.64958,-1.76 2.69049,-2.66173 1.04091,-0.90174 2.09747,-1.80503 2.82421,-2.67515 0.72672,-0.87018 1.10934,-1.70565 1.03097,-2.4948 -0.0784,-0.78913 -0.61798,-1.53187 -1.42457,-2.24774 -0.80661,-0.71588 -1.8663,-1.40629 -2.81074,-2.1083 -0.94446,-0.70204 -1.75529,-1.41746 -2.14994,-2.17479 -0.39462,-0.75732 -0.36325,-1.5575 0.0919,-2.40031 0.45506,-0.84279 1.32816,-1.72762 2.33341,-2.62608 1.00542,-0.89814 2.12606,-1.80789 2.99437,-2.69227 0.86833,-0.88438 1.46781,-1.74169 1.60822,-2.55284 0.14037,-0.81116 -0.18246,-1.57568 -0.84737,-2.3058 -0.66487,-0.73013 -1.66084,-1.42695 -2.64055,-2.12545 -0.97974,-0.69845 -1.9248,-1.40038 -2.50687,-2.13887 -0.58205,-0.73845 -0.78818,-1.51474 -0.54046,-2.33669 0.24764,-0.82193 0.94746,-1.68932 1.87181,-2.57935 0.92434,-0.89002 2.05808,-1.80107 3.02879,-2.69574 0.97071,-0.89465 1.76045,-1.77114 2.11454,-2.60381 0.35414,-0.83262 0.2645,-1.62064 -0.22618,-2.36827 -0.49063,-0.74772 -1.37486,-1.45571 -2.34266,-2.1554 -0.96779,-0.69965 -2.00145,-1.39267 -2.74229,-2.11517 -0.74082,-0.72251 -1.17337,-1.47602 -1.1432,-2.27608"
       title="cos(4*t) t"
       id="path18688" />
    <path
       style="fill:none;stroke:#000000;stroke-width:2;stroke-linecap:butt;stroke-linejoin:miter;stroke-opacity:1;stroke-miterlimit:4;stroke-dasharray:none"
       d="m -17.835631,559.00251 c 2.4378,-2.99163 5.99724,-5.04667 9.8069637,-5.66205 2.7263637,-0.44039 5.5109131,-0.16574 8.26144628,0.0824 2.75053322,0.24813 5.54740922,0.46651 8.25401422,-0.0824 3.1264568,-0.63404 6.0319798,-2.31155 8.1443048,-4.70212"
       id="path12876"
       inkscape:path-effect="#path-effect12878"
       inkscape:original-d="m -17.835631,559.00251 c 0,0 6.160886,-4.68509 9.8069637,-5.66205 5.317569,-1.42484 11.1978913,1.42484 16.5154605,0 3.0279308,-0.81133 8.1443048,-4.70212 8.1443048,-4.70212"
       inkscape:connector-curvature="0"
       sodipodi:nodetypes="caac" />
    <path
       sodipodi:nodetypes="caac"
       inkscape:connector-curvature="0"
       inkscape:original-d="m 50.639601,559.00251 c 0,0 -6.160878,-4.68509 -9.806956,-5.66205 -5.317569,-1.42484 -11.197892,1.42484 -16.515461,0 -3.027931,-0.81133 -8.144313,-4.70212 -8.144313,-4.70212"
       inkscape:path-effect="#path-effect12882"
       id="path12880"
       d="m 50.639601,559.00251 c -2.437798,-2.99162 -5.997234,-5.04667 -9.806956,-5.66205 -2.726364,-0.44039 -5.510913,-0.16574 -8.261446,0.0824 -2.750534,0.24813 -5.54741,0.46651 -8.254015,-0.0824 -3.126459,-0.63404 -6.031985,-2.31155 -8.144313,-4.70212"
       style="fill:none;stroke:#000000;stroke-width:2;stroke-linecap:butt;stroke-linejoin:miter;stroke-opacity:1;stroke-miterlimit:4;stroke-dasharray:none" />
    <path
       id="path5610"
       title="cos(4*t) t"
       d="m -9.93085,657.45531 c 0.0322,-0.80018 0.52536,-1.64687 1.32685,-2.52453 0.80145,-0.87769 1.89677,-1.78482 2.92589,-2.68539 1.02915,-0.90054 1.97371,-1.79256 2.52632,-2.64516 0.55261,-0.85264 0.70189,-1.66466 0.40985,-2.43232 -0.29206,-0.76761 -1.02175,-1.49128 -1.93095,-2.19679 -0.90915,-0.70555 -1.98162,-1.39471 -2.84514,-2.10487 -0.86356,-0.7101 -1.50085,-1.44305 -1.6882,-2.2212 -0.18735,-0.77818 0.0817,-1.60225 0.72413,-2.4639 0.64254,-0.86167 1.64958,-1.76 2.69049,-2.66173 1.04091,-0.90174 2.09747,-1.80503 2.82421,-2.67515 0.72672,-0.87018 1.10934,-1.70565 1.03097,-2.4948 -0.0784,-0.78913 -0.61798,-1.53187 -1.42457,-2.24774 -0.80661,-0.71588 -1.8663,-1.40629 -2.81074,-2.1083 -0.94446,-0.70204 -1.75529,-1.41746 -2.14994,-2.17479 -0.39462,-0.75732 -0.36325,-1.5575 0.0919,-2.40031 0.45506,-0.84279 1.32816,-1.72762 2.33341,-2.62608 1.00542,-0.89814 2.12606,-1.80789 2.99437,-2.69227 0.86833,-0.88438 1.46781,-1.74169 1.60822,-2.55284 0.14037,-0.81116 -0.18246,-1.57568 -0.84737,-2.3058 -0.66487,-0.73013 -1.66084,-1.42695 -2.64055,-2.12545 -0.97974,-0.69845 -1.9248,-1.40038 -2.50687,-2.13887 -0.58205,-0.73845 -0.78818,-1.51474 -0.54046,-2.33669 0.24764,-0.82193 0.94746,-1.68932 1.87181,-2.57935 0.92434,-0.89002 2.05808,-1.80107 3.02879,-2.69574 0.97071,-0.89465 1.76045,-1.77114 2.11454,-2.60381 0.35414,-0.83262 0.2645,-1.62064 -0.22618,-2.36827 -0.49063,-0.74772 -1.37486,-1.45571 -2.34266,-2.1554 -0.96779,-0.69965 -2.00145,-1.39267 -2.74229,-2.11517 -0.74082,-0.72251 -1.17337,-1.47602 -1.1432,-2.27608"
       style="fill:none;stroke:#000000;stroke-width:1.71183777;stroke-linecap:round;stroke-linejoin:round;stroke-miterlimit:4;stroke-dasharray:none;stroke-dashoffset:0;stroke-opacity:1"
       inkscape:connector-curvature="0" />
  </g>
</svg>
