<?xml version="1.0" encoding="UTF-8" standalone="no"?>
<svg
   xmlns:dc="http://purl.org/dc/elements/1.1/"
   xmlns:cc="http://creativecommons.org/ns#"
   xmlns:rdf="http://www.w3.org/1999/02/22-rdf-syntax-ns#"
   xmlns:svg="http://www.w3.org/2000/svg"
   xmlns="http://www.w3.org/2000/svg"
   xmlns:sodipodi="http://sodipodi.sourceforge.net/DTD/sodipodi-0.dtd"
   xmlns:inkscape="http://www.inkscape.org/namespaces/inkscape"
   version="1.1"
   id="svg2"
   viewBox="0 0 945.10839 750.3994"
   height="211.77939mm"
   width="266.73059mm"
   sodipodi:docname="figpreface2-v2.svg"
   inkscape:version="1.0.1 (1.0.1+r73)">
  <sodipodi:namedview
     pagecolor="#ffffff"
     bordercolor="#666666"
     borderopacity="1"
     objecttolerance="10"
     gridtolerance="10"
     guidetolerance="10"
     inkscape:pageopacity="0"
     inkscape:pageshadow="2"
     inkscape:window-width="1600"
     inkscape:window-height="863"
     id="namedview9599"
     showgrid="false"
     inkscape:zoom="0.5"
     inkscape:cx="331.28987"
     inkscape:cy="540.47838"
     inkscape:window-x="1366"
     inkscape:window-y="0"
     inkscape:window-maximized="1"
     inkscape:current-layer="svg2"
     inkscape:document-rotation="0" />
  <defs
     id="defs4">
    <inkscape:path-effect
       effect="bspline"
       id="path-effect3538"
       is_visible="true"
       lpeversion="1"
       weight="33.333333"
       steps="2"
       helper_size="0"
       apply_no_weight="true"
       apply_with_weight="true"
       only_selected="false" />
    <inkscape:path-effect
       effect="bspline"
       id="path-effect10427"
       is_visible="true"
       lpeversion="1"
       weight="33.333333"
       steps="2"
       helper_size="0"
       apply_no_weight="true"
       apply_with_weight="true"
       only_selected="false" />
    <inkscape:path-effect
       effect="bspline"
       id="path-effect10423"
       is_visible="true"
       lpeversion="1"
       weight="33.333333"
       steps="2"
       helper_size="0"
       apply_no_weight="true"
       apply_with_weight="true"
       only_selected="false" />
    <inkscape:path-effect
       effect="bspline"
       id="path-effect10419"
       is_visible="true"
       lpeversion="1"
       weight="33.333333"
       steps="2"
       helper_size="0"
       apply_no_weight="true"
       apply_with_weight="true"
       only_selected="false" />
    <inkscape:path-effect
       effect="bspline"
       id="path-effect10413"
       is_visible="true"
       lpeversion="1"
       weight="33.333333"
       steps="2"
       helper_size="0"
       apply_no_weight="true"
       apply_with_weight="true"
       only_selected="false" />
    <inkscape:path-effect
       effect="spiro"
       id="path-effect10377"
       is_visible="true"
       lpeversion="1" />
    <inkscape:path-effect
       effect="spiro"
       id="path-effect10373"
       is_visible="true"
       lpeversion="1" />
    <inkscape:path-effect
       effect="bspline"
       id="path-effect10360"
       is_visible="true"
       lpeversion="1"
       weight="33.333333"
       steps="2"
       helper_size="0"
       apply_no_weight="true"
       apply_with_weight="true"
       only_selected="false" />
    <inkscape:path-effect
       effect="spiro"
       id="path-effect10356"
       is_visible="true"
       lpeversion="1" />
    <marker
       orient="auto"
       refY="0"
       refX="0"
       id="marker4698"
       style="overflow:visible">
      <path
         id="path4700"
         d="M 0,0 5,-5 -12.5,0 5,5 0,0 Z"
         style="fill:#000000;fill-opacity:1;fill-rule:evenodd;stroke:#000000;stroke-width:1pt;stroke-opacity:1"
         transform="matrix(-0.8,0,0,-0.8,-10,0)" />
    </marker>
    <marker
       style="overflow:visible"
       id="marker4692"
       refX="0"
       refY="0"
       orient="auto">
      <path
         transform="matrix(-0.8,0,0,-0.8,-10,0)"
         style="fill:#000000;fill-opacity:1;fill-rule:evenodd;stroke:#000000;stroke-width:1pt;stroke-opacity:1"
         d="M 0,0 5,-5 -12.5,0 5,5 0,0 Z"
         id="path4694" />
    </marker>
    <marker
       orient="auto"
       refY="0"
       refX="0"
       id="marker4686"
       style="overflow:visible">
      <path
         id="path4688"
         d="M 0,0 5,-5 -12.5,0 5,5 0,0 Z"
         style="fill:#000000;fill-opacity:1;fill-rule:evenodd;stroke:#000000;stroke-width:1pt;stroke-opacity:1"
         transform="matrix(-0.8,0,0,-0.8,-10,0)" />
    </marker>
    <marker
       style="overflow:visible"
       id="Arrow1Lend"
       refX="0"
       refY="0"
       orient="auto">
      <path
         transform="matrix(-0.8,0,0,-0.8,-10,0)"
         style="fill:#000000;fill-opacity:1;fill-rule:evenodd;stroke:#000000;stroke-width:1pt;stroke-opacity:1"
         d="M 0,0 5,-5 -12.5,0 5,5 0,0 Z"
         id="path4301" />
    </marker>
    <marker
       style="overflow:visible"
       id="Arrow1Mstart"
       refX="0"
       refY="0"
       orient="auto">
      <path
         transform="matrix(0.4,0,0,0.4,4,0)"
         style="fill:#000000;fill-opacity:1;fill-rule:evenodd;stroke:#000000;stroke-width:1pt;stroke-opacity:1"
         d="M 0,0 5,-5 -12.5,0 5,5 0,0 Z"
         id="path4304" />
    </marker>
    <marker
       style="overflow:visible"
       id="Arrow1Mend"
       refX="0"
       refY="0"
       orient="auto">
      <path
         transform="matrix(-0.4,0,0,-0.4,-4,0)"
         style="fill:#000000;fill-opacity:1;fill-rule:evenodd;stroke:#000000;stroke-width:1pt;stroke-opacity:1"
         d="M 0,0 5,-5 -12.5,0 5,5 0,0 Z"
         id="path4307" />
    </marker>
  </defs>
  <metadata
     id="metadata7">
    <rdf:RDF>
      <cc:Work
         rdf:about="">
        <dc:format>image/svg+xml</dc:format>
        <dc:type
           rdf:resource="http://purl.org/dc/dcmitype/StillImage" />
        <dc:title />
      </cc:Work>
    </rdf:RDF>
  </metadata>
  <path
     id="path4179"
     d="m 625.78744,218.70212 c 13.96643,-1.07131 25.80626,-11.89292 28.17535,-26.18941 2.36908,-14.29649 -5.34722,-28.35878 -18.38092,-34.08161 -8.22185,-3.56041 -17.26159,-7.6291 -21.58876,-15.60685 -7.28647,-13.04884 -23.48521,-19.09341 -37.99565,-13.80994 -14.51043,5.28346 -23.03017,20.3284 -20.27331,34.85018 3.12808,8.34526 2.15556,18.34627 -2.55865,26.10057 -7.47171,12.91233 -4.38319,29.88877 7.54977,39.6493 11.93295,9.76054 29.18472,9.42138 40.5594,-0.57331 6.17362,-6.94628 15.43736,-10.83844 24.51277,-10.33893 z"
     style="fill:none;fill-opacity:1;stroke:#000000;stroke-width:1.5;stroke-linecap:round;stroke-miterlimit:4;stroke-dasharray:none;stroke-dashoffset:0;stroke-opacity:1" />
  <path
     d="m 787.56106,654.76881 a 46.988449,46.988449 0 0 1 66.00102,-7.51506 46.988449,46.988449 0 0 1 7.56315,65.99553 46.988449,46.988449 0 0 1 -65.99,7.61124 46.988449,46.988449 0 0 1 -7.65932,-65.98444"
     id="path4147"
     style="fill:none;fill-opacity:1;stroke:#000000;stroke-width:1.5;stroke-linecap:round;stroke-miterlimit:4;stroke-dasharray:none;stroke-dashoffset:0;stroke-opacity:1" />
  <path
     d="m 385.90527,460.09162 a 70.216187,53.254803 66.251504 0 1 47.51545,86.84558 70.216187,53.254803 66.251504 0 1 -63.91153,40.46712 70.216187,53.254803 66.251504 0 1 -47.60859,-86.7866 70.216187,53.254803 66.251504 0 1 63.84215,-40.59359"
     id="path4149"
     style="fill:none;fill-opacity:1;stroke:#000000;stroke-width:1.5;stroke-linecap:round;stroke-miterlimit:4;stroke-dasharray:none;stroke-dashoffset:0;stroke-opacity:1" />
  <path
     style="fill:none;fill-opacity:1;stroke:#000000;stroke-width:1.5;stroke-linecap:round;stroke-miterlimit:4;stroke-dasharray:none;stroke-dashoffset:0;stroke-opacity:1"
     id="path4151"
     d="m 896.27899,705.87234 a 26.977407,26.977407 0 0 1 37.89307,-4.31461 26.977407,26.977407 0 0 1 4.34222,37.88991 26.977407,26.977407 0 0 1 -37.88674,4.36983 26.977407,26.977407 0 0 1 -4.39744,-37.88355" />
  <path
     style="fill:none;fill-opacity:1;stroke:#000000;stroke-width:1.5;stroke-linecap:round;stroke-miterlimit:4;stroke-dasharray:none;stroke-dashoffset:0;stroke-opacity:1"
     id="path4153"
     d="m 377.4595,234.42219 a 46.988449,46.988449 0 0 1 66.00102,-7.51505 46.988449,46.988449 0 0 1 7.56315,65.99552 46.988449,46.988449 0 0 1 -65.99,7.61124 46.988449,46.988449 0 0 1 -7.65932,-65.98444" />
  <g
     transform="translate(-126.06841,-65.794935)"
     id="g4244">
    <path
       d="m 285.75551,386.82341 a 6.512362,6.512362 0 0 1 9.14741,-1.04155 6.512362,6.512362 0 0 1 1.04822,9.14664 6.512362,6.512362 0 0 1 -9.14588,1.05488 6.512362,6.512362 0 0 1 -1.06155,-9.14511"
       id="path4157"
       style="opacity:1;fill:none;fill-opacity:1;stroke:#000000;stroke-width:1.46958;stroke-linecap:round;stroke-miterlimit:4;stroke-dasharray:none;stroke-dashoffset:0;stroke-opacity:1" />
    <path
       style="opacity:1;fill:#000000;fill-opacity:1;stroke:#000000;stroke-width:1.46958;stroke-linecap:round;stroke-miterlimit:4;stroke-dasharray:none;stroke-dashoffset:0;stroke-opacity:1"
       id="path4159"
       d="m 328.07741,365.03068 a 6.512362,6.512362 0 0 1 9.14741,-1.04155 6.512362,6.512362 0 0 1 1.04822,9.14665 6.512362,6.512362 0 0 1 -9.14588,1.05488 6.512362,6.512362 0 0 1 -1.06155,-9.14511" />
    <path
       style="opacity:1;fill:none;fill-opacity:1;stroke:#000000;stroke-width:1.46958;stroke-linecap:round;stroke-miterlimit:4;stroke-dasharray:none;stroke-dashoffset:0;stroke-opacity:1"
       id="path4161"
       d="m 262.03106,369.774 a 6.512362,6.512362 0 0 1 9.14741,-1.04155 6.512362,6.512362 0 0 1 1.04821,9.14665 6.512362,6.512362 0 0 1 -9.14588,1.05487 6.512362,6.512362 0 0 1 -1.06154,-9.14511" />
    <path
       d="m 261.6494,321.94319 a 6.512362,6.512362 0 0 1 9.14741,-1.04155 6.512362,6.512362 0 0 1 1.04822,9.14665 6.512362,6.512362 0 0 1 -9.14588,1.05487 6.512362,6.512362 0 0 1 -1.06155,-9.14511"
       id="path4163"
       style="opacity:1;fill:#000000;fill-opacity:1;stroke:#000000;stroke-width:1.46958;stroke-linecap:round;stroke-miterlimit:4;stroke-dasharray:none;stroke-dashoffset:0;stroke-opacity:1" />
    <path
       d="m 274.89364,344.13035 a 6.512362,6.512362 0 0 1 9.14741,-1.04155 6.512362,6.512362 0 0 1 1.04821,9.14665 6.512362,6.512362 0 0 1 -9.14588,1.05488 6.512362,6.512362 0 0 1 -1.06154,-9.14511"
       id="path4165"
       style="opacity:1;fill:none;fill-opacity:1;stroke:#000000;stroke-width:1.46958;stroke-linecap:round;stroke-miterlimit:4;stroke-dasharray:none;stroke-dashoffset:0;stroke-opacity:1" />
    <path
       style="opacity:1;fill:#000000;fill-opacity:1;stroke:#000000;stroke-width:1.46958;stroke-linecap:round;stroke-miterlimit:4;stroke-dasharray:none;stroke-dashoffset:0;stroke-opacity:1"
       id="path4167"
       d="m 292.12148,363.79942 a 6.512362,6.512362 0 0 1 9.14741,-1.04155 6.512362,6.512362 0 0 1 1.04821,9.14665 6.512362,6.512362 0 0 1 -9.14588,1.05488 6.512362,6.512362 0 0 1 -1.06154,-9.14511" />
    <path
       style="opacity:1;fill:none;fill-opacity:1;stroke:#000000;stroke-width:1.46958;stroke-linecap:round;stroke-miterlimit:4;stroke-dasharray:none;stroke-dashoffset:0;stroke-opacity:1"
       id="path4169"
       d="m 300.61873,401.15504 a 6.512362,6.512362 0 0 1 9.14741,-1.04155 6.512362,6.512362 0 0 1 1.04822,9.14665 6.512362,6.512362 0 0 1 -9.14588,1.05488 6.512362,6.512362 0 0 1 -1.06155,-9.14511" />
    <path
       d="m 251.53408,353.41236 a 6.512362,6.512362 0 0 1 9.14741,-1.04154 6.512362,6.512362 0 0 1 1.04821,9.14664 6.512362,6.512362 0 0 1 -9.14588,1.05488 6.512362,6.512362 0 0 1 -1.06154,-9.14511"
       id="path4171"
       style="opacity:1;fill:#000000;fill-opacity:1;stroke:#000000;stroke-width:1.46958;stroke-linecap:round;stroke-miterlimit:4;stroke-dasharray:none;stroke-dashoffset:0;stroke-opacity:1" />
    <path
       d="m 242.80163,335.99733 a 6.512362,6.512362 0 0 1 9.1474,-1.04155 6.512362,6.512362 0 0 1 1.04822,9.14664 6.512362,6.512362 0 0 1 -9.14588,1.05488 6.512362,6.512362 0 0 1 -1.06155,-9.14511"
       id="path4173"
       style="opacity:1;fill:none;fill-opacity:1;stroke:#000000;stroke-width:1.46958;stroke-linecap:round;stroke-miterlimit:4;stroke-dasharray:none;stroke-dashoffset:0;stroke-opacity:1" />
    <path
       style="opacity:1;fill:#000000;fill-opacity:1;stroke:#000000;stroke-width:1.46958;stroke-linecap:round;stroke-miterlimit:4;stroke-dasharray:none;stroke-dashoffset:0;stroke-opacity:1"
       id="path4175"
       d="m 310.74987,415.64592 a 6.512362,6.512362 0 0 1 9.14741,-1.04155 6.512362,6.512362 0 0 1 1.04821,9.14664 6.512362,6.512362 0 0 1 -9.14588,1.05488 6.512362,6.512362 0 0 1 -1.06154,-9.14511" />
    <path
       style="opacity:1;fill:none;fill-opacity:1;stroke:#000000;stroke-width:1.46958;stroke-linecap:round;stroke-miterlimit:4;stroke-dasharray:none;stroke-dashoffset:0;stroke-opacity:1"
       id="path4177"
       d="m 305.68386,379.99272 a 6.512362,6.512362 0 0 1 9.14741,-1.04155 6.512362,6.512362 0 0 1 1.04821,9.14665 6.512362,6.512362 0 0 1 -9.14588,1.05487 6.512362,6.512362 0 0 1 -1.06154,-9.14511" />
    <path
       d="m 289.15575,418.92951 a 6.512362,6.512362 0 0 1 9.14741,-1.04154 6.512362,6.512362 0 0 1 1.04821,9.14664 6.512362,6.512362 0 0 1 -9.14588,1.05488 6.512362,6.512362 0 0 1 -1.06154,-9.14511"
       id="path4180"
       style="opacity:1;fill:#000000;fill-opacity:1;stroke:#000000;stroke-width:1.46958;stroke-linecap:round;stroke-miterlimit:4;stroke-dasharray:none;stroke-dashoffset:0;stroke-opacity:1" />
    <path
       d="m 242.4367,405.87693 a 6.512362,6.512362 0 0 1 9.14741,-1.04155 6.512362,6.512362 0 0 1 1.04821,9.14665 6.512362,6.512362 0 0 1 -9.14588,1.05488 6.512362,6.512362 0 0 1 -1.06154,-9.14511"
       id="path4182"
       style="opacity:1;fill:none;fill-opacity:1;stroke:#000000;stroke-width:1.46958;stroke-linecap:round;stroke-miterlimit:4;stroke-dasharray:none;stroke-dashoffset:0;stroke-opacity:1" />
    <path
       style="opacity:1;fill:#000000;fill-opacity:1;stroke:#000000;stroke-width:1.46958;stroke-linecap:round;stroke-miterlimit:4;stroke-dasharray:none;stroke-dashoffset:0;stroke-opacity:1"
       id="path4184"
       d="m 239.37133,383.25029 a 6.512362,6.512362 0 0 1 9.14741,-1.04155 6.512362,6.512362 0 0 1 1.04821,9.14664 6.512362,6.512362 0 0 1 -9.14588,1.05488 6.512362,6.512362 0 0 1 -1.06154,-9.14511" />
    <path
       style="opacity:1;fill:none;fill-opacity:1;stroke:#000000;stroke-width:1.46958;stroke-linecap:round;stroke-miterlimit:4;stroke-dasharray:none;stroke-dashoffset:0;stroke-opacity:1"
       id="path4186"
       d="m 320.74541,397.05415 a 6.512362,6.512362 0 0 1 9.14741,-1.04155 6.512362,6.512362 0 0 1 1.04822,9.14665 6.512362,6.512362 0 0 1 -9.14589,1.05488 6.512362,6.512362 0 0 1 -1.06154,-9.14511" />
    <path
       d="m 338.93749,387.95143 a 6.512362,6.512362 0 0 1 9.14741,-1.04155 6.512362,6.512362 0 0 1 1.04821,9.14664 6.512362,6.512362 0 0 1 -9.14588,1.05488 6.512362,6.512362 0 0 1 -1.06154,-9.14511"
       id="path4188"
       style="opacity:1;fill:#000000;fill-opacity:1;stroke:#000000;stroke-width:1.46958;stroke-linecap:round;stroke-miterlimit:4;stroke-dasharray:none;stroke-dashoffset:0;stroke-opacity:1" />
    <path
       d="m 267.45839,413.24317 a 6.512362,6.512362 0 0 1 9.14741,-1.04154 6.512362,6.512362 0 0 1 1.04822,9.14664 6.512362,6.512362 0 0 1 -9.14588,1.05488 6.512362,6.512362 0 0 1 -1.06155,-9.14511"
       id="path4190"
       style="opacity:1;fill:none;fill-opacity:1;stroke:#000000;stroke-width:1.46958;stroke-linecap:round;stroke-miterlimit:4;stroke-dasharray:none;stroke-dashoffset:0;stroke-opacity:1" />
    <path
       style="opacity:1;fill:#000000;fill-opacity:1;stroke:#000000;stroke-width:1.46958;stroke-linecap:round;stroke-miterlimit:4;stroke-dasharray:none;stroke-dashoffset:0;stroke-opacity:1"
       id="path4192"
       d="m 259.49807,392.68272 a 6.512362,6.512362 0 0 1 9.14741,-1.04155 6.512362,6.512362 0 0 1 1.04821,9.14665 6.512362,6.512362 0 0 1 -9.14588,1.05488 6.512362,6.512362 0 0 1 -1.06154,-9.14511" />
    <path
       style="opacity:1;fill:none;fill-opacity:1;stroke:#000000;stroke-width:1.46958;stroke-linecap:round;stroke-miterlimit:4;stroke-dasharray:none;stroke-dashoffset:0;stroke-opacity:1"
       id="path4194"
       d="m 310.4941,351.5558 a 6.512362,6.512362 0 0 1 9.14741,-1.04155 6.512362,6.512362 0 0 1 1.04821,9.14665 6.512362,6.512362 0 0 1 -9.14588,1.05487 6.512362,6.512362 0 0 1 -1.06154,-9.14511" />
    <path
       d="m 299.86031,333.27345 a 6.512362,6.512362 0 0 1 9.14741,-1.04155 6.512362,6.512362 0 0 1 1.04821,9.14665 6.512362,6.512362 0 0 1 -9.14588,1.05488 6.512362,6.512362 0 0 1 -1.06154,-9.14511"
       id="path4196"
       style="opacity:1;fill:#000000;fill-opacity:1;stroke:#000000;stroke-width:1.46958;stroke-linecap:round;stroke-miterlimit:4;stroke-dasharray:none;stroke-dashoffset:0;stroke-opacity:1" />
  </g>
  <path
     d="m 80.950858,121.7675 a 6.512362,6.512362 0 0 1 9.14741,-1.04155 6.512362,6.512362 0 0 1 1.04821,9.14665 6.512362,6.512362 0 0 1 -9.14588,1.05488 6.512362,6.512362 0 0 1 -1.06154,-9.14511"
     id="path4240"
     style="fill:#000000;fill-opacity:1;stroke:#000000;stroke-width:1.46958;stroke-linecap:round;stroke-miterlimit:4;stroke-dasharray:none;stroke-dashoffset:0;stroke-opacity:1" />
  <g
     transform="translate(-17.910305,-76.470775)"
     id="g4276">
    <path
       style="opacity:1;fill:none;fill-opacity:1;stroke:#000000;stroke-width:1.62239;stroke-linecap:round;stroke-miterlimit:4;stroke-dasharray:none;stroke-dashoffset:0;stroke-opacity:1"
       id="path4266"
       d="m 60.385912,199.75598 a 155.86435,83.597473 0 0 1 -195.601242,8.88038"
       transform="matrix(0.77626348,-0.63040861,0.59278312,0.80536214,0,0)" />
    <g
       id="g4272"
       transform="matrix(-0.14692495,-0.24133602,0.24133602,-0.14692495,69.810219,311.28669)">
      <path
         id="path4268"
         d="m 226.90552,151.49553 24.74873,-46.97209 -0.0631,23.35978 z"
         style="fill:#000000;fill-opacity:1;fill-rule:evenodd;stroke:#000000;stroke-width:1px;stroke-linecap:butt;stroke-linejoin:miter;stroke-opacity:1" />
      <path
         style="fill:#000000;fill-opacity:1;fill-rule:evenodd;stroke:#000000;stroke-width:1px;stroke-linecap:butt;stroke-linejoin:miter;stroke-opacity:1"
         d="m 276.54094,151.49553 -24.74873,-46.97209 0.0631,23.35978 z"
         id="path4270" />
    </g>
  </g>
  <g
     transform="translate(-5.053162,-66.470775)"
     id="g4658">
    <path
       transform="matrix(-0.83972421,0.54301313,-0.50246886,-0.86459531,0,0)"
       d="m 81.063479,-297.2669 a 155.86435,83.597473 0 0 1 -195.601249,8.88039"
       id="path4284"
       style="opacity:1;fill:none;fill-opacity:1;stroke:#000000;stroke-width:1.62239;stroke-linecap:round;stroke-miterlimit:4;stroke-dasharray:none;stroke-dashoffset:0;stroke-opacity:1" />
    <g
       transform="matrix(0.12004036,0.25577398,-0.25577398,0.12004036,196.5437,123.95186)"
       id="g4286">
      <path
         style="fill:#000000;fill-opacity:1;fill-rule:evenodd;stroke:#000000;stroke-width:1px;stroke-linecap:butt;stroke-linejoin:miter;stroke-opacity:1"
         d="m 226.90552,151.49553 24.74873,-46.97209 -0.0631,23.35978 z"
         id="path4288" />
      <path
         id="path4290"
         d="m 276.54094,151.49553 -24.74873,-46.97209 0.0631,23.35978 z"
         style="fill:#000000;fill-opacity:1;fill-rule:evenodd;stroke:#000000;stroke-width:1px;stroke-linecap:butt;stroke-linejoin:miter;stroke-opacity:1" />
    </g>
    <path
       style="opacity:1;fill:#ffffff;fill-opacity:1;stroke:#000000;stroke-width:1.46958;stroke-linecap:round;stroke-miterlimit:4;stroke-dasharray:none;stroke-dashoffset:0;stroke-opacity:1"
       id="path4242"
       d="m 138.87858,229.23205 a 6.512362,6.512362 0 0 1 9.1474,-1.04155 6.512362,6.512362 0 0 1 1.04822,9.14665 6.512362,6.512362 0 0 1 -9.14588,1.05488 6.512362,6.512362 0 0 1 -1.06155,-9.14511" />
  </g>
  <path
     d="m 344.03458,187.66858 a 26.977407,26.977407 0 0 1 37.89306,-4.3146 26.977407,26.977407 0 0 1 4.34222,37.88991 26.977407,26.977407 0 0 1 -37.88674,4.36983 26.977407,26.977407 0 0 1 -4.39743,-37.88355"
     id="path4155"
     style="fill:none;fill-opacity:1;stroke:#000000;stroke-width:1.5;stroke-linecap:round;stroke-miterlimit:4;stroke-dasharray:none;stroke-dashoffset:0;stroke-opacity:1" />
  <path
     d="M 429.94749,138.0128 A 83.464857,155.93541 55.638381 0 1 270.90965,252.95134"
     id="path4560"
     style="fill:none;fill-opacity:1;stroke:#000000;stroke-width:1.62147;stroke-linecap:round;stroke-miterlimit:4;stroke-dasharray:none;stroke-dashoffset:0;stroke-opacity:1" />
  <g
     transform="matrix(-0.12171693,-0.2549804,0.2549804,-0.12171693,315.8652,315.84782)"
     id="g4562">
    <path
       style="fill:#000000;fill-opacity:1;fill-rule:evenodd;stroke:#000000;stroke-width:1px;stroke-linecap:butt;stroke-linejoin:miter;stroke-opacity:1"
       d="m 226.90552,151.49553 24.74873,-46.97209 -0.0631,23.35978 z"
       id="path4564" />
    <path
       id="path4566"
       d="m 276.54094,151.49553 -24.74873,-46.97209 0.0631,23.35978 z"
       style="fill:#000000;fill-opacity:1;fill-rule:evenodd;stroke:#000000;stroke-width:1px;stroke-linecap:butt;stroke-linejoin:miter;stroke-opacity:1" />
  </g>
  <g
     transform="rotate(-178.37914,263.56537,225.76627)"
     id="g4568">
    <path
       transform="matrix(0.77626348,-0.63040861,0.59278312,0.80536214,0,0)"
       d="m 60.385912,199.75598 a 155.86435,83.597473 0 0 1 -195.601242,8.88038"
       id="path4570"
       style="opacity:1;fill:none;fill-opacity:1;stroke:#000000;stroke-width:1.62239;stroke-linecap:round;stroke-miterlimit:4;stroke-dasharray:none;stroke-dashoffset:0;stroke-opacity:1" />
    <g
       transform="matrix(-0.14692495,-0.24133602,0.24133602,-0.14692495,69.810219,311.28669)"
       id="g4572">
      <path
         style="fill:#000000;fill-opacity:1;fill-rule:evenodd;stroke:#000000;stroke-width:1px;stroke-linecap:butt;stroke-linejoin:miter;stroke-opacity:1"
         d="m 226.90552,151.49553 24.74873,-46.97209 -0.0631,23.35978 z"
         id="path4574" />
      <path
         id="path4576"
         d="m 276.54094,151.49553 -24.74873,-46.97209 0.0631,23.35978 z"
         style="fill:#000000;fill-opacity:1;fill-rule:evenodd;stroke:#000000;stroke-width:1px;stroke-linecap:butt;stroke-linejoin:miter;stroke-opacity:1" />
    </g>
  </g>
  <g
     transform="matrix(-5.4705456e-4,0.28254153,-0.28254153,-5.4705456e-4,703.72599,105.79061)"
     id="g4582">
    <path
       style="fill:#000000;fill-opacity:1;fill-rule:evenodd;stroke:#000000;stroke-width:1px;stroke-linecap:butt;stroke-linejoin:miter;stroke-opacity:1"
       d="m 226.90552,151.49553 24.74873,-46.97209 -0.0631,23.35978 z"
       id="path4584" />
    <path
       id="path4586"
       d="m 276.54094,151.49553 -24.74873,-46.97209 0.0631,23.35978 z"
       style="fill:#000000;fill-opacity:1;fill-rule:evenodd;stroke:#000000;stroke-width:1px;stroke-linecap:butt;stroke-linejoin:miter;stroke-opacity:1" />
  </g>
  <path
     d="M 543.12906,197.51217 A 33.28789,118.24999 77.961746 0 1 685.70447,178.71962"
     id="path4598"
     style="fill:none;fill-opacity:1;stroke:#000000;stroke-width:1.5;stroke-linecap:round;stroke-miterlimit:4;stroke-dasharray:none;stroke-dashoffset:0;stroke-opacity:1" />
  <g
     id="g4624"
     transform="translate(-25.053162,-19.327918)">
    <path
       style="opacity:1;fill:none;fill-opacity:1;stroke:#000000;stroke-width:0.492989;stroke-linecap:round;stroke-miterlimit:4;stroke-dasharray:none;stroke-dashoffset:0;stroke-opacity:1"
       id="path4620"
       d="m 580.9861,142.26301 a 29.458921,29.458921 0 0 1 15.57581,-22.87422 29.458921,29.458921 0 0 1 27.6734,0.13619"
       transform="rotate(1.7895654)" />
    <path
       d="m 579.058,134.8011 a 26.988791,26.988791 0 0 1 14.26978,-20.95621 26.988791,26.988791 0 0 1 25.35299,0.12476"
       id="path4622"
       style="opacity:1;fill:none;fill-opacity:1;stroke:#000000;stroke-width:0.451652;stroke-linecap:round;stroke-miterlimit:4;stroke-dasharray:none;stroke-dashoffset:0;stroke-opacity:1"
       transform="rotate(1.7895654)" />
  </g>
  <g
     transform="rotate(-124.22659,603.07768,200.07167)"
     id="g4628">
    <path
       transform="rotate(1.7895654)"
       d="m 580.9861,142.26301 a 29.458921,29.458921 0 0 1 15.57581,-22.87422 29.458921,29.458921 0 0 1 27.6734,0.13619"
       id="path4630"
       style="opacity:1;fill:none;fill-opacity:1;stroke:#000000;stroke-width:0.492989;stroke-linecap:round;stroke-miterlimit:4;stroke-dasharray:none;stroke-dashoffset:0;stroke-opacity:1" />
    <path
       transform="rotate(1.7895654)"
       style="opacity:1;fill:none;fill-opacity:1;stroke:#000000;stroke-width:0.451652;stroke-linecap:round;stroke-miterlimit:4;stroke-dasharray:none;stroke-dashoffset:0;stroke-opacity:1"
       id="path4632"
       d="m 579.058,134.8011 a 26.988791,26.988791 0 0 1 14.26978,-20.95621 26.988791,26.988791 0 0 1 25.35299,0.12476" />
  </g>
  <g
     id="g4634"
     transform="rotate(144.87351,615.40676,184.44689)">
    <path
       style="opacity:1;fill:none;fill-opacity:1;stroke:#000000;stroke-width:0.492989;stroke-linecap:round;stroke-miterlimit:4;stroke-dasharray:none;stroke-dashoffset:0;stroke-opacity:1"
       id="path4636"
       d="m 580.9861,142.26301 a 29.458921,29.458921 0 0 1 15.57581,-22.87422 29.458921,29.458921 0 0 1 27.6734,0.13619"
       transform="rotate(1.7895654)" />
    <path
       d="m 579.058,134.8011 a 26.988791,26.988791 0 0 1 14.26978,-20.95621 26.988791,26.988791 0 0 1 25.35299,0.12476"
       id="path4638"
       style="opacity:1;fill:none;fill-opacity:1;stroke:#000000;stroke-width:0.451652;stroke-linecap:round;stroke-miterlimit:4;stroke-dasharray:none;stroke-dashoffset:0;stroke-opacity:1"
       transform="rotate(1.7895654)" />
  </g>
  <g
     transform="translate(62.334799,24.539378)"
     id="g4642">
    <g
       id="g4600"
       transform="matrix(-0.25007656,-0.13149803,0.13149803,-0.25007656,306.56171,497.53028)">
      <path
         id="path4602"
         d="m 226.90552,151.49553 24.74873,-46.97209 -0.0631,23.35978 z"
         style="fill:#000000;fill-opacity:1;fill-rule:evenodd;stroke:#000000;stroke-width:1px;stroke-linecap:butt;stroke-linejoin:miter;stroke-opacity:1" />
      <path
         style="fill:#000000;fill-opacity:1;fill-rule:evenodd;stroke:#000000;stroke-width:1px;stroke-linecap:butt;stroke-linejoin:miter;stroke-opacity:1"
         d="m 276.54094,151.49553 -24.74873,-46.97209 0.0631,23.35978 z"
         id="path4604" />
    </g>
    <path
       transform="rotate(66.251504)"
       d="m 503.70196,-61.066654 a 83.571426,47.142857 0 0 1 1.49248,-49.250986"
       id="path4640"
       style="opacity:1;fill:none;fill-opacity:1;stroke:#000000;stroke-width:1.5;stroke-linecap:round;stroke-miterlimit:4;stroke-dasharray:none;stroke-dashoffset:0;stroke-opacity:1" />
  </g>
  <g
     transform="rotate(174.28542,342.58358,514.03091)"
     id="g4648">
    <g
       transform="matrix(-0.25007656,-0.13149803,0.13149803,-0.25007656,306.56171,497.53028)"
       id="g4650">
      <path
         style="fill:#000000;fill-opacity:1;fill-rule:evenodd;stroke:#000000;stroke-width:1px;stroke-linecap:butt;stroke-linejoin:miter;stroke-opacity:1"
         d="m 226.90552,151.49553 24.74873,-46.97209 -0.0631,23.35978 z"
         id="path4652" />
      <path
         id="path4654"
         d="m 276.54094,151.49553 -24.74873,-46.97209 0.0631,23.35978 z"
         style="fill:#000000;fill-opacity:1;fill-rule:evenodd;stroke:#000000;stroke-width:1px;stroke-linecap:butt;stroke-linejoin:miter;stroke-opacity:1" />
    </g>
    <path
       style="opacity:1;fill:none;fill-opacity:1;stroke:#000000;stroke-width:1.5;stroke-linecap:round;stroke-miterlimit:4;stroke-dasharray:none;stroke-dashoffset:0;stroke-opacity:1"
       id="path4656"
       d="m 503.70196,-61.066654 a 83.571426,47.142857 0 0 1 1.49248,-49.250986"
       transform="rotate(66.251504)" />
  </g>
  <path
     id="path4680"
     d="m 230.51543,297.64323 76.7716,-24.24366"
     style="fill:none;fill-rule:evenodd;stroke:#000000;stroke-width:1px;stroke-linecap:butt;stroke-linejoin:miter;stroke-opacity:1;marker-end:url(#Arrow1Lend)" />
  <path
     style="fill:none;fill-rule:evenodd;stroke:#000000;stroke-width:1px;stroke-linecap:butt;stroke-linejoin:miter;stroke-opacity:1;marker-end:url(#marker4686)"
     d="m 226.64289,353.49313 60.96459,52.58282"
     id="path4684" />
  <path
     id="path4690"
     d="m 453.88659,571.43394 77.01937,23.44464"
     style="fill:none;fill-rule:evenodd;stroke:#000000;stroke-width:1px;stroke-linecap:butt;stroke-linejoin:miter;stroke-opacity:1;marker-end:url(#marker4692)" />
  <path
     style="fill:none;fill-rule:evenodd;stroke:#000000;stroke-width:1px;stroke-linecap:butt;stroke-linejoin:miter;stroke-opacity:1;marker-end:url(#marker4698)"
     d="m 694.61532,646.98716 77.01937,23.44464"
     id="path4696" />
  <g
     transform="matrix(0.79913815,0,0,0.79913815,-11.011583,52.19009)"
     id="g5659">
    <path
       style="fill:none;stroke:#000000;stroke-width:1.5;stroke-linecap:round;stroke-linejoin:round;stroke-miterlimit:4;stroke-dasharray:none;stroke-dashoffset:0;stroke-opacity:1"
       d="m 651.261,-45.45484 c 0.0159,1.19741 0.69207,2.42185 1.80627,3.66431 1.11417,1.24252 2.64728,2.50201 4.08609,3.75776 1.43879,1.25572 2.75695,2.50647 3.51635,3.73439 0.75941,1.22787 0.94372,2.43216 0.49888,3.61068 -0.44484,1.17853 -1.51366,2.33149 -2.83836,3.47391 -1.3247,1.14241 -2.88217,2.27533 -4.1418,3.42046 -1.25965,1.14507 -2.19672,2.30343 -2.49229,3.48803 -0.29556,1.18462 0.0592,2.39592 0.94695,3.62909 0.88766,1.23312 2.29491,2.48757 3.75046,3.74401 1.45554,1.25642 2.93344,2.51373 3.94109,3.7518 1.00761,1.23809 1.52465,2.45601 1.38445,3.64698 -0.14018,1.19102 -0.93801,2.35505 -2.11646,3.50351 -1.17845,1.14842 -2.71775,2.28206 -4.09272,3.42242 -1.37497,1.14041 -2.55948,2.28859 -3.1506,3.46111 -0.59108,1.17254 -0.57483,2.36992 0.0455,3.59213 0.62028,1.22215 1.8366,2.46876 3.24133,3.72355 1.40494,1.25434 2.97419,2.51541 4.18367,3.76173 1.2095,1.24636 2.03571,2.47695 2.20744,3.68075 0.17176,1.20381 -0.31707,2.3805 -1.2935,3.53721 -0.97641,1.15673 -2.42482,2.29409 -3.85012,3.43244 -1.42529,1.13831 -2.80117,2.27863 -3.65947,3.44021 -0.85833,1.16152 -1.18067,2.34508 -0.85599,3.55514 0.32464,1.21007 1.2939,2.44652 2.58327,3.69615 1.28934,1.24962 2.87729,2.51144 4.23278,3.76374 1.35548,1.25235 2.45293,2.49409 2.92929,3.71039 0.47638,1.21625 0.32011,2.40661 -0.4079,3.57351 -0.72797,1.16697 -2.01711,2.31078 -3.42537,3.44982 -1.40829,1.13899 -2.91043,2.27415 -3.99513,3.42644 -1.08468,1.15231 -1.72984,2.32258 -1.7153,3.51994"
       title="cos(4*t) t"
       id="path17060" />
    <path
       style="fill:none;fill-rule:evenodd;stroke:#000000;stroke-width:2;stroke-linecap:butt;stroke-linejoin:miter;stroke-miterlimit:4;stroke-dasharray:8, 8;stroke-dashoffset:0;stroke-opacity:1"
       d="m 581.29464,58.612204 h 73.57143"
       id="path5653" />
    <text
       xml:space="preserve"
       style="font-style:normal;font-weight:normal;line-height:0%;font-family:sans-serif;letter-spacing:0px;word-spacing:0px;fill:#000000;fill-opacity:1;stroke:none;stroke-width:1px;stroke-linecap:butt;stroke-linejoin:miter;stroke-opacity:1"
       x="573.49426"
       y="65.5765"
       id="text5655"><tspan
         style="font-size:25.6327px;line-height:1.25;font-family:sans-serif"
         id="tspan5657"
         x="573.49426"
         y="65.5765">x</tspan></text>
  </g>
  <rect
     y="6.0438089"
     x="422.28412"
     height="112.01141"
     width="125.69925"
     id="rect5665"
     style="fill:none;fill-opacity:1;stroke:#000000;stroke-width:0.966931;stroke-linecap:round;stroke-miterlimit:4;stroke-dasharray:none;stroke-dashoffset:0;stroke-opacity:1" />
  <text
     id="text5667"
     y="16.92959"
     x="5.2054572"
     style="font-style:normal;font-weight:normal;line-height:0%;font-family:sans-serif;letter-spacing:0px;word-spacing:0px;fill:#000000;fill-opacity:1;stroke:none;stroke-width:1px;stroke-linecap:butt;stroke-linejoin:miter;stroke-opacity:1"
     xml:space="preserve"><tspan
       style="font-style:normal;font-variant:normal;font-weight:normal;font-stretch:normal;font-size:24.7871px;line-height:1.25;font-family:times;-inkscape-font-specification:times"
       y="16.92959"
       x="5.2054572"
       id="tspan5669"><tspan
   id="tspan5671"
   style="font-style:italic;font-variant:normal;font-weight:normal;font-stretch:normal;font-family:times;-inkscape-font-specification:'times Italic'">a</tspan><tspan
   id="tspan5673"
   style="font-size:16.1116px;baseline-shift:sub">0</tspan>=0.9 fm, v<tspan
   id="tspan5677"
   style="font-size:16.1116px;baseline-shift:sub">0</tspan>=-100 MeV</tspan></text>
  <path
     id="path5679"
     d="m 101.37541,30.177143 c 0,0 -1.425162,37.320564 3.57143,54.999999 3.88148,13.73386 18.82902,23.633438 20,37.857138 0.55599,6.75346 -6.42857,19.28572 -6.42857,19.28572"
     style="fill:none;fill-rule:evenodd;stroke:#000000;stroke-width:1px;stroke-linecap:butt;stroke-linejoin:miter;stroke-opacity:1" />
  <text
     id="text5681"
     y="48.098091"
     x="448.45166"
     style="font-style:normal;font-weight:normal;line-height:0%;font-family:sans-serif;letter-spacing:0px;word-spacing:0px;fill:#000000;fill-opacity:1;stroke:none;stroke-width:1px;stroke-linecap:butt;stroke-linejoin:miter;stroke-opacity:1"
     xml:space="preserve"><tspan
       style="font-style:normal;font-variant:normal;font-weight:normal;font-stretch:normal;font-size:28.7498px;line-height:1.25;font-family:times;-inkscape-font-specification:times"
       y="48.098091"
       x="448.45166"
       id="tspan5683">(I)</tspan></text>
  <text
     xml:space="preserve"
     style="font-style:normal;font-weight:normal;line-height:0%;font-family:sans-serif;letter-spacing:0px;word-spacing:0px;fill:#000000;fill-opacity:1;stroke:none;stroke-width:1px;stroke-linecap:butt;stroke-linejoin:miter;stroke-opacity:1"
     x="346.52267"
     y="534.48352"
     id="text5685"><tspan
       id="tspan5687"
       x="346.52267"
       y="534.48352"
       style="font-style:normal;font-variant:normal;font-weight:normal;font-stretch:normal;font-size:28.7498px;line-height:1.25;font-family:times;-inkscape-font-specification:times"><tspan
   id="tspan5689"
   style="font-size:65%;baseline-shift:super">223</tspan>Ra</tspan></text>
  <text
     id="text5691"
     y="698.27185"
     x="791.94916"
     style="font-style:normal;font-weight:normal;line-height:0%;font-family:sans-serif;letter-spacing:0px;word-spacing:0px;fill:#000000;fill-opacity:1;stroke:none;stroke-width:1px;stroke-linecap:butt;stroke-linejoin:miter;stroke-opacity:1"
     xml:space="preserve"><tspan
       style="font-style:normal;font-variant:normal;font-weight:normal;font-stretch:normal;font-size:28.7498px;line-height:1.25;font-family:times;-inkscape-font-specification:times"
       y="698.27185"
       x="791.94916"
       id="tspan5693"><tspan
   style="font-size:65%;baseline-shift:super"
   id="tspan5695">209</tspan>Pb</tspan></text>
  <text
     xml:space="preserve"
     style="font-style:normal;font-weight:normal;line-height:0%;font-family:sans-serif;letter-spacing:0px;word-spacing:0px;fill:#000000;fill-opacity:1;stroke:none;stroke-width:1px;stroke-linecap:butt;stroke-linejoin:miter;stroke-opacity:1"
     x="894.98474"
     y="736.15253"
     id="text5697"><tspan
       id="tspan5699"
       x="894.98474"
       y="736.15253"
       style="font-style:normal;font-variant:normal;font-weight:normal;font-stretch:normal;font-size:28.7498px;line-height:1.25;font-family:times;-inkscape-font-specification:times"><tspan
   id="tspan5701"
   style="font-size:65%;baseline-shift:super">14</tspan>C</tspan></text>
  <text
     xml:space="preserve"
     style="font-style:normal;font-weight:normal;line-height:0%;font-family:sans-serif;letter-spacing:0px;word-spacing:0px;fill:#000000;fill-opacity:1;stroke:none;stroke-width:1px;stroke-linecap:butt;stroke-linejoin:miter;stroke-opacity:1"
     x="566.68512"
     y="176.02301"
     id="text5703"><tspan
       id="tspan5705"
       x="566.68512"
       y="176.02301"
       style="font-style:normal;font-variant:normal;font-weight:normal;font-stretch:normal;font-size:28.7498px;line-height:1.25;font-family:times;-inkscape-font-specification:times"><tspan
   id="tspan5707"
   style="font-size:65%;baseline-shift:super">209</tspan>Pb</tspan></text>
  <text
     id="text5709"
     y="251.78445"
     x="17.162136"
     style="font-style:normal;font-weight:normal;line-height:0%;font-family:sans-serif;letter-spacing:0px;word-spacing:0px;fill:#000000;fill-opacity:1;stroke:none;stroke-width:1px;stroke-linecap:butt;stroke-linejoin:miter;stroke-opacity:1"
     xml:space="preserve"><tspan
       style="font-style:normal;font-variant:normal;font-weight:normal;font-stretch:normal;font-size:28.7498px;line-height:1.25;font-family:times;-inkscape-font-specification:times"
       y="251.78445"
       x="17.162136"
       id="tspan5711">(a)</tspan></text>
  <text
     xml:space="preserve"
     style="font-style:normal;font-weight:normal;line-height:0%;font-family:sans-serif;letter-spacing:0px;word-spacing:0px;fill:#000000;fill-opacity:1;stroke:none;stroke-width:1px;stroke-linecap:butt;stroke-linejoin:miter;stroke-opacity:1"
     x="120.19769"
     y="406.3378"
     id="text5715"><tspan
       id="tspan5717"
       x="120.19769"
       y="406.3378"
       style="font-style:normal;font-variant:normal;font-weight:normal;font-stretch:normal;font-size:28.7498px;line-height:1.25;font-family:times;-inkscape-font-specification:times">(b)</tspan></text>
  <text
     id="text5719"
     y="179.05348"
     x="293.94394"
     style="font-style:normal;font-weight:normal;line-height:0%;font-family:sans-serif;letter-spacing:0px;word-spacing:0px;fill:#000000;fill-opacity:1;stroke:none;stroke-width:1px;stroke-linecap:butt;stroke-linejoin:miter;stroke-opacity:1"
     xml:space="preserve"><tspan
       style="font-style:normal;font-variant:normal;font-weight:normal;font-stretch:normal;font-size:28.7498px;line-height:1.25;font-family:times;-inkscape-font-specification:times"
       y="179.05348"
       x="293.94394"
       id="tspan5721">(c)</tspan></text>
  <text
     xml:space="preserve"
     style="font-style:normal;font-weight:normal;line-height:0%;font-family:sans-serif;letter-spacing:0px;word-spacing:0px;fill:#000000;fill-opacity:1;stroke:none;stroke-width:1px;stroke-linecap:butt;stroke-linejoin:miter;stroke-opacity:1"
     x="635.37549"
     y="136.62708"
     id="text5723"><tspan
       id="tspan5725"
       x="635.37549"
       y="136.62708"
       style="font-style:normal;font-variant:normal;font-weight:normal;font-stretch:normal;font-size:28.7498px;line-height:1.25;font-family:times;-inkscape-font-specification:times">(d)</tspan></text>
  <text
     id="text5727"
     y="470.98758"
     x="426.27393"
     style="font-style:normal;font-weight:normal;line-height:0%;font-family:sans-serif;letter-spacing:0px;word-spacing:0px;fill:#000000;fill-opacity:1;stroke:none;stroke-width:1px;stroke-linecap:butt;stroke-linejoin:miter;stroke-opacity:1"
     xml:space="preserve"><tspan
       style="font-style:normal;font-variant:normal;font-weight:normal;font-stretch:normal;font-size:28.7498px;line-height:1.25;font-family:times;-inkscape-font-specification:times"
       y="470.98758"
       x="426.27393"
       id="tspan5729">(e)</tspan></text>
  <text
     xml:space="preserve"
     style="font-style:normal;font-weight:normal;line-height:0%;font-family:sans-serif;letter-spacing:0px;word-spacing:0px;fill:#000000;fill-opacity:1;stroke:none;stroke-width:1px;stroke-linecap:butt;stroke-linejoin:miter;stroke-opacity:1"
     x="585.87805"
     y="549.77942"
     id="text5731"><tspan
       id="tspan5733"
       x="585.87805"
       y="549.77942"
       style="font-style:normal;font-variant:normal;font-weight:normal;font-stretch:normal;font-size:28.7498px;line-height:1.25;font-family:times;-inkscape-font-specification:times">(f)</tspan></text>
  <text
     id="text5735"
     y="654.83527"
     x="879.8324"
     style="font-style:normal;font-weight:normal;line-height:0%;font-family:sans-serif;letter-spacing:0px;word-spacing:0px;fill:#000000;fill-opacity:1;stroke:none;stroke-width:1px;stroke-linecap:butt;stroke-linejoin:miter;stroke-opacity:1"
     xml:space="preserve"><tspan
       style="font-style:normal;font-variant:normal;font-weight:normal;font-stretch:normal;font-size:28.7498px;line-height:1.25;font-family:times;-inkscape-font-specification:times"
       y="654.83527"
       x="879.8324"
       id="tspan5737">(g)</tspan></text>
  <text
     xml:space="preserve"
     style="font-style:normal;font-weight:normal;line-height:0%;font-family:sans-serif;letter-spacing:0px;word-spacing:0px;fill:#000000;fill-opacity:1;stroke:none;stroke-width:1px;stroke-linecap:butt;stroke-linejoin:miter;stroke-opacity:1"
     x="521.41736"
     y="64.962242"
     id="text5739"><tspan
       id="tspan5741"
       x="521.41736"
       y="64.962242"
       style="font-style:normal;font-variant:normal;font-weight:normal;font-stretch:normal;font-size:28.7498px;line-height:1.25;font-family:times;-inkscape-font-specification:times">λ</tspan></text>
  <text
     xml:space="preserve"
     style="font-style:normal;font-weight:normal;line-height:0%;font-family:sans-serif;letter-spacing:0px;word-spacing:0px;fill:#000000;fill-opacity:1;stroke:none;stroke-width:1px;stroke-linecap:butt;stroke-linejoin:miter;stroke-opacity:1"
     x="57.134956"
     y="126.92185"
     id="text5752"><tspan
       id="tspan5754"
       x="57.134956"
       y="126.92185"
       style="font-style:normal;font-variant:normal;font-weight:normal;font-stretch:normal;font-size:28.7498px;line-height:1.25;font-family:times;-inkscape-font-specification:times">n</tspan></text>
  <text
     id="text5756"
     y="183.04715"
     x="149.44241"
     style="font-style:normal;font-weight:normal;line-height:0%;font-family:sans-serif;letter-spacing:0px;word-spacing:0px;fill:#000000;fill-opacity:1;stroke:none;stroke-width:1px;stroke-linecap:butt;stroke-linejoin:miter;stroke-opacity:1"
     xml:space="preserve"><tspan
       style="font-style:normal;font-variant:normal;font-weight:normal;font-stretch:normal;font-size:28.7498px;line-height:1.25;font-family:times;-inkscape-font-specification:times"
       y="183.04715"
       x="149.44241"
       id="tspan5758">p</tspan></text>
  <text
     xml:space="preserve"
     style="font-style:normal;font-weight:normal;line-height:0%;font-family:sans-serif;letter-spacing:0px;word-spacing:0px;fill:#000000;fill-opacity:1;stroke:none;stroke-width:1px;stroke-linecap:butt;stroke-linejoin:miter;stroke-opacity:1"
     x="349.95493"
     y="203.04715"
     id="text5760"><tspan
       id="tspan5762"
       x="349.95493"
       y="203.04715"
       style="font-style:normal;font-variant:normal;font-weight:normal;font-stretch:normal;font-size:28.7498px;line-height:1.25;font-family:times;-inkscape-font-specification:times">a</tspan></text>
  <text
     id="text5764"
     y="287.32544"
     x="417.09778"
     style="font-style:normal;font-weight:normal;line-height:0%;font-family:sans-serif;letter-spacing:0px;word-spacing:0px;fill:#000000;fill-opacity:1;stroke:none;stroke-width:1px;stroke-linecap:butt;stroke-linejoin:miter;stroke-opacity:1"
     xml:space="preserve"><tspan
       style="font-style:normal;font-variant:normal;font-weight:normal;font-stretch:normal;font-size:28.7498px;line-height:1.25;font-family:times;-inkscape-font-specification:times"
       y="287.32544"
       x="417.09778"
       id="tspan5766">A</tspan></text>
  <path
     id="path1210"
     d="m 90.401788,129.9753 43.411832,32.80084"
     style="fill:none;fill-rule:evenodd;stroke:#000000;stroke-width:1.875;stroke-linecap:butt;stroke-linejoin:miter;stroke-miterlimit:4;stroke-dasharray:3.75, 3.75;stroke-dashoffset:0;stroke-opacity:1" />
  <path
     id="path10343"
     d="m 771.931,445.61715 c 9.37844,-7.20256 13.38876,-19.4139 10.10656,-30.77433 -3.28218,-11.36042 -13.18703,-19.55146 -24.47627,-20.58009 -5.84525,-0.12231 -11.45838,-3.96539 -13.87948,-9.53898 -7.14566,-18.62885 -25.34206,-31.12725 -45.62948,-31.10789 -20.28744,0.0194 -38.45995,12.55246 -45.68689,31.50904 -7.22693,18.95657 -2.01001,40.40656 13.11568,53.92669 15.1257,13.52012 37.02433,16.30739 55.10335,7.0236 5.98497,-3.61214 13.56992,-3.07216 18.96941,1.3634 10.1661,6.105 22.99869,5.38112 32.37712,-1.82144 z"
     style="fill:none;fill-opacity:1;stroke:#000000;stroke-width:0;stroke-linecap:round;stroke-miterlimit:4;stroke-dasharray:none;stroke-dashoffset:0;stroke-opacity:1" />
  <path
     id="path3523"
     style="fill:none;fill-opacity:1;stroke:#000000;stroke-width:1.50000001;stroke-linecap:round;stroke-miterlimit:4;stroke-dasharray:none;stroke-dashoffset:0;stroke-opacity:1"
     d="m 589.19112,563.87761 a 46.988449,46.988449 0 0 0 -36.96167,17.72094 l -0.0861,0.10804 a 46.988449,46.988449 0 0 0 7.6593,65.98388 46.988449,46.988449 0 0 0 65.98938,-7.61169 46.988449,46.988449 0 0 0 0.4834,-0.6189 26.977407,26.977407 0 0 0 9.97376,17.50122 26.977407,26.977407 0 0 0 37.88635,-4.3689 26.977407,26.977407 0 0 0 -4.34143,-37.89001 26.977407,26.977407 0 0 0 -34.00452,0.3479 46.988449,46.988449 0 0 0 -17.55981,-40.96618 46.988449,46.988449 0 0 0 -29.0387,-10.2063 z" />
</svg>
