<?xml version="1.0" encoding="UTF-8" standalone="no"?>
<svg
   xmlns:dc="http://purl.org/dc/elements/1.1/"
   xmlns:cc="http://creativecommons.org/ns#"
   xmlns:rdf="http://www.w3.org/1999/02/22-rdf-syntax-ns#"
   xmlns:svg="http://www.w3.org/2000/svg"
   xmlns="http://www.w3.org/2000/svg"
   viewBox="0 0 503.20496 186.2618"
   height="186.2618"
   width="503.20496"
   xml:space="preserve"
   version="1.1"
   id="svg8457"><metadata
     id="metadata8463"><rdf:RDF><cc:Work
         rdf:about=""><dc:format>image/svg+xml</dc:format><dc:type
           rdf:resource="http://purl.org/dc/dcmitype/StillImage" /><dc:title></dc:title></cc:Work></rdf:RDF></metadata><defs
     id="defs8461" /><g
     transform="matrix(1.25,0,0,-1.25,-22.420138,-13.689662)"
     id="g8465"><g
       id="g8467" /><g
       transform="matrix(0.3337388,0,0,-0.3337388,-105.61199,64.181708)"
       id="g12265"><path
         style="fill:none;stroke:#000000;stroke-width:3.54399991;stroke-linecap:butt;stroke-linejoin:miter;stroke-miterlimit:4;stroke-dasharray:none;stroke-opacity:1"
         d="m 383.65675,575.20828 0,-215.36835"
         id="path11376" /><g
         id="g12111"
         transform="matrix(0.66800054,0,0,0.66800054,127.12418,145.63346)"><path
           id="path11402"
           d="m 366.05482,486.69268 17.82436,-44.34913"
           style="fill:none;stroke:#000000;stroke-width:4.33300018;stroke-linecap:round;stroke-linejoin:miter;stroke-miterlimit:4;stroke-dasharray:none;stroke-opacity:1" /><path
           style="fill:none;stroke:#000000;stroke-width:4.33300018;stroke-linecap:round;stroke-linejoin:miter;stroke-miterlimit:4;stroke-dasharray:none;stroke-opacity:1"
           d="M 401.66118,486.69268 383.83682,442.34355"
           id="path11404" /></g><g
         id="g12126"
         transform="translate(354.28571,-1.4285714)"><g
           transform="translate(-40.890493,19.628753)"
           id="g12128"><path
             id="path12130"
             d="m 247.57112,444.162 c 0,66.08702 -58.04181,119.66112 -58.04181,119.66112 0,0 -58.04181,-53.5741 -58.04181,-119.66112 0,-66.08701 58.04181,-119.66111 58.04181,-119.66111 0,0 58.04181,53.5741 58.04181,119.66111"
             style="fill:#ffffff;fill-opacity:1;stroke:#0d0000;stroke-width:3.49699998;stroke-miterlimit:4;stroke-dasharray:none;stroke-opacity:1" /><g
             id="g12132"
             transform="matrix(0.69465416,0.04528402,0.06505123,-0.99788193,106.79264,702.84953)"><path
               id="path12134"
               d="m 163.64471,276.56503 14.03335,-24.30647"
               style="fill:none;stroke:#000000;stroke-width:3.70000005;stroke-linecap:round;stroke-linejoin:miter;stroke-miterlimit:4;stroke-dasharray:none;stroke-opacity:1" /><path
               style="fill:none;stroke:#000000;stroke-width:3.70000005;stroke-linecap:round;stroke-linejoin:miter;stroke-miterlimit:4;stroke-dasharray:none;stroke-opacity:1"
               d="M 191.67806,276.56503 177.64471,252.25856"
               id="path12136" /></g><g
             transform="matrix(0.69524843,0.03499506,-0.05027097,0.99873562,21.119807,175.70089)"
             id="g12138"><path
               style="fill:none;stroke:#000000;stroke-width:3.70000005;stroke-linecap:round;stroke-linejoin:miter;stroke-miterlimit:4;stroke-dasharray:none;stroke-opacity:1"
               d="m 163.64471,276.56503 14.03335,-24.30647"
               id="path12140" /><path
               id="path12142"
               d="M 191.67806,276.56503 177.64471,252.25856"
               style="fill:none;stroke:#000000;stroke-width:3.70000005;stroke-linecap:round;stroke-linejoin:miter;stroke-miterlimit:4;stroke-dasharray:none;stroke-opacity:1" /></g></g><path
           id="path12144"
           title="t cos(11*t)"
           d="m 149.00402,346.64607 c 0.1315,2.69941 -1.21051,5.3968 -3.16469,8.09326 -1.95417,2.69654 -4.38907,5.39235 -5.80252,8.08959 -1.41347,2.6973 -1.70382,5.39616 -0.62861,8.09692 1.07525,2.70085 3.46258,5.40352 5.8394,8.10622 2.37683,2.70267 4.60191,5.40515 5.45358,8.10569 0.85167,2.70039 0.27898,5.39889 -1.30004,8.09592 -1.57895,2.69705 -4.06063,5.39279 -5.91375,8.08941 -1.85316,2.69658 -2.95012,5.39429 -2.57558,8.09415 0.37453,2.69979 2.21154,5.40172 4.50935,8.10432 2.29776,2.70255 4.922,5.40562 6.41591,8.10696 1.49386,2.7014 1.76692,5.40111 0.7424,8.09891 -1.02449,2.69787 -3.27921,5.3939 -5.3641,8.09023 -2.08489,2.69625 -3.85965,5.39303 -4.21114,8.0918 -0.35149,2.69878 0.75683,5.39963 2.7489,8.10179 1.99209,2.70209 4.75472,5.40539 6.7483,8.10746 1.99358,2.70211 3.0978,5.40301 2.74889,8.1018 -0.34887,2.69878 -2.12667,5.39554 -4.21112,8.09176 -2.08448,2.69633 -4.33732,5.39243 -5.36411,8.09023 -1.02682,2.69781 -0.74934,5.39749 0.74241,8.09894 1.49175,2.70131 4.1174,5.40438 6.41591,8.10696 2.29851,2.70256 4.13216,5.4045 4.50934,8.10432 0.37719,2.69983 -0.72369,5.39756 -2.57559,8.09413 -1.85185,2.69663 -4.33306,5.39235 -5.91374,8.08941 -1.58067,2.69704 -2.14919,5.39549 -1.30003,8.09603 0.84912,2.70045 3.07687,5.40292 5.45356,8.1056 2.37668,2.70265 4.76175,5.40537 5.8394,8.10621 1.07766,2.70075 0.78291,5.39964 -0.62861,8.09693 -1.4115,2.69725 -3.84735,5.39308 -5.80252,8.08957 -1.95516,2.69648 -3.29623,5.39383 -3.16469,8.09325"
           style="fill:none;stroke:#000000;stroke-width:2.87400007;stroke-linecap:round;stroke-miterlimit:4;stroke-dasharray:none;stroke-dashoffset:0;stroke-opacity:1" /></g></g><g
       transform="matrix(0.3337388,0,0,-0.3337388,8.7696183,100.4162)"
       id="g12216"><path
         style="fill:#ffffff;fill-opacity:1;stroke:#0d0000;stroke-width:2.39007425;stroke-linecap:round;stroke-miterlimit:4;stroke-dasharray:none;stroke-dashoffset:0;stroke-opacity:1"
         d="m 1106.2506,661.23809 c 3.4909,4.1302 7.5339,8.01822 11.6864,9.936 4.1525,1.91779 8.3454,1.78784 11.8501,-0.48548 3.5048,-2.27333 6.2643,-6.63899 8.2748,-11.51841 2.0106,-4.87947 3.2993,-10.1477 4.7877,-14.08681 1.4884,-3.93908 3.2666,-6.47455 6.2089,-7.32626 2.9424,-0.85171 7.1031,-0.0642 12.1792,1.09236 5.076,1.15643 11.0157,2.57042 16.3814,2.76902 5.3657,0.1986 10.0417,-0.8831 12.8106,-3.53462 2.769,-2.65149 3.569,-6.83443 2.7416,-11.56803 -0.8274,-4.73359 -3.2191,-9.92813 -5.4163,-14.47095 -2.1972,-4.54286 -4.0671,-8.39102 -4.0702,-11.37434 0,-2.98332 1.9315,-5.14417 5.5614,-7.18728 3.6299,-2.04311 8.8875,-4.03957 13.8639,-6.59391 4.9763,-2.55433 9.5265,-5.68308 11.8404,-9.1907 2.3139,-3.50761 2.3096,-7.34037 0,-10.84863 -2.3097,-3.50822 -6.8648,-6.63535 -11.8404,-9.19073 -4.9757,-2.55535 -10.2309,-4.55095 -13.8639,-6.59388 -3.633,-2.04295 -5.5608,-4.20551 -5.5614,-7.18727 -6e-4,-2.9818 1.8734,-6.83273 4.0702,-11.37434 2.1968,-4.54166 4.5859,-9.73637 5.4163,-14.47098 0.8304,-4.73459 0.024,-8.9136 -2.7416,-11.56801 -2.7653,-2.65438 -7.4462,-3.73091 -12.8106,-3.53462 -5.3645,0.19629 -11.3039,1.61199 -16.3814,2.76903 -5.0777,1.15704 -9.2346,1.94096 -12.1792,1.09235 -2.9445,-0.84863 -4.7201,-3.38966 -6.2089,-7.32629 -1.4888,-3.93659 -2.7785,-9.20643 -4.7877,-14.08677 -2.0091,-4.88034 -4.7713,-9.24111 -8.2748,-11.51841 -3.5034,-2.27728 -7.6975,-2.39952 -11.8501,-0.48551 -4.1525,1.91405 -8.1955,5.80582 -11.6864,9.93602"
         title="cos(t)*(7+sin(9*t)) sin(t)*(7+sin(9*t))"
         id="path4660-1" /><path
         id="path4258"
         d="m 1106.2144,780.18308 0,-418.49894"
         style="fill:none;stroke:#000000;stroke-width:2.66255832;stroke-linecap:butt;stroke-linejoin:miter;stroke-miterlimit:4;stroke-dasharray:none;stroke-opacity:1" /><g
         transform="matrix(0.60217119,0,0,0.86502864,999.19942,180.87003)"
         id="g4260"><path
           style="fill:none;stroke:#000000;stroke-width:3.70000005;stroke-linecap:round;stroke-linejoin:miter;stroke-miterlimit:4;stroke-dasharray:none;stroke-opacity:1"
           d="m 163.64471,276.56503 14.03335,-24.30647"
           id="path4262" /><path
           id="path4264"
           d="M 191.67806,276.56503 177.64471,252.25856"
           style="fill:none;stroke:#000000;stroke-width:3.70000005;stroke-linecap:round;stroke-linejoin:miter;stroke-miterlimit:4;stroke-dasharray:none;stroke-opacity:1" /></g><g
         id="g4266"
         transform="matrix(0.60217119,0,0,0.86502864,999.19942,346.95553)"><path
           id="path4268"
           d="m 163.64471,276.56503 14.03335,-24.30647"
           style="fill:none;stroke:#000000;stroke-width:3.70000005;stroke-linecap:round;stroke-linejoin:miter;stroke-miterlimit:4;stroke-dasharray:none;stroke-opacity:1" /><path
           style="fill:none;stroke:#000000;stroke-width:3.70000005;stroke-linecap:round;stroke-linejoin:miter;stroke-miterlimit:4;stroke-dasharray:none;stroke-opacity:1"
           d="M 191.67806,276.56503 177.64471,252.25856"
           id="path4270" /></g><g
         transform="matrix(0.60217119,0,0,0.86502864,999.19942,497.47051)"
         id="g4272"><path
           style="fill:none;stroke:#000000;stroke-width:3.70000005;stroke-linecap:round;stroke-linejoin:miter;stroke-miterlimit:4;stroke-dasharray:none;stroke-opacity:1"
           d="m 163.64471,276.56503 14.03335,-24.30647"
           id="path4274" /><path
           id="path4276"
           d="M 191.67806,276.56503 177.64471,252.25856"
           style="fill:none;stroke:#000000;stroke-width:3.70000005;stroke-linecap:round;stroke-linejoin:miter;stroke-miterlimit:4;stroke-dasharray:none;stroke-opacity:1" /></g></g><g
       transform="translate(-61.074033,16.826519)"
       id="g9347"><g
         id="g9310"
         transform="matrix(0.66827709,0.74391245,-0.74391245,0.66827709,29.52803,-246.47172)"><path
           id="path4660"
           title="cos(t)*(7+sin(9*t)) sin(t)*(7+sin(9*t))"
           d="m 274.71258,-128.26809 c 1.04025,-1.77075 2.24506,-3.43766 3.48247,-4.25988 1.2374,-0.82222 2.48683,-0.7665 3.53122,0.20815 1.04439,0.97464 1.86671,2.84634 2.46583,4.93831 0.59912,2.09198 0.98316,4.35064 1.42667,6.03947 0.44352,1.6888 0.97343,2.77585 1.85022,3.141 0.8768,0.36515 2.11666,0.0275 3.62927,-0.46833 1.51261,-0.4958 3.28261,-1.10202 4.88153,-1.18717 1.59892,-0.0851 2.99234,0.37861 3.81747,1.51541 0.82513,1.13677 1.06352,2.93014 0.81696,4.95958 -0.24657,2.02945 -0.95925,4.25651 -1.61401,6.20417 -0.65476,1.94766 -1.21198,3.5975 -1.21287,4.87655 -6.6e-4,1.27904 0.57554,2.20547 1.65724,3.08141 1.08169,0.875948 2.64842,1.731894 4.13132,2.827018 1.48291,1.095134 2.83881,2.43653 3.52833,3.940351 0.68954,1.503827 0.68827,3.14706 0,4.651157 -0.68826,1.504087 -2.04563,2.844796 -3.52833,3.940367 -1.48269,1.095558 -3.04872,1.951141 -4.13132,2.827012 -1.0826,0.875874 -1.65707,1.803033 -1.65724,3.081417 -1.9e-4,1.278393 0.55826,2.929405 1.21287,4.876544 0.65462,1.947153 1.36656,4.174292 1.61401,6.204174 0.24744,2.02987 0.007,3.821553 -0.81696,4.959576 -0.82405,1.138026 -2.21891,1.599567 -3.81747,1.515404 -1.59856,-0.08416 -3.36845,-0.691113 -4.88153,-1.187169 -1.51309,-0.496062 -2.75182,-0.832151 -3.62927,-0.468329 -0.87745,0.363842 -1.40656,1.453259 -1.85022,3.14102 -0.44366,1.687747 -0.82795,3.947092 -1.42667,6.039454 -0.59872,2.092355 -1.42183,3.961963 -2.46583,4.938313 -1.044,0.976346 -2.29379,1.028753 -3.53122,0.20815 -1.23744,-0.820611 -2.44222,-2.489141 -3.48247,-4.259886"
           style="fill:#ffffff;fill-opacity:1;stroke:#0d0000;stroke-width:0.76322418;stroke-linecap:round;stroke-miterlimit:4;stroke-dasharray:none;stroke-dashoffset:0;stroke-opacity:1" /><path
           id="path9308"
           d="m 274.65787,-52.037568 0,-76.254902"
           style="fill:none;fill-rule:evenodd;stroke:#000000;stroke-width:0.80000001px;stroke-linecap:round;stroke-linejoin:miter;stroke-opacity:1" /></g><path
         style="fill:none;fill-rule:evenodd;stroke:#000000;stroke-width:0.80000001px;stroke-linecap:butt;stroke-linejoin:miter;stroke-opacity:1"
         d="m 308.44488,-127.97049 46.74033,78.523755"
         id="path9314" /><path
         id="path9316"
         d="m 205.10743,-155.471 46.74033,78.523749"
         style="fill:none;fill-rule:evenodd;stroke:#000000;stroke-width:0.80000001px;stroke-linecap:butt;stroke-linejoin:miter;stroke-opacity:1" /><g
         id="g9326"
         transform="matrix(0.51998305,-0.85417658,0.85417658,0.51998305,235.17534,251.48172)"><path
           style="fill:none;stroke:#000000;stroke-width:0.96598905;stroke-linecap:round;stroke-linejoin:miter;stroke-miterlimit:4;stroke-dasharray:none;stroke-opacity:1"
           d="m 330.89132,-84.096972 -1.05673,10.603223"
           id="path9320" /><path
           id="path9322"
           d="m 337.92683,-80.420922 -8.10061,6.922799"
           style="fill:none;stroke:#000000;stroke-width:0.96598905;stroke-linecap:round;stroke-linejoin:miter;stroke-miterlimit:4;stroke-dasharray:none;stroke-opacity:1" /><path
           style="fill:none;stroke:#000000;stroke-width:0.96598905;stroke-linecap:round;stroke-linejoin:miter;stroke-miterlimit:4;stroke-dasharray:none;stroke-opacity:1"
           d="m 337.92683,-80.420922 -8.10061,6.922799"
           id="path9324" /></g><g
         transform="matrix(-0.93092729,-0.36520459,0.36520459,-0.93092729,619.29477,-55.081634)"
         id="g9331"><path
           id="path9333"
           d="m 330.89132,-84.096972 -1.05673,10.603223"
           style="fill:none;stroke:#000000;stroke-width:0.96598905;stroke-linecap:round;stroke-linejoin:miter;stroke-miterlimit:4;stroke-dasharray:none;stroke-opacity:1" /><path
           style="fill:none;stroke:#000000;stroke-width:0.96598905;stroke-linecap:round;stroke-linejoin:miter;stroke-miterlimit:4;stroke-dasharray:none;stroke-opacity:1"
           d="m 337.92683,-80.420922 -8.10061,6.922799"
           id="path9335" /><path
           id="path9337"
           d="m 337.92683,-80.420922 -8.10061,6.922799"
           style="fill:none;stroke:#000000;stroke-width:0.96598905;stroke-linecap:round;stroke-linejoin:miter;stroke-miterlimit:4;stroke-dasharray:none;stroke-opacity:1" /></g><g
         id="g9339"
         transform="matrix(0.49725344,-0.86760534,0.86760534,0.49725344,129.98176,209.26082)"><path
           style="fill:none;stroke:#000000;stroke-width:0.96598905;stroke-linecap:round;stroke-linejoin:miter;stroke-miterlimit:4;stroke-dasharray:none;stroke-opacity:1"
           d="m 330.89132,-84.096972 -1.05673,10.603223"
           id="path9341" /><path
           id="path9343"
           d="m 337.92683,-80.420922 -8.10061,6.922799"
           style="fill:none;stroke:#000000;stroke-width:0.96598905;stroke-linecap:round;stroke-linejoin:miter;stroke-miterlimit:4;stroke-dasharray:none;stroke-opacity:1" /><path
           style="fill:none;stroke:#000000;stroke-width:0.96598905;stroke-linecap:round;stroke-linejoin:miter;stroke-miterlimit:4;stroke-dasharray:none;stroke-opacity:1"
           d="m 337.92683,-80.420922 -8.10061,6.922799"
           id="path9345" /></g></g><text
       transform="scale(1,-1)"
       id="text9366"
       y="24.075197"
       x="49.223648"
       style="font-style:normal;font-weight:normal;font-size:19.21444702px;line-height:125%;font-family:Sans;letter-spacing:0px;word-spacing:0px;fill:#000000;fill-opacity:1;stroke:none;stroke-width:1px;stroke-linecap:butt;stroke-linejoin:miter;stroke-opacity:1"
       xml:space="preserve"><tspan
         style="font-style:normal;font-variant:normal;font-weight:normal;font-stretch:normal;font-family:times;-inkscape-font-specification:times"
         y="24.075197"
         x="49.223648"
         id="tspan9368">(a)</tspan></text>
<text
       xml:space="preserve"
       style="font-style:normal;font-weight:normal;font-size:19.21444702px;line-height:125%;font-family:Sans;letter-spacing:0px;word-spacing:0px;fill:#000000;fill-opacity:1;stroke:none;stroke-width:1px;stroke-linecap:butt;stroke-linejoin:miter;stroke-opacity:1"
       x="218.42365"
       y="24.075197"
       id="text9370"
       transform="scale(1,-1)"><tspan
         id="tspan9372"
         x="218.42365"
         y="24.075197"
         style="font-style:normal;font-variant:normal;font-weight:normal;font-stretch:normal;font-family:times;-inkscape-font-specification:times">(b)</tspan></text>
<text
       transform="scale(1,-1)"
       id="text9374"
       y="24.075197"
       x="400.08774"
       style="font-style:normal;font-weight:normal;font-size:19.21444702px;line-height:125%;font-family:Sans;letter-spacing:0px;word-spacing:0px;fill:#000000;fill-opacity:1;stroke:none;stroke-width:1px;stroke-linecap:butt;stroke-linejoin:miter;stroke-opacity:1"
       xml:space="preserve"><tspan
         style="font-style:normal;font-variant:normal;font-weight:normal;font-stretch:normal;font-family:times;-inkscape-font-specification:times"
         y="24.075197"
         x="400.08774"
         id="tspan9376">(c)</tspan></text>
</g></svg>