<?xml version="1.0" encoding="UTF-8" standalone="no"?>
<!-- Created with Inkscape (http://www.inkscape.org/) -->

<svg
   xmlns:dc="http://purl.org/dc/elements/1.1/"
   xmlns:cc="http://creativecommons.org/ns#"
   xmlns:rdf="http://www.w3.org/1999/02/22-rdf-syntax-ns#"
   xmlns:svg="http://www.w3.org/2000/svg"
   xmlns="http://www.w3.org/2000/svg"
   xmlns:sodipodi="http://sodipodi.sourceforge.net/DTD/sodipodi-0.dtd"
   xmlns:inkscape="http://www.inkscape.org/namespaces/inkscape"
   version="1.1"
   id="svg834"
   xml:space="preserve"
   width="951.30682"
   height="679.08978"
   viewBox="0 0 951.30682 679.08978"
   sodipodi:docname="funnel_norm_tot_try_v2.svg"
   inkscape:version="0.92.4 (5da689c313, 2019-01-14)"><metadata
     id="metadata840"><rdf:RDF><cc:Work
         rdf:about=""><dc:format>image/svg+xml</dc:format><dc:type
           rdf:resource="http://purl.org/dc/dcmitype/StillImage" /><dc:title></dc:title></cc:Work></rdf:RDF></metadata><defs
     id="defs838" /><sodipodi:namedview
     pagecolor="#ffffff"
     bordercolor="#666666"
     borderopacity="1"
     objecttolerance="10"
     gridtolerance="10"
     guidetolerance="10"
     inkscape:pageopacity="0"
     inkscape:pageshadow="2"
     inkscape:window-width="1383"
     inkscape:window-height="828"
     id="namedview836"
     showgrid="false"
     inkscape:zoom="0.52848661"
     inkscape:cx="406.6372"
     inkscape:cy="250.87549"
     inkscape:window-x="1835"
     inkscape:window-y="107"
     inkscape:window-maximized="0"
     inkscape:current-layer="g842"
     inkscape:snap-global="false" /><g
     id="g842"
     inkscape:groupmode="layer"
     inkscape:label="funnel_norm_tot_try"
     transform="matrix(1.3333333,0,0,-1.3333333,0,679.08976)"><g
       transform="translate(0,509.31732)"
       id="g846"><path
         inkscape:connector-curvature="0"
         id="path848"
         style="fill:none;stroke:#000000;stroke-width:3.67199993;stroke-linecap:butt;stroke-linejoin:miter;stroke-miterlimit:10;stroke-dasharray:none;stroke-opacity:1"
         d="m 224.086,-135.82 17.133,-45.106 22.035,-45.105 25.09,-40.574 22.031,-45.106 25.094,-45.105 28.152,-40.575 27.539,-36.047 30.602,40.575 24.48,45.105 128.52,166.832 67.32,85.68 55.141,85.742" /></g><g
       transform="translate(0,509.31732)"
       id="g890"><path
         inkscape:connector-curvature="0"
         id="path892"
         style="fill:none;stroke:#000000;stroke-width:0.91799998;stroke-linecap:butt;stroke-linejoin:miter;stroke-miterlimit:10;stroke-dasharray:none;stroke-opacity:1"
         d="m 85.16,-437.965 h 612" /></g><g
       transform="translate(0,509.31732)"
       id="g894"><path
         inkscape:connector-curvature="0"
         id="path896"
         style="fill:none;stroke:#000000;stroke-width:0.91799998;stroke-linecap:butt;stroke-linejoin:miter;stroke-miterlimit:10;stroke-dasharray:none;stroke-opacity:1"
         d="m 85.16,-9.566 h 612" /></g><g
       transform="translate(0,509.31732)"
       id="g898"><path
         inkscape:connector-curvature="0"
         id="path900"
         style="fill:none;stroke:#000000;stroke-width:0.91799998;stroke-linecap:butt;stroke-linejoin:miter;stroke-miterlimit:10;stroke-dasharray:none;stroke-opacity:1"
         d="m 238.16,-437.965 v 6.117" /></g><g
       transform="translate(0,509.31732)"
       id="g902"><path
         inkscape:connector-curvature="0"
         id="path904"
         style="fill:none;stroke:#000000;stroke-width:0.91799998;stroke-linecap:butt;stroke-linejoin:miter;stroke-miterlimit:10;stroke-dasharray:none;stroke-opacity:1"
         d="m 238.16,-9.566 v -6.122" /></g><g
       transform="translate(0,509.31732)"
       id="g906"><path
         inkscape:connector-curvature="0"
         id="path908"
         style="fill:none;stroke:#000000;stroke-width:0.91799998;stroke-linecap:butt;stroke-linejoin:miter;stroke-miterlimit:10;stroke-dasharray:none;stroke-opacity:1"
         d="m 544.16,-437.965 v 6.117" /></g><g
       transform="translate(0,509.31732)"
       id="g910"><path
         inkscape:connector-curvature="0"
         id="path912"
         style="fill:none;stroke:#000000;stroke-width:0.91799998;stroke-linecap:butt;stroke-linejoin:miter;stroke-miterlimit:10;stroke-dasharray:none;stroke-opacity:1"
         d="m 544.16,-9.566 v -6.122" /></g><g
       transform="translate(0,509.31732)"
       id="g914"><path
         inkscape:connector-curvature="0"
         id="path916"
         style="fill:none;stroke:#000000;stroke-width:0.91799998;stroke-linecap:butt;stroke-linejoin:miter;stroke-miterlimit:10;stroke-dasharray:none;stroke-opacity:1"
         d="m 85.16,-437.965 v 12.238" /></g><g
       transform="translate(0,509.31732)"
       id="g918"><path
         inkscape:connector-curvature="0"
         id="path920"
         style="fill:none;stroke:#000000;stroke-width:0.91799998;stroke-linecap:butt;stroke-linejoin:miter;stroke-miterlimit:10;stroke-dasharray:none;stroke-opacity:1"
         d="M 85.16,-9.566 V -21.805" /></g><g
       transform="translate(0,509.31732)"
       id="g922"><path
         inkscape:connector-curvature="0"
         id="path924"
         style="fill:none;stroke:#000000;stroke-width:0.91799998;stroke-linecap:butt;stroke-linejoin:miter;stroke-miterlimit:10;stroke-dasharray:none;stroke-opacity:1"
         d="m 391.16,-437.965 v 12.238" /></g><g
       transform="translate(0,509.31732)"
       id="g926"><path
         inkscape:connector-curvature="0"
         id="path928"
         style="fill:none;stroke:#000000;stroke-width:0.91799998;stroke-linecap:butt;stroke-linejoin:miter;stroke-miterlimit:10;stroke-dasharray:none;stroke-opacity:1"
         d="M 391.16,-9.566 V -21.805" /></g><g
       transform="translate(0,509.31732)"
       id="g930"><path
         inkscape:connector-curvature="0"
         id="path932"
         style="fill:none;stroke:#000000;stroke-width:0.91799998;stroke-linecap:butt;stroke-linejoin:miter;stroke-miterlimit:10;stroke-dasharray:none;stroke-opacity:1"
         d="m 697.16,-437.965 v 12.238" /></g><g
       transform="translate(0,509.31732)"
       id="g934"><path
         inkscape:connector-curvature="0"
         id="path936"
         style="fill:none;stroke:#000000;stroke-width:0.91799998;stroke-linecap:butt;stroke-linejoin:miter;stroke-miterlimit:10;stroke-dasharray:none;stroke-opacity:1"
         d="M 697.16,-9.566 V -21.805" /></g><text
       id="text944"
       style="font-variant:normal;font-size:27.98064041px;font-family:'Nimbus Roman No9 L';-inkscape-font-specification:NimbusRomNo9L-Regu;writing-mode:lr-tb;fill:#000000;fill-opacity:1;fill-rule:nonzero;stroke:none"
       transform="scale(1,-1)"
       x="68.442001"
       y="-41.376686"><tspan
         id="tspan938"
         sodipodi:role="line"
         y="-41.376686"
         x="68.442001 82.43232 89.427483">0.5</tspan><tspan
         id="tspan940"
         y="-41.861622"
         x="385.39291">1</tspan><tspan
         id="tspan942"
         sodipodi:role="line"
         y="-41.376686"
         x="680.23914 694.22949 701.22461">1.5</tspan></text>
<g
       transform="translate(0,509.31732)"
       id="g946"><path
         inkscape:connector-curvature="0"
         id="path948"
         style="fill:none;stroke:#000000;stroke-width:0.91799998;stroke-linecap:butt;stroke-linejoin:miter;stroke-miterlimit:10;stroke-dasharray:none;stroke-opacity:1"
         d="M 85.16,-437.965 V -9.566" /></g><g
       transform="translate(0,509.31732)"
       id="g950"><path
         inkscape:connector-curvature="0"
         id="path952"
         style="fill:none;stroke:#000000;stroke-width:0.91799998;stroke-linecap:butt;stroke-linejoin:miter;stroke-miterlimit:10;stroke-dasharray:none;stroke-opacity:1"
         d="M 697.16,-437.965 V -9.566" /></g><g
       transform="translate(0,509.31732)"
       id="g954"><path
         inkscape:connector-curvature="0"
         id="path956"
         style="fill:none;stroke:#000000;stroke-width:0.91799998;stroke-linecap:butt;stroke-linejoin:miter;stroke-miterlimit:10;stroke-dasharray:none;stroke-opacity:1"
         d="m 85.16,-330.867 h 6.121" /></g><g
       transform="translate(0,509.31732)"
       id="g958"><path
         inkscape:connector-curvature="0"
         id="path960"
         style="fill:none;stroke:#000000;stroke-width:0.91799998;stroke-linecap:butt;stroke-linejoin:miter;stroke-miterlimit:10;stroke-dasharray:none;stroke-opacity:1"
         d="m 697.16,-330.867 h -6.121" /></g><g
       transform="translate(0,509.31732)"
       id="g962"><path
         inkscape:connector-curvature="0"
         id="path964"
         style="fill:none;stroke:#000000;stroke-width:0.91799998;stroke-linecap:butt;stroke-linejoin:miter;stroke-miterlimit:10;stroke-dasharray:none;stroke-opacity:1"
         d="m 85.16,-116.668 h 6.121" /></g><g
       transform="translate(0,509.31732)"
       id="g966"><path
         inkscape:connector-curvature="0"
         id="path968"
         style="fill:none;stroke:#000000;stroke-width:0.91799998;stroke-linecap:butt;stroke-linejoin:miter;stroke-miterlimit:10;stroke-dasharray:none;stroke-opacity:1"
         d="m 697.16,-116.668 h -6.121" /></g><g
       transform="translate(0,509.31732)"
       id="g970"><path
         inkscape:connector-curvature="0"
         id="path972"
         style="fill:none;stroke:#000000;stroke-width:0.91799998;stroke-linecap:butt;stroke-linejoin:miter;stroke-miterlimit:10;stroke-dasharray:none;stroke-opacity:1"
         d="M 85.16,-437.965 H 97.402" /></g><g
       transform="translate(0,509.31732)"
       id="g974"><path
         inkscape:connector-curvature="0"
         id="path976"
         style="fill:none;stroke:#000000;stroke-width:0.91799998;stroke-linecap:butt;stroke-linejoin:miter;stroke-miterlimit:10;stroke-dasharray:none;stroke-opacity:1"
         d="M 697.16,-437.965 H 684.922" /></g><g
       transform="translate(0,509.31732)"
       id="g978"><path
         inkscape:connector-curvature="0"
         id="path980"
         style="fill:none;stroke:#000000;stroke-width:0.91799998;stroke-linecap:butt;stroke-linejoin:miter;stroke-miterlimit:10;stroke-dasharray:none;stroke-opacity:1"
         d="M 85.16,-223.766 H 97.402" /></g><g
       transform="translate(0,509.31732)"
       id="g982"><path
         inkscape:connector-curvature="0"
         id="path984"
         style="fill:none;stroke:#000000;stroke-width:0.91799998;stroke-linecap:butt;stroke-linejoin:miter;stroke-miterlimit:10;stroke-dasharray:none;stroke-opacity:1"
         d="M 697.16,-223.766 H 684.922" /></g><g
       transform="translate(0,509.31732)"
       id="g986"><path
         inkscape:connector-curvature="0"
         id="path988"
         style="fill:none;stroke:#000000;stroke-width:0.91799998;stroke-linecap:butt;stroke-linejoin:miter;stroke-miterlimit:10;stroke-dasharray:none;stroke-opacity:1"
         d="M 85.16,-9.566 H 97.402" /></g><g
       transform="translate(0,509.31732)"
       id="g990"><path
         inkscape:connector-curvature="0"
         id="path992"
         style="fill:none;stroke:#000000;stroke-width:0.91799998;stroke-linecap:butt;stroke-linejoin:miter;stroke-miterlimit:10;stroke-dasharray:none;stroke-opacity:1"
         d="M 697.16,-9.566 H 684.922" /></g><text
       id="text1000"
       style="font-variant:normal;font-size:27.98064041px;font-family:'Nimbus Roman No9 L';-inkscape-font-specification:NimbusRomNo9L-Regu;writing-mode:lr-tb;fill:#000000;fill-opacity:1;fill-rule:nonzero;stroke:none"
       transform="scale(1,-1)"
       x="55.368099"
       y="-62.157452"><tspan
         id="tspan994"
         y="-62.157452"
         x="55.368099">0</tspan><tspan
         id="tspan996"
         sodipodi:role="line"
         y="-276.08466"
         x="36.877907 50.868225 57.863388">0.5</tspan><tspan
         id="tspan998"
         y="-490.4024"
         x="57.253632">1</tspan></text>
<g
       transform="translate(0,509.31732)"
       id="g1002"><path
         inkscape:connector-curvature="0"
         id="path1004"
         style="fill:none;stroke:#000000;stroke-width:0.91799998;stroke-linecap:butt;stroke-linejoin:miter;stroke-miterlimit:10;stroke-dasharray:none;stroke-opacity:1"
         d="m 85.16,-9.566 h 612 v -428.398 h -612 z" /></g><path
       inkscape:connector-curvature="0"
       id="path1006"
       style="fill:#000000;fill-opacity:1;fill-rule:nonzero;stroke:none"
       d="M 2.594,193.349 2.562,193.317 2.531,193.282 H 2.496 L 2.434,193.22 H 2.398 v -0.035 L 2.367,193.153 H 2.336 v -0.031 H 2.305 v -0.031 l -0.067,-0.067 v -0.031 l -0.031,-0.035 v -0.129 l -0.035,-0.031 v -5.871 H 3.18 v 0.941 c 0,0.484 0.031,1.133 0.062,1.621 0.098,0.711 0.133,0.778 0.746,0.778 h 16.805 c 0.875,0 2.398,0 2.398,-3.34 h 1.008 c -0.066,1.133 -0.129,2.722 -0.129,3.761 0,1.071 0.063,2.661 0.129,3.797 h -1.008 c 0,-3.343 -1.523,-3.343 -2.398,-3.343 H 4.055 c 0.164,0.164 0.195,0.195 0.39,0.324 l 19.332,13.172 c 0.356,0.289 0.422,0.324 0.422,0.55 0,0.454 -0.226,0.454 -0.844,0.454 H 5.547 c -0.875,0 -2.367,0 -2.367,3.339 H 2.172 c 0.035,-1.132 0.098,-2.722 0.098,-3.793 0,-1.07 -0.063,-2.628 -0.098,-3.761 H 3.18 c 0,3.308 1.492,3.308 2.367,3.308 h 13.785 z" /><path
       inkscape:connector-curvature="0"
       id="path1008"
       style="fill:#000000;fill-opacity:1;fill-rule:nonzero;stroke:none"
       d="m 31.918,220.79 h -0.063 v -0.031 h -0.066 l -0.031,-0.032 h -0.035 v -0.035 h -0.032 l -0.031,-0.031 -0.035,-0.031 h -0.031 v -0.035 l -0.032,-0.032 h -0.035 v -0.031 h -0.031 v -0.035 h -0.031 v -0.031 h -0.031 l -0.036,-0.031 v -0.036 h -0.031 l -0.031,-0.031 v -0.031 h -0.035 l -0.031,-0.031 v -0.036 h -0.032 l -0.035,-0.031 c -4.055,-4.054 -10.152,-5.058 -15.082,-5.058 -5.613,0 -11.223,1.199 -15.246,5.187 -0.387,0.422 -0.453,0.422 -0.551,0.422 -0.226,0 -0.324,-0.129 -0.324,-0.324 0,-0.324 2.207,-3.242 6.293,-5.125 3.535,-1.653 7.137,-2.043 9.828,-2.043 2.531,0 6.422,0.355 10.055,2.14 3.957,1.914 6.066,4.704 6.066,5.028 0,0.195 -0.097,0.324 -0.324,0.324 z" /><path
       inkscape:connector-curvature="0"
       id="path1010"
       style="fill:#000000;fill-opacity:1;fill-rule:nonzero;stroke:none"
       d="m 12.164,239.376 v 0.359 l -0.031,0.063 v 0.195 l -0.035,0.067 v 0.062 l -0.032,0.066 v 0.067 l -0.031,0.062 -0.035,0.067 -0.031,0.062 -0.063,0.133 -0.066,0.063 -0.164,0.164 h -0.031 l -0.063,0.062 h -0.035 l -0.031,0.035 h -0.098 l -0.031,0.032 h -0.133 l -0.031,0.031 h -0.161 c -0.781,0 -0.781,-0.68 -0.781,-1.266 v -7.363 c 0,-4.863 5.321,-8.434 9.149,-8.434 2.855,0 5.093,1.883 5.093,4.836 l -0.683,0.031 c 0,-1.589 -1.168,-2.886 -3.5,-2.886 -0.942,0 -3.602,0.39 -5.516,1.523 -2.207,1.363 -2.66,3.309 -2.66,4.379 0,2.727 2.141,2.984 3.113,2.984 1.524,0 4.153,-0.648 5.809,-1.75 1.914,-1.265 2.754,-2.984 2.754,-4.25 l 0.683,-0.031 c 0,3.793 -3.894,8.11 -8.855,8.11 -0.551,0 -2.078,0 -3.504,-1.008 z" /><path
       inkscape:connector-curvature="0"
       id="path1012"
       style="fill:#000000;fill-opacity:1;fill-rule:nonzero;stroke:none"
       d="M 31.918,252.97 H 31.82 l -0.031,-0.035 h -0.031 v -0.032 h -0.035 l -0.032,-0.031 H 31.66 v -0.035 h -0.035 v -0.031 h -0.031 v -0.032 h -0.032 l -0.035,-0.031 -0.031,-0.035 -0.129,-0.129 h -0.031 v -0.031 l -0.035,-0.035 H 31.27 v -0.032 l -0.032,-0.031 -0.035,-0.031 c -4.055,-4.024 -10.152,-5.063 -15.082,-5.063 -5.613,0 -11.223,1.235 -15.246,5.192 -0.387,0.422 -0.453,0.422 -0.551,0.422 -0.226,0 -0.324,-0.133 -0.324,-0.325 0,-0.324 2.207,-3.21 6.293,-5.125 3.535,-1.656 7.137,-2.046 9.828,-2.046 2.531,0 6.422,0.359 10.055,2.144 3.957,1.945 6.066,4.703 6.066,5.027 0,0.192 -0.097,0.325 -0.324,0.325 z" /><path
       inkscape:connector-curvature="0"
       id="path1014"
       style="fill:#000000;fill-opacity:1;fill-rule:nonzero;stroke:none"
       d="m 14.469,265.653 h -0.098 l -0.195,0.063 -0.129,0.031 -0.133,0.035 -0.258,0.063 -0.164,0.066 -0.129,0.031 -0.16,0.067 -0.164,0.062 -0.16,0.067 -0.164,0.066 -0.16,0.098 -0.164,0.062 -0.161,0.098 -0.164,0.098 -0.128,0.097 -0.165,0.098 -0.128,0.129 -0.161,0.129 -0.261,0.261 -0.098,0.129 -0.098,0.16 -0.097,0.164 -0.032,0.067 -0.062,0.098 -0.035,0.062 -0.063,0.195 v 0.098 l -0.035,0.098 -0.031,0.097 v 0.196 l -0.031,0.093 v 0.098 c 0,0.164 0,0.941 0.421,1.625 0.161,-0.91 0.973,-1.559 1.75,-1.559 0.52,0 1.137,0.356 1.137,1.231 0,0.715 -0.586,1.754 -1.883,1.754 -1.687,0 -2.14,-1.914 -2.14,-3.016 0,-1.883 1.719,-2.984 2.465,-3.375 -2.141,-0.812 -2.465,-2.562 -2.465,-3.504 0,-3.34 4.183,-5.187 4.965,-5.187 0.324,0 0.324,0.324 0.324,0.387 0,0.261 -0.067,0.359 -0.36,0.421 -3.406,1.102 -4.214,3.211 -4.214,4.317 0,0.613 0.289,1.75 2.171,1.75 1.004,0 3.149,-0.551 7.657,-1.75 2.011,-0.52 3.371,-1.656 3.371,-3.051 0,-0.195 0,-0.941 -0.422,-1.621 -0.16,0.809 -0.84,1.523 -1.75,1.523 -0.875,0 -1.137,-0.714 -1.137,-1.199 0,-0.973 0.844,-1.785 1.883,-1.785 1.492,0 2.109,1.621 2.109,3.051 0,2.105 -2.238,3.273 -2.433,3.371 1.199,0.39 2.433,1.558 2.433,3.504 0,3.308 -4.152,5.156 -4.964,5.156 -0.325,0 -0.325,-0.289 -0.325,-0.387 0,-0.293 0.164,-0.359 0.36,-0.422 3.468,-1.07 4.246,-3.277 4.246,-4.281 0,-1.265 -1.035,-1.785 -2.141,-1.785 -0.711,0 -1.426,0.195 -2.82,0.551 z" /><path
       inkscape:connector-curvature="0"
       id="path1016"
       style="fill:#000000;fill-opacity:1;fill-rule:nonzero;stroke:none"
       d="m 16.121,282.649 h -1.004 l -0.555,-0.031 -0.55,-0.035 -0.582,-0.063 -0.618,-0.066 -1.296,-0.195 -0.649,-0.129 -0.683,-0.164 -0.68,-0.16 -0.68,-0.196 -0.683,-0.226 -0.68,-0.258 -0.356,-0.133 -0.359,-0.16 -0.324,-0.129 -0.356,-0.164 C 2.109,278.595 0,275.806 0,275.481 c 0,-0.195 0.129,-0.324 0.324,-0.324 0.098,0 0.164,0 0.746,0.613 3.211,3.18 8.336,5.032 15.051,5.032 5.516,0 11.191,-1.203 15.246,-5.223 0.391,-0.422 0.453,-0.422 0.551,-0.422 0.195,0 0.324,0.129 0.324,0.324 0,0.325 -2.207,3.243 -6.293,5.157 -3.535,1.621 -7.101,2.011 -9.828,2.011 z" /><path
       inkscape:connector-curvature="0"
       id="path1018"
       style="fill:#000000;fill-opacity:1;fill-rule:nonzero;stroke:none"
       d="m 16.77,314.341 v 0.453 l -0.032,0.066 v 0.129 l -0.031,0.031 v 0.098 l -0.035,0.031 -0.031,0.036 v 0.031 l -0.067,0.066 v 0.031 l -0.031,0.032 -0.031,0.035 h -0.035 v 0.031 h -0.063 v 0.031 h -0.098 l -0.031,0.032 h -0.164 c -0.648,0 -0.648,-0.582 -0.648,-1.133 v -17.453 c 0,-0.551 0,-1.133 0.648,-1.133 0.649,0 0.649,0.582 0.649,1.133 z" /><path
       inkscape:connector-curvature="0"
       id="path1020"
       style="fill:#000000;fill-opacity:1;fill-rule:nonzero;stroke:none"
       d="m 12.164,342.106 v 0.356 l -0.031,0.066 v 0.196 l -0.035,0.062 v 0.066 l -0.032,0.067 v 0.062 l -0.031,0.067 -0.035,0.062 -0.062,0.133 -0.032,0.063 -0.097,0.097 -0.036,0.032 -0.031,0.035 -0.031,0.031 -0.035,0.031 h -0.031 l -0.032,0.035 -0.031,0.032 h -0.035 l -0.031,0.031 h -0.098 l -0.031,0.035 h -0.133 l -0.031,0.031 h -0.161 c -0.781,0 -0.781,-0.679 -0.781,-1.265 v -7.364 c 0,-4.867 5.321,-8.433 9.149,-8.433 2.855,0 5.093,1.883 5.093,4.832 l -0.683,0.035 c 0,-1.59 -1.168,-2.887 -3.5,-2.887 -0.942,0 -3.602,0.387 -5.516,1.524 -2.207,1.363 -2.66,3.277 -2.66,4.379 0,2.722 2.141,2.984 3.113,2.984 1.524,0 4.153,-0.649 5.809,-1.754 1.914,-1.262 2.754,-2.984 2.754,-4.246 l 0.683,-0.035 c 0,3.797 -3.894,8.109 -8.855,8.109 -0.551,0 -2.078,0 -3.504,-1.004 z" /><path
       inkscape:connector-curvature="0"
       id="path1022"
       style="fill:#000000;fill-opacity:1;fill-rule:nonzero;stroke:none"
       d="m 23.551,347.395 h 8.629 c 1.457,0 1.457,-0.324 1.457,-2.5 h 1.008 c -0.036,1.137 -0.098,2.79 -0.098,3.633 0,0.844 0.062,2.532 0.098,3.633 h -1.008 c 0,-2.172 0,-2.527 -1.457,-2.527 h -5.938 c -3.34,0 -5.156,2.301 -5.156,4.379 0,2.007 1.75,2.367 3.598,2.367 h 7.496 c 1.457,0 1.457,-0.36 1.457,-2.5 h 1.008 c -0.036,1.105 -0.098,2.758 -0.098,3.633 0,0.843 0.062,2.531 0.098,3.601 h -1.008 c 0,-2.14 0,-2.496 -1.457,-2.496 h -5.938 c -3.34,0 -5.156,2.27 -5.156,4.344 0,2.047 1.75,2.402 3.598,2.402 h 7.496 c 1.457,0 1.457,-0.355 1.457,-2.531 h 1.008 c -0.036,1.137 -0.098,2.789 -0.098,3.633 0,0.844 0.062,2.531 0.098,3.633 h -1.008 c 0,-1.684 0,-2.497 -0.973,-2.528 H 26.5 c -2.754,0 -3.762,0 -4.93,-1.008 -0.519,-0.421 -1.168,-1.492 -1.168,-3.371 0,-2.695 1.914,-4.121 3.149,-4.672 -2.789,-0.453 -3.149,-2.855 -3.149,-4.316 0,-2.332 1.364,-3.859 3.375,-4.766 h -3.375 l 0.36,-4.543 h 0.972 c 0,2.27 0.227,2.5 1.817,2.5 z" /><path
       inkscape:connector-curvature="0"
       id="path1024"
       style="fill:#000000;fill-opacity:1;fill-rule:nonzero;stroke:none"
       d="m 20.402,376.489 0.36,-4.508 h 0.972 c 0,2.11 0.192,2.399 1.782,2.399 h 8.664 c 1.457,0 1.457,-0.356 1.457,-2.528 h 1.008 c -0.036,1.036 -0.098,2.79 -0.098,3.567 0,1.105 0.062,2.238 0.098,3.344 h -1.008 c 0,-2.145 -0.16,-2.274 -1.426,-2.274 z" /><path
       inkscape:connector-curvature="0"
       id="path1026"
       style="fill:#000000;fill-opacity:1;fill-rule:nonzero;stroke:none"
       d="M 14.793,376.618 H 14.5 l -0.098,-0.031 h -0.066 l -0.098,-0.031 -0.062,-0.032 -0.098,-0.035 -0.066,-0.031 -0.098,-0.031 -0.062,-0.067 -0.067,-0.031 -0.062,-0.035 -0.067,-0.063 -0.066,-0.066 -0.031,-0.063 -0.067,-0.035 -0.062,-0.062 -0.032,-0.067 -0.066,-0.066 -0.031,-0.094 -0.035,-0.066 -0.032,-0.067 -0.031,-0.062 -0.035,-0.098 -0.031,-0.066 v -0.098 l -0.032,-0.062 v -0.098 l -0.031,-0.066 v -0.16 c 0,-1.008 0.875,-1.719 1.719,-1.719 0.875,0 1.684,0.711 1.684,1.719 0,0.875 -0.649,1.683 -1.684,1.683 z" /><path
       inkscape:connector-curvature="0"
       id="path1028"
       style="fill:#000000;fill-opacity:1;fill-rule:nonzero;stroke:none"
       d="m 23.551,383.302 h 8.629 c 1.457,0 1.457,-0.325 1.457,-2.496 h 1.008 c -0.036,1.132 -0.098,2.754 -0.098,3.632 0,0.844 0.062,2.528 0.098,3.633 h -1.008 c 0,-2.176 0,-2.531 -1.457,-2.531 h -5.938 c -3.34,0 -5.156,2.305 -5.156,4.348 0,2.043 1.75,2.398 3.598,2.398 h 7.496 c 1.457,0 1.457,-0.355 1.457,-2.496 h 1.008 c -0.036,1.102 -0.098,2.758 -0.098,3.633 0,0.844 0.062,2.531 0.098,3.601 h -1.008 c 0,-1.656 0,-2.464 -0.973,-2.5 H 26.5 c -2.754,0 -3.762,0 -4.93,-1.004 -0.519,-0.453 -1.168,-1.523 -1.168,-3.406 0,-2.336 1.364,-3.859 3.375,-4.769 h -3.375 l 0.36,-4.539 h 0.972 c 0,2.269 0.227,2.496 1.817,2.496 z" /><path
       inkscape:connector-curvature="0"
       id="path1030"
       style="fill:#000000;fill-opacity:1;fill-rule:nonzero;stroke:none"
       d="m 16.121,408.669 h -0.484 l -0.262,-0.035 h -0.258 l -0.555,-0.032 -0.55,-0.031 -0.582,-0.031 -0.618,-0.098 -0.648,-0.066 -0.648,-0.098 -0.649,-0.129 -0.683,-0.164 -0.68,-0.16 -0.68,-0.195 -0.683,-0.227 -0.68,-0.261 -0.356,-0.161 -0.359,-0.129 -0.324,-0.164 -0.356,-0.16 C 2.109,404.579 0,401.825 0,401.501 c 0,-0.195 0.129,-0.324 0.324,-0.324 0.098,0 0.164,0 0.746,0.613 3.211,3.148 8.336,4.996 15.051,4.996 5.516,0 11.191,-1.199 15.246,-5.187 0.391,-0.422 0.453,-0.422 0.551,-0.422 0.195,0 0.324,0.129 0.324,0.324 0,0.324 -2.207,3.211 -6.293,5.125 -3.535,1.652 -7.101,2.043 -9.828,2.043 z" /><path
       inkscape:connector-curvature="0"
       id="path1032"
       style="fill:#000000;fill-opacity:1;fill-rule:nonzero;stroke:none"
       d="m 371.504,17.524 v 0.094 l 0.031,0.098 0.031,0.094 0.063,0.257 0.035,0.129 0.031,0.125 0.063,0.16 0.031,0.129 0.066,0.16 0.125,0.321 0.067,0.16 0.094,0.16 0.066,0.16 0.094,0.16 0.097,0.161 0.094,0.125 0.098,0.16 0.129,0.129 0.125,0.16 0.129,0.129 0.129,0.125 0.128,0.097 0.161,0.098 0.156,0.094 0.066,0.031 0.094,0.066 0.066,0.032 0.094,0.031 0.098,0.031 h 0.094 l 0.097,0.031 0.063,0.036 h 0.226 l 0.094,0.031 h 0.098 c 0.16,0 0.925,0 1.597,-0.418 -0.894,-0.16 -1.535,-0.957 -1.535,-1.727 0,-0.511 0.352,-1.117 1.215,-1.117 0.703,0 1.727,0.574 1.727,1.856 0,1.66 -1.887,2.109 -2.973,2.109 -1.856,0 -2.973,-1.695 -3.324,-2.43 -0.801,2.11 -2.528,2.43 -3.453,2.43 -3.297,0 -5.118,-4.125 -5.118,-4.895 0,-0.316 0.321,-0.316 0.383,-0.316 0.254,0 0.352,0.062 0.414,0.352 1.09,3.355 3.168,4.156 4.254,4.156 0.61,0 1.727,-0.289 1.727,-2.145 0,-0.988 -0.543,-3.101 -1.727,-7.547 -0.512,-1.98 -1.629,-3.324 -3.004,-3.324 -0.191,0 -0.929,0 -1.601,0.414 0.801,0.16 1.504,0.832 1.504,1.727 0,0.863 -0.703,1.121 -1.184,1.121 -0.957,0 -1.758,-0.832 -1.758,-1.856 0,-1.468 1.598,-2.078 3.004,-2.078 2.082,0 3.231,2.207 3.328,2.399 0.383,-1.184 1.535,-2.399 3.422,-2.399 3.293,0 5.117,4.094 5.117,4.895 0,0.316 -0.289,0.316 -0.386,0.316 -0.286,0 -0.352,-0.16 -0.414,-0.351 -1.055,-3.422 -3.231,-4.188 -4.254,-4.188 -1.215,0 -1.727,1.024 -1.727,2.11 0,0.703 0.191,1.406 0.543,2.781 z" /><path
       inkscape:connector-curvature="0"
       id="path1034"
       style="fill:#000000;fill-opacity:1;fill-rule:nonzero;stroke:none"
       d="m 393.023,30.571 h 0.032 v 0.094 h 0.031 v 0.066 l 0.031,0.032 v 0.093 h 0.035 v 0.098 l 0.032,0.031 v 0.16 c 0,0.352 -0.289,0.641 -0.641,0.641 -0.223,0 -0.414,-0.098 -0.512,-0.289 L 380.969,1.216 c -0.16,-0.418 -0.16,-0.543 -0.16,-0.578 0,-0.352 0.285,-0.637 0.636,-0.637 0.418,0 0.512,0.223 0.707,0.766 z" /><path
       inkscape:connector-curvature="0"
       id="path1036"
       style="fill:#000000;fill-opacity:1;fill-rule:nonzero;stroke:none"
       d="m 405.621,17.524 0.031,0.094 v 0.098 l 0.036,0.094 0.093,0.386 0.067,0.125 0.031,0.16 0.062,0.129 0.032,0.16 0.066,0.161 0.063,0.16 0.097,0.16 0.063,0.16 0.097,0.16 0.063,0.16 0.094,0.161 0.097,0.125 0.129,0.16 0.094,0.129 0.129,0.16 0.129,0.129 0.129,0.125 0.156,0.097 0.129,0.098 0.16,0.094 0.098,0.031 0.062,0.066 0.098,0.032 0.094,0.031 0.066,0.031 h 0.094 l 0.097,0.031 0.094,0.036 h 0.191 l 0.098,0.031 h 0.098 c 0.156,0 0.926,0 1.597,-0.418 -0.894,-0.16 -1.535,-0.957 -1.535,-1.727 0,-0.511 0.352,-1.117 1.215,-1.117 0.703,0 1.727,0.574 1.727,1.856 0,1.66 -1.887,2.109 -2.942,2.109 -1.855,0 -2.972,-1.695 -3.359,-2.43 -0.797,2.11 -2.523,2.43 -3.422,2.43 -3.324,0 -5.148,-4.125 -5.148,-4.895 0,-0.316 0.32,-0.316 0.386,-0.316 0.254,0 0.352,0.062 0.414,0.352 1.086,3.355 3.2,4.156 4.286,4.156 0.609,0 1.695,-0.289 1.695,-2.145 0,-0.988 -0.543,-3.101 -1.695,-7.547 -0.512,-1.98 -1.629,-3.324 -3.039,-3.324 -0.192,0 -0.926,0 -1.598,0.414 0.801,0.16 1.504,0.832 1.504,1.727 0,0.863 -0.703,1.121 -1.184,1.121 -0.961,0 -1.726,-0.832 -1.726,-1.856 0,-1.468 1.566,-2.078 2.972,-2.078 2.11,0 3.262,2.207 3.36,2.399 0.351,-1.184 1.5,-2.399 3.422,-2.399 3.292,0 5.082,4.094 5.082,4.895 0,0.316 -0.286,0.316 -0.383,0.316 -0.289,0 -0.352,-0.16 -0.414,-0.351 -1.059,-3.422 -3.2,-4.188 -4.223,-4.188 -1.246,0 -1.758,1.024 -1.758,2.11 0,0.703 0.192,1.406 0.543,2.781 z" /><path
       inkscape:connector-curvature="0"
       id="path1038"
       style="fill:#000000;fill-opacity:1;fill-rule:nonzero;stroke:none"
       d="m 424.711,10.267 -0.031,0.445 v 0.449 l -0.032,0.414 v 0.383 l -0.062,0.418 -0.035,0.383 -0.125,0.703 -0.098,0.351 -0.094,0.352 -0.097,0.32 -0.129,0.321 -0.125,0.32 -0.16,0.289 -0.161,0.316 -0.097,0.129 -0.094,0.16 c -0.672,1.024 -2.047,1.918 -3.84,1.918 v -0.64 c 1.184,0 2.367,-0.735 2.75,-2.012 0.352,-1.215 0.387,-2.816 0.387,-4.734 0,-1.66 0,-3.293 -0.289,-4.7 -0.449,-2.015 -1.953,-2.496 -2.848,-2.496 -1.023,0 -2.398,0.579 -2.843,2.43 -0.29,1.281 -0.29,3.106 -0.29,4.766 0,1.633 0,3.328 0.321,4.543 0.48,1.757 1.886,2.203 2.812,2.203 v 0.64 c -5.179,0 -5.179,-6.074 -5.179,-7.671 0,-1.602 0,-7.547 5.179,-7.547 5.18,0 5.18,5.945 5.18,7.547 z" /><path
       style="fill:#000000;fill-rule:evenodd;stroke:#000000;stroke-width:0.75px;stroke-linecap:butt;stroke-linejoin:miter;stroke-opacity:1;fill-opacity:1;opacity:0.149"
       d="m 346.13874,72.332113 48.41896,0.02603 159.3678,70.137164 39.13605,39.13604 44.15348,39.13604 16.05581,130.45348 43.77377,115.93981 -0.0662,-0.52753 v 0 l 0.26609,32.55167 -141.2493,0.36414 L 449.56273,207.72204 H 435.5139 L 382.32902,232.80925 271.94531,398.38481 105.6794,499.50532 85.444389,490.59914 261.91043,215.74995 346.20344,72.251136"
       id="path1166"
       inkscape:connector-curvature="0"
       sodipodi:nodetypes="ccccccccccccccccccc" /><g
       transform="matrix(0.39063326,0,0,0.39063326,252.26588,293.94382)"
       id="g1186"><g
         id="g1188"
         transform="translate(0,509.31732)"><path
           d="m 224.086,-135.82 17.133,-45.106 22.035,-45.105 25.09,-40.574 22.031,-45.106 25.094,-45.105 28.152,-40.575 27.539,-36.047 30.602,40.575 24.48,45.105 128.52,166.832 67.32,85.68 55.141,85.742"
           style="fill:none;stroke:#000000;stroke-width:3.67199993;stroke-linecap:butt;stroke-linejoin:miter;stroke-miterlimit:10;stroke-dasharray:none;stroke-opacity:1"
           id="path1190"
           inkscape:connector-curvature="0" /></g><g
         id="g1192"
         transform="translate(0,509.31732)"><path
           d="m 312.457,-409.996 52.449,55.875 26.254,-80.723 78.703,164.504 v 99.328 l 61.199,27.969 122.403,133.477"
           style="fill:none;stroke:#0000ff;stroke-width:3.67199993;stroke-linecap:butt;stroke-linejoin:miter;stroke-miterlimit:10;stroke-dasharray:3.672, 11.016;stroke-dashoffset:0;stroke-opacity:1"
           id="path1194"
           inkscape:connector-curvature="0" /></g><g
         id="g1196"
         transform="translate(0,509.31732)"><path
           d="m 85.098,-10.238 118.179,-134.211 108.934,-291.805 h 78.949 l 67.32,53.063 79.559,132.621 61.203,79.621 48.957,-79.621"
           style="fill:none;stroke:#008b00;stroke-width:3.67199993;stroke-linecap:butt;stroke-linejoin:miter;stroke-miterlimit:10;stroke-dasharray:18.36, 11.016;stroke-dashoffset:0;stroke-opacity:1"
           id="path1198"
           inkscape:connector-curvature="0" /></g><g
         id="g1200"
         transform="translate(0,509.31732)"><path
           d="m 85.098,-386.129 102.082,-50.734 203.98,10.097 203.981,220.137 101.957,197.125"
           style="fill:none;stroke:#bc8f8f;stroke-width:3.67199993;stroke-linecap:butt;stroke-linejoin:miter;stroke-miterlimit:10;stroke-dasharray:25.704, 11.016;stroke-dashoffset:0;stroke-opacity:1"
           id="path1202"
           inkscape:connector-curvature="0" /></g><g
         id="g1204"
         transform="translate(0,509.31732)"><path
           d="m 90.18,-9.504 114.933,-141.984 106.489,-175.34 79.558,-93.758 67.32,-14.687 79.559,45.531 61.203,80.297 48.957,38.8"
           style="fill:none;stroke:#00ff00;stroke-width:3.67199993;stroke-linecap:butt;stroke-linejoin:miter;stroke-miterlimit:10;stroke-dasharray:3.672, 11.016, 18.36, 11.016;stroke-dashoffset:0;stroke-opacity:1"
           id="path1206"
           inkscape:connector-curvature="0" /></g><g
         id="g1208"
         transform="translate(0,509.31732)"><path
           d="m 109.152,-9.504 95.961,-103.062 106.489,-111.2 79.558,-84.457 67.32,-125.215 79.559,-2.874 61.203,11.933 48.957,8.629"
           style="fill:none;stroke:#9400d3;stroke-width:3.67199993;stroke-linecap:butt;stroke-linejoin:miter;stroke-miterlimit:10;stroke-dasharray:3.672, 11.016, 25.704, 11.016;stroke-dashoffset:0;stroke-opacity:1"
           id="path1210"
           inkscape:connector-curvature="0" /></g><g
         id="g1212"
         transform="translate(0,509.31732)"><path
           d="m 85.098,-9.75 116.343,-178.766 110.161,141.555 79.558,-346.637 67.32,58.266 79.559,-76.625 61.203,-0.242 48.957,105.078"
           style="fill:none;stroke:#00ffff;stroke-width:3.67199993;stroke-linecap:butt;stroke-linejoin:miter;stroke-miterlimit:10;stroke-dasharray:3.672, 11.016, 18.36, 11.016, 3.672, 11.016;stroke-dashoffset:0;stroke-opacity:1"
           id="path1214"
           inkscape:connector-curvature="0" /></g><g
         id="g1216"
         transform="translate(0,509.31732)"><path
           d="m 85.098,-255.223 116.343,-75.461 110.161,-18.359 79.558,26.867 67.32,-26.316 79.559,331.887 58.816,7.101"
           style="fill:none;stroke:#ff00ff;stroke-width:3.67199993;stroke-linecap:butt;stroke-linejoin:miter;stroke-miterlimit:10;stroke-dasharray:18.36, 11.016, 3.672, 11.016, 18.36, 11.016;stroke-dashoffset:0;stroke-opacity:1"
           id="path1218"
           inkscape:connector-curvature="0" /></g><g
         id="g1220"
         transform="translate(0,509.31732)"><path
           d="m 599.73,-9.504 48.469,-29.621"
           style="fill:none;stroke:#ff00ff;stroke-width:3.67199993;stroke-linecap:butt;stroke-linejoin:miter;stroke-miterlimit:10;stroke-dasharray:18.36, 11.016, 3.672, 11.016, 18.36, 11.016;stroke-dashoffset:0;stroke-opacity:1"
           id="path1222"
           inkscape:connector-curvature="0" /></g><g
         id="g1224"
         transform="translate(0,509.31732)"><path
           d="m 89.75,-9.504 115.363,-64.629 106.489,-212.363 79.558,-86.293 67.32,-47.734 79.559,-15.301 61.203,16.523 48.957,4.899"
           style="fill:none;stroke:#ffa500;stroke-width:3.67199993;stroke-linecap:butt;stroke-linejoin:miter;stroke-miterlimit:10;stroke-dasharray:25.704, 11.016;stroke-dashoffset:0;stroke-opacity:1"
           id="path1226"
           inkscape:connector-curvature="0" /></g><g
         id="g1228"
         transform="translate(0,509.31732)"><path
           d="m 85.16,-9.566 122.399,-123.746 183.601,-304.653 183.602,28.578 122.461,152.391"
           style="fill:none;stroke:#670748;stroke-width:3.67199993;stroke-linecap:butt;stroke-linejoin:miter;stroke-miterlimit:10;stroke-dasharray:3.672, 11.016, 18.36, 11.016, 3.672, 11.016;stroke-dashoffset:0;stroke-opacity:1"
           id="path1230"
           inkscape:connector-curvature="0" /></g><g
         id="g1232"
         transform="translate(0,509.31732)"><path
           d="m 85.16,-437.965 h 612"
           style="fill:none;stroke:#000000;stroke-width:0.91799998;stroke-linecap:butt;stroke-linejoin:miter;stroke-miterlimit:10;stroke-dasharray:none;stroke-opacity:1"
           id="path1234"
           inkscape:connector-curvature="0" /></g><g
         id="g1236"
         transform="translate(0,509.31732)"><path
           d="m 85.16,-9.566 h 612"
           style="fill:none;stroke:#000000;stroke-width:0.91799998;stroke-linecap:butt;stroke-linejoin:miter;stroke-miterlimit:10;stroke-dasharray:none;stroke-opacity:1"
           id="path1238"
           inkscape:connector-curvature="0" /></g><g
         id="g1240"
         transform="translate(0,509.31732)"><path
           d="m 238.16,-437.965 v 6.117"
           style="fill:none;stroke:#000000;stroke-width:0.91799998;stroke-linecap:butt;stroke-linejoin:miter;stroke-miterlimit:10;stroke-dasharray:none;stroke-opacity:1"
           id="path1242"
           inkscape:connector-curvature="0" /></g><g
         id="g1244"
         transform="translate(0,509.31732)"><path
           d="m 238.16,-9.566 v -6.122"
           style="fill:none;stroke:#000000;stroke-width:0.91799998;stroke-linecap:butt;stroke-linejoin:miter;stroke-miterlimit:10;stroke-dasharray:none;stroke-opacity:1"
           id="path1246"
           inkscape:connector-curvature="0" /></g><g
         id="g1248"
         transform="translate(0,509.31732)"><path
           d="m 544.16,-437.965 v 6.117"
           style="fill:none;stroke:#000000;stroke-width:0.91799998;stroke-linecap:butt;stroke-linejoin:miter;stroke-miterlimit:10;stroke-dasharray:none;stroke-opacity:1"
           id="path1250"
           inkscape:connector-curvature="0" /></g><g
         id="g1252"
         transform="translate(0,509.31732)"><path
           d="m 544.16,-9.566 v -6.122"
           style="fill:none;stroke:#000000;stroke-width:0.91799998;stroke-linecap:butt;stroke-linejoin:miter;stroke-miterlimit:10;stroke-dasharray:none;stroke-opacity:1"
           id="path1254"
           inkscape:connector-curvature="0" /></g><g
         id="g1256"
         transform="translate(0,509.31732)"><path
           d="m 85.16,-437.965 v 12.238"
           style="fill:none;stroke:#000000;stroke-width:0.91799998;stroke-linecap:butt;stroke-linejoin:miter;stroke-miterlimit:10;stroke-dasharray:none;stroke-opacity:1"
           id="path1258"
           inkscape:connector-curvature="0" /></g><g
         id="g1260"
         transform="translate(0,509.31732)"><path
           d="M 85.16,-9.566 V -21.805"
           style="fill:none;stroke:#000000;stroke-width:0.91799998;stroke-linecap:butt;stroke-linejoin:miter;stroke-miterlimit:10;stroke-dasharray:none;stroke-opacity:1"
           id="path1262"
           inkscape:connector-curvature="0" /></g><g
         id="g1264"
         transform="translate(0,509.31732)"><path
           d="m 391.16,-437.965 v 12.238"
           style="fill:none;stroke:#000000;stroke-width:0.91799998;stroke-linecap:butt;stroke-linejoin:miter;stroke-miterlimit:10;stroke-dasharray:none;stroke-opacity:1"
           id="path1266"
           inkscape:connector-curvature="0" /></g><g
         id="g1268"
         transform="translate(0,509.31732)"><path
           d="M 391.16,-9.566 V -21.805"
           style="fill:none;stroke:#000000;stroke-width:0.91799998;stroke-linecap:butt;stroke-linejoin:miter;stroke-miterlimit:10;stroke-dasharray:none;stroke-opacity:1"
           id="path1270"
           inkscape:connector-curvature="0" /></g><g
         id="g1272"
         transform="translate(0,509.31732)"><path
           d="m 697.16,-437.965 v 12.238"
           style="fill:none;stroke:#000000;stroke-width:0.91799998;stroke-linecap:butt;stroke-linejoin:miter;stroke-miterlimit:10;stroke-dasharray:none;stroke-opacity:1"
           id="path1274"
           inkscape:connector-curvature="0" /></g><g
         id="g1276"
         transform="translate(0,509.31732)"><path
           d="M 697.16,-9.566 V -21.805"
           style="fill:none;stroke:#000000;stroke-width:0.91799998;stroke-linecap:butt;stroke-linejoin:miter;stroke-miterlimit:10;stroke-dasharray:none;stroke-opacity:1"
           id="path1278"
           inkscape:connector-curvature="0" /></g><text
         transform="matrix(1,0,0,-1,68.442,41.376685)"
         style="font-variant:normal;font-size:27.98064041px;font-family:'Nimbus Roman No9 L';-inkscape-font-specification:NimbusRomNo9L-Regu;writing-mode:lr-tb;fill:#000000;fill-opacity:1;fill-rule:nonzero;stroke:none"
         id="text1286"><tspan
           x="0 13.99032 20.985479"
           y="0"
           sodipodi:role="line"
           id="tspan1280">0.5</tspan><tspan
           x="316.95093"
           y="-0.48493528"
           id="tspan1282">1</tspan><tspan
           x="611.79712 625.78748 632.78259"
           y="0"
           sodipodi:role="line"
           id="tspan1284">1.5</tspan></text>
<g
         id="g1288"
         transform="translate(0,509.31732)"><path
           d="M 85.16,-437.965 V -9.566"
           style="fill:none;stroke:#000000;stroke-width:0.91799998;stroke-linecap:butt;stroke-linejoin:miter;stroke-miterlimit:10;stroke-dasharray:none;stroke-opacity:1"
           id="path1290"
           inkscape:connector-curvature="0" /></g><g
         id="g1292"
         transform="translate(0,509.31732)"><path
           d="M 697.16,-437.965 V -9.566"
           style="fill:none;stroke:#000000;stroke-width:0.91799998;stroke-linecap:butt;stroke-linejoin:miter;stroke-miterlimit:10;stroke-dasharray:none;stroke-opacity:1"
           id="path1294"
           inkscape:connector-curvature="0" /></g><g
         id="g1296"
         transform="translate(0,509.31732)"><path
           d="m 85.16,-330.867 h 6.121"
           style="fill:none;stroke:#000000;stroke-width:0.91799998;stroke-linecap:butt;stroke-linejoin:miter;stroke-miterlimit:10;stroke-dasharray:none;stroke-opacity:1"
           id="path1298"
           inkscape:connector-curvature="0" /></g><g
         id="g1300"
         transform="translate(0,509.31732)"><path
           d="m 697.16,-330.867 h -6.121"
           style="fill:none;stroke:#000000;stroke-width:0.91799998;stroke-linecap:butt;stroke-linejoin:miter;stroke-miterlimit:10;stroke-dasharray:none;stroke-opacity:1"
           id="path1302"
           inkscape:connector-curvature="0" /></g><g
         id="g1304"
         transform="translate(0,509.31732)"><path
           d="m 85.16,-116.668 h 6.121"
           style="fill:none;stroke:#000000;stroke-width:0.91799998;stroke-linecap:butt;stroke-linejoin:miter;stroke-miterlimit:10;stroke-dasharray:none;stroke-opacity:1"
           id="path1306"
           inkscape:connector-curvature="0" /></g><g
         id="g1308"
         transform="translate(0,509.31732)"><path
           d="m 697.16,-116.668 h -6.121"
           style="fill:none;stroke:#000000;stroke-width:0.91799998;stroke-linecap:butt;stroke-linejoin:miter;stroke-miterlimit:10;stroke-dasharray:none;stroke-opacity:1"
           id="path1310"
           inkscape:connector-curvature="0" /></g><g
         id="g1312"
         transform="translate(0,509.31732)"><path
           d="M 85.16,-437.965 H 97.402"
           style="fill:none;stroke:#000000;stroke-width:0.91799998;stroke-linecap:butt;stroke-linejoin:miter;stroke-miterlimit:10;stroke-dasharray:none;stroke-opacity:1"
           id="path1314"
           inkscape:connector-curvature="0" /></g><g
         id="g1316"
         transform="translate(0,509.31732)"><path
           d="M 697.16,-437.965 H 684.922"
           style="fill:none;stroke:#000000;stroke-width:0.91799998;stroke-linecap:butt;stroke-linejoin:miter;stroke-miterlimit:10;stroke-dasharray:none;stroke-opacity:1"
           id="path1318"
           inkscape:connector-curvature="0" /></g><g
         id="g1320"
         transform="translate(0,509.31732)"><path
           d="M 85.16,-223.766 H 97.402"
           style="fill:none;stroke:#000000;stroke-width:0.91799998;stroke-linecap:butt;stroke-linejoin:miter;stroke-miterlimit:10;stroke-dasharray:none;stroke-opacity:1"
           id="path1322"
           inkscape:connector-curvature="0" /></g><g
         id="g1324"
         transform="translate(0,509.31732)"><path
           d="M 697.16,-223.766 H 684.922"
           style="fill:none;stroke:#000000;stroke-width:0.91799998;stroke-linecap:butt;stroke-linejoin:miter;stroke-miterlimit:10;stroke-dasharray:none;stroke-opacity:1"
           id="path1326"
           inkscape:connector-curvature="0" /></g><g
         id="g1328"
         transform="translate(0,509.31732)"><path
           d="M 85.16,-9.566 H 97.402"
           style="fill:none;stroke:#000000;stroke-width:0.91799998;stroke-linecap:butt;stroke-linejoin:miter;stroke-miterlimit:10;stroke-dasharray:none;stroke-opacity:1"
           id="path1330"
           inkscape:connector-curvature="0" /></g><g
         id="g1332"
         transform="translate(0,509.31732)"><path
           d="M 697.16,-9.566 H 684.922"
           style="fill:none;stroke:#000000;stroke-width:0.91799998;stroke-linecap:butt;stroke-linejoin:miter;stroke-miterlimit:10;stroke-dasharray:none;stroke-opacity:1"
           id="path1334"
           inkscape:connector-curvature="0" /></g><text
         transform="matrix(1,0,0,-1,55.368101,62.157451)"
         style="font-variant:normal;font-size:27.98064041px;font-family:'Nimbus Roman No9 L';-inkscape-font-specification:NimbusRomNo9L-Regu;writing-mode:lr-tb;fill:#000000;fill-opacity:1;fill-rule:nonzero;stroke:none"
         id="text1342"><tspan
           x="0"
           y="0"
           id="tspan1336">0</tspan><tspan
           x="-18.490194 -4.4998746 2.4952855"
           y="-213.92722"
           sodipodi:role="line"
           id="tspan1338">0.5</tspan><tspan
           x="1.8855314"
           y="-428.24496"
           id="tspan1340">1</tspan></text>
<g
         id="g1344"
         transform="translate(0,509.31732)"><path
           d="m 85.16,-9.566 h 612 v -428.398 h -612 z"
           style="fill:none;stroke:#000000;stroke-width:0.91799998;stroke-linecap:butt;stroke-linejoin:miter;stroke-miterlimit:10;stroke-dasharray:none;stroke-opacity:1"
           id="path1346"
           inkscape:connector-curvature="0" /></g><path
         d="M 2.594,193.349 2.562,193.317 2.531,193.282 H 2.496 L 2.434,193.22 H 2.398 v -0.035 L 2.367,193.153 H 2.336 v -0.031 H 2.305 v -0.031 l -0.067,-0.067 v -0.031 l -0.031,-0.035 v -0.129 l -0.035,-0.031 v -5.871 H 3.18 v 0.941 c 0,0.484 0.031,1.133 0.062,1.621 0.098,0.711 0.133,0.778 0.746,0.778 h 16.805 c 0.875,0 2.398,0 2.398,-3.34 h 1.008 c -0.066,1.133 -0.129,2.722 -0.129,3.761 0,1.071 0.063,2.661 0.129,3.797 h -1.008 c 0,-3.343 -1.523,-3.343 -2.398,-3.343 H 4.055 c 0.164,0.164 0.195,0.195 0.39,0.324 l 19.332,13.172 c 0.356,0.289 0.422,0.324 0.422,0.55 0,0.454 -0.226,0.454 -0.844,0.454 H 5.547 c -0.875,0 -2.367,0 -2.367,3.339 H 2.172 c 0.035,-1.132 0.098,-2.722 0.098,-3.793 0,-1.07 -0.063,-2.628 -0.098,-3.761 H 3.18 c 0,3.308 1.492,3.308 2.367,3.308 h 13.785 z"
         style="fill:#000000;fill-opacity:1;fill-rule:nonzero;stroke:none"
         id="path1348"
         inkscape:connector-curvature="0" /><path
         d="m 31.918,220.79 h -0.063 v -0.031 h -0.066 l -0.031,-0.032 h -0.035 v -0.035 h -0.032 l -0.031,-0.031 -0.035,-0.031 h -0.031 v -0.035 l -0.032,-0.032 h -0.035 v -0.031 h -0.031 v -0.035 h -0.031 v -0.031 h -0.031 l -0.036,-0.031 v -0.036 h -0.031 l -0.031,-0.031 v -0.031 h -0.035 l -0.031,-0.031 v -0.036 h -0.032 l -0.035,-0.031 c -4.055,-4.054 -10.152,-5.058 -15.082,-5.058 -5.613,0 -11.223,1.199 -15.246,5.187 -0.387,0.422 -0.453,0.422 -0.551,0.422 -0.226,0 -0.324,-0.129 -0.324,-0.324 0,-0.324 2.207,-3.242 6.293,-5.125 3.535,-1.653 7.137,-2.043 9.828,-2.043 2.531,0 6.422,0.355 10.055,2.14 3.957,1.914 6.066,4.704 6.066,5.028 0,0.195 -0.097,0.324 -0.324,0.324 z"
         style="fill:#000000;fill-opacity:1;fill-rule:nonzero;stroke:none"
         id="path1350"
         inkscape:connector-curvature="0" /><path
         d="m 12.164,239.376 v 0.359 l -0.031,0.063 v 0.195 l -0.035,0.067 v 0.062 l -0.032,0.066 v 0.067 l -0.031,0.062 -0.035,0.067 -0.031,0.062 -0.063,0.133 -0.066,0.063 -0.164,0.164 h -0.031 l -0.063,0.062 h -0.035 l -0.031,0.035 h -0.098 l -0.031,0.032 h -0.133 l -0.031,0.031 h -0.161 c -0.781,0 -0.781,-0.68 -0.781,-1.266 v -7.363 c 0,-4.863 5.321,-8.434 9.149,-8.434 2.855,0 5.093,1.883 5.093,4.836 l -0.683,0.031 c 0,-1.589 -1.168,-2.886 -3.5,-2.886 -0.942,0 -3.602,0.39 -5.516,1.523 -2.207,1.363 -2.66,3.309 -2.66,4.379 0,2.727 2.141,2.984 3.113,2.984 1.524,0 4.153,-0.648 5.809,-1.75 1.914,-1.265 2.754,-2.984 2.754,-4.25 l 0.683,-0.031 c 0,3.793 -3.894,8.11 -8.855,8.11 -0.551,0 -2.078,0 -3.504,-1.008 z"
         style="fill:#000000;fill-opacity:1;fill-rule:nonzero;stroke:none"
         id="path1352"
         inkscape:connector-curvature="0" /><path
         d="M 31.918,252.97 H 31.82 l -0.031,-0.035 h -0.031 v -0.032 h -0.035 l -0.032,-0.031 H 31.66 v -0.035 h -0.035 v -0.031 h -0.031 v -0.032 h -0.032 l -0.035,-0.031 -0.031,-0.035 -0.129,-0.129 h -0.031 v -0.031 l -0.035,-0.035 H 31.27 v -0.032 l -0.032,-0.031 -0.035,-0.031 c -4.055,-4.024 -10.152,-5.063 -15.082,-5.063 -5.613,0 -11.223,1.235 -15.246,5.192 -0.387,0.422 -0.453,0.422 -0.551,0.422 -0.226,0 -0.324,-0.133 -0.324,-0.325 0,-0.324 2.207,-3.21 6.293,-5.125 3.535,-1.656 7.137,-2.046 9.828,-2.046 2.531,0 6.422,0.359 10.055,2.144 3.957,1.945 6.066,4.703 6.066,5.027 0,0.192 -0.097,0.325 -0.324,0.325 z"
         style="fill:#000000;fill-opacity:1;fill-rule:nonzero;stroke:none"
         id="path1354"
         inkscape:connector-curvature="0" /><path
         d="m 14.469,265.653 h -0.098 l -0.195,0.063 -0.129,0.031 -0.133,0.035 -0.258,0.063 -0.164,0.066 -0.129,0.031 -0.16,0.067 -0.164,0.062 -0.16,0.067 -0.164,0.066 -0.16,0.098 -0.164,0.062 -0.161,0.098 -0.164,0.098 -0.128,0.097 -0.165,0.098 -0.128,0.129 -0.161,0.129 -0.261,0.261 -0.098,0.129 -0.098,0.16 -0.097,0.164 -0.032,0.067 -0.062,0.098 -0.035,0.062 -0.063,0.195 v 0.098 l -0.035,0.098 -0.031,0.097 v 0.196 l -0.031,0.093 v 0.098 c 0,0.164 0,0.941 0.421,1.625 0.161,-0.91 0.973,-1.559 1.75,-1.559 0.52,0 1.137,0.356 1.137,1.231 0,0.715 -0.586,1.754 -1.883,1.754 -1.687,0 -2.14,-1.914 -2.14,-3.016 0,-1.883 1.719,-2.984 2.465,-3.375 -2.141,-0.812 -2.465,-2.562 -2.465,-3.504 0,-3.34 4.183,-5.187 4.965,-5.187 0.324,0 0.324,0.324 0.324,0.387 0,0.261 -0.067,0.359 -0.36,0.421 -3.406,1.102 -4.214,3.211 -4.214,4.317 0,0.613 0.289,1.75 2.171,1.75 1.004,0 3.149,-0.551 7.657,-1.75 2.011,-0.52 3.371,-1.656 3.371,-3.051 0,-0.195 0,-0.941 -0.422,-1.621 -0.16,0.809 -0.84,1.523 -1.75,1.523 -0.875,0 -1.137,-0.714 -1.137,-1.199 0,-0.973 0.844,-1.785 1.883,-1.785 1.492,0 2.109,1.621 2.109,3.051 0,2.105 -2.238,3.273 -2.433,3.371 1.199,0.39 2.433,1.558 2.433,3.504 0,3.308 -4.152,5.156 -4.964,5.156 -0.325,0 -0.325,-0.289 -0.325,-0.387 0,-0.293 0.164,-0.359 0.36,-0.422 3.468,-1.07 4.246,-3.277 4.246,-4.281 0,-1.265 -1.035,-1.785 -2.141,-1.785 -0.711,0 -1.426,0.195 -2.82,0.551 z"
         style="fill:#000000;fill-opacity:1;fill-rule:nonzero;stroke:none"
         id="path1356"
         inkscape:connector-curvature="0" /><path
         d="m 16.121,282.649 h -1.004 l -0.555,-0.031 -0.55,-0.035 -0.582,-0.063 -0.618,-0.066 -1.296,-0.195 -0.649,-0.129 -0.683,-0.164 -0.68,-0.16 -0.68,-0.196 -0.683,-0.226 -0.68,-0.258 -0.356,-0.133 -0.359,-0.16 -0.324,-0.129 -0.356,-0.164 C 2.109,278.595 0,275.806 0,275.481 c 0,-0.195 0.129,-0.324 0.324,-0.324 0.098,0 0.164,0 0.746,0.613 3.211,3.18 8.336,5.032 15.051,5.032 5.516,0 11.191,-1.203 15.246,-5.223 0.391,-0.422 0.453,-0.422 0.551,-0.422 0.195,0 0.324,0.129 0.324,0.324 0,0.325 -2.207,3.243 -6.293,5.157 -3.535,1.621 -7.101,2.011 -9.828,2.011 z"
         style="fill:#000000;fill-opacity:1;fill-rule:nonzero;stroke:none"
         id="path1358"
         inkscape:connector-curvature="0" /><path
         d="m 16.77,314.341 v 0.453 l -0.032,0.066 v 0.129 l -0.031,0.031 v 0.098 l -0.035,0.031 -0.031,0.036 v 0.031 l -0.067,0.066 v 0.031 l -0.031,0.032 -0.031,0.035 h -0.035 v 0.031 h -0.063 v 0.031 h -0.098 l -0.031,0.032 h -0.164 c -0.648,0 -0.648,-0.582 -0.648,-1.133 v -17.453 c 0,-0.551 0,-1.133 0.648,-1.133 0.649,0 0.649,0.582 0.649,1.133 z"
         style="fill:#000000;fill-opacity:1;fill-rule:nonzero;stroke:none"
         id="path1360"
         inkscape:connector-curvature="0" /><path
         d="m 12.164,342.106 v 0.356 l -0.031,0.066 v 0.196 l -0.035,0.062 v 0.066 l -0.032,0.067 v 0.062 l -0.031,0.067 -0.035,0.062 -0.062,0.133 -0.032,0.063 -0.097,0.097 -0.036,0.032 -0.031,0.035 -0.031,0.031 -0.035,0.031 h -0.031 l -0.032,0.035 -0.031,0.032 h -0.035 l -0.031,0.031 h -0.098 l -0.031,0.035 h -0.133 l -0.031,0.031 h -0.161 c -0.781,0 -0.781,-0.679 -0.781,-1.265 v -7.364 c 0,-4.867 5.321,-8.433 9.149,-8.433 2.855,0 5.093,1.883 5.093,4.832 l -0.683,0.035 c 0,-1.59 -1.168,-2.887 -3.5,-2.887 -0.942,0 -3.602,0.387 -5.516,1.524 -2.207,1.363 -2.66,3.277 -2.66,4.379 0,2.722 2.141,2.984 3.113,2.984 1.524,0 4.153,-0.649 5.809,-1.754 1.914,-1.262 2.754,-2.984 2.754,-4.246 l 0.683,-0.035 c 0,3.797 -3.894,8.109 -8.855,8.109 -0.551,0 -2.078,0 -3.504,-1.004 z"
         style="fill:#000000;fill-opacity:1;fill-rule:nonzero;stroke:none"
         id="path1362"
         inkscape:connector-curvature="0" /><path
         d="m 23.551,347.395 h 8.629 c 1.457,0 1.457,-0.324 1.457,-2.5 h 1.008 c -0.036,1.137 -0.098,2.79 -0.098,3.633 0,0.844 0.062,2.532 0.098,3.633 h -1.008 c 0,-2.172 0,-2.527 -1.457,-2.527 h -5.938 c -3.34,0 -5.156,2.301 -5.156,4.379 0,2.007 1.75,2.367 3.598,2.367 h 7.496 c 1.457,0 1.457,-0.36 1.457,-2.5 h 1.008 c -0.036,1.105 -0.098,2.758 -0.098,3.633 0,0.843 0.062,2.531 0.098,3.601 h -1.008 c 0,-2.14 0,-2.496 -1.457,-2.496 h -5.938 c -3.34,0 -5.156,2.27 -5.156,4.344 0,2.047 1.75,2.402 3.598,2.402 h 7.496 c 1.457,0 1.457,-0.355 1.457,-2.531 h 1.008 c -0.036,1.137 -0.098,2.789 -0.098,3.633 0,0.844 0.062,2.531 0.098,3.633 h -1.008 c 0,-1.684 0,-2.497 -0.973,-2.528 H 26.5 c -2.754,0 -3.762,0 -4.93,-1.008 -0.519,-0.421 -1.168,-1.492 -1.168,-3.371 0,-2.695 1.914,-4.121 3.149,-4.672 -2.789,-0.453 -3.149,-2.855 -3.149,-4.316 0,-2.332 1.364,-3.859 3.375,-4.766 h -3.375 l 0.36,-4.543 h 0.972 c 0,2.27 0.227,2.5 1.817,2.5 z"
         style="fill:#000000;fill-opacity:1;fill-rule:nonzero;stroke:none"
         id="path1364"
         inkscape:connector-curvature="0" /><path
         d="m 20.402,376.489 0.36,-4.508 h 0.972 c 0,2.11 0.192,2.399 1.782,2.399 h 8.664 c 1.457,0 1.457,-0.356 1.457,-2.528 h 1.008 c -0.036,1.036 -0.098,2.79 -0.098,3.567 0,1.105 0.062,2.238 0.098,3.344 h -1.008 c 0,-2.145 -0.16,-2.274 -1.426,-2.274 z"
         style="fill:#000000;fill-opacity:1;fill-rule:nonzero;stroke:none"
         id="path1366"
         inkscape:connector-curvature="0" /><path
         d="M 14.793,376.618 H 14.5 l -0.098,-0.031 h -0.066 l -0.098,-0.031 -0.062,-0.032 -0.098,-0.035 -0.066,-0.031 -0.098,-0.031 -0.062,-0.067 -0.067,-0.031 -0.062,-0.035 -0.067,-0.063 -0.066,-0.066 -0.031,-0.063 -0.067,-0.035 -0.062,-0.062 -0.032,-0.067 -0.066,-0.066 -0.031,-0.094 -0.035,-0.066 -0.032,-0.067 -0.031,-0.062 -0.035,-0.098 -0.031,-0.066 v -0.098 l -0.032,-0.062 v -0.098 l -0.031,-0.066 v -0.16 c 0,-1.008 0.875,-1.719 1.719,-1.719 0.875,0 1.684,0.711 1.684,1.719 0,0.875 -0.649,1.683 -1.684,1.683 z"
         style="fill:#000000;fill-opacity:1;fill-rule:nonzero;stroke:none"
         id="path1368"
         inkscape:connector-curvature="0" /><path
         d="m 23.551,383.302 h 8.629 c 1.457,0 1.457,-0.325 1.457,-2.496 h 1.008 c -0.036,1.132 -0.098,2.754 -0.098,3.632 0,0.844 0.062,2.528 0.098,3.633 h -1.008 c 0,-2.176 0,-2.531 -1.457,-2.531 h -5.938 c -3.34,0 -5.156,2.305 -5.156,4.348 0,2.043 1.75,2.398 3.598,2.398 h 7.496 c 1.457,0 1.457,-0.355 1.457,-2.496 h 1.008 c -0.036,1.102 -0.098,2.758 -0.098,3.633 0,0.844 0.062,2.531 0.098,3.601 h -1.008 c 0,-1.656 0,-2.464 -0.973,-2.5 H 26.5 c -2.754,0 -3.762,0 -4.93,-1.004 -0.519,-0.453 -1.168,-1.523 -1.168,-3.406 0,-2.336 1.364,-3.859 3.375,-4.769 h -3.375 l 0.36,-4.539 h 0.972 c 0,2.269 0.227,2.496 1.817,2.496 z"
         style="fill:#000000;fill-opacity:1;fill-rule:nonzero;stroke:none"
         id="path1370"
         inkscape:connector-curvature="0" /><path
         d="m 16.121,408.669 h -0.484 l -0.262,-0.035 h -0.258 l -0.555,-0.032 -0.55,-0.031 -0.582,-0.031 -0.618,-0.098 -0.648,-0.066 -0.648,-0.098 -0.649,-0.129 -0.683,-0.164 -0.68,-0.16 -0.68,-0.195 -0.683,-0.227 -0.68,-0.261 -0.356,-0.161 -0.359,-0.129 -0.324,-0.164 -0.356,-0.16 C 2.109,404.579 0,401.825 0,401.501 c 0,-0.195 0.129,-0.324 0.324,-0.324 0.098,0 0.164,0 0.746,0.613 3.211,3.148 8.336,4.996 15.051,4.996 5.516,0 11.191,-1.199 15.246,-5.187 0.391,-0.422 0.453,-0.422 0.551,-0.422 0.195,0 0.324,0.129 0.324,0.324 0,0.324 -2.207,3.211 -6.293,5.125 -3.535,1.652 -7.101,2.043 -9.828,2.043 z"
         style="fill:#000000;fill-opacity:1;fill-rule:nonzero;stroke:none"
         id="path1372"
         inkscape:connector-curvature="0" /><path
         d="m 371.504,17.524 v 0.094 l 0.031,0.098 0.031,0.094 0.063,0.257 0.035,0.129 0.031,0.125 0.063,0.16 0.031,0.129 0.066,0.16 0.125,0.321 0.067,0.16 0.094,0.16 0.066,0.16 0.094,0.16 0.097,0.161 0.094,0.125 0.098,0.16 0.129,0.129 0.125,0.16 0.129,0.129 0.129,0.125 0.128,0.097 0.161,0.098 0.156,0.094 0.066,0.031 0.094,0.066 0.066,0.032 0.094,0.031 0.098,0.031 h 0.094 l 0.097,0.031 0.063,0.036 h 0.226 l 0.094,0.031 h 0.098 c 0.16,0 0.925,0 1.597,-0.418 -0.894,-0.16 -1.535,-0.957 -1.535,-1.727 0,-0.511 0.352,-1.117 1.215,-1.117 0.703,0 1.727,0.574 1.727,1.856 0,1.66 -1.887,2.109 -2.973,2.109 -1.856,0 -2.973,-1.695 -3.324,-2.43 -0.801,2.11 -2.528,2.43 -3.453,2.43 -3.297,0 -5.118,-4.125 -5.118,-4.895 0,-0.316 0.321,-0.316 0.383,-0.316 0.254,0 0.352,0.062 0.414,0.352 1.09,3.355 3.168,4.156 4.254,4.156 0.61,0 1.727,-0.289 1.727,-2.145 0,-0.988 -0.543,-3.101 -1.727,-7.547 -0.512,-1.98 -1.629,-3.324 -3.004,-3.324 -0.191,0 -0.929,0 -1.601,0.414 0.801,0.16 1.504,0.832 1.504,1.727 0,0.863 -0.703,1.121 -1.184,1.121 -0.957,0 -1.758,-0.832 -1.758,-1.856 0,-1.468 1.598,-2.078 3.004,-2.078 2.082,0 3.231,2.207 3.328,2.399 0.383,-1.184 1.535,-2.399 3.422,-2.399 3.293,0 5.117,4.094 5.117,4.895 0,0.316 -0.289,0.316 -0.386,0.316 -0.286,0 -0.352,-0.16 -0.414,-0.351 -1.055,-3.422 -3.231,-4.188 -4.254,-4.188 -1.215,0 -1.727,1.024 -1.727,2.11 0,0.703 0.191,1.406 0.543,2.781 z"
         style="fill:#000000;fill-opacity:1;fill-rule:nonzero;stroke:none"
         id="path1374"
         inkscape:connector-curvature="0" /><path
         d="m 393.023,30.571 h 0.032 v 0.094 h 0.031 v 0.066 l 0.031,0.032 v 0.093 h 0.035 v 0.098 l 0.032,0.031 v 0.16 c 0,0.352 -0.289,0.641 -0.641,0.641 -0.223,0 -0.414,-0.098 -0.512,-0.289 L 380.969,1.216 c -0.16,-0.418 -0.16,-0.543 -0.16,-0.578 0,-0.352 0.285,-0.637 0.636,-0.637 0.418,0 0.512,0.223 0.707,0.766 z"
         style="fill:#000000;fill-opacity:1;fill-rule:nonzero;stroke:none"
         id="path1376"
         inkscape:connector-curvature="0" /><path
         d="m 405.621,17.524 0.031,0.094 v 0.098 l 0.036,0.094 0.093,0.386 0.067,0.125 0.031,0.16 0.062,0.129 0.032,0.16 0.066,0.161 0.063,0.16 0.097,0.16 0.063,0.16 0.097,0.16 0.063,0.16 0.094,0.161 0.097,0.125 0.129,0.16 0.094,0.129 0.129,0.16 0.129,0.129 0.129,0.125 0.156,0.097 0.129,0.098 0.16,0.094 0.098,0.031 0.062,0.066 0.098,0.032 0.094,0.031 0.066,0.031 h 0.094 l 0.097,0.031 0.094,0.036 h 0.191 l 0.098,0.031 h 0.098 c 0.156,0 0.926,0 1.597,-0.418 -0.894,-0.16 -1.535,-0.957 -1.535,-1.727 0,-0.511 0.352,-1.117 1.215,-1.117 0.703,0 1.727,0.574 1.727,1.856 0,1.66 -1.887,2.109 -2.942,2.109 -1.855,0 -2.972,-1.695 -3.359,-2.43 -0.797,2.11 -2.523,2.43 -3.422,2.43 -3.324,0 -5.148,-4.125 -5.148,-4.895 0,-0.316 0.32,-0.316 0.386,-0.316 0.254,0 0.352,0.062 0.414,0.352 1.086,3.355 3.2,4.156 4.286,4.156 0.609,0 1.695,-0.289 1.695,-2.145 0,-0.988 -0.543,-3.101 -1.695,-7.547 -0.512,-1.98 -1.629,-3.324 -3.039,-3.324 -0.192,0 -0.926,0 -1.598,0.414 0.801,0.16 1.504,0.832 1.504,1.727 0,0.863 -0.703,1.121 -1.184,1.121 -0.961,0 -1.726,-0.832 -1.726,-1.856 0,-1.468 1.566,-2.078 2.972,-2.078 2.11,0 3.262,2.207 3.36,2.399 0.351,-1.184 1.5,-2.399 3.422,-2.399 3.292,0 5.082,4.094 5.082,4.895 0,0.316 -0.286,0.316 -0.383,0.316 -0.289,0 -0.352,-0.16 -0.414,-0.351 -1.059,-3.422 -3.2,-4.188 -4.223,-4.188 -1.246,0 -1.758,1.024 -1.758,2.11 0,0.703 0.192,1.406 0.543,2.781 z"
         style="fill:#000000;fill-opacity:1;fill-rule:nonzero;stroke:none"
         id="path1378"
         inkscape:connector-curvature="0" /><path
         d="m 424.711,10.267 -0.031,0.445 v 0.449 l -0.032,0.414 v 0.383 l -0.062,0.418 -0.035,0.383 -0.125,0.703 -0.098,0.351 -0.094,0.352 -0.097,0.32 -0.129,0.321 -0.125,0.32 -0.16,0.289 -0.161,0.316 -0.097,0.129 -0.094,0.16 c -0.672,1.024 -2.047,1.918 -3.84,1.918 v -0.64 c 1.184,0 2.367,-0.735 2.75,-2.012 0.352,-1.215 0.387,-2.816 0.387,-4.734 0,-1.66 0,-3.293 -0.289,-4.7 -0.449,-2.015 -1.953,-2.496 -2.848,-2.496 -1.023,0 -2.398,0.579 -2.843,2.43 -0.29,1.281 -0.29,3.106 -0.29,4.766 0,1.633 0,3.328 0.321,4.543 0.48,1.757 1.886,2.203 2.812,2.203 v 0.64 c -5.179,0 -5.179,-6.074 -5.179,-7.671 0,-1.602 0,-7.547 5.179,-7.547 5.18,0 5.18,5.945 5.18,7.547 z"
         style="fill:#000000;fill-opacity:1;fill-rule:nonzero;stroke:none"
         id="path1380"
         inkscape:connector-curvature="0" /></g></g></svg>