<?xml version="1.0" encoding="UTF-8" standalone="no"?>
<svg
   xmlns:dc="http://purl.org/dc/elements/1.1/"
   xmlns:cc="http://creativecommons.org/ns#"
   xmlns:rdf="http://www.w3.org/1999/02/22-rdf-syntax-ns#"
   xmlns:svg="http://www.w3.org/2000/svg"
   xmlns="http://www.w3.org/2000/svg"
   version="1.1"
   id="svg5017"
   viewBox="0.0000 0.0000 792.0000 612.0000"
   height="8.5000in"
   width="11.0000in"
   xml:space="preserve"><metadata
   id="metadata5607"><rdf:RDF><cc:Work
       rdf:about=""><dc:format>image/svg+xml</dc:format><dc:type
         rdf:resource="http://purl.org/dc/dcmitype/StillImage" /><dc:title></dc:title></cc:Work></rdf:RDF></metadata><defs
   id="defs5605" /><g
   transform="matrix(1,0,0,-1,0,612)"
   style="fill:#ffffff;fill-rule:nonzero"
   id="g5021"><g
     transform="translate(396,306)"
     id="g5023"><path
       d="m -396,-306 0,612 792,0 0,-612 z"
       id="path5025" /></g></g><g
   transform="matrix(1,0,0,-1,0,612)"
   style="fill:#000000;fill-rule:nonzero"
   id="g5027"><g
     transform="translate(179.7531,435.5269)"
     id="g5029"><circle
       cx="0"
       cy="0"
       id="ellipse5031"
       r="4.8959999" /></g></g><g
   transform="matrix(1,0,0,-1,0,612)"
   style="fill:none;stroke:#000000;stroke-width:0.91799998;stroke-linecap:butt;stroke-linejoin:miter;stroke-dasharray:none"
   id="g5033"><g
     transform="translate(179.7531,435.5269)"
     id="g5035"><circle
       cx="0"
       cy="0"
       id="ellipse5037"
       r="4.8959999" /></g></g><g
   transform="matrix(1,0,0,-1,0,612)"
   style="fill:#000000;fill-rule:nonzero"
   id="g5039"><g
     transform="translate(224.2543,322.0904)"
     id="g5041"><circle
       cx="0"
       cy="0"
       id="ellipse5043"
       r="4.8959999" /></g></g><g
   transform="matrix(1,0,0,-1,0,612)"
   style="fill:none;stroke:#000000;stroke-width:0.91799998;stroke-linecap:butt;stroke-linejoin:miter;stroke-dasharray:none"
   id="g5045"><g
     transform="translate(224.2543,322.0904)"
     id="g5047"><circle
       cx="0"
       cy="0"
       id="ellipse5049"
       r="4.8959999" /></g></g><g
   transform="matrix(1,0,0,-1,0,612)"
   style="fill:#000000;fill-rule:nonzero"
   id="g5051"><g
     transform="translate(269.9794,319.5423)"
     id="g5053"><circle
       cx="0"
       cy="0"
       id="ellipse5055"
       r="4.8959999" /></g></g><g
   transform="matrix(1,0,0,-1,0,612)"
   style="fill:none;stroke:#000000;stroke-width:0.91799998;stroke-linecap:butt;stroke-linejoin:miter;stroke-dasharray:none"
   id="g5057"><g
     transform="translate(269.9794,319.5423)"
     id="g5059"><circle
       cx="0"
       cy="0"
       id="ellipse5061"
       r="4.8959999" /></g></g><g
   transform="matrix(1,0,0,-1,0,612)"
   style="fill:#000000;fill-rule:nonzero"
   id="g5063"><g
     transform="translate(313.344,385.5804)"
     id="g5065"><circle
       cx="0"
       cy="0"
       id="ellipse5067"
       r="4.8959999" /></g></g><g
   transform="matrix(1,0,0,-1,0,612)"
   style="fill:none;stroke:#000000;stroke-width:0.91799998;stroke-linecap:butt;stroke-linejoin:miter;stroke-dasharray:none"
   id="g5069"><g
     transform="translate(313.344,385.5804)"
     id="g5071"><circle
       cx="0"
       cy="0"
       id="ellipse5073"
       r="4.8959999" /></g></g><g
   transform="matrix(1,0,0,-1,0,612)"
   style="fill:#000000;fill-rule:nonzero"
   id="g5075"><g
     transform="translate(359.0691,394.8992)"
     id="g5077"><circle
       cx="0"
       cy="0"
       id="ellipse5079"
       r="4.8959999" /></g></g><g
   transform="matrix(1,0,0,-1,0,612)"
   style="fill:none;stroke:#000000;stroke-width:0.91799998;stroke-linecap:butt;stroke-linejoin:miter;stroke-dasharray:none"
   id="g5081"><g
     transform="translate(359.0691,394.8992)"
     id="g5083"><circle
       cx="0"
       cy="0"
       id="ellipse5085"
       r="4.8959999" /></g></g><g
   transform="matrix(1,0,0,-1,0,612)"
   style="fill:#000000;fill-rule:nonzero"
   id="g5087"><g
     transform="translate(401.2971,378.8102)"
     id="g5089"><circle
       cx="0"
       cy="0"
       id="ellipse5091"
       r="4.8959999" /></g></g><g
   transform="matrix(1,0,0,-1,0,612)"
   style="fill:none;stroke:#000000;stroke-width:0.91799998;stroke-linecap:butt;stroke-linejoin:miter;stroke-dasharray:none"
   id="g5093"><g
     transform="translate(401.2971,378.8102)"
     id="g5095"><circle
       cx="0"
       cy="0"
       id="ellipse5097"
       r="4.8959999" /></g></g><g
   transform="matrix(1,0,0,-1,0,612)"
   style="fill:#000000;fill-rule:nonzero"
   id="g5099"><g
     transform="translate(448.2463,344.0968)"
     id="g5101"><circle
       cx="0"
       cy="0"
       id="ellipse5103"
       r="4.8959999" /></g></g><g
   transform="matrix(1,0,0,-1,0,612)"
   style="fill:none;stroke:#000000;stroke-width:0.91799998;stroke-linecap:butt;stroke-linejoin:miter;stroke-dasharray:none"
   id="g5105"><g
     transform="translate(448.2463,344.0968)"
     id="g5107"><circle
       cx="0"
       cy="0"
       id="ellipse5109"
       r="4.8959999" /></g></g><g
   transform="matrix(1,0,0,-1,0,612)"
   style="fill:#000000;fill-rule:nonzero"
   id="g5111"><g
     transform="translate(491.6109,274.6666)"
     id="g5113"><circle
       cx="0"
       cy="0"
       id="ellipse5115"
       r="4.8959999" /></g></g><g
   transform="matrix(1,0,0,-1,0,612)"
   style="fill:none;stroke:#000000;stroke-width:0.91799998;stroke-linecap:butt;stroke-linejoin:miter;stroke-dasharray:none"
   id="g5117"><g
     transform="translate(491.6109,274.6666)"
     id="g5119"><circle
       cx="0"
       cy="0"
       id="ellipse5121"
       r="4.8959999" /></g></g><g
   transform="matrix(1,0,0,-1,0,612)"
   style="fill:#000000;fill-rule:nonzero"
   id="g5123"><g
     transform="translate(537.336,233.1887)"
     id="g5125"><circle
       cx="0"
       cy="0"
       id="ellipse5127"
       r="4.8959999" /></g></g><g
   transform="matrix(1,0,0,-1,0,612)"
   style="fill:none;stroke:#000000;stroke-width:0.91799998;stroke-linecap:butt;stroke-linejoin:miter;stroke-dasharray:none"
   id="g5129"><g
     transform="translate(537.336,233.1887)"
     id="g5131"><circle
       cx="0"
       cy="0"
       id="ellipse5133"
       r="4.8959999" /></g></g><g
   transform="matrix(1,0,0,-1,0,612)"
   style="fill:#000000;fill-rule:nonzero"
   id="g5135"><g
     transform="translate(601.7709,311.0762)"
     id="g5137"><circle
       cx="0"
       cy="0"
       id="ellipse5139"
       r="4.8959999" /></g></g><g
   transform="matrix(1,0,0,-1,0,612)"
   style="fill:none;stroke:#000000;stroke-width:0.91799998;stroke-linecap:butt;stroke-linejoin:miter;stroke-dasharray:none"
   id="g5141"><g
     transform="translate(601.7709,311.0762)"
     id="g5143"><circle
       cx="0"
       cy="0"
       id="ellipse5145"
       r="4.8959999" /></g></g><g
   transform="matrix(1,0,0,-1,0,612)"
   style="fill:#000000;fill-rule:nonzero"
   id="g5147"><g
     transform="translate(668.6537,321.2373)"
     id="g5149"><circle
       cx="0"
       cy="0"
       id="ellipse5151"
       r="4.8959999" /></g></g><g
   transform="matrix(1,0,0,-1,0,612)"
   style="fill:none;stroke:#000000;stroke-width:0.91799998;stroke-linecap:butt;stroke-linejoin:miter;stroke-dasharray:none"
   id="g5153"><g
     transform="translate(668.6537,321.2373)"
     id="g5155"><circle
       cx="0"
       cy="0"
       id="ellipse5157"
       r="4.8959999" /></g></g><g
   transform="matrix(1,0,0,-1,0,612)"
   style="fill:none;stroke:#000000;stroke-width:1.83599996;stroke-linecap:butt;stroke-linejoin:miter;stroke-dasharray:none;stroke-miterlimit:4"
   id="g5159"><g
     style="stroke-width:1.83599996;stroke-miterlimit:4;stroke-dasharray:none"
     transform="translate(402.5869,336.5433)"
     id="g5161" /></g><g
   transform="matrix(1,0,0,-1,0,612)"
   style="fill:#000000;stroke:#000000;stroke-width:1.83599996;stroke-linecap:butt;stroke-linejoin:miter;stroke-dasharray:none;stroke-miterlimit:4;stroke-dashoffset:0;fill-opacity:1;opacity:0.368"
   id="g5165"><g
     style="stroke-width:1.83599996;stroke-miterlimit:4;stroke-dasharray:none;stroke-dashoffset:0;fill:#000000;fill-opacity:1"
     transform="translate(402.5869,350.5797)"
     id="g5167"><path
       style="stroke-width:1.83599997;stroke-miterlimit:4;stroke-dasharray:none;stroke-dashoffset:0;fill:#000000;fill-opacity:1"
       d="m -295.0498,130.0243 7.8686,-2.2524 7.8685,-3.1812 7.8686,-4.1383 7.8686,-5.1341 7.8686,-6.179 7.8685,-7.2858 7.8686,-8.4676 7.8686,-9.7395 7.8685,-11.1157 7.8686,-12.6052 7.8686,-14.2034 7.8686,-15.8659 7.8685,-17.4561 7.8686,-18.6282 7.8686,-18.6302 7.8685,-16.1563 7.8686,-9.9573 7.8686,-0.8672 7.8686,7.492 7.8685,12.2829 7.8686,13.6891 7.8686,13.1449 7.8685,11.7639 7.8686,10.1241 7.8686,8.4771 7.8686,6.9166 7.8685,5.4678 7.8686,4.1276 7.8686,2.8851 7.8685,1.7232 7.8686,0.6265 7.8686,-0.4192 7.8686,-1.4268 7.8685,-2.4097 7.8686,-3.3795 7.8686,-4.348 7.8685,-5.3264 7.8686,-6.3291 7.8686,-7.3683 7.8686,-8.4601 7.8685,-9.6222 7.8686,-10.8745 7.8686,-12.2388 7.8685,-13.7364 7.8686,-15.3808 7.8686,-17.1585 7.8686,-18.979 7.8685,-20.5548 7.8686,-21.1421 7.8686,-19.183 7.8685,-12.6454 7.8686,-1.7768 7.8686,8.6721 7.8686,14.4647 7.8685,15.9324 7.8686,15.1395 7.8686,13.5132 7.8685,11.7078 7.8686,9.9707 7.8686,8.3758 7.8686,6.9317 7.8685,5.6224 7.8686,4.4272 7.8686,3.3247 7.8685,2.2958 7.8686,1.3237 7.8686,0.3943 7.8686,-0.5054 7.8685,-1.387 7.8686,-2.2608 7.8686,-3.1365 7.8685,-4.0234 7.8686,-4.9319 7.8686,-5.8709 7.8686,-6.8502 5.8358,-5.657165 -0.13296,12.842865 -5.70284,6.0132 -7.8686,6.7721 -7.8686,5.7977 -7.8686,4.8636 -7.8685,3.9597 -7.8686,3.0768 -7.8686,2.2051 -7.8685,1.3352 -7.8686,0.4573 -7.8686,-0.4393 -7.8686,-1.3659 -7.8685,-2.3349 -7.8686,-3.3614 -7.8686,-4.4614 -7.8685,-5.6545 -7.8686,-6.9609 -7.8686,-8.4019 -7.8686,-9.9906 -7.8685,-11.7174 -7.8686,-13.4998 -7.8686,-15.0786 -7.8685,-15.7755 -7.8686,-14.1419 -7.8686,-8.1626 -7.8686,2.3065 -7.8685,12.9534 -7.8686,19.2474 -7.8686,21.0873 -7.8685,20.472 -7.8686,18.9063 -7.8686,17.1059 -7.8686,15.3481 -7.8685,13.7212 -7.8686,12.2384 -7.8686,10.8863 -7.8685,9.6443 -7.8686,8.4909 -7.8686,7.407 -7.8686,6.3743 -7.8685,5.3787 -7.8686,4.4054 -7.8686,3.4435 -7.8685,2.4795 -7.8686,1.5034 -7.8686,0.5022 -7.8686,-0.5347 -7.8685,-1.622 -7.8686,-2.7727 -7.8686,-4.0011 -7.8685,-5.3235 -7.8686,-6.7493 -7.8686,-8.282 -7.8686,-9.8931 -7.8685,-11.4927 -7.8686,-12.8387 -7.8686,-13.3845 -7.8685,-12.0869 -7.8686,-7.5902 -7.8686,0.3657 -7.8686,9.241 -7.8685,15.5334 -7.8686,18.2232 -7.8686,18.4027 -7.8685,17.3456 -7.8686,15.8206 -7.8686,14.194 -7.8686,12.6141 -7.8685,11.1336 -7.8686,9.7615 -7.8686,8.4901 -7.8685,7.3074 -7.8686,6.1988 -7.8686,5.1512 -7.8686,4.1526 -7.8685,3.1924 -7.8686,2.2606 -7.8686,1.3486 0.0612,-14.29639 z"
       id="path5169" /></g></g><g
   transform="matrix(1,0,0,-1,0,612)"
   style="fill:none;stroke:#000000;stroke-width:0.91799998;stroke-linecap:butt;stroke-linejoin:miter;stroke-dasharray:none"
   id="g5177"><g
     transform="translate(397.8,91.8)"
     id="g5179"><path
       d="M -306,0 306,0"
       id="path5181" /></g><g
     transform="translate(397.8,520.2)"
     id="g5183"><path
       d="M -306,0 306,0"
       id="path5185" /></g><g
     transform="translate(157.3714,94.86)"
     id="g5187"><path
       d="M 0,-3.06 0,3.06"
       id="path5189" /></g><g
     transform="translate(157.3714,517.14)"
     id="g5191"><path
       d="M 0,3.06 0,-3.06"
       id="path5193" /></g><g
     transform="translate(288.5143,94.86)"
     id="g5195"><path
       d="M 0,-3.06 0,3.06"
       id="path5197" /></g><g
     transform="translate(288.5143,517.14)"
     id="g5199"><path
       d="M 0,3.06 0,-3.06"
       id="path5201" /></g><g
     transform="translate(419.6571,94.86)"
     id="g5203"><path
       d="M 0,-3.06 0,3.06"
       id="path5205" /></g><g
     transform="translate(419.6571,517.14)"
     id="g5207"><path
       d="M 0,3.06 0,-3.06"
       id="path5209" /></g><g
     transform="translate(550.8,94.86)"
     id="g5211"><path
       d="M 0,-3.06 0,3.06"
       id="path5213" /></g><g
     transform="translate(550.8,517.14)"
     id="g5215"><path
       d="M 0,3.06 0,-3.06"
       id="path5217" /></g><g
     transform="translate(681.9429,94.86)"
     id="g5219"><path
       d="M 0,-3.06 0,3.06"
       id="path5221" /></g><g
     transform="translate(681.9429,517.14)"
     id="g5223"><path
       d="M 0,3.06 0,-3.06"
       id="path5225" /></g><g
     transform="translate(91.8,97.92)"
     id="g5227"><path
       d="M 0,-6.12 0,6.12"
       id="path5229" /></g><g
     transform="translate(91.8,514.08)"
     id="g5231"><path
       d="M 0,6.12 0,-6.12"
       id="path5233" /></g><g
     transform="translate(222.9429,97.92)"
     id="g5235"><path
       d="M 0,-6.12 0,6.12"
       id="path5237" /></g><g
     transform="translate(222.9429,514.08)"
     id="g5239"><path
       d="M 0,6.12 0,-6.12"
       id="path5241" /></g><g
     transform="translate(354.0857,97.92)"
     id="g5243"><path
       d="M 0,-6.12 0,6.12"
       id="path5245" /></g><g
     transform="translate(354.0857,514.08)"
     id="g5247"><path
       d="M 0,6.12 0,-6.12"
       id="path5249" /></g><g
     transform="translate(485.2286,97.92)"
     id="g5251"><path
       d="M 0,-6.12 0,6.12"
       id="path5253" /></g><g
     transform="translate(485.2286,514.08)"
     id="g5255"><path
       d="M 0,6.12 0,-6.12"
       id="path5257" /></g><g
     transform="translate(616.3714,97.92)"
     id="g5259"><path
       d="M 0,-6.12 0,6.12"
       id="path5261" /></g><g
     transform="translate(616.3714,514.08)"
     id="g5263"><path
       d="M 0,6.12 0,-6.12"
       id="path5265" /></g></g><g
   transform="matrix(1,0,0,-1,0,612)"
   style="fill:#000000;fill-rule:nonzero"
   id="g5267"><text
   style="font-style:normal;font-weight:normal;font-size:612px;line-height:0%;font-family:Times, 'Nimbus Roman No9 L'"
   transform="matrix(0.0476,0,0,-0.0476,84.8,65.68)"
   id="text5269">0</text>

<text
   style="font-style:normal;font-weight:normal;font-size:612px;line-height:0%;font-family:Times, 'Nimbus Roman No9 L'"
   transform="matrix(0.0476,0,0,-0.0476,208.9429,65.68)"
   id="text5271">15</text>

<text
   style="font-style:normal;font-weight:normal;font-size:612px;line-height:0%;font-family:Times, 'Nimbus Roman No9 L'"
   transform="matrix(0.0476,0,0,-0.0476,340.0857,65.68)"
   id="text5273">30</text>

<text
   style="font-style:normal;font-weight:normal;font-size:612px;line-height:0%;font-family:Times, 'Nimbus Roman No9 L'"
   transform="matrix(0.0476,0,0,-0.0476,471.2286,65.68)"
   id="text5275">45</text>

<text
   style="font-style:normal;font-weight:normal;font-size:612px;line-height:0%;font-family:Times, 'Nimbus Roman No9 L'"
   transform="matrix(0.0476,0,0,-0.0476,602.3714,65.68)"
   id="text5277">60</text>

</g><g
   transform="matrix(1,0,0,-1,0,612)"
   style="fill:none;stroke:#000000;stroke-width:0.91799998;stroke-linecap:butt;stroke-linejoin:miter;stroke-dasharray:none"
   id="g5279"><g
     transform="translate(91.8,306)"
     id="g5281"><path
       d="M 0,-214.2 0,214.2"
       id="path5283" /></g><g
     transform="translate(703.8,306)"
     id="g5285"><path
       d="M 0,-214.2 0,214.2"
       id="path5287" /></g><g
     transform="translate(94.86,134.7871)"
     id="g5289"><path
       d="M -3.06,0 3.06,0"
       id="path5291" /></g><g
     transform="translate(700.74,134.7871)"
     id="g5293"><path
       d="M 3.06,0 -3.06,0"
       id="path5295" /></g><g
     transform="translate(94.86,159.9329)"
     id="g5297"><path
       d="M -3.06,0 3.06,0"
       id="path5299" /></g><g
     transform="translate(700.74,159.9329)"
     id="g5301"><path
       d="M 3.06,0 -3.06,0"
       id="path5303" /></g><g
     transform="translate(94.86,177.7742)"
     id="g5305"><path
       d="M -3.06,0 3.06,0"
       id="path5307" /></g><g
     transform="translate(700.74,177.7742)"
     id="g5309"><path
       d="M 3.06,0 -3.06,0"
       id="path5311" /></g><g
     transform="translate(94.86,191.6129)"
     id="g5313"><path
       d="M -3.06,0 3.06,0"
       id="path5315" /></g><g
     transform="translate(700.74,191.6129)"
     id="g5317"><path
       d="M 3.06,0 -3.06,0"
       id="path5319" /></g><g
     transform="translate(94.86,202.92)"
     id="g5321"><path
       d="M -3.06,0 3.06,0"
       id="path5323" /></g><g
     transform="translate(700.74,202.92)"
     id="g5325"><path
       d="M 3.06,0 -3.06,0"
       id="path5327" /></g><g
     transform="translate(94.86,212.48)"
     id="g5329"><path
       d="M -3.06,0 3.06,0"
       id="path5331" /></g><g
     transform="translate(700.74,212.48)"
     id="g5333"><path
       d="M 3.06,0 -3.06,0"
       id="path5335" /></g><g
     transform="translate(94.86,220.7613)"
     id="g5337"><path
       d="M -3.06,0 3.06,0"
       id="path5339" /></g><g
     transform="translate(700.74,220.7613)"
     id="g5341"><path
       d="M 3.06,0 -3.06,0"
       id="path5343" /></g><g
     transform="translate(94.86,228.0658)"
     id="g5345"><path
       d="M -3.06,0 3.06,0"
       id="path5347" /></g><g
     transform="translate(700.74,228.0658)"
     id="g5349"><path
       d="M 3.06,0 -3.06,0"
       id="path5351" /></g><g
     transform="translate(94.86,234.6)"
     id="g5353"><path
       d="M -3.06,0 3.06,0"
       id="path5355" /></g><g
     transform="translate(700.74,234.6)"
     id="g5357"><path
       d="M 3.06,0 -3.06,0"
       id="path5359" /></g><g
     transform="translate(94.86,277.5871)"
     id="g5361"><path
       d="M -3.06,0 3.06,0"
       id="path5363" /></g><g
     transform="translate(700.74,277.5871)"
     id="g5365"><path
       d="M 3.06,0 -3.06,0"
       id="path5367" /></g><g
     transform="translate(94.86,302.7329)"
     id="g5369"><path
       d="M -3.06,0 3.06,0"
       id="path5371" /></g><g
     transform="translate(700.74,302.7329)"
     id="g5373"><path
       d="M 3.06,0 -3.06,0"
       id="path5375" /></g><g
     transform="translate(94.86,320.5742)"
     id="g5377"><path
       d="M -3.06,0 3.06,0"
       id="path5379" /></g><g
     transform="translate(700.74,320.5742)"
     id="g5381"><path
       d="M 3.06,0 -3.06,0"
       id="path5383" /></g><g
     transform="translate(94.86,334.4129)"
     id="g5385"><path
       d="M -3.06,0 3.06,0"
       id="path5387" /></g><g
     transform="translate(700.74,334.4129)"
     id="g5389"><path
       d="M 3.06,0 -3.06,0"
       id="path5391" /></g><g
     transform="translate(94.86,345.72)"
     id="g5393"><path
       d="M -3.06,0 3.06,0"
       id="path5395" /></g><g
     transform="translate(700.74,345.72)"
     id="g5397"><path
       d="M 3.06,0 -3.06,0"
       id="path5399" /></g><g
     transform="translate(94.86,355.28)"
     id="g5401"><path
       d="M -3.06,0 3.06,0"
       id="path5403" /></g><g
     transform="translate(700.74,355.28)"
     id="g5405"><path
       d="M 3.06,0 -3.06,0"
       id="path5407" /></g><g
     transform="translate(94.86,363.5613)"
     id="g5409"><path
       d="M -3.06,0 3.06,0"
       id="path5411" /></g><g
     transform="translate(700.74,363.5613)"
     id="g5413"><path
       d="M 3.06,0 -3.06,0"
       id="path5415" /></g><g
     transform="translate(94.86,370.8658)"
     id="g5417"><path
       d="M -3.06,0 3.06,0"
       id="path5419" /></g><g
     transform="translate(700.74,370.8658)"
     id="g5421"><path
       d="M 3.06,0 -3.06,0"
       id="path5423" /></g><g
     transform="translate(94.86,377.4)"
     id="g5425"><path
       d="M -3.06,0 3.06,0"
       id="path5427" /></g><g
     transform="translate(700.74,377.4)"
     id="g5429"><path
       d="M 3.06,0 -3.06,0"
       id="path5431" /></g><g
     transform="translate(94.86,420.3871)"
     id="g5433"><path
       d="M -3.06,0 3.06,0"
       id="path5435" /></g><g
     transform="translate(700.74,420.3871)"
     id="g5437"><path
       d="M 3.06,0 -3.06,0"
       id="path5439" /></g><g
     transform="translate(94.86,445.5329)"
     id="g5441"><path
       d="M -3.06,0 3.06,0"
       id="path5443" /></g><g
     transform="translate(700.74,445.5329)"
     id="g5445"><path
       d="M 3.06,0 -3.06,0"
       id="path5447" /></g><g
     transform="translate(94.86,463.3742)"
     id="g5449"><path
       d="M -3.06,0 3.06,0"
       id="path5451" /></g><g
     transform="translate(700.74,463.3742)"
     id="g5453"><path
       d="M 3.06,0 -3.06,0"
       id="path5455" /></g><g
     transform="translate(94.86,477.2129)"
     id="g5457"><path
       d="M -3.06,0 3.06,0"
       id="path5459" /></g><g
     transform="translate(700.74,477.2129)"
     id="g5461"><path
       d="M 3.06,0 -3.06,0"
       id="path5463" /></g><g
     transform="translate(94.86,488.52)"
     id="g5465"><path
       d="M -3.06,0 3.06,0"
       id="path5467" /></g><g
     transform="translate(700.74,488.52)"
     id="g5469"><path
       d="M 3.06,0 -3.06,0"
       id="path5471" /></g><g
     transform="translate(94.86,498.08)"
     id="g5473"><path
       d="M -3.06,0 3.06,0"
       id="path5475" /></g><g
     transform="translate(700.74,498.08)"
     id="g5477"><path
       d="M 3.06,0 -3.06,0"
       id="path5479" /></g><g
     transform="translate(94.86,506.3613)"
     id="g5481"><path
       d="M -3.06,0 3.06,0"
       id="path5483" /></g><g
     transform="translate(700.74,506.3613)"
     id="g5485"><path
       d="M 3.06,0 -3.06,0"
       id="path5487" /></g><g
     transform="translate(94.86,513.6658)"
     id="g5489"><path
       d="M -3.06,0 3.06,0"
       id="path5491" /></g><g
     transform="translate(700.74,513.6658)"
     id="g5493"><path
       d="M 3.06,0 -3.06,0"
       id="path5495" /></g><g
     transform="translate(94.86,520.2)"
     id="g5497"><path
       d="M -3.06,0 3.06,0"
       id="path5499" /></g><g
     transform="translate(700.74,520.2)"
     id="g5501"><path
       d="M 3.06,0 -3.06,0"
       id="path5503" /></g><g
     transform="translate(97.92,91.8)"
     id="g5505"><path
       d="M -6.12,0 6.12,0"
       id="path5507" /></g><g
     transform="translate(697.68,91.8)"
     id="g5509"><path
       d="M 6.12,0 -6.12,0"
       id="path5511" /></g><g
     transform="translate(97.92,234.6)"
     id="g5513"><path
       d="M -6.12,0 6.12,0"
       id="path5515" /></g><g
     transform="translate(697.68,234.6)"
     id="g5517"><path
       d="M 6.12,0 -6.12,0"
       id="path5519" /></g><g
     transform="translate(97.92,377.4)"
     id="g5521"><path
       d="M -6.12,0 6.12,0"
       id="path5523" /></g><g
     transform="translate(697.68,377.4)"
     id="g5525"><path
       d="M 6.12,0 -6.12,0"
       id="path5527" /></g><g
     transform="translate(97.92,520.2)"
     id="g5529"><path
       d="M -6.12,0 6.12,0"
       id="path5531" /></g><g
     transform="translate(697.68,520.2)"
     id="g5533"><path
       d="M 6.12,0 -6.12,0"
       id="path5535" /></g></g><g
   transform="matrix(1,0,0,-1,0,612)"
   style="fill:#000000;fill-rule:nonzero"
   id="g5537"><text
   style="font-style:normal;font-weight:normal;font-size:612px;line-height:0%;font-family:Times, 'Nimbus Roman No9 L'"
   transform="matrix(0.0454,0,0,-0.0454,49.68,77.4719)"
   id="text5539">10</text>

<text
   style="font-style:normal;font-weight:normal;font-size:612px;line-height:0%;font-family:Times, 'Nimbus Roman No9 L'"
   transform="matrix(0.0321,0,0,-0.0321,77.68,94.1281)"
   id="text5541">1</text>

<text
   style="font-style:normal;font-weight:normal;font-size:612px;line-height:0%;font-family:Times, 'Nimbus Roman No9 L'"
   transform="matrix(0.0454,0,0,-0.0454,47.68,220.2719)"
   id="text5543">10</text>

<text
   style="font-style:normal;font-weight:normal;font-size:612px;line-height:0%;font-family:Times, 'Nimbus Roman No9 L'"
   transform="matrix(0.0321,0,0,-0.0321,75.68,236.9281)"
   id="text5545">2</text>

<text
   style="font-style:normal;font-weight:normal;font-size:612px;line-height:0%;font-family:Times, 'Nimbus Roman No9 L'"
   transform="matrix(0.0454,0,0,-0.0454,48.68,363.0719)"
   id="text5547">10</text>

<text
   style="font-style:normal;font-weight:normal;font-size:612px;line-height:0%;font-family:Times, 'Nimbus Roman No9 L'"
   transform="matrix(0.0321,0,0,-0.0321,76.68,379.7281)"
   id="text5549">3</text>

<text
   style="font-style:normal;font-weight:normal;font-size:612px;line-height:0%;font-family:Times, 'Nimbus Roman No9 L'"
   transform="matrix(0.0454,0,0,-0.0454,47.68,505.8719)"
   id="text5551">10</text>

<text
   style="font-style:normal;font-weight:normal;font-size:612px;line-height:0%;font-family:Times, 'Nimbus Roman No9 L'"
   transform="matrix(0.0321,0,0,-0.0321,75.68,522.5281)"
   id="text5553">4</text>

</g><g
   transform="matrix(1,0,0,-1,0,612)"
   style="fill:none;stroke:#000000;stroke-width:0.91799998;stroke-linecap:butt;stroke-linejoin:miter;stroke-dasharray:none"
   id="g5555"><g
     transform="translate(397.8,306)"
     id="g5557"><path
       d="m -306,-214.2 0,428.4 612,0 0,-428.4 z"
       id="path5559" /></g></g><g
   transform="matrix(1,0,0,-1,0,612)"
   style="fill:#ffffff;fill-rule:nonzero"
   id="g5561"><g
     transform="translate(583.139,458.36)"
     id="g5563"><path
       d="m -62.939,31.24 0,-62.48 125.878,0 0,62.48 z"
       id="path5565" /></g></g><g
   transform="matrix(0.99136727,0,0,-1.085818,36.297564,654.09083)"
   style="fill:none;stroke:#000000;stroke-width:0.91799998;stroke-linecap:butt;stroke-linejoin:miter;stroke-dasharray:none"
   id="g5567"><g
     transform="translate(583.139,458.36)"
     id="g5569"><path
       d="M -62.939,31.24 V -31.24 H 62.939 v 62.48 z"
       id="path5571" /></g></g><g
   transform="matrix(1,0,0,-1,0,612)"
   style="fill:#000000;fill-rule:nonzero"
   id="g5573"><text
   style="font-style:normal;font-weight:normal;font-size:612px;line-height:0%;font-family:Times, 'Nimbus Roman No9 L'"
   transform="matrix(0.028,0,0,-0.028,563.958,471.48)"
   id="text5575">HFB: 1955 μb</text>

</g><g
   transform="matrix(1,0,0,-1,0,612)"
   style="fill:#000000;fill-rule:nonzero"
   id="g5583"><text
   style="font-style:normal;font-weight:normal;font-size:612px;line-height:0%;font-family:Times, 'Nimbus Roman No9 L'"
   transform="matrix(0.028,0,0,-0.028,563.958,452.36)"
   id="text5585">BCS: 2455 μb</text>

</g><g
   transform="matrix(1,0,0,-1,0,612)"
   style="fill:#000000;fill-rule:nonzero"
   id="g5593"><text
   style="font-style:normal;font-weight:normal;font-size:612px;line-height:0%;font-family:Times, 'Nimbus Roman No9 L'"
   transform="matrix(0.028,0,0,-0.028,563.958,434.24)"
   id="text5595">NG:   2097 μb</text>

</g><text
   id="text4447"
   y="167.24699"
   x="211.49828"
   style="font-style:normal;font-weight:normal;line-height:0%;font-family:'Times New Roman';-inkscape-font-specification:'Times New Roman';letter-spacing:0px;word-spacing:0px;fill:#000000;fill-opacity:1;stroke:none"
   xml:space="preserve"><tspan
     style="font-size:31.04027176px;line-height:1.25"
     y="167.24699"
     x="211.49828"
     id="tspan4449"><tspan
   id="tspan4453"
   style="font-size:20.17646027px;baseline-shift:super">120</tspan>Sn(p,t) E<tspan
   id="tspan4451"
   style="font-size:20.17646027px;baseline-shift:sub">p</tspan>=21 MeV</tspan></text>

<text
   id="text4455"
   y="585.04364"
   x="344.6051"
   style="font-style:normal;font-weight:normal;line-height:0%;font-family:'Times New Roman';-inkscape-font-specification:'Times New Roman';letter-spacing:0px;word-spacing:0px;fill:#000000;fill-opacity:1;stroke:none"
   xml:space="preserve"><tspan
     style="font-size:31.04027176px;line-height:1.25"
     y="585.04364"
     x="344.6051"
     id="tspan4457">θ<tspan
   id="tspan6060"
   style="font-size:51.99999809%;baseline-shift:sub">c.m.</tspan>(deg)</tspan></text>

<text
   transform="rotate(-90)"
   id="text4461"
   y="39.11253"
   x="-396.13824"
   style="font-style:normal;font-weight:normal;line-height:0%;font-family:'Times New Roman';-inkscape-font-specification:'Times New Roman';letter-spacing:0px;word-spacing:0px;fill:#000000;fill-opacity:1;stroke:none"
   xml:space="preserve"><tspan
     style="font-size:31.04027176px;line-height:1.25"
     y="39.11253"
     x="-396.13824"
     id="tspan4463">dσ/dΩ (μb/sr)</tspan></text>

<g
   transform="matrix(0.62651014,0,0,0.62651014,-114.65249,202.52718)"
   id="g4481"><text
   xml:space="preserve"
   style="font-style:normal;font-weight:normal;line-height:0%;font-family:sans-serif;letter-spacing:0px;word-spacing:0px;fill:#000000;fill-opacity:1;stroke:none;stroke-width:1px;stroke-linecap:butt;stroke-linejoin:miter;stroke-opacity:1"
   x="478.76569"
   y="280.09494"
   id="text3623"><tspan
     style="font-size:32px;line-height:1.25"
     id="tspan3625"
     x="478.76569"
     y="280.09494">σ<tspan
   style="font-size:51.99999809%;baseline-shift:sub"
   id="tspan4479">exp</tspan>=2250  338 (  14) μb</tspan><tspan
     style="font-size:32px;line-height:1.25"
     x="478.76569"
     y="324.08493"
     id="tspan3627">[7.6&lt;θ&lt;69.7 ]</tspan></text>

<g
   id="g3659"
   transform="matrix(0.76083763,0,0,0.76083763,133.64234,64.765293)"><text
   id="text3641"
   y="275.87613"
   x="665.17377"
   style="font-style:normal;font-weight:normal;line-height:0%;font-family:sans-serif;letter-spacing:0px;word-spacing:0px;fill:#000000;fill-opacity:1;stroke:none;stroke-width:1px;stroke-linecap:butt;stroke-linejoin:miter;stroke-opacity:1"
   xml:space="preserve"><tspan
     style="font-size:32px;line-height:1.25"
     y="275.87613"
     x="665.17377"
     id="tspan3643">+</tspan></text>

<text
   id="text3645"
   y="276.21466"
   x="667.94299"
   style="font-style:normal;font-weight:normal;line-height:0%;font-family:sans-serif;letter-spacing:0px;word-spacing:0px;fill:#000000;fill-opacity:1;stroke:none;stroke-width:1px;stroke-linecap:butt;stroke-linejoin:miter;stroke-opacity:1"
   xml:space="preserve"><tspan
     style="font-size:32px;line-height:1.25"
     y="276.21466"
     x="667.94299"
     id="tspan3647">_</tspan></text>

</g><g
   transform="matrix(0.76083763,0,0,0.76083763,237.64234,64.765293)"
   id="g3665"><text
   xml:space="preserve"
   style="font-style:normal;font-weight:normal;line-height:0%;font-family:sans-serif;letter-spacing:0px;word-spacing:0px;fill:#000000;fill-opacity:1;stroke:none;stroke-width:1px;stroke-linecap:butt;stroke-linejoin:miter;stroke-opacity:1"
   x="665.17377"
   y="275.87613"
   id="text3667"><tspan
     style="font-size:32px;line-height:1.25"
     id="tspan3669"
     x="665.17377"
     y="275.87613">+ </tspan></text>

<text
   xml:space="preserve"
   style="font-style:normal;font-weight:normal;line-height:0%;font-family:sans-serif;letter-spacing:0px;word-spacing:0px;fill:#000000;fill-opacity:1;stroke:none;stroke-width:1px;stroke-linecap:butt;stroke-linejoin:miter;stroke-opacity:1"
   x="667.94299"
   y="276.21466"
   id="text3671"><tspan
     style="font-size:32px;line-height:1.25"
     id="tspan3673"
     x="667.94299"
     y="276.21466">_</tspan></text>

</g><circle
   style="fill:none;fill-rule:evenodd;stroke:#000000;stroke-width:2.4000001;stroke-linecap:butt;stroke-linejoin:miter;stroke-miterlimit:4;stroke-dasharray:none;stroke-opacity:1"
   id="path3675"
   cx="551.21692"
   cy="295.76007"
   r="3.9162838" /><circle
   r="3.9162838"
   cy="295.76007"
   cx="695.21472"
   id="circle4477"
   style="fill:none;fill-rule:evenodd;stroke:#000000;stroke-width:2.4000001;stroke-linecap:butt;stroke-linejoin:miter;stroke-miterlimit:4;stroke-dasharray:none;stroke-opacity:1" /></g></svg>