<?xml version="1.0" encoding="UTF-8" standalone="no"?>
<!-- generated by Grace-5.1.22 -->

<svg
   xmlns:dc="http://purl.org/dc/elements/1.1/"
   xmlns:cc="http://creativecommons.org/ns#"
   xmlns:rdf="http://www.w3.org/1999/02/22-rdf-syntax-ns#"
   xmlns:svg="http://www.w3.org/2000/svg"
   xmlns="http://www.w3.org/2000/svg"
   xmlns:sodipodi="http://sodipodi.sourceforge.net/DTD/sodipodi-0.dtd"
   xmlns:inkscape="http://www.inkscape.org/namespaces/inkscape"
   xml:space="preserve"
   width="11.0000in"
   height="8.5000in"
   viewBox="0.0000 0.0000 792.0000 612.0000"
   id="svg5017"
   version="1.1"
   inkscape:version="0.91 r13725"
   sodipodi:docname="Fig2.svg"><metadata
     id="metadata5607"><rdf:RDF><cc:Work
         rdf:about=""><dc:format>image/svg+xml</dc:format><dc:type
           rdf:resource="http://purl.org/dc/dcmitype/StillImage" /><dc:title></dc:title></cc:Work></rdf:RDF></metadata><defs
     id="defs5605" /><sodipodi:namedview
     pagecolor="#ffffff"
     bordercolor="#666666"
     borderopacity="1"
     objecttolerance="10"
     gridtolerance="10"
     guidetolerance="10"
     inkscape:pageopacity="0"
     inkscape:pageshadow="2"
     inkscape:window-width="1327"
     inkscape:window-height="744"
     id="namedview5603"
     showgrid="false"
     showborder="false"
     inkscape:zoom="1.233987"
     inkscape:cx="478.34334"
     inkscape:cy="370.23467"
     inkscape:window-x="39"
     inkscape:window-y="24"
     inkscape:window-maximized="1"
     inkscape:current-layer="svg5017" /><g
     id="g5021"
     style="fill:#ffffff;fill-rule:nonzero"
     transform="matrix(1,0,0,-1,0,612)"><g
       id="g5023"
       transform="translate(396,306)"><path
         inkscape:connector-curvature="0"
         id="path5025"
         d="m -396,-306 0,612 792,0 0,-612 z" /></g></g><g
     id="g5027"
     style="fill:#000000;fill-rule:nonzero"
     transform="matrix(1,0,0,-1,0,612)"><g
       id="g5029"
       transform="translate(179.7531,435.5269)"><circle
         r="4.8959999"
         id="ellipse5031"
         cy="0"
         cx="0" /></g></g><g
     id="g5033"
     style="fill:none;stroke:#000000;stroke-width:0.91799998;stroke-linecap:butt;stroke-linejoin:miter;stroke-dasharray:none"
     transform="matrix(1,0,0,-1,0,612)"><g
       id="g5035"
       transform="translate(179.7531,435.5269)"><circle
         r="4.8959999"
         id="ellipse5037"
         cy="0"
         cx="0" /></g></g><g
     id="g5039"
     style="fill:#000000;fill-rule:nonzero"
     transform="matrix(1,0,0,-1,0,612)"><g
       id="g5041"
       transform="translate(224.2543,322.0904)"><circle
         r="4.8959999"
         id="ellipse5043"
         cy="0"
         cx="0" /></g></g><g
     id="g5045"
     style="fill:none;stroke:#000000;stroke-width:0.91799998;stroke-linecap:butt;stroke-linejoin:miter;stroke-dasharray:none"
     transform="matrix(1,0,0,-1,0,612)"><g
       id="g5047"
       transform="translate(224.2543,322.0904)"><circle
         r="4.8959999"
         id="ellipse5049"
         cy="0"
         cx="0" /></g></g><g
     id="g5051"
     style="fill:#000000;fill-rule:nonzero"
     transform="matrix(1,0,0,-1,0,612)"><g
       id="g5053"
       transform="translate(269.9794,319.5423)"><circle
         r="4.8959999"
         id="ellipse5055"
         cy="0"
         cx="0" /></g></g><g
     id="g5057"
     style="fill:none;stroke:#000000;stroke-width:0.91799998;stroke-linecap:butt;stroke-linejoin:miter;stroke-dasharray:none"
     transform="matrix(1,0,0,-1,0,612)"><g
       id="g5059"
       transform="translate(269.9794,319.5423)"><circle
         r="4.8959999"
         id="ellipse5061"
         cy="0"
         cx="0" /></g></g><g
     id="g5063"
     style="fill:#000000;fill-rule:nonzero"
     transform="matrix(1,0,0,-1,0,612)"><g
       id="g5065"
       transform="translate(313.344,385.5804)"><circle
         r="4.8959999"
         id="ellipse5067"
         cy="0"
         cx="0" /></g></g><g
     id="g5069"
     style="fill:none;stroke:#000000;stroke-width:0.91799998;stroke-linecap:butt;stroke-linejoin:miter;stroke-dasharray:none"
     transform="matrix(1,0,0,-1,0,612)"><g
       id="g5071"
       transform="translate(313.344,385.5804)"><circle
         r="4.8959999"
         id="ellipse5073"
         cy="0"
         cx="0" /></g></g><g
     id="g5075"
     style="fill:#000000;fill-rule:nonzero"
     transform="matrix(1,0,0,-1,0,612)"><g
       id="g5077"
       transform="translate(359.0691,394.8992)"><circle
         r="4.8959999"
         id="ellipse5079"
         cy="0"
         cx="0" /></g></g><g
     id="g5081"
     style="fill:none;stroke:#000000;stroke-width:0.91799998;stroke-linecap:butt;stroke-linejoin:miter;stroke-dasharray:none"
     transform="matrix(1,0,0,-1,0,612)"><g
       id="g5083"
       transform="translate(359.0691,394.8992)"><circle
         r="4.8959999"
         id="ellipse5085"
         cy="0"
         cx="0" /></g></g><g
     id="g5087"
     style="fill:#000000;fill-rule:nonzero"
     transform="matrix(1,0,0,-1,0,612)"><g
       id="g5089"
       transform="translate(401.2971,378.8102)"><circle
         r="4.8959999"
         id="ellipse5091"
         cy="0"
         cx="0" /></g></g><g
     id="g5093"
     style="fill:none;stroke:#000000;stroke-width:0.91799998;stroke-linecap:butt;stroke-linejoin:miter;stroke-dasharray:none"
     transform="matrix(1,0,0,-1,0,612)"><g
       id="g5095"
       transform="translate(401.2971,378.8102)"><circle
         r="4.8959999"
         id="ellipse5097"
         cy="0"
         cx="0" /></g></g><g
     id="g5099"
     style="fill:#000000;fill-rule:nonzero"
     transform="matrix(1,0,0,-1,0,612)"><g
       id="g5101"
       transform="translate(448.2463,344.0968)"><circle
         r="4.8959999"
         id="ellipse5103"
         cy="0"
         cx="0" /></g></g><g
     id="g5105"
     style="fill:none;stroke:#000000;stroke-width:0.91799998;stroke-linecap:butt;stroke-linejoin:miter;stroke-dasharray:none"
     transform="matrix(1,0,0,-1,0,612)"><g
       id="g5107"
       transform="translate(448.2463,344.0968)"><circle
         r="4.8959999"
         id="ellipse5109"
         cy="0"
         cx="0" /></g></g><g
     id="g5111"
     style="fill:#000000;fill-rule:nonzero"
     transform="matrix(1,0,0,-1,0,612)"><g
       id="g5113"
       transform="translate(491.6109,274.6666)"><circle
         r="4.8959999"
         id="ellipse5115"
         cy="0"
         cx="0" /></g></g><g
     id="g5117"
     style="fill:none;stroke:#000000;stroke-width:0.91799998;stroke-linecap:butt;stroke-linejoin:miter;stroke-dasharray:none"
     transform="matrix(1,0,0,-1,0,612)"><g
       id="g5119"
       transform="translate(491.6109,274.6666)"><circle
         r="4.8959999"
         id="ellipse5121"
         cy="0"
         cx="0" /></g></g><g
     id="g5123"
     style="fill:#000000;fill-rule:nonzero"
     transform="matrix(1,0,0,-1,0,612)"><g
       id="g5125"
       transform="translate(537.336,233.1887)"><circle
         r="4.8959999"
         id="ellipse5127"
         cy="0"
         cx="0" /></g></g><g
     id="g5129"
     style="fill:none;stroke:#000000;stroke-width:0.91799998;stroke-linecap:butt;stroke-linejoin:miter;stroke-dasharray:none"
     transform="matrix(1,0,0,-1,0,612)"><g
       id="g5131"
       transform="translate(537.336,233.1887)"><circle
         r="4.8959999"
         id="ellipse5133"
         cy="0"
         cx="0" /></g></g><g
     id="g5135"
     style="fill:#000000;fill-rule:nonzero"
     transform="matrix(1,0,0,-1,0,612)"><g
       id="g5137"
       transform="translate(601.7709,311.0762)"><circle
         r="4.8959999"
         id="ellipse5139"
         cy="0"
         cx="0" /></g></g><g
     id="g5141"
     style="fill:none;stroke:#000000;stroke-width:0.91799998;stroke-linecap:butt;stroke-linejoin:miter;stroke-dasharray:none"
     transform="matrix(1,0,0,-1,0,612)"><g
       id="g5143"
       transform="translate(601.7709,311.0762)"><circle
         r="4.8959999"
         id="ellipse5145"
         cy="0"
         cx="0" /></g></g><g
     id="g5147"
     style="fill:#000000;fill-rule:nonzero"
     transform="matrix(1,0,0,-1,0,612)"><g
       id="g5149"
       transform="translate(668.6537,321.2373)"><circle
         r="4.8959999"
         id="ellipse5151"
         cy="0"
         cx="0" /></g></g><g
     id="g5153"
     style="fill:none;stroke:#000000;stroke-width:0.91799998;stroke-linecap:butt;stroke-linejoin:miter;stroke-dasharray:none"
     transform="matrix(1,0,0,-1,0,612)"><g
       id="g5155"
       transform="translate(668.6537,321.2373)"><circle
         r="4.8959999"
         id="ellipse5157"
         cy="0"
         cx="0" /></g></g><g
     id="g5159"
     style="fill:none;stroke:#000000;stroke-width:1.83599997;stroke-linecap:butt;stroke-linejoin:miter;stroke-dasharray:9, 6"
     transform="matrix(1,0,0,-1,0,612)"><g
       id="g5161"
       transform="translate(402.5869,336.5433)"><path
         inkscape:connector-curvature="0"
         id="path5163"
         d="m -302.9184,145.4044 7.8686,-1.3437 7.8686,-2.2524 7.8685,-3.1812 7.8686,-4.1383 7.8686,-5.1341 7.8686,-6.179 7.8685,-7.2858 7.8686,-8.4676 7.8686,-9.7395 7.8685,-11.1157 7.8686,-12.6052 7.8686,-14.2034 7.8686,-15.8659 7.8685,-17.4561 7.8686,-18.6282 7.8686,-18.6302 7.8685,-16.1563 7.8686,-9.9573 7.8686,-0.8672 7.8686,7.492 7.8685,12.2829 7.8686,13.6891 7.8686,13.1449 7.8685,11.7639 7.8686,10.1241 7.8686,8.4771 7.8686,6.9166 7.8685,5.4678 7.8686,4.1276 7.8686,2.8851 7.8685,1.7232 7.8686,0.6265 7.8686,-0.4192 7.8686,-1.4268 7.8685,-2.4097 7.8686,-3.3795 7.8686,-4.348 7.8685,-5.3264 7.8686,-6.3291 7.8686,-7.3683 7.8686,-8.4601 7.8685,-9.6222 7.8686,-10.8745 7.8686,-12.2388 7.8685,-13.7364 7.8686,-15.3808 7.8686,-17.1585 7.8686,-18.979 7.8685,-20.5548 7.8686,-21.1421 7.8686,-19.183 7.8685,-12.6454 7.8686,-1.7768 7.8686,8.6721 7.8686,14.4647 7.8685,15.9324 7.8686,15.1395 7.8686,13.5132 7.8685,11.7078 7.8686,9.9707 7.8686,8.3758 7.8686,6.9317 7.8685,5.6224 7.8686,4.4272 7.8686,3.3247 7.8685,2.2958 7.8686,1.3237 7.8686,0.3943 7.8686,-0.5054 7.8685,-1.387 7.8686,-2.2608 7.8686,-3.1365 7.8685,-4.0234 7.8686,-4.9319 7.8686,-5.8709 7.8686,-6.8502 6.1812,-6.1884" /></g></g><g
     id="g5165"
     style="fill:none;stroke:#000000;stroke-width:1.83599997;stroke-linecap:butt;stroke-linejoin:miter;stroke-dasharray:2, 6"
     transform="matrix(1,0,0,-1,0,612)"><g
       id="g5167"
       transform="translate(402.5869,350.5797)"><path
         inkscape:connector-curvature="0"
         id="path5169"
         d="m -302.9184,145.6397 7.8686,-1.3486 7.8686,-2.2606 7.8685,-3.1924 7.8686,-4.1526 7.8686,-5.1512 7.8686,-6.1988 7.8685,-7.3074 7.8686,-8.4901 7.8686,-9.7615 7.8685,-11.1336 7.8686,-12.6141 7.8686,-14.194 7.8686,-15.8206 7.8685,-17.3456 7.8686,-18.4027 7.8686,-18.2232 7.8685,-15.5334 7.8686,-9.241 7.8686,-0.3657 7.8686,7.5902 7.8685,12.0869 7.8686,13.3845 7.8686,12.8387 7.8685,11.4927 7.8686,9.8931 7.8686,8.282 7.8686,6.7493 7.8685,5.3235 7.8686,4.0011 7.8686,2.7727 7.8685,1.622 7.8686,0.5347 7.8686,-0.5022 7.8686,-1.5034 7.8685,-2.4795 7.8686,-3.4435 7.8686,-4.4054 7.8685,-5.3787 7.8686,-6.3743 7.8686,-7.407 7.8686,-8.4909 7.8685,-9.6443 7.8686,-10.8863 7.8686,-12.2384 7.8685,-13.7212 7.8686,-15.3481 7.8686,-17.1059 7.8686,-18.9063 7.8685,-20.472 7.8686,-21.0873 7.8686,-19.2474 7.8685,-12.9534 7.8686,-2.3065 7.8686,8.1626 7.8686,14.1419 7.8685,15.7755 7.8686,15.0786 7.8686,13.4998 7.8685,11.7174 7.8686,9.9906 7.8686,8.4019 7.8686,6.9609 7.8685,5.6545 7.8686,4.4614 7.8686,3.3614 7.8685,2.3349 7.8686,1.3659 7.8686,0.4393 7.8686,-0.4573 7.8685,-1.3352 7.8686,-2.2051 7.8686,-3.0768 7.8685,-3.9597 7.8686,-4.8636 7.8686,-5.7977 7.8686,-6.7721 6.1812,-6.1232" /></g></g><g
     id="g5171"
     style="fill:none;stroke:#000000;stroke-width:1.83599997;stroke-linecap:butt;stroke-linejoin:miter;stroke-dasharray:none"
     transform="matrix(1,0,0,-1,0,612)"><g
       id="g5173"
       transform="translate(402.5869,340.9776)"><path
         inkscape:connector-curvature="0"
         id="path5175"
         d="m -302.9184,146.5289 7.8686,-1.3441 7.8686,-2.2528 7.8685,-3.1817 7.8686,-4.1392 7.8686,-5.1349 7.8686,-6.1804 7.8685,-7.2876 7.8686,-8.4703 7.8686,-9.7441 7.8685,-11.1235 7.8686,-12.6192 7.8686,-14.2286 7.8686,-15.9123 7.8685,-17.5409 7.8686,-18.7832 7.8686,-18.9003 7.8685,-16.575 7.8686,-10.4641 7.8686,-1.2679 7.8686,7.3421 7.8685,12.3324 7.8686,13.8192 7.8686,13.2834 7.8685,11.8838 7.8686,10.221 7.8686,8.5535 7.8686,6.9756 7.8685,5.5139 7.8686,4.1653 7.8686,2.9147 7.8685,1.7482 7.8686,0.6495 7.8686,-0.3978 7.8686,-1.4052 7.8685,-2.387 7.8686,-3.3536 7.8686,-4.3182 7.8685,-5.2908 7.8686,-6.2867 7.8686,-7.3164 7.8686,-8.3973 7.8685,-9.5456 7.8686,-10.781 7.8686,-12.1243 7.8685,-13.5963 7.8686,-15.2101 7.8686,-16.9529 7.8686,-18.7413 7.8685,-20.3076 7.8686,-20.9641 7.8686,-19.2586 7.8685,-13.2137 7.8686,-2.7776 7.8686,7.7327 7.8686,13.9127 7.8685,15.7142 7.8686,15.1076 7.8686,13.5681 7.8685,11.7991 7.8686,10.0751 7.8686,8.4835 7.8686,7.0377 7.8685,5.726 7.8686,4.5276 7.8686,3.4222 7.8685,2.391 7.8686,1.4176 7.8686,0.4866 7.8686,-0.4137 7.8685,-1.2955 7.8686,-2.1681 7.8686,-3.0428 7.8685,-3.9279 7.8686,-4.8337 7.8686,-5.7694 7.8686,-6.7442 6.1812,-6.102" /></g></g><g
     id="g5177"
     style="fill:none;stroke:#000000;stroke-width:0.91799998;stroke-linecap:butt;stroke-linejoin:miter;stroke-dasharray:none"
     transform="matrix(1,0,0,-1,0,612)"><g
       id="g5179"
       transform="translate(397.8,91.8)"><path
         inkscape:connector-curvature="0"
         id="path5181"
         d="M -306,0 306,0" /></g><g
       id="g5183"
       transform="translate(397.8,520.2)"><path
         inkscape:connector-curvature="0"
         id="path5185"
         d="M -306,0 306,0" /></g><g
       id="g5187"
       transform="translate(157.3714,94.86)"><path
         inkscape:connector-curvature="0"
         id="path5189"
         d="M 0,-3.06 0,3.06" /></g><g
       id="g5191"
       transform="translate(157.3714,517.14)"><path
         inkscape:connector-curvature="0"
         id="path5193"
         d="M 0,3.06 0,-3.06" /></g><g
       id="g5195"
       transform="translate(288.5143,94.86)"><path
         inkscape:connector-curvature="0"
         id="path5197"
         d="M 0,-3.06 0,3.06" /></g><g
       id="g5199"
       transform="translate(288.5143,517.14)"><path
         inkscape:connector-curvature="0"
         id="path5201"
         d="M 0,3.06 0,-3.06" /></g><g
       id="g5203"
       transform="translate(419.6571,94.86)"><path
         inkscape:connector-curvature="0"
         id="path5205"
         d="M 0,-3.06 0,3.06" /></g><g
       id="g5207"
       transform="translate(419.6571,517.14)"><path
         inkscape:connector-curvature="0"
         id="path5209"
         d="M 0,3.06 0,-3.06" /></g><g
       id="g5211"
       transform="translate(550.8,94.86)"><path
         inkscape:connector-curvature="0"
         id="path5213"
         d="M 0,-3.06 0,3.06" /></g><g
       id="g5215"
       transform="translate(550.8,517.14)"><path
         inkscape:connector-curvature="0"
         id="path5217"
         d="M 0,3.06 0,-3.06" /></g><g
       id="g5219"
       transform="translate(681.9429,94.86)"><path
         inkscape:connector-curvature="0"
         id="path5221"
         d="M 0,-3.06 0,3.06" /></g><g
       id="g5223"
       transform="translate(681.9429,517.14)"><path
         inkscape:connector-curvature="0"
         id="path5225"
         d="M 0,3.06 0,-3.06" /></g><g
       id="g5227"
       transform="translate(91.8,97.92)"><path
         inkscape:connector-curvature="0"
         id="path5229"
         d="M 0,-6.12 0,6.12" /></g><g
       id="g5231"
       transform="translate(91.8,514.08)"><path
         inkscape:connector-curvature="0"
         id="path5233"
         d="M 0,6.12 0,-6.12" /></g><g
       id="g5235"
       transform="translate(222.9429,97.92)"><path
         inkscape:connector-curvature="0"
         id="path5237"
         d="M 0,-6.12 0,6.12" /></g><g
       id="g5239"
       transform="translate(222.9429,514.08)"><path
         inkscape:connector-curvature="0"
         id="path5241"
         d="M 0,6.12 0,-6.12" /></g><g
       id="g5243"
       transform="translate(354.0857,97.92)"><path
         inkscape:connector-curvature="0"
         id="path5245"
         d="M 0,-6.12 0,6.12" /></g><g
       id="g5247"
       transform="translate(354.0857,514.08)"><path
         inkscape:connector-curvature="0"
         id="path5249"
         d="M 0,6.12 0,-6.12" /></g><g
       id="g5251"
       transform="translate(485.2286,97.92)"><path
         inkscape:connector-curvature="0"
         id="path5253"
         d="M 0,-6.12 0,6.12" /></g><g
       id="g5255"
       transform="translate(485.2286,514.08)"><path
         inkscape:connector-curvature="0"
         id="path5257"
         d="M 0,6.12 0,-6.12" /></g><g
       id="g5259"
       transform="translate(616.3714,97.92)"><path
         inkscape:connector-curvature="0"
         id="path5261"
         d="M 0,-6.12 0,6.12" /></g><g
       id="g5263"
       transform="translate(616.3714,514.08)"><path
         inkscape:connector-curvature="0"
         id="path5265"
         d="M 0,6.12 0,-6.12" /></g></g><g
     id="g5267"
     style="fill:#000000;fill-rule:nonzero"
     transform="matrix(1,0,0,-1,0,612)"><text
       id="text5269"
       transform="matrix(0.0476,0,0,-0.0476,84.8,65.68)"
       style="font-style:normal;font-weight:normal;font-size:612px;font-family:Times, 'Nimbus Roman No9 L'">0</text>
<text
       id="text5271"
       transform="matrix(0.0476,0,0,-0.0476,208.9429,65.68)"
       style="font-style:normal;font-weight:normal;font-size:612px;font-family:Times, 'Nimbus Roman No9 L'">15</text>
<text
       id="text5273"
       transform="matrix(0.0476,0,0,-0.0476,340.0857,65.68)"
       style="font-style:normal;font-weight:normal;font-size:612px;font-family:Times, 'Nimbus Roman No9 L'">30</text>
<text
       id="text5275"
       transform="matrix(0.0476,0,0,-0.0476,471.2286,65.68)"
       style="font-style:normal;font-weight:normal;font-size:612px;font-family:Times, 'Nimbus Roman No9 L'">45</text>
<text
       id="text5277"
       transform="matrix(0.0476,0,0,-0.0476,602.3714,65.68)"
       style="font-style:normal;font-weight:normal;font-size:612px;font-family:Times, 'Nimbus Roman No9 L'">60</text>
</g><g
     id="g5279"
     style="fill:none;stroke:#000000;stroke-width:0.91799998;stroke-linecap:butt;stroke-linejoin:miter;stroke-dasharray:none"
     transform="matrix(1,0,0,-1,0,612)"><g
       id="g5281"
       transform="translate(91.8,306)"><path
         inkscape:connector-curvature="0"
         id="path5283"
         d="M 0,-214.2 0,214.2" /></g><g
       id="g5285"
       transform="translate(703.8,306)"><path
         inkscape:connector-curvature="0"
         id="path5287"
         d="M 0,-214.2 0,214.2" /></g><g
       id="g5289"
       transform="translate(94.86,134.7871)"><path
         inkscape:connector-curvature="0"
         id="path5291"
         d="M -3.06,0 3.06,0" /></g><g
       id="g5293"
       transform="translate(700.74,134.7871)"><path
         inkscape:connector-curvature="0"
         id="path5295"
         d="M 3.06,0 -3.06,0" /></g><g
       id="g5297"
       transform="translate(94.86,159.9329)"><path
         inkscape:connector-curvature="0"
         id="path5299"
         d="M -3.06,0 3.06,0" /></g><g
       id="g5301"
       transform="translate(700.74,159.9329)"><path
         inkscape:connector-curvature="0"
         id="path5303"
         d="M 3.06,0 -3.06,0" /></g><g
       id="g5305"
       transform="translate(94.86,177.7742)"><path
         inkscape:connector-curvature="0"
         id="path5307"
         d="M -3.06,0 3.06,0" /></g><g
       id="g5309"
       transform="translate(700.74,177.7742)"><path
         inkscape:connector-curvature="0"
         id="path5311"
         d="M 3.06,0 -3.06,0" /></g><g
       id="g5313"
       transform="translate(94.86,191.6129)"><path
         inkscape:connector-curvature="0"
         id="path5315"
         d="M -3.06,0 3.06,0" /></g><g
       id="g5317"
       transform="translate(700.74,191.6129)"><path
         inkscape:connector-curvature="0"
         id="path5319"
         d="M 3.06,0 -3.06,0" /></g><g
       id="g5321"
       transform="translate(94.86,202.92)"><path
         inkscape:connector-curvature="0"
         id="path5323"
         d="M -3.06,0 3.06,0" /></g><g
       id="g5325"
       transform="translate(700.74,202.92)"><path
         inkscape:connector-curvature="0"
         id="path5327"
         d="M 3.06,0 -3.06,0" /></g><g
       id="g5329"
       transform="translate(94.86,212.48)"><path
         inkscape:connector-curvature="0"
         id="path5331"
         d="M -3.06,0 3.06,0" /></g><g
       id="g5333"
       transform="translate(700.74,212.48)"><path
         inkscape:connector-curvature="0"
         id="path5335"
         d="M 3.06,0 -3.06,0" /></g><g
       id="g5337"
       transform="translate(94.86,220.7613)"><path
         inkscape:connector-curvature="0"
         id="path5339"
         d="M -3.06,0 3.06,0" /></g><g
       id="g5341"
       transform="translate(700.74,220.7613)"><path
         inkscape:connector-curvature="0"
         id="path5343"
         d="M 3.06,0 -3.06,0" /></g><g
       id="g5345"
       transform="translate(94.86,228.0658)"><path
         inkscape:connector-curvature="0"
         id="path5347"
         d="M -3.06,0 3.06,0" /></g><g
       id="g5349"
       transform="translate(700.74,228.0658)"><path
         inkscape:connector-curvature="0"
         id="path5351"
         d="M 3.06,0 -3.06,0" /></g><g
       id="g5353"
       transform="translate(94.86,234.6)"><path
         inkscape:connector-curvature="0"
         id="path5355"
         d="M -3.06,0 3.06,0" /></g><g
       id="g5357"
       transform="translate(700.74,234.6)"><path
         inkscape:connector-curvature="0"
         id="path5359"
         d="M 3.06,0 -3.06,0" /></g><g
       id="g5361"
       transform="translate(94.86,277.5871)"><path
         inkscape:connector-curvature="0"
         id="path5363"
         d="M -3.06,0 3.06,0" /></g><g
       id="g5365"
       transform="translate(700.74,277.5871)"><path
         inkscape:connector-curvature="0"
         id="path5367"
         d="M 3.06,0 -3.06,0" /></g><g
       id="g5369"
       transform="translate(94.86,302.7329)"><path
         inkscape:connector-curvature="0"
         id="path5371"
         d="M -3.06,0 3.06,0" /></g><g
       id="g5373"
       transform="translate(700.74,302.7329)"><path
         inkscape:connector-curvature="0"
         id="path5375"
         d="M 3.06,0 -3.06,0" /></g><g
       id="g5377"
       transform="translate(94.86,320.5742)"><path
         inkscape:connector-curvature="0"
         id="path5379"
         d="M -3.06,0 3.06,0" /></g><g
       id="g5381"
       transform="translate(700.74,320.5742)"><path
         inkscape:connector-curvature="0"
         id="path5383"
         d="M 3.06,0 -3.06,0" /></g><g
       id="g5385"
       transform="translate(94.86,334.4129)"><path
         inkscape:connector-curvature="0"
         id="path5387"
         d="M -3.06,0 3.06,0" /></g><g
       id="g5389"
       transform="translate(700.74,334.4129)"><path
         inkscape:connector-curvature="0"
         id="path5391"
         d="M 3.06,0 -3.06,0" /></g><g
       id="g5393"
       transform="translate(94.86,345.72)"><path
         inkscape:connector-curvature="0"
         id="path5395"
         d="M -3.06,0 3.06,0" /></g><g
       id="g5397"
       transform="translate(700.74,345.72)"><path
         inkscape:connector-curvature="0"
         id="path5399"
         d="M 3.06,0 -3.06,0" /></g><g
       id="g5401"
       transform="translate(94.86,355.28)"><path
         inkscape:connector-curvature="0"
         id="path5403"
         d="M -3.06,0 3.06,0" /></g><g
       id="g5405"
       transform="translate(700.74,355.28)"><path
         inkscape:connector-curvature="0"
         id="path5407"
         d="M 3.06,0 -3.06,0" /></g><g
       id="g5409"
       transform="translate(94.86,363.5613)"><path
         inkscape:connector-curvature="0"
         id="path5411"
         d="M -3.06,0 3.06,0" /></g><g
       id="g5413"
       transform="translate(700.74,363.5613)"><path
         inkscape:connector-curvature="0"
         id="path5415"
         d="M 3.06,0 -3.06,0" /></g><g
       id="g5417"
       transform="translate(94.86,370.8658)"><path
         inkscape:connector-curvature="0"
         id="path5419"
         d="M -3.06,0 3.06,0" /></g><g
       id="g5421"
       transform="translate(700.74,370.8658)"><path
         inkscape:connector-curvature="0"
         id="path5423"
         d="M 3.06,0 -3.06,0" /></g><g
       id="g5425"
       transform="translate(94.86,377.4)"><path
         inkscape:connector-curvature="0"
         id="path5427"
         d="M -3.06,0 3.06,0" /></g><g
       id="g5429"
       transform="translate(700.74,377.4)"><path
         inkscape:connector-curvature="0"
         id="path5431"
         d="M 3.06,0 -3.06,0" /></g><g
       id="g5433"
       transform="translate(94.86,420.3871)"><path
         inkscape:connector-curvature="0"
         id="path5435"
         d="M -3.06,0 3.06,0" /></g><g
       id="g5437"
       transform="translate(700.74,420.3871)"><path
         inkscape:connector-curvature="0"
         id="path5439"
         d="M 3.06,0 -3.06,0" /></g><g
       id="g5441"
       transform="translate(94.86,445.5329)"><path
         inkscape:connector-curvature="0"
         id="path5443"
         d="M -3.06,0 3.06,0" /></g><g
       id="g5445"
       transform="translate(700.74,445.5329)"><path
         inkscape:connector-curvature="0"
         id="path5447"
         d="M 3.06,0 -3.06,0" /></g><g
       id="g5449"
       transform="translate(94.86,463.3742)"><path
         inkscape:connector-curvature="0"
         id="path5451"
         d="M -3.06,0 3.06,0" /></g><g
       id="g5453"
       transform="translate(700.74,463.3742)"><path
         inkscape:connector-curvature="0"
         id="path5455"
         d="M 3.06,0 -3.06,0" /></g><g
       id="g5457"
       transform="translate(94.86,477.2129)"><path
         inkscape:connector-curvature="0"
         id="path5459"
         d="M -3.06,0 3.06,0" /></g><g
       id="g5461"
       transform="translate(700.74,477.2129)"><path
         inkscape:connector-curvature="0"
         id="path5463"
         d="M 3.06,0 -3.06,0" /></g><g
       id="g5465"
       transform="translate(94.86,488.52)"><path
         inkscape:connector-curvature="0"
         id="path5467"
         d="M -3.06,0 3.06,0" /></g><g
       id="g5469"
       transform="translate(700.74,488.52)"><path
         inkscape:connector-curvature="0"
         id="path5471"
         d="M 3.06,0 -3.06,0" /></g><g
       id="g5473"
       transform="translate(94.86,498.08)"><path
         inkscape:connector-curvature="0"
         id="path5475"
         d="M -3.06,0 3.06,0" /></g><g
       id="g5477"
       transform="translate(700.74,498.08)"><path
         inkscape:connector-curvature="0"
         id="path5479"
         d="M 3.06,0 -3.06,0" /></g><g
       id="g5481"
       transform="translate(94.86,506.3613)"><path
         inkscape:connector-curvature="0"
         id="path5483"
         d="M -3.06,0 3.06,0" /></g><g
       id="g5485"
       transform="translate(700.74,506.3613)"><path
         inkscape:connector-curvature="0"
         id="path5487"
         d="M 3.06,0 -3.06,0" /></g><g
       id="g5489"
       transform="translate(94.86,513.6658)"><path
         inkscape:connector-curvature="0"
         id="path5491"
         d="M -3.06,0 3.06,0" /></g><g
       id="g5493"
       transform="translate(700.74,513.6658)"><path
         inkscape:connector-curvature="0"
         id="path5495"
         d="M 3.06,0 -3.06,0" /></g><g
       id="g5497"
       transform="translate(94.86,520.2)"><path
         inkscape:connector-curvature="0"
         id="path5499"
         d="M -3.06,0 3.06,0" /></g><g
       id="g5501"
       transform="translate(700.74,520.2)"><path
         inkscape:connector-curvature="0"
         id="path5503"
         d="M 3.06,0 -3.06,0" /></g><g
       id="g5505"
       transform="translate(97.92,91.8)"><path
         inkscape:connector-curvature="0"
         id="path5507"
         d="M -6.12,0 6.12,0" /></g><g
       id="g5509"
       transform="translate(697.68,91.8)"><path
         inkscape:connector-curvature="0"
         id="path5511"
         d="M 6.12,0 -6.12,0" /></g><g
       id="g5513"
       transform="translate(97.92,234.6)"><path
         inkscape:connector-curvature="0"
         id="path5515"
         d="M -6.12,0 6.12,0" /></g><g
       id="g5517"
       transform="translate(697.68,234.6)"><path
         inkscape:connector-curvature="0"
         id="path5519"
         d="M 6.12,0 -6.12,0" /></g><g
       id="g5521"
       transform="translate(97.92,377.4)"><path
         inkscape:connector-curvature="0"
         id="path5523"
         d="M -6.12,0 6.12,0" /></g><g
       id="g5525"
       transform="translate(697.68,377.4)"><path
         inkscape:connector-curvature="0"
         id="path5527"
         d="M 6.12,0 -6.12,0" /></g><g
       id="g5529"
       transform="translate(97.92,520.2)"><path
         inkscape:connector-curvature="0"
         id="path5531"
         d="M -6.12,0 6.12,0" /></g><g
       id="g5533"
       transform="translate(697.68,520.2)"><path
         inkscape:connector-curvature="0"
         id="path5535"
         d="M 6.12,0 -6.12,0" /></g></g><g
     id="g5537"
     style="fill:#000000;fill-rule:nonzero"
     transform="matrix(1,0,0,-1,0,612)"><text
       id="text5539"
       transform="matrix(0.0454,0,0,-0.0454,49.68,77.4719)"
       style="font-style:normal;font-weight:normal;font-size:612px;font-family:Times, 'Nimbus Roman No9 L'">10</text>
<text
       id="text5541"
       transform="matrix(0.0321,0,0,-0.0321,77.68,94.1281)"
       style="font-style:normal;font-weight:normal;font-size:612px;font-family:Times, 'Nimbus Roman No9 L'">1</text>
<text
       id="text5543"
       transform="matrix(0.0454,0,0,-0.0454,47.68,220.2719)"
       style="font-style:normal;font-weight:normal;font-size:612px;font-family:Times, 'Nimbus Roman No9 L'">10</text>
<text
       id="text5545"
       transform="matrix(0.0321,0,0,-0.0321,75.68,236.9281)"
       style="font-style:normal;font-weight:normal;font-size:612px;font-family:Times, 'Nimbus Roman No9 L'">2</text>
<text
       id="text5547"
       transform="matrix(0.0454,0,0,-0.0454,48.68,363.0719)"
       style="font-style:normal;font-weight:normal;font-size:612px;font-family:Times, 'Nimbus Roman No9 L'">10</text>
<text
       id="text5549"
       transform="matrix(0.0321,0,0,-0.0321,76.68,379.7281)"
       style="font-style:normal;font-weight:normal;font-size:612px;font-family:Times, 'Nimbus Roman No9 L'">3</text>
<text
       id="text5551"
       transform="matrix(0.0454,0,0,-0.0454,47.68,505.8719)"
       style="font-style:normal;font-weight:normal;font-size:612px;font-family:Times, 'Nimbus Roman No9 L'">10</text>
<text
       id="text5553"
       transform="matrix(0.0321,0,0,-0.0321,75.68,522.5281)"
       style="font-style:normal;font-weight:normal;font-size:612px;font-family:Times, 'Nimbus Roman No9 L'">4</text>
</g><g
     id="g5555"
     style="fill:none;stroke:#000000;stroke-width:0.91799998;stroke-linecap:butt;stroke-linejoin:miter;stroke-dasharray:none"
     transform="matrix(1,0,0,-1,0,612)"><g
       id="g5557"
       transform="translate(397.8,306)"><path
         inkscape:connector-curvature="0"
         id="path5559"
         d="m -306,-214.2 0,428.4 612,0 0,-428.4 z" /></g></g><g
     id="g5561"
     style="fill:#ffffff;fill-rule:nonzero"
     transform="matrix(1,0,0,-1,0,612)"><g
       id="g5563"
       transform="translate(583.139,458.36)"><path
         inkscape:connector-curvature="0"
         id="path5565"
         d="m -62.939,31.24 0,-62.48 125.878,0 0,62.48 z" /></g></g><g
     id="g5567"
     style="fill:none;stroke:#000000;stroke-width:0.91799998;stroke-linecap:butt;stroke-linejoin:miter;stroke-dasharray:none"
     transform="matrix(1.2434564,0,0,-1.085818,-126.57168,654.09083)"><g
       id="g5569"
       transform="translate(583.139,458.36)"><path
         inkscape:connector-curvature="0"
         id="path5571"
         d="m -62.939,31.24 0,-62.48 125.878,0 0,62.48 z" /></g></g><g
     id="g5573"
     style="fill:#000000;fill-rule:nonzero"
     transform="matrix(1,0,0,-1,0,612)"><text
       id="text5575"
       transform="matrix(0.028,0,0,-0.028,563.958,471.48)"
       style="font-style:normal;font-weight:normal;font-size:612px;font-family:Times, 'Nimbus Roman No9 L'">HFB: 1955 μb</text>
</g><g
     id="g5577"
     style="fill:none;stroke:#000000;stroke-width:1.83599997;stroke-linecap:butt;stroke-linejoin:miter;stroke-dasharray:9, 6"
     transform="matrix(1,0,0,-1,0,612)"><g
       id="g5579"
       transform="translate(539.478,476.98)"><path
         inkscape:connector-curvature="0"
         id="path5581"
         d="M -12.24,0 12.24,0" /></g></g><g
     id="g5583"
     style="fill:#000000;fill-rule:nonzero"
     transform="matrix(1,0,0,-1,0,612)"><text
       id="text5585"
       transform="matrix(0.028,0,0,-0.028,563.958,452.36)"
       style="font-style:normal;font-weight:normal;font-size:612px;font-family:Times, 'Nimbus Roman No9 L'">BCS: 2455 μb</text>
</g><g
     id="g5587"
     style="fill:none;stroke:#000000;stroke-width:1.83599997;stroke-linecap:butt;stroke-linejoin:miter;stroke-dasharray:2, 6"
     transform="matrix(1,0,0,-1,0,612)"><g
       id="g5589"
       transform="translate(539.478,458.36)"><path
         inkscape:connector-curvature="0"
         id="path5591"
         d="M -12.24,0 12.24,0" /></g></g><g
     id="g5593"
     style="fill:#000000;fill-rule:nonzero"
     transform="matrix(1,0,0,-1,0,612)"><text
       id="text5595"
       transform="matrix(0.028,0,0,-0.028,563.958,434.24)"
       style="font-style:normal;font-weight:normal;font-size:612px;font-family:Times, 'Nimbus Roman No9 L'">NG:   2097 μb</text>
</g><g
     id="g5597"
     style="fill:none;stroke:#000000;stroke-width:1.83599997;stroke-linecap:butt;stroke-linejoin:miter;stroke-dasharray:none"
     transform="matrix(1,0,0,-1,0,612)"><g
       id="g5599"
       transform="translate(539.478,439.74)"><path
         inkscape:connector-curvature="0"
         id="path5601"
         d="M -12.24,0 12.24,0" /></g></g><text
     xml:space="preserve"
     style="font-style:normal;font-weight:normal;font-size:31.04027176px;line-height:125%;font-family:'Times New Roman';-inkscape-font-specification:'Times New Roman';letter-spacing:0px;word-spacing:0px;fill:#000000;fill-opacity:1;stroke:none"
     x="211.49828"
     y="167.24699"
     id="text4447"
     sodipodi:linespacing="125%"><tspan
       sodipodi:role="line"
       id="tspan4449"
       x="211.49828"
       y="167.24699"><tspan
   style="font-size:20.17646027px;baseline-shift:super"
   id="tspan4453">120</tspan>Sn(p,t) E<tspan
   style="font-size:20.17646027px;baseline-shift:sub"
   id="tspan4451">p</tspan>=21 MeV</tspan></text>
<text
     xml:space="preserve"
     style="font-style:normal;font-weight:normal;font-size:31.04027176px;line-height:125%;font-family:'Times New Roman';-inkscape-font-specification:'Times New Roman';letter-spacing:0px;word-spacing:0px;fill:#000000;fill-opacity:1;stroke:none"
     x="344.6051"
     y="585.04364"
     id="text4455"
     sodipodi:linespacing="125%"><tspan
       sodipodi:role="line"
       id="tspan4457"
       x="344.6051"
       y="585.04364">θ<tspan
   style="font-size:52%;baseline-shift:sub"
   id="tspan6060">c.m.</tspan>(deg)</tspan></text>
<text
     xml:space="preserve"
     style="font-style:normal;font-weight:normal;font-size:31.04027176px;line-height:125%;font-family:'Times New Roman';-inkscape-font-specification:'Times New Roman';letter-spacing:0px;word-spacing:0px;fill:#000000;fill-opacity:1;stroke:none"
     x="-396.13824"
     y="39.11253"
     id="text4461"
     sodipodi:linespacing="125%"
     transform="matrix(0,-1,1,0,0,0)"><tspan
       sodipodi:role="line"
       id="tspan4463"
       x="-396.13824"
       y="39.11253">dσ/dΩ (μb/sr)</tspan></text>
<g
     id="g4481"
     transform="matrix(0.62651014,0,0,0.62651014,-114.65249,202.52718)"><text
       sodipodi:linespacing="125%"
       id="text3623"
       y="280.09494"
       x="478.76569"
       style="font-style:normal;font-weight:normal;font-size:32px;line-height:125%;font-family:sans-serif;letter-spacing:0px;word-spacing:0px;fill:#000000;fill-opacity:1;stroke:none;stroke-width:1px;stroke-linecap:butt;stroke-linejoin:miter;stroke-opacity:1"
       xml:space="preserve"><tspan
         y="280.09494"
         x="478.76569"
         id="tspan3625"
         sodipodi:role="line">σ<tspan
   id="tspan4479"
   style="font-size:51.99999809%;baseline-shift:sub">exp</tspan>=2250  338 (  14) μb</tspan><tspan
         id="tspan3627"
         y="320.09494"
         x="478.76569"
         sodipodi:role="line">[7.6&lt;θ&lt;69.7 ]</tspan></text>
<g
       transform="matrix(0.76083763,0,0,0.76083763,133.64234,64.765293)"
       id="g3659"><text
         xml:space="preserve"
         style="font-style:normal;font-weight:normal;font-size:32px;line-height:125%;font-family:sans-serif;letter-spacing:0px;word-spacing:0px;fill:#000000;fill-opacity:1;stroke:none;stroke-width:1px;stroke-linecap:butt;stroke-linejoin:miter;stroke-opacity:1"
         x="665.17377"
         y="275.87613"
         id="text3641"
         sodipodi:linespacing="125%"><tspan
           sodipodi:role="line"
           id="tspan3643"
           x="665.17377"
           y="275.87613">+</tspan></text>
<text
         xml:space="preserve"
         style="font-style:normal;font-weight:normal;font-size:32px;line-height:125%;font-family:sans-serif;letter-spacing:0px;word-spacing:0px;fill:#000000;fill-opacity:1;stroke:none;stroke-width:1px;stroke-linecap:butt;stroke-linejoin:miter;stroke-opacity:1"
         x="667.94299"
         y="276.21466"
         id="text3645"
         sodipodi:linespacing="125%"><tspan
           sodipodi:role="line"
           id="tspan3647"
           x="667.94299"
           y="276.21466">_</tspan></text>
</g><g
       id="g3665"
       transform="matrix(0.76083763,0,0,0.76083763,237.64234,64.765293)"><text
         sodipodi:linespacing="125%"
         id="text3667"
         y="275.87613"
         x="665.17377"
         style="font-style:normal;font-weight:normal;font-size:32px;line-height:125%;font-family:sans-serif;letter-spacing:0px;word-spacing:0px;fill:#000000;fill-opacity:1;stroke:none;stroke-width:1px;stroke-linecap:butt;stroke-linejoin:miter;stroke-opacity:1"
         xml:space="preserve"><tspan
           y="275.87613"
           x="665.17377"
           id="tspan3669"
           sodipodi:role="line">+ </tspan></text>
<text
         sodipodi:linespacing="125%"
         id="text3671"
         y="276.21466"
         x="667.94299"
         style="font-style:normal;font-weight:normal;font-size:32px;line-height:125%;font-family:sans-serif;letter-spacing:0px;word-spacing:0px;fill:#000000;fill-opacity:1;stroke:none;stroke-width:1px;stroke-linecap:butt;stroke-linejoin:miter;stroke-opacity:1"
         xml:space="preserve"><tspan
           y="276.21466"
           x="667.94299"
           id="tspan3673"
           sodipodi:role="line">_</tspan></text>
</g><circle
       r="3.9162838"
       cy="295.76007"
       cx="551.21692"
       id="path3675"
       style="fill:none;fill-rule:evenodd;stroke:#000000;stroke-width:2.4000001;stroke-linecap:butt;stroke-linejoin:miter;stroke-miterlimit:4;stroke-dasharray:none;stroke-opacity:1" /><circle
       style="fill:none;fill-rule:evenodd;stroke:#000000;stroke-width:2.4000001;stroke-linecap:butt;stroke-linejoin:miter;stroke-miterlimit:4;stroke-dasharray:none;stroke-opacity:1"
       id="circle4477"
       cx="695.21472"
       cy="295.76007"
       r="3.9162838" /></g></svg>