<?xml version="1.0" encoding="UTF-8" standalone="no"?>
<svg
   xmlns:dc="http://purl.org/dc/elements/1.1/"
   xmlns:cc="http://creativecommons.org/ns#"
   xmlns:rdf="http://www.w3.org/1999/02/22-rdf-syntax-ns#"
   xmlns:svg="http://www.w3.org/2000/svg"
   xmlns="http://www.w3.org/2000/svg"
   version="1.1"
   id="svg4336"
   viewBox="0 0 732.69299 429.318"
   height="5.96275in"
   width="10.176291in"
   xml:space="preserve"><metadata
     id="metadata4496"><rdf:RDF><cc:Work
         rdf:about=""><dc:format>image/svg+xml</dc:format><dc:type
           rdf:resource="http://purl.org/dc/dcmitype/StillImage" /><dc:title></dc:title></cc:Work></rdf:RDF></metadata><defs
     id="defs4494" /><g
     transform="matrix(1,0,0,-1,28.433972,520.659)"
     style="fill:none;stroke:#000000;stroke-width:0.91799998;stroke-linecap:butt;stroke-linejoin:miter;stroke-dasharray:none"
     id="g4346"><path
       d="m 214.2,327.42 0,144.7992"
       id="path4348" /><path
       d="m 208.08,472.2192 12.24,0"
       id="path4350" /><path
       d="m 214.2,327.42 0,-144.7992"
       id="path4352" /><path
       d="m 220.32,182.6208 -12.24,0"
       id="path4354" /></g><g
     transform="matrix(1.8237232,0,0,-1.8237232,-148.00756,790.36248)"
     style="fill:#000000;fill-rule:nonzero"
     id="g4356"><circle
       cx="214.2"
       cy="327.42001"
       id="ellipse4358"
       r="6.1199999" /></g><path
     id="path4364"
     d="m 365.03396,258.7842 0,-128.52"
     style="fill:none;stroke:#000000;stroke-width:0.91799998;stroke-linecap:butt;stroke-linejoin:miter;stroke-dasharray:none" /><path
     id="path4366"
     d="m 358.91396,130.2642 12.24,0"
     style="fill:none;stroke:#000000;stroke-width:0.91799998;stroke-linecap:butt;stroke-linejoin:miter;stroke-dasharray:none" /><path
     id="path4368"
     d="m 365.03396,258.7842 0,128.52"
     style="fill:none;stroke:#000000;stroke-width:0.91799998;stroke-linecap:butt;stroke-linejoin:miter;stroke-dasharray:none" /><path
     id="path4370"
     d="m 371.15396,387.3042 -12.24,0"
     style="fill:none;stroke:#000000;stroke-width:0.91799998;stroke-linecap:butt;stroke-linejoin:miter;stroke-dasharray:none" /><circle
     transform="scale(1,-1)"
     r="11.058305"
     id="ellipse4374"
     cy="-258.78421"
     cx="365.03397"
     style="fill:none;stroke:#000000;stroke-width:4.9762373;stroke-linecap:butt;stroke-linejoin:miter;stroke-dasharray:none" /><path
     id="path4376"
     d="m 487.43396,95.10935 -10.4209,18.0496 20.8418,0 z"
     style="fill:none;stroke:#000000;stroke-width:4.68940401;stroke-linecap:butt;stroke-linejoin:miter;stroke-dasharray:none" /><path
     id="path4378"
     d="m 601.44311,328.00785 0,-16.7817 16.7817,0 0,16.7817 z"
     style="fill:none;stroke:#000000;stroke-width:4.44221115;stroke-linecap:butt;stroke-linejoin:miter;stroke-dasharray:none" /><g
     transform="matrix(1,0,0,-1,28.433972,520.659)"
     style="fill:none;stroke:#000000;stroke-width:0.91799998;stroke-linecap:butt;stroke-linejoin:miter;stroke-dasharray:none"
     id="g4380"><path
       d="m 91.8,91.8 0,428.4"
       id="path4382" /><path
       d="m 703.8,91.8 0,428.4"
       id="path4384" /><path
       d="m 91.8,91.8 6.12,0"
       id="path4386" /><path
       d="m 703.8,91.8 -6.12,0"
       id="path4388" /><path
       d="m 91.8,177.48 6.12,0"
       id="path4390" /><path
       d="m 703.8,177.48 -6.12,0"
       id="path4392" /><path
       d="m 91.8,263.16 6.12,0"
       id="path4394" /><path
       d="m 703.8,263.16 -6.12,0"
       id="path4396" /><path
       d="m 91.8,348.84 6.12,0"
       id="path4398" /><path
       d="m 703.8,348.84 -6.12,0"
       id="path4400" /><path
       d="m 91.8,434.52 6.12,0"
       id="path4402" /><path
       d="m 703.8,434.52 -6.12,0"
       id="path4404" /><path
       d="m 91.8,520.2 6.12,0"
       id="path4406" /><path
       d="m 703.8,520.2 -6.12,0"
       id="path4408" /><path
       d="m 91.8,134.64 12.24,0"
       id="path4410" /><path
       d="m 703.8,134.64 -12.24,0"
       id="path4412" /><path
       d="m 91.8,220.32 12.24,0"
       id="path4414" /><path
       d="m 703.8,220.32 -12.24,0"
       id="path4416" /><path
       d="m 91.8,306 12.24,0"
       id="path4418" /><path
       d="m 703.8,306 -12.24,0"
       id="path4420" /><path
       d="m 91.8,391.68 12.24,0"
       id="path4422" /><path
       d="m 703.8,391.68 -12.24,0"
       id="path4424" /><path
       d="m 91.8,477.36 12.24,0"
       id="path4426" /><path
       d="m 703.8,477.36 -12.24,0"
       id="path4428" /></g><text
     y="397.47522"
     x="53.297447"
     id="text4432"
     style="font-style:normal;font-weight:normal;font-size:30.70711899px;font-family:Times, 'Nimbus Roman No9 L';fill:#000000;fill-rule:nonzero">1800</text>
<text
     y="311.60379"
     x="53.297447"
     id="text4434"
     style="font-style:normal;font-weight:normal;font-size:30.70711899px;font-family:Times, 'Nimbus Roman No9 L';fill:#000000;fill-rule:nonzero">2000</text>
<text
     y="222.5954"
     x="53.297447"
     id="text4436"
     style="font-style:normal;font-weight:normal;font-size:30.70711899px;font-family:Times, 'Nimbus Roman No9 L';fill:#000000;fill-rule:nonzero">2200</text>
<text
     y="138.62817"
     x="53.297447"
     id="text4438"
     style="font-style:normal;font-weight:normal;font-size:30.70711899px;font-family:Times, 'Nimbus Roman No9 L';fill:#000000;fill-rule:nonzero">2400</text>
<text
     y="51.523991"
     x="53.297447"
     id="text4440"
     style="font-style:normal;font-weight:normal;font-size:30.70711899px;font-family:Times, 'Nimbus Roman No9 L';fill:#000000;fill-rule:nonzero">2600</text>
<g
     transform="matrix(1,0,0,-1,28.433972,520.659)"
     style="fill:none;stroke:#000000;stroke-width:0.91799998;stroke-linecap:butt;stroke-linejoin:miter;stroke-dasharray:none"
     id="g4442"><path
       d="m 91.8,91.8 0,428.4 612,0 0,-428.4 z"
       id="path4444" /></g><g
     transform="matrix(1.4749515,0,0,1.4749515,-213.37663,-173.45476)"
     id="g6247"><g
       id="g4446"
       style="fill:#ffffff;fill-rule:nonzero"
       transform="matrix(1,0,0,-1,0,612)"><path
         id="path4448"
         d="m 520.2,489.6 0,-85.0334 117.96,0 0,85.0334 z" /></g><g
       id="g4450"
       style="fill:none;stroke:#000000;stroke-width:0.91799998;stroke-linecap:butt;stroke-linejoin:miter;stroke-dasharray:none"
       transform="matrix(1,0,0,-1,0,612)"><path
         id="path4452"
         d="m 520.2,489.6 0,-85.0334 117.96,0 0,85.0334 z" /></g><g
       id="g4454"
       style="fill:#000000;fill-rule:nonzero"
       transform="matrix(1,0,0,-1,0,612)"><text
         id="text4456"
         transform="matrix(0.028,0,0,-0.028,563.04,474.901)"
         style="font-style:normal;font-weight:normal;font-size:612px;font-family:Times, 'Nimbus Roman No9 L'">exp</text>
<circle
         r="6.1199999"
         id="ellipse4458"
         cy="476.901"
         cx="538.56" /></g><g
       id="g4460"
       style="fill:none;stroke:#000000;stroke-width:0.91799998;stroke-linecap:butt;stroke-linejoin:miter;stroke-dasharray:none"
       transform="matrix(1,0,0,-1,0,612)"><circle
         r="6.1199999"
         id="ellipse4462"
         cy="476.901"
         cx="538.56" /></g><g
       id="g4464"
       style="fill:#000000;fill-rule:nonzero"
       transform="matrix(1,0,0,-1,0,612)"><text
         id="text4466"
         transform="matrix(0.028,0,0,-0.028,563.04,453.781)"
         style="font-style:normal;font-weight:normal;font-size:612px;font-family:Times, 'Nimbus Roman No9 L'">NG</text>
</g><g
       id="g4468"
       style="fill:none;stroke:#000000;stroke-width:2.75399995;stroke-linecap:butt;stroke-linejoin:miter;stroke-dasharray:none"
       transform="matrix(1,0,0,-1,0,612)"><circle
         r="6.1199999"
         id="ellipse4470"
         cy="459.28101"
         cx="538.56" /></g><g
       id="g4472"
       style="fill:#000000;fill-rule:nonzero"
       transform="matrix(1,0,0,-1,0,612)"><text
         id="text4474"
         transform="matrix(0.028,0,0,-0.028,563.04,435.661)"
         style="font-style:normal;font-weight:normal;font-size:612px;font-family:Times, 'Nimbus Roman No9 L'">BCS</text>
</g><g
       id="g4476"
       style="fill:none;stroke:#000000;stroke-width:2.75399995;stroke-linecap:butt;stroke-linejoin:miter;stroke-dasharray:none"
       transform="matrix(1,0,0,-1,0,612)"><path
         id="path4478"
         d="m 538.56,448.7278 -6.12,-10.6002 12.24,0 z" /></g><g
       id="g4480"
       style="fill:#000000;fill-rule:nonzero"
       transform="matrix(1,0,0,-1,0,612)"><text
         id="text4482"
         transform="matrix(0.028,0,0,-0.028,563.04,417.541)"
         style="font-style:normal;font-weight:normal;font-size:612px;font-family:Times, 'Nimbus Roman No9 L'">HFB (v</text>
<text
         id="text4484"
         transform="matrix(0.0198,0,0,-0.0198,615.04,410.6866)"
         style="font-style:normal;font-weight:normal;font-size:612px;font-family:Times, 'Nimbus Roman No9 L'">14</text>
<text
         id="text4486"
         transform="matrix(0.028,0,0,-0.028,627.04,417.541)"
         style="font-style:normal;font-weight:normal;font-size:612px;font-family:Times, 'Nimbus Roman No9 L'">)</text>
</g><g
       id="g4488"
       style="fill:none;stroke:#000000;stroke-width:2.75399995;stroke-linecap:butt;stroke-linejoin:miter;stroke-dasharray:none"
       transform="matrix(1,0,0,-1,0,612)"><path
         id="path4490"
         d="m 533.358,414.9118 0,10.404 10.404,0 0,-10.404 z" /></g></g><text
     transform="matrix(0,-1,1,0,0,0)"
     id="text4498"
     y="27.523663"
     x="-260.12308"
     style="font-style:normal;font-weight:normal;font-size:31.66286278px;line-height:125%;font-family:Sans;letter-spacing:0px;word-spacing:0px;fill:#000000;fill-opacity:1;stroke:none;stroke-width:1px;stroke-linecap:butt;stroke-linejoin:miter;stroke-opacity:1"
     xml:space="preserve"><tspan
       style="font-style:normal;font-variant:normal;font-weight:normal;font-stretch:normal;font-size:40.29818726px;font-family:Times, 'Nimbus Roman No9 L';-inkscape-font-specification:'Times, Nimbus Roman No9 L'"
       y="27.523663"
       x="-260.12308"
       id="tspan4500">σ (μb)</tspan></text>
</svg>