<?xml version="1.0" encoding="UTF-8" standalone="no"?>
<svg
   xmlns:dc="http://purl.org/dc/elements/1.1/"
   xmlns:cc="http://creativecommons.org/ns#"
   xmlns:rdf="http://www.w3.org/1999/02/22-rdf-syntax-ns#"
   xmlns:svg="http://www.w3.org/2000/svg"
   xmlns="http://www.w3.org/2000/svg"
   xmlns:sodipodi="http://sodipodi.sourceforge.net/DTD/sodipodi-0.dtd"
   xmlns:inkscape="http://www.inkscape.org/namespaces/inkscape"
   version="1.1"
   id="svg4336"
   viewBox="0 0 732.69299 429.318"
   height="5.96275in"
   width="10.176291in"
   xml:space="preserve"
   sodipodi:docname="fig5_v2.svg"
   inkscape:version="0.92.4 (5da689c313, 2019-01-14)"><sodipodi:namedview
   pagecolor="#ffffff"
   bordercolor="#666666"
   borderopacity="1"
   objecttolerance="10"
   gridtolerance="10"
   guidetolerance="10"
   inkscape:pageopacity="0"
   inkscape:pageshadow="2"
   inkscape:window-width="1191"
   inkscape:window-height="861"
   id="namedview40163"
   showgrid="false"
   inkscape:zoom="0.40125947"
   inkscape:cx="520.03635"
   inkscape:cy="330.92645"
   inkscape:window-x="1796"
   inkscape:window-y="58"
   inkscape:window-maximized="0"
   inkscape:current-layer="svg4336" /><metadata
   id="metadata4496"><rdf:RDF><cc:Work
       rdf:about=""><dc:format>image/svg+xml</dc:format><dc:type
         rdf:resource="http://purl.org/dc/dcmitype/StillImage" /><dc:title></dc:title></cc:Work></rdf:RDF></metadata><defs
   id="defs4494">
</defs><g
   transform="matrix(1,0,0,-1,28.433972,520.659)"
   style="fill:none;stroke:#000000;stroke-width:0.91799998;stroke-linecap:butt;stroke-linejoin:miter;stroke-dasharray:none"
   id="g4346"><path
     d="m 214.2,327.42 0,144.7992"
     id="path4348" /><path
     d="m 208.08,472.2192 12.24,0"
     id="path4350" /><path
     d="m 214.2,327.42 0,-144.7992"
     id="path4352" /><path
     d="m 220.32,182.6208 -12.24,0"
     id="path4354" /></g><g
   transform="matrix(1.8237232,0,0,-1.8237232,-148.00756,790.36248)"
   style="fill:#000000;fill-rule:nonzero"
   id="g4356"><circle
     cx="214.2"
     cy="327.42001"
     id="ellipse4358"
     r="6.1199999" /></g><path
   id="path4364"
   d="m 365.03396,258.7842 0,-128.52"
   style="fill:none;stroke:#000000;stroke-width:0.91799998;stroke-linecap:butt;stroke-linejoin:miter;stroke-dasharray:none" /><path
   id="path4366"
   d="m 358.91396,130.2642 12.24,0"
   style="fill:none;stroke:#000000;stroke-width:0.91799998;stroke-linecap:butt;stroke-linejoin:miter;stroke-dasharray:none" /><path
   id="path4368"
   d="m 365.03396,258.7842 0,128.52"
   style="fill:none;stroke:#000000;stroke-width:0.91799998;stroke-linecap:butt;stroke-linejoin:miter;stroke-dasharray:none" /><path
   id="path4370"
   d="m 371.15396,387.3042 -12.24,0"
   style="fill:none;stroke:#000000;stroke-width:0.91799998;stroke-linecap:butt;stroke-linejoin:miter;stroke-dasharray:none" /><circle
   transform="scale(1,-1)"
   r="11.058305"
   id="ellipse4374"
   cy="-258.78421"
   cx="365.03397"
   style="fill:none;stroke:#000000;stroke-width:4.9762373;stroke-linecap:butt;stroke-linejoin:miter;stroke-dasharray:none" /><path
   id="path4376"
   d="m 487.43396,95.10935 -10.4209,18.0496 20.8418,0 z"
   style="fill:none;stroke:#000000;stroke-width:4.68940401;stroke-linecap:butt;stroke-linejoin:miter;stroke-dasharray:none" /><path
   id="path4378"
   d="m 601.44311,328.00785 0,-16.7817 16.7817,0 0,16.7817 z"
   style="fill:none;stroke:#000000;stroke-width:4.44221115;stroke-linecap:butt;stroke-linejoin:miter;stroke-dasharray:none" /><g
   transform="matrix(1,0,0,-1,28.433972,520.659)"
   style="fill:none;stroke:#000000;stroke-width:0.91799998;stroke-linecap:butt;stroke-linejoin:miter;stroke-dasharray:none"
   id="g4380"><path
     d="m 91.8,91.8 0,428.4"
     id="path4382" /><path
     d="m 703.8,91.8 0,428.4"
     id="path4384" /><path
     d="m 91.8,91.8 6.12,0"
     id="path4386" /><path
     d="m 703.8,91.8 -6.12,0"
     id="path4388" /><path
     d="m 91.8,177.48 6.12,0"
     id="path4390" /><path
     d="m 703.8,177.48 -6.12,0"
     id="path4392" /><path
     d="m 91.8,263.16 6.12,0"
     id="path4394" /><path
     d="m 703.8,263.16 -6.12,0"
     id="path4396" /><path
     d="m 91.8,348.84 6.12,0"
     id="path4398" /><path
     d="m 703.8,348.84 -6.12,0"
     id="path4400" /><path
     d="m 91.8,434.52 6.12,0"
     id="path4402" /><path
     d="m 703.8,434.52 -6.12,0"
     id="path4404" /><path
     d="m 91.8,520.2 6.12,0"
     id="path4406" /><path
     d="m 703.8,520.2 -6.12,0"
     id="path4408" /><path
     d="m 91.8,134.64 12.24,0"
     id="path4410" /><path
     d="m 703.8,134.64 -12.24,0"
     id="path4412" /><path
     d="m 91.8,220.32 12.24,0"
     id="path4414" /><path
     d="m 703.8,220.32 -12.24,0"
     id="path4416" /><path
     d="m 91.8,306 12.24,0"
     id="path4418" /><path
     d="m 703.8,306 -12.24,0"
     id="path4420" /><path
     d="m 91.8,391.68 12.24,0"
     id="path4422" /><path
     d="m 703.8,391.68 -12.24,0"
     id="path4424" /><path
     d="m 91.8,477.36 12.24,0"
     id="path4426" /><path
     d="m 703.8,477.36 -12.24,0"
     id="path4428" /></g><text
   y="397.47522"
   x="53.297447"
   id="text4432"
   style="font-style:normal;font-weight:normal;font-size:30.70711899px;font-family:Times, 'Nimbus Roman No9 L';fill:#000000;fill-rule:nonzero">1800</text>

<text
   y="311.60379"
   x="53.297447"
   id="text4434"
   style="font-style:normal;font-weight:normal;font-size:30.70711899px;font-family:Times, 'Nimbus Roman No9 L';fill:#000000;fill-rule:nonzero">2000</text>

<text
   y="222.5954"
   x="53.297447"
   id="text4436"
   style="font-style:normal;font-weight:normal;font-size:30.70711899px;font-family:Times, 'Nimbus Roman No9 L';fill:#000000;fill-rule:nonzero">2200</text>

<text
   y="138.62817"
   x="53.297447"
   id="text4438"
   style="font-style:normal;font-weight:normal;font-size:30.70711899px;font-family:Times, 'Nimbus Roman No9 L';fill:#000000;fill-rule:nonzero">2400</text>

<text
   y="51.523991"
   x="53.297447"
   id="text4440"
   style="font-style:normal;font-weight:normal;font-size:30.70711899px;font-family:Times, 'Nimbus Roman No9 L';fill:#000000;fill-rule:nonzero">2600</text>

<g
   transform="matrix(1,0,0,-1,28.433972,520.659)"
   style="fill:none;stroke:#000000;stroke-width:0.91799998;stroke-linecap:butt;stroke-linejoin:miter;stroke-dasharray:none"
   id="g4442"><path
     d="m 91.8,91.8 0,428.4 612,0 0,-428.4 z"
     id="path4444" /></g><text
   id="text4456"
   style="font-style:normal;font-weight:normal;font-size:25.27476692px;font-family:Times, 'Nimbus Roman No9 L';fill:#000000;fill-rule:nonzero;stroke-width:0.04129864"
   x="188.86102"
   y="297.05734">exp</text>
<g
   transform="matrix(1.4749515,0,0,-1.4749515,-517.35929,972.40168)"
   style="fill:#000000;fill-rule:nonzero"
   id="g4464"><text
   style="font-style:normal;font-weight:normal;font-size:612px;font-family:Times, 'Nimbus Roman No9 L'"
   transform="matrix(0.028,0,0,-0.028,563.04,453.781)"
   id="text4466">NG</text>

</g><g
   transform="matrix(1.4749515,0,0,-1.4749515,-366.68962,788.69043)"
   style="fill:#000000;fill-rule:nonzero"
   id="g4472"><text
   style="font-style:normal;font-weight:normal;font-size:612px;font-family:Times, 'Nimbus Roman No9 L'"
   transform="matrix(0.028,0,0,-0.028,563.04,435.661)"
   id="text4474">BCS</text>

</g><g
   transform="matrix(1.4749515,0,0,-1.4749515,-251.70488,976.36668)"
   style="fill:#000000;fill-rule:nonzero"
   id="g4480"><text
   style="font-style:normal;font-weight:normal;font-size:612px;font-family:Times, 'Nimbus Roman No9 L'"
   transform="matrix(0.028,0,0,-0.028,563.04,417.541)"
   id="text4482">HFB (v</text>

<text
   style="font-style:normal;font-weight:normal;font-size:612px;font-family:Times, 'Nimbus Roman No9 L'"
   transform="matrix(0.0198,0,0,-0.0198,615.04,410.6866)"
   id="text4484">14</text>

<text
   style="font-style:normal;font-weight:normal;font-size:612px;font-family:Times, 'Nimbus Roman No9 L'"
   transform="matrix(0.028,0,0,-0.028,627.04,417.541)"
   id="text4486">)</text>

</g><text
   transform="matrix(0,-1,1,0,0,0)"
   id="text4498"
   y="27.523663"
   x="-260.12308"
   style="font-style:normal;font-weight:normal;font-size:31.66286278px;line-height:125%;font-family:Sans;letter-spacing:0px;word-spacing:0px;fill:#000000;fill-opacity:1;stroke:none;stroke-width:1px;stroke-linecap:butt;stroke-linejoin:miter;stroke-opacity:1"
   xml:space="preserve"><tspan
     style="font-style:normal;font-variant:normal;font-weight:normal;font-stretch:normal;font-size:40.29818726px;font-family:Times, 'Nimbus Roman No9 L';-inkscape-font-specification:'Times, Nimbus Roman No9 L'"
     y="27.523663"
     x="-260.12308"
     id="tspan4500">σ (μb)</tspan></text>

</svg>