<?xml version="1.0" encoding="UTF-8" standalone="no"?>
<!-- Created with Inkscape (http://www.inkscape.org/) -->

<svg
   xmlns:dc="http://purl.org/dc/elements/1.1/"
   xmlns:cc="http://creativecommons.org/ns#"
   xmlns:rdf="http://www.w3.org/1999/02/22-rdf-syntax-ns#"
   xmlns:svg="http://www.w3.org/2000/svg"
   xmlns="http://www.w3.org/2000/svg"
   xmlns:sodipodi="http://sodipodi.sourceforge.net/DTD/sodipodi-0.dtd"
   xmlns:inkscape="http://www.inkscape.org/namespaces/inkscape"
   width="188.04573mm"
   height="225.62349mm"
   viewBox="0 0 188.04573 225.62348"
   version="1.1"
   id="svg2436"
   inkscape:version="0.92.3 (2405546, 2018-03-11)"
   sodipodi:docname="Fig8.svg">
  <defs
     id="defs2430">
    <marker
       inkscape:isstock="true"
       style="overflow:visible"
       id="marker8108"
       refX="0"
       refY="0"
       orient="auto"
       inkscape:stockid="Arrow1Mend">
      <path
         transform="matrix(-0.4,0,0,-0.4,-4,0)"
         style="fill:#000000;fill-opacity:1;fill-rule:evenodd;stroke:#000000;stroke-width:1.00000003pt;stroke-opacity:1"
         d="M 0,0 5,-5 -12.5,0 5,5 Z"
         id="path8106"
         inkscape:connector-curvature="0" />
    </marker>
    <marker
       inkscape:stockid="Arrow1Send"
       orient="auto"
       refY="0"
       refX="0"
       id="Arrow1Send"
       style="overflow:visible"
       inkscape:isstock="true">
      <path
         id="path5582"
         d="M 0,0 5,-5 -12.5,0 5,5 Z"
         style="fill:#000000;fill-opacity:1;fill-rule:evenodd;stroke:#000000;stroke-width:1.00000003pt;stroke-opacity:1"
         transform="matrix(-0.2,0,0,-0.2,-1.2,0)"
         inkscape:connector-curvature="0" />
    </marker>
    <marker
       inkscape:stockid="Arrow1Mend"
       orient="auto"
       refY="0"
       refX="0"
       id="marker5830"
       style="overflow:visible"
       inkscape:isstock="true"
       inkscape:collect="always">
      <path
         id="path5576"
         d="M 0,0 5,-5 -12.5,0 5,5 Z"
         style="fill:#000000;fill-opacity:1;fill-rule:evenodd;stroke:#000000;stroke-width:1.00000003pt;stroke-opacity:1"
         transform="matrix(-0.4,0,0,-0.4,-4,0)"
         inkscape:connector-curvature="0" />
    </marker>
    <marker
       style="overflow:visible"
       id="Arrow1Mend"
       refX="0"
       refY="0"
       orient="auto">
      <path
         inkscape:connector-curvature="0"
         transform="matrix(-0.4,0,0,-0.4,-4,0)"
         style="fill:#000000;fill-opacity:1;fill-rule:evenodd;stroke:#000000;stroke-width:1.00000003pt;stroke-opacity:1"
         d="M 0,0 5,-5 -12.5,0 5,5 Z"
         id="path6694" />
    </marker>
    <marker
       style="overflow:visible"
       id="marker7229"
       refX="0"
       refY="0"
       orient="auto">
      <path
         inkscape:connector-curvature="0"
         transform="matrix(-0.8,0,0,-0.8,-10,0)"
         style="fill:#000000;fill-opacity:1;fill-rule:evenodd;stroke:#000000;stroke-width:1.00000003pt;stroke-opacity:1"
         d="M 0,0 5,-5 -12.5,0 5,5 Z"
         id="path7231" />
    </marker>
    <marker
       style="overflow:visible"
       id="marker7225"
       refX="0"
       refY="0"
       orient="auto">
      <path
         inkscape:connector-curvature="0"
         transform="matrix(-0.8,0,0,-0.8,-10,0)"
         style="fill:#000000;fill-opacity:1;fill-rule:evenodd;stroke:#000000;stroke-width:1.00000003pt;stroke-opacity:1"
         d="M 0,0 5,-5 -12.5,0 5,5 Z"
         id="path7227" />
    </marker>
    <marker
       style="overflow:visible"
       id="marker7221"
       refX="0"
       refY="0"
       orient="auto">
      <path
         inkscape:connector-curvature="0"
         transform="matrix(-0.8,0,0,-0.8,-10,0)"
         style="fill:#000000;fill-opacity:1;fill-rule:evenodd;stroke:#000000;stroke-width:1.00000003pt;stroke-opacity:1"
         d="M 0,0 5,-5 -12.5,0 5,5 Z"
         id="path7223" />
    </marker>
    <clipPath
       id="clipPath9486"
       clipPathUnits="userSpaceOnUse">
      <path
         inkscape:connector-curvature="0"
         id="path9488"
         d="M 54.64249,8.671078 H 723.7233 V 526.9485 H 54.64249 Z" />
    </clipPath>
    <clipPath
       id="clipPath9496"
       clipPathUnits="userSpaceOnUse">
      <path
         inkscape:connector-curvature="0"
         id="path9498"
         d="M 0,0 H 792 V 612 H 0 Z" />
    </clipPath>
    <clipPath
       clipPathUnits="userSpaceOnUse"
       id="clipPath3520">
      <path
         d="m 1492.758,3652.534 h 771.266 V 3055.1 h -771.266 z"
         id="path3518"
         inkscape:connector-curvature="0" />
    </clipPath>
    <clipPath
       clipPathUnits="userSpaceOnUse"
       id="clipPath3530">
      <path
         d="m 1429,3046 h 914 v 706 h -914 z"
         id="path3528"
         inkscape:connector-curvature="0" />
    </clipPath>
    <clipPath
       clipPathUnits="userSpaceOnUse"
       id="clipPath3540">
      <path
         d="m 1429.77,3751.562 h 912.961 V 3046.093 H 1429.77 Z"
         id="path3538"
         inkscape:connector-curvature="0" />
    </clipPath>
    <clipPath
       clipPathUnits="userSpaceOnUse"
       id="clipPath3550">
      <path
         d="m 1429,3046 h 914 v 706 h -914 z"
         id="path3548"
         inkscape:connector-curvature="0" />
    </clipPath>
  </defs>
  <sodipodi:namedview
     id="base"
     pagecolor="#ffffff"
     bordercolor="#666666"
     borderopacity="1.0"
     inkscape:pageopacity="0.0"
     inkscape:pageshadow="2"
     inkscape:zoom="0.98994949"
     inkscape:cx="183.88114"
     inkscape:cy="525.7865"
     inkscape:document-units="mm"
     inkscape:current-layer="layer1"
     showgrid="false"
     inkscape:window-width="1600"
     inkscape:window-height="1172"
     inkscape:window-x="1366"
     inkscape:window-y="0"
     inkscape:window-maximized="1"
     showguides="false"
     fit-margin-top="0"
     fit-margin-left="0"
     fit-margin-right="0"
     fit-margin-bottom="0" />
  <metadata
     id="metadata2433">
    <rdf:RDF>
      <cc:Work
         rdf:about="">
        <dc:format>image/svg+xml</dc:format>
        <dc:type
           rdf:resource="http://purl.org/dc/dcmitype/StillImage" />
        <dc:title></dc:title>
      </cc:Work>
    </rdf:RDF>
  </metadata>
  <g
     inkscape:label="Layer 1"
     inkscape:groupmode="layer"
     id="layer1"
     transform="translate(314.99118,192.31564)">
    <text
       xml:space="preserve"
       style="font-style:normal;font-weight:normal;font-size:16.93333244px;line-height:125%;font-family:Sans;letter-spacing:0px;word-spacing:0px;fill:#000000;fill-opacity:1;stroke:none;stroke-width:0.28222221px;stroke-linecap:butt;stroke-linejoin:miter;stroke-opacity:1"
       x="-189.59218"
       y="-58.20945"
       id="text20054"><tspan
         id="tspan20056"
         x="-189.59218"
         y="-58.20945"
         style="stroke-width:0.28222221px" /></text>
    <g
       id="g6247">
      <path
         style="fill:none;fill-rule:evenodd;stroke:#000000;stroke-width:1;stroke-linecap:butt;stroke-linejoin:miter;stroke-miterlimit:4;stroke-dasharray:none;stroke-opacity:1"
         d="M -263.82738,19.565476 V -174.71428"
         id="path5966"
         inkscape:connector-curvature="0" />
      <g
         id="g10605">
        <path
           style="fill:none;fill-rule:evenodd;stroke:#000000;stroke-width:1;stroke-linecap:butt;stroke-linejoin:miter;stroke-miterlimit:4;stroke-dasharray:none;stroke-opacity:1"
           d="M -253.43303,19.565476 V -51.837852"
           id="path10212"
           inkscape:connector-curvature="0" />
        <path
           inkscape:connector-curvature="0"
           id="path10256"
           d="M -249.27529,19.565476 V -28.059518"
           style="fill:none;fill-rule:evenodd;stroke:#000000;stroke-width:1;stroke-linecap:butt;stroke-linejoin:miter;stroke-miterlimit:4;stroke-dasharray:none;stroke-opacity:1" />
      </g>
    </g>
    <path
       style="fill:none;fill-rule:evenodd;stroke:#000000;stroke-width:1;stroke-linecap:butt;stroke-linejoin:miter;stroke-miterlimit:4;stroke-dasharray:none;stroke-opacity:1"
       d="M -188.7991,19.565476 V -174.71428"
       id="path10266"
       inkscape:connector-curvature="0" />
    <g
       id="g10618">
      <path
         style="fill:none;fill-rule:evenodd;stroke:#000000;stroke-width:1;stroke-linecap:butt;stroke-linejoin:miter;stroke-miterlimit:4;stroke-dasharray:none;stroke-opacity:1"
         d="M -199.19345,-51.795488 V -174.71428"
         id="path10268"
         inkscape:connector-curvature="0" />
      <path
         inkscape:connector-curvature="0"
         id="path10270"
         d="m -203.35119,-125.82313 v -48.89115"
         style="fill:none;fill-rule:evenodd;stroke:#000000;stroke-width:1;stroke-linecap:butt;stroke-linejoin:miter;stroke-miterlimit:4;stroke-dasharray:none;stroke-opacity:1" />
    </g>
    <g
       id="g10278"
       transform="translate(132.02209,61.314474)">
      <path
         d="m -385.90064,-90.905965 a 2.5574596,2.5574596 0 0 1 2.93128,-2.114936 2.5574596,2.5574596 0 0 1 2.11848,2.928727 2.5574596,2.5574596 0 0 1 -2.92616,2.122016 2.5574596,2.5574596 0 0 1 -2.12555,-2.923598"
         sodipodi:open="true"
         sodipodi:end="3.2977473"
         sodipodi:start="3.3025818"
         sodipodi:ry="2.5574596"
         sodipodi:rx="2.5574596"
         sodipodi:cy="-90.496017"
         sodipodi:cx="-383.37625"
         sodipodi:type="arc"
         id="path10272"
         style="opacity:1;fill:#ffffff;fill-opacity:1;stroke:#000000;stroke-width:1;stroke-linecap:round;stroke-miterlimit:4;stroke-dasharray:none;stroke-dashoffset:0;stroke-opacity:1" />
      <path
         inkscape:transform-center-y="4.3788672"
         inkscape:transform-center-x="-7.3749276"
         style="opacity:1;fill:#000000;fill-opacity:1;stroke:#000000;stroke-width:0.09155226;stroke-linecap:round;stroke-miterlimit:4;stroke-dasharray:none;stroke-dashoffset:0;stroke-opacity:1"
         id="path10274"
         sodipodi:type="arc"
         sodipodi:cx="-383.37625"
         sodipodi:cy="-90.496017"
         sodipodi:rx="0.81320757"
         sodipodi:ry="0.81320757"
         sodipodi:start="3.3025818"
         sodipodi:end="3.2977473"
         sodipodi:open="true"
         d="m -384.17894,-90.62637 a 0.81320757,0.81320757 0 0 1 0.93207,-0.672497 0.81320757,0.81320757 0 0 1 0.67362,0.931262 0.81320757,0.81320757 0 0 1 -0.93044,0.674747 0.81320757,0.81320757 0 0 1 -0.67587,-0.92963" />
    </g>
    <g
       transform="translate(182.10393,-36.987465)"
       id="g10288">
      <path
         style="opacity:1;fill:#ffffff;fill-opacity:1;stroke:#000000;stroke-width:1;stroke-linecap:round;stroke-miterlimit:4;stroke-dasharray:none;stroke-dashoffset:0;stroke-opacity:1"
         id="path10284"
         sodipodi:type="arc"
         sodipodi:cx="-383.37625"
         sodipodi:cy="-90.496017"
         sodipodi:rx="2.5574596"
         sodipodi:ry="2.5574596"
         sodipodi:start="3.3025818"
         sodipodi:end="3.2977473"
         sodipodi:open="true"
         d="m -385.90064,-90.905965 a 2.5574596,2.5574596 0 0 1 2.93128,-2.114936 2.5574596,2.5574596 0 0 1 2.11848,2.928727 2.5574596,2.5574596 0 0 1 -2.92616,2.122016 2.5574596,2.5574596 0 0 1 -2.12555,-2.923598" />
      <path
         d="m -384.17894,-90.62637 a 0.81320757,0.81320757 0 0 1 0.93207,-0.672497 0.81320757,0.81320757 0 0 1 0.67362,0.931262 0.81320757,0.81320757 0 0 1 -0.93044,0.674747 0.81320757,0.81320757 0 0 1 -0.67587,-0.92963"
         sodipodi:open="true"
         sodipodi:end="3.2977473"
         sodipodi:start="3.3025818"
         sodipodi:ry="0.81320757"
         sodipodi:rx="0.81320757"
         sodipodi:cy="-90.496017"
         sodipodi:cx="-383.37625"
         sodipodi:type="arc"
         id="path10286"
         style="opacity:1;fill:#000000;fill-opacity:1;stroke:#000000;stroke-width:0.09155226;stroke-linecap:round;stroke-miterlimit:4;stroke-dasharray:none;stroke-dashoffset:0;stroke-opacity:1"
         inkscape:transform-center-x="-7.3749276"
         inkscape:transform-center-y="4.3788672" />
    </g>
    <path
       style="fill:none;fill-rule:evenodd;stroke:#000000;stroke-width:1;stroke-linecap:butt;stroke-linejoin:miter;stroke-miterlimit:4;stroke-dasharray:3, 3;stroke-dashoffset:0;stroke-opacity:1"
       d="m -253.27023,-103.27678 h 32.81562"
       id="path10294"
       inkscape:connector-curvature="0" />
    <path
       inkscape:connector-curvature="0"
       id="path10300"
       d="m -237.67132,-52.061006 h 35.02883"
       style="fill:none;fill-rule:evenodd;stroke:#000000;stroke-width:1;stroke-linecap:butt;stroke-linejoin:miter;stroke-miterlimit:4;stroke-dasharray:3, 3;stroke-dashoffset:0;stroke-opacity:1" />
    <path
       inkscape:connector-curvature="0"
       id="path10302"
       d="M -253.43303,-51.837852 V -103.7695"
       style="fill:none;fill-rule:evenodd;stroke:#000000;stroke-width:3.01080513;stroke-linecap:butt;stroke-linejoin:miter;stroke-miterlimit:4;stroke-dasharray:none;stroke-opacity:1" />
    <path
       style="fill:none;fill-rule:evenodd;stroke:#000000;stroke-width:3;stroke-linecap:butt;stroke-linejoin:miter;stroke-miterlimit:4;stroke-dasharray:none;stroke-opacity:1"
       d="M -199.84549,-51.837852 V -103.39743"
       id="path10304"
       inkscape:connector-curvature="0" />
    <path
       style="fill:none;fill-rule:evenodd;stroke:#000000;stroke-width:1;stroke-linecap:butt;stroke-linejoin:miter;stroke-miterlimit:4;stroke-dasharray:none;stroke-opacity:1"
       d="m -221.08833,-103.31089 17.61788,-23.48031"
       id="path10306"
       inkscape:connector-curvature="0" />
    <path
       style="fill:none;fill-rule:evenodd;stroke:#000000;stroke-width:1.02175474;stroke-linecap:butt;stroke-linejoin:miter;stroke-miterlimit:4;stroke-dasharray:none;stroke-opacity:1"
       d="m -249.75131,-30.880212 12.65258,-21.140067"
       id="path10308"
       inkscape:connector-curvature="0" />
    <path
       style="fill:none;fill-rule:evenodd;stroke:#000000;stroke-width:0.5;stroke-linecap:butt;stroke-linejoin:miter;stroke-miterlimit:4;stroke-dasharray:none;stroke-opacity:1;marker-end:url(#Arrow1Mend)"
       d="m -263.68564,-102.80432 h 7.6333"
       id="path10310"
       inkscape:connector-curvature="0" />
    <path
       inkscape:connector-curvature="0"
       id="path10540"
       d="m -189.28529,-52.190153 h -8.43221"
       style="fill:none;fill-rule:evenodd;stroke:#000000;stroke-width:0.52551425;stroke-linecap:butt;stroke-linejoin:miter;stroke-miterlimit:4;stroke-dasharray:none;stroke-opacity:1;marker-end:url(#Arrow1Mend)" />
    <path
       transform="rotate(-5.4862262)"
       d="m -194.33921,-169.54034 a 13.607142,13.607142 0 0 1 14.81318,-11.35563 13.607142,13.607142 0 0 1 12.21287,14.11475"
       sodipodi:open="true"
       sodipodi:end="0.042488741"
       sodipodi:start="3.3025818"
       sodipodi:ry="13.607142"
       sodipodi:rx="13.607142"
       sodipodi:cy="-167.35919"
       sodipodi:cx="-180.90802"
       sodipodi:type="arc"
       id="path10571"
       style="opacity:1;fill:none;fill-opacity:1;stroke:#000000;stroke-width:0.60000002;stroke-linecap:round;stroke-miterlimit:4;stroke-dasharray:none;stroke-dashoffset:0;stroke-opacity:1" />
    <g
       id="g10598"
       transform="matrix(1.4724347,0,0,0.98865487,98.106137,-2.3165261)">
      <path
         inkscape:connector-curvature="0"
         id="path10578"
         d="m -240.40441,9.5472091 3.06941,-11.016041"
         style="fill:none;fill-rule:evenodd;stroke:#000000;stroke-width:0.60000002;stroke-linecap:round;stroke-linejoin:miter;stroke-miterlimit:4;stroke-dasharray:none;stroke-opacity:1" />
      <path
         style="fill:none;fill-rule:evenodd;stroke:#000000;stroke-width:0.60000002;stroke-linecap:round;stroke-linejoin:miter;stroke-miterlimit:4;stroke-dasharray:none;stroke-opacity:1"
         d="m -234.2656,9.5472091 -3.0694,-11.016041"
         id="path10580"
         inkscape:connector-curvature="0" />
    </g>
    <g
       transform="matrix(1.4724347,0,0,0.98865487,148.18798,-149.0568)"
       id="g10611">
      <path
         style="fill:none;fill-rule:evenodd;stroke:#000000;stroke-width:0.60000002;stroke-linecap:round;stroke-linejoin:miter;stroke-miterlimit:4;stroke-dasharray:none;stroke-opacity:1"
         d="m -240.40441,9.5472091 3.06941,-11.016041"
         id="path10607"
         inkscape:connector-curvature="0" />
      <path
         inkscape:connector-curvature="0"
         id="path10609"
         d="m -234.2656,9.5472091 -3.0694,-11.016041"
         style="fill:none;fill-rule:evenodd;stroke:#000000;stroke-width:0.60000002;stroke-linecap:round;stroke-linejoin:miter;stroke-miterlimit:4;stroke-dasharray:none;stroke-opacity:1" />
    </g>
    <g
       transform="matrix(0.63807433,0.39176844,-0.25119313,0.40911894,-88.252596,45.277903)"
       id="g10648">
      <path
         style="fill:none;fill-rule:evenodd;stroke:#000000;stroke-width:0.60000002;stroke-linecap:round;stroke-linejoin:miter;stroke-miterlimit:4;stroke-dasharray:none;stroke-opacity:1"
         d="m -240.40441,9.5472091 3.06941,-11.016041"
         id="path10644"
         inkscape:connector-curvature="0" />
      <path
         inkscape:connector-curvature="0"
         id="path10646"
         d="m -234.2656,9.5472091 -3.0694,-11.016041"
         style="fill:none;fill-rule:evenodd;stroke:#000000;stroke-width:0.60000002;stroke-linecap:round;stroke-linejoin:miter;stroke-miterlimit:4;stroke-dasharray:none;stroke-opacity:1" />
    </g>
    <g
       id="g10654"
       transform="matrix(0.74792741,0.0350135,-0.02244987,0.47955427,-75.861134,-40.494309)">
      <path
         inkscape:connector-curvature="0"
         id="path10650"
         d="m -240.40441,9.5472091 3.06941,-11.016041"
         style="fill:none;fill-rule:evenodd;stroke:#000000;stroke-width:0.60000002;stroke-linecap:round;stroke-linejoin:miter;stroke-miterlimit:4;stroke-dasharray:none;stroke-opacity:1" />
      <path
         style="fill:none;fill-rule:evenodd;stroke:#000000;stroke-width:0.60000002;stroke-linecap:round;stroke-linejoin:miter;stroke-miterlimit:4;stroke-dasharray:none;stroke-opacity:1"
         d="m -234.2656,9.5472091 -3.0694,-11.016041"
         id="path10652"
         inkscape:connector-curvature="0" />
    </g>
    <g
       id="g10660"
       transform="matrix(0.62855653,0.40686368,-0.26087187,0.40301634,-56.099111,-27.964943)">
      <path
         inkscape:connector-curvature="0"
         id="path10656"
         d="m -240.40441,9.5472091 3.06941,-11.016041"
         style="fill:none;fill-rule:evenodd;stroke:#000000;stroke-width:0.60000002;stroke-linecap:round;stroke-linejoin:miter;stroke-miterlimit:4;stroke-dasharray:none;stroke-opacity:1" />
      <path
         style="fill:none;fill-rule:evenodd;stroke:#000000;stroke-width:0.60000002;stroke-linecap:round;stroke-linejoin:miter;stroke-miterlimit:4;stroke-dasharray:none;stroke-opacity:1"
         d="m -234.2656,9.5472091 -3.0694,-11.016041"
         id="path10658"
         inkscape:connector-curvature="0" />
    </g>
    <g
       id="g10672"
       transform="matrix(1.2112397,-0.50271215,0.75208489,0.80962259,95.280428,-143.90008)">
      <path
         style="fill:none;fill-rule:evenodd;stroke:#000000;stroke-width:1.5;stroke-linecap:round;stroke-linejoin:miter;stroke-miterlimit:4;stroke-dasharray:none;stroke-opacity:1"
         d="m -243.10616,-76.493265 4.80307,-3.190813"
         id="path10662"
         inkscape:connector-curvature="0" />
      <path
         inkscape:connector-curvature="0"
         id="path10664"
         d="m -239.24757,-73.995606 0.94448,-5.688472"
         style="fill:none;fill-rule:evenodd;stroke:#000000;stroke-width:1.5;stroke-linecap:round;stroke-linejoin:miter;stroke-miterlimit:4;stroke-dasharray:none;stroke-opacity:1" />
    </g>
    <g
       transform="matrix(1.2112397,-0.50271215,0.75208489,0.80962259,148.86797,-143.90008)"
       id="g10678">
      <path
         inkscape:connector-curvature="0"
         id="path10674"
         d="m -243.10616,-76.493265 4.80307,-3.190813"
         style="fill:none;fill-rule:evenodd;stroke:#000000;stroke-width:1.5;stroke-linecap:round;stroke-linejoin:miter;stroke-miterlimit:4;stroke-dasharray:none;stroke-opacity:1" />
      <path
         style="fill:none;fill-rule:evenodd;stroke:#000000;stroke-width:1.5;stroke-linecap:round;stroke-linejoin:miter;stroke-miterlimit:4;stroke-dasharray:none;stroke-opacity:1"
         d="m -239.24757,-73.995606 0.94448,-5.688472"
         id="path10676"
         inkscape:connector-curvature="0" />
    </g>
    <path
       style="opacity:0.28500001;fill:#000000;fill-opacity:1;stroke:#000000;stroke-width:1.50383568;stroke-linecap:round;stroke-miterlimit:4;stroke-dasharray:none;stroke-dashoffset:0;stroke-opacity:1"
       d="m -260.28195,-86.465123 a 33.985127,11.769767 0 0 1 38.95275,-9.73322 33.985127,11.769767 0 0 1 28.15167,13.4784 33.985127,11.769767 0 0 1 -38.88471,9.765794 33.985127,11.769767 0 0 1 -28.24565,-13.454784"
       id="path1202"
       inkscape:connector-curvature="0" />
    <path
       inkscape:connector-curvature="0"
       id="path1217"
       d="m -261.59361,-41.534984 a 12.931737,6.8374369 0 0 1 14.82197,-5.65434 12.931737,6.8374369 0 0 1 10.71204,7.830036 12.931737,6.8374369 0 0 1 -14.79609,5.673265 12.931737,6.8374369 0 0 1 -10.7478,-7.816318"
       style="opacity:0.28500001;fill:#000000;fill-opacity:1;stroke:#000000;stroke-width:0.70704508;stroke-linecap:round;stroke-miterlimit:4;stroke-dasharray:none;stroke-dashoffset:0;stroke-opacity:1" />
    <path
       style="opacity:0.28500001;fill:#000000;fill-opacity:1;stroke:#000000;stroke-width:0.70704508;stroke-linecap:round;stroke-miterlimit:4;stroke-dasharray:none;stroke-dashoffset:0;stroke-opacity:1"
       d="m -220.01623,-115.61832 a 12.931737,6.8374369 0 0 1 14.82197,-5.65434 12.931737,6.8374369 0 0 1 10.71204,7.83004 12.931737,6.8374369 0 0 1 -14.79609,5.67326 12.931737,6.8374369 0 0 1 -10.7478,-7.81631"
       id="path1219"
       inkscape:connector-curvature="0" />
    <g
       transform="matrix(0.74854058,0.0175605,-0.01125941,0.47994742,-21.483439,-112.66459)"
       id="g1225">
      <path
         style="fill:none;fill-rule:evenodd;stroke:#000000;stroke-width:0.60000002;stroke-linecap:round;stroke-linejoin:miter;stroke-miterlimit:4;stroke-dasharray:none;stroke-opacity:1"
         d="m -240.40441,9.5472091 3.06941,-11.016041"
         id="path1221"
         inkscape:connector-curvature="0" />
      <path
         inkscape:connector-curvature="0"
         id="path1223"
         d="m -234.2656,9.5472091 -3.0694,-11.016041"
         style="fill:none;fill-rule:evenodd;stroke:#000000;stroke-width:0.60000002;stroke-linecap:round;stroke-linejoin:miter;stroke-miterlimit:4;stroke-dasharray:none;stroke-opacity:1" />
    </g>
    <path
       style="fill:none;fill-rule:evenodd;stroke:#000000;stroke-width:0.44232216;stroke-linecap:butt;stroke-linejoin:miter;stroke-miterlimit:4;stroke-dasharray:none;stroke-opacity:1"
       d="m -270.28001,19.095252 c 0,0 1.76007,2.880149 3.11804,3.514085 2.33199,1.088632 5.24038,-1.088631 7.57237,0 1.33371,0.622615 3.145,3.451329 3.145,3.451329 0,0 1.81129,-2.828714 3.145,-3.451329 2.33199,-1.088631 5.24038,1.088632 7.57237,0 1.35796,-0.633936 3.11803,-3.514085 3.11803,-3.514085"
       id="path1227"
       inkscape:connector-curvature="0"
       sodipodi:nodetypes="csscssc" />
    <path
       sodipodi:nodetypes="csscssc"
       inkscape:connector-curvature="0"
       id="path1231"
       d="m -273.11484,-64.547802 c 0,0 1.76007,-2.880149 3.11804,-3.514085 2.33199,-1.088632 5.24038,1.088631 7.57237,0 1.33371,-0.622615 3.145,-3.451329 3.145,-3.451329 0,0 1.81129,2.828714 3.145,3.451329 2.33199,1.088631 5.24038,-1.088632 7.57237,0 1.35796,0.633936 3.11803,3.514085 3.11803,3.514085"
       style="fill:none;fill-rule:evenodd;stroke:#000000;stroke-width:0.44232216;stroke-linecap:butt;stroke-linejoin:miter;stroke-miterlimit:4;stroke-dasharray:none;stroke-opacity:1" />
    <text
       xml:space="preserve"
       style="font-style:normal;font-weight:normal;font-size:8.14630318px;line-height:125%;font-family:Sans;letter-spacing:0px;word-spacing:0px;fill:#000000;fill-opacity:1;stroke:none;stroke-width:0.18102896px;stroke-linecap:butt;stroke-linejoin:miter;stroke-opacity:1"
       x="-266.85977"
       y="31.865959"
       id="text1237"><tspan
         sodipodi:role="line"
         id="tspan1235"
         x="-266.85977"
         y="31.865959"
         style="font-style:normal;font-variant:normal;font-weight:normal;font-stretch:normal;font-family:times;-inkscape-font-specification:times;stroke-width:0.18102896px">(A+2)</tspan></text>
    <text
       id="text1241"
       y="-71.500534"
       x="-285.50183"
       style="font-style:normal;font-weight:normal;font-size:8.14630318px;line-height:125%;font-family:Sans;letter-spacing:0px;word-spacing:0px;fill:#000000;fill-opacity:1;stroke:none;stroke-width:0.18102896px;stroke-linecap:butt;stroke-linejoin:miter;stroke-opacity:1"
       xml:space="preserve"><tspan
         style="font-style:normal;font-variant:normal;font-weight:normal;font-stretch:normal;font-family:times;-inkscape-font-specification:times;stroke-width:0.18102896px"
         y="-71.500534"
         x="-285.50183"
         id="tspan1239"
         sodipodi:role="line">(A+1)</tspan></text>
    <text
       xml:space="preserve"
       style="font-style:normal;font-weight:normal;font-size:8.14630318px;line-height:125%;font-family:Sans;letter-spacing:0px;word-spacing:0px;fill:#000000;fill-opacity:1;stroke:none;stroke-width:0.18102896px;stroke-linecap:butt;stroke-linejoin:miter;stroke-opacity:1"
       x="-182.78679"
       y="-164.74181"
       id="text1245"><tspan
         sodipodi:role="line"
         x="-182.78679"
         y="-164.74181"
         style="font-style:normal;font-variant:normal;font-weight:normal;font-stretch:normal;font-family:times;-inkscape-font-specification:times;stroke-width:0.18102896px"
         id="tspan13284">t </tspan></text>
    <text
       id="text1249"
       y="-176.84009"
       x="-266.37268"
       style="font-style:normal;font-weight:normal;font-size:8.14630318px;line-height:125%;font-family:Sans;letter-spacing:0px;word-spacing:0px;fill:#000000;fill-opacity:1;stroke:none;stroke-width:0.18102896px;stroke-linecap:butt;stroke-linejoin:miter;stroke-opacity:1"
       xml:space="preserve"><tspan
         style="font-style:normal;font-variant:normal;font-weight:normal;font-stretch:normal;font-family:times;-inkscape-font-specification:times;stroke-width:0.18102896px"
         y="-176.84009"
         x="-266.37268"
         id="tspan1247"
         sodipodi:role="line">A</tspan></text>
    <text
       xml:space="preserve"
       style="font-style:normal;font-weight:normal;font-size:8.14630318px;line-height:125%;font-family:Sans;letter-spacing:0px;word-spacing:0px;fill:#000000;fill-opacity:1;stroke:none;stroke-width:0.18102896px;stroke-linecap:butt;stroke-linejoin:miter;stroke-opacity:1"
       x="-190.54121"
       y="24.621222"
       id="text1253"><tspan
         sodipodi:role="line"
         id="tspan1251"
         x="-190.54121"
         y="24.621222"
         style="font-style:normal;font-variant:normal;font-weight:normal;font-stretch:normal;font-family:times;-inkscape-font-specification:times;stroke-width:0.18102896px">p</tspan></text>
    <g
       id="g1310"
       transform="translate(20.78869)">
      <path
         inkscape:connector-curvature="0"
         id="path5565"
         d="M -324.30357,19.565476 V -174.71428"
         style="fill:none;fill-rule:evenodd;stroke:#000000;stroke-width:1;stroke-linecap:butt;stroke-linejoin:miter;stroke-miterlimit:4;stroke-dasharray:none;stroke-opacity:1;marker-end:url(#marker5830)" />
      <path
         inkscape:connector-curvature="0"
         id="path1255"
         d="m -326.84269,-29.311896 h 6.33062"
         style="fill:none;fill-rule:evenodd;stroke:#000000;stroke-width:0.82264882;stroke-linecap:butt;stroke-linejoin:miter;stroke-miterlimit:4;stroke-dasharray:none;stroke-opacity:1" />
      <path
         style="fill:none;fill-rule:evenodd;stroke:#000000;stroke-width:0.82264882;stroke-linecap:butt;stroke-linejoin:miter;stroke-miterlimit:4;stroke-dasharray:none;stroke-opacity:1"
         d="m -326.84269,-52.020279 h 6.33062"
         id="path1257"
         inkscape:connector-curvature="0" />
      <path
         inkscape:connector-curvature="0"
         id="path1259"
         d="m -326.84269,-102.80432 h 6.33062"
         style="fill:none;fill-rule:evenodd;stroke:#000000;stroke-width:0.82264882;stroke-linecap:butt;stroke-linejoin:miter;stroke-miterlimit:4;stroke-dasharray:none;stroke-opacity:1" />
      <path
         style="fill:none;fill-rule:evenodd;stroke:#000000;stroke-width:0.82264882;stroke-linecap:butt;stroke-linejoin:miter;stroke-miterlimit:4;stroke-dasharray:none;stroke-opacity:1"
         d="m -326.84269,-127.60995 h 6.33062"
         id="path1261"
         inkscape:connector-curvature="0" />
      <text
         id="text1265"
         y="-170.0535"
         x="-334.79599"
         style="font-style:normal;font-weight:normal;font-size:13.4288311px;line-height:125%;font-family:Sans;letter-spacing:0px;word-spacing:0px;fill:#000000;fill-opacity:1;stroke:none;stroke-width:0.29841846px;stroke-linecap:butt;stroke-linejoin:miter;stroke-opacity:1"
         xml:space="preserve"><tspan
           style="stroke-width:0.29841846px"
           y="-170.0535"
           x="-334.79599"
           id="tspan1263"
           sodipodi:role="line">t</tspan></text>
      <text
         xml:space="preserve"
         style="font-style:normal;font-weight:normal;font-size:7.55578375px;line-height:125%;font-family:Sans;letter-spacing:0px;word-spacing:0px;fill:#000000;fill-opacity:1;stroke:none;stroke-width:0.16790631px;stroke-linecap:butt;stroke-linejoin:miter;stroke-opacity:1"
         x="-335.98279"
         y="-125.71289"
         id="text1269"><tspan
           sodipodi:role="line"
           id="tspan1267"
           x="-335.98279"
           y="-125.71289"
           style="stroke-width:0.16790631px">t<tspan
   id="tspan1289"
   style="font-size:64.99999762%;baseline-shift:sub">4</tspan></tspan></text>
      <text
         id="text1273"
         y="-100.94203"
         x="-335.8653"
         style="font-style:normal;font-weight:normal;font-size:7.55578375px;line-height:125%;font-family:Sans;letter-spacing:0px;word-spacing:0px;fill:#000000;fill-opacity:1;stroke:none;stroke-width:0.16790631px;stroke-linecap:butt;stroke-linejoin:miter;stroke-opacity:1"
         xml:space="preserve"><tspan
           style="stroke-width:0.16790631px"
           y="-100.94203"
           x="-335.8653"
           id="tspan1271"
           sodipodi:role="line">t<tspan
   id="tspan1287"
   style="font-size:64.99999762%;baseline-shift:sub">3</tspan></tspan></text>
      <text
         xml:space="preserve"
         style="font-style:normal;font-weight:normal;font-size:7.55578375px;line-height:125%;font-family:Sans;letter-spacing:0px;word-spacing:0px;fill:#000000;fill-opacity:1;stroke:none;stroke-width:0.16790631px;stroke-linecap:butt;stroke-linejoin:miter;stroke-opacity:1"
         x="-335.76697"
         y="-50.123215"
         id="text1277"><tspan
           sodipodi:role="line"
           id="tspan1275"
           x="-335.76697"
           y="-50.123215"
           style="stroke-width:0.16790631px">t<tspan
   id="tspan1285"
   style="font-size:64.99999762%;baseline-shift:sub">2</tspan></tspan></text>
      <text
         id="text1281"
         y="-27.414833"
         x="-335.80533"
         style="font-style:normal;font-weight:normal;font-size:7.55578375px;line-height:125%;font-family:Sans;letter-spacing:0px;word-spacing:0px;fill:#000000;fill-opacity:1;stroke:none;stroke-width:0.16790631px;stroke-linecap:butt;stroke-linejoin:miter;stroke-opacity:1"
         xml:space="preserve"><tspan
           style="stroke-width:0.16790631px"
           y="-27.414833"
           x="-335.80533"
           id="tspan1279"
           sodipodi:role="line">t<tspan
   id="tspan1283"
   style="font-size:64.99999762%;baseline-shift:sub">1</tspan></tspan></text>
    </g>
    <g
       id="g13278"
       transform="matrix(0.44225409,0,0,0.44225409,-164.70267,178.83452)">
      <path
         inkscape:connector-curvature="0"
         id="path3472"
         style="fill:none;stroke:#000000;stroke-width:1;stroke-linecap:round;stroke-linejoin:miter;stroke-miterlimit:4;stroke-dasharray:none;stroke-opacity:1"
         d="m -169.4727,-676.14814 c -0.29775,0.70661 -0.97155,1.23331 -1.80235,1.68239 -0.83114,0.4505 -1.7847,0.84208 -2.47791,1.3589 -0.69321,0.51647 -1.09819,1.17264 -1.15464,1.99532 -0.055,0.82408 0.22331,1.80798 0.50024,2.79188 0.27693,0.98248 0.51541,1.94698 0.40111,2.74355 -0.11324,0.79516 -0.58985,1.41535 -1.32574,1.91276 -0.73448,0.49601 -1.70074,0.88195 -2.50543,1.34514 -0.8061,0.46285 -1.41781,1.01812 -1.65347,1.75543 -0.23424,0.7373 -0.0967,1.65382 0.15981,2.62784 0.25753,0.97296 0.59655,1.98719 0.6477,2.86244 0.0508,0.87347 -0.20955,1.59843 -0.80363,2.16358 -0.59231,0.5648 -1.50071,0.97826 -2.36467,1.41217 -0.86536,0.43427 -1.64959,0.90699 -2.07115,1.55469 -0.42157,0.6477 -0.46849,1.47426 -0.29069,2.41018 0.17921,0.93698 0.55386,1.9678 0.73307,2.90336 0.17921,0.93592 0.12947,1.76248 -0.29069,2.41159 -0.42051,0.6477 -1.20579,1.11901 -2.07116,1.55434 -0.86395,0.43427 -1.77094,0.84773 -2.36467,1.41252 -0.59408,0.56374 -0.85443,1.29011 -0.80363,2.16359 0.0498,0.87524 0.39018,1.88806 0.6477,2.86208 0.25647,0.97438 0.39406,1.89089 0.15981,2.6282 -0.23565,0.73695 -0.84737,1.29258 -1.65206,1.75542 -0.80503,0.4632 -1.77094,0.84878 -2.50683,1.34514 -0.7359,0.49601 -1.2125,1.1176 -1.32574,1.91276 -0.1143,0.79481 0.12417,1.75966 0.40111,2.74356 0.27693,0.98248 0.55527,1.96779 0.50023,2.79047 -0.055,0.82409 -0.46143,1.47849 -1.15464,1.99531 -0.69179,0.51823 -1.64676,0.9084 -2.47791,1.3589 -0.83079,0.4505 -1.5046,0.97543 -1.80234,1.68381" />
      <path
         inkscape:connector-curvature="0"
         id="path3476"
         style="fill:#ffffff;fill-opacity:1;fill-rule:nonzero;stroke:#0d0000;stroke-width:0.99257779;stroke-linecap:butt;stroke-linejoin:miter;stroke-miterlimit:4;stroke-dasharray:none;stroke-opacity:1"
         d="m -152.77222,-709.21851 c -0.01,18.7579 -16.49242,33.95491 -16.49242,33.95491 0,0 -16.46625,-15.21349 -16.45631,-33.97139 0.01,-18.75789 16.49065,-33.95632 16.49065,-33.95632 0,0 16.46766,15.2149 16.45808,33.9728" />
      <g
         id="g3478"
         transform="matrix(0.24557884,0.01613507,0.02317828,-0.35277777,-591.49687,-815.14964)">
        <path
           d="m 1795.804,-210.189 11.269,-19.512"
           style="fill:none;stroke:#000000;stroke-width:2.97053099;stroke-linecap:round;stroke-linejoin:miter;stroke-miterlimit:4;stroke-dasharray:none;stroke-opacity:1"
           id="path3480"
           inkscape:connector-curvature="0" />
      </g>
      <g
         id="g3482"
         transform="matrix(0.24557884,0.01613507,0.02317828,-0.35277777,-591.49687,-815.14964)">
        <path
           d="m 1818.311,-210.187 -11.266,-19.515"
           style="fill:none;stroke:#000000;stroke-width:2.97053099;stroke-linecap:round;stroke-linejoin:miter;stroke-miterlimit:4;stroke-dasharray:none;stroke-opacity:1"
           id="path3484"
           inkscape:connector-curvature="0" />
      </g>
      <g
         id="g3486"
         transform="matrix(0.24557884,0.01248685,-0.01793755,0.35277777,-591.49687,-815.14964)">
        <path
           d="m 1658.615,252.362 11.277,-19.532"
           style="fill:none;stroke:#000000;stroke-width:2.97309494;stroke-linecap:round;stroke-linejoin:miter;stroke-miterlimit:4;stroke-dasharray:none;stroke-opacity:1"
           id="path3488"
           inkscape:connector-curvature="0" />
      </g>
      <g
         id="g3490"
         transform="matrix(0.24557884,0.01248685,-0.01793755,0.35277777,-591.49687,-815.14964)">
        <path
           d="m 1681.139,252.362 -11.275,-19.531"
           style="fill:none;stroke:#000000;stroke-width:2.97309494;stroke-linecap:round;stroke-linejoin:miter;stroke-miterlimit:4;stroke-dasharray:none;stroke-opacity:1"
           id="path3492"
           inkscape:connector-curvature="0" />
      </g>
      <g
         id="g3494"
         transform="matrix(0.35277777,0,0,0.35277777,-591.49687,-815.14964)">
        <path
           d="m 1204.863,15.863 c 0.012,2.176 -1.16,4.297 -2.82,6.399 -1.664,2.101 -3.715,4.183 -4.941,6.304 -1.231,2.122 -1.555,4.278 -0.782,6.489 0.77,2.207 2.598,4.461 4.418,6.715 1.817,2.253 3.512,4.5 4.106,6.703 0.594,2.199 0.039,4.347 -1.321,6.461 -1.363,2.113 -3.449,4.195 -5.031,6.3 -1.582,2.106 -2.554,4.235 -2.347,6.418 0.21,2.184 1.593,4.418 3.347,6.672 1.754,2.25 3.774,4.512 4.883,6.735 1.105,2.222 1.234,4.402 0.32,6.535 -0.918,2.133 -2.82,4.222 -4.59,6.32 -1.769,2.098 -3.285,4.203 -3.66,6.359 -0.375,2.161 0.422,4.368 1.93,6.61 1.512,2.238 3.641,4.508 5.148,6.746 1.512,2.242 2.309,4.449 1.934,6.605 -0.371,2.161 -1.895,4.266 -3.66,6.364 -1.77,2.093 -3.672,4.183 -4.59,6.32 -0.918,2.133 -0.785,4.312 0.32,6.535 1.106,2.223 3.125,4.485 4.883,6.735 1.754,2.25 3.137,4.484 3.348,6.667 0.211,2.184 -0.766,4.317 -2.348,6.418 -1.582,2.106 -3.668,4.188 -5.031,6.301 -1.363,2.117 -1.91,4.266 -1.32,6.465 0.589,2.199 2.289,4.449 4.105,6.703 1.82,2.254 3.645,4.508 4.418,6.715 0.773,2.207 0.445,4.367 -0.781,6.488 -1.227,2.117 -3.278,4.203 -4.942,6.305 -1.664,2.102 -2.832,4.223 -2.82,6.398"
           style="fill:none;stroke:#000000;stroke-width:2.31235504;stroke-linecap:round;stroke-linejoin:miter;stroke-miterlimit:4;stroke-dasharray:none;stroke-opacity:1"
           id="path3496"
           inkscape:connector-curvature="0" />
      </g>
      <g
         id="g3498"
         transform="matrix(0.35277777,1.8017243e-4,-1.8017243e-4,0.35277777,-591.49687,-815.14964)">
        <path
           d="m 1191.987,394.422 c 0.494,-3.047 3.36,-5.115 6.403,-4.624 3.048,0.491 5.119,3.353 4.633,6.4 -0.487,3.043 -3.345,5.119 -6.393,4.64 -3.043,-0.483 -5.126,-3.341 -4.647,-6.384"
           style="fill:#ffffff;fill-opacity:1;fill-rule:nonzero;stroke:#000000;stroke-width:1.50699604;stroke-linecap:round;stroke-linejoin:miter;stroke-miterlimit:10;stroke-dasharray:none;stroke-opacity:1"
           id="path3500"
           inkscape:connector-curvature="0" />
      </g>
      <g
         id="g3502"
         transform="matrix(0.35277777,0,0,0.35277777,-591.49687,-815.14964)">
        <path
           d="m 1144.09,1.234 h 121.988 V 58.636 H 1144.09 Z"
           style="fill:#ffffff;fill-opacity:1;fill-rule:nonzero;stroke:#000000;stroke-width:1.90547705;stroke-linecap:round;stroke-linejoin:miter;stroke-miterlimit:4;stroke-dasharray:none;stroke-opacity:1"
           id="path3504"
           inkscape:connector-curvature="0" />
      </g>
      <g
         id="g3506"
         transform="matrix(0.35277777,0,0,0.35277777,-591.49687,-815.14964)">
        <path
           d="m 1144.496,1.586 122.106,57.07"
           style="fill:#ffffff;fill-opacity:1;fill-rule:evenodd;stroke:#000000;stroke-width:2.12358999;stroke-linecap:butt;stroke-linejoin:miter;stroke-miterlimit:4;stroke-dasharray:none;stroke-opacity:1"
           id="path3508"
           inkscape:connector-curvature="0" />
      </g>
      <g
         id="g3510"
         transform="matrix(0.35277777,0,0,0.35277777,-591.49687,-815.14964)">
        <path
           d="m 1266.602,1.586 -122.106,57.07"
           style="fill:#ffffff;fill-opacity:1;fill-rule:evenodd;stroke:#000000;stroke-width:2.12358999;stroke-linecap:butt;stroke-linejoin:miter;stroke-miterlimit:4;stroke-dasharray:none;stroke-opacity:1"
           id="path3512"
           inkscape:connector-curvature="0" />
      </g>
      <path
         d="m -153.17049,-779.37984 h -1.11901 c 0,1.97873 -0.58985,3.92465 -1.6757,5.58377 l -0.2039,0.32526 c -0.11571,-3.2191 -0.64488,-6.1461 -2.96016,-6.1461 -1.5434,0 -2.03376,1.8796 -2.03376,3.65443 h 0.47413 c 0,-1.11901 0.5401,-2.23238 1.55963,-2.23238 2.01189,0 2.40347,2.60738 2.48602,5.3855 l -1.35607,1.97874 c -0.98108,1.50495 -0.58949,3.302 0.67804,3.302 1.16875,0 1.18533,-1.70886 1.18533,-3.18629 l -0.0166,-1.96215 0.57891,-0.86537 c 1.18498,-1.7914 2.40312,-3.68758 2.40312,-5.83741 z m -3.43958,8.66493 c 0,1.2072 -0.0166,2.71215 -0.7112,2.71215 -0.94792,0 -1.06363,-1.37266 -0.28646,-2.57422 l 0.98108,-1.42204 z"
         style="fill:#000000;fill-opacity:1;fill-rule:nonzero;stroke:none;stroke-width:0.35277778"
         id="path4052"
         inkscape:connector-curvature="0" />
      <g
         id="g4304"
         transform="matrix(0.24340966,0,0,0.24340966,-460.3726,-771.18311)">
        <path
           d="m 1205.934,392.07 c 0,5.301 -4.297,9.598 -9.598,9.598 -5.301,0 -9.602,-4.297 -9.602,-9.598 0,-5.304 4.301,-9.601 9.602,-9.601 5.301,0 9.598,4.297 9.598,9.601 z"
           style="fill:#000000;fill-opacity:1;fill-rule:nonzero;stroke:#000000;stroke-width:2.4000001;stroke-linecap:round;stroke-linejoin:miter;stroke-miterlimit:4;stroke-dasharray:none;stroke-opacity:1"
           id="path4306"
           inkscape:connector-curvature="0" />
      </g>
      <path
         d="m -166.90695,-648.48024 -0.22013,-0.0826 c -0.62301,0.9645 -0.8435,1.11901 -1.60973,1.11901 h -4.04601 l 2.84445,-2.98203 c 1.51024,-1.57656 2.1717,-2.86103 2.1717,-4.18394 0,-1.69192 -1.37266,-2.99861 -3.13655,-2.99861 -0.93133,0 -1.80798,0.375 -2.43628,1.05304 -0.5401,0.57326 -0.7994,1.11901 -1.08585,2.32057 l 0.35842,0.0825 c 0.67804,-1.65911 1.28411,-2.19922 2.45286,-2.19922 1.42205,0 2.38655,0.9645 2.38655,2.3869 0,1.31727 -0.77717,2.89383 -2.19922,4.40408 l -3.01519,3.19687 v 0.20426 h 6.60365 z"
         style="fill:#000000;fill-opacity:1;fill-rule:nonzero;stroke:none;stroke-width:0.35277778"
         id="path4420"
         inkscape:connector-curvature="0" />
      <path
         d="m -160.71676,-655.31919 v -0.72778 h -2.29835 v -2.30399 h -0.72778 v 2.30399 h -2.29834 v 0.72778 h 2.29834 v 2.29835 h 0.72778 v -2.29835 z"
         style="fill:#000000;fill-opacity:1;fill-rule:nonzero;stroke:none;stroke-width:0.35277778"
         id="path4422"
         inkscape:connector-curvature="0" />
    </g>
    <text
       xml:space="preserve"
       style="font-style:normal;font-weight:normal;font-size:7.69666767px;line-height:125%;font-family:Sans;letter-spacing:0px;word-spacing:0px;fill:#000000;fill-opacity:1;stroke:none;stroke-width:0.17103705px;stroke-linecap:butt;stroke-linejoin:miter;stroke-opacity:1"
       x="-231.06738"
       y="-160.79378"
       id="text13282"><tspan
         sodipodi:role="line"
         id="tspan13280"
         x="-231.06738"
         y="-160.79378"
         style="font-style:normal;font-variant:normal;font-weight:normal;font-stretch:normal;font-family:times;-inkscape-font-specification:times;stroke-width:0.17103705px">(HR)</tspan></text>
    <path
       inkscape:connector-curvature="0"
       id="path960"
       d="m -245.31741,-162.60238 a 24.795433,10.338246 0 0 1 28.41979,-8.5494 24.795433,10.338246 0 0 1 20.53937,11.83906 24.795433,10.338246 0 0 1 -28.37016,8.57801 24.795433,10.338246 0 0 1 -20.60793,-11.81832"
       style="opacity:0.28500001;fill:#003dff;fill-opacity:1;stroke:none;stroke-width:1.20387471;stroke-linecap:round;stroke-miterlimit:4;stroke-dasharray:none;stroke-dashoffset:0;stroke-opacity:1" />
    <text
       xml:space="preserve"
       style="font-style:normal;font-weight:normal;font-size:5.40052557px;line-height:125%;font-family:Sans;letter-spacing:0px;word-spacing:0px;fill:#000000;fill-opacity:1;stroke:none;stroke-width:0.12001167px;stroke-linecap:butt;stroke-linejoin:miter;stroke-opacity:1"
       x="-178.87541"
       y="-165.52075"
       id="text964"><tspan
         sodipodi:role="line"
         id="tspan962"
         x="-178.87541"
         y="-165.52075"
         style="font-style:normal;font-variant:normal;font-weight:normal;font-stretch:normal;font-family:'Abyssinica SIL';-inkscape-font-specification:'Abyssinica SIL';stroke-width:0.12001167px">(no-return event, bh)</tspan></text>
    <path
       inkscape:connector-curvature="0"
       id="path5036"
       style="fill:#000000;fill-opacity:1;fill-rule:nonzero;stroke:none;stroke-width:0.18107438"
       d="m -226.6177,-143.21485 -0.27722,-0.67903 c -0.33951,0.13853 -0.71289,0.21783 -1.07793,0.21783 -0.7214,0 -1.42597,-0.24336 -2.14737,-0.24336 -0.58287,0 -0.98178,0.54883 -0.98178,1.15724 h 0.24319 c 0,-0.30565 0.37355,-0.42733 0.73859,-0.42733 0.11318,0 0.22635,0.008 0.34785,0.0171 v 1.47974 c 0,0.78931 -0.47804,1.5194 -1.20795,1.5194 v 0.57436 c 0.94775,0 1.45131,-1.03556 1.45131,-2.09376 v -1.45421 c 0.39891,0.0538 0.78948,0.14993 1.19111,0.18379 v 2.39091 c 0,0.59121 0.6678,0.86843 1.33832,0.86843 v -0.24318 c -0.33952,0 -0.60823,-0.27741 -0.60823,-0.62525 v -2.39091 c 0.33951,-0.0339 0.67613,-0.12149 0.99011,-0.25169 z" />
    <path
       d="m -247.93244,-129.85137 -0.27722,-0.67903 c -0.33951,0.13853 -0.71289,0.21783 -1.07793,0.21783 -0.7214,0 -1.42597,-0.24336 -2.14737,-0.24336 -0.58287,0 -0.98178,0.54883 -0.98178,1.15724 h 0.24319 c 0,-0.30565 0.37355,-0.42733 0.73859,-0.42733 0.11318,0 0.22635,0.008 0.34785,0.0171 v 1.47974 c 0,0.78931 -0.47804,1.5194 -1.20795,1.5194 v 0.57436 c 0.94775,0 1.45131,-1.03556 1.45131,-2.09376 v -1.45421 c 0.39891,0.0538 0.78948,0.14993 1.19111,0.18379 v 2.39091 c 0,0.59121 0.6678,0.86843 1.33832,0.86843 v -0.24318 c -0.33952,0 -0.60823,-0.27741 -0.60823,-0.62525 v -2.39091 c 0.33951,-0.0339 0.67613,-0.12149 0.99011,-0.25169 z"
       style="fill:#000000;fill-opacity:1;fill-rule:nonzero;stroke:none;stroke-width:0.18107438"
       id="path6229"
       inkscape:connector-curvature="0" />
    <g
       id="g6241"
       transform="matrix(1.0055808,0,0,0.67021631,0.21600948,-5.6346964)">
      <path
         style="fill:none;fill-rule:evenodd;stroke:#000000;stroke-width:1;stroke-linecap:round;stroke-linejoin:miter;stroke-miterlimit:4;stroke-dasharray:none;stroke-opacity:1"
         d="m -271.54415,6.1416012 16.20184,-23.7629822"
         id="path6231"
         inkscape:connector-curvature="0" />
      <path
         inkscape:connector-curvature="0"
         id="path6233"
         d="m -239.14051,6.1416012 -16.2018,-23.7629822"
         style="fill:none;fill-rule:evenodd;stroke:#000000;stroke-width:1;stroke-linecap:round;stroke-linejoin:miter;stroke-miterlimit:4;stroke-dasharray:none;stroke-opacity:1" />
    </g>
    <g
       id="g6344"
       transform="translate(-88.3934,26.726953)">
      <g
         style="opacity:0.46400003;fill:#000000;fill-opacity:1"
         transform="matrix(0.15601741,0,0,0.15601741,-295.86705,-214.00835)"
         id="g6279">
        <path
           inkscape:connector-curvature="0"
           id="path6277"
           style="fill:#000000;fill-opacity:1;fill-rule:nonzero;stroke:#000000;stroke-width:1.90547705;stroke-linecap:round;stroke-linejoin:miter;stroke-miterlimit:4;stroke-dasharray:none;stroke-opacity:1"
           d="m 1144.09,1.234 h 121.988 V 58.636 H 1144.09 Z" />
      </g>
      <g
         transform="matrix(0.15601741,0,0,0.15601741,-295.86705,-214.00835)"
         id="g6283">
        <path
           inkscape:connector-curvature="0"
           id="path6281"
           style="fill:#ffffff;fill-opacity:1;fill-rule:evenodd;stroke:#000000;stroke-width:2.12358999;stroke-linecap:butt;stroke-linejoin:miter;stroke-miterlimit:4;stroke-dasharray:none;stroke-opacity:1"
           d="m 1144.496,1.586 122.106,57.07" />
      </g>
      <g
         transform="matrix(0.15601741,0,0,0.15601741,-295.86705,-214.00835)"
         id="g6287">
        <path
           inkscape:connector-curvature="0"
           id="path6285"
           style="fill:#ffffff;fill-opacity:1;fill-rule:evenodd;stroke:#000000;stroke-width:2.12358999;stroke-linecap:butt;stroke-linejoin:miter;stroke-miterlimit:4;stroke-dasharray:none;stroke-opacity:1"
           d="m 1266.602,1.586 -122.106,57.07" />
      </g>
    </g>
  </g>
</svg>
