<?xml version="1.0" encoding="UTF-8" standalone="no"?>
<!-- generated by Grace-5.1.25 -->

<svg
   xmlns:dc="http://purl.org/dc/elements/1.1/"
   xmlns:cc="http://creativecommons.org/ns#"
   xmlns:rdf="http://www.w3.org/1999/02/22-rdf-syntax-ns#"
   xmlns:svg="http://www.w3.org/2000/svg"
   xmlns="http://www.w3.org/2000/svg"
   xmlns:sodipodi="http://sodipodi.sourceforge.net/DTD/sodipodi-0.dtd"
   xmlns:inkscape="http://www.inkscape.org/namespaces/inkscape"
   xml:space="preserve"
   width="9.5059061in"
   height="6.454246in"
   viewBox="0 0 684.42524 464.70634"
   version="1.1"
   id="svg6549"
   sodipodi:docname="FrescoCooper.svg"
   inkscape:version="0.92.4 (5da689c313, 2019-01-14)"><metadata
   id="metadata6555"><rdf:RDF><cc:Work
       rdf:about=""><dc:format>image/svg+xml</dc:format><dc:type
         rdf:resource="http://purl.org/dc/dcmitype/StillImage" /><dc:title></dc:title></cc:Work></rdf:RDF></metadata><defs
   id="defs6553">
  
  
  
  
  
  
  
  
  
  
  
  
  
  
 </defs><sodipodi:namedview
   pagecolor="#ffffff"
   bordercolor="#666666"
   borderopacity="1"
   objecttolerance="10"
   gridtolerance="10"
   guidetolerance="10"
   inkscape:pageopacity="0"
   inkscape:pageshadow="2"
   inkscape:window-width="1600"
   inkscape:window-height="863"
   id="namedview6551"
   showgrid="false"
   inkscape:zoom="0.42862352"
   inkscape:cx="-113.83304"
   inkscape:cy="678.99397"
   inkscape:window-x="1366"
   inkscape:window-y="0"
   inkscape:window-maximized="1"
   inkscape:current-layer="svg6549"
   fit-margin-top="0"
   fit-margin-left="0"
   fit-margin-right="0"
   fit-margin-bottom="0" />
 
<g
   id="g9068"><g
     transform="matrix(1,0,0,-1,0.19014326,498.47975)"
     style="fill:none;stroke:#ff0000;stroke-width:3.50399995;stroke-linecap:butt;stroke-linejoin:miter;stroke-dasharray:none"
     id="g6099">
   <path
   d="m 87.6,495.8653 3.2444,-0.2473 3.2445,-0.7569 3.2444,-1.2409 3.2445,-1.7682 3.2444,-2.2928 3.2445,-2.8364 3.2444,-3.4031 3.2445,-3.9971 3.2444,-4.6299 3.2444,-5.2979 3.2445,-6.0186 3.2444,-6.7718 3.2445,-7.5527 3.2444,-8.2777 3.2445,-8.7787 3.2444,-8.6401 3.2445,-7.1971 3.2444,-3.9841 3.2444,0.1989 3.2445,3.4907 3.2444,5.0316 3.2445,5.2722 3.2444,4.8917 3.2445,4.2878 3.2444,3.6449 3.2445,3.031 3.2444,2.4297 3.2444,1.9129 3.2445,1.3866 3.2444,0.8934 3.2445,0.4207 3.2444,-0.072 3.2445,-0.5543 3.2444,-1.085 3.2445,-1.6055 3.2444,-2.212 3.2444,-2.8234 3.2445,-3.5478 3.2444,-4.3312 3.2445,-5.256 3.2444,-6.3551 3.2445,-7.7253 3.2444,-9.4844 3.2445,-11.9196 3.2444,-15.4636 3.2444,-20.9474 3.2445,-26.5591 3.2444,-3.6038 3.2445,24.1711 3.2444,19.5023 3.2445,13.7562 3.2444,10.0296 3.2445,7.4907 3.2444,5.6452 3.2444,4.2278 3.2445,3.0661 3.2444,2.0904 3.2445,1.2267 3.2444,0.4437 3.2445,-0.2829 3.2444,-0.9809 3.2445,-1.6732 3.2444,-2.3669 3.2444,-3.087 3.2445,-3.8669 3.2444,-4.7218 3.2445,-5.692 3.2444,-6.851 3.2445,-8.2931 3.2444,-10.1676 3.2445,-12.8459 3.2444,-17.0261 3.2444,-24.629 3.2445,-39.403 3.2444,-0.6282 3.2445,36.4972 3.2444,21.8027 3.2445,14.3027 3.2444,10.1468 3.2445,7.5056 3.2444,5.6392 3.2444,4.2253 3.2445,3.0873 3.2444,2.1291 3.2445,1.3324 3.2444,0.568 3.2445,-0.1251 3.2444,-0.764 3.2445,-1.4184 3.2444,-2.0167 3.2444,-2.6962 3.2445,-3.3701 3.2444,-4.0991 3.2445,-4.918 3.2444,-5.8454 3.2445,-6.9465 3.2444,-8.2942 3.2445,-10.0201 3.2444,-12.3596 3.2444,-15.6077 3.2445,-19.771 3.2444,-19.7263 3.2445,2.171 3.2444,18.4698 3.2445,16.2091 3.2444,12.1942 3.2445,9.2198 3.2444,7.083 3.2444,5.4931 3.2445,4.2552 3.2444,3.259 3.2445,2.4324 3.2444,1.7112 3.2445,1.0849 3.2444,0.5173 h 3.2445 l 3.2444,-0.4847 3.2444,-0.9475 3.2445,-1.3931 3.2444,-1.8285 3.2445,-2.2758 3.2444,-2.7128 3.2445,-3.1875 3.2444,-3.6663 3.2445,-4.1841 3.2444,-4.7347 3.2444,-5.3572 3.2445,-6.0193 3.2444,-6.7225 3.2445,-7.4247 3.2444,-7.9855 3.2445,-8.0531 3.2444,-6.9642 3.2445,-3.9954 3.2444,0.4049 3.2444,4.2627 3.2445,6.2575 3.2444,6.6649 3.2445,6.3002 3.2444,5.6389 3.2445,4.9254 3.2444,4.2391 3.2445,3.61 3.2444,3.0308 3.2444,2.5119 3.2445,2.0359 3.2444,1.5847 3.2445,1.1647 3.2444,0.7758 3.2445,0.4 3.2444,0.0417 3.2445,-0.3147 3.2444,-0.6632 3.2444,-0.995 3.2445,-1.3671 3.2444,-1.6764 3.2445,-2.0324 3.2444,-2.3866 3.2445,-2.7417 3.2444,-3.1083 3.2445,-3.4769 3.2444,-3.8509 3.2444,-4.2196 3.2445,-4.5739 3.2444,-4.8965 3.2445,-5.126 3.2444,-5.2566 3.2445,-5.1518 3.2444,-4.7855 3.2445,-4.0322 3.2444,-2.9774 3.2444,-1.7007 3.2445,-0.4809 3.2444,0.4697 3.2445,1.0486 3.2444,1.2713 3.2445,1.2272 3.2444,0.9788 3.2445,0.6244 3.2444,0.2274"
   id="path6095"
   inkscape:connector-curvature="0" />
   <path
   d="m 87.6,479.6999 3.2444,-0.2997 3.2445,-0.903 3.2444,-1.5179 3.2445,-2.1519 3.2444,-2.8171 3.2445,-3.5161 3.2444,-4.2771 3.2445,-5.0989 3.2444,-6.0199 3.2444,-7.0715 3.2445,-8.2673 3.2444,-9.6752 3.2445,-11.1968 3.2444,-12.5306 3.2445,-12.3597 3.2444,-7.6884 3.2445,1.4499 3.2444,7.777 3.2444,8.9301 3.2445,7.9112 3.2444,6.4847 3.2445,5.1927 3.2444,4.1058 3.2445,3.2127 3.2444,2.466 3.2445,1.835 3.2444,1.2878 3.2444,0.8037 3.2445,0.3395 3.2444,-0.0723 3.2445,-0.5372 3.2444,-0.9762 3.2445,-1.4522 3.2444,-1.9696 3.2445,-2.5436 3.2444,-3.1894 3.2444,-3.9282 3.2445,-4.7982 3.2444,-5.8423 3.2445,-7.1467 3.2444,-8.8372 3.2445,-11.1537 3.2444,-14.6024 3.2445,-20.2398 3.2444,-29.3012 3.2444,-16.2986 3.2445,28.9098 3.2444,23.3265 3.2445,15.7573 3.2444,11.2776 3.2445,8.4149 3.2444,6.3843 3.2445,4.8467 3.2444,3.6147 3.2444,2.5923 3.2445,1.6996 3.2444,0.9004 3.2445,0.1568 3.2444,-0.5463 3.2445,-1.2343 3.2444,-1.9239 3.2445,-2.6302 3.2444,-3.3748 3.2444,-4.18 3.2445,-5.0853 3.2444,-6.1327 3.2445,-7.4058 3.2444,-9.0237 3.2445,-11.1887 3.2444,-14.366 3.2445,-19.5031 3.2444,-28.4431 3.2444,-27.8045 3.2445,25.9574 3.2444,25.7216 3.2445,16.8498 3.2444,11.7912 3.2445,8.6473 3.2444,6.4998 3.2445,4.9112 3.2444,3.6631 3.2444,2.6352 3.2445,1.756 3.2444,0.9785 3.2445,0.2448 3.2444,-0.3929 3.2445,-1.0617 3.2444,-1.6953 3.2445,-2.346 3.2444,-3.0215 3.2444,-3.7424 3.2445,-4.5357 3.2444,-5.4433 3.2445,-6.4941 3.2444,-7.801 3.2445,-9.4775 3.2444,-11.7707 3.2445,-15.2043 3.2444,-20.9458 3.2444,-31.1774 3.2445,-21.9769 3.2444,31.714 3.2445,24.3579 3.2444,15.9709 3.2445,11.2806 3.2444,8.3623 3.2445,6.3591 3.2444,4.8603 3.2444,3.7085 3.2445,2.7553 3.2444,1.9531 3.2445,1.2611 3.2444,0.6357 3.2445,0.0749 3.2444,-0.462 3.2445,-0.9699 3.2444,-1.445 3.2444,-1.937 3.2445,-2.4081 3.2444,-2.9137 3.2445,-3.424 3.2444,-3.9834 3.2445,-4.5999 3.2444,-5.2813 3.2445,-6.0878 3.2444,-7.0592 3.2444,-8.2893 3.2445,-9.9272 3.2444,-12.2783 3.2445,-16.0056 3.2444,-22.9975 3.2445,-41.8248 3.2444,-68.5772 3.2445,87.7691 3.2444,29.2729 3.2444,17.627 3.2445,12.3913 3.2444,9.3575 3.2445,7.3624 3.2444,5.9351 3.2445,4.8449 3.2444,3.9715 3.2445,3.2426 3.2444,2.6181 3.2444,2.0659 3.2445,1.5719 3.2444,1.112 3.2445,0.6822 3.2444,0.2703 3.2445,-0.1316 3.2444,-0.5208 3.2445,-0.9148 3.2444,-1.3112 3.2444,-1.7115 3.2445,-2.1329 3.2444,-2.5693 3.2445,-3.035 3.2444,-3.5343 3.2445,-4.0789 3.2444,-4.6874 3.2445,-5.3712 3.2444,-6.1452 3.2444,-7.0465 3.2445,-8.1086 3.2444,-9.364 3.2445,-10.727 3.2444,-11.9189 3.2445,-11.7182 3.2444,-7.4819 3.2445,1.1523 3.2444,7.5839 3.2444,9.0604 3.2445,8.1613 3.2444,6.7507 3.2445,5.3816 3.2444,4.1641 3.2445,3.0905 3.2444,2.1322 3.2445,1.2512 3.2444,0.4132"
   id="path6097"
   inkscape:connector-curvature="0" />
  </g><g
     transform="matrix(1,0,0,-1,0.19014326,498.47975)"
     style="fill:none;stroke:#000000;stroke-width:3.50399995;stroke-linecap:butt;stroke-linejoin:miter;stroke-dasharray:none"
     id="g6105">
   <path
   d="m 87.6,475.8986 2.92,-0.2455 2.92,-0.7389 2.92,-1.2396 2.92,-1.7525 2.92,-2.284 2.92,-2.8403 2.92,-3.4299 2.92,-4.0621 2.92,-4.7495 2.92,-5.5057 2.92,-6.3478 2.92,-7.2895 2.92,-8.332 2.92,-9.4235 2.92,-10.3477 2.92,-10.4443 2.92,-8.2916 2.92,-2.8424 2.92,3.3799 2.92,6.7154 2.92,7.2562 2.92,6.5801 2.92,5.5968 2.92,4.6342 2.92,3.7812 2.92,3.0467 2.92,2.4165 2.92,1.8718 2.92,1.3937 2.92,0.9662 2.92,0.5745 2.92,0.2061 2.92,-0.1499 2.92,-0.504 2.92,-0.8649 2.92,-1.2417 2.92,-1.6427 2.92,-2.0771 2.92,-2.5551 2.92,-3.0894 2.92,-3.696 2.92,-4.3972 2.92,-5.2253 2.92,-6.2282 2.92,-7.4816 2.92,-9.1113 2.92,-11.334 2.92,-14.5291 2.92,-19.1912 2.92,-23.2726 2.92,-5.5039 2.92,20.7708 2.92,19.2441 2.92,14.2027 2.92,10.6395 2.92,8.1789 2.92,6.3871 2.92,5.0108 2.92,3.9038 2.92,2.9788 2.92,2.1798 2.92,1.47 2.92,0.8231 2.92,0.2198 2.92,-0.3551 2.92,-0.9146 2.92,-1.4703 2.92,-2.0335 2.92,-2.6166 2.92,-3.234 2.92,-3.9031 2.92,-4.6472 2.92,-5.4993 2.92,-6.5071 2.92,-7.7461 2.92,-9.3409 2.92,-11.5119 2.92,-14.6777 2.92,-19.6249 2.92,-26.5613 2.92,-15.4691 2.92,22.8375 2.92,21.925 2.92,15.409 2.92,11.2057 2.92,8.4618 2.92,6.5361 2.92,5.0963 2.92,3.9631 2.92,3.0332 2.92,2.2426 2.92,1.5501 2.92,0.927 2.92,0.3526 2.92,-0.1887 2.92,-0.7097 2.92,-1.2214 2.92,-1.7339 2.92,-2.2577 2.92,-2.8039 2.92,-3.3853 2.92,-4.0186 2.92,-4.725 2.92,-5.5345 2.92,-6.4909 2.92,-7.6614 2.92,-9.1558 2.92,-11.1626 2.92,-14.0234 2.92,-18.3294 2.92,-24.1508 2.92,-18.1654 2.92,16.7143 2.92,21.5543 2.92,15.7416 2.92,11.5142 2.92,8.7095 2.92,6.746 2.92,5.2902 2.92,4.1576 2.92,3.2415 2.92,2.4762 2.92,1.8193 2.92,1.2419 2.92,0.7237 2.92,0.25 2.92,-0.1911 2.92,-0.6088 2.92,-1.0111 2.92,-1.4048 2.92,-1.7971 2.92,-2.1948 2.92,-2.6048 2.92,-3.036 2.92,-3.498 2.92,-4.0038 2.92,-4.5692 2.92,-5.2174 2.92,-5.9806 2.92,-6.9089 2.92,-8.0816 2.92,-9.637 2.92,-11.8368 2.92,-15.2464 2.92,-21.3492 2.92,-35.5538 2.92,-57.4358 2.92,62.185 2.92,30.6282 2.92,18.3695 2.92,12.8523 2.92,9.7099 2.92,7.6693 2.92,6.2298 2.92,5.1526 2.92,4.3097 2.92,3.6262 2.92,3.0548 2.92,2.5637 2.92,2.1313 2.92,1.7417 2.92,1.3832 2.92,1.0468 2.92,0.7258 2.92,0.4147 2.92,0.109 2.92,-0.1951 2.92,-0.5007 2.92,-0.8104 2.92,-1.1273 2.92,-1.4539 2.92,-1.7929 2.92,-2.1474 2.92,-2.5209 2.92,-2.9174 2.92,-3.3415 2.92,-3.799 2.92,-4.2964 2.92,-4.841 2.92,-5.4406 2.92,-6.0996 2.92,-6.8143 2.92,-7.5554 2.92,-8.2272 2.92,-8.5817 2.92,-8.0815 2.92,-5.9349 2.92,-1.94 2.92,2.3774 2.92,5.1035 2.92,5.9909 2.92,5.7954 2.92,5.1531 2.92,4.3816 2.92,3.6073 2.92,2.8712 2.92,2.1804 2.92,1.5285 2.92,0.9056"
   id="path6101"
   inkscape:connector-curvature="0" />
   <path
   d="m 87.6,492.1066 2.92,-0.2025 2.92,-0.6086 2.92,-1.0182 2.92,-1.4335 2.92,-1.857 2.92,-2.2916 2.92,-2.7398 2.92,-3.2049 2.92,-3.6898 2.92,-4.1973 2.92,-4.7285 2.92,-5.2814 2.92,-5.8468 2.92,-6.3996 2.92,-6.8821 2.92,-7.176 2.92,-7.0636 2.92,-6.2215 2.92,-4.3768 2.92,-1.6957 2.92,1.0344 2.92,2.9907 2.92,3.9529 2.92,4.1728 2.92,3.9765 2.92,3.5893 2.92,3.1336 2.92,2.6675 2.92,2.2149 2.92,1.783 2.92,1.3705 2.92,0.9739 2.92,0.5876 2.92,0.2053 2.92,-0.1784 2.92,-0.5688 2.92,-0.9725 2.92,-1.3949 2.92,-1.843 2.92,-2.3245 2.92,-2.8492 2.92,-3.4301 2.92,-4.0839 2.92,-4.8347 2.92,-5.7168 2.92,-6.7825 2.92,-8.112 2.92,-9.8349 2.92,-12.1583 2.92,-15.3555 2.92,-19.1732 2.92,-17.5548 2.92,4.2628 2.92,17.9917 2.92,15.767 2.92,12.0267 2.92,9.1941 2.92,7.124 2.92,5.5574 2.92,4.3203 2.92,3.3049 2.92,2.4422 2.92,1.6872 2.92,1.0084 2.92,0.3828 2.92,-0.2069 2.92,-0.775 2.92,-1.3343 2.92,-1.8965 2.92,-2.4744 2.92,-3.0816 2.92,-3.7354 2.92,-4.4584 2.92,-5.281 2.92,-6.2494 2.92,-7.4354 2.92,-8.9605 2.92,-11.0497 2.92,-14.1753 2.92,-19.5347 2.92,-31.3817 2.92,-91.5569 2.92,69.1739 2.92,39.3146 2.92,20.6366 2.92,13.6088 2.92,9.8244 2.92,7.4125 2.92,5.7097 2.92,4.4198 2.92,3.3901 2.92,2.5329 2.92,1.7946 2.92,1.1396 2.92,0.5433 2.92,-0.0126 2.92,-0.542 2.92,-1.0568 2.92,-1.5676 2.92,-2.0846 2.92,-2.6184 2.92,-3.1811 2.92,-3.7875 2.92,-4.4568 2.92,-5.2148 2.92,-6.0998 2.92,-7.1695 2.92,-8.5181 2.92,-10.311 2.92,-12.8655 2.92,-16.8716 2.92,-24.057 2.92,-37.5572 2.92,-3.7581 2.92,35.8298 2.92,22.165 2.92,14.7003 2.92,10.5875 2.92,7.9957 2.92,6.1985 2.92,4.8657 2.92,3.8258 2.92,2.9823 2.92,2.276 2.92,1.6691 2.92,1.1357 2.92,0.6571 2.92,0.2201 2.92,-0.1859 2.92,-0.5695 2.92,-0.9377 2.92,-1.2968 2.92,-1.6525 2.92,-2.011 2.92,-2.3774 2.92,-2.7586 2.92,-3.1608 2.92,-3.5923 2.92,-4.0623 2.92,-4.5818 2.92,-5.1636 2.92,-5.8226 2.92,-6.5722 2.92,-7.4166 2.92,-8.324 2.92,-9.1517 2.92,-9.4542 2.92,-8.1737 2.92,-3.997 2.92,2.1335 2.92,6.6262 2.92,8.1631 2.92,7.9749 2.92,7.189 2.92,6.2995 2.92,5.468 2.92,4.7328 2.92,4.0907 2.92,3.5286 2.92,3.0316 2.92,2.5864 2.92,2.182 2.92,1.8097 2.92,1.4616 2.92,1.1325 2.92,0.8172 2.92,0.5119 2.92,0.2132 2.92,-0.0817 2.92,-0.3753 2.92,-0.6695 2.92,-0.9661 2.92,-1.2665 2.92,-1.5725 2.92,-1.8849 2.92,-2.2043 2.92,-2.5311 2.92,-2.8647 2.92,-3.2031 2.92,-3.5428 2.92,-3.8762 2.92,-4.191 2.92,-4.4662 2.92,-4.6687 2.92,-4.7494 2.92,-4.6419 2.92,-4.2715 2.92,-3.5833 2.92,-2.5905 2.92,-1.4095 2.92,-0.2414 2.92,0.7171 2.92,1.3581 2.92,1.6771 2.92,1.7314 2.92,1.5956 2.92,1.3344 2.92,0.9959 2.92,0.6126"
   id="path6103"
   inkscape:connector-curvature="0" />
  </g><g
     transform="matrix(1,0,0,-1,0.19014326,498.47975)"
     style="fill:none;stroke:#000000;stroke-width:0.87599999;stroke-linecap:butt;stroke-linejoin:miter;stroke-dasharray:none"
     id="g6187">
   <path
   d="m 87.6,87.6 h 584"
   id="path6107"
   inkscape:connector-curvature="0" />
   <path
   d="m 87.6,496.4 h 584"
   id="path6109"
   inkscape:connector-curvature="0" />
   <path
   d="m 120.0444,87.6 v 5.84"
   id="path6111"
   inkscape:connector-curvature="0" />
   <path
   d="m 120.0444,496.4 v -5.84"
   id="path6113"
   inkscape:connector-curvature="0" />
   <path
   d="m 184.9333,87.6 v 5.84"
   id="path6115"
   inkscape:connector-curvature="0" />
   <path
   d="m 184.9333,496.4 v -5.84"
   id="path6117"
   inkscape:connector-curvature="0" />
   <path
   d="m 249.8222,87.6 v 5.84"
   id="path6119"
   inkscape:connector-curvature="0" />
   <path
   d="m 249.8222,496.4 v -5.84"
   id="path6121"
   inkscape:connector-curvature="0" />
   <path
   d="m 314.7111,87.6 v 5.84"
   id="path6123"
   inkscape:connector-curvature="0" />
   <path
   d="m 314.7111,496.4 v -5.84"
   id="path6125"
   inkscape:connector-curvature="0" />
   <path
   d="m 379.6,87.6 v 5.84"
   id="path6127"
   inkscape:connector-curvature="0" />
   <path
   d="m 379.6,496.4 v -5.84"
   id="path6129"
   inkscape:connector-curvature="0" />
   <path
   d="m 444.4889,87.6 v 5.84"
   id="path6131"
   inkscape:connector-curvature="0" />
   <path
   d="m 444.4889,496.4 v -5.84"
   id="path6133"
   inkscape:connector-curvature="0" />
   <path
   d="m 509.3778,87.6 v 5.84"
   id="path6135"
   inkscape:connector-curvature="0" />
   <path
   d="m 509.3778,496.4 v -5.84"
   id="path6137"
   inkscape:connector-curvature="0" />
   <path
   d="m 574.2667,87.6 v 5.84"
   id="path6139"
   inkscape:connector-curvature="0" />
   <path
   d="m 574.2667,496.4 v -5.84"
   id="path6141"
   inkscape:connector-curvature="0" />
   <path
   d="m 639.1556,87.6 v 5.84"
   id="path6143"
   inkscape:connector-curvature="0" />
   <path
   d="m 639.1556,496.4 v -5.84"
   id="path6145"
   inkscape:connector-curvature="0" />
   <path
   d="M 87.6,87.6 V 99.28"
   id="path6147"
   inkscape:connector-curvature="0" />
   <path
   d="M 87.6,496.4 V 484.72"
   id="path6149"
   inkscape:connector-curvature="0" />
   <path
   d="M 152.4889,87.6 V 99.28"
   id="path6151"
   inkscape:connector-curvature="0" />
   <path
   d="M 152.4889,496.4 V 484.72"
   id="path6153"
   inkscape:connector-curvature="0" />
   <path
   d="M 217.3778,87.6 V 99.28"
   id="path6155"
   inkscape:connector-curvature="0" />
   <path
   d="M 217.3778,496.4 V 484.72"
   id="path6157"
   inkscape:connector-curvature="0" />
   <path
   d="M 282.2667,87.6 V 99.28"
   id="path6159"
   inkscape:connector-curvature="0" />
   <path
   d="M 282.2667,496.4 V 484.72"
   id="path6161"
   inkscape:connector-curvature="0" />
   <path
   d="M 347.1556,87.6 V 99.28"
   id="path6163"
   inkscape:connector-curvature="0" />
   <path
   d="M 347.1556,496.4 V 484.72"
   id="path6165"
   inkscape:connector-curvature="0" />
   <path
   d="M 412.0444,87.6 V 99.28"
   id="path6167"
   inkscape:connector-curvature="0" />
   <path
   d="M 412.0444,496.4 V 484.72"
   id="path6169"
   inkscape:connector-curvature="0" />
   <path
   d="M 476.9333,87.6 V 99.28"
   id="path6171"
   inkscape:connector-curvature="0" />
   <path
   d="M 476.9333,496.4 V 484.72"
   id="path6173"
   inkscape:connector-curvature="0" />
   <path
   d="M 541.8222,87.6 V 99.28"
   id="path6175"
   inkscape:connector-curvature="0" />
   <path
   d="M 541.8222,496.4 V 484.72"
   id="path6177"
   inkscape:connector-curvature="0" />
   <path
   d="M 606.7111,87.6 V 99.28"
   id="path6179"
   inkscape:connector-curvature="0" />
   <path
   d="M 606.7111,496.4 V 484.72"
   id="path6181"
   inkscape:connector-curvature="0" />
   <path
   d="M 671.6,87.6 V 99.28"
   id="path6183"
   inkscape:connector-curvature="0" />
   <path
   d="M 671.6,496.4 V 484.72"
   id="path6185"
   inkscape:connector-curvature="0" />
  </g><g
     transform="matrix(1,0,0,-1,0.19014326,498.47975)"
     style="fill:#000000;fill-rule:nonzero"
     id="g6209">
   <text
   style="font-style:normal;font-weight:normal;font-size:584px;font-family:Times, 'Nimbus Roman No9 L'"
   transform="matrix(0.028,0,0,-0.028,84.1,70.76)"
   id="text6189">0</text>

   <text
   style="font-style:normal;font-weight:normal;font-size:584px;font-family:Times, 'Nimbus Roman No9 L'"
   transform="matrix(0.028,0,0,-0.028,144.9889,70.76)"
   id="text6191">20</text>

   <text
   style="font-style:normal;font-weight:normal;font-size:584px;font-family:Times, 'Nimbus Roman No9 L'"
   transform="matrix(0.028,0,0,-0.028,209.8778,70.76)"
   id="text6193">40</text>

   <text
   style="font-style:normal;font-weight:normal;font-size:584px;font-family:Times, 'Nimbus Roman No9 L'"
   transform="matrix(0.028,0,0,-0.028,274.7667,70.76)"
   id="text6195">60</text>

   <text
   style="font-style:normal;font-weight:normal;font-size:584px;font-family:Times, 'Nimbus Roman No9 L'"
   transform="matrix(0.028,0,0,-0.028,339.6556,70.76)"
   id="text6197">80</text>

   <text
   style="font-style:normal;font-weight:normal;font-size:584px;font-family:Times, 'Nimbus Roman No9 L'"
   transform="matrix(0.028,0,0,-0.028,400.5444,70.76)"
   id="text6199">100</text>

   <text
   style="font-style:normal;font-weight:normal;font-size:584px;font-family:Times, 'Nimbus Roman No9 L'"
   transform="matrix(0.028,0,0,-0.028,465.4333,70.76)"
   id="text6201">120</text>

   <text
   style="font-style:normal;font-weight:normal;font-size:584px;font-family:Times, 'Nimbus Roman No9 L'"
   transform="matrix(0.028,0,0,-0.028,530.3222,70.76)"
   id="text6203">140</text>

   <text
   style="font-style:normal;font-weight:normal;font-size:584px;font-family:Times, 'Nimbus Roman No9 L'"
   transform="matrix(0.028,0,0,-0.028,595.2111,70.76)"
   id="text6205">160</text>

   <text
   style="font-style:normal;font-weight:normal;font-size:584px;font-family:Times, 'Nimbus Roman No9 L'"
   transform="matrix(0.028,0,0,-0.028,660.1,70.76)"
   id="text6207">180</text>

  </g><g
     transform="matrix(1,0,0,-1,0.19014326,498.47975)"
     style="fill:none;stroke:#000000;stroke-width:0.87599999;stroke-linecap:butt;stroke-linejoin:miter;stroke-dasharray:none"
     id="g6499">
   <path
   d="M 87.6,87.6 V 496.4"
   id="path6211"
   inkscape:connector-curvature="0" />
   <path
   d="M 671.6,87.6 V 496.4"
   id="path6213"
   inkscape:connector-curvature="0" />
   <path
   d="m 87.6,105.0307 h 5.84"
   id="path6215"
   inkscape:connector-curvature="0" />
   <path
   d="m 671.6,105.0307 h -5.84"
   id="path6217"
   inkscape:connector-curvature="0" />
   <path
   d="m 87.6,115.2271 h 5.84"
   id="path6219"
   inkscape:connector-curvature="0" />
   <path
   d="m 671.6,115.2271 h -5.84"
   id="path6221"
   inkscape:connector-curvature="0" />
   <path
   d="m 87.6,122.4615 h 5.84"
   id="path6223"
   inkscape:connector-curvature="0" />
   <path
   d="m 671.6,122.4615 h -5.84"
   id="path6225"
   inkscape:connector-curvature="0" />
   <path
   d="m 87.6,128.0729 h 5.84"
   id="path6227"
   inkscape:connector-curvature="0" />
   <path
   d="m 671.6,128.0729 h -5.84"
   id="path6229"
   inkscape:connector-curvature="0" />
   <path
   d="m 87.6,132.6578 h 5.84"
   id="path6231"
   inkscape:connector-curvature="0" />
   <path
   d="m 671.6,132.6578 h -5.84"
   id="path6233"
   inkscape:connector-curvature="0" />
   <path
   d="m 87.6,136.5343 h 5.84"
   id="path6235"
   inkscape:connector-curvature="0" />
   <path
   d="m 671.6,136.5343 h -5.84"
   id="path6237"
   inkscape:connector-curvature="0" />
   <path
   d="m 87.6,139.8922 h 5.84"
   id="path6239"
   inkscape:connector-curvature="0" />
   <path
   d="m 671.6,139.8922 h -5.84"
   id="path6241"
   inkscape:connector-curvature="0" />
   <path
   d="m 87.6,142.8542 h 5.84"
   id="path6243"
   inkscape:connector-curvature="0" />
   <path
   d="m 671.6,142.8542 h -5.84"
   id="path6245"
   inkscape:connector-curvature="0" />
   <path
   d="m 87.6,145.5037 h 5.84"
   id="path6247"
   inkscape:connector-curvature="0" />
   <path
   d="m 671.6,145.5037 h -5.84"
   id="path6249"
   inkscape:connector-curvature="0" />
   <path
   d="m 87.6,162.9344 h 5.84"
   id="path6251"
   inkscape:connector-curvature="0" />
   <path
   d="m 671.6,162.9344 h -5.84"
   id="path6253"
   inkscape:connector-curvature="0" />
   <path
   d="m 87.6,173.1308 h 5.84"
   id="path6255"
   inkscape:connector-curvature="0" />
   <path
   d="m 671.6,173.1308 h -5.84"
   id="path6257"
   inkscape:connector-curvature="0" />
   <path
   d="m 87.6,180.3652 h 5.84"
   id="path6259"
   inkscape:connector-curvature="0" />
   <path
   d="m 671.6,180.3652 h -5.84"
   id="path6261"
   inkscape:connector-curvature="0" />
   <path
   d="m 87.6,185.9766 h 5.84"
   id="path6263"
   inkscape:connector-curvature="0" />
   <path
   d="m 671.6,185.9766 h -5.84"
   id="path6265"
   inkscape:connector-curvature="0" />
   <path
   d="m 87.6,190.5615 h 5.84"
   id="path6267"
   inkscape:connector-curvature="0" />
   <path
   d="m 671.6,190.5615 h -5.84"
   id="path6269"
   inkscape:connector-curvature="0" />
   <path
   d="m 87.6,194.438 h 5.84"
   id="path6271"
   inkscape:connector-curvature="0" />
   <path
   d="m 671.6,194.438 h -5.84"
   id="path6273"
   inkscape:connector-curvature="0" />
   <path
   d="m 87.6,197.7959 h 5.84"
   id="path6275"
   inkscape:connector-curvature="0" />
   <path
   d="m 671.6,197.7959 h -5.84"
   id="path6277"
   inkscape:connector-curvature="0" />
   <path
   d="m 87.6,200.7578 h 5.84"
   id="path6279"
   inkscape:connector-curvature="0" />
   <path
   d="m 671.6,200.7578 h -5.84"
   id="path6281"
   inkscape:connector-curvature="0" />
   <path
   d="m 87.6,203.4074 h 5.84"
   id="path6283"
   inkscape:connector-curvature="0" />
   <path
   d="m 671.6,203.4074 h -5.84"
   id="path6285"
   inkscape:connector-curvature="0" />
   <path
   d="m 87.6,220.8381 h 5.84"
   id="path6287"
   inkscape:connector-curvature="0" />
   <path
   d="m 671.6,220.8381 h -5.84"
   id="path6289"
   inkscape:connector-curvature="0" />
   <path
   d="m 87.6,231.0344 h 5.84"
   id="path6291"
   inkscape:connector-curvature="0" />
   <path
   d="m 671.6,231.0344 h -5.84"
   id="path6293"
   inkscape:connector-curvature="0" />
   <path
   d="m 87.6,238.2689 h 5.84"
   id="path6295"
   inkscape:connector-curvature="0" />
   <path
   d="m 671.6,238.2689 h -5.84"
   id="path6297"
   inkscape:connector-curvature="0" />
   <path
   d="m 87.6,243.8803 h 5.84"
   id="path6299"
   inkscape:connector-curvature="0" />
   <path
   d="m 671.6,243.8803 h -5.84"
   id="path6301"
   inkscape:connector-curvature="0" />
   <path
   d="m 87.6,248.4652 h 5.84"
   id="path6303"
   inkscape:connector-curvature="0" />
   <path
   d="m 671.6,248.4652 h -5.84"
   id="path6305"
   inkscape:connector-curvature="0" />
   <path
   d="m 87.6,252.3417 h 5.84"
   id="path6307"
   inkscape:connector-curvature="0" />
   <path
   d="m 671.6,252.3417 h -5.84"
   id="path6309"
   inkscape:connector-curvature="0" />
   <path
   d="m 87.6,255.6996 h 5.84"
   id="path6311"
   inkscape:connector-curvature="0" />
   <path
   d="m 671.6,255.6996 h -5.84"
   id="path6313"
   inkscape:connector-curvature="0" />
   <path
   d="m 87.6,258.6615 h 5.84"
   id="path6315"
   inkscape:connector-curvature="0" />
   <path
   d="m 671.6,258.6615 h -5.84"
   id="path6317"
   inkscape:connector-curvature="0" />
   <path
   d="m 87.6,261.311 h 5.84"
   id="path6319"
   inkscape:connector-curvature="0" />
   <path
   d="m 671.6,261.311 h -5.84"
   id="path6321"
   inkscape:connector-curvature="0" />
   <path
   d="m 87.6,278.7418 h 5.84"
   id="path6323"
   inkscape:connector-curvature="0" />
   <path
   d="m 671.6,278.7418 h -5.84"
   id="path6325"
   inkscape:connector-curvature="0" />
   <path
   d="m 87.6,288.9381 h 5.84"
   id="path6327"
   inkscape:connector-curvature="0" />
   <path
   d="m 671.6,288.9381 h -5.84"
   id="path6329"
   inkscape:connector-curvature="0" />
   <path
   d="m 87.6,296.1725 h 5.84"
   id="path6331"
   inkscape:connector-curvature="0" />
   <path
   d="m 671.6,296.1725 h -5.84"
   id="path6333"
   inkscape:connector-curvature="0" />
   <path
   d="m 87.6,301.784 h 5.84"
   id="path6335"
   inkscape:connector-curvature="0" />
   <path
   d="m 671.6,301.784 h -5.84"
   id="path6337"
   inkscape:connector-curvature="0" />
   <path
   d="m 87.6,306.3689 h 5.84"
   id="path6339"
   inkscape:connector-curvature="0" />
   <path
   d="m 671.6,306.3689 h -5.84"
   id="path6341"
   inkscape:connector-curvature="0" />
   <path
   d="m 87.6,310.2453 h 5.84"
   id="path6343"
   inkscape:connector-curvature="0" />
   <path
   d="m 671.6,310.2453 h -5.84"
   id="path6345"
   inkscape:connector-curvature="0" />
   <path
   d="m 87.6,313.6033 h 5.84"
   id="path6347"
   inkscape:connector-curvature="0" />
   <path
   d="m 671.6,313.6033 h -5.84"
   id="path6349"
   inkscape:connector-curvature="0" />
   <path
   d="m 87.6,316.5652 h 5.84"
   id="path6351"
   inkscape:connector-curvature="0" />
   <path
   d="m 671.6,316.5652 h -5.84"
   id="path6353"
   inkscape:connector-curvature="0" />
   <path
   d="m 87.6,319.2147 h 5.84"
   id="path6355"
   inkscape:connector-curvature="0" />
   <path
   d="m 671.6,319.2147 h -5.84"
   id="path6357"
   inkscape:connector-curvature="0" />
   <path
   d="m 87.6,336.6455 h 5.84"
   id="path6359"
   inkscape:connector-curvature="0" />
   <path
   d="m 671.6,336.6455 h -5.84"
   id="path6361"
   inkscape:connector-curvature="0" />
   <path
   d="m 87.6,346.8418 h 5.84"
   id="path6363"
   inkscape:connector-curvature="0" />
   <path
   d="m 671.6,346.8418 h -5.84"
   id="path6365"
   inkscape:connector-curvature="0" />
   <path
   d="m 87.6,354.0762 h 5.84"
   id="path6367"
   inkscape:connector-curvature="0" />
   <path
   d="m 671.6,354.0762 h -5.84"
   id="path6369"
   inkscape:connector-curvature="0" />
   <path
   d="m 87.6,359.6877 h 5.84"
   id="path6371"
   inkscape:connector-curvature="0" />
   <path
   d="m 671.6,359.6877 h -5.84"
   id="path6373"
   inkscape:connector-curvature="0" />
   <path
   d="m 87.6,364.2726 h 5.84"
   id="path6375"
   inkscape:connector-curvature="0" />
   <path
   d="m 671.6,364.2726 h -5.84"
   id="path6377"
   inkscape:connector-curvature="0" />
   <path
   d="m 87.6,368.149 h 5.84"
   id="path6379"
   inkscape:connector-curvature="0" />
   <path
   d="m 671.6,368.149 h -5.84"
   id="path6381"
   inkscape:connector-curvature="0" />
   <path
   d="m 87.6,371.507 h 5.84"
   id="path6383"
   inkscape:connector-curvature="0" />
   <path
   d="m 671.6,371.507 h -5.84"
   id="path6385"
   inkscape:connector-curvature="0" />
   <path
   d="m 87.6,374.4689 h 5.84"
   id="path6387"
   inkscape:connector-curvature="0" />
   <path
   d="m 671.6,374.4689 h -5.84"
   id="path6389"
   inkscape:connector-curvature="0" />
   <path
   d="m 87.6,377.1184 h 5.84"
   id="path6391"
   inkscape:connector-curvature="0" />
   <path
   d="m 671.6,377.1184 h -5.84"
   id="path6393"
   inkscape:connector-curvature="0" />
   <path
   d="m 87.6,394.5492 h 5.84"
   id="path6395"
   inkscape:connector-curvature="0" />
   <path
   d="m 671.6,394.5492 h -5.84"
   id="path6397"
   inkscape:connector-curvature="0" />
   <path
   d="m 87.6,404.7455 h 5.84"
   id="path6399"
   inkscape:connector-curvature="0" />
   <path
   d="m 671.6,404.7455 h -5.84"
   id="path6401"
   inkscape:connector-curvature="0" />
   <path
   d="m 87.6,411.9799 h 5.84"
   id="path6403"
   inkscape:connector-curvature="0" />
   <path
   d="m 671.6,411.9799 h -5.84"
   id="path6405"
   inkscape:connector-curvature="0" />
   <path
   d="m 87.6,417.5914 h 5.84"
   id="path6407"
   inkscape:connector-curvature="0" />
   <path
   d="m 671.6,417.5914 h -5.84"
   id="path6409"
   inkscape:connector-curvature="0" />
   <path
   d="m 87.6,422.1762 h 5.84"
   id="path6411"
   inkscape:connector-curvature="0" />
   <path
   d="m 671.6,422.1762 h -5.84"
   id="path6413"
   inkscape:connector-curvature="0" />
   <path
   d="m 87.6,426.0527 h 5.84"
   id="path6415"
   inkscape:connector-curvature="0" />
   <path
   d="m 671.6,426.0527 h -5.84"
   id="path6417"
   inkscape:connector-curvature="0" />
   <path
   d="m 87.6,429.4106 h 5.84"
   id="path6419"
   inkscape:connector-curvature="0" />
   <path
   d="m 671.6,429.4106 h -5.84"
   id="path6421"
   inkscape:connector-curvature="0" />
   <path
   d="m 87.6,432.3726 h 5.84"
   id="path6423"
   inkscape:connector-curvature="0" />
   <path
   d="m 671.6,432.3726 h -5.84"
   id="path6425"
   inkscape:connector-curvature="0" />
   <path
   d="m 87.6,435.0221 h 5.84"
   id="path6427"
   inkscape:connector-curvature="0" />
   <path
   d="m 671.6,435.0221 h -5.84"
   id="path6429"
   inkscape:connector-curvature="0" />
   <path
   d="m 87.6,452.4528 h 5.84"
   id="path6431"
   inkscape:connector-curvature="0" />
   <path
   d="m 671.6,452.4528 h -5.84"
   id="path6433"
   inkscape:connector-curvature="0" />
   <path
   d="m 87.6,462.6492 h 5.84"
   id="path6435"
   inkscape:connector-curvature="0" />
   <path
   d="m 671.6,462.6492 h -5.84"
   id="path6437"
   inkscape:connector-curvature="0" />
   <path
   d="m 87.6,469.8836 h 5.84"
   id="path6439"
   inkscape:connector-curvature="0" />
   <path
   d="m 671.6,469.8836 h -5.84"
   id="path6441"
   inkscape:connector-curvature="0" />
   <path
   d="m 87.6,475.495 h 5.84"
   id="path6443"
   inkscape:connector-curvature="0" />
   <path
   d="m 671.6,475.495 h -5.84"
   id="path6445"
   inkscape:connector-curvature="0" />
   <path
   d="m 87.6,480.0799 h 5.84"
   id="path6447"
   inkscape:connector-curvature="0" />
   <path
   d="m 671.6,480.0799 h -5.84"
   id="path6449"
   inkscape:connector-curvature="0" />
   <path
   d="m 87.6,483.9564 h 5.84"
   id="path6451"
   inkscape:connector-curvature="0" />
   <path
   d="m 671.6,483.9564 h -5.84"
   id="path6453"
   inkscape:connector-curvature="0" />
   <path
   d="m 87.6,487.3143 h 5.84"
   id="path6455"
   inkscape:connector-curvature="0" />
   <path
   d="m 671.6,487.3143 h -5.84"
   id="path6457"
   inkscape:connector-curvature="0" />
   <path
   d="m 87.6,490.2763 h 5.84"
   id="path6459"
   inkscape:connector-curvature="0" />
   <path
   d="m 671.6,490.2763 h -5.84"
   id="path6461"
   inkscape:connector-curvature="0" />
   <path
   d="m 87.6,492.9258 h 5.84"
   id="path6463"
   inkscape:connector-curvature="0" />
   <path
   d="m 671.6,492.9258 h -5.84"
   id="path6465"
   inkscape:connector-curvature="0" />
   <path
   d="M 87.6,87.6 H 99.28"
   id="path6467"
   inkscape:connector-curvature="0" />
   <path
   d="M 671.6,87.6 H 659.92"
   id="path6469"
   inkscape:connector-curvature="0" />
   <path
   d="M 87.6,145.5037 H 99.28"
   id="path6471"
   inkscape:connector-curvature="0" />
   <path
   d="M 671.6,145.5037 H 659.92"
   id="path6473"
   inkscape:connector-curvature="0" />
   <path
   d="M 87.6,203.4074 H 99.28"
   id="path6475"
   inkscape:connector-curvature="0" />
   <path
   d="M 671.6,203.4074 H 659.92"
   id="path6477"
   inkscape:connector-curvature="0" />
   <path
   d="M 87.6,261.311 H 99.28"
   id="path6479"
   inkscape:connector-curvature="0" />
   <path
   d="M 671.6,261.311 H 659.92"
   id="path6481"
   inkscape:connector-curvature="0" />
   <path
   d="M 87.6,319.2147 H 99.28"
   id="path6483"
   inkscape:connector-curvature="0" />
   <path
   d="M 671.6,319.2147 H 659.92"
   id="path6485"
   inkscape:connector-curvature="0" />
   <path
   d="M 87.6,377.1184 H 99.28"
   id="path6487"
   inkscape:connector-curvature="0" />
   <path
   d="M 671.6,377.1184 H 659.92"
   id="path6489"
   inkscape:connector-curvature="0" />
   <path
   d="M 87.6,435.0221 H 99.28"
   id="path6491"
   inkscape:connector-curvature="0" />
   <path
   d="M 671.6,435.0221 H 659.92"
   id="path6493"
   inkscape:connector-curvature="0" />
   <path
   d="M 87.6,492.9258 H 99.28"
   id="path6495"
   inkscape:connector-curvature="0" />
   <path
   d="M 671.6,492.9258 H 659.92"
   id="path6497"
   inkscape:connector-curvature="0" />
  </g><g
     transform="matrix(1,0,0,-1,0.19014326,498.47975)"
     style="fill:#000000;fill-rule:nonzero"
     id="g6517">
   <text
   style="font-style:normal;font-weight:normal;font-size:584px;font-family:Times, 'Nimbus Roman No9 L'"
   transform="matrix(0.028,0,0,-0.028,45.76,82.1)"
   id="text6501">1e-07</text>

   <text
   style="font-style:normal;font-weight:normal;font-size:584px;font-family:Times, 'Nimbus Roman No9 L'"
   transform="matrix(0.028,0,0,-0.028,45.76,140.0037)"
   id="text6503">1e-06</text>

   <text
   style="font-style:normal;font-weight:normal;font-size:584px;font-family:Times, 'Nimbus Roman No9 L'"
   transform="matrix(0.028,0,0,-0.028,45.76,197.9074)"
   id="text6505">1e-05</text>

   <text
   style="font-style:normal;font-weight:normal;font-size:584px;font-family:Times, 'Nimbus Roman No9 L'"
   transform="matrix(0.028,0,0,-0.028,38.76,255.811)"
   id="text6507">0.0001</text>

   <text
   style="font-style:normal;font-weight:normal;font-size:584px;font-family:Times, 'Nimbus Roman No9 L'"
   transform="matrix(0.028,0,0,-0.028,46.76,313.7147)"
   id="text6509">0.001</text>

   <text
   style="font-style:normal;font-weight:normal;font-size:584px;font-family:Times, 'Nimbus Roman No9 L'"
   transform="matrix(0.028,0,0,-0.028,55.76,371.6184)"
   id="text6511">0.01</text>

   <text
   style="font-style:normal;font-weight:normal;font-size:584px;font-family:Times, 'Nimbus Roman No9 L'"
   transform="matrix(0.028,0,0,-0.028,63.76,429.5221)"
   id="text6513">0.1</text>

   <text
   style="font-style:normal;font-weight:normal;font-size:584px;font-family:Times, 'Nimbus Roman No9 L'"
   transform="matrix(0.028,0,0,-0.028,75.76,487.4258)"
   id="text6515">1</text>

  </g><g
     transform="matrix(1,0,0,-1,0.19014326,498.47975)"
     style="fill:none;stroke:#000000;stroke-width:0.87599999;stroke-linecap:butt;stroke-linejoin:miter;stroke-dasharray:none"
     id="g6521">
   <path
   d="m 87.6,87.6 v 408.8 h 584 V 87.6 Z"
   id="path6519"
   inkscape:connector-curvature="0" />
  </g><g
     transform="translate(-379.84747,301.89831)"
     id="g7838"><g
       id="g6525"
       style="fill:#ffffff;fill-rule:nonzero"
       transform="matrix(1,0,0,-1,0.19014326,498.47975)">
   <path
   inkscape:connector-curvature="0"
   id="path6523"
   d="m 496.4,467.2 v -40.52 h 92.472 v 40.52 z" />
  </g><g
       id="g6529"
       style="fill:none;stroke:#000000;stroke-width:0.87599999;stroke-linecap:butt;stroke-linejoin:miter;stroke-dasharray:none"
       transform="matrix(1,0,0,-1,0.19014326,498.47975)">
   <path
   inkscape:connector-curvature="0"
   id="path6527"
   d="m 496.4,467.2 v -40.52 h 92.472 v 40.52 z" />
  </g><g
       id="g6533"
       style="fill:#000000;fill-rule:nonzero"
       transform="matrix(1,0,0,-1,0.19014326,498.47975)">
   <text
   id="text6531"
   transform="matrix(0.028,0,0,-0.028,539.032,450.36)"
   style="font-style:normal;font-weight:normal;font-size:584px;font-family:Times, 'Nimbus Roman No9 L'">fresco</text>

  </g><g
       id="g6537"
       style="fill:none;stroke:#ff0000;stroke-width:3.50399995;stroke-linecap:butt;stroke-linejoin:miter;stroke-dasharray:none"
       transform="matrix(1,0,0,-1,0.19014326,498.47975)">
   <path
   inkscape:connector-curvature="0"
   id="path6535"
   d="m 503.992,455.86 h 23.36" />
  </g><g
       id="g6541"
       style="fill:#000000;fill-rule:nonzero"
       transform="matrix(1,0,0,-1,0.19014326,498.47975)">
   <text
   id="text6539"
   transform="matrix(0.028,0,0,-0.028,539.032,436.52)"
   style="font-style:normal;font-weight:normal;font-size:584px;font-family:Times, 'Nimbus Roman No9 L'">cooper</text>

  </g><g
       id="g6545"
       style="fill:none;stroke:#000000;stroke-width:3.50399995;stroke-linecap:butt;stroke-linejoin:miter;stroke-dasharray:none"
       transform="matrix(1,0,0,-1,0.19014326,498.47975)">
   <path
   inkscape:connector-curvature="0"
   id="path6543"
   d="m 503.992,438.52 h 23.36" />
  </g></g><text
     transform="rotate(-90)"
     id="text7102"
     y="23.05081"
     x="-312.48373"
     style="font-style:normal;font-weight:normal;font-size:33.75004578px;line-height:125%;font-family:Sans;letter-spacing:0px;word-spacing:0px;fill:#000000;fill-opacity:1;stroke:none;stroke-width:0.75000095px;stroke-linecap:butt;stroke-linejoin:miter;stroke-opacity:1"
     xml:space="preserve"><tspan
       style="font-style:normal;font-variant:normal;font-weight:normal;font-stretch:normal;font-family:times;-inkscape-font-specification:times;stroke-width:0.75000095px"
       y="23.05081"
       x="-312.48373"
       id="tspan7100"
       sodipodi:role="line">dσ/dΩ (mb/sr)</tspan></text>
<text
     xml:space="preserve"
     style="font-style:normal;font-weight:normal;font-size:33.75004578px;line-height:125%;font-family:Sans;letter-spacing:0px;word-spacing:0px;fill:#000000;fill-opacity:1;stroke:none;stroke-width:0.75000095px;stroke-linecap:butt;stroke-linejoin:miter;stroke-opacity:1"
     x="-312.48373"
     y="23.05081"
     id="text7106"
     transform="rotate(-90)"><tspan
       sodipodi:role="line"
       id="tspan7104"
       x="-312.48373"
       y="23.05081"
       style="font-style:normal;font-variant:normal;font-weight:normal;font-stretch:normal;font-family:times;-inkscape-font-specification:times;stroke-width:0.75000095px">dσ/dΩ (mb/sr)</tspan></text>
<text
     id="text7110"
     y="457.6492"
     x="356.52863"
     style="font-style:normal;font-weight:normal;font-size:33.75004578px;line-height:125%;font-family:Sans;letter-spacing:0px;word-spacing:0px;fill:#000000;fill-opacity:1;stroke:none;stroke-width:0.75000095px;stroke-linecap:butt;stroke-linejoin:miter;stroke-opacity:1"
     xml:space="preserve"><tspan
       style="font-style:normal;font-variant:normal;font-weight:normal;font-stretch:normal;font-family:times;-inkscape-font-specification:times;stroke-width:0.75000095px"
       y="457.6492"
       x="356.52863"
       id="tspan7108"
       sodipodi:role="line">θ<tspan
   id="tspan7112"
   style="font-size:64.99999762%;baseline-shift:sub">CM</tspan></tspan></text>
<text
     id="text7579"
     y="40.144245"
     x="198.95877"
     style="font-style:normal;font-weight:normal;font-size:27.653162px;line-height:125%;font-family:Sans;letter-spacing:0px;word-spacing:0px;fill:#000000;fill-opacity:1;stroke:none;stroke-width:0.61451471px;stroke-linecap:butt;stroke-linejoin:miter;stroke-opacity:1"
     xml:space="preserve"><tspan
       style="stroke-width:0.61451471px"
       y="40.144245"
       x="198.95877"
       id="tspan7577"
       sodipodi:role="line"><tspan
   id="tspan7585"
   style="font-size:17.97455406px;baseline-shift:super;stroke-width:0.61451471px">124</tspan>Sn(<tspan
   id="tspan7587"
   style="font-style:italic;font-variant:normal;font-weight:normal;font-stretch:normal;font-family:Sans;-inkscape-font-specification:'Sans Italic';stroke-width:0.61451471px">p,t</tspan>)<tspan
   id="tspan7583"
   style="font-size:17.97455406px;baseline-shift:super;stroke-width:0.61451471px">122</tspan>Sn, <tspan
   id="tspan7589"
   style="font-style:italic;font-variant:normal;font-weight:normal;font-stretch:normal;font-family:Sans;-inkscape-font-specification:'Sans Italic';stroke-width:0.61451471px">E</tspan><tspan
   id="tspan7581"
   style="font-style:italic;font-variant:normal;font-weight:normal;font-stretch:normal;font-size:17.97455406px;font-family:Sans;-inkscape-font-specification:'Sans Italic';baseline-shift:sub;stroke-width:0.61451471px">p</tspan>=25 MeV</tspan></text>
<text
     id="text7842"
     y="137.08516"
     x="474.99918"
     style="font-style:normal;font-weight:normal;font-size:19.94998932px;line-height:125%;font-family:Sans;letter-spacing:0px;word-spacing:0px;fill:#000000;fill-opacity:1;stroke:none;stroke-width:0.44333312px;stroke-linecap:butt;stroke-linejoin:miter;stroke-opacity:1"
     xml:space="preserve"><tspan
       style="stroke-width:0.44333312px"
       y="137.08516"
       x="474.99918"
       id="tspan7840"
       sodipodi:role="line">h<tspan
   id="tspan7846"
   style="font-size:12.96749306px;baseline-shift:super;stroke-width:0.44333312px">2</tspan>+s<tspan
   id="tspan7844"
   style="font-size:12.96749306px;baseline-shift:super;stroke-width:0.44333312px">2</tspan>, successive</tspan></text>
<text
     xml:space="preserve"
     style="font-style:normal;font-weight:normal;font-size:19.94998932px;line-height:125%;font-family:Sans;letter-spacing:0px;word-spacing:0px;fill:#000000;fill-opacity:1;stroke:none;stroke-width:0.44333312px;stroke-linecap:butt;stroke-linejoin:miter;stroke-opacity:1"
     x="309.64407"
     y="361.05826"
     id="text7854"><tspan
       sodipodi:role="line"
       id="tspan7852"
       x="309.64407"
       y="361.05826"
       style="stroke-width:0.44333312px">pure s<tspan
   style="font-size:12.96749306px;baseline-shift:super;stroke-width:0.44333312px"
   id="tspan7850">2</tspan>, successive</tspan></text>
<path
     inkscape:connector-curvature="0"
     id="path7856"
     d="m 612.2072,139.24545 -13.41706,42.3225"
     style="fill:none;fill-rule:evenodd;stroke:#000000;stroke-width:0.75000101px;stroke-linecap:butt;stroke-linejoin:miter;stroke-opacity:1" /><path
     inkscape:connector-curvature="0"
     id="path7858"
     d="m 442.02072,346.54532 73.30932,-37.73729"
     style="fill:none;fill-rule:evenodd;stroke:#000000;stroke-width:0.75000101px;stroke-linecap:butt;stroke-linejoin:miter;stroke-opacity:1" /></g></svg>